<svg xmlns="http://www.w3.org/2000/svg" xmlns:xlink="http://www.w3.org/1999/xlink" viewBox="0 0 5000 5000"><defs><style>.cls-1{fill:#fff;}.cls-2{fill:#eaf2f9;}.cls-3{fill:#dbf3fc;}.cls-4{fill:#c6d2eb;opacity:0.71;}.cls-5{fill:#ad3440;}.cls-6{fill:#891f2e;}.cls-7{fill:#fac2ae;}.cls-8{fill:#f1a080;}.cls-9{fill:#e8f7f7;}.cls-10{fill:#050035;}.cls-11{fill:#020026;}.cls-12{fill:#3d84a3;}.cls-13{fill:#669dbc;}.cls-14{fill:#155060;}.cls-15{fill:#0e434f;}.cls-16{fill:#28667c;}.cls-17{fill:#232f63;}.cls-18{fill:#131e44;}.cls-19{fill:#9bcbe0;}.cls-20{fill:#558ca5;}.cls-21{fill:#a6cfe2;}.cls-22{fill:#7badc9;}.cls-23{fill:#e6515b;}.cls-24{fill:#c64652;}.cls-25{fill:#ffa9b1;}.cls-26{fill:#acd6e8;}.cls-27{fill:#6da4bc;}.cls-28{fill:#427b8e;}.cls-29{fill:#111d49;}.cls-30{fill:#478393;}.cls-31{fill:#88bfd3;}.cls-32{fill:#528ca0;}.cls-33{fill:#d84150;}.cls-34{fill:#8ebbce;}.cls-35{fill:#acd9e8;}.cls-36{fill:#9cc9d8;}.cls-37{fill:#25687f;}.cls-38{opacity:0.57;}.cls-39{fill:none;stroke:#303030;stroke-miterlimit:10;}.cls-40{fill:#111c44;}.cls-41{fill:url(#linear-gradient);}.cls-42{fill:url(#linear-gradient-2);}.cls-43{fill:url(#linear-gradient-3);}.cls-44{fill:url(#linear-gradient-4);}.cls-45{fill:url(#linear-gradient-5);}.cls-46{fill:#d0edf7;}.cls-47{fill:#e3f8ff;opacity:0.42;}.cls-48{opacity:0.45;}.cls-49{fill:#171717;}</style><linearGradient id="linear-gradient" x1="2755.95" y1="3416.16" x2="3614.81" y2="3416.16" gradientUnits="userSpaceOnUse"><stop offset="0" stop-color="#27aae1" stop-opacity="0.2"/><stop offset="1" stop-opacity="0"/></linearGradient><linearGradient id="linear-gradient-2" x1="2753.53" y1="6988.79" x2="3612.39" y2="6988.79" gradientTransform="matrix(0.99, 0.1, 0.09, -0.89, -194.75, 7307.45)" xlink:href="#linear-gradient"/><linearGradient id="linear-gradient-3" x1="4105.88" y1="10791.99" x2="4796.71" y2="10791.99" gradientTransform="matrix(0.74, -0.67, -0.6, -0.66, 4128.61, 11738.66)" xlink:href="#linear-gradient"/><linearGradient id="linear-gradient-4" x1="12483.92" y1="4342.96" x2="13021.29" y2="4342.96" gradientTransform="matrix(-0.97, -0.25, -0.25, 0.97, 14948.76, 1891.38)" xlink:href="#linear-gradient"/><linearGradient id="linear-gradient-5" x1="5479.49" y1="914.96" x2="6645.01" y2="914.96" gradientTransform="translate(-1520.08 5325.28) rotate(-32.87)" xlink:href="#linear-gradient"/></defs><title>Asset 1</title><g id="Layer_2" data-name="Layer 2"><g id="Layer_1-2" data-name="Layer 1"><rect class="cls-1" width="5000" height="5000"/><path class="cls-2" d="M991.11,3847.49H4116.83s459-1427.46-39.24-1726.57c-445.43-267.39-282.33-1059.64-909-968.08s-665,359.5-1295.33,303.58C936.2,1373.28,360.31,2109.59,907.44,3126.85,1045.65,3383.83,1056.53,3644.43,991.11,3847.49Z"/><circle class="cls-3" cx="1853.68" cy="2693.04" r="101.75"/><ellipse class="cls-4" cx="2301.92" cy="3880.89" rx="826.75" ry="85.2"/><path class="cls-5" d="M1969.33,2812.21h736.79a12,12,0,0,1,12,12V3828a0,0,0,0,1,0,0H1969.33a12,12,0,0,1-12-12V2824.21A12,12,0,0,1,1969.33,2812.21Z"/><path class="cls-6" d="M2718.12,3828V3018.63s-16.07-113.42-92.25,20.95-668.54-83.29-668.54-83.29v877.9Z"/><path class="cls-7" d="M2027.12,3667s29,48.37,16.58,120.24,87.07-40.08,87.07-40.08l-20-126.45Z"/><polygon class="cls-8" points="2032.47 3675.1 2039.64 3698.57 2123.07 3698.57 2120.06 3668.88 2032.47 3675.1"/><path class="cls-7" d="M2365.35,3676.23s29,48.37,16.58,120.23,87.07-40.08,87.07-40.08l-20-126.45Z"/><polygon class="cls-8" points="2370.7 3684.34 2377.87 3707.81 2461.3 3707.81 2458.29 3678.13 2370.7 3684.34"/><path class="cls-7" d="M2046.54,2595.16s-44.66.7-80.06.28a23,23,0,0,1-21.12-14.46c-11.59-28.8-41.78-106.46-102.47-277.41,0,0-13-24.53-4.63-57.86s-13-73.59.92-83.77c0,0,.93-17.13-16.66-4.63s-13.88,32-13.88,32l-13-51.89s-13.27-39.34-14.2-46.75-22.83-10.18-7.09,38c0,0-19.44-28.69-28.7-45.66s-15.12,11.72-5.86,28.38c0,0-8-19.13-15.43,2.47,0,0-.31,18.83,7.71,37.34s15.12,48.14,15.12,48.14-8.33,13.26-40.73-27.78c0,0-9-11.72-9.87,0s17.89,35.18,35.17,50,18.52,43.51,50,72.51,12,353.93,78.68,374.29,215.69,52.76,215.69,52.76Z"/><path class="cls-8" d="M2003.13,2595.55s-17.47,95.74-99.07,84.89l127.2,30.19Z"/><path class="cls-8" d="M1764.36,2190.48s-7.25-45.67-12.35-52.3-12.18-26.85-12.18-26.85Z"/><path class="cls-8" d="M1774.39,2128.61s10.95,42.59,8.63,58.17c0,0-11.26-36.72-11.1-45.21s-10-31.93-10-31.93Z"/><path class="cls-8" d="M1715.16,2181.86s24.2,42.1,32.07,17.42C1747.23,2199.28,1737.7,2208.72,1715.16,2181.86Z"/><path class="cls-8" d="M1808.39,2188.32s-6,21.52-6.47,32.86l1.21-53.93Z"/><path class="cls-9" d="M3889.89,2608.58c-10.68,19.12-23.61,36.2-42.86,47.6,2.32-11.8,3.88-23.81,7.1-35.35C3863.34,2587.87,3863.6,2588,3889.89,2608.58Z"/><path class="cls-7" d="M2188.12,2244.21v21.42s-30.4,46.3-13.82,87.76,22.8,96,85.69,82.22c0,0,38.69-8.75,49.75,2.19s33.17,35.82,20,89c0,0-9,25.56-62.88,22.8s170,78.08,170,78.08l41.46-71.86L2459,2542.72s-39.38-9-31.09-106.76c0,0-1.38-18.31,41.46-46.64s-2.76-208.69-2.76-208.69Z"/><path class="cls-8" d="M2397.32,2253.71l-173.61-43.19-41,64.76-6.57,15.29a163,163,0,0,0,27.85,7.84h0l42.45,11.87c-14.05-4.14-16.65-16.41-16.65-16.41h0a9.86,9.86,0,0,0,1.35-3.54c1-5.65-2.29-24.6,18.13-19.87,10.27,2.38,18.89,21.35,22.87,31.62,0,0,2.6,9-7,10l20.53,3.8h0c38.37,17.72,142.55,28.57,145.31,62.54,1.92,23.71.75,35.34-.43,40.77,5.69-16.7,27.05-76,42.41-73.42C2490.85,2348.84,2397.32,2253.71,2397.32,2253.71Z"/><path class="cls-8" d="M2430.58,2419.2c-.92,2.72-1.45,4.35-1.45,4.35S2429.86,2422.56,2430.58,2419.2Z"/><path class="cls-8" d="M2325.71,2533.05s22.38,65.12,96,30.4a55,55,0,0,0,21.77-31.61c5.18-21.25,24.53,47.68,24.53,47.68l-95.53,25.39s-72-32.13-72.56-35.76,17.66-29.25,17.66-29.25Z"/><path class="cls-10" d="M2246.46,2118.79s46.87-86,182.13-61.15S2591.67,2227.1,2572,2290.33s-120.2,99.12-144.57,152.44c0,0-2.09-45.16,35.22-89.73s-87.06-185.53-87.06-185.53Z"/><path class="cls-11" d="M2461.93,2231.31s47.12,65.59,55.61,126.31l-39.2,28.24-44.91-144.42Z"/><path class="cls-12" d="M2384.24,2274.09l-217.53-52.89a8,8,0,0,0-8.81,11.87l23.28,39.59a8,8,0,0,0,4.43,3.56c5.29,1.71,17.47,5.66,33.52,10.84a8,8,0,0,0,10.39-6.17c1.3-6.94,5.33-13.95,15.95-15.43,14.55-2,24.66,20.43,29.93,36.29a8,8,0,0,0,5.15,5.13c40.81,13.13,84,26.95,106.87,34.06a10.2,10.2,0,0,0,13-11.87c-3.38-15.92-8.23-38.88-10.22-48.76A8,8,0,0,0,2384.24,2274.09Z"/><path class="cls-13" d="M2210,2126.74l-53,77.3a10.61,10.61,0,0,0,6.25,16.31l219.5,53.37a10.6,10.6,0,0,0,10.71-3.58l54.42-66.45a10.6,10.6,0,0,0-1.94-15.29c-31.86-23.21-142.73-96.68-230.78-65.65A10.53,10.53,0,0,0,2210,2126.74Z"/><path class="cls-14" d="M2424.44,2294s38.89,45.42,37.07,100.79c0,0-5.07,19.52,27.12-3.91a18,18,0,0,0,7.1-17.85c-6-31.78-23.26-128.58-45.47-130.86C2423.31,2239.37,2424.44,2294,2424.44,2294Z"/><path class="cls-15" d="M2473.61,2278.43s-29,47-29.05,46.93-18.39-31.06-18.39-31.06l40.17-40.47Z"/><path class="cls-16" d="M2413.75,2333l52.21-68.22a7.36,7.36,0,0,0,1.38-5.89l-9.48-48.41a7.37,7.37,0,0,0-12.93-3.25l-53.49,65.31a7.34,7.34,0,0,0-1.51,6.18l10.76,51.31A7.37,7.37,0,0,0,2413.75,2333Z"/><path class="cls-17" d="M2317.55,2539.9s35,96.11,120.71,24.93c0,0,12.45-16,5.19-33,0,0-2.94-7.09,12.43-4.84,22.43,3.28,51.83,44.22,145.63,23.49s74.46,151.85,73.77,167.05-2.25,434.65-2.25,434.65-38.28-85.69-175.56-83.62-209.84,38.7-354.26,11.06l34.55-308.88-5.84-2.95a338.48,338.48,0,0,0-122.25-35c-13.08-1.18-25.81-2.38-35.56-3.38a17.21,17.21,0,0,1-15.35-19c3.22-28.59,8.65-86.51,3.91-118.23a17.12,17.12,0,0,1,14.68-19.39c30.82-4.24,89-13.75,107.63-27.24,25.83-18.65,129.67,10.54,185.54-7.68C2310.52,2537.8,2316.82,2536.5,2317.55,2539.9Z"/><path class="cls-18" d="M2097,2611.82s23.52,108.4-32.51,122.61c0,0,82.87,17,113.28,36.32"/><path class="cls-18" d="M2097,2611.82s23.52,108.4-32.51,122.61c0,0,82.87,17,113.28,36.32"/><path class="cls-18" d="M2370.34,2733.25l196.45-122.81-207.12,96.92a11.58,11.58,0,0,0-6.38,13.08l2.87,12.51c1.81,7.88-1.85,39.31-8.42,44-51.13,36.62-76.36-4.77-158.56-121.59l-14.24,140.54-1.26,11.23s21.14,195.78,215.65,72.43c0,0,16.14-11.84,19.42-4.78.73,1.58,1.32,3.2,2.17,4.72,2.84,5.06,8.48,15,11.2,19a13.17,13.17,0,0,0,12.26,5.44c11.2-1.16,41.73-11.24,67.11-27.47,63.23-40.42,122.31-118.16,122.31-118.16Z"/><path class="cls-19" d="M1025.94,3561.44c-11.61-1.45-21,3.13-29.23,9.9-11.52,9.44-25,11.32-39.08,11.59-3.12.06-7.72-1.56-8.77,2.75-.87,3.55,2.88,5.93,5.48,8A88.92,88.92,0,0,0,981,3608.15c34.14,11.39,67.37,7.12,99.35-7.23,13.41-6,25.56-6.89,38.7-.87,5.11,2.33,10.63,3.76,16,5.61,16.84,5.85,16.87,5.88,4.69,18.54-10.7,11.12-21.34,22.31-34.1,31.22-2.57,1.8-7.1,3.06-5.55,7.33,1.36,3.76,5.92,3.19,9,3.18,32.75-.08,62.44-9.09,86.23-32.49,6.4-6.3,12.54-9.31,21.55-9.43,34.62-.46,68.86,4.12,103.27,6.41,16.8,1.12,33.65,3,50.56,2.9a30.66,30.66,0,0,0,11-2c6.82-2.61,13.71-4.69,14-13.89s-7-11.77-13.34-14.57c-14.43-6.43-29.09-12.36-43.72-18.33-9.38-3.82-15.26-10.57-14.3-20.71,2-21.34-9.91-33.73-26.35-43.42-26.34-15.52-54.52-27.23-82.74-38.74-26.4-10.76-53.12-20.73-79.71-31-12.45-4.81-20-13.14-23.43-26.58-8.71-34.22-26.24-62.94-55.73-83.55-7.19-5-11.71-6.36-23.27-4.53,7.23,11.9,12.61,23.91,12.09,38.05-1,27.73-10.55,34.33-36.39,24.08-16.95-6.72-32.16-16.63-46.53-27.53-32-24.32-66.82-45.1-96.15-73-9-8.54-17.45-17.64-23-29-3.18-6.46-2.76-12.13,4.77-14.55,23.59-7.6,28.93-26.41,29.86-47.89.5-11.44,2.26-23.1-3.67-36.15-8.49,19.82-23.11,29.74-41.93,34.52-7,1.77-9.39,8.16-11.25,14.46-.72,2.42-.38,5.66-3.82,6.12-2.7.36-3.84-2.05-4.93-4-5.63-9.79-14-13.15-25.26-13.78-14.62-.83-27.44-7.5-37.89-18-2.29-2.31-4.13-5.07-7-8.69-5.77,31.31,15.45,67.22,44.4,72.4,24.58,4.41,35.12,15.85,41.08,40.35,10.83,44.5,31.34,85.53,56.35,124.27,28.71,44.46,61.69,84.91,103.19,118.08C998.94,3545.43,1012.54,3552.65,1025.94,3561.44Z"/><path class="cls-20" d="M690.91,2891.55c9.14-8,14.85-16.31,10.56-28.75-1.91-5.56,5-8.6,7.9-13.4-23.63-5.66-41-25.9-66.72-26.37,29.52-2.49,58.64-2.32,85.18,11.69,10.73,5.66,21.12,11,32.94,14,42.37,10.63,83.22,26.28,125.12,38.48,18.82,5.49,38.09,8.83,57.43,11.95,9.79,1.58,16.59-1.26,21.89-9.64,9.23-14.57,13.13-29.43,4.87-45.8-1.25-2.47-4-5.52-1-8.13,2.62-2.26,5.87-.32,8.45,1,26.64,13.29,45,34,49.74,63.55,4,25.24,18.83,36.73,41.62,42.4,44.55,11.07,89.86,19,134,31.84,16.25,4.74,32.54,9.43,47.42,17.85,6.61,3.75,12.73,8.16,17.16,14.42,7.28,10.28,6.26,18.09-3.35,25.74a66.33,66.33,0,0,0-22.5,33.11c-2.29,7.42-6,10.56-14.29,11a320.51,320.51,0,0,0-48.1,6.27c-10.9,2.3-20.41,6.14-28.24,14.91-21.59,24.21-50.1,33-82.15,34.26,9.7-9.76,22.88-16.62,25.68-33.7-17,8.46-31.41,18.58-47.92,24.51-15.64,5.62-31.33,10.79-47.91,12.6-3.17.34-7.67,1.63-8.83-2.46-.93-3.31,3.46-4.43,5.77-6.07,12.6-9,22.12-20.44,27.44-34.87,5-13.62,12.61-23.76,28.53-27.22-12.42-5.28-25-10.12-37.22-15.92a998,998,0,0,1-162.78-98.05,1110.51,1110.51,0,0,1-99.75-82.92c-11.78-11-13.29-10.49-21.92,2.79C720.15,2885.69,707.24,2892.88,690.91,2891.55Z"/><path class="cls-21" d="M921.74,1452c6.18-32.62-9.49-56-31-78.1-17.08-17.54-36.31-33.51-47.34-56.44-7.69-16-11.42-33.32-5.17-49,11.17-28.11,2.7-48.3-21.36-67.63.92,34.06-11.35,64.7-12.76,96.57-1.76,39.45,19.66,68.11,50.55,90.6,9.27,6.75,20.4,11.62,28.16,25.27-23.36-6-37.12-21.14-52.84-33.26-33.23-25.61-42.28-59.8-36.45-99.57,3.05-20.83,6.2-41.65,9-62.51,1.56-11.53-2.25-17.22-15.48-18-44.38-2.65-50.05-34-41.63-68.15,12.24-49.66,45.11-82.35,92.45-94.2,28-7,60.8-4.87,86.86,15.44,12.28,9.57,25.7,18,34.85,31.15,13.35,19.23,13.16,37.28-3.38,53.36-9.45,9.19-8.93,16.48-.64,24.24,20,18.75,25.16,42,20.24,67.69-2.23,11.69,2.74,19.46,9.26,27.71,23.86,30.19,35,64.19,29.45,102.81-.87,6.06-.12,13.34-9.06,17.94,5.32-30.1,4.6-58.57-8.42-85.38-4.17-8.6-9.74-16.55-14.94-24.62-1.84-2.86-4-6.8-8.44-4.33-3,1.67-2.66,5.2-2.08,8.14,2.3,11.57,4.77,23.11,7.71,37.22-14.07-9.21-17.48-21.81-16.42-33.73,2-22.39-6.87-37.55-23.9-50.83-13.24-10.31-23.87-23.61-32.4-38.4-1.86-3.22-4.31-8.61-9.3-6.84-5.33,1.89-3.36,7-2.15,11,6.25,20.1,12.32,40.13,10.31,61.69-.66,7.09,6.16,9.73,10.74,13.42,49.3,39.79,66.34,92.66,49.14,153.09-1.13,4,0,11.86-7.38,9.31-5.55-1.9-.89-7.22,0-10.87,12.88-50.13-4.87-106.42-43.14-135-3.88-2.89-7.82-9.36-13.71-5.87-4.44,2.62-2.82,8.77-3.28,13.45-3.06,31.56,9.88,56.09,33.42,76,4,3.34,10,4.73,11.32,12.23-8,3.34-13.3-2-18.7-5.71-34.37-23.28-43.62-57.21-40.15-96.29,1-11.68-14.27-32.84-25.09-33.77-7.06-.61-7.28,5-7.82,9.67-4.53,39.3-.08,75.06,32.86,103.27,19.11,16.37,35.27,36.26,45.34,60.14,6,14.28,6.6,27.83-4.25,40.25Zm42.64-218.35c2.69-28.77-5.74-49.88-21.76-69.42-9.2-11.22-14.27-2-20.85,1.31-8,4-9.75,9.58-4.2,17.34C930.44,1200.89,945.28,1217,964.38,1233.67Zm-75.19-7.42c0-15.81-11.79-38.72-18.43-35.79-11.39,5-5,18-9,26.77-.84,1.82-.14,4.87.82,6.9,4.34,9.22,12.62,15.93,21.71,16.32C891.8,1240.79,887.63,1230.84,889.19,1226.25Z"/><path class="cls-22" d="M3621.18,2088.24c19.91-21.27,12.89-47,11.54-71.62-.46-8.29,2.07-17-3.87-26a204.5,204.5,0,0,1-28.71,50.61c-3.66,4.72.57,10.84,1.69,16.22,7.37,35.48-2,66.63-24.63,94.13-4.13,5-7.95,11.36-16.7,11.65-2-7,3.82-10,7.14-13.53,22.61-24.28,27.77-53.48,24.57-85.11-.44-4.3-.52-10-4.62-11.63-5.62-2.18-8.59,3.9-11.83,7.25-12.9,13.34-18.09,29.51-16.19,47.94.75,7.29,1.71,14.57,2.69,22.76-14.69-13.07-17.34-36.83-7-59.49,4.65-10.23,10.51-19.85,18.77-27.69,4.13-3.92,8.74-7.72,7.51-14.11-1.17-6-1.43-14.34-5.35-17.22-5.8-4.27-11,3.44-15.23,7.16-16.84,14.67-25.17,32.72-24.49,56,.71,24.69,6.88,49.57-1,74.26-6.13,19.3-19.2,27.39-41,23,9.37-6.55,17.58-12.43,25.94-18.11,10.08-6.84,11.77-17.5,11.63-28.09-.21-14.91-1.48-29.86-3.13-44.7-3.38-30.32,5.27-55.78,30.43-73.8,14.38-10.3,17.33-22.56,11.71-38.43-54.95,37.64-95,81-60.06,155.15-29.29-26.93-26.07-90.3,3-119.52,13.16-13.22,26.94-25.82,40.37-38.78,5.17-5,5.81-9,.45-15.64-23.06-28.52-20.5-44.4,9.12-66,58.87-42.82,140.12-9.86,151.06,61.28,4.31,28-2.38,40.25-29,49.91-7.67,2.78-11.1,5.92-10.37,14.42,1.34,15.65-3.38,30.28-14.16,41.3-11.39,11.65-15.59,24.55-15.48,40.35.07,10.1-1.37,20.61-10.17,31.56-3.11-17.07,7.84-30.71.51-45.61l-12,12.69Zm26.08-35.21c14.31-15.06,18.85-30.35,16.62-48.11-1.08-8.54-7.12-9.08-13.29-10-8.81-1.25-8.58,5.39-8.63,10.81C3641.84,2021,3639.88,2036.56,3647.26,2053Zm-35.81-59.24c0-7.09-1.25-12.13-7.14-9.09-7,3.61-14.3,8.44-16.27,16.67-1.58,6.56-.47,15.31,5.58,18.08,7.67,3.52,9.22-6,12.06-10.64C3608.81,2003.74,3610.09,1997.52,3611.45,1993.79Z"/><rect class="cls-23" x="1750.02" y="2972.74" width="207.3" height="853.83" rx="12"/><rect class="cls-24" x="1957.33" y="3266.2" width="760.79" height="221.81" rx="12"/><path class="cls-5" d="M2598.58,3266.2s-96.74,15.2-91.91,73.94S2492.85,3488,2492.85,3488l-51.82-1.38-25-306.11Z"/><path class="cls-5" d="M2236.49,3295.91s-73.94-35.24-81.54,35.94-9.4,156.16-9.4,156.16l-41.73.69-18-255.67H2233Z"/><rect class="cls-25" x="1957.33" y="3488.01" width="760.79" height="52.86"/><rect class="cls-25" x="1677.47" y="2972.74" width="72.56" height="853.83"/><rect class="cls-23" x="2718.12" y="2991.5" width="207.3" height="837.52" rx="12" transform="translate(5643.54 6820.53) rotate(180)"/><rect class="cls-25" x="2925.42" y="2991.5" width="72.56" height="837.52" transform="translate(5923.4 6820.53) rotate(180)"/><path class="cls-26" d="M3616.82,3664.86l1.8-2.17-1.11-2.05a9,9,0,0,0-1.59,2.38C3615.77,3663.5,3616.49,3664.24,3616.82,3664.86Z"/><path class="cls-26" d="M3411,3688.62c-7.24,2.29-5.85,8.46-3.89,14.2,9.4,27.42,19.14,54.68,37.93,77.51,1.17,1.43,2.14,3,3.79,5.36-6.83.53-11.64-2.6-16-5.45-23.15-15.16-44.15-32.66-58.8-56.7-2.77-4.54-5.87-10.25-12.15-6.39-6.58,4-2.19,9.37.66,13.58,16,23.52,38.21,40.11,61.63,55.42,24.06,15.74,50.2,27.13,76.93,37.36,4.12,1.57,8.5,2.92,13.7,8.7l36.06-1.41c-2.49-1.47-2.83-4.76-3.85-7.28-5.2-12.87-8.59-26.55-17.31-37.81-3.06-3.95-6.17-8.5-11.94-4.89-6.34,4-2.14,8.5.18,12.58,4.82,8.48,10.38,16.57,12.65,26.27.23.5.45,1,.67,1.5l-1.28-.83c-11.83-4.79-23.78-9.33-35.46-14.45-13.53-5.93-25.35-26.33-24.51-41.43.58-10.5,1.29-21,1.81-31.48.22-4.47,1.06-9.91-5.36-10.52-5.73-.55-7.34,4.07-8.38,8.77-2.67,12.07-1,24.52-2.64,38.31-9.61-7.32-13.22-17-17.24-25.78-6.85-15-12.29-30.73-18.46-46.08C3418.06,3693.51,3418.06,3686.38,3411,3688.62Z"/><path class="cls-26" d="M3629.5,3588.41c.74-4,3.7-10.81-4.19-11.72-7.53-.86-7.52,5.41-8.39,10.7-3.85,23.36-7,46.9-12.06,70-7,31.62-.09,62.22,4.91,92.93,4,24.88,10,49.48,8.71,74.93-.05,1-.07,1.93-.1,2.91l15-.58c2-24.29-2.76-47.91-9.43-71.38-9.27-32.62-8.33-63.83,10.34-93.41,3.84-6.08,8.07-9.93,14.91-12.5,34.15-12.84,49.87-41.53,61.53-73.4,1.4-3.83.88-7.81-3.62-9.37-5.18-1.8-7.68,1.48-9,5.89-4.85,15.69-13.43,29.35-23,42.5-6.06,8.31-14,14-25.27,19.32,9.44-23.75,15.34-46.09,16.76-69.43a96,96,0,0,0,.55-10.14c-.21-4.35-1.71-8.58-6.82-8.67-5.7-.11-5.94,4.39-6.09,8.81-1.18,34.14-10.21,66-28.18,95.17-1.86,3-3.1,8.48-7.29,7.11-4.55-1.48-2-6.54-1.31-10C3621.41,3628.2,3625.83,3608.38,3629.5,3588.41Zm-12,72.23,1.11,2.05-1.8,2.17c-.33-.62-1.05-1.36-.9-1.84A9,9,0,0,1,3617.51,3660.64Z"/><path class="cls-26" d="M3592.72,3809.67c-7.47-10-14.46-19.48-14.4-33,0-8.7-4.05-17.16-8.92-24.13-21.82-31.24-16.25-62-1-93.71,15.08-31.23,23.05-64.27,20.69-99.3-.13-1.88-.2-3.76-.39-5.63-.41-4.19-2-7.38-6.92-7s-6.53,3.75-6,7.89c1.29,10.37-1.15,20.62.57,31.25,1.39,8.56-2.4,18-4.28,29.36-8.17-13.24-10.48-26.1-14.81-38.15-.76-2.11-1.37-4.28-2.23-6.35-2-4.7-5.87-4.16-9.55-3-4.41,1.38-3.51,4.06-2.3,7.9,4.19,13.24,6.88,27.21,13.69,39.25,9.58,16.95,5.68,31.64-3.18,47.06-10.54,18.35-16.06,38.06-12.47,59.57,2,12.17,8.29,22.52,13.87,33.16,2.94,5.6,6.39,11,7.72,19.74-26.7-24.39-55.57-43.56-75.08-72.74-4.05-6.06-5.86-11.91-3.78-19,2.44-8.28,4.78-16.61,6.79-25,1.75-7.35,6.77-10.5,13.57-11.61,5.54-.9,12.39-.51,11.57-8.85-.86-8.73-8.87-2.4-12.94-5.48-.32-5.74,3.54-10.3,5.42-15.45,1.56-4.27,2.91-8.36-2.34-10.42-4.65-1.82-7.68.84-9.71,5.18a418.3,418.3,0,0,0-21.27,54.66,58,58,0,0,1-2.68,5.69,161.06,161.06,0,0,1-7.24-86.38c.34-1.85.81-3.68,1.13-5.53.82-4.65-.32-8.65-5.38-9.55-5.46-1-6.71,3-7.63,7.52-7.45,36.47-4,71.82,9.93,106.32A168.55,168.55,0,0,0,3504,3744c16,15,34,28.19,50.27,43.22,13.37,12.37,25.47,25.82,35.55,42l15.83-.62C3601.46,3822.15,3597.28,3815.76,3592.72,3809.67Z"/><path class="cls-22" d="M1642.56,3666.84l1.8-2.17-1.11-2.05a9.17,9.17,0,0,0-1.59,2.38C1641.51,3665.48,1642.23,3666.22,1642.56,3666.84Z"/><path class="cls-22" d="M1436.72,3690.61c-7.24,2.28-5.85,8.46-3.88,14.19,9.4,27.43,19.14,54.68,37.92,77.52,1.17,1.42,2.14,3,3.79,5.35-6.82.54-11.64-2.59-16-5.44-23.14-15.17-44.15-32.66-58.8-56.71-2.76-4.54-5.87-10.24-12.14-6.39-6.59,4-2.2,9.38.66,13.58,16,23.53,38.2,40.12,61.62,55.43,24.06,15.73,50.2,27.13,76.93,37.35,4.12,1.58,8.51,2.93,13.7,8.7l36.06-1.41c-2.49-1.47-2.83-4.75-3.85-7.28-5.2-12.87-8.59-26.55-17.31-37.81-3.06-4-6.17-8.49-11.94-4.88-6.34,4-2.14,8.49.18,12.58,4.82,8.47,10.38,16.57,12.65,26.26l.68,1.5-1.29-.82c-11.83-4.8-23.77-9.33-35.46-14.45-13.53-5.93-25.35-26.33-24.51-41.44.58-10.49,1.29-21,1.81-31.48.23-4.47,1.06-9.91-5.36-10.52-5.72-.54-7.34,4.08-8.38,8.78-2.67,12.07-1,24.51-2.64,38.31-9.6-7.32-13.21-17-17.24-25.79-6.85-15-12.28-30.72-18.46-46.08C1443.8,3695.5,1443.8,3688.37,1436.72,3690.61Z"/><path class="cls-22" d="M1655.24,3590.4c.74-4,3.7-10.82-4.19-11.72-7.53-.87-7.52,5.4-8.39,10.69-3.85,23.37-7,46.91-12.06,70-7,31.61-.09,62.21,4.91,92.93,4,24.87,10,49.47,8.71,74.93,0,1-.07,1.93-.09,2.91l15-.59c2-24.29-2.75-47.9-9.42-71.37-9.27-32.62-8.34-63.84,10.33-93.42,3.84-6.08,8.07-9.93,14.91-12.5,34.15-12.84,49.88-41.53,61.53-73.4,1.4-3.83.88-7.81-3.62-9.37-5.18-1.79-7.68,1.49-9,5.9-4.85,15.69-13.43,29.35-23,42.49-6.06,8.32-14,14-25.27,19.32,9.44-23.75,15.34-46.09,16.76-69.42a93.43,93.43,0,0,0,.55-10.15c-.21-4.35-1.71-8.57-6.82-8.67-5.7-.11-5.94,4.39-6.09,8.81-1.18,34.15-10.21,66-28.18,95.17-1.85,3-3.1,8.48-7.29,7.12-4.55-1.49-2-6.55-1.31-10C1647.15,3630.18,1651.57,3610.36,1655.24,3590.4Zm-12,72.22,1.11,2.05-1.8,2.17c-.33-.62-1-1.36-.9-1.84A9.17,9.17,0,0,1,1643.25,3662.62Z"/><path class="cls-22" d="M1618.46,3811.65c-7.47-10-14.46-19.48-14.4-33,0-8.7-4-17.17-8.91-24.14-21.83-31.23-16.26-62-1-93.71,15.08-31.23,23-64.27,20.69-99.29-.13-1.88-.2-3.76-.39-5.64-.41-4.18-2-7.37-6.92-7s-6.53,3.75-6,7.89c1.29,10.37-1.15,20.63.57,31.26,1.39,8.55-2.4,17.95-4.28,29.35-8.17-13.24-10.48-26.1-14.81-38.15-.76-2.11-1.36-4.28-2.23-6.34-2-4.7-5.87-4.17-9.55-3-4.41,1.39-3.51,4.07-2.3,7.91,4.19,13.23,6.88,27.2,13.69,39.24,9.59,16.95,5.69,31.64-3.18,47.07-10.54,18.34-16.06,38.06-12.46,59.56,2,12.17,8.28,22.52,13.86,33.16,2.94,5.6,6.39,11,7.72,19.74-26.7-24.39-55.57-43.56-75.08-72.74-4-6.06-5.86-11.91-3.78-19,2.44-8.29,4.79-16.62,6.79-25,1.75-7.34,6.77-10.49,13.57-11.61,5.54-.9,12.39-.5,11.57-8.84-.85-8.73-8.87-2.4-12.93-5.49-.33-5.74,3.53-10.29,5.41-15.45,1.56-4.27,2.91-8.36-2.34-10.41-4.65-1.83-7.68.84-9.71,5.18a417.61,417.61,0,0,0-21.27,54.65,57.81,57.81,0,0,1-2.68,5.7,161.09,161.09,0,0,1-7.24-86.39c.34-1.85.81-3.67,1.13-5.53.83-4.65-.32-8.64-5.38-9.55-5.46-1-6.71,3-7.63,7.53-7.45,36.46-4,71.82,9.93,106.31a168.8,168.8,0,0,0,40.81,60.08c16,15,34,28.18,50.27,43.21,13.37,12.38,25.48,25.83,35.55,42l15.83-.62C1627.21,3824.13,1623,3817.74,1618.46,3811.65Z"/><rect class="cls-22" x="500" y="3827.98" width="4000" height="18.67"/><path class="cls-22" d="M3948.23,3726.88a92,92,0,0,1-8.08,30.39c-16.52,35.9-24.23,73.23-20.81,112.19.41,4.78,5,13.63,12,24.5H4500V3541.7c-46.42-25.28-93.78-28.54-143.65-5.35,16.75-24.52,19.62-56.46,55.35-69.75,24.75-9.21,44.17-26.51,63.3-43.27,3.83-3.35,9.38-7.68,3.25-12.46-5-3.91-9.06.74-12.49,3.94-16.61,15.54-36.17,27.65-56.76,40.76-1.89-7.33,3.93-10,6.67-13.51,19.14-24.87,36.56-50.21,35.17-82.25a60.9,60.9,0,0,0-7-26c-1.82-3.49-3.57-8.39-9.28-6.5-6.5,2.14-4.84,6.81-2.57,11.24,15.26,29.75,2.87,55.32-15.14,80-.53.73-1.73,1.07-3.57,2.16-8.68-19.94-10-40.79-12.78-61.4-.65-4.88,1.92-12.84-7.78-11.92-7.85.75-5.41,7.74-5.25,12.3.26,7.42,1.49,14.82,2.34,22.5-5.92,1-10.57-8.78-15.76-1.37-3.79,5.41,1.49,9.58,5,13.07,10.49,10.36,21,20.45,23.32,35.28.74,4.71,1,8.7-2.29,12.66a339.26,339.26,0,0,0-33.82,47.49c-6.53-10-4.9-17.9.66-25.83,3.85-5.49,7.44-11.12,11-16.77,2-3.12,3.84-6.8-.69-9.16-3.71-1.93-7.58-1-10.13,2.49-3.27,4.46-6.48,8.95-9.73,13.44-1.58-1-2.71-1.34-3.17-2-3.25-5,1.91-16.62-8.56-14.82-11.51,2-5.09,12.17-3.68,18.75,1.77,8.29,4,16.72,7.77,24.42,11.28,23.07-2.19,41.36-13.15,60.26-3.35,5.77-10.19,6.68-15.83,6.35-6.68-.4-4.91-6.89-5.31-10.86-3-29.87,2.69-58.82,13.63-86.84,15.84-40.55,32.65-80.83,31.18-124.81a174.88,174.88,0,0,0-2.91-23.74c-.81-4.68-1-11.71-8.71-10.29s-4.92,7.63-3.5,12.44c7.92,26.86,5.4,53.46-2.59,79.9-.27.9-1.17,1.63-3.41,4.62-2.35-28.4-15.07-51.63-28.83-74.47-2.73-4.54-4.92-12.23-12.59-9-9,3.79-1.29,9.45,1,13.7,10.07,18.7,21.83,36.8,25,60.18-10.64-7.19-19.34-13.15-28.15-19-3.87-2.57-8.22-4-11.49.47-2.77,3.82.5,6.58,3.46,8.88,6.72,5.21,13.65,10.22,20.38,15.42,16.45,12.69,21.18,28.92,13.76,47-3.36,8.18-6.81,16.32-11.72,28.05-4.21-11.17-7.12-19-10.17-26.86-1.28-3.29-2.56-7.26-7.65-6.33-5.7,1-5.88,5.42-5.26,9.53,1.54,10.09,6.84,18.94,12.06,27.73,5.08,8.56,7.86,16.83,5,27-2.56,9.06-2.31,18.82-2.74,28.29-.41,8.92-.09,17.86-.09,29.34-15.66-23.7-24.5-47.54-27.37-73.15-2.9-25.93.07-51.93-.18-77.9-.51-54.57-27-96.6-76.62-127.17-4.38-2.7-10.3-9.5-15.47-2.75-4.91,6.4,3.35,9.3,8.06,12.31,28.84,18.47,43.05,32.7,49.64,51.05-16-5.36-30.71-10.62-45.71-15.16-5-1.53-12.18-7-15.72.88-3.76,8.43,6.13,7.43,10.77,9.78a52.82,52.82,0,0,0,7.33,2.54c2.91,5.32-9.61,7.21-3.16,12.88,6.67,5.85,9.85-.49,14.7-3.22,13-7.33,45.18,9.54,48.94,25.44,6.45,27.27,2.81,54.62.94,83.81-6-4.66-7.19-10-8.58-14.66-8.41-28.27-28.71-46.26-59.78-52.61-21.63-4.42-34.52-14.55-41.45-33.24-3.23-8.73-10.1-16.41-15.64-24.38-2.16-3.11-5.85-5.51-9.81-3.21s-3.11,6.14-1.11,9.45c6.06,10.05,12.25,20.05,20.14,33-18.36-6.42-28.85-16.94-40.26-26.4-4.3-3.57-8.46-12.37-15.58-5-6.16,6.41,2.09,9.89,6.81,14,25.63,22.6,56.62,36.81,90.47,45.76,27.36,7.24,45.59,21.49,53.48,46.41,3.83,12.1,9.72,23.4,19.89,32.45a12.19,12.19,0,0,1,4.28,7.85c2,15.37,6.72,30.21,12.74,47.1-15.39-6.58-25.49-15.87-34.61-26-16.39-18.25-33.61-36-48.28-55.36-16.7-22-42-33.54-65-48-10.46-6.57-21.27-12.7-31.95-19-4.65-2.74-10.15-6.67-14.57-1.14-5.16,6.45,2.78,8.62,6.88,10.92,18.37,10.26,37.05,20.08,55.57,30.11,2.27,1.23,4.33,2.76,9.21,5.92-39-4.88-70.71-17.14-98.93-37.15-4.61-3.27-9.91-11.73-16.12-4.31-5.57,6.66,4.24,10.17,8.66,13.76,16,13.08,35.66,21.22,56.52,30.21-18.73,8.3-35.28,3.14-51.71,0-6.45-1.22-12.59-3.82-18.83-5.87-4.57-1.5-9.13-2.17-11,3-1.43,4.05,1.82,6.53,5.63,8,26.09,9.84,53.64,17.79,80.49,6.74,28.1-11.57,49.07-.8,70.63,11.6a58.21,58.21,0,0,1,16.31,14.8c25.31,32.65,47.68,67.76,96.86,83.64-10.71,4-16.49,2.87-21.89,1.61-18.24-4.25-36.16-8.9-55.58-7.64-10.85.7-19.58-3.57-22.5-15.46-3.24-13.19-11-25-20.41-35.68-3.2-3.61-6.8-8-12.23-4.71-5.92,3.55-1.79,7.83,1.05,11.53,6.53,8.52,13.52,16.83,16.93,29.82-21.08-9.73-32.84-24.16-43.41-39.63-2.61-3.82-4.66-7.95-7.12-11.86-2.22-3.52-4.7-7.62-10.16-5-5.08,2.48-3.75,6.42-1.58,10.37,13,23.66,29.47,44.6,55.1,58.61,2.34,1.28,4.72,2.49,9.3,4.9-16,2.25-28.7,0-40.45-7-4.67-2.79-10-6.61-13.84.14-3.18,5.52,2.86,7.91,6.77,10.23,14.86,8.84,31.75,10.66,49.44,10.05-13,23.61-17.81,25.57-40.75,11.06-30.55-19.31-54-44-63.39-77.68-3.43-12.24-10.66-23-17.54-33.8-2.23-3.5-5-7.57-10.28-5-4.94,2.42-3.9,6.56-1.54,10.42a129.76,129.76,0,0,1,10.26,19.36,189.75,189.75,0,0,0-33.5-14.35c-3.58-1.12-8.09-2.77-10.16,1.53a6.77,6.77,0,0,0,4.87,9.79c40.48,8.61,51,42.79,73.81,67.68-47.87,5.21-83.71-12.32-113.86-43.09,3.48,11.71-4.4,25.62,12.59,32,3.82,1.43,4.31,8.89,1.68,12.52-5.4,7.43-5.44,15.18-2.94,27.11-13.61-13.71-19.56-26.78-26.33-39.46-2.12-4-1.76-12.29-9.29-9.8-7.25,2.39-.75,8.46-.45,13,.28,4.24,13.52,11.52-3.46,12.65-3.13.21-1.47,5.25,1.44,7.16,4,2.65,8.39,4.86,12.56,7.34,13.47,8,22.34,17.23,14.93,33.36-4.14,9-5.76,18.92-8.73,29.16-10.79-7-3.89-15.53-3.72-23.17.09-4.45,6.14-11-1.9-12.73-7.72-1.63-5.6,7-8.39,10.7-.58.78-1.06,1.64-1.76,2.74a22.34,22.34,0,0,1-3.55-3c-2.3-3-2.93-9-9.08-5.43-5.24,3.06-1.23,7.37.73,10.57,3.49,5.66,7.69,11,11.7,16.36,17.32,23.33,16.79,31-4.13,52.75-11.39-20.3-15.18-41.76-14.92-64,.37-31.95,2.21-64-9.44-95-3.43-9.11-9.6-25.9-15.78-22.68-11.67,6.1,4.41,15,7.1,23.15,4.26,12.93,9.4,25.48,8.53,41.65-11-16.76-23.64-29.68-37.47-41.64-3.35-2.9-6.92-8.54-12.22-4.17-6.18,5.1,1.56,7.66,4.46,10.36,11.43,10.63,23.82,20.5,32.47,36.45-8.43-3-14.37-5.34-20.49-7.2-4.08-1.24-9.78-3.15-11.75,1.46-2.3,5.37,4.2,5.77,8,7.25,12.57,4.87,25.8,7.95,33,20.79,6,10.7.59,20.48,1.46,31.86-7.32-2.84-10-8.27-13.77-12.77-1.92-2.31-4.56-3-7.23-1.53-3.07,1.71-2,4.23-.63,6.5s2.31,4.9,4.36,6.31c24,16.55,22.13,43.13,31.56,65.4-22.91-16.9-36-39.22-44.38-64.19-5.6-16.69-9.48-33.9-18.86-49.44q-25.61-42.43-77.41-54.76c-3.92-.94-9.66-3.63-11.46,1.84-2,6.07,5.14,5.55,8.7,6.51,18.19,4.89,34.71,12.19,48.55,24.12-13.73,0-26.79,0-39.84,0-3.34,0-7.41.26-7.71,4.06s5,3.33,6.67,5.06c9.39,9.9,17.46,4.39,28.42,1.7,13.7-3.38,28.91.43,35.06,15.72,1.32,3.28,3.29,6.36,4.46,9.68,4.83,13.71,9.47,27.48,14.44,42-6.5-1.2-8.25-5.77-10.66-9.07-12.11-16.58-29.48-24.33-50.87-23.29-17.73.85-31.88-2-43.15-16-4.52-5.62-13.25-18.16-20.87-11.24-7,6.34,8.93,10.64,13.41,16.75,1.42,1.93,4.4,2.94,9.9,6.41-15.2.78-23.62-4.46-32.66-7.94-4.64-1.78-11-7.42-14.24-1-3.06,6,5.85,7.37,10.24,9.4,21.24,9.79,44.35,13.56,67.77,12.43,24.69-1.2,40.8,8,56.85,24.49,15.17,15.59,31.91,29.63,42.17,49.47-19.52-3.21-35.24-12.89-49.42-23.37-32.47-24-70.77-34.39-110.48-42.46-4.31-.87-9.59-3.13-11.2,2.25-1.82,6.1,5.21,5.49,8.8,6.32,15.82,3.65,31.8,6.77,47.48,11.15-24.95,3.89-49.24,2.57-72.87-5.54-4-1.37-9.83-4.27-12,.06-2.84,5.73,4.07,6.84,8.5,8.58,14.16,5.57,29.38,7.29,46.46,9.72-14.21,9.88-29,9.84-43.84,10.2-4.39.11-11.9-2.49-11.69,4.36.16,5.63,7.35,5,12.16,5.09,18,.24,36.37-.29,50.29-11.84,19.36-16.06,39.85-11.72,60.09-4,10,3.79,18.55,10.81,27.17,17,13.58,9.78,27.73,19.25,45.13,21.27s29.26,10.33,40.5,21.63c-12.18,5.44-23.82,8.53-36,.77a15.94,15.94,0,0,0-7.76-2.53c-28.3-.37-51.44-9.83-69-30.24-2.34-2.72-7.76-6.22-11.33-1.69-3.43,4.36,1.77,7.08,5.33,9.29,6,3.72,11.37,7.9,16.25,15-18.86-2.45-31.36-12.08-43.57-22.24-3.38-2.81-6.8-8.67-12-3.57s1.82,8,4.92,10.65c15.3,13.32,32.79,23.39,56.72,27.58-10.45,5.3-19.15,3.73-27.7,3.24-4-.24-9.92-2.94-10.33,3.43-.32,5.13,5.46,5.62,9.73,6.22,13.56,1.9,27,.85,38.54-6,16.8-9.92,32.37-5.92,49,.95-52.36,27.34-96.59,28.31-142.7-24.28a205.78,205.78,0,0,0-19.22-18.55c-3-2.65-7.6-6.17-11.27-1.6-2.58,3.22,1,6.36,4.18,8.66,3.4,2.45,6.64,5.08,11.79,9-10.63-1.12-18.14-2.22-25.69-2.57-3.45-.16-8.74-.91-8.71,4.34,0,3.47,3.82,5.16,7.14,5,28.48-1.43,43.85,18.71,64.88,30.75-22.76,9.25-22.71,9-60.84,4-7.37-1-20.35-6.16-21.74,2.34-1.53,9.38,12.84,5.08,19.75,7.84,3.41,1.36,7.56,1.2,11.55,1.75-.63,6.71-7.67,4.85-11.11,7.5-3,2.32-7.3,4.07-5,8.13,2.46,4.37,6.68,2,10.05.49,15.33-6.94,30.2-14.65,47.3-18,16.07-3.13,31.8-3.87,48.93,2.43-15.08,10.39-30.48,18.05-48.06,22.2-4.64,1.1-11.43,1.56-11.6,6.81-.21,6.5,8.69,2,9.83,3.8,12.65,19.61,17.82.05,24.1-4.21,19.09-13,37.81-25.73,62.55-29,24.44-3.21,45.64-15.2,68.86-21.85C3948.77,3711.1,3949.62,3711.68,3948.23,3726.88ZM4156,3587.27c-24,23.89-49.77,29.64-76,17.74C4104.37,3596,4128.71,3594.67,4156,3587.27ZM4017.9,3545c-8.07,1.3-18.66,7.53-18.51-9Zm-20.81,20.12c2.09-6,8.59-7.23,13.54-5.19,6.64,2.75.59,7.11-1.23,9.69-5.73,8.12-12.41,15.69-18.73,23.47l-1.8-1C3991.58,3583.08,3994,3574,3997.09,3565.08Zm-9.69,44.59c14.47-13.4,26.72-27.84,36.3-44.2,3.48-5.94,8-9,15.39-9.12,33.3-.74,66.27-.55,94.41,23.62-23.62,3.86-45.41,11.88-69.14,9.68-5.66-.53-11.44.32-13.75,6.07-2.47,6.15,6.07,4.25,7.86,8.47-19.43-1-32.1,8.4-43,21.26-10.36,12.21-23.33,21.72-41.85,28.09C3978.63,3637.52,3975.32,3620.87,3987.4,3609.67Z"/><path class="cls-7" d="M2377.92,2747.37s-52.75,32-74,30.15S2146.16,2607.21,2130.42,2560c0,0-6.59-16.79-3.35-26.92s-8.33-58.72-8.33-58.72-.46-17.13,0-30.32,3.7-17.35,3.7-17.35-8.56-11.34-12.72,15.27c0,0-4.63-65.72-1.86-73.36s-9.48-7.41-12.26,8.56-3.47,63.87-3.47,63.87l-10-38.41s-19-35.87-17.82-47.21-17.13-5.32-11.81,22,11.58,34.72,11.58,34.72l6.71,29.62s-36.11-69.43-36.11-82.16-20.13,0-8.56,26.62,28.24,64.56,28.24,64.56,2.08,19.44,8.33,27.54-6.71,18.05-6.71,18.05l-21.3-16.2s-20.52-17.86-24.53-23.37c-3-4.05-22.91-3.93-5.32,19.67,14.17,19,34.64,47.19,56.83,60.82a50.73,50.73,0,0,1,22.58,29.33l12.7,45.23c14.74,52.51,118,292.34,171.71,290.67,95.18-3,212.91-116.17,212.91-116.17Z"/><path class="cls-8" d="M2357.35,2758.85s33.1,67.53,0,102.08-94,41-94,41,26.32,9.24,99-28.83,77.22-59.5,77.22-59.5l-67.44-62.88Z"/><path class="cls-8" d="M2109.72,2442l-1.47,15.27s-8.6-30.24-1.21-69.73Z"/><path class="cls-17" d="M2566.79,2610.44s-195.55,111.25-207.3,109.87l69.1,165.15,116.09-65s55.8-36.27,82.23-72.55S2566.79,2610.44,2566.79,2610.44Z"/><path class="cls-27" d="M2160.44,3069.37c-31.6-1.75-63.16-4-94.62-7.43-81.82-8.91-231.52-13.1-227,76.43,6.77,133.89,169,548.65,169,548.65h116.09s4.14-310.95-31.1-430.15c0,0,141,16.59,179.32-5.18s34.55-113.32,34.55-113.32S2282.49,3076.13,2160.44,3069.37Z"/><path class="cls-28" d="M2210,3223.2s-96.53,5.69-137.31-23.34c0,0,14.05,33.28,20,57,0,0,110.55,10.71,140.27,4.49S2210,3223.2,2210,3223.2Z"/><path class="cls-22" d="M2517.34,3069.37c-31.61-1.75-63.16-4-94.63-7.43-81.82-8.91-231.51-13.1-227,76.43,6.77,133.89,169,548.65,169,548.65h116.09s4.15-310.95-31.09-430.15c0,0,141,16.59,179.31-5.18s34.55-113.32,34.55-113.32S2639.38,3076.13,2517.34,3069.37Z"/><path class="cls-17" d="M2046.48,3749.34s40.75,22,84.29-5.6c0,0,31.78-12.44,12.44,152.71,0,0-258.44,9.68-331,0,0,0-27-66.33,63.57-82.23S2046.48,3749.34,2046.48,3749.34Z"/><path class="cls-29" d="M1812.94,3852.88s331-11.07,336.51-38.71l-6.24,58.22-335.07,3S1809.62,3859.11,1812.94,3852.88Z"/><path class="cls-1" d="M1812.22,3896.45S1805.89,3879,1809,3867l337.88-6.43-4.73,40.21S1830.35,3903.36,1812.22,3896.45Z"/><path class="cls-17" d="M2380.7,3754.77s40.75,22,84.29-5.6c0,0,31.78-12.44,12.44,152.71,0,0-258.44,9.68-331,0,0,0-26.94-66.34,63.58-82.23S2380.7,3754.77,2380.7,3754.77Z"/><path class="cls-29" d="M2147.32,3859.24s331-11.07,336.51-38.71l-6.24,58.23-335.07,3S2144,3865.47,2147.32,3859.24Z"/><path class="cls-1" d="M2146.43,3901.88s-6.32-17.44-3.22-29.49l337.88-6.42-4.73,40.21S2164.57,3908.79,2146.43,3901.88Z"/><path class="cls-30" d="M2449.67,3256.87s-7.26-37.31-15-47.68c0,0,186.17,38.86,224.72-14.78,0,0-6.25,46.85-27.1,55.17S2595.29,3270.86,2449.67,3256.87Z"/><path class="cls-31" d="M2353.27,3057.82s-191.91-.25-85.59,360.6c0,0-87.82-245.36-70.22-299.68S2283.83,3053.71,2353.27,3057.82Z"/><path class="cls-31" d="M1998.43,3057.59s-172,7.17-124.44,243.67c0,0-44.34-146.55-33.88-180.46S1867.15,3055.79,1998.43,3057.59Z"/><path class="cls-32" d="M2097.93,3276.87s19.71,370.07-58.37,410.15h84.31S2125.21,3360.79,2097.93,3276.87Z"/><path class="cls-32" d="M2454.49,3276.87s19.71,370.07-58.38,410.15h84.31S2481.76,3360.79,2454.49,3276.87Z"/><path class="cls-5" d="M1750,2999.87s46.65,756.6,72.3,826.7h-43s-33.69,5-29.29-45Z"/><path class="cls-33" d="M2924.8,3005s-73.16,753.07-113.39,822.85h67.46s49.14,6,46.9-44.6Z"/><path class="cls-18" d="M2556.47,2832.48s59.55-61.08,61.11,77.16c1.75,155.64-149.6,156.48-149.6,156.48s160-6.18,205.05,86.07l4-464.31Z"/><path class="cls-8" d="M2065.27,2362.82s13.82,45.71,14.62,50.86,3.74,29.84,12.24,27.35l-9.58-37a21.46,21.46,0,0,0-1-2.8Z"/><path class="cls-8" d="M2043.42,2385s9.81,42,27.42,56.73l-12.2-28.37Z"/><path class="cls-8" d="M2012.68,2459.65s26.79,37.72,41.3,41l3.87-5.85S2048.22,2495.38,2012.68,2459.65Z"/><path class="cls-34" d="M2224.74,2217.63l101.88-44.81a12.61,12.61,0,0,0,.06-23.06c-26.76-11.83-71-26.22-109.18-14.09a12.74,12.74,0,0,0-6.64,4.92l-34.55,50.35a12.6,12.6,0,0,0,7.42,19.38l32.95,8A12.69,12.69,0,0,0,2224.74,2217.63Z"/><path class="cls-12" d="M2400.69,2330.06s2.83,8.52,10.61,5c0,0-10.41,12.93-33.27,2.91S2400.69,2330.06,2400.69,2330.06Z"/><path class="cls-12" d="M2168.65,2221.67s-14.18-3.72-13.45-12.24c0,0-3.41,15.21,4.5,26.52S2168.65,2221.67,2168.65,2221.67Z"/><path class="cls-12" d="M2390.57,2281.81s-2.84-6.12,2-10.65c0,0-2.52,5-9.81,2.56Z"/><path class="cls-16" d="M2449,2192s4.43,6.12-6.27,17.93l16.06,5.46S2457.31,2200.54,2449,2192Z"/><path class="cls-35" d="M2382.72,2170.27s57.27,14.86,43.45,37.66-20.65,28.33-20.65,28.33S2427.36,2195.49,2382.72,2170.27Z"/><path class="cls-15" d="M2161.56,2238.83l229.9,55.13,67.35-78.58S2458,2199.8,2449,2192c0,0,8.8,4-45.68,66.05l-9.44,11.52s-3.4,8.17-19.42,2.16l-200.7-48.8s-17.9-2.66-18.58-13.49C2155.2,2209.43,2150.46,2225.43,2161.56,2238.83Z"/><polygon class="cls-36" points="2239.6 2224.13 2327.77 2185.15 2341.52 2188.24 2254.12 2229.14 2239.6 2224.13"/><path class="cls-37" d="M2263.86,2276.82l50.29,40.85-31.57-10.13s-5.77-.07-8-8.21Z"/><g class="cls-38"><path class="cls-9" d="M600.73,2055.49S414.16,2171.66,889.91,2209s1078.2-240.39,1129.19-270.22-1073.22-78.88-1082.54-78.46S600.73,2055.49,600.73,2055.49Z"/><path class="cls-17" d="M563.41,2094.15s-32.82,169.76,427-66.45c110-56.49,242-52.92,345.15,15.26q8.92,5.89,17.68,12.53c124.38,94.4,559.71,11.2,889.32-272.15S2973.29,1881,2973.29,1881s83.95,38.84,0,331.13c0,0-56,208.34,118.16,274.61,0,0-34.21-130.52,49.75-210.34s43.54-339.2-46.64-414.61c0,0,248.76,110.91,326.5-153.4s233.21-146.15,233.21-146.15-220.77-260.44-637.45,221.15c0,0-298.51-429.49-940.88-376.94,0,0-1.3-189.36,207-260.88,0,0-298.52-130.6-513.07,273.63C1769.91,1419.15,743.77,1506.69,563.41,2094.15Z"/><path class="cls-17" d="M1244.13,2011.69c80.87,58.46,315,188.52,741.87,132.38,32.42-4.26,36.55-49.62,5.48-59.78-118.57-38.77-264-117.33-243.39-267,29.1-211.58-381.85,59.81-503.4,144.25A30.76,30.76,0,0,0,1244.13,2011.69Z"/><path class="cls-39" d="M879.06,2081.48s273.81,11.25,440.07-48.79"/><path class="cls-39" d="M820,2106.53s284.45,59.79,533.21-51"/><path class="cls-39" d="M714.16,2141.87s324.39,87.12,713.39-47.27"/><path class="cls-39" d="M642.65,2153.1s336,123.66,839.23-36.17"/><path class="cls-40" d="M1847.07,2015.55s-82.55-32.54-95-163.14,746-304.47,844.08-167c0,0-207-56.64-405.06,139.92C2191.11,1825.32,2066.42,1950.14,1847.07,2015.55Z"/><path class="cls-40" d="M2075.94,1406.4l-125.87,14.82s103-269.48,332.91-275.7C2283,1145.52,2082.74,1249.16,2075.94,1406.4Z"/></g><path class="cls-41" d="M3614.81,3246.28c-326,229.33-748.72,238.71-789.78,239.08a66.4,66.4,0,0,0-11.29-1c-31.92,0-57.79,22.76-57.79,50.83,0,27.38,24.63,49.7,55.46,50.77v.06l.53-.05c.6,0,1.19.05,1.8.05a66.56,66.56,0,0,0,11.83-1.07C3361,3544,3614.81,3246.28,3614.81,3246.28Z"/><path class="cls-42" d="M4036,1612.54c-302.74-238.29-722.29-290.83-763.08-295.44a74.48,74.48,0,0,1-11.33-.31c-31.73-3.34-55.33-26.31-52.71-51.3,2.56-24.39,29.14-41.69,59.91-39.42v0l.52.09,1.8.15a74,74,0,0,1,11.66,2.19C3811.44,1320.9,4036,1612.54,4036,1612.54Z"/><path class="cls-43" d="M1259.71,1452.22c-305.13,54.17-561.27,277.9-585.89,299.92a58.72,58.72,0,0,1-6.24,6.63c-19,17.27-45.42,19.14-59,4.18-13.27-14.59-9.42-39.81,8.41-57.07l0,0,.34-.27c.34-.33.69-.67,1.05-1a57.19,57.19,0,0,1,7.56-5.83C964.43,1430.87,1259.71,1452.22,1259.71,1452.22Z"/><path class="cls-44" d="M1286.27,2807.66c162.57,189.09,417.56,259.61,442.41,266.12a41.84,41.84,0,0,1,7,1.14c19.36,4.9,31.56,22.67,27.26,39.69-4.2,16.61-22.56,26.37-41.43,22.3v0l-.32-.11-1.1-.25a41.19,41.19,0,0,1-7-2.46C1394.55,3027.16,1286.27,2807.66,1286.27,2807.66Z"/><path class="cls-45" d="M4476.68,2361.87c-178.93,452.11-747.37,715.49-794,746a147.76,147.76,0,0,0-13.31,7.64c-36.37,23.51-55.75,58.2-43.29,77.48,12.16,18.81,50.13,16,85.75-6l0,0,.58-.42c.69-.43,1.39-.85,2.08-1.3a145.51,145.51,0,0,0,13-9.44C4447,2846.21,4476.68,2361.87,4476.68,2361.87Z"/><circle class="cls-26" cx="2696.82" cy="2073.81" r="37.46"/><circle class="cls-26" cx="2718.91" cy="1184.94" r="59.55"/><circle class="cls-26" cx="3270.51" cy="2610.44" r="68.44"/><circle class="cls-46" cx="4282.9" cy="1842.85" r="63.92"/><circle class="cls-47" cx="2706.57" cy="2625.26" r="77.04"/><circle class="cls-26" cx="733.63" cy="2481.15" r="67.79"/><g class="cls-48"><path class="cls-22" d="M3831,2564.37l-14.38,6.45c-19,4.19-28.69,14.95-32.57,35.11a451.19,451.19,0,0,1-23.36,81.13c-9.91,24.92-62.27,121.25-78.17,144.48-55.24,80.7-113.8,151.56-190.4,220.88-32.88,23.88-32.4,25.74,4.28,46.13a15.75,15.75,0,0,0,2.14.82l23.93,13.29,121.42,53c-14.92,12.47-30.43,13-44.51,15.8a537.3,537.3,0,0,1-202.15,1.69c-8.87-1.61-18.17-.87-27.26-1.22-22-13-47.49-14.81-71.1-22.62-3.16-1-7.68.46-11.06,1.94-25.35,11.15-51.38,17.85-79,22.78-64.52,11.5-129,15.73-194.09,11.77-52.08-3.17-103.7-9.62-145.72-45.7-3.47-40.72,23.82-63.28,52.21-82.88,58.65-40.5,125.78-62.57,193.58-81.79,27.08-7.68,52-14,60-46.47,3.19-12.95,12.94-24.19,23.63-33.34,3.43-2.94,6.7-7.27,11.68-5.66,5.93,1.92,3.49,7.6,3.54,11.83.1,7.65-1.15,15.44-.07,22.92,1.14,7.93-5.25,20.1,9,22.17,12,1.74,22.18-.78,28.75-13.38,10.95-21,22.94-41.51,35.16-61.83,10.65-17.7,22.21-34.85,36.87-49.61,5.4-5.43,11.73-12.95,19.12-10.66,9.18,2.85,5,13.19,5.15,20.23.42,21.42,0,42.86-.23,64.29-.08,9.24,1.42,15.31,13,9.84,79.49-37.54,161.48-70.7,227.55-131.48,4-3.7,8.28-7.16,11.29-11.64a177.08,177.08,0,0,1,17-20.91c15.85-17.29,28.82-32.63,28.82-32.63,25-28.68,56-82.46,56.65-83.84,20.4-44.43,38.13-87.78,24.11-139.88-12.27-45.57-5.13-93.93-5.82-141.09,6.63-9,2.22-21.26,9.07-34.87,4,11.18,6.66,18.4,9.27,25.62,11.08,52.7,31.58,102.09,52.9,151.22,5.07,11.68,13.64,15,25.44,15.26,29.81.59,59.3-2.19,92.91-9.69C3886.77,2532.28,3856.66,2545.62,3831,2564.37Zm-734.48,594.2c-4.07,1.5-13.56.07-7.46,8.07,2.92,3.83-5.66,15.07,7.51,12,6.24-1.46,12.44-2.63,12.54-10.36C3109.16,3160.2,3103.08,3158.76,3096.47,3158.57Zm593.29-468.15a18.55,18.55,0,0,0,1.75-3.07c.17-.44-.39-1.15-.62-1.74-.83.45-2.36.93-2.34,1.35A11.65,11.65,0,0,0,3689.76,2690.42Z"/><path class="cls-9" d="M2868.92,3150.1c42,36.08,93.64,42.53,145.72,45.7,65.07,4,129.57-.27,194.09-11.77,27.65-4.93,53.68-11.63,79-22.78,3.38-1.48,7.9-3,11.06-1.94,23.61,7.81,49.14,9.66,71.1,22.62-90.21,42.26-185.24,63.74-284.72,66-44-2-87.94-5.48-130-20-29.66-10.27-57.95-23.32-76.56-50.41C2873.13,3169.39,2868.33,3160.58,2868.92,3150.1Z"/><circle class="cls-49" cx="3097.11" cy="3168.86" r="14.51"/></g></g></g></svg>