<svg xmlns="http://www.w3.org/2000/svg" viewBox="0 0 5000 5000"><defs><style>.cls-1{fill:#fff;}.cls-2{fill:#eaf2f9;}.cls-3,.cls-32{opacity:0.58;}.cls-4{fill:#cee4f4;}.cls-5{fill:#bdd6e5;}.cls-6{fill:#7badc9;}.cls-7{fill:#222563;}.cls-8{fill:#fac2ae;}.cls-9{fill:#f1a080;}.cls-10{fill:#2d2e75;}.cls-11{fill:#759cc6;}.cls-12{fill:#a8caef;}.cls-13{fill:#8db0dc;}.cls-14{fill:#6da4bc;}.cls-15{fill:#427b8e;}.cls-16{fill:#232f63;}.cls-17{fill:#111d49;}.cls-18,.cls-21{fill:#478393;}.cls-19{fill:#88bfd3;}.cls-20{fill:#528ca0;}.cls-21{opacity:0.4;}.cls-22{fill:none;}.cls-23{fill:#fabc9d;}.cls-24,.cls-33,.cls-47{fill:#e6515b;}.cls-25{fill:#b03e45;}.cls-26{fill:#344b56;}.cls-27{fill:#3f6a84;}.cls-28{fill:#9eb7c6;}.cls-29{fill:#a7c7d2;}.cls-30{fill:#c6d2eb;opacity:0.71;}.cls-31{fill:#121038;}.cls-32{fill:#c2ddf9;}.cls-33{opacity:0.47;}.cls-34{fill:#3d4d89;}.cls-35{fill:#0d193a;}.cls-36{fill:#364777;}.cls-37{fill:#1e2b59;}.cls-38{fill:#0f1b42;}.cls-39{fill:#6fa4bc;}.cls-40{fill:#5590a0;}.cls-41{fill:#77acbf;}.cls-42{fill:#5e9aaa;}.cls-43{fill:#87bac6;}.cls-44{opacity:0.56;}.cls-45{fill:#d3ddef;}.cls-46{fill:#c1d3e8;opacity:0.85;}.cls-47{opacity:0.27;}</style></defs><title>Asset 9</title><g id="Layer_2" data-name="Layer 2"><g id="Layer_1-2" data-name="Layer 1"><rect class="cls-1" width="5000" height="5000"/><ellipse class="cls-2" cx="1070.71" cy="3976.88" rx="570.71" ry="187.64"/><ellipse class="cls-2" cx="2704.89" cy="3915.76" rx="692.86" ry="232.95"/><ellipse class="cls-2" cx="3676.26" cy="3950.52" rx="306.32" ry="158.24"/><path class="cls-2" d="M1163.06,3552.4h3143S4767.64,2117,4266.61,1816.27c-447.9-268.86-283.89-1065.49-914-973.43s-668.69,361.49-1302.49,305.26c-942.24-83.6-1521.32,656.78-971.17,1679.66C1217.9,3086.17,1228.84,3348.21,1163.06,3552.4Z"/><g class="cls-3"><path class="cls-4" d="M4104,3009.45l-26.81,543s-237.1,3.38-236.58-2.35-7.32-554.81-7.32-554.81Z"/><polyline class="cls-5" points="4103.99 3041.11 3830.97 3041.11 3833.28 3087.27 4103.99 3041.11"/><polygon class="cls-4" points="4169.84 2946.02 2963.47 2946.02 2963.47 3003.45 4169.84 3041.11 4169.84 2946.02"/><polygon class="cls-4" points="3135.76 3004.97 3150.1 3556.37 3169.78 3557.15 3177.02 3004.97 3135.76 3004.97"/><path class="cls-5" d="M4095.48,3203c0,.45-257.94,21.74-257.94,21.74l.32,17.43,256.76-19.58Z"/><polygon class="cls-5" points="4086.78 3401.64 3840.6 3392.65 3840.94 3411.83 4086.3 3411.83 4086.78 3401.64"/><path class="cls-5" d="M3940,3139.1h47.32c2.94,0,5.35-3.78,5.35-8.4h0c0-4.62-2.41-8.4-5.35-8.4H3940c-3,0-5.36,3.78-5.36,8.4h0C3934.67,3135.32,3937.08,3139.1,3940,3139.1Z"/><path class="cls-5" d="M3936.49,3324.11h47.32c2.94,0,5.36-3.78,5.36-8.4h0c0-4.63-2.42-8.41-5.36-8.41h-47.32c-2.95,0-5.36,3.78-5.36,8.41h0C3931.13,3320.33,3933.54,3324.11,3936.49,3324.11Z"/><path class="cls-5" d="M3936.49,3513.88h47.32c2.94,0,5.36-3.78,5.36-8.4h0c0-4.62-2.42-8.4-5.36-8.4h-47.32c-2.95,0-5.36,3.78-5.36,8.4h0C3931.13,3510.1,3933.54,3513.88,3936.49,3513.88Z"/></g><g class="cls-3"><polygon class="cls-4" points="3880.39 2802.1 3916.29 2802.1 3921.08 2943.59 3886.37 2943.59 3880.39 2802.1"/></g><g class="cls-3"><path class="cls-4" d="M3815.16,2752.7h68.22c1.8,0,2.45,191.64,2.45,191.64h-63.48Z"/><path class="cls-2" d="M3874.4,2871.16c0,13.44-8.84,24.33-19.74,24.33s-19.75-10.89-19.75-24.33,7.05-22.64,18-22.64S3874.4,2857.73,3874.4,2871.16Z"/></g><g class="cls-3"><polygon class="cls-4" points="3763.11 2946.31 3760.11 2736.48 3822.34 2739.43 3822.34 2944.34 3763.11 2946.31"/><path class="cls-2" d="M3803.8,2780.71c0,8.55-5.63,15.48-12.57,15.48s-12.57-6.93-12.57-15.48,4.57-15.41,11.51-15.41S3803.8,2772.16,3803.8,2780.71Z"/></g><rect class="cls-6" x="981.52" y="3550.31" width="3510.95" height="16.38"/><path class="cls-7" d="M2853.69,2322.43s-37.51,70.64-29.67,93.8l-19,3.92s18.9-91.72,35-95.45S2853.69,2322.43,2853.69,2322.43Z"/><path class="cls-8" d="M2572.18,2100.94s-26.64,226.5,64.38,305.74c16.53,14.39,49.35,11.63,75.68,15.14,0,0,29.1,112-21.77,121.11s120.65,73.76,152.55-.35c0,0-59.17-79.79-22.33-175.23,13.71-35.5,27.43-41.9,33.29-64.74,18.49-71.93-8.38-140.79-57.88-187.86-1.59-1.52-8.74-16.13-10.43-17.62C2718,2037.66,2572.18,2100.94,2572.18,2100.94Z"/><path class="cls-9" d="M2626.29,2156.42s-52.6,20.28-53.42,98.61C2572.87,2255,2560.17,2095.63,2626.29,2156.42Z"/><path class="cls-9" d="M2626.29,2156.42s62.9-28,74,29.46,128.23,70.64,153.54,58.5-136.26-150.51-136.26-150.51S2617.78,2097.59,2626.29,2156.42Z"/><path class="cls-7" d="M2626.29,2156.42s-34.15-9-50.95,53.84l4.14-77.89S2622.69,2144.9,2626.29,2156.42Z"/><path class="cls-7" d="M2626.29,2156.42s49.47-50.45,78.42-6.09,0-51.24,0-51.24l-45.69,1.34Z"/><path class="cls-8" d="M2868.39,2262.7s23.11-12.22,13.91,22.37a60,60,0,0,1-40.18,42.37v-60.86Z"/><path class="cls-9" d="M2718.32,2509.52s13.46,32.82,57.11,8.19l43.65-24.63,31.2,53.36s-45.92,67.55-94.92,51.35S2685.59,2548.16,2718.32,2509.52Z"/><path class="cls-10" d="M2652.71,2332.24l-69.76,2.85a28.42,28.42,0,0,1-29.39-27.31l-.67-16.41a28.37,28.37,0,0,1,27.05-29.6l69.76-2.85a28.41,28.41,0,0,1,29.39,27.31l.67,16.41A28.37,28.37,0,0,1,2652.71,2332.24Zm-72.45-62.8a20.73,20.73,0,0,0-19.77,21.62l.68,16.41a20.75,20.75,0,0,0,21.46,20l69.77-2.85a20.73,20.73,0,0,0,19.76-21.62l-.68-16.41a20.75,20.75,0,0,0-21.46-19.95Z"/><path class="cls-10" d="M2804.55,2328.37l-69.76,2.85a28.42,28.42,0,0,1-29.39-27.31l-.67-16.41a28.38,28.38,0,0,1,27.05-29.6l69.76-2.85a28.4,28.4,0,0,1,29.39,27.3l.67,16.42A28.37,28.37,0,0,1,2804.55,2328.37Zm-72.45-62.8a20.72,20.72,0,0,0-19.76,21.62l.67,16.41a20.76,20.76,0,0,0,21.47,20l69.76-2.85a20.73,20.73,0,0,0,19.76-21.62l-.68-16.42a20.74,20.74,0,0,0-21.46-19.94Z"/><path class="cls-10" d="M2705.49,2289.64c-3.36-4.53-7.21-7-11.43-7.34-8.31-.66-16,6.76-16.12,6.83l-5.32-5.49c.41-.41,10.15-9.95,22-9,6.52.51,12.23,4,17,10.41Z"/><path class="cls-9" d="M2700.29,2419.79s29.07,7,80.32-9.17c0,0-19.29,28-64.51,29.45l-2-17.05Z"/><path class="cls-11" d="M3062.7,3795.07c-131.51,0-238.12-40.26-238.12-89.93v70.63s-10,81.71,238.12,89.92c0,0,224,4.93,238.13-89.92v-70.63C3300.83,3754.81,3194.22,3795.07,3062.7,3795.07Z"/><path class="cls-12" d="M3062.7,3780.48c-201.61-6.67-232.8-61.85-237.41-82.32a34.8,34.8,0,0,0-.71,7c0,49.67,106.61,89.93,238.12,89.93s238.13-40.26,238.13-89.93a35.35,35.35,0,0,0-1.16-8.9C3277.57,3785.19,3062.7,3780.48,3062.7,3780.48Z"/><path class="cls-11" d="M3062.7,3709.85c-131.51,0-238.12-40.26-238.12-89.92v70.62a24.75,24.75,0,0,0,.71,7.61c4.61,20.47,35.8,75.65,237.41,82.32,0,0,214.87,4.71,237-84.24.46-1.86.87-3.74,1.16-5.69v-70.62C3300.83,3669.59,3194.22,3709.85,3062.7,3709.85Z"/><path class="cls-12" d="M3062.7,3693c-198.1-6.56-231.66-59.94-237.14-81.22a34.91,34.91,0,0,0-1,8.13c0,49.66,106.61,89.92,238.12,89.92s238.13-40.26,238.13-89.92a35.3,35.3,0,0,0-1.47-10C3275.68,3697.69,3062.7,3693,3062.7,3693Z"/><path class="cls-11" d="M3062.7,3622.39c-131.51,0-238.12-40.26-238.12-89.92v70.62a25.79,25.79,0,0,0,1,8.71c5.48,21.28,39,74.66,237.14,81.22,0,0,213,4.67,236.66-83.07a60.91,60.91,0,0,0,1.47-6.86v-70.62C3300.83,3582.13,3194.22,3622.39,3062.7,3622.39Z"/><path class="cls-12" d="M3062.7,3607.61c-201.3-6.66-232.7-61.68-237.39-82.23a35.18,35.18,0,0,0-.73,7.09c0,49.66,106.61,89.92,238.12,89.92s238.13-40.26,238.13-89.92a35.33,35.33,0,0,0-1.19-9C3277.42,3612.32,3062.7,3607.61,3062.7,3607.61Z"/><path class="cls-11" d="M3062.7,3537c-131.51,0-238.12-40.26-238.12-89.92v70.63a24.59,24.59,0,0,0,.73,7.69c4.69,20.55,36.09,75.57,237.39,82.23,0,0,214.72,4.71,236.94-84.15.48-1.89.89-3.8,1.19-5.77v-70.63C3300.83,3496.72,3194.22,3537,3062.7,3537Z"/><path class="cls-12" d="M3062.7,3522.2c-201.3-6.66-232.7-61.68-237.39-82.22a35.08,35.08,0,0,0-.73,7.08c0,49.66,106.61,89.92,238.12,89.92s238.13-40.26,238.13-89.92a35.33,35.33,0,0,0-1.19-9C3277.42,3526.91,3062.7,3522.2,3062.7,3522.2Z"/><path class="cls-11" d="M3062.7,3451.58c-131.51,0-238.12-40.27-238.12-89.93v70.63a24.66,24.66,0,0,0,.73,7.7c4.69,20.54,36.09,75.56,237.39,82.22,0,0,214.72,4.71,236.94-84.15.48-1.88.89-3.8,1.19-5.77v-70.63C3300.83,3411.31,3194.22,3451.58,3062.7,3451.58Z"/><path class="cls-12" d="M3062.7,3436.79c-201.3-6.66-232.7-61.68-237.39-82.22a35.16,35.16,0,0,0-.73,7.08c0,49.66,106.61,89.93,238.12,89.93s238.13-40.27,238.13-89.93a35.2,35.2,0,0,0-1.19-9C3277.42,3441.5,3062.7,3436.79,3062.7,3436.79Z"/><path class="cls-11" d="M3062.7,3366.17c-131.51,0-238.12-40.26-238.12-89.93v70.63a24.65,24.65,0,0,0,.73,7.7c4.69,20.54,36.09,75.56,237.39,82.22,0,0,214.72,4.71,236.94-84.14.48-1.89.89-3.81,1.19-5.78v-70.63C3300.83,3325.91,3194.22,3366.17,3062.7,3366.17Z"/><path class="cls-12" d="M3062.7,3351.38c-201.3-6.66-232.7-61.68-237.39-82.22a35.16,35.16,0,0,0-.73,7.08c0,49.67,106.61,89.93,238.12,89.93s238.13-40.26,238.13-89.93a35.2,35.2,0,0,0-1.19-9C3277.42,3356.09,3062.7,3351.38,3062.7,3351.38Z"/><path class="cls-11" d="M3062.7,3280.76c-131.51,0-238.12-40.26-238.12-89.93v70.63a24.65,24.65,0,0,0,.73,7.7c4.69,20.54,36.09,75.56,237.39,82.22,0,0,214.72,4.71,236.94-84.14.48-1.89.89-3.81,1.19-5.78v-70.63C3300.83,3240.5,3194.22,3280.76,3062.7,3280.76Z"/><path class="cls-12" d="M3062.7,3280.76c131.52,0,238.13-40.26,238.13-89.93s-106.61-89.92-238.13-89.92c-66,0-125.79,10.16-168.92,26.55-42.77,16.26-69.2,38.65-69.2,63.37C2824.58,3240.5,2931.19,3280.76,3062.7,3280.76Zm0-151.74c90.4,0,163.68,27.68,163.68,61.81s-73.28,61.81-163.68,61.81S2899,3225,2899,3190.83,2972.31,3129,3062.7,3129Z"/><path class="cls-11" d="M3062.7,3252.64c90.4,0,163.68-27.67,163.68-61.81S3153.1,3129,3062.7,3129,2899,3156.7,2899,3190.83,2972.31,3252.64,3062.7,3252.64Zm-33.29-84.16c13.86-11.74,57.64-12.87,71.21-1.68,2,1.67,6,3.93,3.17,6.88-4.49,4.6-10.1,5.91-15.94,1.33-3.82-3-8.83-6.37-11.73,0-2.73,6,.56,9.68,7.48,10.81,5.78.94,11.39,3.24,16.91,5.37,5.8,2.24,10.65,5.57,10.11,12.94,0,3.84-2.11,6.63-4.67,9.26-12.74,13.05-67.27,13.54-80.37.75-1.81-1.78-3.79-3.86-1.4-5.71,2.67-2.07,6.66-4.68,9.32-4,4.27,1.07,7.73,5,11.88,7,5.34,2.6,11.79,5.68,14.69-2.7,2.16-6.22.56-11.62-7.34-13.34A144,144,0,0,1,3034,3190C3020.3,3185,3018.79,3177.47,3029.41,3168.48Z"/><path class="cls-12" d="M3034,3190a144,144,0,0,0,18.71,5.46c7.9,1.72,9.5,7.12,7.34,13.34-2.9,8.38-9.35,5.3-14.69,2.7-4.15-2-7.61-6-11.88-7-2.66-.67-6.65,1.94-9.32,4-2.39,1.85-.41,3.93,1.4,5.71,13.1,12.79,67.63,12.3,80.37-.75,2.56-2.63,4.62-5.42,4.67-9.26.54-7.37-4.31-10.7-10.11-12.94-5.52-2.13-11.13-4.43-16.91-5.37-6.92-1.13-10.21-4.78-7.48-10.81,2.9-6.39,7.91-3,11.73,0,5.84,4.58,11.45,3.27,15.94-1.33,2.87-2.95-1.14-5.21-3.17-6.88-13.57-11.19-57.35-10.06-71.21,1.68C3018.79,3177.47,3020.3,3185,3034,3190Z"/><path class="cls-11" d="M2608.45,3865.11c-131.52,0-238.13-40.26-238.13-89.92v70.62s-10,81.72,238.13,89.93c0,0,224,4.93,238.12-89.93v-70.62C2846.57,3824.85,2740,3865.11,2608.45,3865.11Z"/><path class="cls-12" d="M2608.45,3850.52c-201.62-6.67-232.81-61.85-237.42-82.32a35,35,0,0,0-.71,7c0,49.66,106.61,89.92,238.13,89.92s238.12-40.26,238.12-89.92a35.37,35.37,0,0,0-1.16-8.91C2823.31,3855.24,2608.45,3850.52,2608.45,3850.52Z"/><path class="cls-11" d="M2608.45,3779.9c-131.52,0-238.13-40.26-238.13-89.93v70.63a24.69,24.69,0,0,0,.71,7.6c4.61,20.47,35.8,75.65,237.42,82.32,0,0,214.86,4.72,237-84.24.46-1.85.87-3.74,1.16-5.68V3690C2846.57,3739.64,2740,3779.9,2608.45,3779.9Z"/><path class="cls-12" d="M2608.45,3763.06c-198.11-6.55-231.67-59.94-237.15-81.21a34.76,34.76,0,0,0-1,8.12c0,49.67,106.61,89.93,238.13,89.93s238.12-40.26,238.12-89.93a35.41,35.41,0,0,0-1.47-10C2821.42,3767.73,2608.45,3763.06,2608.45,3763.06Z"/><path class="cls-11" d="M2608.45,3692.44c-131.52,0-238.13-40.26-238.13-89.93v70.63a26.12,26.12,0,0,0,1,8.71c5.48,21.27,39,74.66,237.15,81.21,0,0,213,4.67,236.65-83.07a58.61,58.61,0,0,0,1.47-6.85v-70.63C2846.57,3652.18,2740,3692.44,2608.45,3692.44Z"/><path class="cls-12" d="M2608.45,3677.66c-201.31-6.67-232.71-61.69-237.39-82.23a34.46,34.46,0,0,0-.74,7.08c0,49.67,106.61,89.93,238.13,89.93s238.12-40.26,238.12-89.93a35.19,35.19,0,0,0-1.18-9C2823.16,3682.36,2608.45,3677.66,2608.45,3677.66Z"/><path class="cls-11" d="M2608.45,3607c-131.52,0-238.13-40.26-238.13-89.93v70.63a24.9,24.9,0,0,0,.74,7.7c4.68,20.54,36.08,75.56,237.39,82.23,0,0,214.71,4.7,236.94-84.15.47-1.89.89-3.81,1.18-5.78V3517.1C2846.57,3566.77,2740,3607,2608.45,3607Z"/><path class="cls-12" d="M2608.45,3592.25c-201.31-6.66-232.71-61.69-237.39-82.23a34.46,34.46,0,0,0-.74,7.08c0,49.67,106.61,89.93,238.13,89.93s238.12-40.26,238.12-89.93a35.19,35.19,0,0,0-1.18-9C2823.16,3597,2608.45,3592.25,2608.45,3592.25Z"/><path class="cls-11" d="M2608.45,3521.62c-131.52,0-238.13-40.26-238.13-89.92v70.62a24.9,24.9,0,0,0,.74,7.7c4.68,20.54,36.08,75.57,237.39,82.23,0,0,214.71,4.71,236.94-84.15.47-1.89.89-3.8,1.18-5.78V3431.7C2846.57,3481.36,2740,3521.62,2608.45,3521.62Z"/><path class="cls-12" d="M2608.45,3506.84c-201.31-6.66-232.71-61.68-237.39-82.23a34.48,34.48,0,0,0-.74,7.09c0,49.66,106.61,89.92,238.13,89.92s238.12-40.26,238.12-89.92a35.26,35.26,0,0,0-1.18-9C2823.16,3511.55,2608.45,3506.84,2608.45,3506.84Z"/><path class="cls-11" d="M2608.45,3436.21c-131.52,0-238.13-40.26-238.13-89.92v70.62a24.9,24.9,0,0,0,.74,7.7c4.68,20.55,36.08,75.57,237.39,82.23,0,0,214.71,4.71,236.94-84.15.47-1.89.89-3.8,1.18-5.78v-70.62C2846.57,3396,2740,3436.21,2608.45,3436.21Z"/><path class="cls-12" d="M2608.45,3421.43c-201.31-6.66-232.71-61.68-237.39-82.23a34.48,34.48,0,0,0-.74,7.09c0,49.66,106.61,89.92,238.13,89.92s238.12-40.26,238.12-89.92a35.26,35.26,0,0,0-1.18-9C2823.16,3426.14,2608.45,3421.43,2608.45,3421.43Z"/><path class="cls-11" d="M2608.45,3350.8c-131.52,0-238.13-40.26-238.13-89.92v70.62a24.9,24.9,0,0,0,.74,7.7c4.68,20.55,36.08,75.57,237.39,82.23,0,0,214.71,4.71,236.94-84.15.47-1.89.89-3.8,1.18-5.78v-70.62C2846.57,3310.54,2740,3350.8,2608.45,3350.8Z"/><path class="cls-12" d="M2608.45,3350.8c131.51,0,238.12-40.26,238.12-89.92S2740,3171,2608.45,3171c-66,0-125.79,10.16-168.93,26.56-42.76,16.25-69.2,38.64-69.2,63.37C2370.32,3310.54,2476.93,3350.8,2608.45,3350.8Zm0-151.73c90.39,0,163.67,27.67,163.67,61.81s-73.28,61.81-163.67,61.81-163.68-27.68-163.68-61.81S2518.05,3199.07,2608.45,3199.07Z"/><path class="cls-11" d="M2608.45,3322.69c90.39,0,163.67-27.68,163.67-61.81s-73.28-61.81-163.67-61.81-163.68,27.67-163.68,61.81S2518.05,3322.69,2608.45,3322.69Zm-33.3-84.17c13.86-11.74,57.64-12.86,71.21-1.68,2,1.67,6,3.93,3.17,6.88-4.49,4.61-10.1,5.91-15.94,1.34-3.81-3-8.83-6.38-11.73,0-2.73,6,.56,9.68,7.48,10.81,5.78.94,11.39,3.25,16.91,5.37,5.8,2.24,10.65,5.58,10.11,12.94-.05,3.84-2.11,6.64-4.67,9.27-12.74,13.05-67.27,13.53-80.37.74-1.81-1.77-3.79-3.86-1.4-5.71,2.67-2.07,6.67-4.68,9.32-4,4.27,1.07,7.73,5,11.88,7.06,5.34,2.59,11.79,5.68,14.7-2.7,2.16-6.23.55-11.62-7.35-13.34a145.58,145.58,0,0,1-18.71-5.46C2566,3255,2564.53,3247.52,2575.15,3238.52Z"/><path class="cls-12" d="M2579.76,3260a145.58,145.58,0,0,0,18.71,5.46c7.9,1.72,9.51,7.11,7.35,13.34-2.91,8.38-9.36,5.29-14.7,2.7-4.15-2-7.61-6-11.88-7.06-2.65-.67-6.65,1.94-9.32,4-2.39,1.85-.41,3.94,1.4,5.71,13.1,12.79,67.63,12.31,80.37-.74,2.56-2.63,4.62-5.43,4.67-9.27.54-7.36-4.31-10.7-10.11-12.94-5.52-2.12-11.13-4.43-16.91-5.37-6.92-1.13-10.21-4.77-7.48-10.81,2.9-6.39,7.92-3,11.73,0,5.84,4.57,11.45,3.27,15.94-1.34,2.87-2.95-1.14-5.21-3.17-6.88-13.57-11.18-57.35-10.06-71.21,1.68C2564.53,3247.52,2566,3255,2579.76,3260Z"/><path class="cls-13" d="M2245.66,3911.6c-131.51,0-238.13-40.26-238.13-89.93v70.63s-10,81.71,238.13,89.92c0,0,224,4.93,238.12-89.92v-70.63C2483.78,3871.34,2377.17,3911.6,2245.66,3911.6Z"/><path class="cls-12" d="M2245.66,3897c-201.61-6.67-232.81-61.85-237.42-82.32a35.55,35.55,0,0,0-.71,7c0,49.67,106.62,89.93,238.13,89.93s238.12-40.26,238.12-89.93a35.35,35.35,0,0,0-1.16-8.9C2460.52,3901.72,2245.66,3897,2245.66,3897Z"/><path class="cls-13" d="M2245.66,3826.38c-131.51,0-238.13-40.26-238.13-89.92v70.63a24.7,24.7,0,0,0,.71,7.6c4.61,20.47,35.81,75.65,237.42,82.32,0,0,214.86,4.71,237-84.24.46-1.86.87-3.74,1.16-5.68v-70.63C2483.78,3786.12,2377.17,3826.38,2245.66,3826.38Z"/><path class="cls-12" d="M2245.66,3809.55c-198.1-6.56-231.67-59.94-237.15-81.22a35.45,35.45,0,0,0-1,8.13c0,49.66,106.62,89.92,238.13,89.92s238.12-40.26,238.12-89.92a35.71,35.71,0,0,0-1.46-10C2458.63,3814.22,2245.66,3809.55,2245.66,3809.55Z"/><path class="cls-13" d="M2245.66,3738.92c-131.51,0-238.13-40.26-238.13-89.92v70.62a26.12,26.12,0,0,0,1,8.71c5.48,21.28,39,74.66,237.15,81.22,0,0,213,4.67,236.66-83.07a60.42,60.42,0,0,0,1.46-6.86V3649C2483.78,3698.66,2377.17,3738.92,2245.66,3738.92Z"/><path class="cls-12" d="M2245.66,3724.14c-201.31-6.66-232.71-61.68-237.39-82.22a35,35,0,0,0-.74,7.08c0,49.66,106.62,89.92,238.13,89.92s238.12-40.26,238.12-89.92a35.32,35.32,0,0,0-1.18-9C2460.37,3728.85,2245.66,3724.14,2245.66,3724.14Z"/><path class="cls-13" d="M2245.66,3653.51c-131.51,0-238.13-40.26-238.13-89.92v70.63a24.91,24.91,0,0,0,.74,7.7c4.68,20.54,36.08,75.56,237.39,82.22,0,0,214.71,4.71,236.94-84.15.47-1.89.89-3.8,1.18-5.77v-70.63C2483.78,3613.25,2377.17,3653.51,2245.66,3653.51Z"/><path class="cls-12" d="M2245.66,3638.73c-201.31-6.66-232.71-61.68-237.39-82.22a35.09,35.09,0,0,0-.74,7.08c0,49.66,106.62,89.92,238.13,89.92s238.12-40.26,238.12-89.92a35.32,35.32,0,0,0-1.18-9C2460.37,3643.44,2245.66,3638.73,2245.66,3638.73Z"/><path class="cls-13" d="M2245.66,3568.11c-131.51,0-238.13-40.26-238.13-89.93v70.63a24.91,24.91,0,0,0,.74,7.7c4.68,20.54,36.08,75.56,237.39,82.22,0,0,214.71,4.71,236.94-84.15.47-1.88.89-3.8,1.18-5.77v-70.63C2483.78,3527.85,2377.17,3568.11,2245.66,3568.11Z"/><path class="cls-12" d="M2245.66,3553.32c-201.31-6.66-232.71-61.68-237.39-82.22a35.17,35.17,0,0,0-.74,7.08c0,49.67,106.62,89.93,238.13,89.93s238.12-40.26,238.12-89.93a35.19,35.19,0,0,0-1.18-9C2460.37,3558,2245.66,3553.32,2245.66,3553.32Z"/><path class="cls-13" d="M2245.66,3482.7c-131.51,0-238.13-40.26-238.13-89.93v70.63a24.9,24.9,0,0,0,.74,7.7c4.68,20.54,36.08,75.56,237.39,82.22,0,0,214.71,4.71,236.94-84.14.47-1.89.89-3.81,1.18-5.78v-70.63C2483.78,3442.44,2377.17,3482.7,2245.66,3482.7Z"/><path class="cls-12" d="M2245.66,3467.91c-201.31-6.66-232.71-61.68-237.39-82.22a35.17,35.17,0,0,0-.74,7.08c0,49.67,106.62,89.93,238.13,89.93s238.12-40.26,238.12-89.93a35.19,35.19,0,0,0-1.18-9C2460.37,3472.62,2245.66,3467.91,2245.66,3467.91Z"/><path class="cls-13" d="M2245.66,3397.29c-131.51,0-238.13-40.26-238.13-89.93V3378a24.9,24.9,0,0,0,.74,7.7c4.68,20.54,36.08,75.56,237.39,82.22,0,0,214.71,4.71,236.94-84.14.47-1.89.89-3.81,1.18-5.78v-70.63C2483.78,3357,2377.17,3397.29,2245.66,3397.29Z"/><path class="cls-12" d="M2245.66,3397.29c131.51,0,238.12-40.26,238.12-89.93s-106.61-89.92-238.12-89.92c-66,0-125.79,10.16-168.93,26.55-42.76,16.26-69.2,38.65-69.2,63.37C2007.53,3357,2114.15,3397.29,2245.66,3397.29Zm0-151.74c90.39,0,163.67,27.68,163.67,61.81s-73.28,61.81-163.67,61.81S2082,3341.5,2082,3307.36,2155.26,3245.55,2245.66,3245.55Z"/><path class="cls-13" d="M2245.66,3369.17c90.39,0,163.67-27.67,163.67-61.81s-73.28-61.81-163.67-61.81S2082,3273.23,2082,3307.36,2155.26,3369.17,2245.66,3369.17Zm-33.3-84.16c13.86-11.74,57.64-12.87,71.22-1.68,2,1.67,6,3.93,3.16,6.88-4.49,4.6-10.09,5.91-15.93,1.33-3.82-3-8.83-6.37-11.73,0-2.74,6,.55,9.68,7.47,10.81,5.78.94,11.39,3.24,16.91,5.37,5.81,2.24,10.65,5.57,10.12,12.94-.06,3.84-2.11,6.63-4.68,9.26-12.73,13-67.27,13.54-80.36.75-1.82-1.78-3.8-3.86-1.41-5.71,2.67-2.07,6.67-4.68,9.32-4,4.28,1.07,7.73,5,11.88,7.05,5.35,2.6,11.79,5.68,14.7-2.7,2.16-6.22.55-11.62-7.35-13.34a143.4,143.4,0,0,1-18.7-5.46C2203.26,3301.52,2201.74,3294,2212.36,3285Z"/><path class="cls-12" d="M2217,3306.52a143.4,143.4,0,0,0,18.7,5.46c7.9,1.72,9.51,7.12,7.35,13.34-2.91,8.38-9.35,5.3-14.7,2.7-4.15-2-7.6-6-11.88-7.05-2.65-.67-6.65,1.94-9.32,4-2.39,1.85-.41,3.93,1.41,5.71,13.09,12.79,67.63,12.3,80.36-.75,2.57-2.63,4.62-5.42,4.68-9.26.53-7.37-4.31-10.7-10.12-12.94-5.52-2.13-11.13-4.43-16.91-5.37-6.92-1.13-10.21-4.78-7.47-10.81,2.9-6.39,7.91-3,11.73,0,5.84,4.58,11.44,3.27,15.93-1.33,2.88-2.95-1.14-5.21-3.16-6.88-13.58-11.19-57.36-10.06-71.22,1.68C2201.74,3294,2203.26,3301.52,2217,3306.52Z"/><path class="cls-13" d="M2940.72,3950.52c-131.51,0-238.12-40.26-238.12-89.92v70.62s-10,81.71,238.12,89.93c0,0,224,4.92,238.13-89.93V3860.6C3178.85,3910.26,3072.23,3950.52,2940.72,3950.52Z"/><path class="cls-12" d="M2940.72,3935.93c-201.61-6.67-232.8-61.85-237.41-82.32a34.9,34.9,0,0,0-.71,7c0,49.66,106.61,89.92,238.12,89.92s238.13-40.26,238.13-89.92a35.37,35.37,0,0,0-1.16-8.91C3155.59,3940.65,2940.72,3935.93,2940.72,3935.93Z"/><path class="cls-13" d="M2940.72,3865.31c-131.51,0-238.12-40.26-238.12-89.93V3846a24.31,24.31,0,0,0,.71,7.6c4.61,20.47,35.8,75.65,237.41,82.32,0,0,214.87,4.72,237-84.24.46-1.86.87-3.74,1.16-5.68v-70.63C3178.85,3825.05,3072.23,3865.31,2940.72,3865.31Z"/><path class="cls-12" d="M2940.72,3848.47c-198.1-6.55-231.66-59.94-237.14-81.22a34.91,34.91,0,0,0-1,8.13c0,49.67,106.61,89.93,238.12,89.93s238.13-40.26,238.13-89.93a35.41,35.41,0,0,0-1.47-10C3153.69,3853.14,2940.72,3848.47,2940.72,3848.47Z"/><path class="cls-13" d="M2940.72,3777.85c-131.51,0-238.12-40.26-238.12-89.93v70.63a25.73,25.73,0,0,0,1,8.7c5.48,21.28,39,74.67,237.14,81.22,0,0,213,4.67,236.66-83.07a60.73,60.73,0,0,0,1.47-6.85v-70.63C3178.85,3737.59,3072.23,3777.85,2940.72,3777.85Z"/><path class="cls-12" d="M2940.72,3763.06c-201.31-6.66-232.71-61.68-237.39-82.22a35.16,35.16,0,0,0-.73,7.08c0,49.67,106.61,89.93,238.12,89.93s238.13-40.26,238.13-89.93a35.2,35.2,0,0,0-1.19-9C3155.44,3767.77,2940.72,3763.06,2940.72,3763.06Z"/><path class="cls-13" d="M2940.72,3692.44c-131.51,0-238.12-40.26-238.12-89.93v70.63a24.65,24.65,0,0,0,.73,7.7c4.68,20.54,36.08,75.56,237.39,82.22,0,0,214.72,4.71,236.94-84.14.47-1.89.89-3.81,1.19-5.78v-70.63C3178.85,3652.18,3072.23,3692.44,2940.72,3692.44Z"/><path class="cls-12" d="M2940.72,3677.66c-201.3-6.67-232.71-61.69-237.39-82.23a35.16,35.16,0,0,0-.73,7.08c0,49.67,106.61,89.93,238.12,89.93s238.13-40.26,238.13-89.93a35.2,35.2,0,0,0-1.19-9C3155.44,3682.36,2940.72,3677.66,2940.72,3677.66Z"/><path class="cls-13" d="M2940.72,3607c-131.51,0-238.12-40.26-238.12-89.93v70.63a24.65,24.65,0,0,0,.73,7.7c4.68,20.54,36.09,75.56,237.39,82.23,0,0,214.72,4.7,236.94-84.15.47-1.89.89-3.81,1.19-5.78V3517.1C3178.85,3566.77,3072.23,3607,2940.72,3607Z"/><path class="cls-12" d="M2940.72,3592.25c-201.31-6.66-232.71-61.69-237.39-82.23a35.16,35.16,0,0,0-.73,7.08c0,49.67,106.61,89.93,238.12,89.93s238.13-40.26,238.13-89.93a35.2,35.2,0,0,0-1.19-9C3155.44,3597,2940.72,3592.25,2940.72,3592.25Z"/><path class="cls-13" d="M2940.72,3521.62c-131.51,0-238.12-40.26-238.12-89.92v70.62a24.65,24.65,0,0,0,.73,7.7c4.68,20.54,36.08,75.57,237.39,82.23,0,0,214.72,4.71,236.94-84.15.47-1.89.89-3.8,1.19-5.78V3431.7C3178.85,3481.36,3072.23,3521.62,2940.72,3521.62Z"/><path class="cls-12" d="M2940.72,3506.84c-201.3-6.66-232.71-61.68-237.39-82.23a35.18,35.18,0,0,0-.73,7.09c0,49.66,106.61,89.92,238.12,89.92s238.13-40.26,238.13-89.92a35.28,35.28,0,0,0-1.19-9C3155.44,3511.55,2940.72,3506.84,2940.72,3506.84Z"/><path class="cls-13" d="M2940.72,3436.21c-131.51,0-238.12-40.26-238.12-89.92v70.62a24.65,24.65,0,0,0,.73,7.7c4.68,20.55,36.09,75.57,237.39,82.23,0,0,214.72,4.71,236.94-84.15.47-1.89.89-3.8,1.19-5.78v-70.62C3178.85,3396,3072.23,3436.21,2940.72,3436.21Z"/><path class="cls-12" d="M2940.72,3436.21c131.51,0,238.13-40.26,238.13-89.92s-106.62-89.93-238.13-89.93c-66,0-125.79,10.16-168.93,26.56-42.76,16.25-69.19,38.64-69.19,63.37C2702.6,3396,2809.21,3436.21,2940.72,3436.21Zm0-151.73c90.4,0,163.67,27.67,163.67,61.81s-73.27,61.81-163.67,61.81-163.67-27.68-163.67-61.81S2850.33,3284.48,2940.72,3284.48Z"/><path class="cls-13" d="M2940.72,3408.1c90.4,0,163.67-27.68,163.67-61.81s-73.27-61.81-163.67-61.81-163.67,27.67-163.67,61.81S2850.33,3408.1,2940.72,3408.1Zm-33.29-84.17c13.86-11.74,57.63-12.86,71.21-1.68,2,1.67,6,3.93,3.16,6.88-4.48,4.61-10.09,5.91-15.93,1.34-3.82-3-8.83-6.38-11.73,0-2.74,6,.55,9.68,7.48,10.81,5.78.94,11.38,3.25,16.9,5.37,5.81,2.24,10.66,5.57,10.12,12.94,0,3.84-2.11,6.63-4.68,9.26-12.73,13-67.27,13.54-80.36.75-1.82-1.77-3.79-3.86-1.41-5.71,2.67-2.07,6.67-4.68,9.33-4,4.27,1.07,7.72,5,11.87,7.05,5.35,2.6,11.79,5.68,14.7-2.69,2.16-6.23.55-11.62-7.34-13.34a144.65,144.65,0,0,1-18.71-5.46C2898.32,3340.44,2896.81,3332.92,2907.43,3323.93Z"/><path class="cls-12" d="M2912,3345.45a144.65,144.65,0,0,0,18.71,5.46c7.89,1.72,9.5,7.11,7.34,13.34-2.91,8.37-9.35,5.29-14.7,2.69-4.15-2-7.6-6-11.87-7.05-2.66-.67-6.66,1.94-9.33,4-2.38,1.85-.41,3.94,1.41,5.71,13.09,12.79,67.63,12.3,80.36-.75,2.57-2.63,4.63-5.42,4.68-9.26.54-7.37-4.31-10.7-10.12-12.94-5.52-2.12-11.12-4.43-16.9-5.37-6.93-1.13-10.22-4.77-7.48-10.81,2.9-6.39,7.91-3,11.73,0,5.84,4.57,11.45,3.27,15.93-1.34,2.88-3-1.14-5.21-3.16-6.88-13.58-11.18-57.35-10.06-71.21,1.68C2896.81,3332.92,2898.32,3340.44,2912,3345.45Z"/><path class="cls-13" d="M3672.41,3968.9c-131.51,0-238.12-40.26-238.12-89.93v70.63a24.65,24.65,0,0,0,.73,7.7c4.68,20.54,36.08,75.56,237.39,82.23,0,0,214.72,4.7,236.94-84.15.47-1.89.89-3.81,1.19-5.78V3879C3910.54,3928.64,3803.92,3968.9,3672.41,3968.9Z"/><path class="cls-12" d="M3672.41,3968.9c131.51,0,238.13-40.26,238.13-89.93s-106.62-89.92-238.13-89.92c-66,0-125.79,10.16-168.93,26.55-42.76,16.26-69.19,38.65-69.19,63.37C3434.29,3928.64,3540.9,3968.9,3672.41,3968.9Zm0-151.74c90.4,0,163.67,27.68,163.67,61.81s-73.27,61.81-163.67,61.81-163.67-27.67-163.67-61.81S3582,3817.16,3672.41,3817.16Z"/><path class="cls-13" d="M3672.41,3940.78c90.4,0,163.67-27.67,163.67-61.81s-73.27-61.81-163.67-61.81-163.67,27.68-163.67,61.81S3582,3940.78,3672.41,3940.78Zm-33.29-84.16c13.86-11.74,57.63-12.86,71.21-1.68,2,1.67,6,3.93,3.16,6.88-4.48,4.6-10.09,5.91-15.93,1.33-3.82-3-8.83-6.37-11.73,0-2.74,6,.55,9.68,7.48,10.81,5.77.94,11.38,3.24,16.9,5.37,5.81,2.24,10.66,5.57,10.12,12.94,0,3.84-2.11,6.63-4.68,9.26-12.73,13-67.27,13.54-80.36.75-1.82-1.77-3.79-3.86-1.41-5.71,2.67-2.07,6.67-4.68,9.33-4,4.27,1.07,7.72,5,11.87,7.05,5.35,2.6,11.79,5.68,14.7-2.7,2.16-6.22.55-11.62-7.34-13.34a144.61,144.61,0,0,1-18.71-5.45C3630,3873.13,3628.5,3865.61,3639.12,3856.62Z"/><path class="cls-12" d="M3643.73,3878.14a144.61,144.61,0,0,0,18.71,5.45c7.89,1.72,9.5,7.12,7.34,13.34-2.91,8.38-9.35,5.3-14.7,2.7-4.15-2-7.6-6-11.87-7.05-2.66-.67-6.66,1.94-9.33,4-2.38,1.85-.41,3.94,1.41,5.71,13.09,12.79,67.63,12.3,80.36-.75,2.57-2.63,4.63-5.42,4.68-9.26.54-7.37-4.31-10.7-10.12-12.94-5.52-2.13-11.13-4.43-16.9-5.37-6.93-1.13-10.22-4.78-7.48-10.81,2.9-6.39,7.91-3,11.73,0,5.84,4.58,11.45,3.27,15.93-1.33,2.88-3-1.14-5.21-3.16-6.88-13.58-11.18-57.35-10.06-71.21,1.68C3628.5,3865.61,3630,3873.13,3643.73,3878.14Z"/><path class="cls-13" d="M3644.85,3871.76c-131.51,0-238.13-40.27-238.13-89.93v70.63a24.91,24.91,0,0,0,.74,7.7c4.68,20.54,36.08,75.56,237.39,82.22,0,0,214.71,4.71,236.94-84.15.47-1.88.89-3.8,1.18-5.77v-70.63C3883,3831.49,3776.36,3871.76,3644.85,3871.76Z"/><path class="cls-12" d="M3644.85,3871.76c131.51,0,238.12-40.27,238.12-89.93s-106.61-89.93-238.12-89.93c-66,0-125.79,10.16-168.93,26.56-42.76,16.26-69.2,38.65-69.2,63.37C3406.72,3831.49,3513.34,3871.76,3644.85,3871.76Zm0-151.74c90.39,0,163.67,27.67,163.67,61.81s-73.28,61.81-163.67,61.81-163.68-27.67-163.68-61.81S3554.45,3720,3644.85,3720Z"/><path class="cls-13" d="M3644.85,3843.64c90.39,0,163.67-27.67,163.67-61.81S3735.24,3720,3644.85,3720s-163.68,27.67-163.68,61.81S3554.45,3843.64,3644.85,3843.64Zm-33.3-84.17c13.86-11.74,57.64-12.86,71.22-1.67,2,1.66,6,3.92,3.16,6.88-4.49,4.6-10.09,5.9-15.93,1.33-3.82-3-8.83-6.38-11.73,0-2.74,6,.55,9.68,7.47,10.8,5.78,1,11.39,3.25,16.91,5.38,5.81,2.23,10.65,5.57,10.12,12.93-.06,3.84-2.11,6.64-4.68,9.27-12.73,13.05-67.27,13.53-80.36.74-1.82-1.77-3.8-3.85-1.41-5.71,2.67-2.07,6.67-4.67,9.32-4,4.28,1.07,7.73,5,11.88,7.06,5.35,2.6,11.79,5.68,14.7-2.7,2.16-6.22.55-11.62-7.35-13.34a145,145,0,0,1-18.7-5.46C3602.45,3776,3600.93,3768.47,3611.55,3759.47Z"/><path class="cls-12" d="M3616.17,3781a145,145,0,0,0,18.7,5.46c7.9,1.72,9.51,7.12,7.35,13.34-2.91,8.38-9.35,5.3-14.7,2.7-4.15-2-7.6-6-11.88-7.06-2.65-.66-6.65,1.94-9.32,4-2.39,1.86-.41,3.94,1.41,5.71,13.09,12.79,67.63,12.31,80.36-.74,2.57-2.63,4.62-5.43,4.68-9.27.53-7.36-4.31-10.7-10.12-12.93-5.52-2.13-11.13-4.43-16.91-5.38-6.92-1.12-10.21-4.77-7.47-10.8,2.9-6.4,7.91-3,11.73,0,5.84,4.57,11.44,3.27,15.93-1.33,2.88-3-1.14-5.22-3.16-6.88-13.58-11.19-57.36-10.07-71.22,1.67C3600.93,3768.47,3602.45,3776,3616.17,3781Z"/><path class="cls-8" d="M2416.17,3793.4s31.43,45.25,30.78,119,68.63-50.53,68.63-50.53L2481,3737Z"/><polygon class="cls-9" points="2421.86 3800.94 2431.21 3823.7 2502.3 3813.92 2495.62 3784.41 2421.86 3800.94"/><path class="cls-8" d="M2703.41,3818.69s31.42,45.25,30.77,119,68.63-50.52,68.63-50.52l-34.57-124.85Z"/><polygon class="cls-9" points="2709.09 3826.23 2718.45 3848.99 2789.53 3839.21 2782.86 3809.7 2709.09 3826.23"/><path class="cls-14" d="M2447,3176.64c-27.17,1.94-54.36,3.37-81.65,3.62-70.94.63-199.07,14-182.82,103.49,24.31,133.89,219.9,532.07,219.9,532.07l98.91-13.61s-39.51-313.26-86-429c0,0,122.4.15,152.06-26.24s13.75-118,13.75-118S2552,3169.13,2447,3176.64Z"/><path class="cls-15" d="M2510.6,3325.56s-81.46,17-120.22-7.37c0,0,16.57,31.82,25,55,0,0,95.68-2.19,120.13-11.93S2510.6,3325.56,2510.6,3325.56Z"/><path class="cls-6" d="M2748.9,3190.44c-27.17,1.94-54.37,3.38-81.65,3.62-70.95.63-199.07,14-182.82,103.49,24.3,133.9,219.89,532.08,219.89,532.08l98.91-13.61s-39.51-313.27-86-429c0,0,132.8-18.71,165.45-41.3,115.61-80,90.53-214.71,90.53-214.71S2853.82,3182.93,2748.9,3190.44Z"/><path class="cls-16" d="M2444.07,3874s37.78,17.39,71-15.51c0,0,25.36-16.24,31.74,152.15,0,0-218.85,40-282,38.81,0,0-32.15-63.57,42.78-90.17S2444.07,3874,2444.07,3874Z"/><path class="cls-17" d="M2259.42,4005.5s280.5-49.95,281.36-78.4l2.74,59.31-285.07,42.31S2257.46,4012.16,2259.42,4005.5Z"/><path class="cls-1" d="M2264.84,4049.42s-7.8-16.8-6.83-29.29l287-46.08,1.53,41S2281.25,4054.24,2264.84,4049.42Z"/><path class="cls-16" d="M2727.35,3895.9s37.78,17.39,71.05-15.52c0,0,25.36-16.24,31.73,152.15,0,0-218.85,40-282,38.81,0,0-32.14-63.57,42.79-90.17S2727.35,3895.9,2727.35,3895.9Z"/><path class="cls-17" d="M2543,4028.35s280.49-49.95,281.35-78.4l2.75,59.3L2542,4051.57S2541,4035,2543,4028.35Z"/><path class="cls-1" d="M2548.12,4071.34s-7.8-16.8-6.83-29.28l287-46.09,1.53,41S2564.54,4076.16,2548.12,4071.34Z"/><path class="cls-18" d="M2717.2,3387s-11.35-36.68-19.41-46.19c0,0,243.74-55.22,269.16-113.69,0,0-30.81,98.64-81.58,119.6C2867.05,3354.26,2843.21,3384,2717.2,3387Z"/><path class="cls-19" d="M2607.51,3198.07s-163.54,22.24-23,372.75c0,0-108.79-236.51-101.31-293.21S2547.78,3202.07,2607.51,3198.07Z"/><path class="cls-19" d="M2307.37,3183.78s-145.56,27.39-72.29,259.7c0,0-58.06-142.21-53.85-177.55S2195.27,3197.37,2307.37,3183.78Z"/><path class="cls-20" d="M2422.5,3392.69s68,369.94,7,419.41l71.84-9.89S2457.36,3473.9,2422.5,3392.69Z"/><path class="cls-20" d="M2724.07,3406.53s68,369.94,7,419.41l71.84-9.89S2758.93,3487.74,2724.07,3406.53Z"/><path class="cls-21" d="M2974.79,3181.19s-265.06,65.59-329.69,64.36-142.46-9-142.46-9-34.37,24.36-12.08,92.24c0,0-113.58,23.89-168.36-76.12-31.62-57.7-119.2-35.2-119.2-35.2s44.68-32.21,128.39-41.46S2998.53,3088.45,2974.79,3181.19Z"/><polygon class="cls-22" points="2649.92 3123.32 2649.92 3123.32 2678.57 3186.08 2649.92 3123.32"/><polygon class="cls-23" points="2508.59 2934.94 2556.25 2939.04 2562.56 2832.64 2512.66 2827.84 2499.58 2934.16 2508.59 2934.94 2508.59 2934.94"/><polygon class="cls-9" points="2566.17 2939.89 2576.11 2961.67 2566.17 2832.99 2562.56 2832.64 2556.25 2939.04 2566.17 2939.89"/><path class="cls-24" d="M2899.7,2531.33l-12.24-5.88h0Z"/><path class="cls-24" d="M3017,2589.86c-24.91-13.81-84.21-42.61-117.25-58.5,14.81,28.09-101.86,142.8-101.86,142.8s-1.07-5.13-3.22-13c-7.53,8.12-12.31,13-12.31,13-2.87-37.63-35.56-78.06-50.49-94.71-37.74,1.93-72.35,47.06-72.35,47.06v-17.08a50.77,50.77,0,0,0-6.6,11s-.79-51.35,5.89-82.9c-30.1,12.9-97.09,42.52-115.85,58.47-24.44,20.77-40.32,230.91-40.32,230.91l10,1,49.9,4.8,3.61.35-19.36-1.86,11.73-140.48,7.63,142.34,9.94,128.68,73.81,161.65h0l-3.83-8.39h0l-1-2.16,1,2.16,46.5,2.65c7.15-11.19,13.31-22.48,14.69-29.86.91-4.82,6.92-8.37,15.45-11-15.13-9.14-19.79-28.52-4.75-16.79,13.51,10.55,29.82,11.46,37.93,11.15,1.71-.16,3.41-.3,5.11-.43h0c19.71-1.49,37.29-1.25,37.29-1.25s90.1-71.41,138.67-93.47l-7.87,2.2,2.83-78.56h-28s0-93,10.54-189.68l-2.75,186,27-1.83h107.51S3055.91,2611.42,3017,2589.86Z"/><path class="cls-24" d="M2988.11,2948.45l25,164.87a42.39,42.39,0,0,1-34.41,48.08L2775,3198.07l-62.43-276.81Z"/><path class="cls-24" d="M2724.47,2571.53s-.86.22-2.31.65c1,0,1.93,0,2.86-.1Z"/><path class="cls-24" d="M2723.75,2569.46c.24.68.47,1.42.72,2.07.77-.21,1.6-.58,2.39-.82Z"/><path class="cls-25" d="M2794.67,2661.2c2.15,7.83,3.22,13,3.22,13s116.67-114.71,101.86-142.8h0l-.05,0-12.24-5.87C2877.05,2568.67,2820.13,2633.74,2794.67,2661.2Z"/><path class="cls-25" d="M2722.16,2572.18c-9.34,2.74-45,14.44-62.64,37.25v17.08s34.61-45.13,72.35-47.06c-3.36-3.75-5.85-6.35-6.85-7.37C2724.09,2572.13,2723.14,2572.16,2722.16,2572.18Z"/><polygon class="cls-26" points="2646.09 3114.93 2646.09 3114.93 2645.1 3112.77 2646.09 3114.93"/><path class="cls-26" d="M2785.29,3129.48a76.28,76.28,0,0,1-16.58,2.5c-2.65.18-5.39.32-8.36.34l-6.23-1.22s-26,32-62.11,33l-14.57-5.55h0l-11.08-4.23s14.44-18.24,26.23-36.73l-46.5-2.65,3.83,8.39,28.65,62.76,293.84-52.54-171.61-9.79A71.37,71.37,0,0,1,2785.29,3129.48Z"/><path class="cls-8" d="M2938.81,2894.08l-1.83,81.85c-48.57,22.06-138.67,93.47-138.67,93.47s-17.58-.24-37.29,1.25c0,0-.44,12.19-25.18,10.39a29.27,29.27,0,0,1-13.11-4.32c-8.53,2.63-14.54,6.18-15.45,11-1.38,7.38-7.54,18.67-14.69,29.86-11.79,18.49-26.23,36.73-26.23,36.73l11.08,4.23s1.52-1.47,3.89-3.89c11.36-12.73,34.81-47.07,34.81-47.07-6.27,16.83-26.32,38.42-34.81,47.07a34.15,34.15,0,0,1-3.89,3.89l14.57,5.55s38.79-21.23,56.66-43.22,25.9,8.24,71.6-21.08,201.56-73.94,207.54-101.8l4.24-49.54-79.8-54.37Zm-253.1,267.61s30.85-22.18,39.14-32a23.74,23.74,0,0,0,2.06-3.5c0,.8-.8,2-2.06,3.5C2721,3135.42,2710.64,3147.54,2685.71,3161.69Z"/><path class="cls-8" d="M3026.78,3010.14l.06-.75a29.38,29.38,0,0,1-5,9.61C3026.41,3013.48,3026.78,3010.14,3026.78,3010.14Z"/><path class="cls-8" d="M2948.58,3059c29-9.83,47.23-19.29,58.72-27.23-8.14,4.74-47.09,20.82-87.67,37.5Q2933.51,3064.15,2948.58,3059Z"/><path class="cls-8" d="M2817.85,3112.77c-4.29,3-8.71,6.35-14.22,9.47A78.27,78.27,0,0,0,2817.85,3112.77Z"/><path class="cls-8" d="M2832.47,3105.68c-7.61,3.37-12.84,5.87-14.62,7.09C2817.85,3112.77,2823.08,3110.1,2832.47,3105.68Z"/><path class="cls-8" d="M2755.91,3071.08c3.14-.13,5.09-.43,5.11-.43C2759.32,3070.78,2757.62,3070.92,2755.91,3071.08Z"/><path class="cls-8" d="M2768.71,3132a76.28,76.28,0,0,0,16.58-2.5A96.9,96.9,0,0,1,2768.71,3132Z"/><polygon class="cls-27" points="2678.57 3228.84 2972.41 3168.97 2972.41 3133.54 2678.57 3186.08 2678.57 3228.84"/><path class="cls-1" d="M2726.86,2570.71c-.79.24-1.62.61-2.39.82l.55.55c1,1,3.49,3.62,6.85,7.37,14.93,16.65,47.62,57.08,50.49,94.71,0,0,4.78-4.84,12.31-13,25.46-27.46,82.38-92.53,92.79-135.74h0a64.76,64.76,0,0,0,1.26-6.45s-49.75-16-58.71-25.92l-6.18,8.11S2771.63,2556.64,2726.86,2570.71Z"/><path class="cls-1" d="M2652.92,2620.4a50.77,50.77,0,0,1,6.6-11c17.65-22.81,53.3-34.51,62.64-37.25,1.45-.43,2.31-.65,2.31-.65-.25-.65-.48-1.39-.72-2.07-6.11-17.28-4.43-45.23-5.43-59.94a24.11,24.11,0,0,1,1.51-10.07l-54.7,19.55c-2.63,4.3-4.69,10.82-6.32,18.5C2652.13,2569.05,2652.92,2620.4,2652.92,2620.4Z"/><polygon class="cls-16" points="2254.62 3143.32 2258.29 3186.08 2678.57 3228.84 2678.57 3186.08 2254.62 3143.32"/><polygon class="cls-28" points="2649.92 3123.32 2576.11 2961.67 2566.17 2939.89 2556.25 2939.04 2508.59 2934.94 2319.83 3149.42 2254.62 3143.32 2678.57 3186.08 2649.92 3123.32"/><polygon class="cls-25" points="2558.53 2690.65 2546.81 2831.13 2566.17 2832.99 2558.53 2690.65"/><path class="cls-25" d="M2911.78,2895.91l2.75-186C2904,2806.57,2904,2899.57,2904,2899.57h28l-2.83,78.56,7.87-2.2,1.83-81.85Z"/><polygon class="cls-9" points="3032.05 2948.45 3032.05 2948.45 3036.7 2894.08 2952.25 2894.08 3032.05 2948.45"/><path class="cls-9" d="M2820.27,3099.79c-45.7,29.32-53.73-.92-71.6,21.08s-56.66,43.22-56.66,43.22c36.12-1,62.11-33,62.11-33l6.23,1.22c3,0,5.71-.16,8.36-.34a96.9,96.9,0,0,0,16.58-2.5,71.37,71.37,0,0,0,15.51-5.73c1-.49,1.92-1,2.83-1.51,5.51-3.12,9.93-6.51,14.22-9.47,1.78-1.22,7-3.72,14.62-7.09,19.2-8.5,53.7-22.64,87.16-36.4,40.58-16.68,79.53-32.76,87.67-37.5l.18-.1a47.61,47.61,0,0,0,14.38-12.68,29.38,29.38,0,0,0,5-9.61h0l1-11.39h0C3021.83,3025.85,2866,3070.47,2820.27,3099.79Z"/><path class="cls-24" d="M2761,3070.65h0s-2,.3-5.11.43c-8.11.31-24.42-.6-37.93-11.15-15-11.73-10.38,7.65,4.75,16.79Z"/><path class="cls-9" d="M2724.85,3129.71c1.26-1.49,2-2.7,2.06-3.5A23.74,23.74,0,0,1,2724.85,3129.71Z"/><path class="cls-9" d="M2685.71,3161.69c24.93-14.15,35.28-26.27,39.14-32C2716.56,3139.51,2685.71,3161.69,2685.71,3161.69Z"/><path class="cls-9" d="M2677.44,3158.54a34.15,34.15,0,0,0,3.89-3.89c-2.37,2.42-3.89,3.88-3.89,3.89Z"/><path class="cls-9" d="M2716.14,3107.58s-23.45,34.34-34.81,47.07C2689.82,3146,2709.87,3124.41,2716.14,3107.58Z"/><polygon class="cls-29" points="2508.59 2934.94 2508.59 2934.94 2499.58 2934.16 2097.63 2899.57 2254.62 3143.32 2319.83 3149.42 2508.59 2934.94"/><path class="cls-9" d="M2705.41,3093.93s-31.6,8.32-34.26,15.3,7.87,28.55,7.87,28.55l13.16-19.55c.41-.64,8.43-14.09,8.76-14.77Z"/><path class="cls-8" d="M2722.73,3076.72s30-5.2,38.29-6.07,0,14.78,0,14.78l-28.69,7.67Z"/><path class="cls-10" d="M2626.29,2156.42s-51.55-53.41-53.42,98.61c0,0-69.5-143.49,29-190.47,68.68-32.77,57.18,35.87,57.18,35.87Z"/><path class="cls-7" d="M2659.26,2072.84s-3.14-21.22-36.8-14.52c-24.55,4.89,3.83,98.1,3.83,98.1S2668.33,2088.72,2659.26,2072.84Z"/><path class="cls-10" d="M2626.29,2156.42s40.48-84.25,74-15.24,40.89,96.91,104.23,96.91S2853,2309.9,2853,2309.9s73.54-157.4-6.05-232.67c-26.79-25.33-97.55-48.94-146.62-31.48C2700.29,2045.75,2622.36,2075.17,2626.29,2156.42Z"/><path class="cls-7" d="M2623.8,2147.67s-2.83-10.89-11.34-17.74-3.83-61.27,3.87-67.25,9.82,47.42,9.82,47.42Z"/><path class="cls-7" d="M2798.63,2238s89.09,1.06,85.29-59.13c0,0,1.75,72.43-31,131C2853,2309.9,2860.24,2235.47,2798.63,2238Z"/><path class="cls-10" d="M2572,1816.54v34.56h51.9v-35.31a72.54,72.54,0,1,0-51.9.75Zm59.39-29.16c33.11-71.41-34.47-95.9-34.47-95.9C2685.74,1704.05,2631.36,1787.38,2631.36,1787.38Z"/><polygon class="cls-13" points="2561.55 1851.1 2561.55 1880.82 2631.36 1880.82 2631.36 1851.1 2623.87 1851.1 2571.97 1851.1 2561.55 1851.1"/><polygon class="cls-30" points="2561.55 1906.95 2571.97 1906.95 2571.97 1905.52 2619.91 1905.52 2619.91 1906.95 2631.36 1906.95 2631.36 1880.82 2561.55 1880.82 2561.55 1906.95"/><polygon class="cls-31" points="2571.97 1905.52 2571.97 1906.95 2571.97 1921.63 2619.91 1921.63 2619.91 1906.95 2619.91 1905.52 2571.97 1905.52"/><path class="cls-1" d="M2631.36,1787.38s54.38-83.33-34.47-95.9C2596.89,1691.48,2664.47,1716,2631.36,1787.38Z"/><rect class="cls-13" x="2683.09" y="1689.83" width="66.91" height="7.95" transform="translate(-483.83 1772.28) rotate(-33.35)"/><rect class="cls-13" x="2717.84" y="1717.49" width="7.94" height="66.91" transform="translate(500.8 4104.92) rotate(-79.42)"/><rect class="cls-13" x="2474.58" y="1654.2" width="7.94" height="66.91" transform="translate(-278.22 2867.32) rotate(-57.42)"/><rect class="cls-13" x="2442.38" y="1748.46" width="66.91" height="7.94" transform="translate(-395.41 774.31) rotate(-16.48)"/><path class="cls-13" d="M3301.38,1767.91h-508a8.61,8.61,0,0,0-8.86,8.35v145.38a8.61,8.61,0,0,0,8.86,8.35h138.27c.36,17.17-10.62,35.65-10.62,35.65,20.53-10.83,29.61-24.43,33.51-35.65h346.86a8.62,8.62,0,0,0,8.86-8.35V1776.26A8.62,8.62,0,0,0,3301.38,1767.91Z"/><path class="cls-32" d="M3380,2015.13H2978.51a6.8,6.8,0,0,0-7,6.59V2136.6a6.8,6.8,0,0,0,7,6.6h109.26c.28,13.57-8.39,28.17-8.39,28.17,16.22-8.55,23.4-19.3,26.48-28.17H3380a6.8,6.8,0,0,0,7-6.6V2021.72A6.8,6.8,0,0,0,3380,2015.13Z"/><rect class="cls-2" x="2839.67" y="1810.28" width="394.71" height="13.61"/><rect class="cls-2" x="2839.67" y="1837.83" width="394.71" height="13.61"/><rect class="cls-2" x="2839.67" y="1865.38" width="289.26" height="13.61"/><path class="cls-33" d="M2086.08,1416.77h-508a8.61,8.61,0,0,0-8.86,8.35V1570.5a8.6,8.6,0,0,0,8.86,8.34h138.27c.36,17.18-10.62,35.65-10.62,35.65,20.53-10.82,29.61-24.42,33.51-35.65h346.86a8.61,8.61,0,0,0,8.86-8.34V1425.12A8.62,8.62,0,0,0,2086.08,1416.77Z"/><rect class="cls-1" x="1624.37" y="1459.14" width="394.71" height="13.61"/><rect class="cls-1" x="1624.37" y="1486.69" width="394.71" height="13.61"/><rect class="cls-1" x="1624.37" y="1514.23" width="289.26" height="13.61"/><polygon class="cls-34" points="1226.93 3697.52 1226.93 3854.23 1146.21 3861.25 1131.23 3664.78 1226.93 3697.52"/><polygon class="cls-34" points="871.4 3702.2 810.59 3867.1 739.25 3841.37 772 3664.78 871.4 3702.2"/><path class="cls-35" d="M933.73,2554.93s-11.48,133.21,51.74,426.48,100.42,726.7,100.42,726.7,57.91,36.11,179.58,13.46l6.35-451.21-154.08-710Z"/><path class="cls-17" d="M835.33,2549.26s-37.46,110.93-41.62,410.9-63.82,730.69-63.82,730.69,47.17,48.19,167.87,53.45l105-438.25,42.31-747.82Z"/><polygon class="cls-17" points="1129.28 2508.11 1123.84 2578.54 830.59 2566.45 839.79 2438.99 1129.28 2508.11"/><line class="cls-22" x1="594.23" y1="3252.42" x2="626.97" y2="3252.42"/><line class="cls-22" x1="1532.17" y1="3187.61" x2="1563.74" y2="3187.61"/><path class="cls-16" d="M752.26,3128.4v60a38,38,0,0,0,38,38h619.6a38,38,0,0,0,38-38v-60Z"/><path class="cls-16" d="M1017.92,2731.46h186.69a21.22,21.22,0,0,1,21.17,21.17v79.75a21.22,21.22,0,0,1-21.17,21.17h-33a21.23,21.23,0,0,0,21.17-21.17v-42.09a21.23,21.23,0,0,0-21.17-21.17H1052.18a21.23,21.23,0,0,0-21.17,21.17v42.09a21.23,21.23,0,0,0,21.17,21.17h-34.26a21.22,21.22,0,0,1-21.17-21.17v-79.75A21.22,21.22,0,0,1,1017.92,2731.46Z"/><path class="cls-34" d="M752.26,2849.51V3128.4h695.5V2849.51a38,38,0,0,0-38-38H790.21A38,38,0,0,0,752.26,2849.51Z"/><path class="cls-8" d="M1416.33,1604.35c6.15,14,24.3,60.1,16.41,100.67a11.74,11.74,0,0,1-.55,2c-2.36,6.23-15.55,45.88,13.82,84.9a11.75,11.75,0,0,1-6.12,18.52c-7.38,2-19.69,2.28-40.1-1.66a11.73,11.73,0,0,0-13,6.76c-2.66,6-6.69,14.92-12,25.78-24.42,50-67.73,62.75-138.76,28.15,0,0-31.92-19.32-59.13,94.32-.08.36-.15.72-.2,1.09-.67,4.6-4.84,36.45,4.82,48.39,10.12,12.51-80.92-.2-110.08-87.44a11.64,11.64,0,0,1,4-12.85c20.73-16,83.36-72.54,67.91-163.34-16.46-96.71,112-182.86,139.91-200.3a11.66,11.66,0,0,1,10.82-.82l116.16,49.84A11.71,11.71,0,0,1,1416.33,1604.35Z"/><path class="cls-9" d="M1211.35,1699.44s-27,38.08-24.22,72.71-90.76,139.28-90.76,139.28l-4.12-16s55.47-36.07,53.5-117.11S1211.35,1699.44,1211.35,1699.44Z"/><path class="cls-36" d="M1411.89,1624.19s101.7-27.29,25.68-79.38-117.1-18.56-117.1-18.56S1370.09,1615.55,1411.89,1624.19Z"/><path class="cls-16" d="M1383.06,1623.07s116.63-70.4-14.34-134-199.93,25.06-216.92,81.36S1281.1,1535.66,1383.06,1623.07Z"/><path class="cls-37" d="M1327.6,1604.55s125.92-109.06-85.84-100.84-111.8,289-111.8,289l56.71-161.85Z"/><path class="cls-38" d="M1303.49,1622.74s39.35-60.18-68.35-38.75-134.1,179.92-92.3,223.78c0,0,43.55-114.71,89.2-116.17,10.59-.33,19.2,8.58,19.29,19.17.13,15.15,2,40.37,12.25,51.45C1263.58,1762.22,1263.22,1682.74,1303.49,1622.74Z"/><path class="cls-38" d="M1194.57,1715.07s-22.07,26.67-33.6,67.77-40.53,50.52-40.53,50.52,13.12-23.74,5.61-63.7S1194.57,1715.07,1194.57,1715.07Z"/><path class="cls-39" d="M1084.83,1900.12s-49,5.59-90.54,80.35-105.55,358-151.63,429.24,58.2,56.41,243.37,123.55c0,0,88.42,48.8,100.73-11.45s-13.58-451.41,16.08-544.17L1190,1954.71S1157.11,1980.21,1084.83,1900.12Z"/><path class="cls-40" d="M1008.86,2173.84l-32.26,326,65.85,17.42S1057.24,2134.94,1008.86,2173.84Z"/><path class="cls-40" d="M1059,1910s25.13,68.73,98,113.5l17.1-57,15.92-11.78s-9.24,35.08,2.75,78.26l7.13-71-11.36-13.49L1164.32,1961l-95.57-55.9Z"/><path class="cls-8" d="M1145.57,2688.62s24.83,28.09,19,37.84c0,0-33.13-.78-34.69,28.06s24.65,21.83,24.65,21.83-2.24,26.9-51.84,21.06-53.12-21.06-53.12-21.06-20.68-26.53-10.53-78.56S1145.57,2688.62,1145.57,2688.62Z"/><path class="cls-9" d="M1138.05,2672s9.35,45.5-46.2,47.22-55.64-2.92-55.64-2.92l8.28-54.23Z"/><path class="cls-16" d="M831.11,3826.38s-44.45,20.46-83.6-18.26c0,0-29.85-19.11-37.35,179.05,0,0,257.55,47.11,331.87,45.67,0,0,37.83-74.8-50.34-106.11S831.11,3826.38,831.11,3826.38Z"/><path class="cls-17" d="M1044.49,4008.66s-330.09-58.77-331.1-92.25l-3.23,69.79,335.48,49.8S1046.8,4016.5,1044.49,4008.66Z"/><path class="cls-16" d="M1231.15,3803s-39.74,26.27-83.15-5.18c0,0-31.54-14-9.39,177.81,0,0,254.78,7.14,326.08-5.26,0,0,25.3-77.58-64.17-94.63S1231.15,3803,1231.15,3803Z"/><path class="cls-17" d="M1463.47,3946.69s-326.3-7.61-332.24-39.67l7.24,67.62,330.15-1.82S1466.85,3953.89,1463.47,3946.69Z"/><path class="cls-41" d="M1125.25,2015.12s27.68,11.22,24,113.48-12.09,551.67-12.09,551.67-9.81,40.14-111.37-14.95c0,0-4.25-259.81-12-285.44s13.13-201.58-15.67-232.79Z"/><path class="cls-42" d="M1125.57,2613.8s-76.16,9.78-101.65-37.06l-.09,67.85,105.44-9S1142.72,2616.13,1125.57,2613.8Z"/><path class="cls-43" d="M1133.68,2618.88s-55.07,23.06-109.85,6.6c0,0-12.38-9.15-3.32,26.81s10.82,43.27,10.82,43.27,118.12,37.72,121.92-20.76C1153.25,2674.8,1140.14,2603.3,1133.68,2618.88Z"/><path class="cls-41" d="M1089.48,1882.57s59.62,60.15,100.48,72.14c0,0-23.76,27.56-23.32,57.92s-8.24-2.18-8.24-2.18-87.33-60.61-95-109.83Z"/><path class="cls-41" d="M1180.39,1951.2s9.32,1.22,14,72l16-57.08-25.91-30.39Z"/><g class="cls-44"><path class="cls-45" d="M1892.16,3338.6c0,4.15-15.7,7.52-35.07,7.52s-35.08-3.37-35.08-7.52,15.7-7.53,35.08-7.53S1892.16,3334.45,1892.16,3338.6Z"/><path class="cls-45" d="M1892.16,3552.82c0,4.15-15.7,7.52-35.07,7.52S1822,3557,1822,3552.82s15.7-7.53,35.08-7.53S1892.16,3548.66,1892.16,3552.82Z"/><rect class="cls-45" x="1822.01" y="3338.6" width="70.15" height="214.22"/><path class="cls-45" d="M1857.52,3359.81l-2.28,0c0-1.05.73-106.05-23.17-170.53l2-1.3C1858.26,3253.07,1857.53,3358.75,1857.52,3359.81Z"/><path class="cls-45" d="M1824.63,3132.68l12.24-10.86a214,214,0,0,0-19.61-45h-6.08l2.69-5.74a266.22,266.22,0,0,0-22.65-31.49s1.1,26.38,6,58.9h9.64l-8.81,5.27c1.13,7,2.45,14.21,4,21.46l11.43-2.8-9.72,10.61c7.29,31.68,18.66,62.73,36.3,77.31,0,0,11-32.37-.71-79.4Z"/><path class="cls-45" d="M1857.27,3368.42c0-1.27-.89-128.76,28.22-207.29l2,1.29c-28.88,77.91-28,204.69-28,206Z"/><path class="cls-45" d="M1896.73,3094.29,1882,3081.18a258.7,258.7,0,0,1,23.67-54.33H1913l-3.24-6.92a321.12,321.12,0,0,1,27.34-38s-1.32,31.84-7.3,71.09h-11.64l10.64,6.36c-1.37,8.44-3,17.14-4.79,25.89l-13.79-3.37,11.72,12.8c-8.79,38.23-22.52,75.71-43.81,93.32,0,0-13.21-39.08.87-95.84Z"/></g><rect class="cls-46" x="3203.38" y="2596.12" width="30.03" height="213.52"/><rect class="cls-46" x="3301.31" y="2432.01" width="30.03" height="377.63"/><rect class="cls-46" x="3399.24" y="2452.73" width="30.03" height="356.91"/><rect class="cls-46" x="3497.17" y="2462.55" width="30.03" height="347.09"/><rect class="cls-46" x="3595.1" y="2288.52" width="30.03" height="521.12"/><polygon class="cls-47" points="3608.02 2167.57 3462.95 2415.88 3365.8 2267.07 3208.34 2460.19 3217.21 2467.42 3364.78 2286.42 3463.49 2437.63 3612.22 2183.05 3659.65 2209.73 3721.97 2159.69 4006.11 1931.52 4021.86 1949.76 4058.58 1888.79 3984.49 1906.49 3998.63 1922.86 3712.35 2152.75 3710.68 2154.09 3703.7 2159.69 3658.52 2195.97 3608.02 2167.57"/><polygon class="cls-47" points="3163.13 2291.9 3163.13 2861.86 3700.45 2861.86 3700.45 2874.86 3732.8 2859.78 3700.45 2844.7 3700.45 2857.46 3167.53 2857.46 3167.53 2291.9 3180.75 2291.9 3165.67 2259.55 3150.59 2291.9 3163.13 2291.9"/></g></g></svg>