<svg xmlns="http://www.w3.org/2000/svg" viewBox="0 0 5000 5000"><defs><style>.cls-1{fill:#fff;}.cls-2{fill:#eaf2f9;}.cls-3{fill:#d4e0f4;}.cls-4{fill:#c7d8e2;}.cls-5{fill:#6fa4bc;}.cls-6{fill:#fac2ae;}.cls-7{fill:#384e84;}.cls-8,.cls-9{fill:#232666;}.cls-8{stroke:#232666;stroke-width:5px;}.cls-21,.cls-32,.cls-8{stroke-miterlimit:10;}.cls-10,.cls-18{fill:#034c8a;}.cls-10{stroke:#034c8a;stroke-linecap:round;stroke-linejoin:round;stroke-width:0.97px;}.cls-11{fill:#161f60;}.cls-12{fill:#455993;}.cls-13{fill:#364b7f;}.cls-14{fill:#2d2e75;}.cls-15{fill:#152654;}.cls-16{fill:#0f1a42;}.cls-17{opacity:0.5;}.cls-19{fill:#232f63;}.cls-20{fill:#4b8a9b;}.cls-21,.cls-32{fill:none;stroke:#8db0dc;}.cls-21{stroke-width:19px;}.cls-22{fill:#e4eff9;}.cls-23{fill:#7485a5;opacity:0.6;}.cls-24{fill:#f4737f;}.cls-25{fill:#b03e45;}.cls-26{fill:#e6515b;}.cls-27{fill:#b1d1f2;}.cls-28{fill:#84b4fe;}.cls-29{fill:#8db0dc;}.cls-30{fill:#5e88b7;}.cls-31{fill:#255993;}.cls-32{stroke-width:4px;}.cls-33{fill:#282e5b;}.cls-34{fill:#f26876;}.cls-35{fill:#f1a080;}.cls-36{fill:#d35467;}.cls-37{fill:#c64a62;}.cls-38{fill:#a53248;}.cls-39{fill:#074675;}.cls-40{fill:#434e84;}.cls-41{fill:#bec6c4;}.cls-42{fill:#1e254f;}.cls-43{fill:#0e1438;}.cls-44{fill:#303377;}.cls-45{fill:#5787aa;}.cls-46{fill:#7ea4ce;}.cls-47{fill:#6f9fbc;}.cls-48{fill:#4e7a9b;}.cls-49{fill:#285972;}.cls-50{fill:#fefefe;}.cls-51{fill:#223d72;}.cls-52{fill:#8ac6db;}.cls-53{fill:#3f788c;}.cls-54{fill:#033860;}.cls-55{fill:#6590b7;}.cls-56{fill:#346ec1;}.cls-57{fill:#10284f;}</style></defs><title>Asset 4</title><g id="Layer_2" data-name="Layer 2"><g id="Layer_1-2" data-name="Layer 1"><rect class="cls-1" width="5000" height="5000"/><ellipse class="cls-2" cx="1990.42" cy="4060.03" rx="379.69" ry="126.92"/><ellipse class="cls-2" cx="1324.4" cy="3821.94" rx="379.69" ry="126.92"/><ellipse class="cls-2" cx="3175.94" cy="3680.81" rx="542.25" ry="153.37"/><rect class="cls-3" x="705.1" y="3467.38" width="3771.23" height="27.57"/><path class="cls-2" d="M827.81,3467.38H4286.58s507.95-1402.3-43.42-1696.13c-492.89-262.67-312.41-1040.95-1005.85-951S2501.43,1173.41,1804,1118.47c-1036.9-81.68-1674.16,641.65-1068.74,1641C888.17,3011.89,900.2,3267.9,827.81,3467.38Z"/><path class="cls-4" d="M4475.56,2906.93H4212.34l13.55-44.94a26.22,26.22,0,0,0-25.11-33.79h-102.1a59.09,59.09,0,0,0-56.92,42.3l-11,36.43h-311l-9.78-10.12a8.2,8.2,0,0,0-5-2.44l-50.43-5.45,30.13-58.47h127.86a12.08,12.08,0,0,0,12.29-13.36l-16.09-181.44a15,15,0,0,0-14.66-13.37H3545.49a12.09,12.09,0,0,0-12.29,13.37l16.09,181.44a15,15,0,0,0,14.66,13.36h60.87l-9.48,58.53-18,4.56a8.13,8.13,0,0,0-5.84,5.67l-2.18,7.72H3341.49l-2.18-7.72a8.13,8.13,0,0,0-5.83-5.67l-18-4.56-9.48-58.52h60.87a15,15,0,0,0,14.66-13.37l16.09-181.44a12.09,12.09,0,0,0-12.29-13.37H3136.77a15,15,0,0,0-14.66,13.37L3106,2817.09a12.09,12.09,0,0,0,12.29,13.37h127.86l30.13,58.46-50.43,5.45a8.2,8.2,0,0,0-5,2.44l-9.78,10.12H2752.62l-11-36.43a59.12,59.12,0,0,0-56.93-42.3h-102.1a26.22,26.22,0,0,1-24.47,0H2456a59.11,59.11,0,0,0-56.93,42.3l-11,36.43H2118.72l-9.79-10.12a8.15,8.15,0,0,0-5-2.44l-50.43-5.45,30.13-58.47h127.86a12.08,12.08,0,0,0,12.29-13.36l-16.09-181.44a15,15,0,0,0-14.66-13.37H1944.47a12.09,12.09,0,0,0-12.29,13.37l16.09,181.44a15,15,0,0,0,14.66,13.36h60.87l-2.8,17.25-6.68,41.28-18,4.56a8.11,8.11,0,0,0-5.83,5.67l-2.18,7.72H1703.83a4.93,4.93,0,0,0-4.93,4.93v14.67a4.93,4.93,0,0,0,4.93,4.93h14.82v13.78a2.16,2.16,0,0,0,2.16,2.16h655.12l-1.28,4.26h-620a13.54,13.54,0,0,0-13.52,13.52v504.58a13.54,13.54,0,0,0,13.52,13.52H2024a13.54,13.54,0,0,0,13.52-13.52V2965.18a7.72,7.72,0,0,1,7.71-7.72H2372.9l-55.8,185.12H2166.81a8.71,8.71,0,0,0-8.71,8.71v24.89H2149a3.91,3.91,0,0,0-3.91,3.9v23.18a3.91,3.91,0,0,0,3.91,3.9h19.53a26.27,26.27,0,0,0-18.14,24.93v225a26.25,26.25,0,0,0,26.22,26.22H2489.4a2.91,2.91,0,1,0,0-5.81H2352.13a20.44,20.44,0,0,1-20.42-20.41v-225a20.44,20.44,0,0,1,20.42-20.41h106.21a26.06,26.06,0,0,0,25.11-18.65l71-235.57h31.83l71,235.57a26.05,26.05,0,0,0,25.1,18.65h106.22a20.43,20.43,0,0,1,20.41,20.41v225a20.43,20.43,0,0,1-20.41,20.41H2651.34a2.91,2.91,0,0,0,0,5.81h312.78a26.25,26.25,0,0,0,26.22-26.22v-225a26.27,26.27,0,0,0-18.15-24.93h19.54a3.91,3.91,0,0,0,3.91-3.9v-23.18a3.91,3.91,0,0,0-3.91-3.9h-9.08v-24.89a8.71,8.71,0,0,0-8.71-8.71H2823.65l-55.8-185.12H4015.54l-55.8,185.12H3809.46a8.71,8.71,0,0,0-8.71,8.71v24.89h-9.08a3.91,3.91,0,0,0-3.91,3.9v23.18a3.91,3.91,0,0,0,3.91,3.9h19.53a26.27,26.27,0,0,0-18.14,24.93v225a26.25,26.25,0,0,0,26.22,26.22h312.77a2.91,2.91,0,1,0,0-5.81H3994.77a20.44,20.44,0,0,1-20.41-20.41v-225a20.44,20.44,0,0,1,20.41-20.41H4101a26,26,0,0,0,25.1-18.65l16.58-55v331.72a13.54,13.54,0,0,0,13.52,13.52h269.35a13.53,13.53,0,0,0,13.51-13.52V2965.18a13.53,13.53,0,0,0-13.51-13.52H4198.86l1.28-4.26h259.24a2.16,2.16,0,0,0,2.16-2.16v-13.78h14a5.73,5.73,0,0,0,5.73-5.72v-13.09A5.73,5.73,0,0,0,4475.56,2906.93Zm-2443.85,58.25v504.58a7.72,7.72,0,0,1-7.71,7.71H1754.65a7.72,7.72,0,0,1-7.71-7.71V2965.18a7.72,7.72,0,0,1,7.71-7.72h279.48A13.5,13.5,0,0,0,2031.71,2965.18Zm534.52-122.93a20.3,20.3,0,0,1,4.14-4.14,20.3,20.3,0,0,1,7.33,22.13,9.5,9.5,0,0,1-14.65,0A20.22,20.22,0,0,1,2566.23,2842.25Zm4.14,62.41.69,2.27h-1.37Zm1578.21,144.53a24.82,24.82,0,0,0,16.78-6.53l-16.88,56v-49.47ZM4098.68,2834h102.1a20.41,20.41,0,0,1,19.55,26.3l-2.87,9.51a15.81,15.81,0,0,0-14.6-9.86H4067.07a24.78,24.78,0,0,0-18.35,8.14A53.3,53.3,0,0,1,4098.68,2834Zm-1516.07,0h102.1a53.3,53.3,0,0,1,50,34.09,24.76,24.76,0,0,0-18.35-8.14h-132.6a25.92,25.92,0,0,0-4.54-21.18,26.63,26.63,0,0,0-3.31-3.63A20.51,20.51,0,0,1,2582.61,2834ZM2456,2834h102.1a20.51,20.51,0,0,1,6.74,1.14,26.63,26.63,0,0,0-3.31,3.63A25.94,25.94,0,0,0,2557,2860h-132.6a24.74,24.74,0,0,0-18.34,8.14A53.29,53.29,0,0,1,2456,2834Zm-130.13,398.08v225a27.49,27.49,0,0,0,.16,2.88c0,.31.1.61.14.91.1.63.2,1.26.33,1.87.08.36.18.7.27,1.05.15.55.3,1.1.49,1.64.12.36.25.7.38,1.05.2.52.41,1,.65,1.53.15.34.31.67.48,1,.25.5.53,1,.82,1.47.18.3.35.6.54.89.34.51.69,1,1.06,1.48.18.24.35.49.54.72.51.63,1.06,1.24,1.63,1.83l.17.19a26.62,26.62,0,0,0,2,1.81l.1.09H2176.63a20.43,20.43,0,0,1-20.41-20.41v-225a20.43,20.43,0,0,1,20.41-20.41h106.22a26.12,26.12,0,0,0,14.75-4.52h46.45A26.27,26.27,0,0,0,2325.91,3232.09Zm152-40.73a20.26,20.26,0,0,1-18.4,14.43,3.91,3.91,0,0,0,1-2.53v-23.18a3.91,3.91,0,0,0-3.91-3.9h-9.08v-24.89a8.71,8.71,0,0,0-8.71-8.71H2323.16l31.76-105.35a15.78,15.78,0,0,0,15.31,12h135.7a24.85,24.85,0,0,0,16.78-6.53Zm78.32-239.7,1.28-4.26h25.77l1.28,4.26Zm428.32,280.43v225a20.44,20.44,0,0,1-20.41,20.41H2805.06a26.18,26.18,0,0,0,9.78-20.41v-225a26.27,26.27,0,0,0-18.14-24.93h46.45a26.12,26.12,0,0,0,14.75,4.52h106.22A20.44,20.44,0,0,1,2984.53,3232.09ZM2702,3142.58a8.7,8.7,0,0,0-8.7,8.71v24.89h-9.08a3.91,3.91,0,0,0-3.91,3.9v23.18a3.91,3.91,0,0,0,1,2.53,20.24,20.24,0,0,1-18.4-14.43L2618,3042.67a24.83,24.83,0,0,0,16.78,6.52h135.69a15.8,15.8,0,0,0,15.32-12l31.76,105.37Zm64.1-190.92-1.28-4.26H4018.58l-1.29,4.26Zm1202.46,280.43v225a27.49,27.49,0,0,0,.16,2.88c0,.31.1.61.14.91.09.63.19,1.26.33,1.88.08.35.18.69.27,1,.14.56.3,1.11.49,1.66.11.35.24.69.38,1,.2.53.41,1,.65,1.55.15.33.31.66.47,1,.26.51.54,1,.83,1.48.18.3.35.6.54.89.33.51.69,1,1.06,1.48.18.24.35.49.54.72.5.62,1,1.22,1.6,1.79.07.07.13.16.2.23a26.48,26.48,0,0,0,2,1.81l.11.09H3819.28a20.43,20.43,0,0,1-20.41-20.41v-225a20.43,20.43,0,0,1,20.41-20.41H3925.5a26.09,26.09,0,0,0,14.74-4.52h46.46A26.26,26.26,0,0,0,3968.56,3232.09Zm152-40.73a20.27,20.27,0,0,1-18.41,14.43,3.87,3.87,0,0,0,1-2.53v-23.18a3.91,3.91,0,0,0-3.91-3.9h-9.08v-24.89a8.71,8.71,0,0,0-8.71-8.71H3965.81l31.75-105.35a15.8,15.8,0,0,0,15.32,12h129.79v68.73Zm305-233.9a7.72,7.72,0,0,1,7.71,7.72v504.58a7.72,7.72,0,0,1-7.71,7.71H4156.19a7.72,7.72,0,0,1-7.71-7.71v-351l48.63-161.32Z"/><rect class="cls-5" x="3436.06" y="2641.93" width="184.96" height="221.74" rx="11"/><path class="cls-6" d="M2945.76,3609.12,2922.6,3686l96.57,3.6s-30.21-20.31,0-106.11S2945.76,3609.12,2945.76,3609.12Z"/><polygon class="cls-6" points="3181.99 3481 3212.07 3544.49 3252.32 3512.75 3217.15 3415.93 3181.99 3481"/><path class="cls-7" d="M3087.51,3027.61s-100.28,290.5-100.28,320.21-64.63,272.33-64.63,272.33,52.3,14.46,90.78,9.71l147.68-362.92,323.14-300.73S3493.11,2857.61,3087.51,3027.61Z"/><rect class="cls-5" x="3230.7" y="3132.67" width="384.49" height="66.09" rx="2.03" transform="translate(6845.89 6331.43) rotate(180)"/><path class="cls-8" d="M3615.19,3194H3230.7"/><rect class="cls-9" x="3407.99" y="3198.76" width="29.91" height="434.34" transform="translate(6845.89 6831.86) rotate(180)"/><rect class="cls-10" x="3384.07" y="3423.68" width="77.75" height="131.88" transform="translate(6845.89 6979.24) rotate(180)"/><path class="cls-9" d="M3161.18,3646c34.81-20.83,131.46-72.7,267.32-71.26,129.25,1.37,221,50.2,256.22,71.26v-21.86c-37-21.17-128.61-67.32-256.22-68.62-134.15-1.38-230.56,47.59-267.32,68.62Z"/><path class="cls-10" d="M3651.24,3646c0-16.64,15-30.13,33.48-30.13s33.47,13.49,33.47,30.13-15,30.12-33.47,30.12S3651.24,3662.68,3651.24,3646Z"/><path class="cls-10" d="M3127.7,3646c0-16.64,15-30.13,33.48-30.13s33.47,13.49,33.47,30.13-15,30.12-33.47,30.12S3127.7,3662.68,3127.7,3646Z"/><path class="cls-10" d="M3391.33,3646c0-15.72,14.16-28.46,31.62-28.46s31.61,12.74,31.61,28.46-14.15,28.45-31.61,28.45S3391.33,3661.75,3391.33,3646Z"/><path class="cls-11" d="M3190.78,3509.36h0l-.25.4c-3.47,5.61-47.19,75.22-77.19,78.18-31.26,3.09-22,62.57-22,62.57l224.21-82.71s24.36-1.66-26.28-56.22c-8.14-8.77-18.15-18.86-30.59-30.58h0S3219.44,3513.6,3190.78,3509.36Z"/><path class="cls-12" d="M3121.79,3052.83s-147.08,32.73-98.61,142.91S3178,3506.26,3178,3506.26l61.38-28.7s-31.2-266.8-78-303.4l279.11-25.24c94.47-8.54,156.41-77.45,130.62-145.29l-22.26-58.54Z"/><path class="cls-13" d="M3367.9,3057.41s157.2,1.26,209-41.08l-11-26.19-204.57,33.64Z"/><path class="cls-14" d="M3268.9,2553.13s-62.77,2.63-83.57,11.92c-21.85,9.75-128.51,229.54-128.51,229.54L3309,2870l-59.59,139.63s89.68,71.33,268,10.05c0,0,57.95-14.49,65.75-26.74s-29-89.64-22.29-138.42-44.06-281-76.63-301.38-117.25-20.4-117.25-20.4S3270,2541.21,3268.9,2553.13Z"/><path class="cls-15" d="M3372.08,2689.27s-40.24,119.78-104.95,143.19l78.36,12.27,44.87-129.26Z"/><path class="cls-16" d="M3489,2684.27s10.27,206.11-87.52,236.23-23.4-100.29-23.4-100.29Z"/><g class="cls-17"><rect class="cls-5" x="1128.82" y="3244.48" width="420.6" height="81.46" rx="2.03"/><path class="cls-5" d="M1028,2986.4c0-69.32,1.76-137.76-.85-206.76-1.73-45.67-1.39-91.66,5.19-137,2.89-19.92,16-110.91,55-93.75,7.52,3.31,10.88,14.11,12.16,19.19q-2.6,209.15-5.18,418.28c0,18.19-12,32.94-26.81,32.94h-12.7C1040.05,3019.34,1028,3004.59,1028,2986.4Z"/><path class="cls-18" d="M1157.39,3338.93H1480.3a16.58,16.58,0,0,0,0-33.15H1157.39a113.14,113.14,0,0,1-81.13-34.09,116.36,116.36,0,0,1-33.61-82.27V2751.73a16.35,16.35,0,1,0-32.69,0v437.69a149.62,149.62,0,0,0,43.18,105.72A145.45,145.45,0,0,0,1157.39,3338.93Z"/><rect class="cls-19" x="1296.3" y="3325.95" width="32.71" height="475.36"/><path class="cls-19" d="M1296.3,3806H1329a4.65,4.65,0,0,0,4.62-4.68V3325.94a4.65,4.65,0,0,0-4.62-4.68H1296.3a4.65,4.65,0,0,0-4.61,4.68V3801.3A4.64,4.64,0,0,0,1296.3,3806Zm28.1-9.36h-23.48v-466h23.48Z"/><rect class="cls-18" x="1270.13" y="3543.16" width="85.06" height="162.56"/><path class="cls-18" d="M1270.13,3710.4h85.06a4.65,4.65,0,0,0,4.62-4.68V3543.16a4.65,4.65,0,0,0-4.62-4.68h-85.06a4.65,4.65,0,0,0-4.62,4.68v162.56A4.65,4.65,0,0,0,1270.13,3710.4Zm80.45-9.36h-75.83V3547.85h75.83Z"/><path class="cls-19" d="M1599,3817.25c-38.09-25.67-143.82-89.6-292.44-87.83-141.38,1.69-241.79,61.88-280.28,87.83v-26.93c40.49-26.11,140.69-83,280.28-84.6,146.76-1.69,252.22,58.67,292.44,84.6Z"/><path class="cls-19" d="M1599,3821.94a4.39,4.39,0,0,0,2.17-.56,4.64,4.64,0,0,0,2.44-4.12v-27a4.71,4.71,0,0,0-2.14-4c-49.76-32.08-152.92-85.35-288.94-85.35-2,0-4,0-6,0-126.55,1.46-223.59,47.2-282.7,85.31a4.74,4.74,0,0,0-2.14,4v27a4.66,4.66,0,0,0,2.44,4.12,4.57,4.57,0,0,0,4.74-.22c47.2-31.84,146-85.48,277.77-87,137.08-1.59,240.55,53.84,289.82,87A4.58,4.58,0,0,0,1599,3821.94Zm-4.62-29v15.71c-52.6-34.08-154.37-85.76-287.87-83.87-127.75,1.52-225.12,51.15-275.61,83.87V3792.9c58.3-37.19,152.86-81.08,275.72-82.5l5.91,0C1444.33,3710.38,1544.7,3761.24,1594.4,3792.9Z"/><path class="cls-18" d="M1062.92,3817.25c0-20.51-16.39-37.13-36.62-37.13s-36.62,16.62-36.62,37.13,16.4,37.14,36.62,37.14S1062.92,3837.77,1062.92,3817.25Z"/><path class="cls-18" d="M1026.31,3859.08c22.74,0,41.23-18.76,41.23-41.82s-18.49-41.82-41.23-41.82-41.25,18.75-41.25,41.82S1003.56,3859.08,1026.31,3859.08Zm0-74.28c17.64,0,32,14.57,32,32.46s-14.36,32.45-32,32.45a32.46,32.46,0,0,1,0-64.91Z"/><path class="cls-18" d="M1635.64,3817.25c0-20.51-16.4-37.13-36.62-37.13s-36.62,16.62-36.62,37.13,16.39,37.14,36.62,37.14S1635.64,3837.77,1635.64,3817.25Z"/><path class="cls-18" d="M1599,3859.08c22.74,0,41.23-18.76,41.23-41.82s-18.49-41.82-41.23-41.82-41.24,18.75-41.24,41.82S1576.27,3859.08,1599,3859.08Zm0-74.28c17.64,0,32,14.57,32,32.46s-14.36,32.45-32,32.45a32.27,32.27,0,0,1-32-32.45C1567,3799.37,1581.37,3784.8,1599,3784.8Z"/><path class="cls-18" d="M1347.24,3817.25c0-19.37-15.48-35.07-34.58-35.07s-34.58,15.7-34.58,35.07,15.48,35.08,34.58,35.08S1347.24,3836.62,1347.24,3817.25Z"/><path class="cls-18" d="M1312.66,3857c21.62,0,39.2-17.83,39.2-39.75s-17.58-39.76-39.2-39.76-39.2,17.83-39.2,39.76S1291,3857,1312.66,3857Zm0-70.15a30.39,30.39,0,1,1-30,30.4A30.23,30.23,0,0,1,1312.66,3786.86Z"/><path class="cls-20" d="M1270.13,3243.93s47.76,47.79,279.29,29.49v-28.94Z"/></g><rect class="cls-21" x="1498.04" y="1029.36" width="2125.12" height="1410.63" rx="36.91" transform="translate(5121.2 3469.34) rotate(180)"/><circle class="cls-22" cx="2227.44" cy="1440.16" r="227.32"/><rect class="cls-23" x="2577.44" y="1212.84" width="945.31" height="974.63"/><rect class="cls-1" x="2526.46" y="1166.65" width="945.31" height="969.84"/><path class="cls-23" d="M2667.66,2032.26H3433s-45.18-118.33-81-103.41-70.1-29.83-99.69-113.36-55.22-9.94-68.28,31.82-50.11,111.37-82.82,21.88-58.15-196.79-98.65-75.57-71.66-17.9-71.66-17.9-21.8-207.32-130.06,6c-68.54,135-77.11-223.73-77.11-223.73s4.67-207.32-56.07-158.1Z"/><rect class="cls-24" x="2747.84" y="1597.23" width="48.68" height="430.16"/><rect class="cls-25" x="2903.08" y="1773.35" width="48.68" height="254.04"/><rect class="cls-24" x="3050.33" y="1597.23" width="48.68" height="430.16"/><rect class="cls-26" x="3205.56" y="1773.35" width="48.68" height="254.04"/><polygon class="cls-14" points="3417.73 2078.86 2607.92 2078.86 2607.92 1544.31 2618.11 1544.31 2618.11 2068.66 3417.73 2068.66 3417.73 2078.86"/><rect class="cls-1" x="1759.68" y="1359.34" width="140.75" height="14.89"/><rect class="cls-1" x="1759.68" y="1392.31" width="140.75" height="14.89"/><rect class="cls-1" x="1823.63" y="1425.28" width="76.8" height="14.89"/><rect class="cls-27" x="2821.67" y="2219.88" width="260.17" height="14.89"/><rect class="cls-27" x="2821.67" y="2252.85" width="260.17" height="14.89"/><rect class="cls-27" x="2821.67" y="2285.82" width="141.97" height="14.89"/><rect class="cls-27" x="2036.48" y="1743.35" width="355.38" height="14.89"/><rect class="cls-27" x="2036.48" y="1776.32" width="355.38" height="14.89"/><rect class="cls-27" x="2197.94" y="1809.28" width="193.92" height="14.89"/><rect class="cls-27" x="2036.48" y="1840.08" width="355.38" height="14.89"/><rect class="cls-27" x="2036.48" y="1873.05" width="355.38" height="14.89"/><rect class="cls-27" x="2197.94" y="1906.02" width="193.92" height="14.89"/><rect class="cls-27" x="2036.48" y="1936.82" width="355.38" height="14.89"/><rect class="cls-27" x="2036.48" y="1969.79" width="355.38" height="14.89"/><rect class="cls-27" x="2197.94" y="2002.76" width="193.92" height="14.89"/><rect class="cls-27" x="2036.48" y="2033.56" width="355.38" height="14.89"/><rect class="cls-27" x="2036.48" y="2066.53" width="355.38" height="14.89"/><rect class="cls-27" x="2197.94" y="2099.5" width="193.92" height="14.89"/><rect class="cls-14" x="2289.14" y="1577.38" width="5.56" height="3.79"/><path class="cls-14" d="M2306.34,1577.38H2318v3.79h-11.64Zm23.28,0h11.64v3.79h-11.64Zm23.28,0h11.63v3.79H2352.9Zm23.27,0h11.64v3.79h-11.64Zm23.28,0h11.64v3.79h-11.64Zm23.28,0h11.64v3.79h-11.64Z"/><polygon class="cls-14" points="2446.01 1577.38 2453.66 1577.38 2453.66 1584.33 2449.49 1584.33 2449.49 1581.17 2446.01 1581.17 2446.01 1577.38"/><path class="cls-14" d="M2449.49,1594.51h4.17v10.19h-4.17Zm0,20.38h4.17v10.19h-4.17Zm0,20.37h4.17v10.19h-4.17Zm0,20.38h4.17v10.19h-4.17Zm0,20.37h4.17v10.19h-4.17Zm0,20.38h4.17v10.19h-4.17Zm0,20.37h4.17V1727h-4.17Zm0,20.38h4.17v10.19h-4.17Z"/><rect class="cls-14" x="2449.49" y="1757.51" width="4.17" height="5.05"/><ellipse class="cls-14" cx="2451.57" cy="1764.71" rx="18.26" ry="15.54"/><ellipse class="cls-14" cx="2289.14" cy="1581.42" rx="18.26" ry="15.54"/><polygon class="cls-14" points="2588.18 1571.91 2639.14 1571.91 2613.66 1521.77 2588.18 1571.91"/><polygon class="cls-14" points="3406.44 2047.42 3406.44 2098.38 3456.58 2072.9 3406.44 2047.42"/><polygon class="cls-14" points="3354.76 1462.47 3394.56 1494.3 3405.98 1439.23 3354.76 1462.47"/><path class="cls-26" d="M2168.35,1443.63c0,.29,0,.57,0,.85l-131.91-37.4c14.06-88.21,90.45-155.63,182.62-155.63v133.74A59.07,59.07,0,0,0,2168.35,1443.63Z"/><path class="cls-28" d="M2028.64,1418.34l141.68,40.17A59.1,59.1,0,0,0,2196.6,1494l-72,117.09a184.95,184.95,0,0,1-95.94-192.71Z"/><path class="cls-27" d="M2237.8,1385.5V1244.32c102.15,0,185,82.81,185,185,0,4.54-.23,9-.55,13.49l-136,6.62c.19-1.9.29-3.81.29-5.75A59.07,59.07,0,0,0,2237.8,1385.5Z"/><path class="cls-14" d="M2280.93,1468.6l141.83-6.9c-6.92,95.84-86.81,171.46-184.41,171.46a184.18,184.18,0,0,1-86.68-21.56l67.38-109.55a58.41,58.41,0,0,0,61.88-33.45Z"/><polygon class="cls-14" points="2956.15 1604.68 2762.25 1459.36 2679.14 1504.45 2675.72 1498.15 2762.88 1450.86 2955.01 1594.87 3056.78 1472.95 3253.55 1595.21 3386.75 1459.03 3391.87 1464.04 3254.65 1604.34 3058.29 1482.34 2956.15 1604.68"/><circle class="cls-24" cx="2761.99" cy="1457.71" r="17.4"/><circle class="cls-24" cx="3056.96" cy="1480.25" r="17.4"/><circle class="cls-24" cx="3252.59" cy="1599.78" r="17.4"/><rect class="cls-29" x="1817.64" y="1495.34" width="88.77" height="27.74" transform="translate(3724.06 3018.42) rotate(180)"/><rect class="cls-30" x="1817.64" y="1538.79" width="88.77" height="27.74" transform="translate(3724.06 3105.31) rotate(180)"/><rect class="cls-14" x="1817.64" y="1582.24" width="88.77" height="27.74" transform="translate(3724.06 3192.21) rotate(180)"/><rect class="cls-28" x="1817.64" y="1625.68" width="88.77" height="27.74" transform="translate(3724.06 3279.1) rotate(180)"/><rect class="cls-27" x="1817.64" y="1669.13" width="88.77" height="27.74" transform="translate(3724.06 3365.99) rotate(180)"/><rect class="cls-31" x="1817.64" y="1712.58" width="88.77" height="27.74" transform="translate(3724.06 3452.89) rotate(180)"/><rect class="cls-26" x="1817.64" y="1756.02" width="88.77" height="27.74" transform="translate(3724.06 3539.78) rotate(180)"/><rect class="cls-32" x="1409.78" y="934.86" width="2310.36" height="1599.61" rx="36.91" transform="translate(5129.91 3469.34) rotate(180)"/><polygon class="cls-33" points="3165.47 2833.89 2950.6 2905.21 2716.42 2871.78 2718.67 2861.72 2964.91 2803.81 3165.47 2833.89"/><path class="cls-16" d="M2331,3234l64.9,832.35s11.29,21.32,32,5l79-868.41Z"/><path class="cls-16" d="M1650.58,3074.08l64.89,832.35s11.29,21.32,32,5l79-868.41Z"/><path class="cls-16" d="M2670.59,2775l64.89,832.35s11.29,21.32,32,5l79-868.4Z"/><path class="cls-16" d="M3206.68,2927.4l64.9,832.36s11.28,21.32,32,5l79-868.4Z"/><polygon class="cls-34" points="1577.61 3043.04 2431.59 3291.34 3436.05 2869.99 2796.51 2727.91 1577.61 3043.04"/><path class="cls-6" d="M3149,2882.11S3109,2891,3109,2913.81s32.87,26.75,32.87,26.75l55.72-22.29s6.68-21.73,0-30.64S3149,2882.11,3149,2882.11Z"/><path class="cls-35" d="M3168.14,2884.35s22.69,20.24,6.15,43.24l34.44-14.06S3184.38,2872.16,3168.14,2884.35Z"/><polygon class="cls-36" points="2716.42 2882.61 2958.02 2940.55 3165.47 2848.07 2716.42 2882.61"/><polygon class="cls-33" points="3165.47 2833.89 2950.6 2905.21 2716.42 2871.78 2718.67 2861.72 2964.91 2803.81 3165.47 2833.89"/><polygon class="cls-14" points="3090.09 2727.91 2897.32 2770.11 2922.6 2855.24 3129.1 2801.63 3090.09 2727.91"/><path class="cls-16" d="M2948.17,2822s169.79-15.21,206.61-58.89l-25.68,38.56L2941,2848.07Z"/><path class="cls-16" d="M3185.09,2222.26s-2.73-95.12,77.5-70.61Z"/><polygon class="cls-36" points="2367.45 2993.66 2683.06 2975.41 2505.62 3193.07 2200.84 3150.24 2367.45 2993.66"/><polygon class="cls-37" points="1577.61 3043.04 1577.61 3101.36 2433.47 3362.82 2433.47 3291.34 1577.61 3043.04"/><polygon class="cls-38" points="2433.47 3291.34 3436.05 2869.99 3436.05 2927.83 2433.47 3362.82 2433.47 3291.34"/><path class="cls-6" d="M1907.5,2264.94s71.87-33.43,130.37,110.31c0,0,8.91,12.07,17.08,14.3s-13.37,20.06-13.37,20.06,13.37,41.6-8.91,62.4-85.43,23.77-79.49,56.45S1967.3,2605,1967.3,2605s-78.74,24.51-83.2-16.35a594.24,594.24,0,0,1-3.71-71.31S1738.5,2311.18,1907.5,2264.94Z"/><path class="cls-35" d="M1955.18,2285.5s-21.18,51.68-3.91,82.88-19.51,72.95-19.51,72.95-2.13,11.17,9,15.07-60.34,60.92-60.34,60.92l26.87-129.75S1932.9,2250.54,1955.18,2285.5Z"/><path class="cls-39" d="M1964.36,2272.87S1925,2316,1946.5,2365s-66.11,152.28-66.11,152.28-159.13-63.4-67.6-202.06C1887.81,2201.61,1964.36,2272.87,1964.36,2272.87Z"/><path class="cls-18" d="M1826.55,2482.89s-40.51,4.72-25.65,41.12,71.31,27.48,86.17,0S1826.55,2482.89,1826.55,2482.89Z"/><path class="cls-6" d="M1781.31,3441.54s6.22,85.89-6.41,116.9-69.83,69.94-31.2,360.51a277.54,277.54,0,0,0-29,24.51C1697.05,3961,1801.64,4084,1801.64,4084l42.35-8.92s-73.55-91.93-50.52-187.11,33.43-219.19,54.23-253.79,46.06-113.55,63.14-181.58S1781.31,3441.54,1781.31,3441.54Z"/><path class="cls-35" d="M1782.19,3457.7V3491s57.1,34.25,112.53,20.46l12.54-46.65Z"/><path class="cls-6" d="M1986.19,3453s26.56,82.16,21.68,115.16-51.21,83.74,55.77,357.7c0,0,2.41,25.39-22.33,30.37s103.53,141.91,103.53,141.91l36.4-9s-76.26-106.86-76.59-204.63-19.84-220.74-7.88-259.08,21-127.62,21.33-197.65S1986.19,3453,1986.19,3453Z"/><path class="cls-35" d="M1990.42,3466.05l9,32s67.53,6.28,117.86-36.1l2.61-59.95Z"/><path class="cls-33" d="M1733.28,3943.78c1.62,6.11,3.13,12.23,5.56,18.06,6.86,16.43,17.65,31.32,27.05,46.21,10.17,16.11,19.54,32.8,29.87,48.79,5.26,8.15,11.2,14.54,21,15.93a43.18,43.18,0,0,0,13.52-.27c2.74-.49,5.53-2.37,8.2-2.59,2.28-.19,4.52,1.28,6.43,2.36,7.35,4.15,14.09,9.38,21.4,13.62,6.39,3.69,13.26,6,19.84,9.22,2,1,4.94,2.29,5.66,4.79,1,3.68-2.67,7.51-5.42,9.08-8.32,4.76-20.83,2.79-29.89,2.9-19.23.25-39.25,2-58.42-.48-6.29-.81-12.74-2.26-16.94-7.57-7.81-9.87-10.46-24.69-14.93-36.24-3.78-9.74-8.25-19.84-15.53-27.37a51.92,51.92,0,0,0-18.87-12.13c-2.45-.92-3.6-1.67-4.75.95-1.9,4.31-.26,11.57-.32,16.22-.13,9.38-.36,56.54-.37,59.9,0,1.36.64,4.82,0,6-.85,1.55.27.62-2.19,1.09-1.21.23-7.19.77-8.25,0-1.6-1.16-.78-10.7-.87-13.35-.31-9.34-.86-18.67-1.6-28-1.43-17.88-2.47-36.38-7-53.77-3.7-14.32-7.94-26.4-7.25-41.52.37-8,1.59-16.44,5.35-23.54,5.42-10.22,16.15-18,24.42-25.49Z"/><path class="cls-33" d="M2064.19,3950.27c1.62,6.1,3.13,12.23,5.56,18.06,6.86,16.43,17.65,31.32,27.05,46.21,10.17,16.11,19.54,32.8,29.87,48.79,5.27,8.15,11.2,14.53,21,15.93a43.18,43.18,0,0,0,13.52-.27c2.74-.49,5.53-2.37,8.2-2.59,2.28-.19,4.52,1.28,6.43,2.36,7.35,4.15,14.1,9.38,21.41,13.62,6.38,3.69,13.25,6,19.83,9.22,2,1,4.94,2.29,5.66,4.79,1.05,3.68-2.67,7.51-5.42,9.08-8.32,4.76-20.83,2.79-29.89,2.9-19.23.25-39.25,2-58.42-.48-6.29-.81-12.74-2.26-16.94-7.57-7.81-9.87-10.46-24.69-14.93-36.24-3.78-9.75-8.25-19.84-15.53-27.37a51.71,51.71,0,0,0-18.87-12.13c-2.45-.92-3.6-1.67-4.75,1-1.9,4.3-.26,11.57-.32,16.22-.13,9.38-.36,56.54-.37,59.9,0,1.36.64,4.82,0,6-.85,1.55.27.62-2.19,1.09-1.21.23-7.18.77-8.25,0-1.6-1.16-.78-10.7-.87-13.35-.31-9.34-.86-18.67-1.6-28-1.43-17.88-2.47-36.38-7-53.77-3.7-14.32-7.94-26.4-7.25-41.52.37-8,1.59-16.44,5.35-23.54,5.42-10.23,16.15-18,24.42-25.5Z"/><path class="cls-6" d="M3219,2168.55s-50.14,49-42.34,115.89c0,0-7.8,26.18-31.76,37.32,0,0-16.71,13.38,20.61,21.18,0,0,15.22-3.9,14.57,22.28s10.5,55.72,55.08,59.06,41.22,117,41.22,117,65.75,10,87.47-13.37c0,0-42.34-64.08-15.6-103.07s107.72-112.55,66.12-186.09S3219,2168.55,3219,2168.55Z"/><path class="cls-35" d="M3341.9,2476.68s-6.17,58.53-47.39,61.56l21.56,20.71,44.38-36.66S3344.4,2497.52,3341.9,2476.68Z"/><path class="cls-35" d="M3218.21,2179.51s-13.38,85.8,90.8,99.72c0,0,15.95,11.41,7.14,53.07s33-110,33-110Z"/><path class="cls-11" d="M2929.28,3660.2h0l-.43.28c-6.06,3.93-81.87,52.58-111.09,46.81-30.45-6-52.12,48.56-52.12,48.56l249.2-9.79s23.34,5.34,4.33-56.46c-3.05-9.93-7.16-21.53-12.68-35.24h0S2953.6,3671.89,2929.28,3660.2Z"/><path class="cls-6" d="M2222.6,2678.7s20.05,17.83,31.2-54.6,57.94-168.25,57.94-168.25,12.81-79.67,24.51-102.52,37.89-56.82,37.33-73,20.62-2.79,12.26,15.6-27.3,65.18-27.3,65.18,35.1,20.06,32.87,36.22-13.07,50.65-51.26,65.18c0,0,15,95.83-10.58,184.41s-44,133.16-119.79,107Z"/><path class="cls-35" d="M2238.13,2721.08s41.91,21.56,63.51,3.27c0,0-18.87,54.91-89.18,30.46Z"/><path class="cls-35" d="M1896.11,2540.58s-2,57.87,67.11,42.42l4.08,22s-80.37,1.13-82.16-11.23l-4.55-55.42Z"/><polygon class="cls-40" points="2735.57 2874.31 2967.5 2908.8 2923.16 2616.57 2691.23 2582.08 2735.57 2874.31"/><polygon class="cls-33" points="2716.24 2871.44 2948.17 2905.93 2903.83 2613.7 2671.9 2579.2 2716.24 2871.44"/><path class="cls-41" d="M2783.11,2744c-1.09-16,5.64-30.18,15-31.79s17.88,10,19,26-5.65,30.18-15,31.79S2784.19,2760,2783.11,2744Z"/><polygon class="cls-42" points="2716.24 2871.44 2948.17 2905.93 2948.17 2918.27 2716.42 2882.61 2716.24 2871.44"/><polygon class="cls-43" points="3165.47 2833.89 3165.47 2848.07 2948.17 2918.27 2948.17 2905.93 3165.47 2833.89"/><path class="cls-16" d="M3275.19,2522.29l25.45,21-14.49,42.5a14.26,14.26,0,0,1-8,8.79c-4.13,1.65-9.91,1.86-16.49-3.92C3241.24,2572.75,3246.78,2539.14,3275.19,2522.29Z"/><path class="cls-16" d="M3357,2516l-56.32,27.32s-1.65,71.33,38.46,46.26,51.26-60.17,51.26-60.17S3362.56,2500.33,3357,2516Z"/><path class="cls-44" d="M3377,2658.64s-21.17,143.75-37.88,154.89-205,73.54-205,73.54,59.48-19.05,63.52,31.2c0,0,183.9-21.17,228.44-69.09s58.18-108.09,58.18-108.09,25.75-146-46.31-151.53C3437.9,2589.56,3392.53,2571.32,3377,2658.64Z"/><polygon class="cls-45" points="2670.7 2761.65 2687.92 2771.16 2634.37 3016.97 2614.29 3009.4 2670.7 2761.65"/><polygon class="cls-46" points="2422.08 2754.73 2670.7 2761.65 2614.29 3009.4 2367.58 2975.05 2422.08 2754.73"/><polygon class="cls-47" points="2205.7 3107.81 2494.76 3149.88 2614.29 3009.4 2367.58 2975.05 2205.7 3107.81"/><polygon class="cls-48" points="2494.76 3149.88 2494.76 3178.09 2634.37 3016.97 2614.29 3009.4 2494.76 3149.88"/><polygon class="cls-49" points="2205.7 3107.81 2494.76 3149.88 2494.76 3178.09 2205.7 3132.67 2205.7 3107.81"/><polygon class="cls-29" points="2422.08 2754.73 2598.11 2759.63 2448.87 2986.37 2367.58 2975.05 2422.08 2754.73"/><path class="cls-14" d="M3219,2168.55s-6.18,34.36,16.1,56.64,92.1,30.46,85.42,84.69c0,0-1.48,26.07-15.59,46.09,0,0,38.69-30.49,46.09-43.86s34.14,20.87,5.91,43.86-8.68,68.87-8.68,68.87,135-95.65,91.88-181.08c0,0,2.54-114.4-139.5-104C3300.63,2139.76,3232.61,2136.43,3219,2168.55Z"/><path class="cls-14" d="M1466.57,2208.11h180.6l98.52,64v-271.8c0-54.62-50.78-98.9-113.41-98.9H1466.57c-62.64,0-113.41,44.28-113.41,98.9v108.9C1353.16,2163.84,1403.93,2208.11,1466.57,2208.11Z"/><path class="cls-50" d="M1638.46,2145.81a4.49,4.49,0,0,0-.12-1.12c-5.43-10.73,3.45-15.93,8.72-22.5.87-1.08,2.14-1,3.35-.9,1.68.17,3.35.47,5,.61,6.59.52,6.62.52,9.34-5.41a82.54,82.54,0,0,0,5-14.35c.6-2.34.37-4.24-1.93-5.12-8.08-3.1-9.15-9.4-9.42-17.15-.18-5.09,1.09-8.14,5.1-10.62,1.22-.76,2.23-1.85,3.41-2.69a3.25,3.25,0,0,0,1.21-4.11,80.77,80.77,0,0,0-8.56-18.33c-1-1.59-2.36-2.27-4-1.6-8.25,3.48-14,.21-19.67-5.88-2.82-3-4.29-5.27-3.63-9.53,1.3-8.33,1-8.41-6.9-11.85a84.34,84.34,0,0,0-12.71-4.17c-2.2-.57-3.88-.26-4.85,1.83-3.12,6.7-7.85,9.55-15.67,9.45-5.69-.08-9.64-.72-13-5.68-3.46-5.19-3.85-4.93-9.74-2.69a102.57,102.57,0,0,0-13.36,6.44c-2.64,1.47-3.82,3.31-2.73,6.13,2.57,6.56.58,11.16-4.16,16.48-4.56,5.12-8.88,6.72-14.91,5.08-3.6-1-5.28.55-6.68,3.61a87.33,87.33,0,0,0-5.86,16.7c-.48,2-.34,3.75,1.69,4.53,8.34,3.21,9.7,9.61,9.66,17.74,0,4.71-.85,7.73-4.79,10-1.24.72-2.22,1.85-3.41,2.68a3.39,3.39,0,0,0-1.44,4.35,83.39,83.39,0,0,0,8.31,18.05c1.16,1.86,2.7,2.57,4.56,1.82,7.57-3,12.68-.24,18.58,5.08,5.08,4.57,4.73,8.91,3.82,14-.61,3.43.6,5.1,3.52,6.45a85.82,85.82,0,0,0,16.69,5.91c2.19.51,4,.33,4.84-1.81,3.28-8,9.4-9.2,17.42-9.66,6.16-.35,8.33,2.72,11.22,6.27,3.63,4.48,3.61,4.44,8.94,2.53a76.56,76.56,0,0,0,14.95-7.28C1637.69,2148.28,1639.13,2147.44,1638.46,2145.81Zm-42.68-98c21.23,0,37.33,16.14,37.29,37.38,0,21-16.13,37.18-37.12,37.23-21.17,0-37.52-16.19-37.5-37.25C1558.47,2063.92,1574.58,2047.8,1595.78,2047.81Z"/><path class="cls-50" d="M1516.63,2056.44a3.44,3.44,0,0,0-.09-.84c-4.07-8.06,2.59-12,6.55-16.9a2.6,2.6,0,0,1,2.52-.67c1.26.12,2.51.35,3.77.46,4.95.39,5,.39,7-4.07a62.74,62.74,0,0,0,3.73-10.78c.44-1.75.27-3.18-1.46-3.84-6.07-2.33-6.87-7.06-7.07-12.88-.14-3.82.82-6.11,3.83-8,.92-.57,1.68-1.39,2.56-2a2.45,2.45,0,0,0,.91-3.09,60.34,60.34,0,0,0-6.43-13.76c-.76-1.2-1.78-1.71-3-1.21-6.19,2.61-10.53.16-14.77-4.41-2.11-2.28-3.22-4-2.72-7.16,1-6.26.75-6.32-5.19-8.9a63.52,63.52,0,0,0-9.55-3.14c-1.65-.42-2.91-.19-3.64,1.38-2.34,5-5.89,7.17-11.76,7.1-4.28-.06-7.24-.54-9.73-4.27-2.61-3.89-2.9-3.7-7.32-2a77.14,77.14,0,0,0-10,4.84c-2,1.11-2.88,2.48-2,4.6,1.92,4.93.43,8.39-3.13,12.38s-6.67,5-11.2,3.82c-2.7-.74-4,.41-5,2.71a65.51,65.51,0,0,0-4.41,12.54c-.35,1.54-.25,2.82,1.28,3.4,6.25,2.41,7.28,7.22,7.25,13.32,0,3.54-.64,5.81-3.6,7.53-.93.54-1.67,1.4-2.56,2a2.54,2.54,0,0,0-1.08,3.27,62.77,62.77,0,0,0,6.24,13.55c.87,1.4,2,1.93,3.43,1.37,5.68-2.27,9.51-.18,14,3.81,3.81,3.44,3.55,6.69,2.87,10.53-.46,2.57.45,3.83,2.64,4.84a64.7,64.7,0,0,0,12.54,4.44c1.64.38,3,.25,3.63-1.36,2.46-6,7.06-6.91,13.08-7.25,4.63-.27,6.26,2,8.43,4.7,2.72,3.36,2.71,3.33,6.72,1.9A57.62,57.62,0,0,0,1515,2059C1516.06,2058.3,1517.14,2057.67,1516.63,2056.44Zm-32.05-73.6c16,0,28,12.13,28,28.08a28,28,0,0,1-56,0C1456.56,1994.94,1468.65,1982.84,1484.58,1982.84Z"/><path class="cls-12" d="M1809.81,2966s-42.71,94-38.25,274.48-.33,213.94-.33,213.94,109.66,45.42,215,12.26c116.56-36.71,133-51.26,133-51.26s13.37-191-35.66-372.38l-26.74-93.38S1916.6,2998.5,1809.81,2966Z"/><path class="cls-51" d="M2061.49,2966s-176.89,108.27-161.29,201.87-79.45,301.39-79.45,301.39l-49.52-14.84s4-150.61,0-220.44-4.26-127.39,38.58-268c0,0,103.49,29.16,247-16.34Z"/><path class="cls-6" d="M1684.55,2897.75s-9.53,20.47,0,31,54,34.29,93.21,75.87c0,0,28.77,5.38,39.61,2.07s2.24,15.3-20.55,16.12c0,0-15.2,33.61-15.75,62,0,0-9.66-8.69-22.73-46.55,0,0-78.27-42.56-132.63-91.56S1639.8,2838.52,1684.55,2897.75Z"/><path class="cls-35" d="M1608.53,2922.42s41.84-3.83,66.63,11.93c24.1,15.31,44.14,20.2,44.14,20.2s-44.34-28.47-26.29-56.8C1714.77,2863.63,1608.53,2922.42,1608.53,2922.42Z"/><path class="cls-5" d="M1885.14,2593.75s21.3,20.43,79.22-4.6c0,0,55.68,3.2,80.94-13.89s115.88,104.74,187.94,98.06c0,0,22.28,87.65-26.74,94.34,0,0-109.95-32-124.8-39.75,0,0-4.46,20.44,25.25,51.64s-32.69,115.14-50.14,170.11c0,0-157.11,51.25-247,16.34,0,0,21.55-70.57-22.28-166.4,0,0-78,114.4-92.11,121.09s-97.32,46-103.26-4.46c0,0,142.63-259.25,163.43-277.83s52-23,52-23,53.48-8.92,62.4-17.09S1885.14,2593.75,1885.14,2593.75Z"/><path class="cls-52" d="M2081.7,2727.91,2059,2719s6.69,38.45,40.67,86.36c0,0,12.14,15.52-5.55,62.11,0,0,37.59-66.66,12.79-87.92C2107,2779.55,2079.84,2751.58,2081.7,2727.91Z"/><polygon class="cls-53" points="1787.53 2799.6 1772.43 2767.1 1731.63 2878.28 1787.53 2799.6"/><path class="cls-35" d="M1796.82,3022.83s-4.33-3.53-6.37-1.49-11.48,61.07-11.48,61.07l2.1,2.45Z"/><path class="cls-54" d="M1837.3,2499.49s39.37-34.17,62.4,10.4-61.31,53.62-80,33.87S1837.3,2499.49,1837.3,2499.49Z"/><circle class="cls-39" cx="1947.89" cy="2462.68" r="10.92"/><polygon class="cls-55" points="2367.58 2975.05 2371.58 2958.86 2617.75 2994.19 2614.29 3009.4 2367.58 2975.05"/><path class="cls-56" d="M3998.75,3738.87a.5.5,0,0,0,0-1,.5.5,0,0,0,0,1Z"/><path class="cls-16" d="M3186.63,2676.66v137.63l-57.53-12.67S3166.82,2761.34,3186.63,2676.66Z"/><path class="cls-57" d="M1961.12,2972.94s-113.39,29.48-163.2,27.46c0,0,8.81-33.06,11.89-34.4C1809.81,2966,1863.69,2990.09,1961.12,2972.94Z"/></g></g></svg>