<svg xmlns="http://www.w3.org/2000/svg" viewBox="0 0 5000 5000"><defs><style>.cls-1,.cls-3,.cls-4{fill:#fff;}.cls-2{fill:#eaf2f9;}.cls-3{opacity:0.69;}.cls-4{opacity:0.76;}.cls-5,.cls-6{fill:#c1dee8;}.cls-6{opacity:0.47;}.cls-7{fill:#7badc9;}.cls-8{fill:#091644;}.cls-9{fill:#fac2ae;}.cls-10{fill:#f1a080;}.cls-11{fill:#ad3440;}.cls-12{fill:#891f2e;}.cls-13{fill:#5d98b2;}.cls-14{fill:#45859b;}.cls-15{fill:#e6515b;}.cls-16{fill:#ffa9b1;}.cls-17{fill:#d84150;}.cls-18{fill:#f4ae98;}.cls-19{fill:#232f63;}.cls-20{fill:#303f72;}.cls-21{fill:#455993;}.cls-22{fill:#4f65a3;}.cls-23{fill:#9dcce0;}.cls-24{fill:#111d49;}.cls-25{fill:#231f20;}.cls-26{fill:#080f28;}.cls-27{fill:#c64652;}.cls-28{fill:#94c2d6;}.cls-29{fill:#0f1a42;}.cls-30{fill:#0a1a49;}.cls-31{opacity:0.56;}.cls-32{fill:#d3ddef;}.cls-33{fill:#a9bcd8;}.cls-34{fill:#b1c3dd;}</style></defs><title>Asset 7</title><g id="Layer_2" data-name="Layer 2"><g id="Layer_1-2" data-name="Layer 1"><rect class="cls-1" width="5000" height="5000"/><path class="cls-2" d="M988.83,3871.91H4114.54s459.05-1427.47-39.23-1726.58C3629.88,1878,3793,1085.7,3166.31,1177.25s-665,359.51-1295.33,303.58C933.92,1397.69,358,2134,905.15,3151.26,1043.37,3408.25,1054.25,3668.85,988.83,3871.91Z"/><rect class="cls-3" x="2961.15" y="1115.01" width="392.1" height="530.48"/><rect class="cls-4" x="3394.13" y="1115.01" width="392.1" height="530.48"/><rect class="cls-3" x="2961.15" y="1693.52" width="392.1" height="530.48"/><rect class="cls-3" x="3394.13" y="1693.52" width="392.1" height="530.48"/><rect class="cls-5" x="1559.51" y="1970.29" width="733.52" height="241.7" rx="12"/><rect class="cls-6" x="1819.06" y="1645.49" width="596.54" height="191.36" rx="12"/><rect class="cls-7" x="500" y="3866.33" width="4000" height="18.67"/><path class="cls-8" d="M2671.58,2172.41s-22.8-70-74.11,10.89,49.76,123.86,49.76,123.86Z"/><path class="cls-9" d="M1008,2951.35c-1,3.11-105.72,170-105.72,170s144.21,20.77,146.38,0,65.07-116.08,65.07-116.08Z"/><polygon class="cls-10" points="1100.78 3040.96 1082.35 3054.92 1065.36 3084.03 980.74 2995.81 1000.82 2963.36 1100.78 3040.96"/><path class="cls-9" d="M1417.07,2412.37c-2.77,0-121.62,29.75-121.62,29.75l74.63,108.45s47.41-49.59,99.05-38.05S1417.07,2412.37,1417.07,2412.37Z"/><path class="cls-10" d="M1384.76,2420l15.35,103.57s52.88-23.44,67.4-17.89-50.44-93.28-50.44-93.28Z"/><path class="cls-11" d="M1685.43,2854.62h1062.3a12,12,0,0,1,12,12v999.71a0,0,0,0,1,0,0H1685.43a12,12,0,0,1-12-12V2866.62A12,12,0,0,1,1685.43,2854.62Z"/><path class="cls-12" d="M1673.43,3052.54v669.89s22.94,93.87,131.72-17.35,954.58,69,954.58,69V3047.4Z"/><path class="cls-13" d="M2001.08,2983.47s-169.06-131.63-157.66-502.7c0,0-248.6,52.24-333.75,42.39l-36.28-127.38s342-148.22,438.44-154.44,100.54,41.46,127.49,173.1,125.41,445.7,125.41,445.7Z"/><path class="cls-14" d="M1518.81,2376.5s-3.64,139.94,105.29,141.28c0,0-114.33,12.25-140.55,5.76s4.86-133.46,4.86-133.46Z"/><path class="cls-15" d="M1688.37,3867.47l-205.17.25c-14.91.48-27.5-11.11-28-25.77l-33-1027.28c-.47-14.66,11.34-27,26.25-27.52l42.58-1.37c105.51-3.39,194.55,78.66,197.89,182.35l27.85,865.41C1717.22,3848.19,1703.27,3867,1688.37,3867.47Z"/><polygon class="cls-16" points="1456.04 3866.88 1364.4 3866.53 1329.79 2790.97 1421.32 2788.03 1456.04 3866.88"/><path class="cls-15" d="M2739.65,3869l219.95-2.67c14.91.61,15.14-6.55,15.14-6.55l41.44-1012.53a27.19,27.19,0,0,0-26-28.2l-82.53-3.38c-83.49-3.42-154.6,62.1-158,145.59l-36.34,887.82C2712.7,3864,2724.74,3868.39,2739.65,3869Z"/><rect class="cls-16" x="2995.86" y="2821.59" width="91.58" height="1045.98" transform="translate(5944 6810.74) rotate(-177.66)"/><path class="cls-11" d="M1421.83,2803.91s90.19,972.4,125.46,1061.64l-67.62.78s-28.93,8.82-25.45-55.76Z"/><path class="cls-17" d="M3006.54,3063.51s-127.61,735.08-181.21,802.73l114.19.09s35.07-3,36.42-25.18Z"/><path class="cls-18" d="M2293.65,2598.6s43.28,160.14,76.44,320.8l102.62-94.32,41.46,164.8s-213.52,193.31-255.5,51.83-6.22-227-7.77-399.58c0,0-7.26-88.62-27-111.42s-16.24-70.48-15.55-72.56-9.67-91.9,11.06-95.36c0,0,9.67-15.89,21.42,73.25,0,0,31.78,65.65,58.73,49.06s28.33-42.15,56-31.09c0,0,5.53,9.67-9,20s-22.8,44.91-22.8,44.91,6.69,14.51-27.17,38.7C2296.63,2557.66,2282.6,2567.68,2293.65,2598.6Z"/><polygon class="cls-19" points="2217.08 2343.44 2274.6 2324.26 2274.6 2560.59 2216.56 2544.35 2217.08 2343.44"/><polygon class="cls-20" points="2248.43 2341.62 2211.89 2471.79 2214.49 2520.96 2269.42 2352.25 2269.42 2334.63 2248.43 2341.62"/><polygon class="cls-21" points="2197.9 2341.88 2217.08 2343.44 2216.56 2544.35 2197.9 2541.58 2197.9 2341.88"/><polygon class="cls-22" points="2274.6 2324.26 2249.99 2322.19 2197.9 2341.88 2217.08 2343.44 2274.6 2324.26"/><path class="cls-7" d="M1420.71,2769s83.65,5.57,146.53,32c14.52,6.11,46.27,20.29,56.16,31.47,45.09,51,253.19,484.75,386.48,486.86,137.2,2.16,76.08-372.14,76.08-372.14S1567.71,2453.83,1416.38,2516s-381.44,385.58-381.44,385.58l105.73,101.57s113.1-98.43,190.2-178.81l-1.69-52.43S1413.79,2768.89,1420.71,2769Z"/><path class="cls-14" d="M2035.33,2951.35s-140.78,114-147.69,164.46c-9.7,70.79-214.21-207-214.21-207s222.85,403.2,299.55,389.73S2035.33,2951.35,2035.33,2951.35Z"/><path class="cls-14" d="M1201,2695.83s100.71-67.18,150.46-87.22,149.33-60.5,266.07-33c0,0-118.19-70.42-159.65-65s-84.45-10.77-93.36,8S1201,2695.83,1201,2695.83Z"/><path class="cls-23" d="M1405,2392.15c-.52,2.08,20.73,152.89,33.68,164.29s100.2-21.79,100.2-21.79-46.8-122.89-34.37-152.13S1405,2392.15,1405,2392.15Z"/><path class="cls-19" d="M922.29,3079.08s51.23,44.94,122.7,19.56c0,0,49.65-7.43-32.15,223,0,0-373.72-70.72-474.59-108.34,0,0-16.93-103.93,118.07-97.09S922.29,3079.08,922.29,3079.08Z"/><path class="cls-24" d="M553.48,3152.49s478.24,92.47,495.17,54.64l-28,81.44L539.22,3183.22S546.68,3160.34,553.48,3152.49Z"/><path class="cls-1" d="M538.25,3213.33s-3.36-27.07,5-43.33l486.57,101.38-19.95,56.11S562,3229.18,538.25,3213.33Z"/><path class="cls-25" d="M1010.85,3329.21l-1.27-.28c-18.3-4-448.44-98.55-472.15-114.37l-.56-.37-.08-.68c-.14-1.12-3.32-27.71,5.18-44.19l.51-1,1.1.23,488.23,101.72ZM539.64,3212.45c28.27,16.12,443,107.52,469.3,113.31l19-53.29L544.1,3171.67C537.33,3186,539.21,3208.25,539.64,3212.45Z"/><path class="cls-19" d="M1314.09,2430.85s4,68,72.32,101c0,0,40.18,30.09-181.25,133.89,0,0-212.37-315.54-256.5-413.73,0,0,62-85.1,152.05,15.74S1314.09,2430.85,1314.09,2430.85Z"/><path class="cls-24" d="M1002.64,2220.09s270.36,405.18,309.17,390.64l-77.62,37.32-263.43-416.5S992.28,2220.78,1002.64,2220.09Z"/><path class="cls-1" d="M948.66,2252s16.89-21.42,34.36-26.89l269.88,417.37L1199,2667.76S954.08,2280.06,948.66,2252Z"/><path class="cls-25" d="M1198.41,2669.65l-.7-1.11c-10-15.83-245.09-388.25-250.5-416.23l-.13-.67.42-.53c.7-.89,17.38-21.84,35.08-27.38l1.07-.33,271.41,419.73ZM950.26,2252.4c8.4,31.43,234.88,390.68,249.25,413.47l51.23-24-268.34-415C967.46,2232.15,953,2249.13,950.26,2252.4Z"/><path class="cls-9" d="M2773.16,2200.92s-148.22-29-177.24,47.68S2585,2330,2529.58,2349.14c0,0-18.14,2.59,5.19,31.09s23.32,44.06,7.77,68.93,2.07,61.16,76.18,65.3,62.19,27.47,62.19,27.47-2.07,63.74-60.63,116.09,134.23,8.81,134.23,8.81,6.73-96.4,78.77-127.49,85.51-173.62,85.51-173.62l-106.24-135.26Z"/><path class="cls-10" d="M2765.09,2558.2s-9.44,76.67-45.3,82.66-83.79,10.26-83.79,10.26,98,25.09,120,9.61c0,0,3.55-3.21,10.29-60.34S2765.09,2558.2,2765.09,2558.2Z"/><path class="cls-10" d="M2852.15,2467.68s-83.48,26.22-85.55,64.23-10.37,121.93-10.37,121.93,25.47-87,43.88-102.24S2852.15,2467.68,2852.15,2467.68Z"/><path class="cls-26" d="M2678.65,2203.41s-3.45-130,88.43-71.77,3.5,135.63,3.5,135.63l-25-29.71a96.41,96.41,0,0,0-62.92-33.7Z"/><path class="cls-10" d="M2678.65,2203.41s78.27,10.64,98.31,76.28,11,80.86,16.56,96.75-76.67-48.38-76.67-98.82S2678.65,2203.41,2678.65,2203.41Z"/><path class="cls-26" d="M2787.33,2343.18s17.27,63,0,96.49c0,0,22.8-62.55,68.41-41.82S2787.33,2343.18,2787.33,2343.18Z"/><path class="cls-19" d="M2678.65,2203.41s0-61.92,21.84-49.66c37.18,20.85,38,55.4,39.09,98a67.72,67.72,0,0,1-1.83,19.13c-7.78,28.51,6.39,64.78,71.69,99.51s76.7,93.8,5.18,129-31,96.74-31,96.74,32.72-49.06,78.49-47,192.49-64.7,179.48-191.88c-5.19-50.66-25-54.87-30.37-77.44-18.35-77.91-136.59-222.51-297-181.56,0,0-70.62,16.24-47.82,100.55Z"/><rect class="cls-27" x="1673.43" y="3328.2" width="1086.3" height="221.81" rx="12"/><rect class="cls-16" x="1673.43" y="3516.86" width="1086.3" height="52.86"/><path class="cls-19" d="M2616.65,2639.88s99.5,44.42,146.15,9.77c0,0,11.4-5.11,0,25.47s28,69.45,19.69,123.86-77.22,496.3-570.6,535.69c0,0-241,31.28-274.15-40.24,0,0-34.21-81.88,15.55-226s147.18-120.23,202.12-249.79c0,0,101.5,128.52,238.39,17.62S2616.65,2639.88,2616.65,2639.88Z"/><path class="cls-9" d="M2270.72,2639.88s43.27,160.14,76.44,320.8l106.06-76.43,47.34,139.65s-222.85,200.57-264.83,59.08-6.21-227-7.77-399.57c0,0-7.25-88.62-26.95-111.42s-16.24-70.49-15.55-72.56-9.67-91.9,11.06-95.36c0,0,9.67-15.89,21.42,73.25,0,0,31.79,65.64,58.74,49.06s28.33-42.15,56-31.09c0,0,5.53,9.67-9,20s-22.8,44.92-22.8,44.92,6.69,14.51-27.17,38.69C2273.69,2598.93,2259.66,2609,2270.72,2639.88Z"/><path class="cls-14" d="M1590.82,2809.29s-125.61-51.17-169.46-2.44l-.65-20.15-91.53,3,1.69,52.43S1195.08,2988.76,1151,3010.53s-69.6-67.22-69.6-67.22,110.79,43.38,230.38-159.77l.32-.58a103.76,103.76,0,0,1,121.34-49C1475.27,2746.77,1533,2769.69,1590.82,2809.29Z"/><path class="cls-28" d="M1032.18,2875.34s108.49,114.7,132.67,120.92-66.33,73.94-66.33,73.94L972.06,2950.66S1029.42,2849.08,1032.18,2875.34Z"/><path class="cls-14" d="M1772,2494.66s74.56-11.3,109.8-43.69c0,0-25.93,316.63,95.35,397.62l-114.86-97s-10.63-98.3-18.79-249.65Z"/><path class="cls-29" d="M2262.68,3124.37c-1.81-.83,64.44,70.9,219.22-23.77s205.92-140.27,205.92-140.27-87.4,67.87-142.68,80.31l-22.28-36.42S2355,3166.25,2262.68,3124.37Z"/><path class="cls-29" d="M2332.72,2893.4s37.76,54.56,104.61-44.81c0,0,3.11-14.37,20.22-24.73s130.6-78.26,130.6-78.26l-144.94,112.46,10,26.19-106.06,76.43Z"/><path class="cls-10" d="M2453.22,2884.25s47.34,106.43-14.63,163.15c-34.84,31.89-157.87,82.77-157.87,82.77s84.09,23.66,242.14-126Z"/><path class="cls-10" d="M2347.16,2960.68s5.53,26.6,5.53,32.82,41.2-66.5,41.2-66.5Z"/><path class="cls-30" d="M2856.26,2412.46s60.29,52.42-21.25,109.77c0,0-36.52,31.6-29.66,50l-21.7,23.93s-41.93-64.26,31-96.74C2814.62,2499.43,2876.13,2476.82,2856.26,2412.46Z"/><path class="cls-19" d="M3015.12,2290.15s34.1,75.5,34.1,101.28C3049.22,2391.43,3066,2322,3015.12,2290.15Z"/><path class="cls-10" d="M2665.85,2522.62s41,9.19,55,0c0,0-32.14,73.55-72,103.58C2648.81,2626.2,2710.45,2530.53,2665.85,2522.62Z"/><rect class="cls-5" x="2595.79" y="1630.51" width="563.86" height="340.93" rx="12"/><rect class="cls-7" x="2126.9" y="1739.67" width="521.91" height="194.34" rx="12"/><g class="cls-31"><path class="cls-32" d="M3503.65,3565.6l-4.46-.06c0-1.59,1.43-160.46-45.42-258l4-2C3505.1,3404.09,3503.69,3564,3503.65,3565.6Z"/><path class="cls-32" d="M3503.17,3578.63c0-1.93-1.74-194.82,55.31-313.64l4,2c-56.6,117.87-54.89,309.69-54.87,311.62Z"/><path class="cls-33" d="M3571.57,3533.5c0,6.28-30.79,11.38-68.76,11.38s-68.75-5.1-68.75-11.38,30.77-11.38,68.75-11.38S3571.57,3527.22,3571.57,3533.5Z"/><path class="cls-33" d="M3571.57,3857.62c0,6.28-30.79,11.38-68.76,11.38s-68.75-5.1-68.75-11.38,30.77-11.39,68.75-11.39S3571.57,3851.33,3571.57,3857.62Z"/><rect class="cls-33" x="3434.06" y="3533.5" width="137.51" height="324.12"/><path class="cls-32" d="M3439.19,3222l24-16.43c-8.26-21.23-20.59-44.14-38.43-68.12h-11.92l5.26-8.68a423.22,423.22,0,0,0-44.4-47.65,710.48,710.48,0,0,0,11.86,89.12h18.91l-17.29,8c2.23,10.57,4.81,21.48,7.78,32.46l22.41-4.24-19.05,16.05c14.29,47.94,36.59,94.92,71.16,117,0,0,21.46-49-1.39-120.13Z"/><path class="cls-34" d="M3580.52,3163.86l-29-19.82c10-25.61,24.85-53.27,46.39-82.22h14.38l-6.35-10.46a509.49,509.49,0,0,1,53.58-57.51,857,857,0,0,1-14.31,107.56h-22.82l20.86,9.62c-2.68,12.77-5.8,25.93-9.39,39.18l-27-5.11,23,19.37c-17.24,57.85-44.15,114.55-85.88,141.19,0,0-25.91-59.12,1.69-145Z"/></g><path class="cls-29" d="M2262.68,3124.37s-120.16,62.25-289.82-45.31c0,0-66.17,152.2-35.12,215.37s266.48,57.14,389.87,22.23,354.29-88.24,452.17-501.12c0,0-29.9,120.8-143.78,181.76s-187,101.58-187,101.58l-113.1,45.38S2272.13,3139.7,2262.68,3124.37Z"/><path class="cls-29" d="M2766.89,2662s-38.21,27.37-86.07,19.69,93.77,60.53,100.61,79.93c0,0-9.15-33.3-16.9-53.4S2763.46,2667.71,2766.89,2662Z"/><polygon class="cls-5" points="2126.9 2192.56 2166.66 2258.91 2182.44 2192.56 2126.9 2192.56"/><polygon class="cls-7" points="2332.72 1915.04 2348.06 1977.35 2367.02 1915.04 2332.72 1915.04"/><rect class="cls-7" x="1612.23" y="2014.3" width="628.09" height="20.32" rx="3.44"/><rect class="cls-7" x="1612.23" y="2053.13" width="628.09" height="20.32" rx="3.44"/><rect class="cls-7" x="1612.23" y="2091.96" width="385.84" height="20.32" rx="3.44"/><path class="cls-7" d="M2156.37,2140.53c0-6.84,0-13.69,0-20.53a3,3,0,0,1,.79-2.13c5.3-6,10.57-12,15.89-18a5.94,5.94,0,0,0,1.47-3.89c0-.87,0-1.74.07-2.61a6,6,0,0,1,7.43-5.14c1.92.57,2.86,2.08,3.52,3.81a17.2,17.2,0,0,1,1,5.45,34.18,34.18,0,0,1-2.74,16.46c-.36.8.24.57.56.57,5.17,0,10.33,0,15.49,0a7.31,7.31,0,0,1,6.79,4.22,7.58,7.58,0,0,1-2.63,9.81c-.56.37-.59.54-.18,1.08a7.27,7.27,0,0,1-1.26,10.24c-.44.36-.55.54-.09,1a7.11,7.11,0,0,1-.51,10.44c-.49.44-.63.63,0,1.12a6.86,6.86,0,0,1,2.17,7.61,7,7,0,0,1-6.55,4.68c-4.82,0-9.63,0-14.45,0h-22.89c-2.76,0-3.89-1.14-3.89-3.92Q2156.36,2150.72,2156.37,2140.53Z"/><path class="cls-7" d="M2130.18,2142.21v-22.36c0-2.63,1.45-4.07,4.1-4.08h13.4a3.68,3.68,0,0,1,4,4c0,14.93,0,29.87,0,44.81a4.1,4.1,0,0,1-4.13,4.11c-4.49-.13-9,0-13.48-.05a3.65,3.65,0,0,1-4-3.95Z"/><path class="cls-19" d="M2219.9,1850.73q0-17.1,0-34.2a5,5,0,0,1,1.33-3.53c8.82-10,17.6-20,26.44-29.94a9.75,9.75,0,0,0,2.45-6.47c0-1.45,0-2.9.12-4.34.54-5.94,6.74-10.22,12.37-8.56,3.2,1,4.76,3.47,5.87,6.34a29.19,29.19,0,0,1,1.71,9.06c.5,9.47-.54,18.7-4.56,27.42-.61,1.32.39.94.93,1,8.6,0,17.2,0,25.79,0a12.13,12.13,0,0,1,11.29,7,12.61,12.61,0,0,1-4.36,16.32c-1,.62-1,.9-.31,1.8a12.1,12.1,0,0,1-2.09,17c-.74.6-.92.9-.15,1.72a11.86,11.86,0,0,1-.85,17.39c-.83.72-1.05,1,0,1.87a11.39,11.39,0,0,1,3.61,12.67,11.52,11.52,0,0,1-10.9,7.77c-8,.06-16,0-24.05,0h-38.11c-4.59,0-6.47-1.9-6.48-6.52Z"/><path class="cls-19" d="M2176.31,1853.52v-37.23c0-4.37,2.41-6.78,6.82-6.78h22.31c4.26,0,6.72,2.44,6.72,6.74,0,24.87,0,49.74.05,74.61a6.79,6.79,0,0,1-6.87,6.83c-7.48-.21-15-.06-22.45-.07-4.09,0-6.58-2.48-6.58-6.58Q2176.3,1872.29,2176.31,1853.52Z"/><path class="cls-7" d="M2771,1763.15c2.18-2.89,4.11-5.85,6.43-8.46,8.91-10,20-15.19,33.57-14.77,20.37.63,35.72,14.66,38.49,34.86,1.75,12.7-1.6,24-8.75,34.31-6.32,9.16-14.19,16.82-22.78,23.79a245.4,245.4,0,0,1-45.53,28.82,2.49,2.49,0,0,1-2.54,0c-19.2-9.63-37.31-20.9-53.2-35.46-7.59-7-14.46-14.57-19.11-23.84-7.94-15.8-7.27-31.39,2.46-46.17,6.13-9.31,15.28-14.24,26.31-15.83a41.33,41.33,0,0,1,26.75,4.68,46.93,46.93,0,0,1,17.2,16.93Z"/><path class="cls-19" d="M2391.12,1887.76h-12.95v-78.18l-13.13,8.06v-13.39l13.13-8.75h12.95Z"/><path class="cls-19" d="M2418.75,1881.8q-6.69-6.91-6.69-19.29v-42q0-12.43,6.72-19.32t19.61-6.89q12.95,0,19.64,6.86t6.7,19.35v42q0,12.43-6.73,19.32t-19.61,6.88Q2425.45,1888.71,2418.75,1881.8Zm29.76-9q3.27-3.58,3.27-10.31v-42q0-6.72-3.23-10.31t-10.16-3.58q-6.91,0-10.15,3.58t-3.24,10.31v42q0,6.72,3.27,10.31t10.12,3.58Q2445.25,1876.4,2448.51,1872.82Z"/><path class="cls-19" d="M2482.37,1876.53l32.17-42.9a32.08,32.08,0,0,0,4.35-7.64,20.5,20.5,0,0,0,1.55-7.39v-.13q0-5.52-3.23-8.57t-9.21-3a12.67,12.67,0,0,0-9.13,3.33q-3.49,3.33-4.25,9.42v.06h-13.39v-.06a34.44,34.44,0,0,1,4.66-13.55,23.65,23.65,0,0,1,9.11-8.56,27.1,27.1,0,0,1,12.88-3,32.11,32.11,0,0,1,14.08,2.82,19.77,19.77,0,0,1,8.89,8.22,26.05,26.05,0,0,1,3,13v.06a28.47,28.47,0,0,1-2,10.21,43.45,43.45,0,0,1-5.64,10.28l-26.72,36.3h34.9v12.31h-52Z"/><path class="cls-7" d="M2900.69,1832l32.18-42.9a31.56,31.56,0,0,0,4.34-7.65,20.23,20.23,0,0,0,1.56-7.39v-.13q0-5.52-3.24-8.56t-9.2-3a12.69,12.69,0,0,0-9.14,3.33q-3.48,3.33-4.25,9.43v.06h-13.39V1775a34.39,34.39,0,0,1,4.67-13.55,23.65,23.65,0,0,1,9.1-8.57,27.13,27.13,0,0,1,12.88-3,32,32,0,0,1,14.09,2.83,19.9,19.9,0,0,1,8.89,8.21,26.08,26.08,0,0,1,3,13v.06a28.74,28.74,0,0,1-2,10.22,44.26,44.26,0,0,1-5.65,10.28l-26.71,36.3h34.9v12.31h-52Z"/><path class="cls-7" d="M2982.58,1841.4a22.49,22.49,0,0,1-8.82-7.93,31.57,31.57,0,0,1-4.53-12.5v-.06h12.94v.06a12,12,0,0,0,4.06,7.9,13.17,13.17,0,0,0,8.76,2.82q6.23,0,9.61-4.15t3.4-11.71v-7.74q0-7.48-3.4-11.65t-9.61-4.15a12.2,12.2,0,0,0-6.47,1.9,18.06,18.06,0,0,0-5.46,5.33h-11.8v-48.61h47v12.31H2984.2V1784a18.4,18.4,0,0,1,5.4-3,17.69,17.69,0,0,1,6.09-1.08,26.74,26.74,0,0,1,13.67,3.3,21,21,0,0,1,8.63,9.64,36.06,36.06,0,0,1,3,15.3v7.74a35.1,35.1,0,0,1-3,15.29,21.55,21.55,0,0,1-8.89,9.68,27.84,27.84,0,0,1-14,3.33A27.27,27.27,0,0,1,2982.58,1841.4Z"/><path class="cls-7" d="M3046.68,1837.21q-6.7-6.92-6.7-19.29V1776q0-12.43,6.73-19.32t19.61-6.89q12.94,0,19.64,6.85t6.69,19.36v41.94q0,12.45-6.73,19.33t-19.6,6.88Q3053.38,1844.13,3046.68,1837.21Zm29.76-9q3.26-3.59,3.26-10.31V1776q0-6.74-3.23-10.31t-10.15-3.59q-6.93,0-10.16,3.59t-3.23,10.31v41.94q0,6.74,3.26,10.31t10.13,3.59Q3073.16,1831.82,3076.44,1828.23Z"/></g></g></svg>