<svg xmlns="http://www.w3.org/2000/svg" viewBox="0 0 5000 5000"><defs><style>.cls-1,.cls-31,.cls-32{fill:#fff;}.cls-2{fill:#d2e8f7;}.cls-3{fill:#eaf2f9;}.cls-4{fill:#c8dae8;}.cls-35,.cls-5{fill:#abc4d6;}.cls-6{fill:#9fbed3;}.cls-7{fill:#afcce2;}.cls-8{fill:#f4b9a6;}.cls-9{fill:#0f1a42;}.cls-10{fill:#232f63;}.cls-11{fill:#84b4fe;}.cls-12{fill:#7badc9;}.cls-13{fill:#387ffd;}.cls-14{fill:#ebf5ff;}.cls-15{fill:#e26154;}.cls-16{fill:#e6515b;}.cls-17{fill:#841a25;}.cls-18{fill:#f4b19d;}.cls-19{fill:#f1a080;}.cls-20{fill:#417e93;}.cls-21{fill:#c43333;}.cls-22{fill:#669bb2;}.cls-23{fill:#d84841;}.cls-24{fill:#fac2ae;}.cls-25{fill:#cc4452;}.cls-26{fill:#dd4b59;}.cls-27{fill:#5d96af;}.cls-28{fill:#45859b;}.cls-29{fill:none;stroke:#e6515b;stroke-miterlimit:10;stroke-width:2px;}.cls-30{fill:#d64956;}.cls-31{opacity:0.33;}.cls-32{opacity:0.17;}.cls-33{fill:#002e42;}.cls-34{fill:#ffc000;}.cls-35{opacity:0.53;}.cls-36{fill:#f2f7f9;}</style></defs><title>Asset 6</title><g id="Layer_2" data-name="Layer 2"><g id="Layer_1-2" data-name="Layer 1"><rect class="cls-1" width="5000" height="5000"/><ellipse class="cls-2" cx="2622.24" cy="3769.72" rx="1296.78" ry="92.49"/><path class="cls-3" d="M1239.56,3687.05H4142.07s426.26-1325.53-36.43-1603.28c-413.62-248.29-262.17-984-844.09-898.95S2644,1518.65,2058.72,1466.72c-870.14-77.2-1404.91,606.53-896.85,1551.14C1290.21,3256.5,1300.31,3498.49,1239.56,3687.05Z"/><rect class="cls-4" x="3754.04" y="3179.48" width="607.13" height="498.85"/><polygon class="cls-5" points="3754.03 3179.48 3754.03 3248.1 4361.17 3280.8 4361.17 3179.48 3754.03 3179.48"/><rect class="cls-4" x="3701.75" y="3108.82" width="712.94" height="100.63"/><rect class="cls-6" x="4022.79" y="3108.82" width="52.83" height="566.01"/><rect class="cls-4" x="3937.93" y="2749.52" width="438.13" height="359.99"/><polygon class="cls-5" points="3937.93 2749.52 3937.93 2799.04 4376.07 2822.64 4376.07 2749.52 3937.93 2749.52"/><rect class="cls-4" x="3900.2" y="2698.53" width="514.49" height="72.62"/><rect class="cls-6" x="4131.88" y="2698.53" width="38.12" height="408.46"/><path class="cls-7" d="M1603,2773.91H1342a38.46,38.46,0,0,0-38.08,33l-13.52,94H516.52l63.7,477.78H538.48a38.49,38.49,0,0,0,0,77h716.57a38.45,38.45,0,0,0,38.07-33l82.24-571.75H1603a38.48,38.48,0,0,0,0-77ZM582.6,3105.36H718.08v147.55H602.26Zm174,0H892v147.55H756.56Zm483.25,147.55H1104.48V3105.36H1261Zm-309.3,125.72v-87.25H1066v87.25Zm174,0v-87.25h129.79l-12.56,87.25ZM1066,3252.91H930.51V3105.36H1066Zm-135.48-186V2939.32H1066v127.56Zm-38.49,0H756.56V2939.32H892Zm0,224.5v87.25H756.56v-87.25Zm374.53-224.5H1104.48V2939.32H1284.9ZM718.08,2939.32v127.56H577.47l-17-127.56ZM607.41,3291.38H718.08v87.25H619Z"/><path class="cls-7" d="M737.32,3508.25a89.06,89.06,0,1,0,89,89.05A89,89,0,0,0,737.32,3508.25Z"/><path class="cls-7" d="M1085.24,3508.25a89.06,89.06,0,1,0,89,89.05A89,89,0,0,0,1085.24,3508.25Z"/><path class="cls-8" d="M3423.45,2049.06s137.1,241.49,145.9,294.32c0,0,41.51,41.51-211.31,182.38l-26.41-52.83s73-104.39,120.13-135.84c0,0,23.26-8.35-56.61-96.93S3423.45,2049.06,3423.45,2049.06Z"/><path class="cls-9" d="M3250.32,1495.39s-18.89-32.52-31.47,0-3.36,331.88-33.54,344.46c0,0,10.9,26.83,99.78,20.12s73.79-358,73.79-358-91.4-56.18-98.94-43.6S3250.32,1495.39,3250.32,1495.39Z"/><rect class="cls-10" x="1619.95" y="1137.8" width="1150.9" height="2137.39" rx="146.3"/><path class="cls-3" d="M2168.17,3193.11a88.76,88.76,0,1,1,88.76-88.76A88.86,88.86,0,0,1,2168.17,3193.11Z"/><path class="cls-11" d="M2300.92,1222.87H2096.67a9.59,9.59,0,0,0,0,19.18h204.25a9.59,9.59,0,1,0,0-19.18Z"/><path class="cls-11" d="M2049.84,1245.28a12.68,12.68,0,0,1-9-3.77,15.58,15.58,0,0,1-1.6-2,12.12,12.12,0,0,1-1.22-2.18,15,15,0,0,1-.7-2.36,12.39,12.39,0,0,1,0-5,16.76,16.76,0,0,1,.77-2.37,14.34,14.34,0,0,1,1.15-2.24,13.8,13.8,0,0,1,3.52-3.52,15.15,15.15,0,0,1,2.23-1.15,15.63,15.63,0,0,1,2.37-.77,13.5,13.5,0,0,1,5,0,16.37,16.37,0,0,1,2.43.77,14.51,14.51,0,0,1,2.17,1.15,15.75,15.75,0,0,1,2,1.6,15.22,15.22,0,0,1,1.6,1.92,13.53,13.53,0,0,1,1.15,2.24,13.58,13.58,0,0,1,1,4.92,16.19,16.19,0,0,1-.19,2.5,14.16,14.16,0,0,1-.77,2.36,11.29,11.29,0,0,1-1.15,2.18,11.87,11.87,0,0,1-3.58,3.57,13.7,13.7,0,0,1-2.17,1.16,15.25,15.25,0,0,1-2.43.76A15.56,15.56,0,0,1,2049.84,1245.28Z"/><rect class="cls-1" x="1704.9" y="1325.28" width="968.63" height="1609.47"/><rect class="cls-12" x="1704.9" y="1325.28" width="968.63" height="163.58"/><path class="cls-13" d="M1829.18,1408.12a28.64,28.64,0,1,1-28.63-28.63A28.63,28.63,0,0,1,1829.18,1408.12Z"/><path class="cls-10" d="M1920.49,1408.12a28.63,28.63,0,1,1-28.63-28.63A28.63,28.63,0,0,1,1920.49,1408.12Z"/><path class="cls-11" d="M2011.81,1408.12a28.64,28.64,0,1,1-28.63-28.63A28.63,28.63,0,0,1,2011.81,1408.12Z"/><rect class="cls-14" x="1982.48" y="1600.46" width="406.07" height="22.79" rx="1"/><rect class="cls-14" x="1982.48" y="1653.97" width="240.81" height="22.79" rx="1"/><circle class="cls-14" cx="1857.96" cy="1643.87" r="72.34"/><rect class="cls-12" x="1982.48" y="1856.24" width="406.07" height="22.79" rx="1"/><rect class="cls-12" x="1982.48" y="1909.75" width="240.81" height="22.79" rx="1"/><circle class="cls-12" cx="1857.96" cy="1899.65" r="72.34"/><rect class="cls-7" x="1982.48" y="2112.01" width="406.07" height="22.79" rx="1"/><rect class="cls-7" x="1982.48" y="2165.53" width="240.81" height="22.79" rx="1"/><circle class="cls-7" cx="1857.96" cy="2155.42" r="72.34"/><rect class="cls-10" x="1982.48" y="2367.79" width="406.07" height="22.79" rx="1"/><rect class="cls-10" x="1982.48" y="2421.3" width="240.81" height="22.79" rx="1"/><circle class="cls-10" cx="1857.96" cy="2411.2" r="72.34"/><rect class="cls-15" x="1982.48" y="2623.57" width="406.07" height="22.79" rx="1"/><rect class="cls-15" x="1982.48" y="2677.08" width="240.81" height="22.79" rx="1"/><circle class="cls-15" cx="1857.96" cy="2666.98" r="72.34"/><rect class="cls-12" x="785.64" y="3681.87" width="3714.36" height="17.33"/><path class="cls-16" d="M1352.29,1947.17a40.73,40.73,0,0,1-44.14,37l-465.27-40.93a40.72,40.72,0,0,1-37-44.14l19.85-225.66a40.71,40.71,0,0,1,44.14-37l465.27,40.92a40.74,40.74,0,0,1,37,44.15Z"/><path class="cls-16" d="M1319.39,1919.13a38.35,38.35,0,1,1-34.84-41.57A38.36,38.36,0,0,1,1319.39,1919.13Z"/><path class="cls-16" d="M1259.06,1913.82a38.35,38.35,0,1,1-34.84-41.56A38.35,38.35,0,0,1,1259.06,1913.82Z"/><path class="cls-16" d="M900.53,1879.2c-1.81,5.07-6,8.58-12.95,8-9.12-.8-13.13-8.14-12.37-16.76.73-8.3,6-15.4,15.29-14.59,7.2.64,10.75,5.09,11.2,10.27l-4.05-.35c-.8-3.42-2.78-6.12-7.61-6.55-6.74-.59-10,5.28-10.58,11.46-.52,6,1.54,12.54,8.59,13.16,4.71.41,7-2.1,8.42-5Z"/><path class="cls-16" d="M910.55,1879.57l-4.08,8.88-4-.36L916,1858.51l5,.44,8.66,31.54-4.32-.38-2.58-9.47Zm11.46-2.48c-2.2-8.29-3.43-12.69-3.89-15.08h0c-1,2.52-3.22,7.53-6.17,14.19Z"/><path class="cls-16" d="M939.67,1877.81l-1.18,13.46-4-.36,2.69-30.53,11.93,1c6.27.56,9.32,4.25,8.9,9a7,7,0,0,1-5.84,6.72c2.43.89,4.44,2.94,4,8.24l-.12,1.31c-.18,2.11-.52,4.76-.12,6.09l-3.94-.35c-.44-1.36-.19-3.74.06-6.61l.06-.65c.38-4.35-.68-6.35-6.16-6.83Zm.3-3.41,6.64.59c4.67.41,6.88-1.16,7.18-4.59.29-3.25-1.67-5.28-5.81-5.64l-7.1-.63Z"/><path class="cls-16" d="M965.58,1862.87l10.91,1c8.58.76,13.88,7.12,13.08,16.22s-7,15.09-15.9,14.31l-10.78-.95Zm1.66,27.46,6.41.56c7.19.64,11.06-4.21,11.67-11.12.53-6-2.1-11.88-9.57-12.54l-6.43-.56Z"/><path class="cls-16" d="M997.13,1887.86c.51,3.73,2.84,5.93,7.27,6.32,4.76.42,6.84-1.65,7.1-4.53.27-3.07-1.09-4.92-7.08-6.93-7-2.39-9.32-5.07-8.95-9.36.4-4.54,4.07-7.94,10.89-7.34,7.27.64,9.9,5.1,9.95,9.15l-4.12-.36c-.31-2.77-1.81-5.15-6.26-5.54-3.72-.33-6,1.17-6.21,4.08s1.37,4.15,6.6,5.91c8.53,2.89,9.77,6.41,9.42,10.33-.43,4.92-4.42,8.46-11.88,7.81-7.69-.68-10.63-5.17-10.85-9.9Z"/><rect class="cls-17" x="820.4" y="1717.89" width="548.53" height="56.37" transform="translate(157.22 -89.21) rotate(5.03)"/><path class="cls-18" d="M3182.22,2892.41s-7.55,175.46,11.32,239.61,62.54,406.4,24.47,513.17c-19.29,54.09-70.08,89.52-70.08,89.52v25.78l74.27,9.23,103.4-169.81s-34-56.6,0-186.78,52.83-283,28.31-350.92,39.62-254.7,39.62-254.7Z"/><path class="cls-19" d="M3263.39,2979.82s-27.35,36.48-9.74,96.85-28.24,275.51-28.24,275.51l-54.78-402.54Z"/><rect class="cls-20" x="3306.49" y="2400.13" width="766.99" height="490.54" transform="matrix(0.74, -0.67, 0.67, 0.74, -822.2, 3149.68)"/><path class="cls-19" d="M3426.59,2057.62l-40.88,168.7,32.63,38.85s42.9-89.9,36.58-156.15Z"/><polygon class="cls-21" points="2316.22 2045.34 2218.49 1955.98 2664.5 1870.31 2765.62 1953.4 2316.22 2045.34"/><polygon class="cls-15" points="1961.9 2262.88 2218.49 1955.98 2316.22 2045.34 2053.72 2363.51 1961.9 2262.88"/><path class="cls-22" d="M2311.16,1938.18s228.11-166.46,249.47-166.46,55.88,107.81,55.88,107.81l-33,6.33-26.93-104.08-196.89,147.07Z"/><path class="cls-12" d="M2375.23,2033.27s135-238,155.17-247.13c0,0,78.84-44.4,98.12-17.57s84.56,195.58,84.56,195.58l-27.54,12.59s-46.43-234-132.22-189l-143.65,238.51Z"/><polygon class="cls-23" points="2765.62 1953.4 2514.07 2279 2053.72 2363.51 2316.22 2045.34 2765.62 1953.4"/><path class="cls-24" d="M3291,1476.76s-88.88,16.78-96.43,126.62c0,0-9.22,50.31-57,67.08,0,0-9.22,14.26,34.38,31.87,0,0-31,83,41.94,102.3,93.05,24.59,110.67,14.25,111.51,70.43s-27.67,99.79-27.67,99.79-271.68,26.83-363.08-5c0,0-83.44-66.66-154.5-101.25s-122.64-93.08-122.64-93.08-25.57-71.07-80.91-77.77c0,0-8-11.32-62.05,26.83,0,0-27.68,14.25-12.58,73,0,0,6.29,15.51,21-5.45s52,12.16,94.33,6.29c0,0,12.58,5.32,39.42,51.57,63.72,109.85,210.26,221.16,238.56,231.85s206.9,24.53,206.9,24.53,179.24,185.52,282.38,191.81c0,0,76.72-172.32,50.31-317S3465,1676.75,3465,1676.75Z"/><path class="cls-19" d="M2585,1796.55a16.33,16.33,0,0,0-9.68-11.56c-14.64-6-46-16.79-62-5.94-21.32,14.47-5.8,23.9-5.8,23.9s15.46-13.1,26.44-17.69c0,0,9.53-1.43,51,11.29Z"/><path class="cls-19" d="M3257.32,1490.83s19.6,5.43,28.4,61.4,140.87,130.18,140.87,130.18-122.75-212.09-125.3-212.09C3294.37,1470.31,3257.32,1490.83,3257.32,1490.83Z"/><path class="cls-9" d="M3342.32,1591.85s35.69,48.43,17.53,91.82c0,0,31.45-35.85,40.92-52.2S3342.32,1591.85,3342.32,1591.85Z"/><path class="cls-19" d="M3423.91,1690.54a311.77,311.77,0,0,1-27.5,45.33c-16.36,22-14.42,115.09-41.17,139,0,0,2.17,17.6,62.55-20.13S3423.91,1690.54,3423.91,1690.54Z"/><circle class="cls-19" cx="3395.29" cy="1766.44" r="52.53"/><circle class="cls-16" cx="3400.77" cy="1758.21" r="52.53"/><path class="cls-25" d="M3417.51,1708.53s-58.13,50.35-14.41,102.21C3403.1,1810.74,3436.86,1724.39,3417.51,1708.53Z"/><path class="cls-19" d="M3439.54,2346.34s-82,105.57-52.82,146.26L3300.81,2510l55-69.95S3422.3,2355,3439.54,2346.34Z"/><path class="cls-10" d="M3250.32,1495.39s16-58.61,30.58,0c32.7,131.47,166.72,156.73,139.4,207.78-38.36,71.69-9.79,85.25-20.12,131.44-9.15,40.89-49,64.92-49,64.92s42.34,4.09,104.39-35.32,169.17-12.62,169.17-12.62,22.64-540.85-317-454.07C3307.73,1397.52,3220.57,1410.88,3250.32,1495.39Z"/><path class="cls-26" d="M3315.06,3737.13c0,17.31.08,34.62-.07,51.92,0,3.56.46,5,4.09,4.92,9.54-.26,9.47,0,9.58-10.74.27-25.15.81-50.3.87-75.45,0-20.75,6.29-39.87,11.42-59.34,5.59-21.19,5.78-42.27-1.93-63a99.24,99.24,0,0,0-24.73-37.43c-1.69-1.63-2.74-2-4.4.24-7.15,9.56-14.16,19.23-20.55,29.46-6.21,9.92-10.42,20.79-13.76,32.31-10.31,35.53-22.75,70.06-39.36,102.55a189.9,189.9,0,0,1-12.58,20.52c-5.75,8.41-13.36,12.08-22.47,12.77a137.31,137.31,0,0,1-30.72-1.2c-6.62-1-12.55-4.11-17.91-8.55-1.4-1.17-2.61-2.11-4.61-1.42-18.25,6.25-36.63,12.07-53.82,21.61a48.35,48.35,0,0,0-7.66,5.21c-4.28,3.61-4.47,6.83-.79,11.21,4,4.71,9.18,6.93,14.5,8.82,17,6,34.6,7.78,52.21,9.3,23.89,2.08,47.85,2.28,71.79,3.1,6.54.23,11.57-2.36,16-7.48,9.32-10.88,15.46-24.11,21.75-37.19,10.15-21.12,19.14-42.94,30.59-63.26,1.45-2.56,3-5.1,4.53-7.56a9.9,9.9,0,0,1,11.74-4.3c4.37,1.59,6.33,4.85,6.33,10.57Q3315.06,3710.93,3315.06,3737.13Z"/><path class="cls-24" d="M3052.09,2892.41s-7.55,175.46,11.32,239.61,75.07,415.08,34,520.72c-25.79,66.24-70.81,87.58-70.81,87.58l7.71,29.4h74.42l96.85-174.84s-44-51.57-10.07-181.75,52.83-283,28.3-350.92,39.62-254.7,39.62-254.7Z"/><path class="cls-16" d="M3189.07,3741.33c0,17.3.09,34.61-.06,51.91,0,3.56.46,5,4.09,4.93,9.53-.26,9.46,0,9.58-10.74.27-25.16.81-50.3.87-75.46,0-20.75,6.28-39.87,11.42-59.34,5.59-21.19,5.77-42.27-1.93-63a99.36,99.36,0,0,0-24.73-37.43c-1.7-1.62-2.75-2-4.41.24-7.14,9.57-14.15,19.23-20.55,29.46-6.2,9.93-10.41,20.79-13.75,32.31-10.31,35.53-22.76,70.06-39.36,102.55a189.5,189.5,0,0,1-12.59,20.53c-5.75,8.4-13.36,12.07-22.46,12.76a136.83,136.83,0,0,1-30.73-1.2c-6.61-1-12.54-4.11-17.9-8.55-1.41-1.17-2.61-2.11-4.62-1.42-18.24,6.25-36.63,12.07-53.82,21.61a48.79,48.79,0,0,0-7.65,5.22c-4.29,3.6-4.47,6.82-.79,11.21,4,4.7,9.17,6.92,14.49,8.81,17,6,34.61,7.78,52.22,9.31,23.89,2.07,47.85,2.27,71.78,3.1,6.54.22,11.58-2.37,16-7.48,9.31-10.89,15.46-24.11,21.75-37.2,10.15-21.12,19.13-42.94,30.59-63.25,1.45-2.57,3-5.1,4.53-7.57a9.89,9.89,0,0,1,11.73-4.3c4.37,1.59,6.34,4.85,6.34,10.57Z"/><rect class="cls-27" x="3290.59" y="2492.02" width="766.99" height="490.54" transform="matrix(0.74, -0.67, 0.67, 0.74, -887.79, 3162.66)"/><path class="cls-28" d="M3477.32,2584.43s30.51,198.42,28.76,327.47c-.42,31-9.08,95.8-26,101-37.3,11.53-76.61-3.13-76.61-3.13l-54.22-60.18,77.68-319.78Z"/><polygon class="cls-12" points="3810.75 2206.49 3794.85 2298.38 4123.18 2662.84 4139.07 2570.95 3810.75 2206.49"/><path class="cls-10" d="M3602.32,2394.26,3454.47,2326s3.21,9.13-4.79,12.53l139,68Z"/><polygon class="cls-10" points="3482.09 2449.2 3500.97 2485.56 3486.52 2498.57 3467.76 2459.11 3482.09 2449.2"/><polygon class="cls-10" points="3572.63 2498.57 3451.76 2337.09 3439.54 2346.34 3556.3 2513.28 3572.63 2498.57"/><polygon class="cls-10" points="3433.36 2350.75 3467.76 2593.04 3449.68 2609.33 3417.65 2366.26 3433.36 2350.75"/><path class="cls-16" d="M3102.08,2106.29s-17.4,53.87-4.82,114.25,8.39,126.62-43.6,262.46-148.42,393.27-145.91,431c0,0,69.6,1.68,104.82,47s438.55,17.61,438.55,17.61,46.12-405-73.79-493.9c0,0-76.71-91.66,24.32-231.56,0,0-42.35,19.21-138.57-40.54S3144.22,2122,3102.08,2106.29Z"/><path class="cls-19" d="M3241.07,2193.7c-48.64-29.76-38.38-53.37-38.38-53.37h0a19.19,19.19,0,0,0-16.35-27.32c-46.14-2.37-84.26-6.72-84.26-6.72C3216.33,2228.92,3355.24,2253,3355.24,2253S3289.7,2223.47,3241.07,2193.7Z"/><path class="cls-29" d="M3297.67,1974.85s126.57,7.8,11.72,265.52"/><path class="cls-30" d="M3183.77,2182.4s133.2,83.58,217.88,70.71c0,0-105.74,122-14.93,239.49s72.92,340.08,72.92,340.08l-8.52,145.89-187.73,7.89s-23.46-223.08,0-464.47C3278.8,2363.51,3183.77,2182.4,3183.77,2182.4Z"/><path class="cls-30" d="M2926.36,2916s77-87.93,92.08-178.71-5.87,223.67-5.87,223.67S2972.64,2915.06,2926.36,2916Z"/><polygon class="cls-22" points="2500.85 1805.36 2525.89 1789.85 2502.74 1820.97 2500.85 1805.36"/><path class="cls-31" d="M2021,2192.21s21.8,79.81,108.2,95.2c60,10.69,228.67-15.66,455.86-100.28v311.44H1705.69V2130Z"/><path class="cls-32" d="M2063.75,2151.2s21.79,79.8,108.2,95.19c60,10.69,274.38-27,501.58-111.58v322.75H1906L1876.37,2112Z"/><circle class="cls-16" cx="2797.44" cy="1407.07" r="175.2"/><circle class="cls-16" cx="1530.07" cy="2480.04" r="299.1"/><path class="cls-1" d="M1499.36,2411.53c0,45.92-26.6,77.77-72.6,77.77-43.5,0-72.3-26.58-72.3-77.67,0-43.26,25.57-77.05,72.76-77.05C1469.54,2334.58,1499.36,2360.87,1499.36,2411.53Zm-99.73,0c0,26.58,9.76,41,27.69,41,17.73,0,27.94-12.84,27.94-41,0-29.19-11.29-40.18-28.09-40.18S1399.63,2384.25,1399.63,2411.53Zm26.51,196.36,165-268.77H1634l-165.26,268.77Zm279.55-72.47c0,45.87-26.55,77.77-72.6,77.77-43.59,0-72.3-26.82-72.3-77.67,0-43.26,25.52-77.05,72.76-77.05C1676,2458.47,1705.69,2484.76,1705.69,2535.42Zm-99.72,0c0,26.53,9.75,41,27.68,41,17.73,0,27.94-12.84,27.94-41,0-29.14-11.29-40.18-28.09-40.18S1606,2508.34,1606,2535.42Z"/><path class="cls-12" d="M1469.41,1994.66a40.73,40.73,0,0,1-35,45.78l-462.92,62.11a40.73,40.73,0,0,1-45.79-35l-30.12-224.52a40.73,40.73,0,0,1,35-45.79l462.92-62.11a40.74,40.74,0,0,1,45.79,35Z"/><path class="cls-33" d="M1431.16,1974.52a38.35,38.35,0,1,1-43.11-32.92A38.37,38.37,0,0,1,1431.16,1974.52Z"/><path class="cls-34" d="M1371.13,1982.57a38.35,38.35,0,1,1-43.11-32.91A38.35,38.35,0,0,1,1371.13,1982.57Z"/><path class="cls-1" d="M1013.74,2027.42c-.66,5.34-4,9.69-10.89,10.61-9.08,1.22-14.59-5.06-15.74-13.64-1.11-8.26,2.47-16.34,11.71-17.58,7.16-1,11.6,2.61,13.18,7.56l-4,.55c-1.53-3.17-4.05-5.37-8.86-4.72-6.7.9-8.63,7.35-7.8,13.5.8,6,4.24,11.89,11.26,11,4.68-.63,6.38-3.58,7.13-6.69Z"/><path class="cls-1" d="M1023.6,2025.58l-2,9.56-4,.54,6.75-31.84,5-.66,15.36,28.87-4.29.57-4.6-8.66Zm10.63-4.93c-4-7.6-6.13-11.63-7.1-13.86h0c-.4,2.67-1.49,8-2.91,15.19Z"/><path class="cls-1" d="M1051.62,2017.48l1.8,13.38-4,.54-4.08-30.38,11.87-1.6c6.25-.83,10,2.11,10.66,6.85a7,7,0,0,1-4.22,7.83c2.57.34,5,1.9,5.69,7.18l.17,1.3c.28,2.1.54,4.76,1.21,6l-3.91.53c-.73-1.24-1-3.61-1.39-6.46l-.09-.65c-.58-4.33-2.06-6-7.5-5.31Zm-.45-3.39,6.6-.89c4.65-.62,6.45-2.64,6-6-.44-3.23-2.79-4.78-6.91-4.23l-7.07.95Z"/><path class="cls-1" d="M1073.62,1997.22l10.85-1.45c8.55-1.15,15.11,3.89,16.32,13s-3.55,16.26-12.37,17.45l-10.72,1.44Zm7.64,26.43,6.38-.86c7.15-1,9.86-6.54,8.94-13.41-.8-6-4.65-11.13-12.08-10.13l-6.39.86Z"/><path class="cls-1" d="M1109.88,2014.68c1.32,3.53,4.08,5.17,8.48,4.58,4.74-.64,6.31-3.12,5.93-6-.41-3.06-2.14-4.56-8.42-5.22-7.4-.78-10.21-2.89-10.78-7.17-.61-4.51,2.23-8.64,9-9.54,7.24-1,10.78,2.81,11.73,6.74l-4.11.55c-.9-2.63-2.89-4.62-7.32-4-3.7.5-5.55,2.45-5.17,5.35s2.25,3.74,7.74,4.31c9,1,10.94,4.12,11.46,8,.66,4.9-2.46,9.23-9.88,10.22-7.65,1-11.5-2.71-12.75-7.28Z"/><path class="cls-1" d="M999.12,1962.65c1,7.12,0,15.36-8,16.44-7.85,1.05-11-6.11-12-13.55s.37-15.2,8.16-16.24S998.13,1955.3,999.12,1962.65Zm-16,2.35c.74,5.47,2.52,11.51,7.57,10.84s5.2-6.67,4.4-12.63c-.74-5.54-2.49-11.33-7.4-10.67S982.27,1958.68,983.11,1965Z"/><path class="cls-1" d="M1023.72,1959.35c1,7.12,0,15.36-8,16.44-7.86,1-11-6.11-12-13.55s.37-15.2,8.17-16.25S1022.73,1952,1023.72,1959.35Zm-16,2.35c.74,5.47,2.52,11.51,7.57,10.84s5.2-6.67,4.4-12.63c-.74-5.54-2.49-11.33-7.4-10.67S1006.87,1955.38,1007.71,1961.7Z"/><path class="cls-1" d="M1048.32,1956.05c1,7.12,0,15.36-8,16.44-7.86,1-11-6.11-12-13.55s.37-15.2,8.17-16.25S1047.33,1948.7,1048.32,1956.05Zm-16,2.35c.74,5.47,2.52,11.51,7.57,10.84s5.2-6.67,4.4-12.63c-.74-5.54-2.49-11.33-7.4-10.67S1031.47,1952.08,1032.31,1958.4Z"/><path class="cls-1" d="M1083.8,1951.29c1,7.12,0,15.36-8,16.44-7.85,1-11-6.12-12-13.55s.37-15.2,8.17-16.25S1082.81,1943.94,1083.8,1951.29Zm-16,2.35c.73,5.47,2.51,11.51,7.56,10.84s5.2-6.67,4.4-12.63c-.74-5.54-2.49-11.33-7.39-10.67S1067,1947.32,1067.8,1953.64Z"/><path class="cls-1" d="M1108.4,1948c.95,7.12,0,15.36-8,16.44-7.85,1-11-6.12-12-13.55s.37-15.2,8.17-16.25S1107.41,1940.63,1108.4,1948Zm-16,2.35c.73,5.47,2.51,11.51,7.56,10.84s5.2-6.68,4.4-12.64c-.74-5.53-2.49-11.32-7.39-10.66S1091.55,1944,1092.4,1950.34Z"/><path class="cls-1" d="M1133,1944.69c1,7.12,0,15.36-8,16.44-7.85,1-11-6.12-12-13.55s.37-15.2,8.17-16.25S1132,1937.33,1133,1944.69Zm-16,2.35c.73,5.47,2.51,11.51,7.56,10.84s5.2-6.68,4.4-12.64c-.74-5.53-2.49-11.32-7.39-10.66S1116.15,1940.72,1117,1947Z"/><path class="cls-1" d="M1168.48,1939.93c1,7.12,0,15.36-8,16.44-7.85,1.05-11-6.12-12-13.55s.38-15.2,8.17-16.25S1167.5,1932.57,1168.48,1939.93Zm-16,2.35c.73,5.47,2.51,11.51,7.56,10.83s5.2-6.67,4.4-12.63c-.74-5.53-2.48-11.32-7.39-10.66S1151.63,1936,1152.48,1942.28Z"/><path class="cls-1" d="M1193.08,1936.63c1,7.12,0,15.36-8,16.44-7.85,1-11-6.12-12-13.55s.38-15.2,8.17-16.25S1192.1,1929.27,1193.08,1936.63Zm-16,2.35c.73,5.47,2.51,11.51,7.56,10.83s5.2-6.67,4.4-12.63c-.74-5.53-2.48-11.32-7.39-10.66S1176.23,1932.66,1177.08,1939Z"/><path class="cls-1" d="M1217.68,1933.33c1,7.12,0,15.36-8,16.44-7.85,1-11-6.12-12-13.55s.37-15.2,8.16-16.25S1216.7,1926,1217.68,1933.33Zm-16,2.35c.73,5.47,2.51,11.51,7.56,10.83s5.2-6.67,4.41-12.63c-.75-5.53-2.49-11.32-7.4-10.66S1200.83,1929.36,1201.68,1935.68Z"/><path class="cls-1" d="M1253.16,1928.57c.95,7.12,0,15.36-8,16.44-7.86,1-11-6.12-12-13.55s.37-15.2,8.17-16.25S1252.17,1921.21,1253.16,1928.57Zm-16,2.35c.74,5.47,2.52,11.51,7.57,10.83s5.2-6.67,4.4-12.63c-.74-5.53-2.49-11.32-7.4-10.66S1236.31,1924.6,1237.15,1930.92Z"/><path class="cls-1" d="M1277.76,1925.27c1,7.12,0,15.36-8,16.44-7.86,1-11-6.12-12-13.55s.37-15.2,8.17-16.25S1276.77,1917.91,1277.76,1925.27Zm-16,2.35c.74,5.47,2.52,11.51,7.57,10.83s5.2-6.67,4.4-12.63c-.74-5.53-2.49-11.32-7.4-10.66S1260.91,1921.3,1261.75,1927.62Z"/><path class="cls-1" d="M1302.36,1922c1,7.12,0,15.36-8,16.44-7.85,1-11-6.12-12-13.55s.37-15.2,8.17-16.25S1301.37,1914.61,1302.36,1922Zm-16,2.35c.74,5.47,2.52,11.51,7.57,10.83s5.2-6.67,4.4-12.63c-.74-5.53-2.49-11.32-7.4-10.66S1285.51,1918,1286.35,1924.32Z"/><path class="cls-1" d="M1337.84,1917.21c1,7.12,0,15.36-8,16.44-7.85,1-11-6.12-12-13.55s.37-15.2,8.17-16.25S1336.85,1909.85,1337.84,1917.21Zm-16,2.35c.73,5.47,2.51,11.51,7.56,10.83s5.2-6.67,4.4-12.63c-.74-5.53-2.49-11.32-7.39-10.66S1321,1913.24,1321.84,1919.56Z"/><path class="cls-1" d="M1362.44,1913.91c1,7.11,0,15.36-8,16.44-7.85,1.05-11-6.12-12-13.55s.37-15.2,8.17-16.25S1361.45,1906.55,1362.44,1913.91Zm-16,2.35c.73,5.46,2.51,11.51,7.56,10.83s5.2-6.67,4.4-12.63c-.74-5.53-2.49-11.32-7.39-10.66S1345.59,1909.94,1346.44,1916.26Z"/><rect class="cls-33" x="897.6" y="1826.92" width="548.53" height="25.01" transform="matrix(0.99, -0.13, 0.13, 0.99, -234.18, 172.16)"/><polygon class="cls-35" points="3937.93 3109.51 4376.07 3149.63 4376.07 3109.51 3937.93 3109.51"/><polygon class="cls-36" points="2673.53 2458.47 2189.21 2934.75 2673.53 2934.75 2673.53 2458.47"/><path class="cls-1" d="M2715.44,1464.85c4.16,5,9.47,5.37,16,2s7.94-7.3,5.83-11.4c-2.34-4.57-6.06-5.16-16.8-2.48-17.1,4.25-23.73.63-27.61-6.94-5-9.78-1.11-20.17,12.17-27,14.9-7.64,24.94-2.67,30,5.12l-12.22,6.27c-2.36-3.16-6.19-5.92-13.42-2.22-4.92,2.53-6.85,6.09-4.81,10.07s5.19,4.26,15.34,1.71c18.28-4.52,25-.29,29,7.62,5.25,10.25,1.11,21.25-13.72,28.85-14.24,7.31-25.33,4.14-31.92-5.4Z"/><path class="cls-1" d="M2771.67,1440.41l2.27,15.2-11.92,6.11-9.72-65.86,15.23-7.82,48.64,45.91-12.75,6.54-11.25-10.6Zm12.79-19.12c-10.06-9.79-16.48-16.06-20.41-20.4l-.09,0c1.46,6.24,3.17,16.48,5.16,28.23Z"/><path class="cls-1" d="M2794.6,1374.16l12.13-6.22,23.67,46.15,27.95-14.33,3.71,10.65-38.69,19.84Z"/><path class="cls-1" d="M2896.83,1362,2870,1375.78l7.31,14.25,29.59-15.18,3.66,10.68L2870.64,1406l-28.77-56.1,39.78-20.4,5.1,9.94-28,14.37,6.17,12,26.82-13.76Z"/></g></g></svg>