<svg xmlns="http://www.w3.org/2000/svg" viewBox="0 0 5000 5000"><defs><style>.cls-1{isolation:isolate;}.cls-16,.cls-2{fill:#fff;}.cls-3{fill:#eaf2f9;}.cls-4{fill:#fac2ae;}.cls-5{fill:#7badc9;}.cls-6{mix-blend-mode:multiply;}.cls-7{fill:#22396b;}.cls-8{fill:#d8e4ef;}.cls-9{fill:#c7d5e0;}.cls-10{fill:#d8d8d8;}.cls-11{fill:#91a2c6;}.cls-12{font-size:78.34px;}.cls-12,.cls-20{fill:#9b9b9b;}.cls-12,.cls-16{font-family:Montserrat-Regular, Montserrat;}.cls-13{fill:#405284;}.cls-14{fill:#14234c;}.cls-15{fill:#f26876;}.cls-16{font-size:34.02px;}.cls-17{letter-spacing:0em;}.cls-18{letter-spacing:-0.01em;}.cls-19{fill:#bcd2e2;}.cls-21{fill:#0f1a42;}.cls-22{fill:none;}.cls-23{fill:#33437c;}.cls-24{fill:#1d2956;}.cls-25{fill:#091644;}.cls-26{fill:#1c2854;}.cls-27{fill:#f1a080;}.cls-28{fill:#182651;}.cls-29{fill:#232f63;}.cls-30{fill:#a3c4e8;}.cls-31{fill:#88acd3;}.cls-32{fill:#6e9bc4;}.cls-33{fill:#c5e1f9;}.cls-34{fill:#111d49;opacity:0.49;}.cls-35{fill:#231f20;}.cls-36{fill:#485068;}.cls-37{fill:#2f3a54;}.cls-38{fill:#c64a62;}.cls-39{fill:#a53248;}.cls-40{fill:#d35467;}.cls-41{fill:#5787aa;}.cls-42{fill:#7ea4ce;}.cls-43{fill:#6f9fbc;}.cls-44{fill:#4e7a9b;}.cls-45{fill:#285972;}.cls-46{fill:#8db0dc;}.cls-47{fill:#6590b7;}.cls-48{fill:#111d44;}.cls-49{fill:#131e42;}.cls-50{fill:#6fa4bc;}.cls-51{fill:#4c8a9b;}.cls-52{fill:#619aaf;}.cls-53{fill:#58595b;}.cls-54{fill:#080f28;}.cls-55{fill:#0a1a49;}</style></defs><title>Asset 10</title><g class="cls-1"><g id="Layer_2" data-name="Layer 2"><g id="Layer_1-2" data-name="Layer 1"><rect class="cls-2" width="5000" height="5000"/><path class="cls-3" d="M2571.61,3444.25c-602.87,0-1091.59,139.29-1091.59,311.11v.83c.38,41.73-32.91,75.93-74.65,75.27q-28.57-.45-57.66-.46C879.53,3831,500,3919.82,500,4029.37s379.53,198.37,847.71,198.37c403.6,0,741.26-66,826.75-154.39a73.25,73.25,0,0,1,59.42-22.06c106.35,9.85,219.85,15.18,337.73,15.18,602.86,0,1091.58-139.29,1091.58-311.11S3174.47,3444.25,2571.61,3444.25Z"/><polygon class="cls-4" points="3105.73 3404.5 3105.73 3533.9 3013.47 3537.65 3000.72 3396.38 3105.73 3404.5"/><polygon class="cls-4" points="3165.12 3396.38 3154.49 3512.02 3231.89 3505.14 3237.63 3376.49 3165.12 3396.38"/><path class="cls-3" d="M1238.33,3364.47h2903.6s426.43-1326-36.44-1603.89c-413.78-248.38-262.27-984.33-844.41-899.28s-617.76,334-1203.28,282C1187.33,1066.07,652.36,1750.06,1160.6,2695,1289,2933.76,1299.1,3175.84,1238.33,3364.47Z"/><rect class="cls-5" x="784.24" y="3359.29" width="3715.76" height="17.34"/><g class="cls-6"><path class="cls-7" d="M4152.43,886.93V2607.58H1845.81V899.68A87.71,87.71,0,0,1,1933.53,812H4077.42A75,75,0,0,1,4152.43,886.93Z"/></g><path class="cls-8" d="M4124.07,847.21V2567.86H1817.45V860a87.71,87.71,0,0,1,87.71-87.71H4049.05A75,75,0,0,1,4124.07,847.21Z"/><path class="cls-2" d="M2045.6,772.26H1892.4a75,75,0,0,0-75,75V2567.86H2045.6Z"/><path class="cls-9" d="M4124.07,860.21v144.47H1817.45V860.21a75,75,0,0,1,75-75H4049.05A75,75,0,0,1,4124.07,860.21Z"/><path class="cls-2" d="M4124.07,847.21V991.68H1817.45V847.21a75,75,0,0,1,75-75H4049.05A75,75,0,0,1,4124.07,847.21Z"/><circle class="cls-8" cx="3924.76" cy="881.97" r="56.7"/><path class="cls-8" d="M3765.21,894.09V870.48A31.53,31.53,0,0,0,3733.7,839h-.06a31.53,31.53,0,0,0-31.5,31.5v23.61h0l-11,15.92h27.57a14.95,14.95,0,1,0,29.9,0h27.58Z"/><path class="cls-8" d="M3613.89,873h-7.23a32.83,32.83,0,0,0-2.94-7.13l5.1-5.1a3.46,3.46,0,0,0,0-4.89L3601,848a3.46,3.46,0,0,0-4.89,0l-5.1,5.1a32.86,32.86,0,0,0-7.13-3V842.9a3.46,3.46,0,0,0-3.46-3.46h-11.12a3.46,3.46,0,0,0-3.46,3.46v7.22a32.86,32.86,0,0,0-7.13,3l-5.1-5.1a3.46,3.46,0,0,0-4.89,0l-7.86,7.86a3.46,3.46,0,0,0,0,4.89l5.1,5.1A32.83,32.83,0,0,0,3543,873h-7.23a3.45,3.45,0,0,0-3.45,3.46v11.12a3.44,3.44,0,0,0,3.45,3.45H3543a32.91,32.91,0,0,0,2.94,7.14l-5.1,5.1a3.45,3.45,0,0,0,0,4.88l7.86,7.87a3.46,3.46,0,0,0,4.89,0l5.1-5.1a32.83,32.83,0,0,0,7.13,2.94V921a3.46,3.46,0,0,0,3.46,3.46h11.12a3.46,3.46,0,0,0,3.46-3.46v-7.22a32.83,32.83,0,0,0,7.13-2.94l5.1,5.1a3.46,3.46,0,0,0,4.89,0l7.86-7.87a3.45,3.45,0,0,0,0-4.88l-5.1-5.1a32.91,32.91,0,0,0,2.94-7.14h7.23a3.44,3.44,0,0,0,3.45-3.45V876.41A3.45,3.45,0,0,0,3613.89,873Zm-39.07,26.45A17.43,17.43,0,1,1,3592.25,882,17.43,17.43,0,0,1,3574.82,899.4Z"/><polygon class="cls-8" points="1924.38 899.08 1902.93 877.63 1890.22 890.34 1924.38 924.49 1958.53 890.34 1945.82 877.63 1924.38 899.08"/><polygon class="cls-8" points="1958.53 852.15 1945.82 839.45 1924.38 860.89 1902.93 839.45 1890.22 852.15 1924.38 886.3 1958.53 852.15"/><rect class="cls-2" x="3922.67" y="1069.64" width="122.01" height="122.01"/><path class="cls-10" d="M3962.59,1130.64a9.89,9.89,0,1,1-9.88-9.88A9.88,9.88,0,0,1,3962.59,1130.64Z"/><path class="cls-10" d="M3993.57,1130.64a9.89,9.89,0,1,1-9.89-9.88A9.89,9.89,0,0,1,3993.57,1130.64Z"/><path class="cls-10" d="M4024.54,1130.64a9.89,9.89,0,1,1-9.89-9.88A9.89,9.89,0,0,1,4024.54,1130.64Z"/><rect class="cls-2" x="2119.62" y="1069.64" width="122.01" height="122.01"/><polygon class="cls-10" points="2217.98 1120.76 2178.56 1120.76 2190.12 1109.2 2177.41 1096.49 2153.14 1120.76 2153.03 1120.76 2153.03 1120.87 2143.26 1130.64 2153.03 1140.41 2153.03 1140.53 2153.14 1140.53 2177.41 1164.79 2190.12 1152.09 2178.56 1140.53 2217.98 1140.53 2217.98 1120.76"/><rect class="cls-11" x="2305.62" y="1096.49" width="391.72" height="54.99"/><path class="cls-11" d="M2700.07,1154.21H2302.9v-60.45h397.17Zm-391.72-5.45h386.27v-49.54H2308.35Z"/><rect class="cls-2" x="2119.62" y="1255.32" width="657.38" height="632.18"/><rect class="cls-2" x="2119.62" y="1961.28" width="946.54" height="526.54"/><rect class="cls-2" x="3142.69" y="1961.28" width="902" height="526.54"/><text class="cls-12" transform="translate(3714.29 2224.77)">42%</text><path class="cls-10" d="M3800.78,2040.58c-101.6,0-184,82.38-184,184s82.39,184,184,184a184,184,0,0,0,184-184C3984.76,2123,3902.38,2040.58,3800.78,2040.58ZM3900.62,2338a151.12,151.12,0,1,1,51.2-113.39A150.59,150.59,0,0,1,3900.62,2338Z"/><path class="cls-13" d="M3984.76,2224.56a183.47,183.47,0,0,1-60.84,136.7l-23.3-23.31a151.12,151.12,0,0,0-99.84-264.49v-32.88C3902.38,2040.58,3984.76,2123,3984.76,2224.56Z"/><text class="cls-12" transform="translate(3300.12 2224.77)">76%</text><path class="cls-10" d="M3482.71,2067.68a183.06,183.06,0,0,0-96.11-27.1c-101.6,0-184,82.38-184,184a184,184,0,0,0,184,184c101.6,0,184-82.38,184-184A183.82,183.82,0,0,0,3482.71,2067.68Zm-96.11,308a151.12,151.12,0,1,1,151.1-151.1A151.08,151.08,0,0,1,3386.6,2375.66Z"/><path class="cls-14" d="M3570.59,2224.56c0,101.6-82.39,184-184,184a183.73,183.73,0,0,1-156.88-87.88l24-24a151.12,151.12,0,1,0,204.91-204.9l24-24A183.82,183.82,0,0,1,3570.59,2224.56Z"/><path class="cls-15" d="M2257.74,2359.4h-53.9V2026.48h53.9Zm103.45-222.52H2307.3V2359.4h53.89Zm103.46,100.64h-53.9V2359.4h53.9Zm103.45-160.17h-53.89V2359.4h53.89Zm103.46,93.55h-53.9v188.5h53.9ZM2775,2108.53h-53.89V2359.4H2775Zm103.46-82.05h-53.9V2359.4h53.9Zm103.45,38.11H2928V2359.4h53.89Z"/><rect class="cls-2" x="2850.26" y="1255.32" width="1194.43" height="632.18"/><text class="cls-16" transform="translate(3742.07 1362.56)">More i<tspan class="cls-17" x="108.79" y="0">n</tspan><tspan class="cls-18" x="130.59" y="0">f</tspan><tspan x="143.28" y="0">o</tspan></text><rect class="cls-15" x="3742.07" y="1323.8" width="242.69" height="77.51"/><rect class="cls-13" x="2904.39" y="1480.41" width="1086.18" height="5.67"/><rect class="cls-19" x="3469.85" y="1529.59" width="520.71" height="22.19"/><rect class="cls-19" x="3469.85" y="1597.62" width="520.71" height="22.19"/><rect class="cls-20" x="3469.85" y="1665.66" width="520.71" height="22.19"/><rect class="cls-19" x="3469.85" y="1665.66" width="79.12" height="22.19"/><rect class="cls-20" x="3469.85" y="1733.7" width="520.71" height="22.19"/><rect class="cls-19" x="3469.85" y="1733.7" width="308.63" height="22.19"/><rect class="cls-20" x="3469.85" y="1801.73" width="520.71" height="22.19"/><rect class="cls-19" x="3469.85" y="1801.73" width="417.89" height="22.19"/><rect class="cls-10" x="2176.14" y="1402.65" width="544.33" height="5.67"/><rect class="cls-10" x="2176.14" y="1821.09" width="544.33" height="5.67"/><rect class="cls-10" x="2176.14" y="1379.18" width="544.33" height="5.67"/><rect class="cls-10" x="2176.14" y="1355.71" width="544.33" height="5.67"/><rect class="cls-10" x="2176.14" y="1332.24" width="544.33" height="5.67"/><rect class="cls-10" x="2176.14" y="1308.77" width="544.33" height="5.67"/><path class="cls-13" d="M2589.51,1683.49H2589a23.92,23.92,0,0,1-22.75-17.24l-33.79-111.51a7.55,7.55,0,0,0-7-5.48,7.64,7.64,0,0,0-7.56,4.62,24,24,0,0,1-22.24,14.54h0a24,24,0,0,1-22.24-14.6l-16.69-38.4c-1.88-4.32-5.88-4.43-7.1-4.66a7.61,7.61,0,0,0-7.1,4.64l-24.45,55.76a24.28,24.28,0,0,1-43.63,1.76l-9.15-17a7.58,7.58,0,0,0-6.77-4.07h-.05a7.58,7.58,0,0,0-6.77,4l-38.1,68.43a24.29,24.29,0,0,1-43.47-2.07L2221.5,1511a7.74,7.74,0,0,0-13.83-.72l-17.15,30.13-14.38-8.18,17.15-30.13a24.28,24.28,0,0,1,43.36,2.27l48.63,111.14a7.75,7.75,0,0,0,13.87.67l38.1-68.43a24.29,24.29,0,0,1,42.61.3l9.14,17a7.8,7.8,0,0,0,7.14,4.08,7.68,7.68,0,0,0,6.78-4.64l24.45-55.76a24,24,0,0,1,22.24-14.54h0a24,24,0,0,1,22.23,14.61l16.7,38.39a7.64,7.64,0,0,0,7.09,4.66h0a7.63,7.63,0,0,0,7.1-4.64,24.29,24.29,0,0,1,45.49,2.71l33.79,111.51a7.75,7.75,0,0,0,14.73.3l25.09-72.06a24.28,24.28,0,0,1,46.29,1.31l3.39,11.87a7.75,7.75,0,0,0,14.77.41l18.5-53.53,15.64,5.4-18.5,53.53a24.29,24.29,0,0,1-46.31-1.26l-3.39-11.87a7.75,7.75,0,0,0-14.77-.42l-25.09,72.06A23.9,23.9,0,0,1,2589.51,1683.49Z"/><rect class="cls-10" x="2901.82" y="1350.12" width="544.33" height="5.67"/><rect class="cls-10" x="2901.82" y="1377.93" width="544.33" height="5.67"/><rect class="cls-11" x="2894.71" y="1537.85" width="544.33" height="5.67"/><path class="cls-11" d="M3441.76,1546.24H2892v-11.12h549.78Zm-544.32-5.45h538.87v-.21H2897.44Z"/><rect class="cls-11" x="2894.71" y="1605.89" width="544.33" height="5.67"/><path class="cls-11" d="M3441.76,1614.28H2892v-11.12h549.78Zm-544.32-5.45h538.87v-.22H2897.44Z"/><rect class="cls-11" x="2894.71" y="1673.92" width="544.33" height="5.67"/><path class="cls-11" d="M3441.76,1682.32H2892V1671.2h549.78Zm-544.32-5.45h538.87v-.22H2897.44Z"/><rect class="cls-11" x="2894.71" y="1741.96" width="544.33" height="5.67"/><path class="cls-11" d="M3441.76,1750.35H2892v-11.12h549.78Zm-544.32-5.45h538.87v-.22H2897.44Z"/><rect class="cls-11" x="2894.71" y="1810" width="544.33" height="5.67"/><path class="cls-11" d="M3441.76,1818.39H2892v-11.12h549.78Zm-544.32-5.45h538.87v-.22H2897.44Z"/><path class="cls-21" d="M2440.25,3130.82h-212a32.57,32.57,0,0,1-31.32-23.26l-193-640.3a125.91,125.91,0,0,0-121.28-90.1H1679a60.3,60.3,0,0,0-57.78,77.75l199.14,660.59a60,60,0,0,0,57.78,42.93H2090a32.74,32.74,0,0,1,32.71,32.71v401.57h27.65V3191.14a60.41,60.41,0,0,0-60.36-60.32H1878.09a32.52,32.52,0,0,1-31.32-23.26l-199.14-660.62a32.74,32.74,0,0,1,31.32-42.17h203.73a98.43,98.43,0,0,1,94.82,70.46l193,640.27a60,60,0,0,0,57.78,42.93h212a32.74,32.74,0,0,1,32.71,32.71V3505h27.65V3191.14A60.4,60.4,0,0,0,2440.25,3130.82Z"/><path class="cls-21" d="M2500.61,3485.42v40.27a60.41,60.41,0,0,1-60.36,60.35H1816.1v-27.61h624.15a32.76,32.76,0,0,0,32.71-32.74v-40.27Z"/><path class="cls-21" d="M2136.91,3542.73a13.8,13.8,0,0,1,13.8,13.8V3583a60.41,60.41,0,0,1-60.35,60.36H1480a13.81,13.81,0,0,1-13.81-13.81h0a13.81,13.81,0,0,1,13.81-13.81h596.53a46.52,46.52,0,0,0,46.52-46.52v-12.68a13.8,13.8,0,0,1,13.81-13.8Z"/><line class="cls-22" x1="2524.16" y1="3599.8" x2="2500.61" y2="3599.8"/><line class="cls-22" x1="2472.96" y1="3599.8" x2="2457.59" y2="3599.8"/><path class="cls-23" d="M2053.9,2826.16H1783.12a49.58,49.58,0,0,1-47.53-35.36l-91-301.54a31.67,31.67,0,0,1,30.21-40.71h271a49.72,49.72,0,0,1,47.52,35.36l90.82,301.55A31.58,31.58,0,0,1,2053.9,2826.16Z"/><path class="cls-24" d="M2017.06,2826.16H1783.12a49.58,49.58,0,0,1-47.53-35.36l-91-301.54a31.67,31.67,0,0,1,30.21-40.71h233.94a50,50,0,0,1,47.7,35.36l90.82,301.55A31.59,31.59,0,0,1,2017.06,2826.16Z"/><path class="cls-23" d="M1899.82,3012.52h577.41a0,0,0,0,1,0,0v102.54a3.37,3.37,0,0,1-3.37,3.37H1903.19a3.37,3.37,0,0,1-3.37-3.37V3012.52A0,0,0,0,1,1899.82,3012.52Z" transform="translate(4377.05 6130.95) rotate(180)"/><rect class="cls-24" x="1873.9" y="3079.57" width="629.24" height="61.84" rx="1.51" transform="translate(4377.04 6220.97) rotate(180)"/><path class="cls-25" d="M2922.86,1522.59s18.59-55.81,67.54-7.47-27.16,96.24-27.16,96.24Z"/><path class="cls-26" d="M2903.71,2624.36s-31.8-56.78-13.63-100.69-12.87-112.05-12.87-112.05l110.54-108.26,233.93,1.51s141.59,487.71,141.59,537.68-128.55,576.16-128.55,576.16H3123.24s50.53-578.35,80.81-658.6c0,0-80.79-168.31-112.58-226.6l-7.57,252.86Z"/><path class="cls-4" d="M3370.84,1945.79s13.91-27.83,14.48-41.45,24.42-30.67,31.23-32.65,29.53-25.56,27.26-32.65,22.71-7.1,13.06,17-12.5,24.42-12.5,24.42,36.06,4.54,44.58,11.64,68.23,7.47,73.53,3.69,3.41,24.22-11.36,26.87-67.38,2.65-67.38,2.65-50-.37-54.89,11-31,27.64-31,27.64Z"/><polygon class="cls-27" points="3444.37 1880.49 3427.91 1885.31 3454.85 1861.01 3444.37 1880.49"/><path class="cls-27" d="M3382.73,1940.28s17,3.61,40.07-8.88,32-4.35,32-4.35-22.44-1.47-30.84,16.2-29.85,18.24-29.85,18.24Z"/><path class="cls-21" d="M3094.87,2475.59l-3.47,60.19s71.87,161.58,112.65,224.33l-57.32,412.72c108.72-110.21,118.89-327.28,134-405.26S3094.87,2475.59,3094.87,2475.59Z"/><path class="cls-26" d="M2903.71,2624.36s76.34,694.16,78.55,794.35c0,0,47.21,42.33,141,0l-39.34-632.34Z"/><polygon class="cls-2" points="3364.77 1935.79 3372.25 1929.55 3413.7 1960.78 3402.57 1977.46 3352.38 1960.21 3364.77 1935.79"/><path class="cls-4" d="M2094.62,2057.8s42.45,8,62.09,74.82c0,0,13.8,37.68,37.14,37.15,0,0,11.68,10.61-14.85,22.82,0,0,13.07,31.3,17.41,45.63s9.65,46.7-106.56,71.64c0,0-15.39,61.55,11.14,110.9s-105.07,40.33-105.6,35.56,37.68-86,12.21-140.09-98.17-104.54-98.17-104.54S2038.9,2009.51,2094.62,2057.8Z"/><path class="cls-28" d="M2074.46,2141.11s-19.1,34,0,62.09c0,0-43.51-24.41-42.45-49.88S2074.46,2141.11,2074.46,2141.11Z"/><path class="cls-27" d="M2032.93,2176.33s-37,46.5,25.08,64.54c0,0-50.94,41.4-63.68,2.13S2019,2163.78,2032.93,2176.33Z"/><path class="cls-4" d="M2929.2,1533.07s51.43-26.3,85.77,39.37c0,0,22,36.43,44.16,30.9,0,0,13.63,8.61-8.9,27,0,0,19.79,29.92,27.27,44s27.91,42.89-77.41,93.69c0,0-8.2,71.44,28.65,117.35s-91.08,64.51-92.7,59.64,8.38-92.68-14.23-146.08c-24.59-58.09-115.28-94.54-115.28-94.54S2864.68,1494.49,2929.2,1533.07Z"/><path class="cls-27" d="M2873.12,1684.16s-33.75-5.67-18.71,37.54-45-62.44-45-62.44Z"/><path class="cls-27" d="M2870.67,1737.64s51.69-2,57.54,29.79,7.92,84.89,7.92,84.89l-25.4-76.32Z"/><path class="cls-27" d="M2922.62,1540s-27.91,13.38-12.33,52.37c19.19,48-67.14,93.33-67.14,93.33s35.95-175.26,77.07-144.93"/><path class="cls-29" d="M2117.44,2069.48s13.44,52.35-26.89,71.46-93.39,53.06-73.58,78.53-9.37,96.76-9.37,96.76-120.11,12.2-115.15-104.54c0,0-50.24,29-49.53-27.59s36.08-81.37,48.82-60.85,26.18,21.22,26.18-29S2024.6,1976,2085.45,2010,2121,2061,2117.44,2069.48Z"/><path class="cls-30" d="M2108.35,2394.86s74.29,13.26,137.44-4.25,62.61,100.29,69,184.67,29.72,172.46,6.37,182S2110.47,2745,2110.47,2745s-139,65.31-224.46,30.29-19.11-326.88-19.11-326.88,4.25-30.25,47.76-28.65,90.42-19.29,90.42-19.29,36.94,63.86,69.31,34.15S2108.35,2394.86,2108.35,2394.86Z"/><path class="cls-27" d="M2013.15,2393.53s30.4,46.15,44.86,28a411.39,411.39,0,0,1,31-34.12l4.09,26.94-40,40.25-41.6-52.76Z"/><path class="cls-31" d="M1994.07,2404.87s3.49,78.9,24,97.05c5.37,4.76,13.94,2.23,16.46-4.48,2.89-7.72,8-21.21,14.8-38.69,11.6-29.83,18.44,29.38,71.41,35,0,0,7.51,1.93-10.07-53.73l-44.78,5.6s-6.87-5.94-34.38-2.19S1994.07,2404.87,1994.07,2404.87Z"/><path class="cls-32" d="M2227.74,2524.33s15.39,134.26,10.09,140.1c0,0-119.93-37.15-220.22-2.13,0,0,30.6-25.11,133.54-34S2227.74,2524.33,2227.74,2524.33Z"/><path class="cls-32" d="M1936.42,2570s-11.15,110.38-4.78,118.87,22.82,8.49,22.82,8.49S1940.66,2642.67,1936.42,2570Z"/><path class="cls-33" d="M2017.61,2662.3s5.83,46.7,2.65,52.54c0,0-39.8-11.68-65.8-17.51C1954.46,2697.33,1993.59,2669.29,2017.61,2662.3Z"/><path class="cls-31" d="M2110.47,2745l-90.21-30.2a124.27,124.27,0,0,0,0-28.39s151.91,66.42,311,45.9C2331.29,2732.35,2379.51,2802.31,2110.47,2745Z"/><path class="cls-29" d="M2927.18,1871.82s-21.2,16.66-80.25,24.23-106,356.58-106,356.58-9.84,35.58,28.77,78.74,120.37,192.3,120.37,192.3l21.2-99.94s6.06-47.69,22.71-51.48,266.5-15.9,287.69-67.38c0,0-.75-26.5-4.54-72.68s-4.54-68.14-4.54-68.14,19.68,85.17,85.55-27.25S3404.9,1979,3404.9,1979s-53-32.94-40.13-43.16c0,0-4.16-18.54-14.76,4.17s-95.24,116-95.24,116-33.19-108.93-40.09-142.92c-7.95-39.18-23.28-61.32-64.73-60.75s-122.08,3.4-122.08,3.4l-43.53,49.4-34.26-.57Z"/><path class="cls-21" d="M3174,1974.78l38.61,189.27s17.17,54.67,50.22,19.77C3262.82,2183.82,3225.85,2168.22,3174,1974.78Z"/><path class="cls-21" d="M3222.5,2307.12l8.06,22.29s-82.31,70.14-250.38,63.32c0,0-50.35-6.85-68.9,31,0,0-12.11-57.91,43.16-75.71S3222.5,2307.12,3222.5,2307.12Z"/><path class="cls-4" d="M2164.84,3049.21s81.81,326.35,156.36,413.18,18.94,83.29,61.58,97.88-28.27-233.58-28.27-233.58l-81.08-319.84Z"/><path class="cls-26" d="M2539.52,3606.68c-16-6.5-32.69-6.07-35.14-7.15-.34-.08-.45-.08-.57-.17-23-15-82.29-82.91-94.52-119.81-1.45-4.36,1.61-58.15,1.61-58.15-64.22-7.45-105.38,21.48-105.38,21.48,1.1,17.91-2.33,118.3-3.25,124.78a42.41,42.41,0,0,0,0,9.44c2.42,24.92,20.15,67.76,25.4,78l13.67-1.39c-.76-10.24.67-38.69,10.61-49.31,0,0,8.51-1.38,24.52,8.63,17.14,10.71,42.22,32.81,53.93,31.62l138.23-14.05C2565.1,3626.64,2563.87,3618.11,2539.52,3606.68Z"/><path class="cls-4" d="M2396.15,2959.08l207.41,477.81L2680,3541.47l-113.3,20-28.62-124.59s-236.38-274.59-204.49-450.53S2396.15,2959.08,2396.15,2959.08Z"/><polygon class="cls-2" points="2911.28 2423.73 2862.98 2475.59 2887.13 2518.32 2911.28 2423.73"/><path class="cls-29" d="M3237.33,3464.34s-42.46,18.71-79-7.21c0,0-28-12-38,136.66,0,0,243.6,15.39,314.11,8.59,0,0,36.94-58.8-46.24-75.41S3237.33,3464.34,3237.33,3464.34Z"/><path class="cls-34" d="M3440.9,3564.11s-312.23-18.52-312.72-43.46l-4,52.39,317.46,11.41S3443,3569.79,3440.9,3564.11Z"/><path class="cls-35" d="M3434.43,3602.38s9-15.47,8.11-26.36L3123,3561.48l-2.4,36.19S3416,3608.11,3434.43,3602.38Z"/><path class="cls-29" d="M3120.88,3487.08l4.48,110.76s-79.69,31-201.56,52.47c-60.6,10.69-73.56.06-79.28-12.39-5.82-12.68-5.07-31.31,21.18-55.13,0,0,116.27-47.64,136.27-82.65,0,0,60.05,23.13,89.43-6.87C3111.34,3472.9,3120.88,3487.08,3120.88,3487.08Z"/><path class="cls-35" d="M2844.52,3637.92s108.11,12,279.61-64.88l1.23,24.8S2870,3690.68,2844.52,3637.92Z"/><path class="cls-34" d="M2842.7,3617.69s109.94,11.77,281.43-65.14l1.23,24.79S2824.13,3714.23,2842.7,3617.69Z"/><path class="cls-36" d="M2139.44,3138.29l82.66,791.52s14.38,20.27,40.73,4.77l100.63-825.81Z"/><path class="cls-37" d="M2139.44,3117.59l14.91,158.77s125.66,73.53,191.6-23.87l17.51-134.9Z"/><path class="cls-36" d="M1272.81,2986.24l82.66,791.53s14.37,20.27,40.73,4.77l100.63-825.81Z"/><path class="cls-36" d="M2572.05,2701.87l82.66,791.53s14.38,20.27,40.73,4.77l100.63-825.81Z"/><path class="cls-36" d="M3254.9,2846.76l82.66,791.52s14.38,20.28,40.73,4.77l100.63-825.8Z"/><path class="cls-37" d="M3254,2817.25,3268.89,2976s125.67,73.53,191.6-23.87l17.52-134.9Z"/><polygon class="cls-15" points="1179.86 2908.3 2267.63 3104.19 3547.07 2771.76 2732.44 2659.66 1179.86 2908.3"/><polygon class="cls-38" points="1179.86 2908.3 1179.86 2954.3 2270.02 3160.59 2270.02 3104.19 1179.86 2908.3"/><polygon class="cls-39" points="2270.02 3104.19 3547.07 2771.76 3547.07 2817.39 2270.02 3160.59 2270.02 3104.19"/><polygon class="cls-40" points="1640.92 2815.61 1974.63 2823.53 1773.65 3003.27 1455.28 2941.93 1640.92 2815.61"/><polygon class="cls-41" points="1975.39 2632.73 1992.91 2642.49 1920.65 2856.71 1899.98 2848.46 1975.39 2632.73"/><polygon class="cls-42" points="1713.88 2607.57 1975.39 2632.73 1899.98 2848.46 1642.25 2799.09 1713.88 2607.57"/><polygon class="cls-43" points="1463.13 2904.62 1764.98 2964.09 1899.98 2848.46 1642.25 2799.09 1463.13 2904.62"/><polygon class="cls-44" points="1764.98 2964.09 1763.17 2989.14 1920.65 2856.71 1899.98 2848.46 1764.98 2964.09"/><polygon class="cls-45" points="1463.13 2904.62 1764.98 2964.09 1763.17 2989.14 1461.53 2926.7 1463.13 2904.62"/><polygon class="cls-46" points="1713.88 2607.57 1899.03 2625.38 1727.18 2815.36 1642.25 2799.09 1713.88 2607.57"/><polygon class="cls-47" points="1642.25 2799.09 1647.52 2785.01 1904.61 2835.21 1899.98 2848.46 1642.25 2799.09"/><path class="cls-48" d="M1609.31,3748.76s2.88,65.06-8.37,109.65,32.92,68.34,169.61,46.67,192.52-17.92,190.44-83.76c0,0-.42-42.92-22.92-43.34s-137.52,30.42-178.36-3.33S1629.76,3685.37,1609.31,3748.76Z"/><path class="cls-49" d="M1522.6,3442.1,1587,3727.77s51.88,74.38,125,0,76.47-455.69-185.24-285.67"/><path class="cls-28" d="M1187.37,2468.59s43.13-110-72.51-63.76S1187.37,2468.59,1187.37,2468.59Z"/><path class="cls-24" d="M1269.16,3220.38l368.72.19s43.91-11.3,53.94,139.81C1703.77,3540.5,1235.82,3275.39,1269.16,3220.38Z"/><path class="cls-4" d="M1129.24,2441.09c-1.88,1.25,42.5-46.89,104.39,50.63,0,0,33.75,46.88,62.51,54.38,0,0,17.5,10-20,40,0,0-.62,28.75,8.13,66.88s-79.39,61.26-79.39,61.26,5,69.38,16.88,90-98.14,30.63-98.14,30.63,26.26-76.88-6.25-121.27-93.76-84.38-73.13-130.64S1129.24,2441.09,1129.24,2441.09Z"/><path class="cls-27" d="M1077.28,2639.86s26,28.34,59,8.75c0,0-30.36,53.76-69.53,2.92S1077.28,2639.86,1077.28,2639.86Z"/><path class="cls-28" d="M1089.9,2580.55s23.92-12.36,36.84,11.81l9.52-66.68Z"/><path class="cls-29" d="M1193.76,2445s-8.26-45.74-38.27-35.12,25.63,81.26,4.38,116.27-116.42,55-82.59,113.76l44.24,80.15s-47.7-10.53-90.39-23.45c-113.2-34.26-126.3-210.47-6.91-291.1C1139.82,2327.38,1223.81,2373.44,1193.76,2445Z"/><polygon class="cls-27" points="1204.87 2714.25 1170.14 2723.63 1211.83 2770.28 1204.87 2714.25"/><path class="cls-4" d="M1388.49,3049.48s122.68-13.31,173.93-42.69,100.64-85.64,121.89-79.39,57.51,18.76,57.51,28.76-25.42,62.09-25.42,62.09.84,7.08-26.25,6.67-22.92-13.75-41.26-4.59-165.44,123.77-282.12,110.85Z"/><path class="cls-27" d="M1416.17,3072.75s39.82,42.08,102.52,24.21c0,0-51.07,27.09-114,35.24Z"/><path class="cls-24" d="M1705.55,3813.85s2.89,65.06-8.36,109.65,32.92,68.34,169.6,46.67,192.53-17.92,190.45-83.76c0,0-.42-42.92-22.92-43.34s-137.52,30.42-178.36-3.33S1726,3750.46,1705.55,3813.85Z"/><path class="cls-48" d="M1705.54,3820.6v32.84s46.88,31.75,124.91-32.84l-32-29.59Z"/><path class="cls-27" d="M1569.73,3070.25s64.16-71.17,98.33-66.17,55.19-.25,55.19-.25l-7.77,16.39s-21.08,12.06-50.19-1.62c0,0-8.23-6-26.27,7.86S1569.73,3070.25,1569.73,3070.25Z"/><path class="cls-29" d="M1136.26,3467.4s117.66,42.25,337.58-5c50.74-10.9,85.33-16.38,108.9-18.85a47.17,47.17,0,0,1,52,44.51c4.51,86.42,19.24,280.14,62.49,339.32,0,0,90.43,18.87,116.27-29.89,0,0,14-325.93,23.41-429.56,12.4-136-471.05-123.94-583.93-62.85S1136.26,3467.4,1136.26,3467.4Z"/><path class="cls-24" d="M1046.73,3430.6s49.38,105.64,172.83,81.26,157.21-291.29,157.21-291.29l-70-2.34Z"/><path class="cls-50" d="M1130.26,2807.91s44.35,25,89.38-8c0,0,79.62,141.84,95.25,256.23l89.39-8.12s39.38,64.38,23.75,134.39l-95,5.62s5.62,87.52-39.38,133.15-123.17,164.21-299,146.19c0,0-5.39-126.81-17.89-232.45S1045.77,2831.6,1130.26,2807.91Z"/><path class="cls-51" d="M1106.11,3009.91s120,166.9,191.28,174.4l35.63,3.75-.19,23.78s3.45,70.09-50.69,120.36c0,0-14.76,21.51-83.52-96S1106.11,3009.91,1106.11,3009.91Z"/><path class="cls-52" d="M1314.89,3056.17s-82.83-67.09-111.32-115.43c0,0,72.91,69.51,100.55,63.09Z"/><path class="cls-21" d="M1455.18,3576.24h-195a30,30,0,0,1-28.82-21.4l-177.58-589.1a115.81,115.81,0,0,0-111.57-82.9H754.74a55.49,55.49,0,0,0-53.16,71.53L884.8,3562.15a55.19,55.19,0,0,0,53.16,39.5h195a30.11,30.11,0,0,1,30.09,30.09v369.47h25.44V3631.74a55.58,55.58,0,0,0-55.53-55.5H938a29.9,29.9,0,0,1-28.81-21.4L725.93,2947a30.1,30.1,0,0,1,28.81-38.79H942.19a90.55,90.55,0,0,1,87.23,64.82L1207,3562.15a55.2,55.2,0,0,0,53.16,39.5h195a30.11,30.11,0,0,1,30.09,30.09v376h25.44v-376A55.58,55.58,0,0,0,1455.18,3576.24Z"/><path class="cls-53" d="M1510.71,4007.72v37.05a55.59,55.59,0,0,1-55.53,55.53H880.93v-25.41h574.25a30.14,30.14,0,0,0,30.09-30.12v-37.05Z"/><path class="cls-21" d="M1176.09,3955.22a12.7,12.7,0,0,1,12.7,12.7v24.34a55.58,55.58,0,0,1-55.53,55.53H571.72a12.7,12.7,0,0,1-12.71-12.7h0a12.7,12.7,0,0,1,12.71-12.7h548.84a42.8,42.8,0,0,0,42.8-42.8v-11.67a12.69,12.69,0,0,1,12.7-12.7Z"/><line class="cls-22" x1="1532.38" y1="4007.72" x2="1510.71" y2="4007.72"/><line class="cls-22" x1="1485.27" y1="4007.72" x2="1471.13" y2="4007.72"/><path class="cls-23" d="M1099.71,3296H850.58a45.61,45.61,0,0,1-43.72-32.54L723.14,2986a29.13,29.13,0,0,1,27.79-37.45h249.3a45.77,45.77,0,0,1,43.73,32.54l83.55,277.43A29.07,29.07,0,0,1,1099.71,3296Z"/><path class="cls-24" d="M1065.82,3296H850.58a45.61,45.61,0,0,1-43.72-32.54L723.14,2986a29.13,29.13,0,0,1,27.79-37.45H966.17a46,46,0,0,1,43.89,32.54l83.55,277.43A29.07,29.07,0,0,1,1065.82,3296Z"/><path class="cls-23" d="M958,3467.4H1489.2a0,0,0,0,1,0,0v94.07a3.37,3.37,0,0,1-3.37,3.37H961.33a3.37,3.37,0,0,1-3.37-3.37V3467.4A0,0,0,0,1,958,3467.4Z" transform="translate(2447.15 7032.25) rotate(180)"/><rect class="cls-24" x="934.11" y="3529.09" width="578.93" height="56.89" rx="1.51" transform="translate(2447.15 7115.07) rotate(180)"/><path class="cls-21" d="M1455.18,4100.3H880.93a12.71,12.71,0,1,1,0-25.42h574.25a30.13,30.13,0,0,0,30.1-30.1v-413a30.13,30.13,0,0,0-30.1-30.09h-195a55.19,55.19,0,0,1-53.15-39.5l-177.58-589.09a90.56,90.56,0,0,0-87.24-64.82H754.74a12.71,12.71,0,1,1,0-25.42H942.19a115.83,115.83,0,0,1,111.58,82.92l177.58,589.08a29.92,29.92,0,0,0,28.81,21.41h195a55.58,55.58,0,0,1,55.52,55.51v413A55.58,55.58,0,0,1,1455.18,4100.3Z"/><path class="cls-24" d="M1620.16,3456.34s59.21-4.93,71.88-11,3.47,0,3.47,0-37.86,100.71-45.72,210.68C1649.79,3656,1629.28,3543.48,1620.16,3456.34Z"/><path class="cls-2" d="M2933,1845s24.06,45.42,51.31,60.18c0,0,24.84-35.23,20.35-71.62l34.54,18.63c4.16,6.81,9.84,90.47,9.84,90.47l-60.57-35.21s-3-9.08-21.57,10.22-27.32,49.59-27.32,49.59-9.78-8-24.16-89Z"/><path class="cls-33" d="M2007.45,2391.25s30.37,44.58,43.61,51.69c0,0,36.76-43.09,41.19-51.69s22.46,0,22.46,0-9.55,72.59,0,93.29-58.9-40.69-58.9-40.69-13.79-12.91-27.06,52.36c0,0-15.92,20.7-35-93.39Z"/><path class="cls-21" d="M2857.53,2063s3.54,100.91-13.61,166a77,77,0,0,0,3.92,50.69l63.44,144.09s6.63-43.72,22.71-51.48C2934,2372.25,2875.35,2227.29,2857.53,2063Z"/><path class="cls-21" d="M3241.94,2013.08s-3.19,49.36,0,65.61l12.83-22.69Z"/><path class="cls-4" d="M3470.11,1886.49l44.59-2.51s26.87-11.88,33.75-13.75c0,0,8.13-.31,5.94,5.62s-35.94,16.88-38.13,18.13-37.19,2.5-37.19,2.5Z"/><path class="cls-54" d="M2922.62,1540s-19.08-81.85-66.35-34.08,33.92,96.51,33.92,96.51l.37-21.72c.19-10.94,4.2-21.65,12-29.36a43.09,43.09,0,0,1,17.71-10.58Z"/><path class="cls-54" d="M2878.18,1640.91s-.42,43.67,16.53,63.47c0,0-25.52-38.2-51.56-18.67S2878.18,1640.91,2878.18,1640.91Z"/><path class="cls-29" d="M2922.62,1540s-10.1-38.79-21.6-28.42c-19.57,17.63-14.44,39.37-8.17,66.19a45.9,45.9,0,0,0,4.26,11.75c9.45,16.9,6.61,41.36-28.07,71.14s-32.09,68.18,17.85,81.46,34.92,56.79,34.92,56.79-28.22-26.71-56.16-19.78-129.5-16.86-142.21-98.12c-5.06-32.36,6.53-37.45,6.13-52.24-1.37-51,48.1-156.15,153.92-150.23,0,0,46.29,1.49,46,57.09Z"/><path class="cls-55" d="M2847,1692.78s-28.7,40.25,31,66.14c0,0,27.72,15.3,26.49,27.67l17.31,12.33s15.42-45.41-34.92-56.79C2886.89,1742.13,2845.19,1735.53,2847,1692.78Z"/><path class="cls-29" d="M2729,1637.14s-9.19,54.06-4.77,71C2724.2,1708.16,2701.4,1664.68,2729,1637.14Z"/><path class="cls-28" d="M1075.75,2637.06s2.06,60.55-41,59.89c0,0,79.76,15.11,88.67,26.6,0,0,.54-39.38-16.71-47.59S1075.75,2637.06,1075.75,2637.06Z"/><path class="cls-27" d="M3000.09,1768s-17.12-1.86-17.83,12.31,19.91,40.6,19.91,40.6S2997.38,1775.29,3000.09,1768Z"/><path class="cls-26" d="M2803.27,3501c-17.19,1.8-31.71,10-34.38,10.21a1.68,1.68,0,0,1-.58.13c-27.39-2.44-111.61-34.49-139.76-61.3-3.33-3.17-25.91-52.08-25.91-52.08-60.19,23.62-82.91,68.5-82.91,68.5,9.4,15.3,53.58,105.51,55.8,111.66a41.75,41.75,0,0,0,4.45,8.32c13.85,20.86,49.65,50.34,59.11,56.92l11.4-7.65c-5.48-8.69-17.59-34.46-13.82-48.51,0,0,6.86-5.22,25.71-3.91,20.15,1.39,52.68,9.1,62.45,2.55l115.4-77.4C2835.23,3506.58,2830.13,3499.63,2803.27,3501Z"/><polygon class="cls-38" points="2103.27 2811.42 2334.15 2752.39 2584.41 2815.98 2399.28 2878.3 2103.27 2811.42"/><polygon class="cls-2" points="2115.63 2800.72 2334.65 2744.72 2572.05 2805.05 2396.43 2864.16 2115.63 2800.72"/><path class="cls-50" d="M1976.53,1749.41H1533c-13,0-23.72,12.33-23.72,27.41v132.09c0,15.07,10.67,27.41,23.72,27.41h363.84l18.82,36.28,7.46-36.28h53.4c13,0,23.72-12.34,23.72-27.41V1776.82C2000.25,1761.74,1989.57,1749.41,1976.53,1749.41Z"/><rect class="cls-2" x="1536.48" y="1796.34" width="385.87" height="15.62" rx="2.64"/><rect class="cls-2" x="1536.48" y="1826.19" width="385.87" height="15.62" rx="2.64"/><rect class="cls-2" x="1536.48" y="1856.03" width="237.04" height="15.62" rx="2.64"/><path class="cls-30" d="M1071.14,2016.19H627.62c-13,0-23.72,13.16-23.72,29.25v141c0,16.09,10.67,29.25,23.72,29.25H991.46l18.82,38.73,7.46-38.73h53.4c13,0,23.72-13.16,23.72-29.25v-141C1094.86,2029.35,1084.18,2016.19,1071.14,2016.19Z"/><rect class="cls-2" x="631.09" y="2064.32" width="385.87" height="15.62" rx="2.64"/><rect class="cls-2" x="631.09" y="2094.16" width="385.87" height="15.62" rx="2.64"/><rect class="cls-2" x="631.09" y="2124.01" width="237.04" height="15.62" rx="2.64"/></g></g></g></svg>