<svg xmlns="http://www.w3.org/2000/svg" viewBox="0 0 5000 5000"><defs><style>.cls-1{isolation:isolate;}.cls-2{fill:#fff;}.cls-3{fill:#eaf2f9;}.cls-4{fill:#7badc9;}.cls-5{fill:#eaad9d;}.cls-6{fill:#89bacc;}.cls-7{opacity:0.66;}.cls-8{fill:#b3d8e5;}.cls-9{fill:#214a81;}.cls-10{fill:#65a6b7;}.cls-11{fill:#95c5d1;}.cls-12{opacity:0.57;}.cls-13{fill:#6fa4bc;}.cls-14{fill:#232f63;}.cls-15{fill:#ce303f;}.cls-16{fill:#d0f1fc;}.cls-17{fill:#fdcbb5;}.cls-18{fill:#fefefe;}.cls-19{fill:#fab584;}.cls-20{fill:#1a224f;}.cls-21{fill:#034c8a;}.cls-22{fill:#4b8a9b;}.cls-23{fill:#fac2ae;}.cls-24{fill:#f1a080;}.cls-25{fill:#18254f;}.cls-26{fill:#0d1638;}.cls-27{fill:#94c6d3;}.cls-28{fill:#f4b9a6;}.cls-29{fill:#434e84;}.cls-30{fill:#7fb3bf;}.cls-31{fill:#1d2956;}.cls-32{fill:#282e5b;}.cls-33{fill:#c4422b;opacity:0.5;mix-blend-mode:multiply;}.cls-34{fill:#455993;}.cls-35{fill:#152244;}.cls-36{fill:#abd6dd;}.cls-37{fill:#e75858;}.cls-38{fill:#5d9cf2;}.cls-39{fill:#fdfdfe;}.cls-40{fill:#b1d1f2;}.cls-41{fill:#f4737f;}.cls-42{fill:#b03e45;}.cls-43{fill:#e6515b;}.cls-44{fill:#2d2e75;}.cls-45{fill:#8db0dc;}.cls-46{fill:#c3daf4;}.cls-47{opacity:0.47;}.cls-48{opacity:0.18;}.cls-49{fill:none;}.cls-50{fill:#b1c3dd;}</style></defs><title>Asset 8</title><g class="cls-1"><g id="Layer_2" data-name="Layer 2"><g id="Layer_1-2" data-name="Layer 1"><rect class="cls-2" width="5000" height="5000"/><ellipse class="cls-3" cx="3641.9" cy="3871.95" rx="858.1" ry="117"/><rect class="cls-4" x="500" y="3729.31" width="3703.77" height="16.3"/><path class="cls-5" d="M3692,3178.42H3794.3s-82.9,192.37-26.76,440.7l-5,77.49s84.64,116.55,104.62,134.38,52.09-32.08,52.09-32.08-88.53-53.71-100.28-203c0,0,21.16-169.27,116.37-404.37,0,0,44.67-99.92-65.83-141.06,0,0-105.32-30.43-161.75-37.48S3692,3178.42,3692,3178.42Z"/><path class="cls-3" d="M998.32,3729.31H3728.5s401-1246.83-34.27-1508.09c-389.06-233.55-246.6-925.54-794-845.57s-580.86,314-1131.42,265.16c-818.47-72.62-1321.49,570.52-843.6,1459.05C1046,3324.32,1055.46,3552,998.32,3729.31Z"/><path class="cls-6" d="M3492.08,2700.61s94.82,43.89,147.33,54.86c0,0,24.22,34,23.47,54.24s-188.71-14.27-188.71-14.27Z"/><g class="cls-7"><rect class="cls-2" x="980.05" y="1011.05" width="2146.12" height="1716.89" rx="82.42"/><path class="cls-8" d="M3043.75,1029a64.55,64.55,0,0,1,64.48,64.48V2645.52a64.55,64.55,0,0,1-64.48,64.48H1062.48A64.55,64.55,0,0,1,998,2645.52v-1552a64.55,64.55,0,0,1,64.48-64.48H3043.75m0-17.94H1062.48a82.43,82.43,0,0,0-82.43,82.42V2645.52a82.43,82.43,0,0,0,82.43,82.42H3043.75a82.42,82.42,0,0,0,82.42-82.42v-1552a82.42,82.42,0,0,0-82.42-82.42Z"/><path class="cls-8" d="M3043.75,1011.05H1062.48a82.43,82.43,0,0,0-82.43,82.42v150.85H3126.17V1093.47A82.42,82.42,0,0,0,3043.75,1011.05Z"/><path class="cls-2" d="M2653.29,1185.46h-908a53,53,0,0,1-53-53h0a53,53,0,0,1,53-53h908a53,53,0,0,1,53,53h0A53,53,0,0,1,2653.29,1185.46Z"/><path class="cls-9" d="M1154.71,1128.21a32.71,32.71,0,1,1-28.18-28.17A32.72,32.72,0,0,1,1154.71,1128.21Z"/><path class="cls-4" d="M1259,1128.21a32.7,32.7,0,1,1-28.18-28.17A32.72,32.72,0,0,1,1259,1128.21Z"/><path class="cls-9" d="M1363.27,1128.21a32.7,32.7,0,1,1-28.18-28.17A32.72,32.72,0,0,1,1363.27,1128.21Z"/></g><path class="cls-5" d="M3678.88,2776.17s38.69-1.08,97.9-36.23c0,0,25.57-10.11,38.35,6.44s-134.91,68.68-134.91,68.68Z"/><path class="cls-10" d="M3502.94,2705.52l-7.26,61.59,159.48,15.25-15.24-20.08s-128.91-14.58-132.33-43.71c0,0-.2-8.46.7-10.67Z"/><path class="cls-11" d="M3623.52,2754s7.59-8.35,7.2,17.12,12.27,42.76,5.3,58c0,0-3.44,6.15,23,2s31.15-4.7,31.15-4.7,5,.88,2.94-16.16-4.11-55-4.11-55S3620.05,2733.58,3623.52,2754Z"/><g class="cls-12"><rect class="cls-2" x="604.32" y="1449.37" width="2146.12" height="1716.89" rx="82.42"/><path class="cls-13" d="M2668,1467.32a64.55,64.55,0,0,1,64.48,64.48V3083.85a64.55,64.55,0,0,1-64.48,64.48H686.74a64.56,64.56,0,0,1-64.48-64.48v-1552a64.55,64.55,0,0,1,64.48-64.48H2668m0-18H686.74a82.43,82.43,0,0,0-82.42,82.43V3083.85a82.42,82.42,0,0,0,82.42,82.42H2668a82.43,82.43,0,0,0,82.43-82.42v-1552a82.44,82.44,0,0,0-82.43-82.43Z"/></g><path class="cls-13" d="M2668,1449.37H686.74a82.42,82.42,0,0,0-82.42,82.43v150.85H2750.44V1531.8A82.43,82.43,0,0,0,2668,1449.37Z"/><path class="cls-13" d="M1554.74,1887.93v1175.7H762.94V1887.93h791.8m9.33-9.33H753.61V3073h810.46V1878.6Z"/><path class="cls-14" d="M2277.55,1623.79h-908a53,53,0,0,1-53-53h0a53,53,0,0,1,53-53h908a53,53,0,0,1,53,53h0A53,53,0,0,1,2277.55,1623.79Z"/><path class="cls-2" d="M686.35,1600.35a10.11,10.11,0,0,1-7.15-17.26l48.46-48.46a10.11,10.11,0,0,1,14.3,14.3l-48.46,48.46A10.09,10.09,0,0,1,686.35,1600.35Z"/><path class="cls-2" d="M734.81,1600.35a10.1,10.1,0,0,1-7.15-3l-48.46-48.46a10.11,10.11,0,0,1,14.3-14.3L742,1583.09a10.11,10.11,0,0,1-7.15,17.26Z"/><path class="cls-2" d="M941,1600.35A34.34,34.34,0,1,1,975.36,1566,34.38,34.38,0,0,1,941,1600.35Zm0-48.46A14.12,14.12,0,1,0,955.13,1566,14.13,14.13,0,0,0,941,1551.89Z"/><path class="cls-2" d="M848.65,1576.12H796.73a10.11,10.11,0,0,1,0-20.22h51.92a10.11,10.11,0,1,1,0,20.22Z"/><path class="cls-13" d="M2357.37,2485.86H1766.3a58.7,58.7,0,0,1,0-117.39h591.07a58.7,58.7,0,1,1,0,117.39ZM1766.3,2377.79a49.38,49.38,0,0,0,0,98.75h591.07a49.38,49.38,0,1,0,0-98.75Z"/><path class="cls-13" d="M2357.37,2681.81H1766.3a58.7,58.7,0,0,1,0-117.39h591.07a58.7,58.7,0,1,1,0,117.39ZM1766.3,2573.75a49.37,49.37,0,0,0,0,98.74h591.07a49.37,49.37,0,1,0,0-98.74Z"/><path class="cls-13" d="M2540.09,2485.86a58.7,58.7,0,1,1,58.7-58.69A58.76,58.76,0,0,1,2540.09,2485.86Zm0-108.07a49.38,49.38,0,1,0,49.38,49.38A49.44,49.44,0,0,0,2540.09,2377.79Z"/><path class="cls-13" d="M2540.09,2681.81a58.7,58.7,0,1,1,58.7-58.69A58.76,58.76,0,0,1,2540.09,2681.81Zm0-108.06a49.37,49.37,0,1,0,49.38,49.37A49.43,49.43,0,0,0,2540.09,2573.75Z"/><path class="cls-13" d="M2357.37,2887.1H1766.3a58.7,58.7,0,0,1,0-117.39h591.07a58.7,58.7,0,1,1,0,117.39ZM1766.3,2779a49.38,49.38,0,0,0,0,98.75h591.07a49.38,49.38,0,1,0,0-98.75Z"/><path class="cls-13" d="M2357.37,3083.05H1766.3a58.7,58.7,0,0,1,0-117.39h591.07a58.7,58.7,0,1,1,0,117.39ZM1766.3,2975a49.38,49.38,0,0,0,0,98.75h591.07a49.38,49.38,0,1,0,0-98.75Z"/><path class="cls-13" d="M2540.09,2887.1a58.7,58.7,0,1,1,58.7-58.7A58.76,58.76,0,0,1,2540.09,2887.1Zm0-108.07a49.38,49.38,0,1,0,49.38,49.37A49.44,49.44,0,0,0,2540.09,2779Z"/><path class="cls-13" d="M2540.09,3083.05a58.7,58.7,0,1,1,58.7-58.7A58.76,58.76,0,0,1,2540.09,3083.05Zm0-108.07a49.38,49.38,0,1,0,49.38,49.37A49.44,49.44,0,0,0,2540.09,2975Z"/><path class="cls-13" d="M2612,2270.5H1710V1873.93h902Zm-892.66-9.33H2602.7V1883.26H1719.36Z"/><path class="cls-15" d="M2568.67,2622.45a28.58,28.58,0,1,1-28.58-28.58A28.58,28.58,0,0,1,2568.67,2622.45Z"/><polygon class="cls-16" points="1719.36 2167.31 2602.7 2017.74 2602.7 2261.17 1719.36 2261.17 1719.36 2167.31"/><path class="cls-13" d="M2251.41,2188.65c9.66,5.2,19.21,10.6,29,15.56,24.42,12.39,35.2,33.09,36.8,59.53,2.12-2.11-277.17-.66-277.17-.66.09-10.24,4.14-19.67,6-29.55,3.18-4.86,5.7-10.17,10.16-14.14,20.09-17.85,44-28.67,68.87-37.86-.07,2.34-.19,4.68-.19,7a22.2,22.2,0,0,0,25.9,22.24c10.41-1.73,18.79-6.9,24.55-15.86,2.18-3.39,3.78-4.07,6.24-.2a35.7,35.7,0,0,0,21,15.38c12.55,3.57,24.23-2.46,28.65-14.68,1.65-4.58.58-9.27.69-13.92C2238.92,2182.53,2244.59,2187.17,2251.41,2188.65Z"/><path class="cls-14" d="M2251.41,2188.65c-6.82-1.48-12.49-6.12-19.48-7.14-5.36-7.86-9.94-16.46-19.56-20.19,0-19.72.05-39.43,0-59.14,0-3.38.38-5.17,4.45-6.23,13.88-3.59,21.15-16.45,17.94-30.43-3.4-14.83-13.73-19.75-27.43-13.07-.84.41-1.67.86-2.51,1.27-13.65,6.56-27.33-.35-30.66-15.21-1.17-5.23-.77-10.38,0-17.1-4.7,5-8.62,8.78-13.45,11.16-9.22,4.55-18.74,7.32-29.08,3.92-7.39-2.42-9.31-8.7-10.38-16.18-7.81,9.31-14.85,18-27.3,18.38-14.84-7-19.31-19.62-11.9-34.23,12.41-24.45,31.84-41.07,57.64-49.79,28.26-9.56,56.92-9.71,84.9.85,34.82,13.16,52.69,41.08,60.86,75.63,8.44,35.68,2,70.39-10.21,104.29C2268.65,2153.79,2261.37,2171.82,2251.41,2188.65Z"/><path class="cls-17" d="M2094,2038.69c12.45-.38,19.49-9.07,27.3-18.38,1.07,7.48,3,13.76,10.38,16.18,10.34,3.4,19.86.63,29.08-3.92,4.83-2.38,8.75-6.11,13.45-11.16-.82,6.72-1.22,11.87,0,17.1,3.33,14.86,17,21.77,30.66,15.21.84-.41,1.67-.86,2.51-1.27,13.7-6.68,24-1.76,27.43,13.07,3.21,14-4.06,26.84-17.94,30.43-4.07,1.06-4.46,2.85-4.45,6.23.1,19.71,0,39.42,0,59.14.93,9.15-1,16.54-10.78,20.25-13.74,5.23-27.46,6.69-41.53,1.55s-15.29-6.87-15.44-21.81l.12-2.68c10.5-.06,20.55-2.53,29-8.59,6.57-4.72,14-9.3,16.05-18.29l.34-.59-.33.6c-14.62,6.71-29.34,13.11-45.38,15.7-2.33.05-4.67,0-7,.17-14.35,1.18-24.53-5.23-31.94-17.11-4.72-7.58-7.11-16-10.05-24.31C2092,2083.77,2091,2061.27,2094,2038.69Z"/><path class="cls-14" d="M2144.74,2158.63l-.12,2.68c-9.6,3.76-14.23,12.32-19.56,20.22-24.84,9.19-48.78,20-68.87,37.86-4.46,4-7,9.28-10.16,14.14-17.89-20.9-19.79-54.33-5.33-78.09,7-11.49,16.29-20.13,27.18-27.56a218,218,0,0,0,27.55-21.67c2.94,8.27,5.33,16.73,10.05,24.31,7.41,11.88,17.59,18.29,31.94,17.11,2.32-.19,4.66-.12,7-.18Z"/><path class="cls-18" d="M2125.06,2181.53c5.33-7.9,10-16.46,19.56-20.22.15,14.94,1.41,16.68,15.44,21.81s27.79,3.68,41.53-1.55c9.73-3.71,11.71-11.1,10.78-20.25,9.62,3.73,14.2,12.33,19.56,20.19-.11,4.65,1,9.34-.69,13.92-4.42,12.22-16.1,18.25-28.65,14.68a35.7,35.7,0,0,1-21-15.38c-2.46-3.87-4.06-3.19-6.24.2-5.76,9-14.14,14.13-24.55,15.86a22.2,22.2,0,0,1-25.9-22.24C2124.87,2186.21,2125,2183.87,2125.06,2181.53Z"/><path class="cls-19" d="M2144.74,2158.63l-.33-11.18c16-2.58,30.76-9,45.38-15.69h0c-2,9-9.48,13.57-16.05,18.29C2165.29,2156.1,2155.24,2158.57,2144.74,2158.63Z"/><path class="cls-20" d="M3782.07,3641.13c2.12,7.54,4.1,15.1,7.29,22.29,9,20.28,23.1,38.66,35.41,57,13.31,19.89,25.58,40.49,39.1,60.23,6.89,10.06,14.67,17.94,27.44,19.66a59.67,59.67,0,0,0,17.7-.34c3.59-.6,7.25-2.92,10.74-3.2,3-.23,5.92,1.59,8.42,2.92,9.62,5.13,18.45,11.58,28,16.81,8.36,4.56,17.36,7.37,26,11.38,2.68,1.25,6.48,2.83,7.41,5.91,1.38,4.55-3.48,9.28-7.09,11.22-10.89,5.86-27.26,3.43-39.13,3.58-25.18.3-51.38,2.44-76.49-.6-8.22-1-16.67-2.79-22.17-9.34-10.22-12.19-13.69-30.48-19.55-44.74-4.94-12-10.8-24.48-20.32-33.77a68.53,68.53,0,0,0-24.71-15c-3.21-1.14-4.71-2.06-6.22,1.17-2.49,5.31-.34,14.28-.42,20-.18,11.57-.48,69.78-.48,73.93,0,1.67.84,6,0,7.42-1.12,1.92.35.77-2.87,1.35-1.59.29-9.4,1-10.8,0-2.09-1.43-1-13.21-1.14-16.47-.4-11.53-1.12-23.05-2.09-34.55-1.87-22.06-3.23-44.89-9.11-66.36-4.84-17.68-10.39-32.58-9.49-51.25.48-9.87,2.08-20.29,7-29.06,7.09-12.62,21.14-22.17,32-31.47Z"/><rect class="cls-13" x="3082.4" y="3172.85" width="486.2" height="94.17" rx="2.03"/><path class="cls-13" d="M2965.91,2874.52c0-80.13,2-159.24-1-239-2-52.79-1.6-106,6-158.32,3.34-23,18.55-128.2,63.6-108.37,8.68,3.82,12.57,16.31,14.05,22.19q-3,241.75-6,483.51c0,21-13.88,38.07-31,38.07h-14.68C2979.79,2912.59,2965.91,2895.55,2965.91,2874.52Z"/><path class="cls-21" d="M3115.43,3282H3488.7a19.16,19.16,0,0,0,0-38.32H3115.43a130.79,130.79,0,0,1-93.78-39.4,134.52,134.52,0,0,1-38.85-95.1V2603.25a18.9,18.9,0,1,0-37.79,0V3109.2a173,173,0,0,0,49.91,122.21A168.14,168.14,0,0,0,3115.43,3282Z"/><rect class="cls-14" x="3276.01" y="3267.02" width="37.82" height="549.49"/><path class="cls-14" d="M3276,3821.92h37.82a5.38,5.38,0,0,0,5.33-5.42V3267a5.37,5.37,0,0,0-5.33-5.41H3276a5.37,5.37,0,0,0-5.34,5.41V3816.5A5.38,5.38,0,0,0,3276,3821.92Zm32.48-10.83h-27.15V3272.42h27.15Z"/><rect class="cls-21" x="3245.75" y="3518.11" width="98.32" height="187.91"/><path class="cls-21" d="M3245.75,3711.43h98.33a5.37,5.37,0,0,0,5.34-5.41V3518.11a5.37,5.37,0,0,0-5.34-5.41h-98.33a5.37,5.37,0,0,0-5.34,5.41V3706A5.37,5.37,0,0,0,3245.75,3711.43Zm93-10.82h-87.65V3523.52h87.65Z"/><path class="cls-14" d="M3625.93,3834.94c-44-29.67-166.24-103.57-338-101.53-163.44,2-279.5,71.53-324,101.53V3803.8c46.8-30.17,162.63-95.92,324-97.78,169.64-2,291.56,67.82,338,97.78Z"/><path class="cls-14" d="M3625.93,3840.36a5.24,5.24,0,0,0,2.52-.64,5.42,5.42,0,0,0,2.81-4.77V3803.8a5.46,5.46,0,0,0-2.47-4.58c-57.52-37.08-176.77-98.66-334-98.66-2.31,0-4.63,0-7,.05-146.29,1.68-258.46,54.55-326.79,98.61a5.46,5.46,0,0,0-2.47,4.58V3835a5.41,5.41,0,0,0,2.82,4.77,5.28,5.28,0,0,0,5.47-.26c54.56-36.8,168.83-98.81,321.1-100.63,158.46-1.84,278.06,62.24,335,100.63A5.3,5.3,0,0,0,3625.93,3840.36Zm-5.34-33.57V3825c-60.8-39.4-178.44-99.13-332.76-96.94-147.67,1.75-260.23,59.12-318.59,96.94v-18.16c67.39-43,176.69-93.72,318.72-95.36,2.27,0,4.56,0,6.82,0C3447.11,3711.4,3563.14,3770.2,3620.59,3806.79Z"/><path class="cls-21" d="M3006.23,3834.94c0-23.71-18.95-42.92-42.33-42.92s-42.33,19.21-42.33,42.92,18.95,42.93,42.33,42.93S3006.23,3858.65,3006.23,3834.94Z"/><path class="cls-21" d="M2963.9,3883.29c26.29,0,47.67-21.68,47.67-48.34s-21.38-48.34-47.67-48.34-47.68,21.68-47.68,48.34S2937.62,3883.29,2963.9,3883.29Zm0-85.86c20.4,0,37,16.84,37,37.52s-16.6,37.51-37,37.51-37-16.83-37-37.51S2943.5,3797.43,2963.9,3797.43Z"/><path class="cls-21" d="M3668.26,3834.94c0-23.71-19-42.92-42.33-42.92s-42.33,19.21-42.33,42.92,19,42.93,42.33,42.93S3668.26,3858.65,3668.26,3834.94Z"/><path class="cls-21" d="M3625.93,3883.29c26.29,0,47.67-21.68,47.67-48.34s-21.38-48.34-47.67-48.34-47.67,21.68-47.67,48.34S3599.64,3883.29,3625.93,3883.29Zm0-85.86c20.39,0,37,16.84,37,37.52s-16.6,37.51-37,37.51-37-16.83-37-37.51S3605.53,3797.43,3625.93,3797.43Z"/><path class="cls-21" d="M3334.89,3834.94c0-22.39-17.9-40.54-40-40.54s-40,18.15-40,40.54,17.9,40.55,40,40.55S3334.89,3857.33,3334.89,3834.94Z"/><path class="cls-21" d="M3294.91,3880.9c25,0,45.32-20.61,45.32-46s-20.33-46-45.32-46-45.31,20.61-45.31,46S3269.92,3880.9,3294.91,3880.9Zm0-81.09c19.1,0,34.65,15.77,34.65,35.14s-15.55,35.12-34.65,35.12-34.64-15.76-34.64-35.12S3275.81,3799.81,3294.91,3799.81Z"/><path class="cls-22" d="M3245.75,3172.21s55.22,55.25,322.85,34.09v-33.45Z"/><path class="cls-23" d="M3594.37,2061.76s76.31-36.25,35.63,125.55c0,0-20,31.15,1.19,70.36,0,0,6,17.47-38.26,13.86,0,0-9.08.18-21.91,28.62a57.39,57.39,0,0,1-49.38,34.08c-15.87.76-36.86-2-64-12.13l-46.23,185-105.8-54.86s72.88-155.17,61.13-176.33-50.94-85.42,13.32-129.3S3579.44,2035.13,3594.37,2061.76Z"/><path class="cls-24" d="M3613.27,2067.55s-74.37,95.84-132,79.26l-15-29.63S3600.29,2053.76,3613.27,2067.55Z"/><path class="cls-24" d="M3334.37,2386.94s61.08,54.89,92.61,57.63l-7.27,21.19-96-59Z"/><path class="cls-14" d="M3631.19,2066.55s1.16-143.34-221.4-68.11c0,0-93.26,34.49-98.74,154.39C3311.05,2152.83,3540.69,1943.45,3631.19,2066.55Z"/><path class="cls-25" d="M3631.19,2066.55s-56,7.13-125.79-12.47-202.19,58-199.84,121.47c0,0-3.92-110.83,94.83-150.46C3506.13,1982.65,3615.92,1999.09,3631.19,2066.55Z"/><path class="cls-26" d="M3381.87,2200.09s39.84,176.09-79.28,42.57L3286,2196.71Z"/><path class="cls-25" d="M3399.56,2161.27S3365,2328.56,3286,2196.71C3286,2196.71,3378.35,2139.15,3399.56,2161.27Z"/><path class="cls-26" d="M3305.53,2214.23s9,47.35-41.5,59.09-77.1-50.55-49.72-92.57S3305.53,2214.23,3305.53,2214.23Z"/><path class="cls-14" d="M3307.75,2189.2c5.37,19.92-6.93,40.29-26.83,45.73-28.79,7.87-71.75,12.21-70.18-32.73,2.32-66.4,74.56-83.36,94-21.63a41.88,41.88,0,0,0,1.59,4.35A30.54,30.54,0,0,1,3307.75,2189.2Z"/><path class="cls-24" d="M3486.79,2156.21s-10.58-39.82-37.62-3.38,25,64.06,25,64.06-91.67-4.11-36.17-84.63C3438,2132.26,3466.8,2094.93,3486.79,2156.21Z"/><path class="cls-24" d="M3457.59,2322.1l-17.71-5.58a18.84,18.84,0,0,0-24.29,20.84l14.58,94.45Z"/><path class="cls-6" d="M3310.39,2414s-57,54.63-71.7,102.64c-41.15,134.81-13.06,406.52-13.06,406.52l232-14.1s20.53-27.39,32.14-62.7c0,0,121.94,9.41,153.05,3.14l7.6-71.32s-114.42-15.67-152.82-36c0,0,16.46-76.8-.78-125.39s-71.49-165.45-71.49-165.45S3355.84,2451.63,3310.39,2414Z"/><path class="cls-10" d="M3302.78,2421.69s67.95,86.36,140.44,104l-4.23-44.49-13.7-29.88-116.47-34.56Z"/><path class="cls-10" d="M3220.21,2853.38s208.39,43,256.15,24.71l-15.94,32.57-237.31-4.41Z"/><path class="cls-10" d="M3293.6,2556.28s66.16,267.59,121,304.42c0,0,27.94,14.21,68.32,3.45l8.48-21.67S3307.37,2548.68,3293.6,2556.28Z"/><path class="cls-27" d="M3351.87,2477.76a12,12,0,0,1,4.62-.21c10.23,1.53,48.47,11.26,68.8,71.81,26.74,79.66,47.26,158.24,53.25,181.78a12,12,0,0,0,8.95,8.72h0a12,12,0,0,1,9.3,12.58l-6.35,84.4a11.94,11.94,0,0,1-10.42,11c-15,1.88-43.89,3.91-60.67-5.16a11.3,11.3,0,0,1-3.67-3.28c-3.94-5.34-14.73-22.73-39.59-77.65-32.19-71.13-71.54-175.16-75-184.3a10.6,10.6,0,0,0-.52-1.2C3297.09,2569.36,3264.07,2499.37,3351.87,2477.76Z"/><path class="cls-28" d="M3655.41,3182.38h102.33s-82.91,192.37-26.76,440.7l-5,77.48s84.64,116.56,104.62,134.38,49.11-30.7,49.11-30.7-50.16-66.77-97.3-204.37c0,0,21.15-169.27,116.37-404.37,0,0,44.67-99.92-65.83-141.06,0,0-65.83-22.92-122.25-30S3655.41,3182.38,3655.41,3182.38Z"/><path class="cls-24" d="M3797.37,3751.53s32,49.46,76.93,48.42v27l-60.79-8.62Z"/><path class="cls-24" d="M3724.43,3028.82s-41,139.86,29.52,139.08-26.12,117.82-26.12,117.82,23.51-97.08,29.91-103.34h-72.63S3674.94,3045.69,3724.43,3028.82Z"/><rect class="cls-14" x="3819.45" y="2806.5" width="315.38" height="31.06"/><polygon class="cls-29" points="4113.63 2807.13 4242.58 2516.64 4270.97 2529.25 4134.1 2837.56 4113.63 2807.13"/><polygon class="cls-27" points="4242.58 2516.64 4251.51 2520.61 4131.54 2796.75 4120.36 2791.96 4242.58 2516.64"/><path class="cls-28" d="M3680,2801.78a7.62,7.62,0,0,1,7.26-6.29c8-.23,24.15-3.71,49-22.39,10.21-7.68,27.24-19.72,29.26-21.15l.42-.28c22.07-13.83,41.71-17.75,72.33,1.08a318.37,318.37,0,0,1,53.8,41.31,7.65,7.65,0,0,1-5.11,13.15c-21.69.58-58,.52-71.69-5.63a7.48,7.48,0,0,0-8.28,1.21c-9.89,9.24-36,31.53-61.48,35.23-23.22,3.37-50.26,1.89-63.63.8a7.67,7.67,0,0,1-6.9-9Z"/><path class="cls-24" d="M3692,2810.81s-2.95,32.44,53.57,23.13c0,0,30-6.52,65.57-35.16,0,0-30.79,32.25-61.05,38.38s-73.91,1-73.91,1Z"/><path class="cls-24" d="M3820.17,2770.34a5.52,5.52,0,0,0,2.82,7.72c8,3.23,22.7,9.45,26.32,12.92,5.05,4.85,23.38,3.91,23.38,3.91s8,8.08-2.09,12.6h11.86s3.64-15-5.3-16.51c-12.34-2-51.22-15.22-53-21.76C3823.27,2765.86,3821.59,2767.73,3820.17,2770.34Z"/><path class="cls-14" d="M3222.11,2881.68S3421,2896.91,3471,2888c4.35-.77-4,42.55-13.45,62.12l275.46,66s10.19,0-8.62,12.64-48.19,103.57-34.09,152.49c0,0,3.79,2.37-53.94,4.63-67.8,2.65-390.65,26.24-458.73-47.37C3146.67,3105.06,3127.44,3041.79,3222.11,2881.68Z"/><path class="cls-27" d="M3497.56,2742.15s117.82,37,152.82,36l-7.6,71.32s-55.41,9.12-207.13-1.6Z"/><path class="cls-30" d="M3627.9,2777.35s.27,54.75-82,68.07c0,0-29.11,7-50.2,6,0,0,127.86,5.76,167.2-5.21C3662.88,2846.2,3658.19,2765.71,3627.9,2777.35Z"/><path class="cls-27" d="M3330.39,2396.38s49.86,39,94.9,54.93l9,65.34s-131.26-65.83-128.72-109.91C3305.56,2406.74,3330.34,2381.92,3330.39,2396.38Z"/><path class="cls-27" d="M3425.29,2451.31l32.3,55.74s1.32-50.71-25.59-82.57Z"/><path class="cls-31" d="M3733.05,3016.18l-275.46-66s18.94-48.92,13.45-62.12c0,0-43.63,8.49-214.6-3.92,0,0,138.84,27.74,136.07,82.41-1.85,36.43,133.81,77.29,224.52,100.5h0s45.43,20.57,49,45.85,14.57,70.46,14.57,70.46l9.79-2s-11.26-39.63,6-95.55l.25.06s1.06-3.87,2.91-9.62h0c5-15.55,15.91-45,27.71-49.29C3727.2,3026.9,3741,3018.07,3733.05,3016.18Z"/><path class="cls-32" d="M3736.62,3644.26c2.12,7.54,4.1,15.1,7.28,22.29,9,20.29,23.11,38.66,35.41,57,13.32,19.89,25.59,40.5,39.11,60.23,6.89,10.06,14.67,17.94,27.44,19.66a60,60,0,0,0,17.7-.33c3.59-.61,7.25-2.93,10.74-3.2,3-.23,5.91,1.58,8.41,2.92,9.62,5.12,18.46,11.58,28,16.8,8.36,4.56,17.35,7.37,26,11.38,2.68,1.25,6.48,2.83,7.41,5.92,1.37,4.55-3.48,9.27-7.09,11.21-10.89,5.87-27.26,3.44-39.13,3.58-25.18.3-51.39,2.45-76.49-.6-8.23-1-16.68-2.78-22.17-9.34-10.23-12.18-13.69-30.48-19.55-44.73-4.95-12-10.8-24.49-20.33-33.78a68.68,68.68,0,0,0-24.7-15c-3.22-1.14-4.72-2.06-6.23,1.17-2.48,5.32-.33,14.29-.42,20-.17,11.57-.47,69.78-.48,73.93,0,1.68.84,6,0,7.43-1.12,1.92.35.77-2.87,1.35-1.59.28-9.41,1-10.8,0-2.09-1.44-1-13.21-1.14-16.48-.4-11.53-1.12-23.05-2.09-34.54-1.87-22.07-3.24-44.9-9.11-66.36-4.85-17.68-10.4-32.59-9.49-51.26.47-9.86,2.07-20.29,7-29,7.1-12.62,21.14-22.18,32-31.47Z"/><path class="cls-15" d="M4389,2837.56H3743.88c-4.82,0-8.73,17-8.73,38v24.95c0,21,3.91,38,8.73,38H4389c4.82,0,8.73-17,8.73-38v-24.95C4397.77,2854.56,4393.86,2837.56,4389,2837.56Z"/><path class="cls-33" d="M4389,2916.43H3743.88c-4.82,0-8.73-17-8.73-38v22c0,21,3.91,38,8.73,38H4389c4.82,0,8.73-17,8.73-38v-22C4397.77,2899.42,4393.86,2916.43,4389,2916.43Z"/><path class="cls-14" d="M4214.94,2938.46l4.82,20.18c5,20.89,14.17,33.75,24.11,33.75h54.52l-2.23-53.93Z"/><polygon class="cls-34" points="4298.39 2992.39 4334.78 3870.8 4350.88 3870.8 4350.88 2938.46 4296.16 2938.46 4298.39 2992.39"/><path class="cls-14" d="M3823.66,2992.39h54.52c9.94,0,19.12-12.86,24.11-33.75l4.82-20.18h-81.22Z"/><polygon class="cls-34" points="3771.17 2938.46 3771.17 3870.8 3787.27 3870.8 3825.89 2938.46 3771.17 2938.46"/><path class="cls-35" d="M3510,2129.28s-136.28,42.36-204.43,54.11C3305.53,2183.39,3414.21,2057.15,3510,2129.28Z"/><path class="cls-14" d="M3604.92,2067.81s-50.53,73.26-133.8,62.29-165.59,53.29-165.59,53.29-2.32-146.52,199.08-143.79C3504.61,2039.6,3562.61,2040.79,3604.92,2067.81Z"/><circle class="cls-25" cx="3466.21" cy="2211.76" r="18.81"/><path class="cls-36" d="M3627.9,2777.35s7.59-8.35,7.2,17.12,12.26,42.76,5.29,58c0,0-3.43,6.14,23,2s31.15-4.7,31.15-4.7,5,.88,2.94-16.16-4.12-55-4.12-55S3624.42,2756.9,3627.9,2777.35Z"/><path class="cls-24" d="M3780.37,2819.48s25.28-16.65,29.32-25.85,7.06,6.33,42,11.48l22.63,2.38s-48.53,1.16-63.28-8.71C3811.09,2798.78,3794.29,2816.5,3780.37,2819.48Z"/><path class="cls-24" d="M3815.92,2752l55.44,24-19-14S3806.08,2741.79,3815.92,2752Z"/><path class="cls-28" d="M3812.89,2741.5s35.46-.11,38.46,6.35,1.06,14.1,1.06,14.1l-37.28-15.57Z"/><path class="cls-24" d="M3827.37,2752s19.46,1.54,19.79,7.57S3827.37,2752,3827.37,2752Z"/><path class="cls-37" d="M1923.41,2229a101.32,101.32,0,0,1,12.48-9,83.42,83.42,0,0,1,12.89-4.86l6.46-1.19c2.15-.28,4.36.38,6.48-.43l6.43.44c1.74.83,3.67.6,5.49,1a82,82,0,0,1,13.81,5.1h0l.49.35c2.49,1.7,5.2,3.07,7.48,5.08,1.59,1.4,3.25,2.73,4.88,4.09a83.37,83.37,0,0,1,9.67,13.21,114.24,114.24,0,0,1,4.69,12.52c.31,1.86.63,3.72.94,5.57.15,2.59.3,5.19.44,7.78,0,1.57-.09,3.13-.14,4.7l-1.29,7.76a76.06,76.06,0,0,1-4.75,12.47,56.69,56.69,0,0,1-4,6.55,61.49,61.49,0,0,1-18.39,16,75.75,75.75,0,0,1-12.92,5l-6.46,1.1-5.58.3-7.23-.25-6.54-1.12a74.59,74.59,0,0,1-12.81-4.88,72.39,72.39,0,0,1-11.26-8.21,64.92,64.92,0,0,1-11.12-14.13,110.77,110.77,0,0,1-4.87-12.82c-.31-1.72-.63-3.44-.94-5.16,0-.47.14-.95-.27-1.33v0c-.09-2.13-.19-4.27-.28-6.4l0-1.3c0-.42,0-.84.08-1.26.06-1.31.13-2.63.19-3.94.39-2.14.78-4.27,1.16-6.41a81,81,0,0,1,4.91-12.95,90.91,90.91,0,0,1,9-12.31A1.24,1.24,0,0,0,1923.41,2229Zm38.31,27.75c-.33-.51-.5-.73-.63-1-2.72-5.11-7-7.52-12.73-6.92-5.5.58-9.21,3.75-11,9-2.15,6.35-.62,12.19,3,17.55,5.14,7.61,12.35,12.87,20.22,17.35a2,2,0,0,0,2.2,0,65.16,65.16,0,0,0,17.21-13.44c4.48-5.13,7.38-10.85,6.73-18s-6.18-12.48-13-12.52C1968.13,2248.75,1964.3,2251.51,1961.72,2256.76Z"/><path class="cls-18" d="M1961.72,2256.76c2.58-5.25,6.41-8,12-8,6.78,0,12.31,5.5,13,12.52s-2.25,12.85-6.73,18a65.16,65.16,0,0,1-17.21,13.44,2,2,0,0,1-2.2,0c-7.87-4.48-15.08-9.74-20.22-17.35-3.61-5.36-5.14-11.2-3-17.55,1.77-5.25,5.48-8.42,11-9,5.7-.6,10,1.81,12.73,6.92C1961.22,2256,1961.39,2256.25,1961.72,2256.76Z"/><path class="cls-37" d="M2334.59,2022.6c4.81-3.8,9.54-7.7,14.9-10.74a99.6,99.6,0,0,1,15.4-5.81l7.71-1.42c2.57-.34,5.22.45,7.74-.51l7.69.52c2.08,1,4.38.71,6.56,1.15a97.66,97.66,0,0,1,16.49,6.09h0l.6.42c3,2,6.2,3.66,8.92,6.06,1.91,1.68,3.89,3.26,5.84,4.89A99.6,99.6,0,0,1,2438,2039a134.5,134.5,0,0,1,5.61,15c.37,2.21.75,4.43,1.12,6.65.18,3.1.35,6.19.53,9.29-.06,1.87-.11,3.74-.17,5.62-.51,3.09-1,6.17-1.54,9.26a90,90,0,0,1-5.68,14.9c-1.55,2.62-2.84,5.46-4.72,7.83a73.8,73.8,0,0,1-22,19.15,90.46,90.46,0,0,1-15.44,5.93l-7.71,1.31-6.66.36-8.65-.3-7.8-1.34a89,89,0,0,1-15.3-5.83,85.59,85.59,0,0,1-13.46-9.8c-5.36-4.92-9.49-10.76-13.28-16.88a132.77,132.77,0,0,1-5.82-15.31c-.37-2.06-.75-4.11-1.12-6.17.06-.56.17-1.13-.33-1.58V2077q-.18-3.83-.34-7.65l0-1.56c0-.5.07-1,.1-1.5.08-1.57.15-3.14.23-4.71q.69-3.82,1.39-7.65a95.92,95.92,0,0,1,5.86-15.47,110.32,110.32,0,0,1,10.71-14.71A1.47,1.47,0,0,0,2334.59,2022.6Zm45.75,33.15c-.39-.61-.59-.86-.74-1.15-3.25-6.11-8.4-9-15.21-8.27-6.57.69-11,4.48-13.12,10.75-2.56,7.59-.74,14.55,3.58,21,6.13,9.1,14.75,15.38,24.15,20.73a2.36,2.36,0,0,0,2.62-.05c7.66-4.33,14.74-9.41,20.56-16.06,5.36-6.12,8.82-12.95,8-21.47s-7.38-14.91-15.48-15C2388,2046.18,2383.43,2049.49,2380.34,2055.75Z"/><path class="cls-18" d="M2380.34,2055.75c3.09-6.26,7.66-9.57,14.4-9.52,8.1,0,14.7,6.57,15.48,15s-2.68,15.35-8,21.47c-5.82,6.65-12.9,11.73-20.56,16.06a2.36,2.36,0,0,1-2.62.05c-9.4-5.35-18-11.63-24.15-20.73-4.32-6.41-6.14-13.37-3.58-21,2.12-6.27,6.55-10.06,13.12-10.75,6.81-.72,12,2.16,15.21,8.27C2379.75,2054.89,2380,2055.14,2380.34,2055.75Z"/><path class="cls-37" d="M2704.76,2226.73c4.81-3.8,9.54-7.71,14.9-10.75a100.63,100.63,0,0,1,15.4-5.81l7.72-1.42c2.56-.33,5.21.45,7.74-.51l7.68.53c2.08,1,4.38.71,6.56,1.14a99,99,0,0,1,16.5,6.1h0l.59.42c3,2,6.2,3.66,8.92,6,1.91,1.68,3.89,3.27,5.84,4.9a100.2,100.2,0,0,1,11.55,15.77,136,136,0,0,1,5.6,15q.55,3.33,1.13,6.65c.17,3.1.35,6.2.52,9.3,0,1.87-.11,3.74-.17,5.61l-1.53,9.27a92.19,92.19,0,0,1-5.68,14.9c-1.56,2.62-2.85,5.46-4.73,7.82-6.14,7.71-13.26,14.36-22,19.15a91.77,91.77,0,0,1-15.45,5.94l-7.71,1.31-6.66.35-8.65-.3-7.8-1.33a89.28,89.28,0,0,1-15.3-5.83,85.59,85.59,0,0,1-13.46-9.8c-5.35-4.92-9.49-10.76-13.28-16.89a132.77,132.77,0,0,1-5.82-15.31c-.37-2.05-.74-4.11-1.12-6.16.06-.56.17-1.14-.32-1.59v-.05c-.11-2.55-.23-5.09-.34-7.64,0-.52,0-1,0-1.56s.06-1,.1-1.5c.07-1.57.14-3.14.22-4.71.46-2.55.93-5.1,1.39-7.65a96.87,96.87,0,0,1,5.86-15.47,109.51,109.51,0,0,1,10.72-14.71A1.49,1.49,0,0,0,2704.76,2226.73Zm45.76,33.14c-.4-.6-.6-.86-.75-1.14-3.25-6.11-8.4-9-15.21-8.27-6.57.69-11,4.48-13.12,10.74-2.56,7.59-.74,14.56,3.58,21,6.14,9.11,14.75,15.39,24.15,20.74a2.39,2.39,0,0,0,2.63-.05c7.65-4.34,14.73-9.41,20.55-16.06,5.36-6.12,8.83-12.95,8-21.47s-7.38-14.91-15.48-15C2758.17,2250.31,2753.6,2253.61,2750.52,2259.87Z"/><path class="cls-18" d="M2750.52,2259.87c3.08-6.26,7.65-9.56,14.39-9.52,8.1.06,14.71,6.58,15.48,15s-2.68,15.35-8,21.47c-5.82,6.65-12.9,11.72-20.55,16.06a2.39,2.39,0,0,1-2.63.05c-9.4-5.35-18-11.63-24.15-20.74-4.32-6.4-6.14-13.37-3.58-21,2.12-6.26,6.55-10,13.12-10.74,6.81-.72,12,2.16,15.21,8.27C2749.92,2259,2750.12,2259.27,2750.52,2259.87Z"/><path class="cls-37" d="M3033.57,2145.75A101.05,101.05,0,0,1,3046,2137a85,85,0,0,1,12.89-4.73l6.45-1.15c2.15-.28,4.36.36,6.48-.42l6.43.43c1.74.81,3.66.58,5.49.93a84.06,84.06,0,0,1,13.8,5h0l.5.34c2.48,1.65,5.19,3,7.47,4.93,1.59,1.36,3.25,2.65,4.88,4a81.16,81.16,0,0,1,9.66,12.83,108.73,108.73,0,0,1,4.69,12.17c.31,1.8.63,3.6.94,5.41q.22,3.78.44,7.56c0,1.52-.09,3-.14,4.56q-.65,3.78-1.28,7.54a72.77,72.77,0,0,1-4.76,12.12,53.65,53.65,0,0,1-3.95,6.36,61.23,61.23,0,0,1-18.38,15.58,77.78,77.78,0,0,1-12.92,4.83l-6.45,1.06-5.58.29-7.23-.24-6.53-1.09a76.5,76.5,0,0,1-12.8-4.74,71.13,71.13,0,0,1-11.26-8,63.72,63.72,0,0,1-11.11-13.74,105.28,105.28,0,0,1-4.87-12.45c-.32-1.67-.63-3.34-.94-5,.05-.46.14-.93-.27-1.29v0c-.09-2.08-.19-4.15-.28-6.22l0-1.27c0-.4,0-.81.08-1.22.06-1.28.13-2.55.19-3.83.39-2.08.77-4.15,1.16-6.22a77.44,77.44,0,0,1,4.91-12.59,89.63,89.63,0,0,1,9-12A1.2,1.2,0,0,0,3033.57,2145.75Zm38.29,27c-.33-.49-.5-.7-.63-.94-2.72-5-7-7.31-12.72-6.72a12.28,12.28,0,0,0-11,8.74c-2.14,6.17-.62,11.84,3,17.05,5.14,7.4,12.35,12.51,20.21,16.86a2,2,0,0,0,2.2,0,64.58,64.58,0,0,0,17.2-13.06c4.48-5,7.38-10.54,6.72-17.46A13.23,13.23,0,0,0,3083.9,2165C3078.26,2164.93,3074.44,2167.62,3071.86,2172.71Z"/><path class="cls-18" d="M3071.86,2172.71c2.58-5.09,6.4-7.78,12-7.75a13.23,13.23,0,0,1,12.95,12.18c.66,6.92-2.24,12.48-6.72,17.46a64.58,64.58,0,0,1-17.2,13.06,2,2,0,0,1-2.2,0c-7.86-4.35-15.07-9.46-20.21-16.86-3.61-5.21-5.13-10.88-3-17.05a12.28,12.28,0,0,1,11-8.74c5.69-.59,10,1.75,12.72,6.72C3071.36,2172,3071.53,2172.22,3071.86,2172.71Z"/><path class="cls-37" d="M1656,2207.58c5.69-4.37,11.29-8.86,17.63-12.36a120,120,0,0,1,18.22-6.68l9.13-1.63c3-.39,6.17.51,9.16-.59l9.09.6c2.46,1.14,5.19.82,7.77,1.32a118.74,118.74,0,0,1,19.51,7h0l.7.48c3.51,2.33,7.33,4.21,10.56,7,2.25,1.93,4.6,3.75,6.9,5.63a115.09,115.09,0,0,1,13.67,18.14,152.66,152.66,0,0,1,6.62,17.21c.45,2.55.89,5.1,1.34,7.65q.3,5.34.62,10.69-.11,3.22-.2,6.46-.91,5.33-1.82,10.66a103,103,0,0,1-6.72,17.13c-1.84,3-3.36,6.28-5.59,9-7.26,8.86-15.69,16.51-26,22a109.33,109.33,0,0,1-18.27,6.83l-9.12,1.5-7.89.41-10.23-.34-9.23-1.54a107.49,107.49,0,0,1-18.11-6.7,101.59,101.59,0,0,1-15.92-11.28c-6.34-5.65-11.23-12.37-15.71-19.42a149.06,149.06,0,0,1-6.89-17.61l-1.32-7.09c.06-.65.19-1.31-.39-1.82v-.06c-.13-2.93-.27-5.86-.4-8.79,0-.6,0-1.2,0-1.8l.12-1.72c.09-1.81.18-3.62.26-5.42l1.65-8.8a108.85,108.85,0,0,1,6.94-17.8c3.59-6.08,8.11-11.51,12.67-16.91A1.73,1.73,0,0,0,1656,2207.58Zm54.14,38.13c-.47-.7-.71-1-.88-1.32-3.85-7-9.94-10.34-18-9.52-7.77.8-13,5.16-15.52,12.36-3,8.73-.88,16.75,4.23,24.11,7.26,10.47,17.46,17.7,28.58,23.85a2.86,2.86,0,0,0,3.1-.06c9.06-5,17.44-10.82,24.32-18.47,6.35-7,10.45-14.9,9.52-24.69a18.72,18.72,0,0,0-18.32-17.21C1719.19,2234.7,1713.78,2238.5,1710.13,2245.71Z"/><path class="cls-18" d="M1710.13,2245.71c3.65-7.21,9.06-11,17-10.95a18.72,18.72,0,0,1,18.32,17.21c.93,9.79-3.17,17.65-9.52,24.69-6.88,7.65-15.26,13.49-24.32,18.47a2.86,2.86,0,0,1-3.1.06c-11.12-6.15-21.32-13.38-28.58-23.85-5.11-7.36-7.26-15.38-4.23-24.11,2.5-7.2,7.75-11.56,15.52-12.36,8.06-.82,14.15,2.49,18,9.52C1709.42,2244.71,1709.66,2245,1710.13,2245.71Z"/><path class="cls-38" d="M2321.16,2335.92a65.43,65.43,0,1,1,.35-130.85c36.1,0,65.22,29.48,65.19,65.89C2386.67,2306.9,2357.36,2336,2321.16,2335.92Zm7.13-37c5.64,0,11.27.08,16.9,0,4.39-.08,5.56-2.42,4.9-6.71-.58-3.81,2.51-7.48,1.4-11.56,0-.07.19-.19.29-.29,2.18-2.28,2.13-4.83.59-7.33-.67-1.09-.88-1.66-.12-2.9,3.05-5,1.18-8.25-4.82-8.43-4.5-.13-9,0-13.52-.08-1.18,0-2.69.6-3.45-.79s.56-2.18,1.21-3.24a16,16,0,0,0,1.27-15.33c-1.17-2.75-3.24-4.23-6.38-3.55s-3.44,2.94-3.37,5.51.13,5.51-2.34,7.33c-4.66,3.42-7.32,8.47-10.73,12.9a12.44,12.44,0,0,0-2.65,7.46c-.07,7.61,0,15.21,0,22.82,0,3,1.35,4.31,4.39,4.25C2317.31,2298.83,2322.8,2298.91,2328.29,2298.9Zm-25.1-13.27h0c0-2.67,0-5.34,0-8,0-9.64,0-9.46-9.57-9.6-3.84-.06-5,1.56-4.93,4.95.06,6.61,0,13.21,0,19.81,0,11.14,0,11.1,11.24,10.44,2.31-.14,3.29-.92,3.25-3.26C2303.13,2295.19,2303.19,2290.41,2303.19,2285.63Z"/><path class="cls-39" d="M2328.29,2298.91c-5.49,0-11-.08-16.48,0-3,.06-4.41-1.25-4.39-4.25,0-7.61,0-15.21,0-22.82a12.44,12.44,0,0,1,2.65-7.46c3.41-4.43,6.07-9.48,10.73-12.9,2.47-1.82,2.41-4.62,2.34-7.33s.36-4.86,3.37-5.51,5.21.8,6.38,3.55a16,16,0,0,1-1.27,15.33c-.65,1.06-2,1.84-1.21,3.24s2.27.77,3.45.79c4.51.08,9,0,13.52.08,6,.18,7.87,3.43,4.82,8.43-.76,1.24-.55,1.81.12,2.9,1.54,2.5,1.59,5.05-.59,7.33-.1.1-.31.22-.29.29,1.11,4.08-2,7.75-1.4,11.56.66,4.29-.51,6.63-4.9,6.71C2339.56,2299,2333.93,2298.9,2328.29,2298.91Z"/><path class="cls-39" d="M2303.19,2285.63c0,4.78-.06,9.56,0,14.33,0,2.34-.94,3.12-3.25,3.26-11.21.66-11.23.7-11.24-10.44,0-6.6,0-13.2,0-19.81,0-3.39,1.09-5,4.93-4.95,9.56.14,9.57,0,9.57,9.6,0,2.67,0,5.34,0,8Z"/><path class="cls-38" d="M3097,2048.07a65.43,65.43,0,0,1-65.31-65.29c0-36,29.65-65.6,65.66-65.56s65.22,29.49,65.19,65.89C3162.5,2019.06,3133.2,2048.1,3097,2048.07Zm7.13-37c5.64,0,11.27.08,16.91,0,4.39-.08,5.55-2.42,4.89-6.71-.58-3.81,2.51-7.48,1.4-11.56,0-.06.19-.19.29-.29,2.19-2.28,2.13-4.83.59-7.33-.67-1.09-.88-1.66-.12-2.9,3.05-5,1.18-8.25-4.82-8.43-4.5-.13-9,0-13.52-.08-1.17,0-2.69.6-3.45-.79s.56-2.18,1.21-3.24a16,16,0,0,0,1.27-15.33c-1.17-2.75-3.24-4.22-6.38-3.55s-3.44,2.94-3.37,5.51.14,5.51-2.34,7.33c-4.66,3.42-7.32,8.47-10.73,12.9a12.44,12.44,0,0,0-2.65,7.46c-.07,7.61,0,15.21-.05,22.82,0,3,1.35,4.31,4.4,4.25C3093.14,2011,3098.63,2011.06,3104.12,2011.05Zm-25.1-13.27h0v-8c0-9.64,0-9.46-9.58-9.6-3.84-.06-5,1.56-4.93,4.95.06,6.61,0,13.21,0,19.81,0,11.14,0,11.1,11.24,10.44,2.31-.14,3.3-.92,3.26-3.26C3079,2007.34,3079,2002.56,3079,1997.78Z"/><path class="cls-39" d="M3104.12,2011.06c-5.49,0-11-.07-16.47,0-3.05.06-4.41-1.25-4.4-4.25,0-7.61,0-15.21.05-22.82a12.44,12.44,0,0,1,2.65-7.46c3.41-4.43,6.07-9.48,10.73-12.9,2.48-1.82,2.41-4.62,2.34-7.33s.36-4.85,3.37-5.51,5.21.8,6.38,3.55a16,16,0,0,1-1.27,15.33c-.65,1.06-2,1.84-1.21,3.24s2.28.77,3.45.79c4.51.08,9,0,13.52.08,6,.18,7.87,3.43,4.82,8.43-.76,1.24-.55,1.81.12,2.9,1.54,2.5,1.6,5-.59,7.33-.1.1-.31.23-.29.29,1.11,4.08-2,7.75-1.4,11.56.66,4.29-.5,6.63-4.89,6.71C3115.39,2011.13,3109.76,2011.05,3104.12,2011.06Z"/><path class="cls-39" d="M3079,1997.78c0,4.78-.06,9.56,0,14.33,0,2.34-1,3.12-3.26,3.26-11.21.66-11.23.7-11.24-10.44,0-6.6,0-13.2,0-19.81,0-3.39,1.09-5,4.93-4.95,9.57.14,9.57,0,9.58,9.6v8Z"/><path class="cls-38" d="M2781.5,2086.31a84.56,84.56,0,0,1-84.4-84.37c0-46.53,38.32-84.78,84.85-84.72s84.28,38.1,84.24,85.15C2866.15,2048.81,2828.28,2086.35,2781.5,2086.31Zm9.21-47.84c7.28,0,14.57.1,21.84,0,5.68-.1,7.18-3.13,6.33-8.67-.75-4.92,3.24-9.67,1.81-14.94,0-.08.25-.24.37-.37,2.83-3,2.76-6.25.77-9.47-.87-1.41-1.14-2.15-.16-3.75,3.94-6.46,1.52-10.66-6.22-10.89-5.82-.18-11.65,0-17.47-.11-1.53,0-3.48.77-4.46-1s.72-2.82,1.56-4.18c3.85-6.28,4.55-13,1.64-19.81-1.52-3.56-4.19-5.46-8.24-4.59-3.89.84-4.45,3.8-4.36,7.12.09,3.51.17,7.12-3,9.46-6,4.42-9.46,11-13.87,16.68a16,16,0,0,0-3.42,9.64c-.09,9.83,0,19.66-.07,29.49,0,3.87,1.75,5.57,5.68,5.49C2776.52,2038.38,2783.62,2038.48,2790.71,2038.47Zm-32.43-17.15h0c0-3.45,0-6.9,0-10.35,0-12.46,0-12.22-12.37-12.41-5-.08-6.4,2-6.37,6.41.08,8.53,0,17.06,0,25.59,0,14.39,0,14.34,14.53,13.49,3-.18,4.25-1.19,4.2-4.21C2758.2,2033.67,2758.28,2027.49,2758.28,2021.32Z"/><path class="cls-39" d="M2790.71,2038.48c-7.09,0-14.19-.1-21.29,0-3.93.08-5.7-1.62-5.68-5.49.05-9.83,0-19.66.07-29.49a16,16,0,0,1,3.42-9.64c4.41-5.72,7.85-12.26,13.87-16.68,3.19-2.34,3.11-6,3-9.46-.09-3.32.47-6.28,4.36-7.12,4.05-.87,6.72,1,8.24,4.59,2.91,6.85,2.21,13.53-1.64,19.81-.84,1.36-2.54,2.38-1.56,4.18s2.93,1,4.46,1c5.82.1,11.65-.07,17.47.11,7.74.23,10.16,4.43,6.22,10.89-1,1.6-.71,2.34.16,3.75,2,3.22,2.06,6.52-.77,9.47-.12.13-.39.29-.37.37,1.43,5.27-2.56,10-1.81,14.94.85,5.54-.65,8.57-6.33,8.67C2805.28,2038.57,2798,2038.47,2790.71,2038.48Z"/><path class="cls-39" d="M2758.28,2021.32c0,6.17-.08,12.35,0,18.52.05,3-1.22,4-4.2,4.21-14.5.85-14.52.9-14.53-13.49,0-8.53.05-17.06,0-25.59,0-4.39,1.41-6.49,6.37-6.41,12.36.19,12.37,0,12.37,12.41,0,3.45,0,6.9,0,10.35Z"/><path class="cls-38" d="M2579.34,2199.7a42.14,42.14,0,1,1,42.21-41.84A42.16,42.16,0,0,1,2579.34,2199.7Zm4.59-23.84c3.63,0,7.26,0,10.89,0,2.82-.05,3.57-1.56,3.15-4.32-.38-2.45,1.62-4.82.9-7.44,0,0,.12-.12.19-.19a3.57,3.57,0,0,0,.38-4.72,1.44,1.44,0,0,1-.08-1.87c2-3.22.76-5.31-3.1-5.43-2.9-.08-5.81,0-8.71,0-.76,0-1.73.39-2.22-.51s.36-1.4.78-2.08a10.29,10.29,0,0,0,.81-9.88,3.36,3.36,0,0,0-4.1-2.28c-1.94.42-2.22,1.89-2.18,3.55s.09,3.55-1.5,4.71c-3,2.21-4.72,5.46-6.92,8.31a8.06,8.06,0,0,0-1.7,4.81c0,4.9,0,9.8,0,14.69,0,1.94.87,2.78,2.83,2.74C2576.86,2175.81,2580.39,2175.86,2583.93,2175.86Zm-16.17-8.55h0v-5.16c0-6.21,0-6.09-6.16-6.18-2.48,0-3.2,1-3.18,3.19,0,4.25,0,8.5,0,12.76,0,7.17,0,7.14,7.24,6.72,1.48-.09,2.12-.59,2.09-2.1C2567.73,2173.46,2567.76,2170.39,2567.76,2167.31Z"/><path class="cls-39" d="M2583.93,2175.86c-3.54,0-7.07-.05-10.61,0-2,0-2.84-.8-2.83-2.74,0-4.89,0-9.79,0-14.69a8.06,8.06,0,0,1,1.7-4.81c2.2-2.85,3.92-6.1,6.92-8.31,1.59-1.16,1.55-3,1.5-4.71s.24-3.13,2.18-3.55a3.36,3.36,0,0,1,4.1,2.28,10.29,10.29,0,0,1-.81,9.88c-.42.68-1.27,1.18-.78,2.08s1.46.5,2.22.51c2.9,0,5.81,0,8.71,0,3.86.12,5.06,2.21,3.1,5.43a1.44,1.44,0,0,0,.08,1.87,3.57,3.57,0,0,1-.38,4.72c-.07.07-.2.15-.19.19.72,2.62-1.28,5-.9,7.44.42,2.76-.33,4.27-3.15,4.32C2591.19,2175.91,2587.56,2175.86,2583.93,2175.86Z"/><path class="cls-39" d="M2567.76,2167.31c0,3.08,0,6.15,0,9.23,0,1.51-.61,2-2.09,2.1-7.23.42-7.24.45-7.24-6.72,0-4.26,0-8.51,0-12.76,0-2.19.7-3.23,3.18-3.19,6.16.09,6.16,0,6.16,6.18v5.16Z"/><path class="cls-38" d="M1876.48,2198.1a42.14,42.14,0,1,1,42.2-41.84A42.14,42.14,0,0,1,1876.48,2198.1Zm4.59-23.84c3.63,0,7.26,0,10.88,0,2.83,0,3.58-1.56,3.16-4.32-.38-2.45,1.61-4.81.9-7.44,0,0,.12-.12.18-.19a3.56,3.56,0,0,0,.39-4.72,1.44,1.44,0,0,1-.09-1.87c2-3.22.76-5.31-3.1-5.43-2.9-.08-5.8,0-8.7-.05-.76,0-1.74.39-2.22-.51s.36-1.4.77-2.08a10.32,10.32,0,0,0,.82-9.88,3.37,3.37,0,0,0-4.11-2.28c-1.94.42-2.21,1.89-2.17,3.55s.09,3.55-1.5,4.71c-3,2.21-4.72,5.46-6.92,8.31a7.93,7.93,0,0,0-1.7,4.81c-.05,4.9,0,9.8,0,14.7,0,1.93.88,2.77,2.84,2.74C1874,2174.22,1877.53,2174.27,1881.07,2174.26Zm-16.17-8.55h0v-5.15c0-6.21,0-6.1-6.17-6.19-2.47,0-3.19,1-3.17,3.19,0,4.25,0,8.51,0,12.76,0,7.17,0,7.14,7.24,6.72,1.49-.09,2.12-.59,2.1-2.1C1864.86,2171.87,1864.9,2168.79,1864.9,2165.71Z"/><path class="cls-39" d="M1881.07,2174.26c-3.54,0-7.08,0-10.61,0-2,0-2.84-.81-2.84-2.74,0-4.9,0-9.8,0-14.7a7.93,7.93,0,0,1,1.7-4.81c2.2-2.85,3.91-6.1,6.92-8.31,1.59-1.16,1.54-3,1.5-4.71s.23-3.13,2.17-3.55a3.37,3.37,0,0,1,4.11,2.28,10.32,10.32,0,0,1-.82,9.88c-.41.68-1.26,1.18-.77,2.08s1.46.5,2.22.51c2.9.05,5.8,0,8.7.05,3.86.12,5.07,2.21,3.1,5.43a1.44,1.44,0,0,0,.09,1.87,3.56,3.56,0,0,1-.39,4.72c-.06.07-.19.15-.18.19.71,2.63-1.28,5-.9,7.44.42,2.76-.33,4.28-3.16,4.32C1888.33,2174.31,1884.7,2174.26,1881.07,2174.26Z"/><path class="cls-39" d="M1864.9,2165.71c0,3.08,0,6.16,0,9.23,0,1.51-.61,2-2.1,2.1-7.22.42-7.23.45-7.24-6.72,0-4.25,0-8.51,0-12.76,0-2.19.7-3.23,3.17-3.19,6.16.09,6.17,0,6.17,6.19v5.15Z"/><path class="cls-38" d="M2944.94,2157.56a42.14,42.14,0,1,1,42.21-41.83A42.15,42.15,0,0,1,2944.94,2157.56Zm4.59-23.84c3.63,0,7.26.05,10.89,0,2.82-.05,3.57-1.56,3.15-4.33-.38-2.45,1.62-4.81.9-7.44,0,0,.12-.12.19-.18a3.57,3.57,0,0,0,.38-4.72,1.44,1.44,0,0,1-.08-1.87c2-3.22.76-5.32-3.1-5.43-2.9-.09-5.81,0-8.71,0-.76,0-1.73.38-2.22-.52s.36-1.4.78-2.08a10.27,10.27,0,0,0,.81-9.87,3.37,3.37,0,0,0-4.1-2.29c-1.94.42-2.22,1.9-2.18,3.55s.09,3.55-1.5,4.72c-3,2.2-4.72,5.46-6.91,8.31a8,8,0,0,0-1.71,4.8c0,4.9,0,9.8,0,14.7,0,1.93.87,2.78,2.83,2.74C2942.46,2133.68,2946,2133.73,2949.53,2133.72Zm-16.17-8.54h0V2120c0-6.21,0-6.1-6.16-6.19-2.48,0-3.2,1-3.18,3.19,0,4.26,0,8.51,0,12.76,0,7.17,0,7.15,7.24,6.72,1.48-.09,2.12-.59,2.09-2.1C2933.33,2131.33,2933.36,2128.25,2933.36,2125.18Z"/><path class="cls-39" d="M2949.53,2133.73c-3.54,0-7.07-.05-10.61,0-2,0-2.84-.81-2.83-2.74,0-4.9,0-9.8,0-14.7a8,8,0,0,1,1.71-4.8c2.19-2.85,3.91-6.11,6.91-8.31,1.59-1.17,1.55-3,1.5-4.72s.24-3.13,2.18-3.55a3.37,3.37,0,0,1,4.1,2.29,10.27,10.27,0,0,1-.81,9.87c-.42.68-1.27,1.19-.78,2.08s1.46.5,2.22.52c2.9,0,5.81,0,8.71,0,3.86.11,5.06,2.21,3.1,5.43a1.44,1.44,0,0,0,.08,1.87,3.57,3.57,0,0,1-.38,4.72c-.07.06-.2.14-.19.18.72,2.63-1.28,5-.9,7.44.42,2.77-.33,4.28-3.15,4.33C2956.79,2133.77,2953.16,2133.72,2949.53,2133.73Z"/><path class="cls-39" d="M2933.36,2125.18c0,3.07,0,6.15,0,9.22,0,1.51-.61,2-2.09,2.1-7.23.43-7.24.45-7.24-6.72,0-4.25,0-8.5,0-12.76,0-2.18.7-3.23,3.18-3.19,6.16.09,6.16,0,6.16,6.19v5.16Z"/><rect class="cls-40" x="830.92" y="2132.62" width="469.66" height="19.67"/><rect class="cls-40" x="830.92" y="2176.19" width="469.66" height="19.67"/><rect class="cls-40" x="830.92" y="2219.76" width="256.28" height="19.67"/><rect class="cls-40" x="830.92" y="2260.47" width="469.66" height="19.67"/><rect class="cls-40" x="830.92" y="2304.04" width="469.66" height="19.67"/><rect class="cls-40" x="830.92" y="2347.61" width="256.28" height="19.67"/><rect class="cls-40" x="830.92" y="2388.31" width="469.66" height="19.67"/><rect class="cls-40" x="830.92" y="2431.88" width="469.66" height="19.67"/><rect class="cls-40" x="830.92" y="2475.45" width="256.28" height="19.67"/><rect class="cls-40" x="830.92" y="2516.15" width="469.66" height="19.67"/><rect class="cls-40" x="830.92" y="2559.72" width="469.66" height="19.67"/><rect class="cls-40" x="830.92" y="2603.29" width="256.28" height="19.67"/><rect class="cls-40" x="830.92" y="1934.4" width="657.44" height="164.74"/><rect class="cls-41" x="897.63" y="2811.79" width="17.4" height="153.79"/><rect class="cls-42" x="953.13" y="2874.76" width="17.4" height="90.83"/><rect class="cls-41" x="1005.77" y="2811.79" width="17.4" height="153.79"/><rect class="cls-43" x="1061.27" y="2874.76" width="17.4" height="90.83"/><polygon class="cls-44" points="1137.13 2983.99 847.6 2983.99 847.6 2792.87 851.24 2792.87 851.24 2980.34 1137.13 2980.34 1137.13 2983.99"/><polygon class="cls-44" points="840.54 2802.74 858.76 2802.74 849.65 2784.81 840.54 2802.74"/><polygon class="cls-44" points="1133.09 2972.75 1133.09 2990.97 1151.02 2981.86 1133.09 2972.75"/><polygon class="cls-44" points="1111.73 2766.19 1125.96 2777.57 1130.04 2757.88 1111.73 2766.19"/><polygon class="cls-44" points="969.22 2817.04 899.89 2765.08 870.18 2781.2 868.96 2778.95 900.12 2762.05 968.81 2813.53 1005.19 2769.94 1075.55 2813.66 1123.17 2764.97 1125 2766.76 1075.94 2816.92 1005.74 2773.3 969.22 2817.04"/><circle class="cls-41" cx="899.8" cy="2764.49" r="6.22"/><circle class="cls-41" cx="1005.26" cy="2772.55" r="6.22"/><circle class="cls-41" cx="1075.2" cy="2815.29" r="6.22"/><path class="cls-45" d="M3505.07,1468.31l-602.44-2.42c-25-.1-45.31,25.83-45.44,57.93l-.56,140.83c-.13,32.09,20,58.19,45,58.29l130.09.37,4.71,90.5,72.31-90,395.34,1.59c25,.1,45.31-25.83,45.44-57.93l.56-140.83C3550.17,1494.51,3530,1468.41,3505.07,1468.31Z"/><path class="cls-46" d="M3223.82,1271.11l-303.63-1.22c-12.58-.05-22.83,13-22.89,29.2l-.29,71c-.06,16.18,10.08,29.33,22.66,29.38l65.56.19,2.38,45.61,36.44-45.38,199.25.8c12.58,0,22.83-13,22.9-29.19l.28-71C3246.55,1284.31,3236.4,1271.16,3223.82,1271.11Z"/><rect class="cls-2" x="2926.2" y="1527.39" width="553.53" height="16.79" rx="3.01"/><rect class="cls-2" x="2926.2" y="1560.81" width="553.53" height="15.45" rx="3.01"/><rect class="cls-2" x="2926.2" y="1592.9" width="553.53" height="16.79" rx="3.01"/><rect class="cls-2" x="2926.2" y="1626.33" width="340.31" height="15.45" rx="3.01"/><g class="cls-47"><path class="cls-45" d="M4116.89,2454.5h72.52l39.55,25.69V2371.08c0-21.93-20.39-39.7-45.54-39.7h-66.53c-25.15,0-45.54,17.77-45.54,39.7v43.72C4071.35,2436.72,4091.74,2454.5,4116.89,2454.5Z"/><path class="cls-18" d="M4150,2430.56c-5.84,0-9.88-4.38-9.88-10.21,0-6.06,4.15-10.21,10.1-10.21s9.87,4.15,10,10.21c0,5.83-3.93,10.21-10,10.21Zm-6.18-26-2.47-50.84H4159l-2.46,50.84Z"/></g><g class="cls-48"><path class="cls-49" d="M1036.71,3438.31l-.12.66h.05C1036.66,3438.75,1036.69,3438.53,1036.71,3438.31Z"/><path class="cls-50" d="M1259.55,3388.4c-1.44-2.16-6.71-1.23-14.4-.16a274.37,274.37,0,0,1-29.84,2.27,329.77,329.77,0,0,0-40.82,3.27,295.75,295.75,0,0,0-42.57,9.75,275.48,275.48,0,0,0-62.51,28.65,644.26,644.26,0,0,0,31.63-94.47c13.06-52.19,23.82-120.17,14.54-123.33-9.45-3.21-38.39,60.52-54.53,110.61a580.47,580.47,0,0,0-19.53,79.57,371.88,371.88,0,0,0-2-87.37,410.78,410.78,0,0,0-19.53-79c-8.27-22.57-17-37.92-21.59-36.91-4.79,1-5.2,18.5-4.3,41.79s2.85,52.48,4.72,77.41c1.82,24.24,4.11,46.7,6.57,67.17A220.9,220.9,0,0,0,973,3339.52,239.12,239.12,0,0,0,922.47,3297a301.68,301.68,0,0,0-55.33-27,337.73,337.73,0,0,0-55-15.1c-33.73-6.26-58.46-5.34-60.3.9-2,6.64,19.39,18.55,47.88,33.7s63.26,34.79,89.75,53.93A418.48,418.48,0,0,1,931.69,3378a356.25,356.25,0,0,1,32.83,36q2.87,3.53,5.73,7.09l-.28-.19c-21-13.68-48.72-24.11-79.8-27.87-27.09-3.28-57.49-1.47-80.4,2.35s-38.95,9-39,13.63c-.1,9.9,66.53,14.47,112.38,23.07q16.89,3.16,31.92,6.9h121.52l.12-.66c0,.22,0,.44-.07.66h106.48a7.69,7.69,0,0,1,6.44,3.49c10.78-4.18,22.09-8.42,33.33-12.25,12.38-4.23,25-8.32,37.47-12.59,12.28-4.21,23.55-10,30.65-15.94S1260.87,3390.4,1259.55,3388.4Z"/><path class="cls-13" d="M905,3655.7v32.08a41.53,41.53,0,0,0,41.53,41.53h32.09A73.62,73.62,0,0,1,905,3655.7Z"/><path class="cls-22" d="M941.3,3655.7V3490H905V3655.7a73.62,73.62,0,0,0,73.62,73.61h36.35A73.62,73.62,0,0,1,941.3,3655.7Z"/><path class="cls-13" d="M1143.12,3439H885.67a7.7,7.7,0,0,0-7.7,7.7v35.66a7.7,7.7,0,0,0,7.7,7.7H941.3V3655.7a73.62,73.62,0,0,0,73.62,73.61h64.89a48.71,48.71,0,0,0,48.71-48.71V3490h14.6a7.7,7.7,0,0,0,7.7-7.7v-35.66a7.72,7.72,0,0,0-7.7-7.7Z"/></g></g></g></g></svg>