<?xml version="1.0" encoding="utf-8"?>
<!-- Generator: Adobe Illustrator 24.1.0, SVG Export Plug-In . SVG Version: 6.00 Build 0)  -->
<svg version="1.1" id="Capa_1" xmlns="http://www.w3.org/2000/svg" xmlns:xlink="http://www.w3.org/1999/xlink" x="0px" y="0px"
	 viewBox="0 0 4000 2977.9" style="enable-background:new 0 0 4000 2977.9;" xml:space="preserve">
<style type="text/css">
	.st0{fill:#EAF2F9;}
	.st1{fill:#7BADC9;}
	.st2{fill:#EAAD9D;}
	.st3{fill:#89BACC;}
	.st4{opacity:0.66;}
	.st5{fill:#FFFFFF;}
	.st6{fill:#B3D8E5;}
	.st7{fill:#214A81;}
	.st8{fill:#65A6B7;}
	.st9{fill:#95C5D1;}
	.st10{opacity:0.57;}
	.st11{fill:#6FA4BC;}
	.st12{fill:#232F63;}
	.st13{fill:#CE303F;}
	.st14{fill:#D0F1FC;}
	.st15{fill:#FDCBB5;}
	.st16{fill:#FEFEFE;}
	.st17{fill:#FAB584;}
	.st18{fill:#1A224F;}
	.st19{fill:#034C8A;}
	.st20{fill:#4B8A9B;}
	.st21{fill:#FAC2AE;}
	.st22{fill:#F1A080;}
	.st23{fill:#18254F;}
	.st24{fill:#0D1638;}
	.st25{fill:#94C6D3;}
	.st26{fill:#F4B9A6;}
	.st27{fill:#434E84;}
	.st28{fill:#7FB3BF;}
	.st29{fill:#1D2956;}
	.st30{fill:#282E5B;}
	.st31{opacity:0.5;fill:#C4422B;enable-background:new    ;}
	.st32{fill:#455993;}
	.st33{fill:#152244;}
	.st34{fill:#ABD6DD;}
	.st35{fill:#E75858;}
	.st36{fill:#5D9CF2;}
	.st37{fill:#FDFDFE;}
	.st38{fill:#B1D1F2;}
	.st39{fill:#F4737F;}
	.st40{fill:#B03E45;}
	.st41{fill:#E6515B;}
	.st42{fill:#2D2E75;}
	.st43{fill:#8DB0DC;}
	.st44{fill:#C3DAF4;}
	.st45{opacity:0.47;}
	.st46{opacity:0.18;}
	.st47{fill:none;}
	.st48{fill:#B1C3DD;}
</style>
<g>
	<g id="Layer_2">
		<g id="Layer_1-2">
			<ellipse class="st0" cx="3141.9" cy="2860.9" rx="858.1" ry="117"/>
			<rect y="2718.3" class="st1" width="3703.8" height="16.3"/>
			<path class="st2" d="M3192,2167.4h102.3c0,0-82.9,192.4-26.8,440.7l-5,77.5c0,0,84.6,116.6,104.6,134.4s52.1-32.1,52.1-32.1
				s-88.5-53.7-100.3-203c0,0,21.2-169.3,116.4-404.4c0,0,44.7-99.9-65.8-141.1c0,0-105.3-30.4-161.8-37.5S3192,2167.4,3192,2167.4z
				"/>
			<path class="st0" d="M498.3,2718.3h2730.2c0,0,401-1246.8-34.3-1508.1c-389.1-233.6-246.6-925.5-794-845.6
				s-580.9,314-1131.4,265.2C450.3,557.2-52.7,1200.3,425.2,2088.9C546,2313.3,555.5,2541,498.3,2718.3z"/>
			<path class="st3" d="M2992.1,1689.6c0,0,94.8,43.9,147.3,54.9c0,0,24.2,34,23.5,54.2s-188.7-14.3-188.7-14.3L2992.1,1689.6z"/>
			<g class="st4">
				<path class="st5" d="M562.5,0h1981.3c45.5,0,82.4,36.9,82.4,82.4v1552.1c0,45.5-36.9,82.4-82.4,82.4H562.5
					c-45.5,0-82.4-36.9-82.4-82.4V82.5C480,37,517,0,562.5,0z"/>
				<path class="st6" d="M2543.8,18c35.6,0,64.4,28.9,64.5,64.5v1552c0,35.6-28.9,64.4-64.5,64.5H562.5c-35.6,0-64.4-28.9-64.5-64.5
					V82.5c0-35.6,28.9-64.4,64.5-64.5H2543.8 M2543.8,0.1H562.5c-45.5,0-82.4,36.9-82.4,82.4v1552c0,45.5,36.9,82.4,82.4,82.4
					h1981.3c45.5,0,82.4-36.9,82.4-82.4V82.5C2626.2,37,2589.3,0.1,2543.8,0.1z"/>
				<path class="st6" d="M2543.8,0H562.5c-45.5,0-82.4,36.9-82.4,82.4v150.8h2146.1V82.4C2626.2,37,2589.3,0.1,2543.8,0z"/>
				<path class="st5" d="M2153.3,174.5h-908c-29.3,0-53-23.7-53-53l0,0l0,0c0-29.3,23.7-53,53-53h908c29.3,0,53,23.7,53,53l0,0
					C2206.3,150.7,2182.6,174.5,2153.3,174.5L2153.3,174.5z"/>
				<path class="st7" d="M654.7,117.2c2.4,17.9-10.3,34.3-28.2,36.7c-17.9,2.4-34.3-10.3-36.7-28.2c-2.4-17.9,10.3-34.3,28.2-36.7
					c2.8-0.4,5.7-0.4,8.5,0C641.2,91,652.8,102.5,654.7,117.2z"/>
				<path class="st1" d="M759,117.2c2.3,17.9-10.3,34.3-28.2,36.7s-34.3-10.3-36.7-28.2c-2.3-17.9,10.3-34.3,28.2-36.7
					c2.8-0.4,5.7-0.4,8.5,0C745.5,91,757.1,102.5,759,117.2z"/>
				<path class="st7" d="M863.3,117.2c2.3,17.9-10.3,34.3-28.2,36.7s-34.3-10.3-36.7-28.2c-2.3-17.9,10.3-34.3,28.2-36.7
					c2.8-0.4,5.7-0.4,8.5,0C849.8,91,861.3,102.5,863.3,117.2z"/>
			</g>
			<path class="st2" d="M3178.9,1765.2c0,0,38.7-1.1,97.9-36.2c0,0,25.6-10.1,38.4,6.4s-134.9,68.7-134.9,68.7L3178.9,1765.2z"/>
			<path class="st8" d="M3002.9,1694.5l-7.3,61.6l159.5,15.2l-15.2-20.1c0,0-128.9-14.6-132.3-43.7c0,0-0.2-8.5,0.7-10.7
				L3002.9,1694.5z"/>
			<path class="st9" d="M3123.5,1743c0,0,7.6-8.4,7.2,17.1s12.3,42.8,5.3,58c0,0-3.4,6.1,23,2s31.1-4.7,31.1-4.7s5,0.9,2.9-16.2
				s-4.1-55-4.1-55S3120.1,1722.6,3123.5,1743z"/>
			<g class="st10">
				<path class="st5" d="M186.7,438.4H2168c45.5,0,82.4,36.9,82.4,82.4v1552.1c0,45.5-36.9,82.4-82.4,82.4H186.7
					c-45.5,0-82.4-36.9-82.4-82.4V520.8C104.3,475.3,141.2,438.4,186.7,438.4z"/>
				<path class="st11" d="M2168,456.3c35.6,0,64.4,28.9,64.5,64.5v1552.1c0,35.6-28.9,64.4-64.5,64.5H186.7
					c-35.6,0-64.4-28.9-64.5-64.5v-1552c0-35.6,28.9-64.4,64.5-64.5L2168,456.3 M2168,438.4H186.7c-45.5,0-82.4,36.9-82.4,82.4v1552
					c0,45.5,36.9,82.4,82.4,82.4H2168c45.5,0,82.4-36.9,82.4-82.4v-1552C2250.4,475.3,2213.5,438.4,2168,438.4L2168,438.4z"/>
			</g>
			<path class="st11" d="M2168,438.4H186.7c-45.5,0-82.4,36.9-82.4,82.4l0,0v150.8h2146.1V520.8
				C2250.4,475.3,2213.5,438.4,2168,438.4L2168,438.4z"/>
			<path class="st11" d="M1054.7,876.9v1175.7H262.9V876.9H1054.7 M1064.1,867.6H253.6V2062h810.5V867.6L1064.1,867.6z"/>
			<path class="st12" d="M1777.6,612.8h-908c-29.3,0-53-23.7-53-53l0,0c0-29.3,23.7-53,53-53h908c29.3,0,53,23.7,53,53l0,0
				C1830.6,589.1,1806.8,612.8,1777.6,612.8z"/>
			<path class="st5" d="M186.3,589.3c-5.6,0-10.1-4.5-10.1-10.1c0-2.7,1.1-5.3,3-7.2l48.5-48.5c3.9-3.9,10.4-3.9,14.3,0
				c3.9,3.9,3.9,10.4,0,14.3l-48.5,48.5C191.6,588.3,189,589.4,186.3,589.3z"/>
			<path class="st5" d="M234.8,589.3c-2.7,0-5.3-1.1-7.2-3l-48.5-48.5c-3.9-3.9-3.9-10.4,0-14.3s10.4-3.9,14.3,0l48.5,48.5
				c3.9,3.9,3.9,10.3,0,14.3C240.1,588.3,237.5,589.4,234.8,589.3L234.8,589.3z"/>
			<path class="st5" d="M441,589.3c-19,0-34.3-15.4-34.3-34.4s15.4-34.3,34.4-34.3s34.3,15.4,34.3,34.3
				C475.3,574,460,589.3,441,589.3z M441,540.9c-7.8,0-14.1,6.3-14.1,14.1s6.3,14.1,14.1,14.1s14.1-6.3,14.1-14.1l0,0
				C455.1,547.2,448.8,540.9,441,540.9z"/>
			<path class="st5" d="M348.7,565.1h-51.9c-5.6,0-10.1-4.5-10.1-10.1s4.5-10.1,10.1-10.1h51.9c5.6,0,10.1,4.5,10.1,10.1
				S354.3,565.1,348.7,565.1L348.7,565.1L348.7,565.1z"/>
			<path class="st11" d="M1857.4,1474.9h-591.1c-32.4-0.4-58.4-27-57.9-59.5c0.4-31.8,26.1-57.5,57.9-57.9h591.1
				c32.4-0.4,59,25.5,59.5,57.9s-25.5,59-57.9,59.5C1858.4,1474.9,1857.9,1474.9,1857.4,1474.9z M1266.3,1366.8
				c-27.3,0.4-49.1,22.8-48.7,50.1c0.4,26.7,22,48.3,48.7,48.7h591.1c27.3,0.4,49.7-21.4,50.1-48.7c0.4-27.3-21.4-49.7-48.7-50.1
				c-0.5,0-0.9,0-1.4,0H1266.3z"/>
			<path class="st11" d="M1857.4,1670.8h-591.1c-32.4-0.4-58.4-27-57.9-59.5c0.4-31.8,26.1-57.5,57.9-57.9h591.1
				c32.4-0.4,59,25.5,59.5,57.9s-25.5,59-57.9,59.5C1858.4,1670.8,1857.9,1670.8,1857.4,1670.8z M1266.3,1562.8
				c-27.3,0-49.4,22.1-49.4,49.4c0,27.3,22.1,49.3,49.4,49.4h591.1c27.3,0,49.4-22.1,49.4-49.4c0-27.3-22.1-49.4-49.4-49.4l0,0
				H1266.3z"/>
			<path class="st11" d="M2040.1,1474.9c-32.4,0-58.7-26.3-58.7-58.7s26.3-58.7,58.7-58.7s58.7,26.3,58.7,58.7l0,0
				C2098.8,1448.6,2072.5,1474.8,2040.1,1474.9z M2040.1,1366.8c-27.3,0-49.4,22.1-49.4,49.4s22.1,49.4,49.4,49.4
				s49.4-22.1,49.4-49.4l0,0C2089.4,1388.9,2067.3,1366.8,2040.1,1366.8z"/>
			<path class="st11" d="M2040.1,1670.8c-32.4,0-58.7-26.3-58.7-58.7s26.3-58.7,58.7-58.7s58.7,26.3,58.7,58.7l0,0
				C2098.8,1644.5,2072.5,1670.8,2040.1,1670.8z M2040.1,1562.8c-27.3,0-49.4,22.1-49.4,49.4s22.1,49.4,49.4,49.4
				c27.3,0,49.4-22.1,49.4-49.4C2089.4,1584.9,2067.3,1562.8,2040.1,1562.8z"/>
			<path class="st11" d="M1857.4,1876.1h-591.1c-32.4-0.4-58.4-27-57.9-59.5c0.4-31.8,26.1-57.5,57.9-57.9h591.1
				c32.4-0.4,59,25.5,59.5,57.9s-25.5,59-57.9,59.5C1858.4,1876.1,1857.9,1876.1,1857.4,1876.1z M1266.3,1768
				c-27.3,0.4-49.1,22.8-48.7,50.1c0.4,26.7,22,48.3,48.7,48.7h591.1c27.3,0.4,49.7-21.4,50.1-48.7c0.4-27.3-21.4-49.7-48.7-50.1
				c-0.5,0-0.9,0-1.4,0H1266.3z"/>
			<path class="st11" d="M1857.4,2072.1h-591.1c-32.4-0.4-58.4-27-57.9-59.5c0.4-31.8,26.1-57.5,57.9-57.9h591.1
				c32.4-0.4,59,25.5,59.5,57.9s-25.5,59-57.9,59.5C1858.4,2072.1,1857.9,2072.1,1857.4,2072.1z M1266.3,1964
				c-27.3,0.4-49.1,22.8-48.7,50.1c0.4,26.7,22,48.3,48.7,48.7h591.1c27.3,0.4,49.7-21.4,50.1-48.7c0.4-27.3-21.4-49.7-48.7-50.1
				c-0.5,0-0.9,0-1.4,0H1266.3z"/>
			<path class="st11" d="M2040.1,1876.1c-32.4,0-58.7-26.3-58.7-58.7s26.3-58.7,58.7-58.7s58.7,26.3,58.7,58.7l0,0
				C2098.8,1849.8,2072.5,1876.1,2040.1,1876.1z M2040.1,1768c-27.3,0-49.4,22.1-49.4,49.4s22.1,49.4,49.4,49.4s49.4-22.1,49.4-49.4
				l0,0C2089.4,1790.1,2067.4,1768,2040.1,1768L2040.1,1768z"/>
			<path class="st11" d="M2040.1,2072.1c-32.4,0-58.7-26.3-58.7-58.7s26.3-58.7,58.7-58.7s58.7,26.3,58.7,58.7l0,0
				C2098.8,2045.8,2072.5,2072,2040.1,2072.1z M2040.1,1964c-27.3,0-49.4,22.1-49.4,49.4s22.1,49.4,49.4,49.4s49.4-22.1,49.4-49.4
				l0,0C2089.4,1986.1,2067.3,1964,2040.1,1964L2040.1,1964z"/>
			<path class="st11" d="M2112,1259.5h-902V862.9h902V1259.5z M1219.3,1250.2h883.4V872.3h-883.3L1219.3,1250.2z"/>
			<path class="st13" d="M2068.7,1611.4c0,15.8-12.8,28.6-28.6,28.6s-28.6-12.8-28.6-28.6s12.8-28.6,28.6-28.6
				S2068.7,1595.7,2068.7,1611.4L2068.7,1611.4z"/>
			<polygon class="st14" points="1219.4,1156.3 2102.7,1006.7 2102.7,1250.2 1219.4,1250.2 			"/>
			<path class="st11" d="M1751.4,1177.6c9.7,5.2,19.2,10.6,29,15.6c24.4,12.4,35.2,33.1,36.8,59.5c2.1-2.1-277.2-0.7-277.2-0.7
				c0.1-10.2,4.1-19.7,6-29.6c3.2-4.9,5.7-10.2,10.2-14.1c20.1-17.9,44-28.7,68.9-37.9c-0.1,2.3-0.2,4.7-0.2,7
				c-0.2,12.3,9.6,22.4,21.8,22.5c1.4,0,2.7-0.1,4.1-0.3c10.4-1.7,18.8-6.9,24.6-15.9c2.2-3.4,3.8-4.1,6.2-0.2
				c4.8,7.6,12.3,13.1,21,15.4c12.6,3.6,24.2-2.5,28.6-14.7c1.6-4.6,0.6-9.3,0.7-13.9C1738.9,1171.5,1744.6,1176.2,1751.4,1177.6z"
				/>
			<path class="st12" d="M1751.4,1177.6c-6.8-1.5-12.5-6.1-19.5-7.1c-5.4-7.9-9.9-16.5-19.6-20.2c0-19.7,0.1-39.4,0-59.1
				c0-3.4,0.4-5.2,4.4-6.2c13.9-3.6,21.1-16.4,17.9-30.4c-3.4-14.8-13.7-19.8-27.4-13.1c-0.8,0.4-1.7,0.9-2.5,1.3
				c-13.6,6.6-27.3-0.4-30.7-15.2c-1.2-5.2-0.8-10.4,0-17.1c-4.7,5-8.6,8.8-13.4,11.2c-9.2,4.6-18.7,7.3-29.1,3.9
				c-7.4-2.4-9.3-8.7-10.4-16.2c-7.8,9.3-14.9,18-27.3,18.4c-14.8-7-19.3-19.6-11.9-34.2c12.4-24.4,31.8-41.1,57.6-49.8
				c28.3-9.6,56.9-9.7,84.9,0.8c34.8,13.2,52.7,41.1,60.9,75.6c8.4,35.7,2,70.4-10.2,104.3
				C1768.6,1142.8,1761.4,1160.8,1751.4,1177.6z"/>
			<path class="st15" d="M1594,1027.7c12.4-0.4,19.5-9.1,27.3-18.4c1.1,7.5,3,13.8,10.4,16.2c10.3,3.4,19.9,0.6,29.1-3.9
				c4.8-2.4,8.8-6.1,13.4-11.2c-0.8,6.7-1.2,11.9,0,17.1c3.3,14.9,17,21.8,30.7,15.2c0.8-0.4,1.7-0.9,2.5-1.3
				c13.7-6.7,24-1.8,27.4,13.1c3.2,14-4.1,26.8-17.9,30.4c-4.1,1.1-4.5,2.9-4.4,6.2c0.1,19.7,0,39.4,0,59.1
				c0.9,9.1-1,16.5-10.8,20.2c-13.7,5.2-27.5,6.7-41.5,1.6s-15.3-6.9-15.4-21.8l0.1-2.7c10.5-0.1,20.6-2.5,29-8.6
				c6.6-4.7,14-9.3,16.1-18.3l0.3-0.6l-0.3,0.6c-14.6,6.7-29.3,13.1-45.4,15.7c-2.3,0.1-4.7,0-7,0.2c-14.4,1.2-24.5-5.2-31.9-17.1
				c-4.7-7.6-7.1-16-10.1-24.3C1592,1072.8,1591,1050.3,1594,1027.7z"/>
			<path class="st12" d="M1644.7,1147.6l-0.1,2.7c-9.6,3.8-14.2,12.3-19.6,20.2c-24.8,9.2-48.8,20-68.9,37.9c-4.5,4-7,9.3-10.2,14.1
				c-17.9-20.9-19.8-54.3-5.3-78.1c7-11.5,16.3-20.1,27.2-27.6c9.8-6.5,19-13.7,27.6-21.7c2.9,8.3,5.3,16.7,10.1,24.3
				c7.4,11.9,17.6,18.3,31.9,17.1c2.3-0.2,4.7-0.1,7-0.2L1644.7,1147.6z"/>
			<path class="st16" d="M1625.1,1170.5c5.3-7.9,10-16.5,19.6-20.2c0.1,14.9,1.4,16.7,15.4,21.8s27.8,3.7,41.5-1.6
				c9.7-3.7,11.7-11.1,10.8-20.2c9.6,3.7,14.2,12.3,19.6,20.2c-0.1,4.6,1,9.3-0.7,13.9c-4.4,12.2-16.1,18.2-28.6,14.7
				c-8.7-2.3-16.2-7.8-21-15.4c-2.5-3.9-4.1-3.2-6.2,0.2c-5.8,9-14.1,14.1-24.6,15.9c-12.1,2-23.5-6.1-25.6-18.2
				c-0.2-1.3-0.3-2.7-0.3-4.1C1624.9,1175.2,1625,1172.9,1625.1,1170.5z"/>
			<path class="st17" d="M1644.7,1147.6l-0.3-11.2c16-2.6,30.8-9,45.4-15.7l0,0c-2,9-9.5,13.6-16.1,18.3
				C1665.3,1145.1,1655.2,1147.6,1644.7,1147.6z"/>
			<path class="st18" d="M3282.1,2630.1c2.1,7.5,4.1,15.1,7.3,22.3c9,20.3,23.1,38.7,35.4,57c13.3,19.9,25.6,40.5,39.1,60.2
				c6.9,10.1,14.7,17.9,27.4,19.7c5.9,0.8,11.8,0.7,17.7-0.3c3.6-0.6,7.2-2.9,10.7-3.2c3-0.2,5.9,1.6,8.4,2.9
				c9.6,5.1,18.4,11.6,28,16.8c8.4,4.6,17.4,7.4,26,11.4c2.7,1.2,6.5,2.8,7.4,5.9c1.4,4.6-3.5,9.3-7.1,11.2
				c-10.9,5.9-27.3,3.4-39.1,3.6c-25.2,0.3-51.4,2.4-76.5-0.6c-8.2-1-16.7-2.8-22.2-9.3c-10.2-12.2-13.7-30.5-19.6-44.7
				c-4.9-12-10.8-24.5-20.3-33.8c-7.1-6.7-15.5-11.8-24.7-15c-3.2-1.1-4.7-2.1-6.2,1.2c-2.5,5.3-0.3,14.3-0.4,20
				c-0.2,11.6-0.5,69.8-0.5,73.9c0,1.7,0.8,6,0,7.4c-1.1,1.9,0.4,0.8-2.9,1.4c-1.6,0.3-9.4,1-10.8,0c-2.1-1.4-1-13.2-1.1-16.5
				c-0.4-11.5-1.1-23.1-2.1-34.6c-1.9-22.1-3.2-44.9-9.1-66.4c-4.8-17.7-10.4-32.6-9.5-51.2c0.5-9.9,2.1-20.3,7-29.1
				c7.1-12.6,21.1-22.2,32-31.5L3282.1,2630.1z"/>
			<path class="st11" d="M2584.4,2161.9h482.1c1.1,0,2,0.9,2,2v90.1c0,1.1-0.9,2-2,2h-482.1c-1.1,0-2-0.9-2-2v-90.1
				C2582.4,2162.8,2583.3,2161.9,2584.4,2161.9z"/>
			<path class="st11" d="M2465.9,1863.5c0-80.1,2-159.2-1-239c-2-52.8-1.6-106,6-158.3c3.3-23,18.6-128.2,63.6-108.4
				c8.7,3.8,12.6,16.3,14.1,22.2c-2,161.2-4,322.3-6,483.5c0,21-13.9,38.1-31,38.1h-14.7C2479.8,1901.6,2465.9,1884.6,2465.9,1863.5
				z"/>
			<path class="st19" d="M2615.4,2271h373.3c10.6,0,19.2-8.6,19.2-19.2c0-10.6-8.6-19.2-19.2-19.2h-373.3
				c-35.3,0.1-69.1-14.2-93.8-39.4c-25-25.3-39-59.5-38.9-95.1v-505.9c0.2-10.4-8-19.1-18.5-19.3c-10.4-0.2-19.1,8-19.3,18.5
				c0,0.3,0,0.6,0,0.9v505.9c-0.2,45.7,17.8,89.7,49.9,122.2C2526.6,2252.8,2570.1,2271.1,2615.4,2271z"/>
			<rect x="2776" y="2256" class="st12" width="37.8" height="549.5"/>
			<path class="st12" d="M2776,2810.9h37.8c3,0,5.4-2.5,5.3-5.4V2256c0-3-2.4-5.4-5.3-5.4l0,0H2776c-3,0-5.4,2.4-5.3,5.4l0,0v549.5
				C2770.6,2808.5,2773,2810.9,2776,2810.9L2776,2810.9z M2808.5,2800.1h-27.1v-538.7h27.1V2800.1z"/>
			<rect x="2745.8" y="2507.1" class="st19" width="98.3" height="187.9"/>
			<path class="st19" d="M2745.8,2700.4h98.3c3,0,5.4-2.4,5.3-5.4l0,0v-187.9c0-3-2.4-5.4-5.3-5.4l0,0h-98.3c-3,0-5.4,2.4-5.3,5.4
				l0,0V2695C2740.4,2698,2742.8,2700.4,2745.8,2700.4C2745.7,2700.4,2745.7,2700.4,2745.8,2700.4z M2838.8,2689.6h-87.6v-177.1
				h87.6V2689.6z"/>
			<path class="st12" d="M3125.9,2823.9c-44-29.7-166.2-103.6-338-101.5c-163.4,2-279.5,71.5-324,101.5v-31.1
				c46.8-30.2,162.6-95.9,324-97.8c169.6-2,291.6,67.8,338,97.8V2823.9z"/>
			<path class="st12" d="M3125.9,2829.4c0.9,0,1.7-0.2,2.5-0.6c1.7-1,2.8-2.8,2.8-4.8v-31.2c0-1.8-0.9-3.6-2.5-4.6
				c-57.5-37.1-176.8-98.7-334-98.7c-2.3,0-4.6,0-7,0.1c-146.3,1.7-258.5,54.6-326.8,98.6c-1.5,1-2.5,2.7-2.5,4.6v31.2
				c0,2,1.1,3.8,2.8,4.8c1.7,0.9,3.8,0.8,5.5-0.3c54.6-36.8,168.8-98.8,321.1-100.6c158.5-1.8,278.1,62.2,335,100.6
				C3123.8,2829.1,3124.9,2829.4,3125.9,2829.4z M3120.6,2795.8v18.2c-60.8-39.4-178.4-99.1-332.8-96.9
				c-147.7,1.8-260.2,59.1-318.6,96.9v-18.2c67.4-43,176.7-93.7,318.7-95.4c2.3,0,4.6,0,6.8,0
				C2947.1,2700.4,3063.1,2759.2,3120.6,2795.8L3120.6,2795.8z"/>
			<path class="st19" d="M2506.2,2823.9c0-23.7-18.9-42.9-42.3-42.9s-42.3,19.2-42.3,42.9s18.9,42.9,42.3,42.9
				S2506.2,2847.6,2506.2,2823.9z"/>
			<path class="st19" d="M2463.9,2872.3c26.3,0,47.7-21.7,47.7-48.3s-21.4-48.3-47.7-48.3s-47.7,21.7-47.7,48.3
				S2437.6,2872.3,2463.9,2872.3z M2463.9,2786.4c20.4,0,37,16.8,37,37.5s-16.6,37.5-37,37.5s-37-16.8-37-37.5
				S2443.5,2786.4,2463.9,2786.4z"/>
			<path class="st19" d="M3168.3,2823.9c0-23.7-19-42.9-42.3-42.9s-42.3,19.2-42.3,42.9s19,42.9,42.3,42.9
				S3168.3,2847.6,3168.3,2823.9z"/>
			<path class="st19" d="M3125.9,2872.3c26.3,0,47.7-21.7,47.7-48.3s-21.4-48.3-47.7-48.3s-47.7,21.7-47.7,48.3
				S3099.6,2872.3,3125.9,2872.3z M3125.9,2786.4c20.4,0,37,16.8,37,37.5s-16.6,37.5-37,37.5s-37-16.8-37-37.5
				S3105.5,2786.4,3125.9,2786.4z"/>
			<path class="st19" d="M2834.9,2823.9c0-22.4-17.9-40.5-40-40.5s-40,18.1-40,40.5s17.9,40.6,40,40.6S2834.9,2846.3,2834.9,2823.9z
				"/>
			<path class="st19" d="M2794.9,2869.9c25,0,45.3-20.6,45.3-46s-20.3-46-45.3-46s-45.3,20.6-45.3,46S2769.9,2869.9,2794.9,2869.9z
				 M2794.9,2788.8c19.1,0,34.6,15.8,34.6,35.1s-15.6,35.1-34.6,35.1s-34.6-15.8-34.6-35.1S2775.8,2788.8,2794.9,2788.8
				L2794.9,2788.8z"/>
			<path class="st20" d="M2745.8,2161.2c0,0,55.2,55.2,322.9,34.1v-33.4L2745.8,2161.2z"/>
			<path class="st21" d="M3094.4,1050.8c0,0,76.3-36.2,35.6,125.6c0,0-20,31.1,1.2,70.4c0,0,6,17.5-38.3,13.9c0,0-9.1,0.2-21.9,28.6
				c-8.7,19.7-27.8,32.9-49.4,34.1c-15.9,0.8-36.9-2-64-12.1l-46.2,185l-105.8-54.9c0,0,72.9-155.2,61.1-176.3
				s-50.9-85.4,13.3-129.3S3079.4,1024.1,3094.4,1050.8z"/>
			<path class="st22" d="M3113.3,1056.6c0,0-74.4,95.8-132,79.3l-15-29.6C2966.3,1106.2,3100.3,1042.8,3113.3,1056.6z"/>
			<path class="st22" d="M2834.4,1375.9c0,0,61.1,54.9,92.6,57.6l-7.3,21.2l-96-59L2834.4,1375.9z"/>
			<path class="st12" d="M3131.2,1055.6c0,0,1.2-143.3-221.4-68.1c0,0-93.3,34.5-98.7,154.4
				C2811.1,1141.8,3040.7,932.4,3131.2,1055.6z"/>
			<path class="st23" d="M3131.2,1055.6c0,0-56,7.1-125.8-12.5s-202.2,58-199.8,121.5c0,0-3.9-110.8,94.8-150.5
				C3006.1,971.7,3115.9,988.1,3131.2,1055.6z"/>
			<path class="st24" d="M2881.9,1189.1c0,0,39.8,176.1-79.3,42.6l-16.6-46L2881.9,1189.1z"/>
			<path class="st23" d="M2899.6,1150.3c0,0-34.6,167.3-113.6,35.4C2786,1185.7,2878.4,1128.1,2899.6,1150.3z"/>
			<path class="st24" d="M2805.5,1203.2c0,0,9,47.4-41.5,59.1s-77.1-50.6-49.7-92.6S2805.5,1203.2,2805.5,1203.2z"/>
			<path class="st12" d="M2807.8,1178.2c5.4,19.9-6.9,40.3-26.8,45.7c-28.8,7.9-71.8,12.2-70.2-32.7c2.3-66.4,74.6-83.4,94-21.6
				c0.4,1.5,1,2.9,1.6,4.4C2806.9,1175.3,2807.4,1176.7,2807.8,1178.2z"/>
			<path class="st22" d="M2986.8,1145.2c0,0-10.6-39.8-37.6-3.4s25,64.1,25,64.1s-91.7-4.1-36.2-84.6
				C2938,1121.3,2966.8,1083.9,2986.8,1145.2z"/>
			<path class="st22" d="M2957.6,1311.1l-17.7-5.6c-9.9-3.1-20.5,2.4-23.6,12.3c-0.9,2.8-1.1,5.7-0.7,8.5l14.6,94.4L2957.6,1311.1z"
				/>
			<path class="st3" d="M2810.4,1403c0,0-57,54.6-71.7,102.6c-41.1,134.8-13.1,406.5-13.1,406.5l232-14.1c0,0,20.5-27.4,32.1-62.7
				c0,0,121.9,9.4,153.1,3.1l7.6-71.3c0,0-114.4-15.7-152.8-36c0,0,16.5-76.8-0.8-125.4s-71.5-165.4-71.5-165.4
				S2855.8,1440.6,2810.4,1403z"/>
			<path class="st8" d="M2802.8,1410.7c0,0,67.9,86.4,140.4,104l-4.2-44.5l-13.7-29.9l-116.5-34.6L2802.8,1410.7z"/>
			<path class="st8" d="M2720.2,1842.4c0,0,208.4,43,256.1,24.7l-15.9,32.6l-237.3-4.4L2720.2,1842.4z"/>
			<path class="st8" d="M2793.6,1545.3c0,0,66.2,267.6,121,304.4c0,0,27.9,14.2,68.3,3.4l8.5-21.7
				C2991.4,1831.5,2807.4,1537.7,2793.6,1545.3z"/>
			<path class="st25" d="M2851.9,1466.8c1.5-0.4,3.1-0.4,4.6-0.2c10.2,1.5,48.5,11.3,68.8,71.8c26.7,79.7,47.3,158.2,53.2,181.8
				c1.1,4.4,4.6,7.7,8.9,8.7l0,0c5.8,1.3,9.7,6.7,9.3,12.6l-6.4,84.4c-0.4,5.7-4.8,10.3-10.4,11c-15,1.9-43.9,3.9-60.7-5.2
				c-1.4-0.8-2.7-1.9-3.7-3.3c-3.9-5.3-14.7-22.7-39.6-77.6c-32.2-71.1-71.5-175.2-75-184.3c-0.1-0.4-0.3-0.8-0.5-1.2
				C2797.1,1558.4,2764.1,1488.4,2851.9,1466.8z"/>
			<path class="st26" d="M3155.4,2171.4h102.3c0,0-82.9,192.4-26.8,440.7l-5,77.5c0,0,84.6,116.6,104.6,134.4s49.1-30.7,49.1-30.7
				s-50.2-66.8-97.3-204.4c0,0,21.1-169.3,116.4-404.4c0,0,44.7-99.9-65.8-141.1c0,0-65.8-22.9-122.2-30
				S3155.4,2171.4,3155.4,2171.4z"/>
			<path class="st22" d="M3297.4,2740.5c0,0,32,49.5,76.9,48.4v27l-60.8-8.6L3297.4,2740.5z"/>
			<path class="st22" d="M3224.4,2017.8c0,0-41,139.9,29.5,139.1s-26.1,117.8-26.1,117.8s23.5-97.1,29.9-103.3h-72.6
				C3185.1,2171.4,3174.9,2034.7,3224.4,2017.8z"/>
			<rect x="3319.4" y="1795.5" class="st12" width="315.4" height="31.1"/>
			<polygon class="st27" points="3613.6,1796.1 3742.6,1505.6 3771,1518.2 3634.1,1826.6 			"/>
			<polygon class="st25" points="3742.6,1505.6 3751.5,1509.6 3631.5,1785.8 3620.4,1781 			"/>
			<path class="st26" d="M3180,1790.8c0.6-3.6,3.7-6.2,7.3-6.3c8-0.2,24.1-3.7,49-22.4c10.2-7.7,27.2-19.7,29.3-21.1l0.4-0.3
				c22.1-13.8,41.7-17.8,72.3,1.1c19.4,11.8,37.4,25.7,53.8,41.3c3,2.9,3.1,7.8,0.2,10.8c-1.4,1.4-3.3,2.3-5.3,2.3
				c-21.7,0.6-58,0.5-71.7-5.6c-2.7-1.3-6-0.8-8.3,1.2c-9.9,9.2-36,31.5-61.5,35.2c-23.2,3.4-50.3,1.9-63.6,0.8
				c-4.2-0.4-7.4-4.1-7-8.3c0-0.2,0.1-0.5,0.1-0.7L3180,1790.8z"/>
			<path class="st22" d="M3192,1799.8c0,0-2.9,32.4,53.6,23.1c0,0,30-6.5,65.6-35.2c0,0-30.8,32.2-61.1,38.4s-73.9,1-73.9,1
				L3192,1799.8z"/>
			<path class="st22" d="M3320.2,1759.3c-1.4,2.7-0.4,6,2.3,7.5c0.2,0.1,0.4,0.2,0.5,0.3c8,3.2,22.7,9.4,26.3,12.9
				c5.1,4.9,23.4,3.9,23.4,3.9s8,8.1-2.1,12.6h11.9c0,0,3.6-15-5.3-16.5c-12.3-2-51.2-15.2-53-21.8
				C3323.3,1754.9,3321.6,1756.7,3320.2,1759.3z"/>
			<path class="st12" d="M2722.1,1870.7c0,0,198.9,15.2,248.9,6.3c4.4-0.8-4,42.6-13.4,62.1l275.5,66c0,0,10.2,0-8.6,12.6
				s-48.2,103.6-34.1,152.5c0,0,3.8,2.4-53.9,4.6c-67.8,2.6-390.6,26.2-458.7-47.4C2646.7,2094.1,2627.4,2030.8,2722.1,1870.7z"/>
			<path class="st25" d="M2997.6,1731.1c0,0,117.8,37,152.8,36l-7.6,71.3c0,0-55.4,9.1-207.1-1.6L2997.6,1731.1z"/>
			<path class="st28" d="M3127.9,1766.4c0,0,0.3,54.8-82,68.1c0,0-29.1,7-50.2,6c0,0,127.9,5.8,167.2-5.2
				C3162.9,1835.2,3158.2,1754.7,3127.9,1766.4z"/>
			<path class="st25" d="M2830.4,1385.4c0,0,49.9,39,94.9,54.9l9,65.3c0,0-131.3-65.8-128.7-109.9
				C2805.6,1395.7,2830.3,1370.9,2830.4,1385.4z"/>
			<path class="st25" d="M2925.3,1440.3l32.3,55.7c0,0,1.3-50.7-25.6-82.6L2925.3,1440.3z"/>
			<path class="st29" d="M3233.1,2005.2l-275.5-66c0,0,18.9-48.9,13.4-62.1c0,0-43.6,8.5-214.6-3.9c0,0,138.8,27.7,136.1,82.4
				c-1.9,36.4,133.8,77.3,224.5,100.5l0,0c0,0,45.4,20.6,49,45.9s14.6,70.5,14.6,70.5l9.8-2c0,0-11.3-39.6,6-95.6l0.2,0.1
				c0,0,1.1-3.9,2.9-9.6l0,0c5-15.6,15.9-45,27.7-49.3C3227.2,2015.9,3241,2007.1,3233.1,2005.2z"/>
			<path class="st30" d="M3236.6,2633.3c2.1,7.5,4.1,15.1,7.3,22.3c9,20.3,23.1,38.7,35.4,57c13.3,19.9,25.6,40.5,39.1,60.2
				c6.9,10.1,14.7,17.9,27.4,19.7c5.9,0.8,11.8,0.7,17.7-0.3c3.6-0.6,7.2-2.9,10.7-3.2c3-0.2,5.9,1.6,8.4,2.9
				c9.6,5.1,18.5,11.6,28,16.8c8.4,4.6,17.4,7.4,26,11.4c2.7,1.2,6.5,2.8,7.4,5.9c1.4,4.6-3.5,9.3-7.1,11.2
				c-10.9,5.9-27.3,3.4-39.1,3.6c-25.2,0.3-51.4,2.4-76.5-0.6c-8.2-1-16.7-2.8-22.2-9.3c-10.2-12.2-13.7-30.5-19.6-44.7
				c-4.9-12-10.8-24.5-20.3-33.8c-7.1-6.7-15.5-11.8-24.7-15c-3.2-1.1-4.7-2.1-6.2,1.2c-2.5,5.3-0.3,14.3-0.4,20
				c-0.2,11.6-0.5,69.8-0.5,73.9c0,1.7,0.8,6,0,7.4c-1.1,1.9,0.4,0.8-2.9,1.4c-1.6,0.3-9.4,1-10.8,0c-2.1-1.4-1-13.2-1.1-16.5
				c-0.4-11.5-1.1-23.1-2.1-34.5c-1.9-22.1-3.2-44.9-9.1-66.4c-4.9-17.7-10.4-32.6-9.5-51.3c0.5-9.9,2.1-20.3,7-29
				c7.1-12.6,21.1-22.2,32-31.5L3236.6,2633.3z"/>
			<path class="st13" d="M3889,1826.6h-645.1c-4.8,0-8.7,17-8.7,38v24.9c0,21,3.9,38,8.7,38H3889c4.8,0,8.7-17,8.7-38v-24.9
				C3897.8,1843.6,3893.9,1826.6,3889,1826.6z"/>
			<path class="st31" d="M3889,1905.4h-645.1c-4.8,0-8.7-17-8.7-38v22c0,21,3.9,38,8.7,38H3889c4.8,0,8.7-17,8.7-38v-22
				C3897.8,1888.4,3893.9,1905.4,3889,1905.4z"/>
			<path class="st12" d="M3714.9,1927.5l4.8,20.2c5,20.9,14.2,33.8,24.1,33.8h54.5l-2.2-53.9h-81.2V1927.5z"/>
			<polygon class="st32" points="3798.4,1981.4 3834.8,2859.8 3850.9,2859.8 3850.9,1927.5 3796.2,1927.5 			"/>
			<path class="st12" d="M3323.7,1981.4h54.5c9.9,0,19.1-12.9,24.1-33.8l4.8-20.2h-81.2L3323.7,1981.4z"/>
			<polygon class="st32" points="3271.2,1927.5 3271.2,2859.8 3287.3,2859.8 3325.9,1927.5 			"/>
			<path class="st33" d="M3010,1118.3c0,0-136.3,42.4-204.4,54.1C2805.5,1172.4,2914.2,1046.1,3010,1118.3z"/>
			<path class="st12" d="M3104.9,1056.8c0,0-50.5,73.3-133.8,62.3s-165.6,53.3-165.6,53.3s-2.3-146.5,199.1-143.8
				C3004.6,1028.6,3062.6,1029.8,3104.9,1056.8z"/>
			<circle class="st23" cx="2966.2" cy="1200.8" r="18.8"/>
			<path class="st34" d="M3127.9,1766.4c0,0,7.6-8.4,7.2,17.1s12.3,42.8,5.3,58c0,0-3.4,6.1,23,2s31.1-4.7,31.1-4.7s5,0.9,2.9-16.2
				s-4.1-55-4.1-55S3124.4,1745.9,3127.9,1766.4z"/>
			<path class="st22" d="M3280.4,1808.5c0,0,25.3-16.6,29.3-25.9s7.1,6.3,42,11.5l22.6,2.4c0,0-48.5,1.2-63.3-8.7
				C3311.1,1787.8,3294.3,1805.5,3280.4,1808.5z"/>
			<path class="st22" d="M3315.9,1741l55.4,24l-19-14C3352.4,1751,3306.1,1730.8,3315.9,1741z"/>
			<path class="st26" d="M3312.9,1730.5c0,0,35.5-0.1,38.5,6.4s1.1,14.1,1.1,14.1l-37.3-15.6L3312.9,1730.5z"/>
			<path class="st22" d="M3327.4,1741c0,0,19.5,1.5,19.8,7.6S3327.4,1741,3327.4,1741z"/>
			<path class="st35" d="M1423.4,1218c3.9-3.3,8.1-6.3,12.5-9c4.2-2,8.5-3.6,12.9-4.9l6.5-1.2c2.2-0.3,4.4,0.4,6.5-0.4l6.4,0.4
				c1.7,0.8,3.7,0.6,5.5,1c4.7,1.3,9.4,3,13.8,5.1l0,0l0.5,0.4c2.5,1.7,5.2,3.1,7.5,5.1c1.6,1.4,3.2,2.7,4.9,4.1
				c3.6,4.1,6.9,8.5,9.7,13.2c1.8,4.1,3.4,8.3,4.7,12.5c0.3,1.9,0.6,3.7,0.9,5.6c0.2,2.6,0.3,5.2,0.4,7.8c0,1.6-0.1,3.1-0.1,4.7
				l-1.3,7.8c-1.2,4.3-2.8,8.5-4.8,12.5c-1.2,2.3-2.5,4.5-4,6.6c-5,6.5-11.3,11.9-18.4,16c-4.1,2.1-8.5,3.7-12.9,5l-6.5,1.1
				l-5.6,0.3l-7.2-0.2l-6.5-1.1c-4.4-1.2-8.7-2.9-12.8-4.9c-4-2.4-7.8-5.1-11.3-8.2c-4.3-4.2-8.1-8.9-11.1-14.1
				c-1.9-4.2-3.5-8.5-4.9-12.8c-0.3-1.7-0.6-3.4-0.9-5.2c0-0.5,0.1-0.9-0.3-1.3l0,0c-0.1-2.1-0.2-4.3-0.3-6.4v-1.3
				c0-0.4,0-0.8,0.1-1.3c0.1-1.3,0.1-2.6,0.2-3.9c0.4-2.1,0.8-4.3,1.2-6.4c1.3-4.4,2.9-8.8,4.9-12.9c2.6-4.3,5.7-8.5,9-12.3
				C1423,1218.9,1423.4,1218.5,1423.4,1218z M1461.7,1245.8c-0.3-0.5-0.5-0.7-0.6-1c-2.7-5.1-7-7.5-12.7-6.9c-5.5,0.6-9.2,3.8-11,9
				c-2.2,6.4-0.6,12.2,3,17.6c5.1,7.6,12.3,12.9,20.2,17.4c0.7,0.4,1.5,0.4,2.2,0c6.5-3.5,12.3-8,17.2-13.4c4.5-5.1,7.4-10.9,6.7-18
				s-6.2-12.5-13-12.5C1468.1,1237.8,1464.3,1240.5,1461.7,1245.8L1461.7,1245.8z"/>
			<path class="st16" d="M1461.7,1245.8c2.6-5.2,6.4-8,12-8c6.8,0,12.3,5.5,13,12.5s-2.2,12.9-6.7,18c-4.9,5.4-10.8,10-17.2,13.4
				c-0.7,0.4-1.5,0.4-2.2,0c-7.9-4.5-15.1-9.7-20.2-17.4c-3.6-5.4-5.1-11.2-3-17.6c1.8-5.2,5.5-8.4,11-9c5.7-0.6,10,1.8,12.7,6.9
				C1461.2,1245,1461.4,1245.2,1461.7,1245.8z"/>
			<path class="st35" d="M1834.6,1011.6c4.8-3.8,9.5-7.7,14.9-10.7c5-2.4,10.1-4.3,15.4-5.8l7.7-1.4c2.6-0.3,5.2,0.4,7.7-0.5
				l7.7,0.5c2.1,1,4.4,0.7,6.6,1.2c5.7,1.5,11.2,3.6,16.5,6.1l0,0l0.6,0.4c3,2,6.2,3.7,8.9,6.1c1.9,1.7,3.9,3.3,5.8,4.9
				c4.4,4.9,8.2,10.1,11.6,15.8c2.2,4.9,4,9.9,5.6,15c0.4,2.2,0.8,4.4,1.1,6.6c0.2,3.1,0.4,6.2,0.5,9.3c-0.1,1.9-0.1,3.7-0.2,5.6
				c-0.5,3.1-1,6.2-1.5,9.3c-1.4,5.1-3.3,10.1-5.7,14.9c-1.6,2.6-2.8,5.5-4.7,7.8c-6,7.8-13.5,14.3-22,19.1
				c-5,2.4-10.1,4.4-15.4,5.9l-7.7,1.3l-6.7,0.4l-8.6-0.3l-7.8-1.3c-5.3-1.5-10.4-3.4-15.3-5.8c-4.8-2.8-9.3-6.1-13.5-9.8
				c-5.4-4.9-9.5-10.8-13.3-16.9c-2.3-5-4.2-10.1-5.8-15.3c-0.4-2.1-0.8-4.1-1.1-6.2c0.1-0.6,0.2-1.1-0.3-1.6v-0.1
				c-0.1-2.6-0.2-5.1-0.3-7.6v-1.6c0-0.5,0.1-1,0.1-1.5c0.1-1.6,0.1-3.1,0.2-4.7c0.5-2.5,0.9-5.1,1.4-7.6c1.5-5.3,3.5-10.5,5.9-15.5
				c3.2-5.2,6.7-10.1,10.7-14.7C1834.1,1012.6,1834.5,1012.2,1834.6,1011.6z M1880.3,1044.8c-0.4-0.6-0.6-0.9-0.7-1.1
				c-3.2-6.1-8.4-9-15.2-8.3c-6.6,0.7-11,4.5-13.1,10.8c-2.6,7.6-0.7,14.6,3.6,21c6.1,9.1,14.8,15.4,24.1,20.7
				c0.8,0.5,1.8,0.5,2.6-0.1c7.7-4.3,14.7-9.4,20.6-16.1c5.4-6.1,8.8-12.9,8-21.5s-7.4-14.9-15.5-15
				C1888,1035.2,1883.4,1038.5,1880.3,1044.8z"/>
			<path class="st16" d="M1880.3,1044.8c3.1-6.3,7.7-9.6,14.4-9.5c8.1,0,14.7,6.6,15.5,15s-2.7,15.4-8,21.5
				c-5.8,6.6-12.9,11.7-20.6,16.1c-0.8,0.5-1.8,0.6-2.6,0.1c-9.4-5.4-18-11.6-24.1-20.7c-4.3-6.4-6.1-13.4-3.6-21
				c2.1-6.3,6.6-10.1,13.1-10.8c6.8-0.7,12,2.2,15.2,8.3C1879.8,1043.9,1880,1044.1,1880.3,1044.8z"/>
			<path class="st35" d="M2204.8,1215.7c4.8-3.8,9.5-7.7,14.9-10.8c5-2.4,10.1-4.3,15.4-5.8l7.7-1.4c2.6-0.3,5.2,0.4,7.7-0.5
				l7.7,0.5c2.1,1,4.4,0.7,6.6,1.1c5.7,1.5,11.2,3.6,16.5,6.1l0,0l0.6,0.4c3,2,6.2,3.7,8.9,6c1.9,1.7,3.9,3.3,5.8,4.9
				c4.4,4.9,8.2,10.1,11.6,15.8c2.2,4.9,4,9.9,5.6,15c0.4,2.2,0.7,4.4,1.1,6.6c0.2,3.1,0.4,6.2,0.5,9.3c0,1.9-0.1,3.7-0.2,5.6
				l-1.5,9.3c-1.5,5.1-3.4,10.1-5.7,14.9c-1.6,2.6-2.9,5.5-4.7,7.8c-6.1,7.7-13.3,14.4-22,19.1c-5,2.4-10.1,4.4-15.4,5.9l-7.7,1.3
				l-6.7,0.4l-8.6-0.3l-7.8-1.3c-5.3-1.5-10.4-3.4-15.3-5.8c-4.8-2.8-9.3-6.1-13.5-9.8c-5.4-4.9-9.5-10.8-13.3-16.9
				c-2.3-5-4.2-10.1-5.8-15.3c-0.4-2.1-0.7-4.1-1.1-6.2c0.1-0.6,0.2-1.1-0.3-1.6v-0.1c-0.1-2.6-0.2-5.1-0.3-7.6c0-0.5,0-1,0-1.6
				s0.1-1,0.1-1.5c0.1-1.6,0.1-3.1,0.2-4.7c0.5-2.6,0.9-5.1,1.4-7.6c1.5-5.3,3.5-10.5,5.9-15.5c3.2-5.2,6.7-10.1,10.7-14.7
				C2204.2,1216.8,2204.7,1216.3,2204.8,1215.7z M2250.5,1248.9c-0.4-0.6-0.6-0.9-0.8-1.1c-3.2-6.1-8.4-9-15.2-8.3
				c-6.6,0.7-11,4.5-13.1,10.7c-2.6,7.6-0.7,14.6,3.6,21c6.1,9.1,14.8,15.4,24.1,20.7c0.8,0.5,1.8,0.5,2.6-0.1
				c7.6-4.3,14.7-9.4,20.6-16.1c5.4-6.1,8.8-12.9,8-21.5s-7.4-14.9-15.5-15C2258.2,1239.3,2253.6,1242.6,2250.5,1248.9
				L2250.5,1248.9z"/>
			<path class="st16" d="M2250.5,1248.9c3.1-6.3,7.6-9.6,14.4-9.5c8.1,0.1,14.7,6.6,15.5,15s-2.7,15.4-8,21.5
				c-5.8,6.6-12.9,11.7-20.6,16.1c-0.8,0.5-1.8,0.6-2.6,0.1c-9.4-5.4-18-11.6-24.1-20.7c-4.3-6.4-6.1-13.4-3.6-21
				c2.1-6.3,6.6-10,13.1-10.7c6.8-0.7,12,2.2,15.2,8.3C2249.9,1248,2250.1,1248.3,2250.5,1248.9z"/>
			<path class="st35" d="M2533.6,1134.8c3.9-3.2,8.1-6.1,12.4-8.8c4.2-1.9,8.5-3.5,12.9-4.7l6.4-1.1c2.1-0.3,4.4,0.4,6.5-0.4
				l6.4,0.4c1.7,0.8,3.7,0.6,5.5,0.9c4.7,1.3,9.4,2.9,13.8,5l0,0l0.5,0.3c2.5,1.6,5.2,3,7.5,4.9c1.6,1.4,3.2,2.6,4.9,4
				c3.6,3.9,6.9,8.2,9.7,12.8c1.8,4,3.4,8,4.7,12.2c0.3,1.8,0.6,3.6,0.9,5.4c0.1,2.5,0.3,5,0.4,7.6c0,1.5-0.1,3-0.1,4.6
				c-0.4,2.5-0.9,5-1.3,7.5c-1.2,4.2-2.8,8.2-4.8,12.1c-1.2,2.2-2.5,4.3-3.9,6.4c-5,6.4-11.3,11.7-18.4,15.6
				c-4.2,2-8.5,3.6-12.9,4.8l-6.4,1.1l-5.6,0.3l-7.2-0.2l-6.5-1.1c-4.4-1.2-8.7-2.8-12.8-4.7c-4-2.3-7.8-5-11.3-8
				c-4.3-4-8.1-8.7-11.1-13.7c-1.9-4-3.5-8.2-4.9-12.4c-0.3-1.7-0.6-3.3-0.9-5c0.1-0.5,0.1-0.9-0.3-1.3l0,0
				c-0.1-2.1-0.2-4.1-0.3-6.2v-1.3c0-0.4,0-0.8,0.1-1.2c0.1-1.3,0.1-2.6,0.2-3.8c0.4-2.1,0.8-4.1,1.2-6.2c1.3-4.3,2.9-8.5,4.9-12.6
				c2.7-4.2,5.7-8.3,9-12C2533.2,1135.6,2533.5,1135.2,2533.6,1134.8z M2571.9,1161.8c-0.3-0.5-0.5-0.7-0.6-0.9
				c-2.7-5-7-7.3-12.7-6.7c-5.1,0.3-9.5,3.8-11,8.7c-2.1,6.2-0.6,11.8,3,17.1c5.1,7.4,12.4,12.5,20.2,16.9c0.7,0.4,1.5,0.4,2.2,0
				c6.4-3.4,12.2-7.8,17.2-13.1c4.5-5,7.4-10.5,6.7-17.5c-0.5-6.8-6.1-12.1-12.9-12.2C2578.3,1153.9,2574.4,1156.6,2571.9,1161.8
				L2571.9,1161.8z"/>
			<path class="st16" d="M2571.9,1161.7c2.6-5.1,6.4-7.8,12-7.8c6.8,0.1,12.4,5.4,12.9,12.2c0.7,6.9-2.2,12.5-6.7,17.5
				c-5,5.3-10.8,9.7-17.2,13.1c-0.7,0.4-1.5,0.4-2.2,0c-7.9-4.4-15.1-9.5-20.2-16.9c-3.6-5.2-5.1-10.9-3-17.1
				c1.5-4.9,5.9-8.4,11-8.7c5.7-0.6,10,1.8,12.7,6.7C2571.4,1161,2571.5,1161.2,2571.9,1161.7z"/>
			<path class="st35" d="M1156,1196.6c5.7-4.4,11.3-8.9,17.6-12.4c5.9-2.7,12-4.9,18.2-6.7l9.1-1.6c3-0.4,6.2,0.5,9.2-0.6l9.1,0.6
				c2.5,1.1,5.2,0.8,7.8,1.3c6.7,1.8,13.2,4.1,19.5,7l0,0l0.7,0.5c3.5,2.3,7.3,4.2,10.6,7c2.2,1.9,4.6,3.8,6.9,5.6
				c5.1,5.6,9.7,11.7,13.7,18.1c2.6,5.6,4.8,11.3,6.6,17.2c0.4,2.6,0.9,5.1,1.3,7.6c0.2,3.6,0.4,7.1,0.6,10.7
				c-0.1,2.1-0.1,4.3-0.2,6.5c-0.6,3.6-1.2,7.1-1.8,10.7c-1.7,5.9-4,11.6-6.7,17.1c-1.8,3-3.4,6.3-5.6,9c-7.3,8.9-15.7,16.5-26,22
				c-5.9,2.8-12,5.1-18.3,6.8l-9.1,1.5l-7.9,0.4l-10.2-0.3l-9.2-1.5c-6.2-1.7-12.3-3.9-18.1-6.7c-5.7-3.2-11-7-15.9-11.3
				c-6.3-5.6-11.2-12.4-15.7-19.4c-2.7-5.7-5-11.6-6.9-17.6l-1.3-7.1c0.1-0.6,0.2-1.3-0.4-1.8v-0.1c-0.1-2.9-0.3-5.9-0.4-8.8
				c0-0.6,0-1.2,0-1.8l0.1-1.7c0.1-1.8,0.2-3.6,0.3-5.4l1.7-8.8c1.8-6.1,4.1-12.1,6.9-17.8c3.6-6.1,8.1-11.5,12.7-16.9
				C1155.4,1197.8,1155.9,1197.2,1156,1196.6z M1210.1,1234.7c-0.5-0.7-0.7-1-0.9-1.3c-3.8-7-9.9-10.3-18-9.5
				c-7.8,0.8-13,5.2-15.5,12.4c-3,8.7-0.9,16.8,4.2,24.1c7.3,10.5,17.5,17.7,28.6,23.9c1,0.6,2.2,0.6,3.1-0.1
				c9.1-5,17.4-10.8,24.3-18.5c6.3-7,10.4-14.9,9.5-24.7c-0.8-9.6-8.7-17-18.3-17.2C1219.2,1223.7,1213.8,1227.5,1210.1,1234.7
				L1210.1,1234.7z"/>
			<path class="st16" d="M1210.1,1234.7c3.7-7.2,9.1-11,17-10.9c9.6,0.2,17.5,7.6,18.3,17.2c0.9,9.8-3.2,17.6-9.5,24.7
				c-6.9,7.6-15.3,13.5-24.3,18.5c-0.9,0.6-2.1,0.7-3.1,0.1c-11.1-6.1-21.3-13.4-28.6-23.9c-5.1-7.4-7.3-15.4-4.2-24.1
				c2.5-7.2,7.8-11.6,15.5-12.4c8.1-0.8,14.2,2.5,18,9.5C1209.4,1233.7,1209.7,1234,1210.1,1234.7z"/>
			<path class="st36" d="M1821.2,1324.9c-36.1,0.3-65.7-28.7-66-64.8s28.7-65.7,64.8-66c0.5,0,1,0,1.6,0c36.1,0,65.2,29.5,65.2,65.9
				C1886.7,1295.9,1857.4,1325,1821.2,1324.9z M1828.3,1287.9c5.6,0,11.3,0.1,16.9,0c4.4-0.1,5.6-2.4,4.9-6.7
				c-0.6-3.8,2.5-7.5,1.4-11.6c0-0.1,0.2-0.2,0.3-0.3c2.2-2.3,2.1-4.8,0.6-7.3c-0.7-1.1-0.9-1.7-0.1-2.9c3.1-5,1.2-8.2-4.8-8.4
				c-4.5-0.1-9,0-13.5-0.1c-1.2,0-2.7,0.6-3.4-0.8s0.6-2.2,1.2-3.2c3-4.6,3.5-10.3,1.3-15.3c-1.2-2.8-3.2-4.2-6.4-3.6
				s-3.4,2.9-3.4,5.5s0.1,5.5-2.3,7.3c-4.7,3.4-7.3,8.5-10.7,12.9c-1.7,2.1-2.6,4.8-2.6,7.5c-0.1,7.6,0,15.2,0,22.8
				c0,3,1.4,4.3,4.4,4.2C1817.3,1287.8,1822.8,1287.9,1828.3,1287.9L1828.3,1287.9z M1803.2,1274.6L1803.2,1274.6c0-2.7,0-5.3,0-8
				c0-9.6,0-9.5-9.6-9.6c-3.8-0.1-5,1.6-4.9,4.9c0.1,6.6,0,13.2,0,19.8c0,11.1,0,11.1,11.2,10.4c2.3-0.1,3.3-0.9,3.2-3.3
				C1803.1,1284.2,1803.2,1279.4,1803.2,1274.6L1803.2,1274.6z"/>
			<path class="st37" d="M1828.3,1287.9c-5.5,0-11-0.1-16.5,0c-3,0.1-4.4-1.2-4.4-4.2c0-7.6,0-15.2,0-22.8c0-2.7,1-5.3,2.6-7.5
				c3.4-4.4,6.1-9.5,10.7-12.9c2.5-1.8,2.4-4.6,2.3-7.3s0.4-4.9,3.4-5.5s5.2,0.8,6.4,3.6c2.2,5,1.7,10.8-1.3,15.3
				c-0.6,1.1-2,1.8-1.2,3.2s2.3,0.8,3.4,0.8c4.5,0.1,9,0,13.5,0.1c6,0.2,7.9,3.4,4.8,8.4c-0.8,1.2-0.6,1.8,0.1,2.9
				c1.5,2.5,1.6,5.1-0.6,7.3c-0.1,0.1-0.3,0.2-0.3,0.3c1.1,4.1-2,7.8-1.4,11.6c0.7,4.3-0.5,6.6-4.9,6.7
				C1839.6,1288,1833.9,1287.9,1828.3,1287.9z"/>
			<path class="st37" d="M1803.2,1274.6c0,4.8-0.1,9.6,0,14.3c0,2.3-0.9,3.1-3.2,3.3c-11.2,0.7-11.2,0.7-11.2-10.4
				c0-6.6,0-13.2,0-19.8c0-3.4,1.1-5,4.9-4.9c9.6,0.1,9.6,0,9.6,9.6C1803.2,1269.3,1803.2,1272,1803.2,1274.6L1803.2,1274.6z"/>
			<path class="st36" d="M2597,1037.1c-36-0.1-65.2-29.3-65.3-65.3c0-36,29.6-65.6,65.7-65.6s65.2,29.5,65.2,65.9
				C2662.5,1008.1,2633.2,1037.1,2597,1037.1z M2604.1,1000.1c5.6,0,11.3,0.1,16.9,0c4.4-0.1,5.6-2.4,4.9-6.7
				c-0.6-3.8,2.5-7.5,1.4-11.6c0-0.1,0.2-0.2,0.3-0.3c2.2-2.3,2.1-4.8,0.6-7.3c-0.7-1.1-0.9-1.7-0.1-2.9c3.1-5,1.2-8.2-4.8-8.4
				c-4.5-0.1-9,0-13.5-0.1c-1.2,0-2.7,0.6-3.4-0.8s0.6-2.2,1.2-3.2c3-4.6,3.5-10.3,1.3-15.3c-1.2-2.8-3.2-4.2-6.4-3.6
				s-3.4,2.9-3.4,5.5s0.1,5.5-2.3,7.3c-4.7,3.4-7.3,8.5-10.7,12.9c-1.7,2.1-2.6,4.8-2.6,7.5c-0.1,7.6,0,15.2-0.1,22.8
				c0,3,1.4,4.3,4.4,4.2C2593.1,1000,2598.6,1000.1,2604.1,1000.1L2604.1,1000.1z M2579,986.8L2579,986.8v-8c0-9.6,0-9.5-9.6-9.6
				c-3.8-0.1-5,1.6-4.9,4.9c0.1,6.6,0,13.2,0,19.8c0,11.1,0,11.1,11.2,10.4c2.3-0.1,3.3-0.9,3.3-3.3
				C2579,996.3,2579,991.6,2579,986.8L2579,986.8z"/>
			<path class="st37" d="M2604.1,1000.1c-5.5,0-11-0.1-16.5,0c-3.1,0.1-4.4-1.2-4.4-4.2c0-7.6,0-15.2,0.1-22.8c0-2.7,1-5.3,2.6-7.5
				c3.4-4.4,6.1-9.5,10.7-12.9c2.5-1.8,2.4-4.6,2.3-7.3s0.4-4.8,3.4-5.5s5.2,0.8,6.4,3.6c2.2,5,1.7,10.8-1.3,15.3
				c-0.6,1.1-2,1.8-1.2,3.2s2.3,0.8,3.4,0.8c4.5,0.1,9,0,13.5,0.1c6,0.2,7.9,3.4,4.8,8.4c-0.8,1.2-0.6,1.8,0.1,2.9
				c1.5,2.5,1.6,5-0.6,7.3c-0.1,0.1-0.3,0.2-0.3,0.3c1.1,4.1-2,7.8-1.4,11.6c0.7,4.3-0.5,6.6-4.9,6.7
				C2615.4,1000.1,2609.8,1000.1,2604.1,1000.1z"/>
			<path class="st37" d="M2579,986.8c0,4.8-0.1,9.6,0,14.3c0,2.3-1,3.1-3.3,3.3c-11.2,0.7-11.2,0.7-11.2-10.4c0-6.6,0-13.2,0-19.8
				c0-3.4,1.1-5,4.9-4.9c9.6,0.1,9.6,0,9.6,9.6V986.8L2579,986.8z"/>
			<path class="st36" d="M2281.5,1075.3c-46.6-0.1-84.3-37.8-84.4-84.4c0-46.5,38.3-84.8,84.9-84.7s84.3,38.1,84.2,85.2
				C2366.1,1037.8,2328.3,1075.4,2281.5,1075.3z M2290.7,1027.5c7.3,0,14.6,0.1,21.8,0c5.7-0.1,7.2-3.1,6.3-8.7
				c-0.8-4.9,3.2-9.7,1.8-14.9c0-0.1,0.2-0.2,0.4-0.4c2.8-3,2.8-6.2,0.8-9.5c-0.9-1.4-1.1-2.2-0.2-3.8c3.9-6.5,1.5-10.7-6.2-10.9
				c-5.8-0.2-11.6,0-17.5-0.1c-1.5,0-3.5,0.8-4.5-1s0.7-2.8,1.6-4.2c3.9-6.3,4.6-13,1.6-19.8c-1.5-3.6-4.2-5.5-8.2-4.6
				c-3.9,0.8-4.4,3.8-4.4,7.1c0.1,3.5,0.2,7.1-3,9.5c-6,4.4-9.5,11-13.9,16.7c-2.2,2.8-3.4,6.1-3.4,9.6c-0.1,9.8,0,19.7-0.1,29.5
				c0,3.9,1.8,5.6,5.7,5.5C2276.5,1027.4,2283.6,1027.5,2290.7,1027.5L2290.7,1027.5z M2258.3,1010.3L2258.3,1010.3
				c0-3.4,0-6.9,0-10.3c0-12.5,0-12.2-12.4-12.4c-5-0.1-6.4,2-6.4,6.4c0.1,8.5,0,17.1,0,25.6c0,14.4,0,14.3,14.5,13.5
				c3-0.2,4.2-1.2,4.2-4.2C2258.2,1022.7,2258.3,1016.5,2258.3,1010.3L2258.3,1010.3z"/>
			<path class="st37" d="M2290.7,1027.5c-7.1,0-14.2-0.1-21.3,0c-3.9,0.1-5.7-1.6-5.7-5.5c0.1-9.8,0-19.7,0.1-29.5
				c0.1-3.5,1.3-6.9,3.4-9.6c4.4-5.7,7.9-12.3,13.9-16.7c3.2-2.3,3.1-6,3-9.5c-0.1-3.3,0.5-6.3,4.4-7.1c4.1-0.9,6.7,1,8.2,4.6
				c2.9,6.8,2.2,13.5-1.6,19.8c-0.8,1.4-2.5,2.4-1.6,4.2s2.9,1,4.5,1c5.8,0.1,11.6-0.1,17.5,0.1c7.7,0.2,10.2,4.4,6.2,10.9
				c-1,1.6-0.7,2.3,0.2,3.8c2,3.2,2.1,6.5-0.8,9.5c-0.1,0.1-0.4,0.3-0.4,0.4c1.4,5.3-2.6,10-1.8,14.9c0.9,5.5-0.6,8.6-6.3,8.7
				C2305.3,1027.6,2298,1027.5,2290.7,1027.5z"/>
			<path class="st37" d="M2258.3,1010.3c0,6.2-0.1,12.3,0,18.5c0.1,3-1.2,4-4.2,4.2c-14.5,0.8-14.5,0.9-14.5-13.5
				c0-8.5,0.1-17.1,0-25.6c0-4.4,1.4-6.5,6.4-6.4c12.4,0.2,12.4,0,12.4,12.4C2258.3,1003.4,2258.3,1006.9,2258.3,1010.3
				L2258.3,1010.3z"/>
			<path class="st36" d="M2079.3,1188.7c-23.3,0-42.1-18.9-42.1-42.2s18.9-42.1,42.2-42.1s42.1,18.9,42.1,42.2c0,0.1,0,0.2,0,0.2
				C2121.4,1170,2102.5,1188.7,2079.3,1188.7z M2083.9,1164.9c3.6,0,7.3,0,10.9,0c2.8-0.1,3.6-1.6,3.1-4.3c-0.4-2.4,1.6-4.8,0.9-7.4
				c0,0,0.1-0.1,0.2-0.2c1.3-1.3,1.5-3.3,0.4-4.7c-0.5-0.5-0.5-1.3-0.1-1.9c2-3.2,0.8-5.3-3.1-5.4c-2.9-0.1-5.8,0-8.7,0
				c-0.8,0-1.7,0.4-2.2-0.5s0.4-1.4,0.8-2.1c1.9-2.9,2.2-6.7,0.8-9.9c-0.5-1.7-2.3-2.8-4.1-2.3c-1.9,0.4-2.2,1.9-2.2,3.6
				s0.1,3.6-1.5,4.7c-3,2.2-4.7,5.5-6.9,8.3c-1.1,1.4-1.7,3.1-1.7,4.8c0,4.9,0,9.8,0,14.7c0,1.9,0.9,2.8,2.8,2.7
				C2076.9,1164.8,2080.4,1164.9,2083.9,1164.9L2083.9,1164.9z M2067.8,1156.3L2067.8,1156.3v-5.2c0-6.2,0-6.1-6.2-6.2
				c-2.5,0-3.2,1-3.2,3.2c0,4.2,0,8.5,0,12.8c0,7.2,0,7.1,7.2,6.7c1.5-0.1,2.1-0.6,2.1-2.1
				C2067.7,1162.5,2067.8,1159.4,2067.8,1156.3L2067.8,1156.3z"/>
			<path class="st37" d="M2083.9,1164.9c-3.5,0-7.1-0.1-10.6,0c-2,0-2.8-0.8-2.8-2.7c0-4.9,0-9.8,0-14.7c0-1.7,0.6-3.4,1.7-4.8
				c2.2-2.9,3.9-6.1,6.9-8.3c1.6-1.2,1.6-3,1.5-4.7s0.2-3.1,2.2-3.6c1.8-0.5,3.6,0.5,4.1,2.3c1.4,3.2,1.1,6.9-0.8,9.9
				c-0.4,0.7-1.3,1.2-0.8,2.1s1.5,0.5,2.2,0.5c2.9,0,5.8,0,8.7,0c3.9,0.1,5.1,2.2,3.1,5.4c-0.4,0.6-0.4,1.4,0.1,1.9
				c1.1,1.4,0.9,3.5-0.4,4.7c-0.1,0.1-0.2,0.1-0.2,0.2c0.7,2.6-1.3,5-0.9,7.4c0.4,2.8-0.3,4.3-3.1,4.3
				C2091.2,1164.9,2087.6,1164.9,2083.9,1164.9z"/>
			<path class="st37" d="M2067.8,1156.3c0,3.1,0,6.1,0,9.2c0,1.5-0.6,2-2.1,2.1c-7.2,0.4-7.2,0.4-7.2-6.7c0-4.3,0-8.5,0-12.8
				c0-2.2,0.7-3.2,3.2-3.2c6.2,0.1,6.2,0,6.2,6.2L2067.8,1156.3L2067.8,1156.3z"/>
			<path class="st36" d="M1376.5,1187.1c-23.3,0-42.1-18.9-42.1-42.2s18.9-42.1,42.2-42.1c23.3,0,42.1,18.9,42.1,42.2
				c0,0.1,0,0.2,0,0.2C1418.5,1168.4,1399.7,1187.1,1376.5,1187.1z M1381.1,1163.3c3.6,0,7.3,0,10.9,0c2.8,0,3.6-1.6,3.2-4.3
				c-0.4-2.4,1.6-4.8,0.9-7.4c0,0,0.1-0.1,0.2-0.2c1.3-1.2,1.5-3.3,0.4-4.7c-0.5-0.5-0.5-1.3-0.1-1.9c2-3.2,0.8-5.3-3.1-5.4
				c-2.9-0.1-5.8,0-8.7-0.1c-0.8,0-1.7,0.4-2.2-0.5s0.4-1.4,0.8-2.1c1.9-2.9,2.2-6.7,0.8-9.9c-0.5-1.7-2.3-2.8-4.1-2.3
				c-1.9,0.4-2.2,1.9-2.2,3.6s0.1,3.6-1.5,4.7c-3,2.2-4.7,5.5-6.9,8.3c-1.1,1.4-1.7,3.1-1.7,4.8c-0.1,4.9,0,9.8,0,14.7
				c0,1.9,0.9,2.8,2.8,2.7C1374,1163.2,1377.5,1163.3,1381.1,1163.3z M1364.9,1154.7L1364.9,1154.7v-5.1c0-6.2,0-6.1-6.2-6.2
				c-2.5,0-3.2,1-3.2,3.2c0,4.2,0,8.5,0,12.8c0,7.2,0,7.1,7.2,6.7c1.5-0.1,2.1-0.6,2.1-2.1
				C1364.9,1160.9,1364.9,1157.8,1364.9,1154.7L1364.9,1154.7z"/>
			<path class="st37" d="M1381.1,1163.3c-3.5,0-7.1,0-10.6,0c-2,0-2.8-0.8-2.8-2.7c0-4.9,0-9.8,0-14.7c0-1.7,0.6-3.4,1.7-4.8
				c2.2-2.9,3.9-6.1,6.9-8.3c1.6-1.2,1.5-3,1.5-4.7s0.2-3.1,2.2-3.6c1.8-0.5,3.6,0.5,4.1,2.3c1.4,3.2,1.1,6.9-0.8,9.9
				c-0.4,0.7-1.3,1.2-0.8,2.1s1.5,0.5,2.2,0.5c2.9,0.1,5.8,0,8.7,0.1c3.9,0.1,5.1,2.2,3.1,5.4c-0.4,0.6-0.4,1.4,0.1,1.9
				c1.1,1.4,0.9,3.5-0.4,4.7c-0.1,0.1-0.2,0.1-0.2,0.2c0.7,2.6-1.3,5-0.9,7.4c0.4,2.8-0.3,4.3-3.2,4.3
				C1388.3,1163.3,1384.7,1163.3,1381.1,1163.3z"/>
			<path class="st37" d="M1364.9,1154.7c0,3.1,0,6.2,0,9.2c0,1.5-0.6,2-2.1,2.1c-7.2,0.4-7.2,0.4-7.2-6.7c0-4.2,0-8.5,0-12.8
				c0-2.2,0.7-3.2,3.2-3.2c6.2,0.1,6.2,0,6.2,6.2L1364.9,1154.7L1364.9,1154.7z"/>
			<path class="st36" d="M2444.9,1146.6c-23.3,0-42.1-18.9-42.1-42.2s18.9-42.1,42.2-42.1s42.1,18.9,42.1,42.2c0,0.1,0,0.2,0,0.2
				C2487,1127.9,2468.1,1146.6,2444.9,1146.6z M2449.5,1122.7c3.6,0,7.3,0.1,10.9,0c2.8-0.1,3.6-1.6,3.1-4.3
				c-0.4-2.4,1.6-4.8,0.9-7.4c0,0,0.1-0.1,0.2-0.2c1.3-1.3,1.5-3.3,0.4-4.7c-0.5-0.5-0.5-1.3-0.1-1.9c2-3.2,0.8-5.3-3.1-5.4
				c-2.9-0.1-5.8,0-8.7,0c-0.8,0-1.7,0.4-2.2-0.5s0.4-1.4,0.8-2.1c1.9-2.9,2.2-6.7,0.8-9.9c-0.5-1.7-2.3-2.8-4.1-2.3
				c-1.9,0.4-2.2,1.9-2.2,3.6s0.1,3.6-1.5,4.7c-3,2.2-4.7,5.5-6.9,8.3c-1.1,1.4-1.7,3.1-1.7,4.8c0,4.9,0,9.8,0,14.7
				c0,1.9,0.9,2.8,2.8,2.7C2442.5,1122.7,2446,1122.7,2449.5,1122.7z M2433.4,1114.2L2433.4,1114.2v-5.2c0-6.2,0-6.1-6.2-6.2
				c-2.5,0-3.2,1-3.2,3.2c0,4.3,0,8.5,0,12.8c0,7.2,0,7.1,7.2,6.7c1.5-0.1,2.1-0.6,2.1-2.1
				C2433.3,1120.3,2433.4,1117.2,2433.4,1114.2z"/>
			<path class="st37" d="M2449.5,1122.7c-3.5,0-7.1-0.1-10.6,0c-2,0-2.8-0.8-2.8-2.7c0-4.9,0-9.8,0-14.7c0-1.7,0.6-3.4,1.7-4.8
				c2.2-2.9,3.9-6.1,6.9-8.3c1.6-1.2,1.6-3,1.5-4.7s0.2-3.1,2.2-3.6c1.8-0.5,3.6,0.5,4.1,2.3c1.4,3.2,1.1,6.9-0.8,9.9
				c-0.4,0.7-1.3,1.2-0.8,2.1s1.5,0.5,2.2,0.5c2.9,0,5.8,0,8.7,0c3.9,0.1,5.1,2.2,3.1,5.4c-0.4,0.6-0.4,1.4,0.1,1.9
				c1.1,1.4,0.9,3.5-0.4,4.7c-0.1,0.1-0.2,0.1-0.2,0.2c0.7,2.6-1.3,5-0.9,7.4c0.4,2.8-0.3,4.3-3.1,4.3
				C2456.8,1122.8,2453.2,1122.7,2449.5,1122.7z"/>
			<path class="st37" d="M2433.4,1114.2c0,3.1,0,6.1,0,9.2c0,1.5-0.6,2-2.1,2.1c-7.2,0.4-7.2,0.4-7.2-6.7c0-4.2,0-8.5,0-12.8
				c0-2.2,0.7-3.2,3.2-3.2c6.2,0.1,6.2,0,6.2,6.2L2433.4,1114.2L2433.4,1114.2z"/>
			<rect x="330.9" y="1121.6" class="st38" width="469.7" height="19.7"/>
			<rect x="330.9" y="1165.2" class="st38" width="469.7" height="19.7"/>
			<rect x="330.9" y="1208.8" class="st38" width="256.3" height="19.7"/>
			<rect x="330.9" y="1249.5" class="st38" width="469.7" height="19.7"/>
			<rect x="330.9" y="1293" class="st38" width="469.7" height="19.7"/>
			<rect x="330.9" y="1336.6" class="st38" width="256.3" height="19.7"/>
			<rect x="330.9" y="1377.3" class="st38" width="469.7" height="19.7"/>
			<rect x="330.9" y="1420.9" class="st38" width="469.7" height="19.7"/>
			<rect x="330.9" y="1464.4" class="st38" width="256.3" height="19.7"/>
			<rect x="330.9" y="1505.1" class="st38" width="469.7" height="19.7"/>
			<rect x="330.9" y="1548.7" class="st38" width="469.7" height="19.7"/>
			<rect x="330.9" y="1592.3" class="st38" width="256.3" height="19.7"/>
			<rect x="330.9" y="923.4" class="st38" width="657.4" height="164.7"/>
			<rect x="397.6" y="1800.8" class="st39" width="17.4" height="153.8"/>
			<rect x="453.1" y="1863.8" class="st40" width="17.4" height="90.8"/>
			<rect x="505.8" y="1800.8" class="st39" width="17.4" height="153.8"/>
			<rect x="561.3" y="1863.8" class="st41" width="17.4" height="90.8"/>
			<polygon class="st42" points="637.1,1973 347.6,1973 347.6,1781.9 351.2,1781.9 351.2,1969.3 637.1,1969.3 			"/>
			<polygon class="st42" points="340.5,1791.7 358.8,1791.7 349.7,1773.8 			"/>
			<polygon class="st42" points="633.1,1961.8 633.1,1980 651,1970.9 			"/>
			<polygon class="st42" points="611.7,1755.2 626,1766.6 630,1746.9 			"/>
			<polygon class="st42" points="469.2,1806 399.9,1754.1 370.2,1770.2 369,1767.9 400.1,1751.1 468.8,1802.5 505.2,1758.9 
				575.6,1802.7 623.2,1754 625,1755.8 575.9,1805.9 505.7,1762.3 			"/>
			<circle class="st39" cx="399.8" cy="1753.5" r="6.2"/>
			<circle class="st39" cx="505.3" cy="1761.6" r="6.2"/>
			<circle class="st39" cx="575.2" cy="1804.3" r="6.2"/>
			<path class="st43" d="M3005.1,457.3l-602.4-2.4c-25-0.1-45.3,25.8-45.4,57.9l-0.6,140.8c-0.1,32.1,20,58.2,45,58.3l130.1,0.4
				l4.7,90.5l72.3-90l395.3,1.6c25,0.1,45.3-25.8,45.4-57.9l0.6-140.8C3050.2,483.5,3030,457.4,3005.1,457.3z"/>
			<path class="st44" d="M2723.8,260.1l-303.6-1.2c-12.6-0.1-22.8,13-22.9,29.2l-0.3,71c-0.1,16.2,10.1,29.3,22.7,29.4l65.6,0.2
				l2.4,45.6l36.4-45.4l199.2,0.8c12.6,0,22.8-13,22.9-29.2l0.3-71C2746.6,273.3,2736.4,260.2,2723.8,260.1z"/>
			<path class="st5" d="M2429.2,516.4h547.5c1.7,0,3,1.3,3,3v10.8c0,1.7-1.3,3-3,3h-547.5c-1.7,0-3-1.3-3-3v-10.8
				C2426.2,517.7,2427.5,516.4,2429.2,516.4z"/>
			<path class="st5" d="M2429.2,549.8h547.5c1.7,0,3,1.3,3,3v9.4c0,1.7-1.3,3-3,3h-547.5c-1.7,0-3-1.3-3-3v-9.4
				C2426.2,551.2,2427.5,549.8,2429.2,549.8z"/>
			<path class="st5" d="M2429.2,581.9h547.5c1.7,0,3,1.3,3,3v10.8c0,1.7-1.3,3-3,3h-547.5c-1.7,0-3-1.3-3-3v-10.8
				C2426.2,583.2,2427.5,581.9,2429.2,581.9z"/>
			<path class="st5" d="M2429.2,615.3h334.3c1.7,0,3,1.3,3,3v9.4c0,1.7-1.3,3-3,3h-334.3c-1.7,0-3-1.3-3-3v-9.4
				C2426.2,616.7,2427.5,615.3,2429.2,615.3z"/>
			<g class="st45">
				<path class="st43" d="M3616.9,1443.5h72.5l39.5,25.7v-109.1c0-21.9-20.4-39.7-45.5-39.7h-66.5c-25.1,0-45.5,17.8-45.5,39.7v43.7
					C3571.4,1425.7,3591.7,1443.5,3616.9,1443.5z"/>
				<path class="st16" d="M3650,1419.6c-5.8,0-9.9-4.4-9.9-10.2c0-6.1,4.1-10.2,10.1-10.2s9.9,4.1,10,10.2c0,5.8-3.9,10.2-10,10.2
					H3650z M3643.8,1393.6l-2.5-50.8h17.7l-2.5,50.8H3643.8z"/>
			</g>
			<g class="st46">
				<path class="st47" d="M536.7,2427.3l-0.1,0.7h0.1C536.7,2427.8,536.7,2427.5,536.7,2427.3z"/>
				<path class="st48" d="M759.6,2377.4c-1.4-2.2-6.7-1.2-14.4-0.2c-9.9,1.3-19.9,2.1-29.8,2.3c-13.7,0.2-27.3,1.3-40.8,3.3
					c-14.4,2.2-28.6,5.5-42.6,9.8c-22,6.9-43,16.5-62.5,28.6c13-30.6,23.5-62.2,31.6-94.5c13.1-52.2,23.8-120.2,14.5-123.3
					c-9.4-3.2-38.4,60.5-54.5,110.6c-8.4,26-14.9,52.6-19.5,79.6c2.8-29.1,2.1-58.4-2-87.4c-3.9-26.9-10.4-53.4-19.5-79
					c-8.3-22.6-17-37.9-21.6-36.9c-4.8,1-5.2,18.5-4.3,41.8s2.8,52.5,4.7,77.4c1.8,24.2,4.1,46.7,6.6,67.2
					c-8.6-17.4-19.5-33.6-32.4-48.1c-14.8-16.4-31.8-30.8-50.5-42.5c-17.5-10.9-36-19.9-55.3-27c-17.9-6.6-36.3-11.6-55-15.1
					c-33.7-6.3-58.5-5.3-60.3,0.9c-2,6.6,19.4,18.6,47.9,33.7s63.3,34.8,89.8,53.9c14.8,10.6,28.9,22.1,42.2,34.6
					c11.8,11.2,22.7,23.3,32.8,36c1.9,2.4,3.8,4.7,5.7,7.1l-0.3-0.2c-21-13.7-48.7-24.1-79.8-27.9c-27.1-3.3-57.5-1.5-80.4,2.4
					s-39,9-39,13.6c-0.1,9.9,66.5,14.5,112.4,23.1c11.3,2.1,21.9,4.4,31.9,6.9h121.5l0.1-0.7c0,0.2,0,0.4-0.1,0.7h106.5
					c2.6,0,5,1.3,6.4,3.5c10.8-4.2,22.1-8.4,33.3-12.2c12.4-4.2,25-8.3,37.5-12.6c12.3-4.2,23.6-10,30.7-15.9
					S760.9,2379.4,759.6,2377.4z"/>
				<path class="st11" d="M405,2644.7v32.1c0,22.9,18.6,41.5,41.5,41.5l0,0h32.1C438,2718.3,405,2685.4,405,2644.7z"/>
				<path class="st20" d="M441.3,2644.7V2479H405v165.7c0,40.7,33,73.6,73.6,73.6h36.3C474.3,2718.3,441.3,2685.4,441.3,2644.7
					L441.3,2644.7z"/>
				<path class="st11" d="M643.1,2428H385.7c-4.3,0-7.7,3.4-7.7,7.7v35.7c0,4.3,3.4,7.7,7.7,7.7h55.6v165.6
					c0,40.7,33,73.6,73.6,73.6h64.9c26.9,0,48.7-21.8,48.7-48.7V2479h14.6c4.3,0,7.7-3.4,7.7-7.7v-35.7
					C650.8,2431.4,647.4,2428,643.1,2428L643.1,2428z"/>
			</g>
		</g>
	</g>
</g>
</svg>
