<?xml version="1.0" encoding="utf-8"?>
<!-- Generator: Adobe Illustrator 24.1.0, SVG Export Plug-In . SVG Version: 6.00 Build 0)  -->
<svg version="1.1" id="Capa_1" xmlns="http://www.w3.org/2000/svg" xmlns:xlink="http://www.w3.org/1999/xlink" x="0px" y="0px"
	 viewBox="0 0 4000.1 3455.5" style="enable-background:new 0 0 4000.1 3455.5;" xml:space="preserve">
<style type="text/css">
	.st0{fill:#EAF2F9;}
	.st1{fill:#FAC2AE;}
	.st2{fill:#7BADC9;}
	.st3{fill:#22396B;}
	.st4{fill:#D8E4EF;}
	.st5{fill:#FFFFFF;}
	.st6{fill:#C7D5E0;}
	.st7{fill:#D8D8D8;}
	.st8{fill:#91A2C6;}
	.st9{fill:#405284;}
	.st10{fill:#14234C;}
	.st11{fill:#F26876;}
	.st12{font-family:'ArialMT';}
	.st13{font-size:34.02px;}
	.st14{fill:#BCD2E2;}
	.st15{fill:#9B9B9B;}
	.st16{fill:#0F1A42;}
	.st17{fill:none;}
	.st18{fill:#33437C;}
	.st19{fill:#1D2956;}
	.st20{fill:#091644;}
	.st21{fill:#1C2854;}
	.st22{fill:#F1A080;}
	.st23{fill:#182651;}
	.st24{fill:#232F63;}
	.st25{fill:#A3C4E8;}
	.st26{fill:#88ACD3;}
	.st27{fill:#6E9BC4;}
	.st28{fill:#C5E1F9;}
	.st29{opacity:0.49;fill:#111D49;enable-background:new    ;}
	.st30{fill:#231F20;}
	.st31{fill:#485068;}
	.st32{fill:#2F3A54;}
	.st33{fill:#C64A62;}
	.st34{fill:#A53248;}
	.st35{fill:#D35467;}
	.st36{fill:#5787AA;}
	.st37{fill:#7EA4CE;}
	.st38{fill:#6F9FBC;}
	.st39{fill:#4E7A9B;}
	.st40{fill:#285972;}
	.st41{fill:#8DB0DC;}
	.st42{fill:#6590B7;}
	.st43{fill:#111D44;}
	.st44{fill:#131E42;}
	.st45{fill:#6FA4BC;}
	.st46{fill:#4C8A9B;}
	.st47{fill:#619AAF;}
	.st48{fill:#58595B;}
	.st49{fill:#080F28;}
	.st50{fill:#0A1A49;}
</style>
<g>
	<g id="Layer_2">
		<g id="Layer_1-2">
			<path class="st0" d="M2071.7,2672c-602.9,0-1091.6,139.3-1091.6,311.1v0.8c0.4,41.7-32.9,75.9-74.7,75.3
				c-19-0.3-38.3-0.5-57.7-0.5C379.5,3058.7,0,3147.5,0,3257.1c0,109.5,379.5,198.4,847.7,198.4c403.6,0,741.3-66,826.8-154.4
				c15.4-16,37.3-24.1,59.4-22.1c106.4,9.9,219.9,15.2,337.7,15.2c602.9,0,1091.6-139.3,1091.6-311.1S2674.6,2672,2071.7,2672z"/>
			<polygon class="st1" points="2605.8,2632.3 2605.8,2761.7 2513.6,2765.4 2500.8,2624.2 			"/>
			<polygon class="st1" points="2665.2,2624.2 2654.6,2739.8 2732,2732.9 2737.7,2604.3 			"/>
			<path class="st0" d="M738.4,2592.3H3642c0,0,426.4-1326-36.4-1603.9C3191.8,740,3343.3,4.1,2761.2,89.1s-617.8,334-1203.3,282
				C687.4,293.9,152.5,977.9,660.7,1922.8C789.1,2161.6,799.2,2403.6,738.4,2592.3z"/>
			<rect x="284.3" y="2587.1" class="st2" width="3715.8" height="17.3"/>
			<g>
				<path class="st3" d="M3652.5,114.7v1720.7H1345.9V127.5c0-48.4,39.3-87.7,87.7-87.7h2143.9
					C3618.9,39.8,3652.5,73.3,3652.5,114.7z"/>
			</g>
			<path class="st4" d="M3624.2,75v1720.7H1317.5V87.8c0-48.4,39.3-87.7,87.7-87.7h2143.9C3590.5,0.1,3624.1,33.6,3624.2,75z"/>
			<path class="st5" d="M1545.7,0.1h-153.2c-41.4,0-75,33.6-75,75l0,0v1720.6h228.2V0.1z"/>
			<path class="st6" d="M3624.2,88v144.5H1317.5V88c0-41.4,33.6-75,75-75h2156.6C3590.6,13,3624.2,46.6,3624.2,88L3624.2,88z"/>
			<path class="st5" d="M3624.2,75v144.5H1317.5V75c0-41.4,33.6-75,75-75l0,0h2156.6C3590.6,0,3624.2,33.6,3624.2,75L3624.2,75z"/>
			<circle class="st4" cx="3424.9" cy="109.8" r="56.7"/>
			<path class="st4" d="M3265.3,121.9V98.3c0-17.4-14.1-31.5-31.5-31.5h-0.1c-17.4,0-31.5,14.1-31.5,31.5v23.6l0,0l-11,15.9h27.6
				c0,8.3,6.7,15,14.9,15s15-6.7,15-14.9v-0.1h27.6L3265.3,121.9z"/>
			<path class="st4" d="M3114,100.8h-7.2c-0.7-2.5-1.7-4.9-2.9-7.1l5.1-5.1c1.3-1.4,1.3-3.5,0-4.9l-7.8-7.9c-1.4-1.3-3.5-1.3-4.9,0
				l-5.1,5.1c-2.3-1.3-4.6-2.3-7.1-3v-7.2c0-1.9-1.5-3.5-3.5-3.5h-11.1c-1.9,0-3.5,1.5-3.5,3.5v7.2c-2.5,0.7-4.9,1.7-7.1,3l-5.1-5.1
				c-1.4-1.3-3.5-1.3-4.9,0l-7.9,7.9c-1.3,1.4-1.3,3.5,0,4.9l5.1,5.1c-1.3,2.3-2.3,4.6-3,7.1h-7.2c-1.9,0-3.4,1.5-3.4,3.5l0,0v11.1
				c0,1.9,1.5,3.4,3.4,3.5l0,0h7.2c0.7,2.5,1.7,4.9,2.9,7.1l-5.1,5.1c-1.3,1.3-1.3,3.5,0,4.9l0,0l7.9,7.9c1.4,1.3,3.5,1.3,4.9,0
				l5.1-5.1c2.3,1.3,4.6,2.2,7.1,2.9v7.1c0,1.9,1.5,3.5,3.5,3.5h11.1c1.9,0,3.5-1.5,3.5-3.5v-7.2c2.5-0.7,4.9-1.7,7.1-2.9l5.1,5.1
				c1.4,1.3,3.5,1.3,4.9,0l7.9-7.9c1.3-1.3,1.3-3.5,0-4.9l0,0l-5.1-5.1c1.3-2.3,2.2-4.7,2.9-7.1h7.2c1.9,0,3.4-1.5,3.4-3.4l0,0
				v-11.1C3117.4,102.3,3115.9,100.8,3114,100.8z M3074.9,127.3c-9.6,0-17.4-7.8-17.4-17.4c0-9.6,7.8-17.4,17.4-17.4
				c9.6,0,17.4,7.8,17.4,17.4C3092.3,119.4,3084.5,127.2,3074.9,127.3L3074.9,127.3z"/>
			<polygon class="st4" points="1424.5,126.9 1403,105.4 1390.3,118.1 1424.5,152.3 1458.6,118.1 1445.9,105.4 			"/>
			<polygon class="st4" points="1458.6,80 1445.9,67.3 1424.5,88.7 1403,67.3 1390.3,80 1424.5,114.1 			"/>
			<rect x="3422.8" y="297.4" class="st5" width="122" height="122"/>
			<path class="st7" d="M3462.7,358.4c0,5.5-4.4,9.9-9.9,9.9s-9.9-4.4-9.9-9.9s4.4-9.9,9.9-9.9l0,0
				C3458.3,348.6,3462.7,353,3462.7,358.4z"/>
			<path class="st7" d="M3493.7,358.4c0,5.5-4.4,9.9-9.9,9.9s-9.9-4.4-9.9-9.9s4.4-9.9,9.9-9.9l0,0
				C3489.2,348.6,3493.7,353,3493.7,358.4z"/>
			<path class="st7" d="M3524.6,358.4c0,5.5-4.4,9.9-9.9,9.9s-9.9-4.4-9.9-9.9s4.4-9.9,9.9-9.9l0,0
				C3520.2,348.6,3524.6,353,3524.6,358.4z"/>
			<rect x="1619.7" y="297.4" class="st5" width="122" height="122"/>
			<polygon class="st7" points="1718.1,348.6 1678.7,348.6 1690.2,337 1677.5,324.3 1653.2,348.6 1653.1,348.6 1653.1,348.7 
				1643.4,358.4 1653.1,368.2 1653.1,368.3 1653.2,368.3 1677.5,392.6 1690.2,379.9 1678.7,368.3 1718.1,368.3 			"/>
			<rect x="1805.7" y="324.3" class="st8" width="391.7" height="55"/>
			<path class="st8" d="M2200.2,382H1803v-60.4h397.2V382z M1808.5,376.6h386.3v-49.5h-386.3V376.6z"/>
			<rect x="1619.7" y="483.1" class="st5" width="657.4" height="632.2"/>
			<rect x="1619.7" y="1189.1" class="st5" width="946.5" height="526.5"/>
			<rect x="2642.8" y="1189.1" class="st5" width="902" height="526.5"/>
			<path class="st7" d="M3300.9,1268.4c-101.6,0-184,82.4-184,184s82.4,184,184,184s184-82.4,184-184S3402.5,1268.4,3300.9,1268.4z
				 M3400.7,1565.8c-62.6,55.2-158.1,49.2-213.3-13.5c-55.2-62.6-49.2-158.1,13.5-213.3s158.1-49.2,213.3,13.5
				c24.3,27.6,37.7,63.1,37.7,99.9C3452,1495.8,3433.3,1537.1,3400.7,1565.8z"/>
			<path class="st9" d="M3484.9,1452.4c0.1,52.1-22.1,101.8-60.8,136.7l-23.3-23.3c62.6-55.2,68.6-150.7,13.4-213.3
				c-28.7-32.5-69.9-51.2-113.3-51.2v-32.9C3402.5,1268.4,3484.9,1350.8,3484.9,1452.4z"/>
			<path class="st7" d="M2982.8,1295.5c-28.9-17.8-62.2-27.1-96.1-27.1c-101.6,0-184,82.4-184,184s82.4,184,184,184
				s184-82.4,184-184C3070.7,1388.3,3037.4,1328.9,2982.8,1295.5z M2886.7,1603.5c-83.5,0-151.1-67.6-151.1-151.1
				s67.6-151.1,151.1-151.1s151.1,67.6,151.1,151.1l0,0C3037.8,1535.8,2970.2,1603.5,2886.7,1603.5L2886.7,1603.5L2886.7,1603.5z"/>
			<path class="st10" d="M3070.7,1452.4c0,101.6-82.4,184-184,184c-64,0-123.5-33.2-156.9-87.9l24-24
				c39.8,73.4,131.5,100.5,204.9,60.7s100.5-131.5,60.7-204.9c-13.9-25.7-35-46.8-60.7-60.7l24-24
				C3037.3,1329,3070.7,1388.3,3070.7,1452.4z"/>
			<path class="st11" d="M1757.8,1587.2h-53.9v-332.9h53.9V1587.2z M1861.3,1364.7h-53.9v222.5h53.9V1364.7z M1964.7,1465.3h-53.9
				v121.9h53.9V1465.3z M2068.2,1305.1h-53.9v282.1h53.9V1305.1z M2171.7,1398.7h-53.9v188.5h53.9V1398.7z M2275.1,1336.3h-53.9
				v250.9h53.9V1336.3z M2378.6,1254.3h-53.9v332.9h53.9V1254.3z M2482,1292.4h-53.9v294.8h53.9V1292.4z"/>
			<rect x="2350.4" y="483.1" class="st5" width="1194.4" height="632.2"/>
			<text transform="matrix(1 0 0 1 3242.1699 590.36)" class="st5 st12 st13">More i</text>
			<text transform="matrix(1 0 0 1 3350.96 590.36)" class="st5 st12 st13">n</text>
			<text transform="matrix(1 0 0 1 3372.76 590.36)" class="st5 st12 st13">f</text>
			<text transform="matrix(1 0 0 1 3385.45 590.36)" class="st5 st12 st13">o</text>
			<rect x="3242.2" y="551.6" class="st11" width="242.7" height="77.5"/>
			<rect x="2404.5" y="708.2" class="st9" width="1086.2" height="5.7"/>
			<rect x="2970" y="757.4" class="st14" width="520.7" height="22.2"/>
			<rect x="2970" y="825.4" class="st14" width="520.7" height="22.2"/>
			<rect x="2970" y="893.5" class="st15" width="520.7" height="22.2"/>
			<rect x="2970" y="893.5" class="st14" width="79.1" height="22.2"/>
			<rect x="2970" y="961.5" class="st15" width="520.7" height="22.2"/>
			<rect x="2970" y="961.5" class="st14" width="308.6" height="22.2"/>
			<rect x="2970" y="1029.5" class="st15" width="520.7" height="22.2"/>
			<rect x="2970" y="1029.5" class="st14" width="417.9" height="22.2"/>
			<rect x="1676.2" y="630.5" class="st7" width="544.3" height="5.7"/>
			<rect x="1676.2" y="1048.9" class="st7" width="544.3" height="5.7"/>
			<rect x="1676.2" y="607" class="st7" width="544.3" height="5.7"/>
			<rect x="1676.2" y="583.5" class="st7" width="544.3" height="5.7"/>
			<rect x="1676.2" y="560" class="st7" width="544.3" height="5.7"/>
			<rect x="1676.2" y="536.6" class="st7" width="544.3" height="5.7"/>
			<path class="st9" d="M2089.6,911.3h-0.5c-10.6-0.1-19.8-7.1-22.8-17.2l-33.8-111.5c-0.9-3.2-3.7-5.4-7-5.5
				c-3.2-0.2-6.3,1.6-7.6,4.6c-3.8,8.9-12.6,14.6-22.2,14.5l0,0c-9.7,0.1-18.4-5.7-22.2-14.6l-16.7-38.4c-1.9-4.3-5.9-4.4-7.1-4.7
				c-3.1,0-5.9,1.8-7.1,4.6l-24.4,55.8c-5.4,12.3-19.7,17.9-32,12.5c-5-2.2-9.1-6-11.7-10.7l-9.1-17c-1.3-2.5-3.9-4.1-6.8-4.1h-0.1
				c-2.8,0-5.4,1.5-6.8,4l-38.1,68.4c-6.5,11.7-21.3,15.9-33,9.4c-4.6-2.6-8.3-6.6-10.4-11.5l-48.6-111.2c-1.7-3.9-6.3-5.7-10.2-4
				c-1.5,0.7-2.8,1.8-3.6,3.3l-17.1,30.1l-14.4-8.2l17.1-30.1c6.6-11.7,21.4-15.7,33.1-9.1c4.6,2.6,8.2,6.6,10.3,11.4l48.6,111.1
				c1.7,3.9,6.3,5.7,10.2,4c1.6-0.7,2.8-1.8,3.7-3.3l38.1-68.4c6.5-11.7,21.3-15.9,33-9.4c4.1,2.3,7.4,5.6,9.6,9.7l9.1,17
				c1.4,2.6,4.2,4.2,7.1,4.1c3-0.1,5.6-1.9,6.8-4.6l24.4-55.8c3.8-8.9,12.6-14.6,22.2-14.5l0,0c9.7-0.1,18.4,5.7,22.2,14.6
				l16.7,38.4c1.2,2.8,4,4.7,7.1,4.7l0,0c3.1,0,5.9-1.8,7.1-4.6c5.4-12.3,19.7-17.9,32-12.5c6.5,2.9,11.4,8.4,13.5,15.2l33.8,111.5
				c1.2,4.1,5.6,6.4,9.7,5.2c2.4-0.7,4.2-2.5,5.1-4.9l25.1-72.1c4.4-12.7,18.2-19.4,30.9-15c7.5,2.6,13.2,8.7,15.4,16.3l3.4,11.9
				c1.2,4.1,5.5,6.5,9.6,5.3c2.4-0.7,4.4-2.5,5.2-4.9l18.5-53.5l15.6,5.4l-18.5,53.5c-4.4,12.7-18.2,19.4-30.9,15
				c-7.5-2.6-13.2-8.7-15.4-16.3l-3.4-11.9c-1.2-4.1-5.5-6.5-9.6-5.3c-2.4,0.7-4.4,2.5-5.2,4.9l-25.1,72.1
				C2109.2,904.8,2100,911.4,2089.6,911.3z"/>
			<rect x="2401.9" y="577.9" class="st7" width="544.3" height="5.7"/>
			<rect x="2401.9" y="605.7" class="st7" width="544.3" height="5.7"/>
			<rect x="2394.8" y="765.6" class="st8" width="544.3" height="5.7"/>
			<path class="st8" d="M2941.9,774h-549.8v-11.1h549.8V774z M2397.5,768.6h538.9v-0.2h-538.9V768.6z"/>
			<rect x="2394.8" y="833.7" class="st8" width="544.3" height="5.7"/>
			<path class="st8" d="M2941.9,842.1h-549.8V831h549.8V842.1z M2397.5,836.6h538.9v-0.2h-538.9V836.6z"/>
			<rect x="2394.8" y="901.7" class="st8" width="544.3" height="5.7"/>
			<path class="st8" d="M2941.9,910.1h-549.8V899h549.8V910.1z M2397.5,904.7h538.9v-0.2h-538.9V904.7z"/>
			<rect x="2394.8" y="969.8" class="st8" width="544.3" height="5.7"/>
			<path class="st8" d="M2941.9,978.1h-549.8V967h549.8V978.1z M2397.5,972.7h538.9v-0.2h-538.9V972.7z"/>
			<rect x="2394.8" y="1037.8" class="st8" width="544.3" height="5.7"/>
			<path class="st8" d="M2941.9,1046.2h-549.8v-11.1h549.8V1046.2z M2397.5,1040.7h538.9v-0.2h-538.9V1040.7z"/>
			<path class="st16" d="M1940.3,2358.6h-212c-14.4,0-27.2-9.4-31.3-23.3L1504,1695c-15.9-53.6-65.3-90.4-121.3-90.1h-203.6
				c-33.3,0-60.3,26.9-60.4,60.2c0,5.9,0.9,11.8,2.6,17.5l199.1,660.6c7.6,25.6,31.1,43,57.8,42.9h211.9c18.1,0,32.7,14.7,32.7,32.7
				v401.6h27.6v-401.6c0-33.3-27.1-60.3-60.4-60.3h-211.9c-14.4,0.1-27.2-9.4-31.3-23.3l-199.1-660.6c-5.2-17.3,4.6-35.6,21.9-40.8
				c3-0.9,6.2-1.4,9.4-1.4h203.7c43.8-0.2,82.4,28.5,94.8,70.5l193,640.3c7.6,25.6,31.1,43,57.8,42.9h212
				c18.1,0,32.7,14.7,32.7,32.7v314h27.6v-313.9C2000.7,2385.6,1973.7,2358.6,1940.3,2358.6z"/>
			<path class="st16" d="M2000.7,2713.2v40.3c0,33.3-27,60.3-60.4,60.4h-624.2v-27.6h624.2c18.1,0,32.7-14.7,32.7-32.7v-40.3
				L2000.7,2713.2L2000.7,2713.2z"/>
			<path class="st16" d="M1637,2770.5c7.6,0,13.8,6.2,13.8,13.8l0,0v26.5c0,33.3-27,60.3-60.4,60.4H980.1c-7.6,0-13.8-6.2-13.8-13.8
				l0,0l0,0c0-7.6,6.2-13.8,13.8-13.8l0,0h596.5c25.7,0,46.5-20.8,46.5-46.5l0,0v-12.7C1623.2,2776.7,1629.3,2770.5,1637,2770.5
				L1637,2770.5L1637,2770.5z"/>
			<line class="st17" x1="2024.3" y1="2827.6" x2="2000.7" y2="2827.6"/>
			<line class="st17" x1="1973.1" y1="2827.6" x2="1957.7" y2="2827.6"/>
			<path class="st18" d="M1554,2054h-270.8c-21.9,0-41.2-14.4-47.5-35.4l-91-301.5c-5-16.8,4.5-34.4,21.3-39.4
				c2.9-0.9,5.9-1.3,8.9-1.3h271c21.9,0,41.2,14.4,47.5,35.4l90.8,301.6c5,16.7-4.4,34.3-21.1,39.4
				C1560.2,2053.5,1557.1,2054,1554,2054z"/>
			<path class="st19" d="M1517.2,2054h-233.9c-21.9,0-41.2-14.4-47.5-35.4l-91-301.5c-5-16.8,4.5-34.4,21.3-39.4
				c2.9-0.9,5.9-1.3,8.9-1.3h233.9c21.9,0,41.3,14.4,47.7,35.4l90.8,301.6c5,16.7-4.4,34.3-21.1,39.4
				C1523.3,2053.5,1520.2,2054,1517.2,2054z"/>
			<path class="st18" d="M1977.3,2346.2h-577.4l0,0v-102.5c0-1.9,1.5-3.4,3.4-3.4l0,0H1974c1.9,0,3.4,1.5,3.4,3.4l0,0L1977.3,2346.2
				L1977.3,2346.2z"/>
			<path class="st19" d="M2001.7,2369.2h-626.2c-0.8,0-1.5-0.7-1.5-1.5v-58.8c0-0.8,0.7-1.5,1.5-1.5h626.2c0.8,0,1.5,0.7,1.5,1.5
				v58.8C2003.2,2368.5,2002.6,2369.2,2001.7,2369.2z"/>
			<path class="st20" d="M2423,750.4c0,0,18.6-55.8,67.5-7.5s-27.2,96.2-27.2,96.2L2423,750.4z"/>
			<path class="st21" d="M2403.8,1852.2c0,0-31.8-56.8-13.6-100.7s-12.9-112.1-12.9-112.1l110.5-108.3l233.9,1.5
				c0,0,141.6,487.7,141.6,537.7s-128.6,576.2-128.6,576.2h-111.5c0,0,50.5-578.4,80.8-658.6c0,0-80.8-168.3-112.6-226.6l-7.6,252.9
				L2403.8,1852.2z"/>
			<path class="st1" d="M2870.9,1173.6c0,0,13.9-27.8,14.5-41.4c0.6-13.6,24.4-30.7,31.2-32.7s29.5-25.6,27.3-32.7
				c-2.2-7.1,22.7-7.1,13.1,17c-9.6,24.1-12.5,24.4-12.5,24.4s36.1,4.5,44.6,11.6c8.5,7.1,68.2,7.5,73.5,3.7s3.4,24.2-11.4,26.9
				c-14.8,2.7-67.4,2.7-67.4,2.7s-50-0.4-54.9,11c-4.9,11.4-31,27.6-31,27.6L2870.9,1173.6z"/>
			<polygon class="st22" points="2944.5,1108.3 2928,1113.1 2955,1088.8 			"/>
			<path class="st22" d="M2882.8,1168.1c0,0,17,3.6,40.1-8.9s32-4.3,32-4.3s-22.4-1.5-30.8,16.2s-29.9,18.2-29.9,18.2L2882.8,1168.1
				z"/>
			<path class="st16" d="M2595,1703.4l-3.5,60.2c0,0,71.9,161.6,112.6,224.3l-57.3,412.7c108.7-110.2,118.9-327.3,134-405.3
				S2595,1703.4,2595,1703.4z"/>
			<path class="st21" d="M2403.8,1852.2c0,0,76.3,694.2,78.6,794.3c0,0,47.2,42.3,141,0l-39.3-632.3L2403.8,1852.2z"/>
			<polygon class="st5" points="2864.9,1163.6 2872.3,1157.4 2913.8,1188.6 2902.7,1205.3 2852.5,1188 			"/>
			<path class="st1" d="M1594.7,1285.6c0,0,42.4,8,62.1,74.8c0,0,13.8,37.7,37.1,37.1c0,0,11.7,10.6-14.9,22.8
				c0,0,13.1,31.3,17.4,45.6s9.6,46.7-106.6,71.6c0,0-15.4,61.6,11.1,110.9s-105.1,40.3-105.6,35.6s37.7-86,12.2-140.1
				s-98.2-104.5-98.2-104.5S1539,1237.3,1594.7,1285.6z"/>
			<path class="st23" d="M1574.6,1368.9c0,0-19.1,34,0,62.1c0,0-43.5-24.4-42.4-49.9C1533.3,1355.6,1574.6,1368.9,1574.6,1368.9z"/>
			<path class="st22" d="M1533,1404.1c0,0-37,46.5,25.1,64.5c0,0-50.9,41.4-63.7,2.1C1481.6,1431.4,1519.1,1391.6,1533,1404.1z"/>
			<path class="st1" d="M2429.3,760.9c0,0,51.4-26.3,85.8,39.4c0,0,22,36.4,44.2,30.9c0,0,13.6,8.6-8.9,27c0,0,19.8,29.9,27.3,44
				s27.9,42.9-77.4,93.7c0,0-8.2,71.4,28.6,117.3c36.8,45.9-91.1,64.5-92.7,59.6c-1.6-4.9,8.4-92.7-14.2-146.1
				c-24.6-58.1-115.3-94.5-115.3-94.5S2364.8,722.3,2429.3,760.9z"/>
			<path class="st22" d="M2373.2,912c0,0-33.8-5.7-18.7,37.5s-45-62.4-45-62.4L2373.2,912z"/>
			<path class="st22" d="M2370.8,965.4c0,0,51.7-2,57.5,29.8c5.8,31.8,7.9,84.9,7.9,84.9l-25.4-76.3L2370.8,965.4z"/>
			<path class="st22" d="M2422.7,767.8c0,0-27.9,13.4-12.3,52.4c19.2,48-67.1,93.3-67.1,93.3s35.9-175.3,77.1-144.9"/>
			<path class="st24" d="M1617.5,1297.3c0,0,13.4,52.4-26.9,71.5s-93.4,53.1-73.6,78.5s-9.4,96.8-9.4,96.8s-120.1,12.2-115.2-104.5
				c0,0-50.2,29-49.5-27.6s36.1-81.4,48.8-60.9c12.7,20.5,26.2,21.2,26.2-29s106.7-118.2,167.5-84.2
				C1646.4,1271.8,1621.1,1288.8,1617.5,1297.3z"/>
			<path class="st25" d="M1608.5,1622.7c0,0,74.3,13.3,137.4-4.2s62.6,100.3,69,184.7s29.7,172.5,6.4,182s-210.7-12.3-210.7-12.3
				s-139,65.3-224.5,30.3s-19.1-326.9-19.1-326.9s4.2-30.2,47.8-28.6s90.4-19.3,90.4-19.3s36.9,63.9,69.3,34.1
				C1606.9,1632.7,1608.5,1622.7,1608.5,1622.7z"/>
			<path class="st22" d="M1513.3,1621.3c0,0,30.4,46.1,44.9,28c9.7-11.9,20-23.3,31-34.1l4.1,26.9l-40,40.2l-41.6-52.8
				L1513.3,1621.3z"/>
			<path class="st26" d="M1494.2,1632.7c0,0,3.5,78.9,24,97.1c5.4,4.8,13.9,2.2,16.5-4.5c2.9-7.7,8-21.2,14.8-38.7
				c11.6-29.8,18.4,29.4,71.4,35c0,0,7.5,1.9-10.1-53.7l-44.8,5.6c0,0-6.9-5.9-34.4-2.2C1504.1,1675,1494.2,1632.7,1494.2,1632.7z"
				/>
			<path class="st27" d="M1727.8,1752.1c0,0,15.4,134.3,10.1,140.1c0,0-119.9-37.1-220.2-2.1c0,0,30.6-25.1,133.5-34
				S1727.8,1752.1,1727.8,1752.1z"/>
			<path class="st27" d="M1436.5,1797.8c0,0-11.2,110.4-4.8,118.9s22.8,8.5,22.8,8.5S1440.8,1870.5,1436.5,1797.8z"/>
			<path class="st28" d="M1517.7,1890.1c0,0,5.8,46.7,2.7,52.5c0,0-39.8-11.7-65.8-17.5C1454.6,1925.1,1493.7,1897.1,1517.7,1890.1z
				"/>
			<path class="st26" d="M1610.6,1972.8l-90.2-30.2c1.1-9.4,1.1-19,0-28.4c0,0,151.9,66.4,311,45.9
				C1831.4,1960.2,1879.6,2030.1,1610.6,1972.8z"/>
			<path class="st24" d="M2427.3,1099.6c0,0-21.2,16.7-80.2,24.2s-106,356.6-106,356.6s-9.8,35.6,28.8,78.7s120.4,192.3,120.4,192.3
				l21.2-99.9c0,0,6.1-47.7,22.7-51.5s266.5-15.9,287.7-67.4c0,0-0.8-26.5-4.5-72.7s-4.5-68.1-4.5-68.1s19.7,85.2,85.6-27.2
				s106.8-157.8,106.8-157.8s-53-32.9-40.1-43.2c0,0-4.2-18.5-14.8,4.2s-95.2,116-95.2,116s-33.2-108.9-40.1-142.9
				c-7.9-39.2-23.3-61.3-64.7-60.8s-122.1,3.4-122.1,3.4l-43.5,49.4l-34.3-0.6L2427.3,1099.6z"/>
			<path class="st16" d="M2674.1,1202.6l38.6,189.3c0,0,17.2,54.7,50.2,19.8C2762.9,1411.6,2726,1396,2674.1,1202.6z"/>
			<path class="st16" d="M2722.6,1534.9l8.1,22.3c0,0-82.3,70.1-250.4,63.3c0,0-50.4-6.9-68.9,31c0,0-12.1-57.9,43.2-75.7
				S2722.6,1534.9,2722.6,1534.9z"/>
			<path class="st1" d="M1664.9,2277c0,0,81.8,326.4,156.4,413.2s18.9,83.3,61.6,97.9s-28.3-233.6-28.3-233.6l-81.1-319.8
				L1664.9,2277z"/>
			<path class="st21" d="M2039.6,2834.5c-16-6.5-32.7-6.1-35.1-7.1c-0.3-0.1-0.4-0.1-0.6-0.2c-23-15-82.3-82.9-94.5-119.8
				c-1.4-4.4,1.6-58.1,1.6-58.1c-64.2-7.4-105.4,21.5-105.4,21.5c1.1,17.9-2.3,118.3-3.2,124.8c-0.4,3.1-0.4,6.3,0,9.4
				c2.4,24.9,20.1,67.8,25.4,78l13.7-1.4c-0.8-10.2,0.7-38.7,10.6-49.3c0,0,8.5-1.4,24.5,8.6c17.1,10.7,42.2,32.8,53.9,31.6
				l138.2-14.1C2065.2,2854.4,2064,2845.9,2039.6,2834.5z"/>
			<path class="st1" d="M1896.2,2186.9l207.4,477.8l76.4,104.6l-113.3,20l-28.6-124.6c0,0-236.4-274.6-204.5-450.5
				S1896.2,2186.9,1896.2,2186.9z"/>
			<polygon class="st5" points="2411.4,1651.5 2363.1,1703.4 2387.2,1746.1 			"/>
			<path class="st24" d="M2737.4,2692.1c0,0-42.5,18.7-79-7.2c0,0-28-12-38,136.7c0,0,243.6,15.4,314.1,8.6c0,0,36.9-58.8-46.2-75.4
				S2737.4,2692.1,2737.4,2692.1z"/>
			<path class="st29" d="M2941,2791.9c0,0-312.2-18.5-312.7-43.5l-4,52.4l317.5,11.4C2941.7,2812.2,2943.1,2797.6,2941,2791.9z"/>
			<path class="st30" d="M2934.5,2830.2c0,0,9-15.5,8.1-26.4l-319.5-14.5l-2.4,36.2C2620.7,2825.5,2916.1,2835.9,2934.5,2830.2z"/>
			<path class="st24" d="M2621,2714.9l4.5,110.8c0,0-79.7,31-201.6,52.5c-60.6,10.7-73.6,0.1-79.3-12.4
				c-5.8-12.7-5.1-31.3,21.2-55.1c0,0,116.3-47.6,136.3-82.6c0,0,60.1,23.1,89.4-6.9C2611.4,2700.7,2621,2714.9,2621,2714.9z"/>
			<path class="st30" d="M2344.6,2865.7c0,0,108.1,12,279.6-64.9l1.2,24.8C2625.5,2825.6,2370.1,2918.5,2344.6,2865.7z"/>
			<path class="st29" d="M2342.8,2845.5c0,0,109.9,11.8,281.4-65.1l1.2,24.8C2625.5,2805.1,2324.2,2942,2342.8,2845.5z"/>
			<path class="st31" d="M1639.5,2366.1l82.7,791.5c0,0,14.4,20.3,40.7,4.8l100.6-825.8L1639.5,2366.1z"/>
			<path class="st32" d="M1639.5,2345.4l14.9,158.8c0,0,125.7,73.5,191.6-23.9l17.5-134.9L1639.5,2345.4L1639.5,2345.4z"/>
			<path class="st31" d="M772.9,2214l82.7,791.5c0,0,14.4,20.3,40.7,4.8l100.6-825.8L772.9,2214z"/>
			<path class="st31" d="M2072.2,1929.7l82.7,791.5c0,0,14.4,20.3,40.7,4.8l100.6-825.8L2072.2,1929.7z"/>
			<path class="st31" d="M2755,2074.6l82.7,791.5c0,0,14.4,20.3,40.7,4.8l100.6-825.8L2755,2074.6z"/>
			<path class="st32" d="M2754.1,2045l14.9,158.8c0,0,125.7,73.5,191.6-23.9l17.5-134.9L2754.1,2045z"/>
			<polygon class="st11" points="680,2136.1 1767.7,2332 3047.2,1999.6 2232.5,1887.5 			"/>
			<polygon class="st33" points="680,2136.1 680,2182.1 1770.1,2388.4 1770.1,2332 			"/>
			<polygon class="st34" points="1770.1,2332 3047.2,1999.6 3047.2,2045.2 1770.1,2388.4 			"/>
			<polygon class="st35" points="1141,2043.4 1474.7,2051.3 1273.8,2231.1 955.4,2169.7 			"/>
			<polygon class="st36" points="1475.5,1860.5 1493,1870.3 1420.8,2084.5 1400.1,2076.3 			"/>
			<polygon class="st37" points="1214,1835.4 1475.5,1860.5 1400.1,2076.3 1142.3,2026.9 			"/>
			<polygon class="st38" points="963.2,2132.4 1265.1,2191.9 1400.1,2076.3 1142.3,2026.9 			"/>
			<polygon class="st39" points="1265.1,2191.9 1263.3,2216.9 1420.8,2084.5 1400.1,2076.3 			"/>
			<polygon class="st40" points="963.2,2132.4 1265.1,2191.9 1263.3,2216.9 961.6,2154.5 			"/>
			<polygon class="st41" points="1214,1835.4 1399.1,1853.2 1227.3,2043.2 1142.3,2026.9 			"/>
			<polygon class="st42" points="1142.3,2026.9 1147.6,2012.8 1404.7,2063 1400.1,2076.3 			"/>
			<path class="st43" d="M1109.4,2976.6c0,0,2.9,65.1-8.4,109.6s32.9,68.3,169.6,46.7s192.5-17.9,190.4-83.8c0,0-0.4-42.9-22.9-43.3
				s-137.5,30.4-178.4-3.3C1218.8,2968.8,1129.9,2913.2,1109.4,2976.6z"/>
			<path class="st44" d="M1022.7,2669.9l64.4,285.7c0,0,51.9,74.4,125,0c73.1-74.4,76.5-455.7-185.2-285.7"/>
			<path class="st23" d="M687.5,1696.4c0,0,43.1-110-72.5-63.8S687.5,1696.4,687.5,1696.4z"/>
			<path class="st19" d="M769.3,2448.2l368.7,0.2c0,0,43.9-11.3,53.9,139.8C1203.9,2768.3,735.9,2503.2,769.3,2448.2z"/>
			<path class="st1" d="M629.3,1668.9c-1.9,1.2,42.5-46.9,104.4,50.6c0,0,33.8,46.9,62.5,54.4c0,0,17.5,10-20,40
				c0,0-0.6,28.8,8.1,66.9s-79.4,61.3-79.4,61.3s5,69.4,16.9,90s-98.1,30.6-98.1,30.6s26.3-76.9-6.2-121.3s-93.8-84.4-73.1-130.6
				C565.1,1764.6,629.3,1668.9,629.3,1668.9z"/>
			<path class="st22" d="M577.4,1867.7c0,0,26,28.3,59,8.8c0,0-30.4,53.8-69.5,2.9S577.4,1867.7,577.4,1867.7z"/>
			<path class="st23" d="M590,1808.4c0,0,23.9-12.4,36.8,11.8l9.5-66.7L590,1808.4z"/>
			<path class="st24" d="M693.9,1672.8c0,0-8.3-45.7-38.3-35.1s25.6,81.3,4.4,116.3s-116.4,55-82.6,113.8l44.2,80.1
				c0,0-47.7-10.5-90.4-23.4c-113.2-34.3-126.3-210.5-6.9-291.1C639.9,1555.2,723.9,1601.2,693.9,1672.8z"/>
			<polygon class="st22" points="705,1942 670.2,1951.4 711.9,1998.1 			"/>
			<path class="st1" d="M888.6,2277.3c0,0,122.7-13.3,173.9-42.7c51.2-29.4,100.6-85.6,121.9-79.4s57.5,18.8,57.5,28.8
				s-25.4,62.1-25.4,62.1s0.8,7.1-26.2,6.7s-22.9-13.8-41.3-4.6c-18.4,9.2-165.4,123.8-282.1,110.9L888.6,2277.3z"/>
			<path class="st22" d="M916.3,2300.6c0,0,39.8,42.1,102.5,24.2c0,0-51.1,27.1-114,35.2L916.3,2300.6z"/>
			<path class="st19" d="M1205.7,3041.7c0,0,2.9,65.1-8.4,109.6s32.9,68.3,169.6,46.7s192.5-17.9,190.4-83.8c0,0-0.4-42.9-22.9-43.3
				c-22.5-0.4-137.5,30.4-178.4-3.3C1315.1,3033.9,1226.1,2978.3,1205.7,3041.7z"/>
			<path class="st43" d="M1205.6,3048.4v32.8c0,0,46.9,31.8,124.9-32.8l-32-29.6L1205.6,3048.4z"/>
			<path class="st22" d="M1069.8,2298c0,0,64.2-71.2,98.3-66.2s55.2-0.2,55.2-0.2l-7.8,16.4c0,0-21.1,12.1-50.2-1.6
				c0,0-8.2-6-26.3,7.9S1069.8,2298,1069.8,2298z"/>
			<path class="st24" d="M636.4,2695.2c0,0,117.7,42.2,337.6-5c50.7-10.9,85.3-16.4,108.9-18.9c25.9-2.7,49.1,16.1,51.8,42
				c0.1,0.8,0.2,1.7,0.2,2.5c4.5,86.4,19.2,280.1,62.5,339.3c0,0,90.4,18.9,116.3-29.9c0,0,14-325.9,23.4-429.6
				c12.4-136-471-123.9-583.9-62.9S636.4,2695.2,636.4,2695.2z"/>
			<path class="st19" d="M546.8,2658.4c0,0,49.4,105.6,172.8,81.3s157.2-291.3,157.2-291.3l-70-2.3L546.8,2658.4z"/>
			<path class="st45" d="M630.4,2035.7c0,0,44.3,25,89.4-8c0,0,79.6,141.8,95.2,256.2l89.4-8.1c0,0,39.4,64.4,23.8,134.4l-95,5.6
				c0,0,5.6,87.5-39.4,133.1s-123.2,164.2-299,146.2c0,0-5.4-126.8-17.9-232.4S545.9,2059.4,630.4,2035.7z"/>
			<path class="st46" d="M606.2,2237.7c0,0,120,166.9,191.3,174.4l35.6,3.8l-0.2,23.8c0,0,3.4,70.1-50.7,120.4
				c0,0-14.8,21.5-83.5-96S606.2,2237.7,606.2,2237.7z"/>
			<path class="st47" d="M815,2284c0,0-82.8-67.1-111.3-115.4c0,0,72.9,69.5,100.6,63.1L815,2284z"/>
			<path class="st16" d="M955.3,2804h-195c-13.3,0-25-8.7-28.8-21.4l-177.6-589.1c-14.6-49.4-60.1-83.1-111.6-82.9H254.8
				c-30.6,0-55.5,24.8-55.5,55.5c0,5.4,0.8,10.9,2.4,16.1L384.9,2790c7,23.5,28.6,39.6,53.2,39.5h195c16.6,0,30.1,13.5,30.1,30.1
				v369.5h25.4v-369.5c0-30.6-24.9-55.5-55.5-55.5h-195c-13.3,0.1-25-8.7-28.8-21.4L226,2174.8c-4.8-15.9,4.2-32.7,20.1-37.5
				c2.8-0.8,5.7-1.3,8.7-1.3h187.5c40.3-0.2,75.8,26.2,87.2,64.8l177.6,589.1c7,23.5,28.6,39.6,53.2,39.5h195
				c16.6,0,30.1,13.5,30.1,30.1v376h25.4v-376C1010.7,2828.9,985.9,2804.1,955.3,2804z"/>
			<path class="st48" d="M1010.8,3235.5v37.1c0,30.7-24.9,55.5-55.5,55.5H381v-25.4h574.2c16.6,0,30.1-13.5,30.1-30.1v-37.1
				L1010.8,3235.5z"/>
			<path class="st16" d="M676.2,3183c7,0,12.7,5.7,12.7,12.7v24.3c0,30.7-24.9,55.5-55.5,55.5H71.8c-7,0-12.7-5.7-12.7-12.7l0,0l0,0
				c0-7,5.7-12.7,12.7-12.7l0,0h548.8c23.6,0,42.8-19.2,42.8-42.8l0,0v-11.7C663.5,3188.7,669.1,3183,676.2,3183
				C676.1,3183,676.2,3183,676.2,3183L676.2,3183z"/>
			<line class="st17" x1="1032.5" y1="3235.5" x2="1010.8" y2="3235.5"/>
			<line class="st17" x1="985.4" y1="3235.5" x2="971.2" y2="3235.5"/>
			<path class="st18" d="M599.8,2523.8H350.7c-20.2,0-37.9-13.2-43.7-32.5l-83.8-277.5c-4.6-15.4,4.2-31.6,19.6-36.2
				c2.7-0.8,5.4-1.2,8.2-1.2h249.3c20.2,0,37.9,13.2,43.7,32.5l83.6,277.4c4.6,15.4-4,31.6-19.4,36.2
				C605.5,2523.4,602.7,2523.8,599.8,2523.8z"/>
			<path class="st19" d="M565.9,2523.8H350.7c-20.2,0-37.9-13.2-43.7-32.5l-83.8-277.5c-4.6-15.4,4.2-31.6,19.6-36.2
				c2.7-0.8,5.4-1.2,8.2-1.2h215.2c20.2,0,38,13.2,43.9,32.5l83.5,277.4c4.6,15.4-4,31.6-19.4,36.2
				C571.6,2523.4,568.8,2523.8,565.9,2523.8z"/>
			<path class="st18" d="M989.2,2792.7H458l0,0v-94.1c0-1.9,1.5-3.4,3.4-3.4l0,0h524.5c1.9,0,3.4,1.5,3.4,3.4l0,0L989.2,2792.7
				L989.2,2792.7z"/>
			<path class="st19" d="M1011.6,2813.8H435.7c-0.8,0-1.5-0.7-1.5-1.5v-53.9c0-0.8,0.7-1.5,1.5-1.5h575.9c0.8,0,1.5,0.7,1.5,1.5
				v53.9C1013.1,2813.1,1012.5,2813.8,1011.6,2813.8z"/>
			<path class="st16" d="M955.3,3328.1H381c-7,0-12.7-5.7-12.7-12.7s5.7-12.7,12.7-12.7c0,0,0,0,0.1,0h574.2
				c16.6,0,30.1-13.5,30.1-30.1v-413c0-16.6-13.5-30.1-30.1-30.1h-195c-24.5,0.1-46.2-16-53.2-39.5l-177.6-589.1
				c-11.4-38.6-47-65-87.2-64.8H254.8c-7,0-12.7-5.7-12.7-12.7s5.7-12.7,12.7-12.7c0,0,0,0,0.1,0h187.5c51.5-0.2,97,33.6,111.6,82.9
				l177.6,589.1c3.8,12.7,15.5,21.5,28.8,21.4h195c30.6,0,55.5,24.9,55.5,55.5v413C1010.7,3303.2,985.9,3328.1,955.3,3328.1z"/>
			<path class="st19" d="M1120.3,2684.1c0,0,59.2-4.9,71.9-11c12.7-6.1,3.5,0,3.5,0s-37.9,100.7-45.7,210.7
				C1149.9,2883.8,1129.4,2771.3,1120.3,2684.1z"/>
			<path class="st5" d="M2433.1,1072.8c0,0,24.1,45.4,51.3,60.2c0,0,24.8-35.2,20.4-71.6l34.5,18.6c4.2,6.8,9.8,90.5,9.8,90.5
				l-60.6-35.2c0,0-3-9.1-21.6,10.2c-18.6,19.3-27.3,49.6-27.3,49.6s-9.8-8-24.2-89L2433.1,1072.8z"/>
			<path class="st28" d="M1507.5,1619c0,0,30.4,44.6,43.6,51.7c0,0,36.8-43.1,41.2-51.7s22.5,0,22.5,0s-9.6,72.6,0,93.3
				s-58.9-40.7-58.9-40.7s-13.8-12.9-27.1,52.4c0,0-15.9,20.7-35-93.4L1507.5,1619z"/>
			<path class="st16" d="M2357.6,1290.8c0,0,3.5,100.9-13.6,166c-4.5,16.9-3.1,34.7,3.9,50.7l63.4,144.1c0,0,6.6-43.7,22.7-51.5
				C2434.1,1600,2375.5,1455.1,2357.6,1290.8z"/>
			<path class="st16" d="M2742,1240.9c0,0-3.2,49.4,0,65.6l12.8-22.7L2742,1240.9z"/>
			<path class="st1" d="M2970.2,1114.3l44.6-2.5c0,0,26.9-11.9,33.8-13.8c0,0,8.1-0.3,5.9,5.6c-2.2,5.9-35.9,16.9-38.1,18.1
				s-37.2,2.5-37.2,2.5L2970.2,1114.3z"/>
			<path class="st49" d="M2422.7,767.8c0,0-19.1-81.8-66.4-34.1s33.9,96.5,33.9,96.5l0.4-21.7c0.2-10.9,4.2-21.7,12-29.4
				c5-4.9,11-8.5,17.7-10.6L2422.7,767.8z"/>
			<path class="st49" d="M2378.3,868.7c0,0-0.4,43.7,16.5,63.5c0,0-25.5-38.2-51.6-18.7S2378.3,868.7,2378.3,868.7z"/>
			<path class="st24" d="M2422.7,767.8c0,0-10.1-38.8-21.6-28.4c-19.6,17.6-14.4,39.4-8.2,66.2c0.9,4.1,2.3,8,4.3,11.8
				c9.4,16.9,6.6,41.4-28.1,71.1S2337,956.7,2387,970s34.9,56.8,34.9,56.8s-28.2-26.7-56.2-19.8s-129.5-16.9-142.2-98.1
				c-5.1-32.4,6.5-37.4,6.1-52.2c-1.4-51,48.1-156.2,153.9-150.2c0,0,46.3,1.5,46,57.1L2422.7,767.8z"/>
			<path class="st50" d="M2347.1,920.6c0,0-28.7,40.2,31,66.1c0,0,27.7,15.3,26.5,27.7l17.3,12.3c0,0,15.4-45.4-34.9-56.8
				C2387,969.9,2345.3,963.3,2347.1,920.6z"/>
			<path class="st24" d="M2229.1,864.9c0,0-9.2,54.1-4.8,71C2224.3,936,2201.5,892.5,2229.1,864.9z"/>
			<path class="st23" d="M575.9,1864.9c0,0,2.1,60.6-41,59.9c0,0,79.8,15.1,88.7,26.6c0,0,0.5-39.4-16.7-47.6
				S575.9,1864.9,575.9,1864.9z"/>
			<path class="st22" d="M2500.2,995.8c0,0-17.1-1.9-17.8,12.3s19.9,40.6,19.9,40.6S2497.5,1003.1,2500.2,995.8z"/>
			<path class="st21" d="M2303.4,2728.8c-17.2,1.8-31.7,10-34.4,10.2c-0.2,0.1-0.4,0.1-0.6,0.1c-27.4-2.4-111.6-34.5-139.8-61.3
				c-3.3-3.2-25.9-52.1-25.9-52.1c-60.2,23.6-82.9,68.5-82.9,68.5c9.4,15.3,53.6,105.5,55.8,111.7c1.2,2.9,2.7,5.7,4.4,8.3
				c13.9,20.9,49.6,50.3,59.1,56.9l11.4-7.6c-5.5-8.7-17.6-34.5-13.8-48.5c0,0,6.9-5.2,25.7-3.9c20.1,1.4,52.7,9.1,62.4,2.6
				l115.4-77.4C2335.3,2734.4,2330.2,2727.4,2303.4,2728.8z"/>
			<polygon class="st33" points="1603.4,2039.2 1834.2,1980.2 2084.5,2043.8 1899.4,2106.1 			"/>
			<polygon class="st5" points="1615.7,2028.5 1834.7,1972.5 2072.2,2032.9 1896.5,2092 			"/>
			<path class="st45" d="M1476.6,977.2h-443.5c-13,0-23.7,12.3-23.7,27.4v132.1c0,15.1,10.7,27.4,23.7,27.4h363.8l18.8,36.3
				l7.5-36.3h53.4c13,0,23.7-12.3,23.7-27.4v-132.1C1500.3,989.5,1489.7,977.2,1476.6,977.2z"/>
			<path class="st5" d="M1039.2,1024.1h380.6c1.5,0,2.6,1.2,2.6,2.6v10.3c0,1.5-1.2,2.6-2.6,2.6h-380.6c-1.5,0-2.6-1.2-2.6-2.6
				v-10.2C1036.6,1025.3,1037.8,1024.1,1039.2,1024.1z"/>
			<path class="st5" d="M1039.2,1054h380.6c1.5,0,2.6,1.2,2.6,2.6v10.3c0,1.5-1.2,2.6-2.6,2.6h-380.6c-1.5,0-2.6-1.2-2.6-2.6v-10.3
				C1036.6,1055.2,1037.8,1054,1039.2,1054z"/>
			<path class="st5" d="M1039.2,1083.8H1271c1.5,0,2.6,1.2,2.6,2.6v10.3c0,1.5-1.2,2.6-2.6,2.6h-231.8c-1.5,0-2.6-1.2-2.6-2.6v-10.3
				C1036.6,1085,1037.8,1083.8,1039.2,1083.8z"/>
			<path class="st25" d="M571.2,1244H127.7c-13,0-23.7,13.2-23.7,29.2v141c0,16.1,10.7,29.2,23.7,29.2h363.8l18.8,38.7l7.5-38.7
				h53.4c13,0,23.7-13.2,23.7-29.2v-141C595,1257.1,584.3,1244,571.2,1244z"/>
			<path class="st5" d="M133.8,1292.1h380.6c1.5,0,2.6,1.2,2.6,2.6v10.3c0,1.5-1.2,2.6-2.6,2.6H133.8c-1.5,0-2.6-1.2-2.6-2.6v-10.2
				C131.2,1293.3,132.4,1292.1,133.8,1292.1z"/>
			<path class="st5" d="M133.8,1322h380.6c1.5,0,2.6,1.2,2.6,2.6v10.3c0,1.5-1.2,2.6-2.6,2.6H133.8c-1.5,0-2.6-1.2-2.6-2.6v-10.3
				C131.2,1323.1,132.4,1322,133.8,1322z"/>
			<path class="st5" d="M133.8,1351.8h231.8c1.5,0,2.6,1.2,2.6,2.6v10.3c0,1.5-1.2,2.6-2.6,2.6H133.8c-1.5,0-2.6-1.2-2.6-2.6v-10.3
				C131.2,1353,132.4,1351.8,133.8,1351.8z"/>
		</g>
	</g>
</g>
</svg>
