<?xml version="1.0" encoding="utf-8"?>
<!-- Generator: Adobe Illustrator 24.1.0, SVG Export Plug-In . SVG Version: 6.00 Build 0)  -->
<svg version="1.1" id="Capa_1" xmlns="http://www.w3.org/2000/svg" xmlns:xlink="http://www.w3.org/1999/xlink" x="0px" y="0px"
	 viewBox="0 0 482.3 159.4" style="enable-background:new 0 0 482.3 159.4;" xml:space="preserve">
<style type="text/css">
	.st0{fill:#E04403;}
	.st1{fill:#FFFFFF;}
</style>
<path class="st0" d="M57.1,115.1c-9.9,0-17.8-8-17.8-17.8v0c0,0,0,0,0,0V84.3c-0.1-1.1-0.7-4-2.8-6c-2.1-2.1-5.5-2.6-6.3-2.7H17.7
	c0,0,0,0,0,0c0,0,0,0,0,0c-9.9,0-17.8-8-17.8-17.8c0,0,0,0,0,0c0,0,0,0,0,0c0-9.9,8-17.8,17.8-17.8c0,0,0,0,0,0c0,0,0,0,0,0h12.4
	c0,0,0,0,0,0c0,0,4-0.3,6.5-2.9c2.1-2.1,2.7-5.6,2.7-6.3V18.1v0c0,0,0,0,0,0c0-9.9,8-17.8,17.8-17.8l0,0l0,0
	c8.6,0,15.8,6.1,17.5,14.2c0.2,1.2,0.4,2.4,0.4,3.6c0,0,0,0,0,0v0v12.7c0.1,0.8,0.7,4.1,2.7,6.1c2.6,2.6,6.4,2.9,6.4,2.9s0,0,0,0
	h12.5c0,0,0,0,0,0h0c9.9,0,17.8,8,17.8,17.8c0,9.9-8,17.8-17.8,17.8c-9.9,0-17.8-8-17.8-17.8v0c0,0,0,0,0,0v-13
	c-0.2-1.1-0.8-4-2.8-6c-2-2-5.2-2.6-6.2-2.7H57.1h0c0,0,0,0,0,0l0,0l0,0c0,0,0,0,0,0c0,0,0,0,0,0H44.6c0,0-3.9,0.4-6.3,2.8
	c-2.1,2.1-2.6,4.9-2.8,6v13v0v0c0,0,0,0,0,0c0,0,0,0,0,0c0,0,0,0,0,0c0,0,0,0,0,0v12.6c0.1,0.7,0.6,4.1,2.7,6.2
	c2.6,2.6,6.4,2.8,6.4,2.8s0,0,0,0h12.4h0c0,0,0,0,0,0c9.9,0,17.8,8,17.8,17.8C75,107.1,67,115.1,57.1,115.1z M78.5,18.1
	c0,9.9,8,17.8,17.8,17.8h0c0,0,0,0,0,0h12.4c0,0,0,0,0,0s3.8,0.2,6.4,2.8c2.1,2.1,2.7,5.5,2.7,6.2v12.6c0,0,0,0,0,0c0,0,0,0,0,0
	c0,0,0,0,0,0c0,0,0,0,0,0c0,0,0,0,0,0c0,0,0,0,0,0v13c-0.1,1-0.7,3.9-2.8,6c-2.4,2.4-6.3,2.8-6.3,2.8H96.3c0,0,0,0,0,0c0,0,0,0,0,0
	h0l0,0h0c0,0,0,0,0,0H83.7c-0.9-0.1-4.2-0.7-6.2-2.7c-2-2-2.6-4.8-2.8-6v-13c0,0,0,0,0,0c0,0,0,0,0,0c0-9.9-8-17.8-17.8-17.8
	c-9.9,0-17.8,8-17.8,17.8c0,9.9,8,17.8,17.8,17.8c0,0,0,0,0,0c0,0,0,0,0,0h12.5c0,0,0,0,0,0s3.8,0.3,6.4,2.9
	c2.1,2.1,2.6,5.3,2.7,6.1v12.7c0,0,0,0,0,0c0,0,0,0,0,0c0,1.2,0.1,2.4,0.4,3.6c1.7,8.1,8.9,14.2,17.5,14.2l0,0h0
	c9.9,0,17.8-8,17.8-17.8c0,0,0,0,0,0v0V84.7c0.1-0.7,0.6-4.2,2.7-6.3c2.5-2.5,6.5-2.9,6.5-2.9c0,0,0,0,0,0h12.4c0,0,0,0,0,0
	c0,0,0,0,0,0c9.9,0,17.8-8,17.8-17.8c0,0,0,0,0,0c0,0,0,0,0,0c0-9.9-8-17.8-17.8-17.8c0,0,0,0,0,0c0,0,0,0,0,0h-12.5
	c-0.8-0.1-4.2-0.7-6.2-2.7c-2-2-2.6-4.9-2.8-6V18.1v0c0,0,0,0,0,0c0-9.9-8-17.8-17.8-17.8C86.5,0.3,78.5,8.3,78.5,18.1z"/>
<g>
	<g>
		<path class="st1" d="M183.3,130.7h-42.5c1.3,12.4,8.3,17.6,16.2,17.6c5.4,0,9.7-2,14-5.1l7.5,8.1c-5.6,5.4-12.4,8.4-22.1,8.4
			c-15.1,0-27.8-12.1-27.8-33.4c0-21.8,11.5-33.5,28.1-33.5c18.2,0,27,14.8,27,32.2C183.7,127.3,183.4,129.4,183.3,130.7z
			 M155.8,104.2c-8.4,0-13.6,5.9-14.7,16.2H171C170.4,111.5,166.2,104.2,155.8,104.2z"/>
		<path class="st1" d="M230.1,158.4V122c0-13-4.9-17.6-13.2-17.6c-8.4,0-13.2,6-13.2,16.4v37.6h-12.6V94.1h12.6v6.1
			c3.2-4.6,9.5-7.5,16.2-7.5c14.9,0,22.9,9.8,22.9,28.8v36.8H230.1z"/>
		<path class="st1" d="M291.6,158.4v-6.1c-4.6,4.3-10,7.5-16.8,7.5c-13.8,0-24.7-10-24.7-34.5c0-22,12-32.4,25.3-32.4
			c6.5,0,12.6,3.4,16.2,7.3V75.7l12.5-6.5v89.2H291.6z M291.7,112.9c-2.8-3.8-8.7-8.4-15.1-8.4c-9.1,0-13.9,6.9-13.9,20.4
			c0,16.2,5.1,23.3,14.4,23.3c6,0,11.3-4,14.6-8.2V112.9z"/>
		<path class="st1" d="M406.3,158.4h-12.6l-23-64.2h13.2l11.5,34.9c2.1,6.2,3.9,12.2,4.8,15.8c0.7-3.5,2.4-9.5,4.4-15.8l11-34.9
			h13.3L406.3,158.4z"/>
		<path class="st1" d="M353.3,158.4v-6.1c-4.6,4.3-10,7.5-16.8,7.5c-13.8,0-24.7-10-24.7-34.5c0-22,12-32.4,25.3-32.4
			c6.5,0,12.6,3.4,16.2,7.3v-6h12.5v64.3H353.3z M353.4,112.9c-2.8-3.8-8.7-8.4-15.1-8.4c-9.1,0-13.9,6.9-13.9,20.4
			c0,16.2,5.1,23.3,14.4,23.3c6,0,11.3-4,14.6-8.2V112.9z"/>
		<path class="st1" d="M469.7,158.4v-6.1c-4.6,4.3-10,7.5-16.8,7.5c-13.8,0-24.7-10-24.7-34.5c0-22,12-32.4,25.3-32.4
			c6.5,0,12.6,3.4,16.2,7.3v-6h12.5v64.3H469.7z M469.8,112.9c-2.8-3.8-8.7-8.4-15.1-8.4c-9.1,0-13.9,6.9-13.9,20.4
			c0,16.2,5.1,23.3,14.4,23.3c6,0,11.3-4,14.6-8.2V112.9z"/>
	</g>
</g>
</svg>
