<?xml version="1.0" encoding="utf-8"?>
<!-- Generator: Adobe Illustrator 24.1.0, SVG Export Plug-In . SVG Version: 6.00 Build 0)  -->
<svg version="1.1" xmlns="http://www.w3.org/2000/svg" xmlns:xlink="http://www.w3.org/1999/xlink" x="0px" y="0px"
	 viewBox="0 0 820 271.1" style="enable-background:new 0 0 820 271.1;" xml:space="preserve">
<style type="text/css">
	.st0{fill:#F15D22;}
	.st1{fill:#535E66;}
</style>
<g id="Layer_3">
	<path class="st0" d="M97.3,195.2c-16.7,0-30.3-13.6-30.3-30.3v0c0,0,0,0,0,0v-21.9c-0.2-1.8-1.3-6.7-4.7-10.2
		c-3.5-3.5-9.3-4.5-10.6-4.7H30.4c0,0,0,0,0,0c0,0,0,0,0,0C13.6,128,0,114.4,0,97.7c0,0,0,0,0-0.1c0,0,0-0.1,0-0.1
		c0-16.8,13.6-30.3,30.3-30.3c0,0,0,0,0,0c0,0,0,0,0,0h21c0,0,0,0,0,0c0,0.1,6.7-0.6,11-4.8c3.6-3.6,4.5-9.6,4.7-10.7V30.4v0
		c0,0,0,0,0,0C67,13.6,80.6,0,97.4,0l0,0l0,0c14.7,0,26.9,10.4,29.7,24.2c0.4,2,0.6,4,0.6,6.1c0,0,0,0,0,0v0v21.5
		c0.2,1.4,1.1,6.9,4.7,10.4c4.4,4.5,10.8,4.9,10.8,4.9s0,0,0,0h21.2c0,0,0,0,0,0h0c16.8,0,30.3,13.6,30.3,30.3
		c0,16.8-13.6,30.3-30.3,30.3c-16.8,0-30.3-13.6-30.3-30.3v0c0,0,0,0,0,0v-22c-0.3-1.9-1.4-6.8-4.8-10.2c-3.4-3.4-8.9-4.4-10.5-4.6
		H97.4h0c0,0,0,0,0,0l0,0l0,0c0,0,0,0,0,0c0,0,0,0,0,0H76.2c0,0-6.7,0.6-10.8,4.7c-3.6,3.6-4.5,8.4-4.7,10.2v22v0v0c0,0,0,0,0,0.1
		c0,0,0,0,0,0.1c0,0,0,0,0,0c0,0,0,0,0,0v21.4c0.2,1.2,1.1,6.9,4.7,10.5c4.5,4.4,10.8,4.8,10.8,4.8s0,0,0,0h21.2h0c0,0,0,0,0,0
		c16.8,0,30.3,13.6,30.3,30.3C127.7,181.6,114.1,195.2,97.3,195.2z M133.7,30.3c0,16.8,13.6,30.3,30.3,30.3h0c0,0,0,0,0,0h21.2
		c0,0,0,0,0,0s6.4,0.3,10.8,4.8c3.6,3.6,4.5,9.3,4.7,10.5v21.4c0,0,0,0,0,0c0,0,0,0,0,0c0,0,0,0,0,0.1c0,0,0,0,0,0.1c0,0,0,0,0,0
		c0,0,0,0,0,0v22c-0.2,1.8-1.2,6.6-4.7,10.1c-4.1,4.1-10.8,4.7-10.8,4.7H164c0,0,0,0,0,0c0,0,0,0,0,0h0l0,0h0c0,0,0,0,0,0h-21.5
		c-1.6-0.2-7.1-1.2-10.5-4.6c-3.4-3.4-4.5-8.2-4.8-10.2v-22c0,0,0,0,0,0c0,0,0,0,0,0c0-16.8-13.6-30.3-30.3-30.3
		c-16.8,0-30.3,13.6-30.3,30.3c0,16.8,13.6,30.3,30.3,30.3c0,0,0,0,0,0c0,0,0,0,0,0h21.3c0,0,0,0,0,0s6.4,0.5,10.8,4.9
		c3.5,3.5,4.5,9,4.6,10.4v21.5c0,0,0,0,0,0c0,0,0,0,0,0c0,2.1,0.2,4.1,0.6,6.1c2.8,13.8,15.1,24.2,29.7,24.2l0,0h0
		c16.8,0,30.3-13.6,30.3-30.3c0,0,0,0,0,0v0v-21.3c0.1-1.1,1.1-7.1,4.7-10.7c4.3-4.3,11-4.9,11-4.8c0,0,0,0,0,0h21c0,0,0,0,0,0
		c0,0,0,0,0,0c16.8,0,30.3-13.6,30.3-30.3c0,0,0,0,0-0.1c0,0,0,0,0-0.1c0-16.8-13.6-30.3-30.3-30.3c0,0,0,0,0,0c0,0,0,0,0,0h-21.3
		c-1.3-0.2-7.1-1.1-10.6-4.7c-3.4-3.4-4.4-8.3-4.7-10.2V30.4v0c0,0,0,0,0,0C194.4,13.6,180.8,0,164,0C147.3,0,133.7,13.6,133.7,30.3
		z"/>
	<g>
		<g>
			<path class="st1" d="M311.9,221.8h-72.2c2.3,21,14.2,30,27.5,30c9.2,0,16.4-3.3,23.7-8.7l12.7,13.7c-9.6,9.2-21,14.4-37.7,14.4
				c-25.6,0-47.2-20.6-47.2-56.8c0-37,19.6-57,47.9-57c31,0,46,25.2,46,54.7C312.6,216,312.1,219.5,311.9,221.8z M265.1,176.6
				c-14.4,0-23.1,10-25,27.5h50.8C289.9,189.1,282.8,176.6,265.1,176.6z"/>
			<path class="st1" d="M391.5,268.8V207c0-22.1-8.3-30-22.5-30c-14.4,0-22.5,10.2-22.5,27.9v63.9h-21.4V159.6h21.4V170
				c5.4-7.9,16.2-12.7,27.5-12.7c25.4,0,38.9,16.6,38.9,48.9v62.6H391.5z"/>
			<path class="st1" d="M496.1,268.8v-10.4c-7.9,7.3-17.1,12.7-28.5,12.7c-23.5,0-42-17.1-42-58.7c0-37.5,20.4-55.1,43.1-55.1
				c11,0,21.4,5.8,27.5,12.5v-41.6l21.2-11v151.7H496.1z M496.3,191.4c-4.8-6.5-14.8-14.4-25.6-14.4c-15.4,0-23.7,11.6-23.7,34.7
				c0,27.5,8.7,39.5,24.5,39.5c10.2,0,19.1-6.9,24.8-13.9V191.4z"/>
			<path class="st1" d="M691,268.8h-21.4l-39.1-109.2H653l19.6,59.3c3.5,10.6,6.7,20.8,8.1,26.8c1.2-6,4.2-16.2,7.5-26.8l18.7-59.3
				h22.7L691,268.8z"/>
			<path class="st1" d="M600.9,268.8v-10.4c-7.9,7.3-17.1,12.7-28.5,12.7c-23.5,0-42-17.1-42-58.7c0-37.5,20.4-55.1,43.1-55.1
				c11,0,21.4,5.8,27.5,12.5v-10.3h21.2v109.3H600.9z M601.1,191.4c-4.8-6.5-14.8-14.4-25.6-14.4c-15.4,0-23.7,11.6-23.7,34.7
				c0,27.5,8.7,39.5,24.6,39.5c10.2,0,19.1-6.9,24.8-13.9V191.4z"/>
			<path class="st1" d="M798.8,268.8v-10.4c-7.9,7.3-17.1,12.7-28.5,12.7c-23.5,0-42-17.1-42-58.7c0-37.5,20.4-55.1,43.1-55.1
				c11,0,21.4,5.8,27.5,12.5v-10.3H820v109.3H798.8z M799,191.4c-4.8-6.5-14.8-14.4-25.6-14.4c-15.4,0-23.7,11.6-23.7,34.7
				c0,27.5,8.7,39.5,24.6,39.5c10.2,0,19.1-6.9,24.8-13.9V191.4z"/>
		</g>
	</g>
</g>
<g id="Layer_2">
</g>
</svg>
