<?xml version="1.0" encoding="utf-8"?>
<!-- Generator: Adobe Illustrator 24.1.0, SVG Export Plug-In . SVG Version: 6.00 Build 0)  -->
<svg version="1.1" id="Capa_1" xmlns="http://www.w3.org/2000/svg" xmlns:xlink="http://www.w3.org/1999/xlink" x="0px" y="0px"
	 viewBox="0 0 153.7 114.8" style="enable-background:new 0 0 153.7 114.8;" xml:space="preserve">
<style type="text/css">
	.st0{fill:#E04403;}
</style>
<path class="st0" d="M57.2,114.8c-9.9,0-17.8-8-17.8-17.8l0,0l0,0V84c-0.1-1.1-0.7-4-2.8-6c-2.1-2.1-5.5-2.6-6.3-2.7H17.8l0,0l0,0
	C7.9,75.3,0,67.3,0,57.5l0,0l0,0c0-9.9,8-17.8,17.8-17.8l0,0l0,0h12.4l0,0c0,0,4-0.3,6.5-2.9c2.1-2.1,2.7-5.6,2.7-6.3V17.8l0,0l0,0
	c0-9.9,8-17.8,17.8-17.8l0,0l0,0C65.8,0,73,6.1,74.7,14.2c0.2,1.2,0.4,2.4,0.4,3.6l0,0l0,0v12.7c0.1,0.8,0.7,4.1,2.7,6.1
	c2.6,2.6,6.4,2.9,6.4,2.9l0,0h12.5l0,0l0,0c9.9,0,17.8,8,17.8,17.8c0,9.9-8,17.8-17.8,17.8c-9.9,0-17.8-8-17.8-17.8l0,0l0,0v-13
	c-0.2-1.1-0.8-4-2.8-6s-5.2-2.6-6.2-2.7H57.2l0,0l0,0l0,0l0,0l0,0l0,0H44.7c0,0-3.9,0.4-6.3,2.8c-2.1,2.1-2.6,4.9-2.8,6v13l0,0l0,0
	l0,0l0,0l0,0l0,0V70c0.1,0.7,0.6,4.1,2.7,6.2c2.6,2.6,6.4,2.8,6.4,2.8l0,0h12.4l0,0l0,0c9.9,0,17.8,8,17.8,17.8
	C75.1,106.8,67.1,114.8,57.2,114.8z M78.6,17.8c0,9.9,8,17.8,17.8,17.8l0,0l0,0h12.4l0,0c0,0,3.8,0.2,6.4,2.8
	c2.1,2.1,2.7,5.5,2.7,6.2v12.6l0,0l0,0l0,0l0,0l0,0l0,0v13c-0.1,1-0.7,3.9-2.8,6c-2.4,2.4-6.3,2.8-6.3,2.8H96.4l0,0l0,0l0,0l0,0l0,0
	l0,0H83.8c-0.9-0.1-4.2-0.7-6.2-2.7s-2.6-4.8-2.8-6v-13l0,0l0,0c0-9.9-8-17.8-17.8-17.8c-9.9,0-17.8,8-17.8,17.8
	c0,9.9,8,17.8,17.8,17.8l0,0l0,0h12.5l0,0c0,0,3.8,0.3,6.4,2.9c2.1,2.1,2.6,5.3,2.7,6.1v12.7l0,0l0,0c0,1.2,0.1,2.4,0.4,3.6
	c1.7,8.1,8.9,14.2,17.5,14.2l0,0l0,0c9.9,0,17.8-8,17.8-17.8l0,0l0,0V84.4c0.1-0.7,0.6-4.2,2.7-6.3c2.5-2.5,6.5-2.9,6.5-2.9l0,0
	h12.4l0,0l0,0c9.9,0,17.8-8,17.8-17.8l0,0l0,0c0-9.9-8-17.8-17.8-17.8l0,0l0,0h-12.5c-0.8-0.1-4.2-0.7-6.2-2.7s-2.6-4.9-2.8-6V17.8
	l0,0l0,0c0-9.9-8-17.8-17.8-17.8C86.6,0,78.6,8,78.6,17.8z"/>
</svg>
