<?xml version="1.0" encoding="utf-8"?>
<!-- Generator: Adobe Illustrator 24.1.0, SVG Export Plug-In . SVG Version: 6.00 Build 0)  -->
<svg version="1.1" id="Layer_1" xmlns="http://www.w3.org/2000/svg" xmlns:xlink="http://www.w3.org/1999/xlink" x="0px" y="0px"
	 viewBox="0 0 2340 1560" style="enable-background:new 0 0 2340 1560;" xml:space="preserve">
<style type="text/css">
	.st0{fill:url(#SVGID_1_);}
	.st1{fill:url(#SVGID_2_);}
	.st2{fill:url(#SVGID_3_);}
	.st3{fill:url(#SVGID_4_);filter:url(#Adobe_OpacityMaskFilter);}
	.st4{mask:url(#id0_1_);fill:#615EC7;}
	.st5{fill:url(#SVGID_5_);filter:url(#Adobe_OpacityMaskFilter_1_);}
	.st6{mask:url(#id2_1_);fill:#6264C8;}
	.st7{fill:#555BC2;}
	.st8{fill:#6468D1;}
	.st9{fill:#294696;}
	.st10{fill:url(#SVGID_6_);}
	.st11{fill:url(#SVGID_7_);}
	.st12{fill:url(#SVGID_8_);}
	.st13{fill:url(#SVGID_9_);}
	.st14{fill:url(#SVGID_10_);filter:url(#Adobe_OpacityMaskFilter_2_);}
	.st15{mask:url(#id4_1_);fill:#0F1C57;}
	.st16{fill:#0F1C57;}
	.st17{fill:url(#SVGID_11_);}
	.st18{fill:url(#SVGID_12_);}
	.st19{fill:none;}
	.st20{fill:url(#SVGID_13_);}
	.st21{fill:url(#SVGID_14_);}
	.st22{fill:#EEEEEF;}
	.st23{fill:#C6CEE8;}
	.st24{fill:url(#SVGID_15_);}
	.st25{fill:url(#SVGID_16_);}
	.st26{fill:#FEFEFE;}
	.st27{fill:url(#SVGID_17_);}
	.st28{fill:url(#SVGID_18_);}
	.st29{fill:url(#SVGID_19_);}
	.st30{fill:url(#SVGID_20_);}
	.st31{fill:url(#SVGID_21_);}
	.st32{fill:url(#SVGID_22_);}
	.st33{fill:url(#SVGID_23_);}
	.st34{fill:url(#SVGID_24_);}
	.st35{fill:url(#SVGID_25_);}
	.st36{fill:url(#SVGID_26_);}
	.st37{fill:url(#SVGID_27_);}
	.st38{fill:url(#SVGID_28_);}
	.st39{fill:url(#SVGID_29_);}
	.st40{fill:url(#SVGID_30_);}
	.st41{fill:url(#SVGID_31_);}
	.st42{fill:url(#SVGID_32_);}
	.st43{fill:#202F73;}
	.st44{fill:url(#SVGID_33_);}
	.st45{fill:#5331E8;}
	.st46{fill:#D5E161;}
	.st47{fill:url(#SVGID_34_);}
	.st48{fill:url(#SVGID_35_);}
	.st49{fill:url(#SVGID_36_);}
	.st50{fill:#5837BD;}
	.st51{fill:url(#SVGID_37_);}
	.st52{fill:url(#SVGID_38_);}
	.st53{fill:url(#SVGID_39_);}
	.st54{fill:#FFFFFF;fill-opacity:0.502;}
	.st55{fill:url(#SVGID_40_);}
	.st56{fill:url(#SVGID_41_);}
	.st57{fill:#2E385B;}
	.st58{fill:#FFFFFF;}
	.st59{fill:url(#SVGID_42_);}
	.st60{fill:url(#SVGID_43_);}
	.st61{fill:url(#SVGID_44_);}
	.st62{fill:url(#SVGID_45_);}
	.st63{fill:url(#SVGID_46_);}
	.st64{fill:url(#SVGID_47_);}
	.st65{fill:url(#SVGID_48_);}
	.st66{fill:#5456B8;}
</style>
<g id="Layer_x0020_1">
	<g id="_2815725897232">
		<g>
			
				<linearGradient id="SVGID_1_" gradientUnits="userSpaceOnUse" x1="11165.0127" y1="6178.5796" x2="11165.0586" y2="-18587.4766" gradientTransform="matrix(2.834646e-02 0 0 -2.834646e-02 840.8323 417.3921)">
				<stop  offset="0" style="stop-color:#C9D2FF"/>
				<stop  offset="1" style="stop-color:#AAADF0"/>
			</linearGradient>
			<path class="st0" d="M700.3,1392.1c0,0,16.2,208.1,417.5,101c401.3-107.2,539.7-15,689.2-104.7
				c149.6-89.7,378.9-256.8,296.6-638.1c-82.3-381.4-383.9-366.4-523.5-488.6C1440.6,139.5,1360.9-7.6,1114.1,19.8
				C867.3,47.2,737.7,164.4,630.5,311.5C523.3,458.5,204.2,461,194.3,757.7c-10,296.6,94.7,391.4,274.2,393.9
				C647.9,1154,710.3,1238.8,700.3,1392.1L700.3,1392.1z"/>
			
				<linearGradient id="SVGID_2_" gradientUnits="userSpaceOnUse" x1="39267.2617" y1="-16365.1895" x2="23061.1133" y2="-15390.9512" gradientTransform="matrix(2.834646e-02 0 0 -2.834646e-02 840.8323 417.3921)">
				<stop  offset="0" style="stop-color:#AAADF0"/>
				<stop  offset="1" style="stop-color:#C9D2FF"/>
			</linearGradient>
			<path class="st1" d="M1558.5,1434.1c102.6-1.5,174.2-1.2,248.6-45.8c127.9-76.7,314-209.9,313.9-485.3
				c-0.4-47-5.8-97.1-16.8-150.4c-0.1-0.4-0.2-0.8-0.2-1.1c-0.3-1.3-0.6-2.6-0.9-3.9c-77.6-353.8-345-364.3-493.4-463.5
				L1558.5,1434.1z"/>
			
				<linearGradient id="SVGID_3_" gradientUnits="userSpaceOnUse" x1="6190.627" y1="-13599.543" x2="-2349.397" y2="1192.3124" gradientTransform="matrix(2.834646e-02 0 0 -2.834646e-02 840.8323 417.3921)">
				<stop  offset="0" style="stop-color:#9C8BE8"/>
				<stop  offset="1" style="stop-color:#CAA6E3"/>
			</linearGradient>
			<path class="st2" d="M218.8,878.9c0,0,319.9-240.9,666.4-318.2c346.5-77.3,792.7-97.2,792.7-97.2L1825,720.3l-13.7,33.7
				c0,0-246.8-33.7-703,118.4c-456.2,152.1-560.9,196.9-560.9,196.9s-81-73.5-189.4-110.9c-108.4-37.4-129.6-34.9-129.6-34.9
				L218.8,878.9L218.8,878.9z"/>
			<defs>
				<filter id="Adobe_OpacityMaskFilter" filterUnits="userSpaceOnUse" x="796.3" y="591.9" width="490.9" height="271.3">
					<feColorMatrix  type="matrix" values="1 0 0 0 0  0 1 0 0 0  0 0 1 0 0  0 0 0 1 0"/>
				</filter>
			</defs>
			<mask maskUnits="userSpaceOnUse" x="796.3" y="591.9" width="490.9" height="271.3" id="id0_1_">
				
					<linearGradient id="SVGID_4_" gradientUnits="userSpaceOnUse" x1="6744.6875" y1="-10495.3271" x2="10286.8945" y2="-15089.4131" gradientTransform="matrix(2.834646e-02 0 0 -2.834646e-02 840.8323 417.3921)">
					<stop  offset="0" style="stop-color:#FFFFFF"/>
					<stop  offset="1" style="stop-color:#FFFFFF;stop-opacity:0"/>
				</linearGradient>
				<rect x="796.3" y="591.9" class="st3" width="490.9" height="271.3"/>
			</mask>
			<path class="st4" d="M1039.4,612.2l65.4,46.6l182.4-36c-1.2,2.4-2.3,4.9-3.3,7.5c-24.9,64.8-63.6,153.3-76,157
				c-1,0.3-1.9,0.9-2.7,1.7l-102.9,26.7c-41.5-9.8-97.6-24.1-97.6-24.1l-35.8,58.6l-49.8,12.9L796.3,727.9l236.8-59.8l-51.3-44.3
				l-97.9,19.7l-8.3,35.5l-38.2,6.2l0.4-4.9l34-5l5.9-40.2c0,0,45.6-9.5,94.6-19.6l0.9-0.2l0.9-0.2l0.9-0.2l0.9-0.2l0.9-0.2l0.4-0.1
				l0.4-0.1l0.9-0.2l0.9-0.2l0.9-0.2l0.9-0.2l0.9-0.2l0,0l0.9-0.2l0.9-0.2l0.9-0.2l0.9-0.2l0.9-0.2l0.5-0.1l0.4-0.1l0.9-0.2l0.9-0.2
				l0.9-0.2l0.9-0.2l0.9-0.2l0.1,0l0.8-0.2l0.9-0.2l0.9-0.2l0.9-0.2l0.9-0.2l2.7-0.5l0.9-0.2l2.6-0.5l0.9-0.2l0.9-0.2l0.9-0.2
				l0.9-0.2l0.6-0.1l0.3-0.1l0.9-0.2l1.7-0.4l0.9-0.2l0.9-0.2l0.2,0l3.3-0.7l0.9-0.2l1.7-0.4l0.8-0.2l0.8-0.2l0.8-0.2l0.8-0.2l0.2,0
				l0.6-0.1l0.8-0.2l0.8-0.2l0.8-0.2l1.5-0.3l0.2,0l0.8-0.2c34.6-7.1,62-12.6,63.8-12.6c5,0,31.2,28,31.2,28l38-6.9l2.4,2.7
				l-42.1,9.3l-25.6-24L1039.4,612.2L1039.4,612.2z"/>
			<defs>
				<filter id="Adobe_OpacityMaskFilter_1_" filterUnits="userSpaceOnUse" x="527.8" y="863.9" width="151.2" height="102.2">
					<feColorMatrix  type="matrix" values="1 0 0 0 0  0 1 0 0 0  0 0 1 0 0  0 0 0 1 0"/>
				</filter>
			</defs>
			<mask maskUnits="userSpaceOnUse" x="527.8" y="863.9" width="151.2" height="102.2" id="id2_1_">
				
					<linearGradient id="SVGID_5_" gradientUnits="userSpaceOnUse" x1="-9027.3203" y1="-16902.8887" x2="-7230.8765" y2="-18695.791" gradientTransform="matrix(2.834646e-02 0 0 -2.834646e-02 840.8323 417.3921)">
					<stop  offset="0" style="stop-color:#FFFFFF"/>
					<stop  offset="1" style="stop-color:#FFFFFF;stop-opacity:0"/>
				</linearGradient>
				<rect x="527.8" y="863.9" class="st5" width="151.2" height="102.2"/>
			</mask>
			<path class="st6" d="M622.4,863.9l56.6,54.8L605.2,966l-77.4-78.1L622.4,863.9L622.4,863.9z"/>
			<path class="st7" d="M1058.7,888.9c-42.7,14.3-82,27.6-118.2,39.9l-0.2-28.7l-86.6-76l34.8-17.2l172,69.8L1058.7,888.9
				L1058.7,888.9z"/>
			<path class="st8" d="M1825,720.3l-2.4,5.9l0.3,402.2l-22.7-4.8l-3.3-371c-58.9-4.4-296.3-10.9-688.5,119.8
				C756.9,989.4,614.1,1043,567,1061.4l-4.4,89.5v12v0l-0.6-0.2v0c-1-0.3-2-0.5-3-0.8c-1.2-0.3-2.3-0.6-3.5-0.8
				c-0.9-0.2-1.8-0.4-2.7-0.6c-1.4-0.3-2.8-0.6-4.3-0.9c-0.6-0.1-1.2-0.3-1.9-0.4c-1.8-0.4-3.6-0.7-5.5-1.1l-0.4-0.1l-0.4-0.1
				c-1.9-0.3-3.9-0.7-5.8-1l2.8-96.4c-24.9-20.5-98.9-74.6-179.3-102.3S256.3,926.7,243,925l-1.1,112.2c-7.4-13-13.9-27.2-19.7-42.8
				l-3.5-115.4c0,0,252.6,74.4,334.9,161.7C553.7,1040.6,1377.5,702.8,1825,720.3L1825,720.3z"/>
			<path class="st9" d="M1058.7,888.9c-42.7,14.3-82,27.6-118.2,39.9l-0.2-28.7c32.1-10.6,65.3-21.2,99.4-31.8l20.7,8.4
				L1058.7,888.9L1058.7,888.9z"/>
			
				<linearGradient id="SVGID_6_" gradientUnits="userSpaceOnUse" x1="19887.9746" y1="-36475.3359" x2="4479.2979" y2="-15989.0635" gradientTransform="matrix(2.834646e-02 0 0 -2.834646e-02 840.8323 417.3921)">
				<stop  offset="0" style="stop-color:#AAADF0"/>
				<stop  offset="1" style="stop-color:#C9D2FF"/>
			</linearGradient>
			<path class="st10" d="M700.3,1392.1c0,0,16.2,208.1,417.5,101c401.3-107.2,539.7-15,689.2-104.7c24.7-14.8,51.6-31.8,78.9-51.5
				c-36.1-187.4-128.3-438.6-363.3-433.9c-292,5.8-766.2,174.3-960.1,247.8v12v0c-1-0.3-2.1-0.5-3.1-0.8
				C669.3,1189.2,708.3,1268.3,700.3,1392.1L700.3,1392.1z M542.8,1158.4c1.9,0.4,3.8,0.7,5.7,1.1c-0.6-0.1-1.2-0.2-1.8-0.4
				C545.4,1158.9,544.1,1158.6,542.8,1158.4L542.8,1158.4z M554,1160.7c1.8,0.4,3.6,0.8,5.4,1.3
				C557.7,1161.6,555.9,1161.2,554,1160.7z"/>
			
				<linearGradient id="SVGID_7_" gradientUnits="userSpaceOnUse" x1="2310.3328" y1="-14094.9287" x2="420.2931" y2="-8170.979" gradientTransform="matrix(2.834646e-02 0 0 -2.834646e-02 840.8323 417.3921)">
				<stop  offset="0" style="stop-color:#202F73"/>
				<stop  offset="1" style="stop-color:#553594"/>
			</linearGradient>
			<path class="st11" d="M682.5,773.4l350.2-91l76.5,112.6l-347.7,94.7L682.5,773.4z"/>
			
				<linearGradient id="SVGID_8_" gradientUnits="userSpaceOnUse" x1="20494.1543" y1="-30139.9844" x2="20494.2031" y2="-37131.0898" gradientTransform="matrix(2.834646e-02 0 0 -2.834646e-02 840.8323 417.3921)">
				<stop  offset="0" style="stop-color:#9C8BE8"/>
				<stop  offset="1" style="stop-color:#6669D2"/>
			</linearGradient>
			<path class="st12" d="M1421.8,1352.2c80.7,0,146.1,34.2,146.1,76.3c0,1.8-0.1,3.7-0.4,5.5c-73.6,1.1-163.2,2.4-281.9,22.3
				c-6.4-8.6-10-18-10-27.8C1275.6,1386.3,1341.1,1352.2,1421.8,1352.2L1421.8,1352.2z"/>
			
				<linearGradient id="SVGID_9_" gradientUnits="userSpaceOnUse" x1="20692.0176" y1="-30139.9824" x2="20692.0664" y2="-37131.1367" gradientTransform="matrix(2.834646e-02 0 0 -2.834646e-02 840.8323 417.3921)">
				<stop  offset="0" style="stop-color:#9C8BE8"/>
				<stop  offset="1" style="stop-color:#6669D2"/>
			</linearGradient>
			<path class="st13" d="M1456.7,1240.4v196.9c-18.6,1-38.1,2.4-58.6,4.3V1240c14.5,0.4,29.9,0.7,46.1,0.7
				C1448.4,1240.6,1452.6,1240.5,1456.7,1240.4L1456.7,1240.4z"/>
			<defs>
				<filter id="Adobe_OpacityMaskFilter_2_" filterUnits="userSpaceOnUse" x="808" y="682.4" width="301.2" height="167.7">
					<feColorMatrix  type="matrix" values="1 0 0 0 0  0 1 0 0 0  0 0 1 0 0  0 0 0 1 0"/>
				</filter>
			</defs>
			<mask maskUnits="userSpaceOnUse" x="808" y="682.4" width="301.2" height="167.7" id="id4_1_">
				
					<linearGradient id="SVGID_10_" gradientUnits="userSpaceOnUse" x1="1400.328" y1="-8284.623" x2="3598.8037" y2="-11494.3896" gradientTransform="matrix(2.834646e-02 0 0 -2.834646e-02 840.8323 417.3921)">
					<stop  offset="0" style="stop-color:#FFFFFF"/>
					<stop  offset="1" style="stop-color:#FFFFFF;stop-opacity:0"/>
				</linearGradient>
				<rect x="808" y="682.4" class="st14" width="301.2" height="167.7"/>
			</mask>
			<path class="st15" d="M808,740.8l224.8-58.4l76.5,112.6l-43.4,11.8c-31.9-7.8-61.1-15.2-61.1-15.2l-23.4,38.2l-74.2,20.2
				L808,740.8L808,740.8z"/>
			<path class="st16" d="M959.7,835.8L889,855l-35.4-31l34.8-17.2L959.7,835.8L959.7,835.8z"/>
			
				<linearGradient id="SVGID_11_" gradientUnits="userSpaceOnUse" x1="28203.5605" y1="-35226.1055" x2="22091.8359" y2="-28235.1055" gradientTransform="matrix(2.834646e-02 0 0 -2.834646e-02 840.8323 417.3921)">
				<stop  offset="0" style="stop-color:#50A440"/>
				<stop  offset="1" style="stop-color:#91C130"/>
			</linearGradient>
			<path class="st17" d="M1605.1,1433.3c17-0.4,33.1-0.9,48.6-2l0,0c-5.8,0.4-11.7,0.7-17.8,1c-1.8-62.5-44.9-141.2-80.5-173.6
				c-3.4-3.1-6.6-6.1-9.7-9.1c-26.1-1.1-64.1,1.4-71.3,23.4c-11.2,34.3,64.2,38.6,96,82.3C1591.4,1384.1,1601,1415.4,1605.1,1433.3
				L1605.1,1433.3z"/>
			
				<linearGradient id="SVGID_12_" gradientUnits="userSpaceOnUse" x1="28189.0918" y1="-35238.75" x2="22077.4141" y2="-28247.6934" gradientTransform="matrix(2.834646e-02 0 0 -2.834646e-02 840.8323 417.3921)">
				<stop  offset="0" style="stop-color:#6FA93F"/>
				<stop  offset="1" style="stop-color:#C1F355"/>
			</linearGradient>
			<path class="st18" d="M1626.5,1432.7L1626.5,1432.7l0.1,0l0.1,0l0.1,0l0.1,0l0,0l0.1,0l0.1,0l0.1,0l0.1,0l0.1,0l0.1,0l0.1,0
				l0.1,0l0.1,0l0.1,0l0,0l0,0l0.1,0l0.1,0l0.1,0l0.1,0l0.1,0l0.1,0l0.1,0l0.1,0l0.1,0l0,0l0,0l0.1,0l0.1,0l0.1,0l0.1,0l0.1,0l0.1,0
				l0.1,0l0.1,0l0.1,0l0.1,0h0l0.1,0l0.1,0l0.1,0l0.1,0l0.1,0l0.1,0l0.1,0l0.1,0l0.1,0l0.1,0l0,0l0.1,0l0.1,0l0.1,0l0.1,0l0.1,0
				l0.1,0l0.1,0l0.1,0l0.1,0l0.1,0h0l0.1,0l0.1,0l0.1,0l0.1,0l0.1,0l0.1,0l0.1,0l0.1,0c-7.8-31.3-26.2-92.6-56.1-121.6
				c-41.5-40.2-63.9-33.6-63.9-33.6c-1.3,0.3-2,1.6-1.7,2.9c0.3,1.3,1.6,2,2.9,1.7c0.1,0,19.9-5.9,59.5,32.4
				C1600.7,1342.2,1618.7,1401.6,1626.5,1432.7L1626.5,1432.7z"/>
			<path class="st19" d="M1626.5,1432.7c1.6-0.1,3.2-0.1,4.8-0.2c-7.8-31.3-26.2-92.6-56.1-121.6c-41.5-40.2-63.9-33.6-63.9-33.6
				c-1.3,0.3-2,1.6-1.7,2.9c0.3,1.3,1.6,2,2.9,1.7c0.1,0,19.9-5.9,59.5,32.4C1600.7,1342.2,1618.7,1401.6,1626.5,1432.7z"/>
			
				<linearGradient id="SVGID_13_" gradientUnits="userSpaceOnUse" x1="39055.7891" y1="-29973.1406" x2="29505.252" y2="-15289.9658" gradientTransform="matrix(2.834646e-02 0 0 -2.834646e-02 840.8323 417.3921)">
				<stop  offset="0" style="stop-color:#50A440"/>
				<stop  offset="1" style="stop-color:#9CF000"/>
			</linearGradient>
			<path class="st20" d="M1890.2,1333.8c0.6-0.4,1.2-0.9,1.8-1.3C1891.4,1332.9,1890.8,1333.4,1890.2,1333.8L1890.2,1333.8
				L1890.2,1333.8z M1894.1,1330.9c1.9-1.4,3.8-2.8,5.7-4.2C1897.9,1328.1,1896,1329.5,1894.1,1330.9z M1902.2,1324.9
				c1.7-1.3,3.5-2.6,5.2-4C1905.6,1322.3,1903.9,1323.6,1902.2,1324.9z M1910.1,1318.8c1.6-1.2,3.1-2.5,4.7-3.7
				C1913.3,1316.4,1911.7,1317.6,1910.1,1318.8z M1914.9,1315.1c24.9-19.7,49.7-41.9,73-67c-7.8-26.1-18.4-60.4-21.1-64.2
				c-4.4-6.2-36.8,4.4-43.6,1.9c-6.9-2.5-20.6-39.9-20.6-39.9s36.1-26.8,39.9-31.2c3.7-4.4-31.2-76.7-36.8-78.5s-36.8,11.2-43,11.8
				c-6.2,0.6-21.2-26.8-21.2-26.8l30.5-28.7c0,0-33-45.5-112.2-59.8c-79.1-14.3-100.3,29.3-100.3,29.3s26.2-10,43,12.5
				c16.8,22.4,24.3,76,24.9,79.8c0.6,3.7,36.8-12.5,36.8-12.5l16.2,39.9c0,0-35.5,17.4-39.9,21.2c-2.5,2.1,2.5,13.9,7.3,23.7
				c16.7-7.3,36.9-15.3,46-15.6c16.8-0.6,46.1,72.9,46.7,79.8c0.6,6.9-31.2,19.3-31.2,19.3s9.3,28,17.4,33.7
				c8.1,5.6,57.3-17.5,67.3-12.5C1901.5,1235,1910.6,1287.9,1914.9,1315.1L1914.9,1315.1z"/>
			
				<linearGradient id="SVGID_14_" gradientUnits="userSpaceOnUse" x1="38536.6602" y1="-29729.25" x2="28819.4414" y2="-15746.9971" gradientTransform="matrix(2.834646e-02 0 0 -2.834646e-02 840.8323 417.3921)">
				<stop  offset="0" style="stop-color:#88BF50"/>
				<stop  offset="1" style="stop-color:#D9E690"/>
			</linearGradient>
			<path class="st21" d="M1877.3,1232.7c-18.3-74.8-47.6-172.8-76.8-215l-11.4-14.5c50.5,56.1,80.1,146.4,99.2,227.4l-0.1,0l0,0
				c-0.2,0-0.5,0-0.7,0.1l-0.1,0c-0.3,0-0.5,0.1-0.8,0.1l-0.2,0l-0.2,0c-0.2,0-0.4,0.1-0.6,0.1l-0.2,0l-0.2,0
				c-0.3,0-0.5,0.1-0.8,0.1l-0.2,0l-0.2,0l-0.7,0.1l0,0l-0.2,0l-0.2,0l-0.7,0.1l0,0l-0.2,0l-0.2,0l-0.7,0.2l-0.2,0l-0.2,0l-0.7,0.2
				l-0.2,0l-0.2,0l-0.2,0l-0.4,0.1l-0.2,0l-0.2,0l-0.2,0l-0.2,0l-0.6,0.1l-0.2,0l-0.2,0L1877.3,1232.7L1877.3,1232.7z"/>
			<path class="st19" d="M1877.3,1232.7c-18.3-74.8-47.6-172.8-76.8-215l-11.4-14.5c50.5,56.1,80.1,146.4,99.2,227.4
				C1885.3,1230.9,1881.5,1231.6,1877.3,1232.7L1877.3,1232.7z"/>
			<path class="st22" d="M1336.9,317.4c0,0-3.7,106.6-0.6,136.5c3.1,29.9,3.1,29.9,3.1,29.9l66.1,1.2l-2.5,53.6
				c0,0-94.1,26.8-119,91.6c-24.9,64.8-63.6,153.3-76,157c-12.5,3.7-11.2,57.3-11.2,57.3s-34.3-17.4-53-19.9
				c-18.7-2.5-139-33-139-33l-74.5-37.7l-16.8,5c0,0-24.6-5-32.7-1.6c-8.1,3.4-9.7,7.8-9.7,7.8s-10.9,5.3-16.2,11.8
				c-5.3,6.5-5.9,15.9-5.9,15.9s-2.2,12.8-4,13.4c-1.9,0.6,8.7,17.8,8.7,17.8l39.9-3.4c0,0,12.8,10.6,26.5,18.1s43.6,20.3,43.6,20.3
				l-3.1,8.1c0,0,236.8,90.4,252.4,86.6c15.6-3.7,90.4-82.9,90.4-82.9l-46.1,163.3c0,0-121.5,31.9-179.6,55.3
				c18.7,4,22.2,19.2,22.2,19.2s-15-6.9-24.6,8.1c-9.7,15-20.9,128.4-20.9,128.4s-29-5-34.9-5c-5.9,0-12.5,38.3-12.5,38.3
				s53,17.8,58,26.2c0.3,0.6,0.4,1.4,0.3,2.5l63-99.7l168.3-13.7c0,0,46.1-2.5,84.8-159.5c38.6-157,52.3-254.3,52.3-254.3
				s19.9-67.3,101-72.3c81-5,142.1-5,142.1-5l-16.8-127.1c0,0-13.7-24.9-36.1-31.2c-22.4-6.2-85.1-29-85.1-29v-61.1l38-154.5
				l-38.6-49.2c0,0,8.7-36.8-18.7-44.9c-27.4-8.1-171.4,15.6-185.1-1.9c-13.7-17.4-12.5-34.3-12.5-34.3s-22.4,31.2-4.4,61.1
				c0,0-15.6-7.5-21.2-23.7c-5.6-16.2-5.6-16.2-5.6-16.2S1232.4,299.7,1336.9,317.4L1336.9,317.4z"/>
			<path class="st23" d="M1405.4,485l-2,42.5l40.7-57.2L1405.4,485L1405.4,485z"/>
			
				<linearGradient id="SVGID_15_" gradientUnits="userSpaceOnUse" x1="21315.6504" y1="-14669.2168" x2="10763.2314" y2="-5677.9878" gradientTransform="matrix(2.834646e-02 0 0 -2.834646e-02 840.8323 417.3921)">
				<stop  offset="0" style="stop-color:#0F1C57"/>
				<stop  offset="1" style="stop-color:#471F91"/>
			</linearGradient>
			<path class="st24" d="M1402.9,538.6c0,0-94.1,26.8-119,91.6c-24.9,64.8-63.6,153.3-76,157c-12.5,3.7-11.2,57.3-11.2,57.3
				s-34.3-17.4-53-19.9c-18.7-2.5-139-33-139-33l-41.1,67.3l-3.1,8.1c0,0,236.8,90.4,252.4,86.6c15.6-3.7,90.4-82.9,90.4-82.9
				l-46.1,163.3l108.6,54c5.2-15.6,10.4-33.5,15.4-54c38.6-157,52.3-254.3,52.3-254.3s19.9-67.3,101-72.3c81-5,142.1-5,142.1-5
				l-16.8-127.1c0,0-13.7-24.9-36.1-31.2c-22.4-6.2-85.1-29-85.1-29C1445.6,519,1402.9,538.6,1402.9,538.6L1402.9,538.6z"/>
			
				<linearGradient id="SVGID_16_" gradientUnits="userSpaceOnUse" x1="23428.873" y1="3604.842" x2="14764.0684" y2="3604.8906" gradientTransform="matrix(2.834646e-02 0 0 -2.834646e-02 840.8323 417.3921)">
				<stop  offset="0" style="stop-color:#0F1C57"/>
				<stop  offset="1" style="stop-color:#401F89"/>
			</linearGradient>
			<path class="st25" d="M1538.5,461v-6.9l38-154.5l-38.6-49.2c0,0,8.7-36.8-18.7-44.9c-27.4-8.1-171.4,15.6-185.1-1.9
				c-13.7-17.4-12.5-34.3-12.5-34.3s-22.4,31.2-4.4,61.1c0,0-15.6-7.5-21.2-23.7c-5.6-16.2-5.6-16.2-5.6-16.2
				s-58.1,109.1,46.4,126.8l72-0.9l13.7,56.7c0,0,9.3-43.6,38.6-46.1c29.3-2.5,36.8,33,28,44.9c-8.7,11.8-29.3,26.8-29.3,26.8
				l31.2,62.3H1538.5L1538.5,461z"/>
			<path class="st26" d="M1004.7,791.6l-74.5-37.7l-16.8,5c0,0-24.6-5-32.7-1.6c-8.1,3.4-9.7,7.8-9.7,7.8s-10.9,5.3-16.2,11.8
				c-5.3,6.5-5.9,15.9-5.9,15.9s-2.2,12.8-4,13.4c-1.9,0.6,8.7,17.8,8.7,17.8l39.9-3.4c0,0,12.8,10.6,26.5,18.1s43.6,20.3,43.6,20.3
				L1004.7,791.6L1004.7,791.6z"/>
			
				<linearGradient id="SVGID_17_" gradientUnits="userSpaceOnUse" x1="2766.5891" y1="-35851.3125" x2="7814.3594" y2="-21161.8809" gradientTransform="matrix(2.834646e-02 0 0 -2.834646e-02 840.8323 417.3921)">
				<stop  offset="0" style="stop-color:#72A63B"/>
				<stop  offset="1" style="stop-color:#A5CC42"/>
			</linearGradient>
			<path class="st27" d="M1002.3,1517.1c5.9-27.1,14.8-67,17.7-72.7c4.4-8.7-53.6-25.5-53.6-25.5s-0.9-42.4,15.6-44.9
				c16.5-2.5,36.5,8.1,36.5,8.1s51.4-69.2,46.4-77.6c-5-8.4-58-26.2-58-26.2s6.5-38.3,12.5-38.3c5.9,0,34.9,5,34.9,5
				s11.2-113.4,20.9-128.4c9.7-15,24.6-8.1,24.6-8.1s-6.5-28.4-49.5-17.8c-43,10.6-102.2,50.8-128.4,87.6
				c-26.2,36.8-26.2,37.4-26.2,37.4s25.9,10.9,23.1,17.8c-2.8,6.9-15.9,35.2-15.9,35.2l-35.8-8.1c0,0-2.9,12.1-7,30.9
				c7.3,3.4,55.3-0.9,55.3-0.9l4.4,77.3c0,0-30.5,3.7-36.1,3.7s-5.6,25.6,0.6,33c6.2,7.5,49.2-0.6,49.2-0.6l12.5,118.9
				C963.4,1521.9,982.2,1520,1002.3,1517.1z M845,1517.4L845,1517.4c24.1,4.6,52.2,6.9,85,6.1C897.2,1524.4,869.1,1522,845,1517.4z
				 M930,1523.5c1.7,0,3.4-0.1,5.1-0.2C933.5,1523.4,931.7,1523.4,930,1523.5z M935.3,1523.3c1.7-0.1,3.3-0.1,5-0.2
				C938.7,1523.2,937,1523.3,935.3,1523.3z M940.8,1523.1c1.6-0.1,3.3-0.2,4.9-0.3C944.1,1522.9,942.4,1523,940.8,1523.1z"/>
			
				<linearGradient id="SVGID_18_" gradientUnits="userSpaceOnUse" x1="1988.6981" y1="-35584.0625" x2="7036.5625" y2="-20894.5352" gradientTransform="matrix(2.834646e-02 0 0 -2.834646e-02 840.8323 417.3921)">
				<stop  offset="0" style="stop-color:#8ABE53"/>
				<stop  offset="1" style="stop-color:#BDE45A"/>
			</linearGradient>
			<path class="st28" d="M917.6,1332.3l0.6,9.9l1.1,18.8c18.9-63.2,43.5-129.1,72.5-175.8C959.2,1230,935.7,1280.1,917.6,1332.3
				L917.6,1332.3z M917.2,1368.1l-0.1,0l-0.1,0l-0.1,0h0l-0.1,0l-0.1,0l-0.1,0l-0.1,0l-0.1,0l-0.1,0l-0.1,0l-0.1,0h0l-0.1,0l-0.1,0
				l-0.1,0l-0.1,0l-0.1,0l-0.2,0l-0.2,0l-0.2,0h0l-0.2,0l-0.2,0l-0.2,0l-0.1,0l-0.1,0l-0.2,0l-0.2,0l-0.5,0.1l-0.2,0l-0.1,0l-0.1,0
				l-0.2,0l-0.2,0l-0.4,0l-0.2,0l-0.2,0l-0.1,0l-0.1,0l-0.2,0l-0.2,0l-0.2,0l0,0l-0.2,0l-0.2,0l-1.2,0.1l-0.2,0l-0.2,0l-0.1,0
				l-0.1,0l-0.2,0l-0.2,0l-0.2,0l0,0l-0.2,0l-0.2,0l-0.2,0l-0.1,0l-0.1,0l-0.2,0l-0.2,0l-0.9,0.1l-0.1,0l-0.1,0l-0.2,0
				c-3.8,12.7-7.3,25.4-10.6,38.2l0.6,0l0.2,0c0.3,0,0.5,0,0.8,0l0.2,0c0.3,0,0.6,0,0.8,0l0.2,0l0.2,0l0.7,0h0h0.2l0.2,0l0.5,0
				l0.2,0l0.2,0l0.2,0l0.5,0l0.2,0l0.2,0l0.2,0l0.5,0l0.2,0l0.2,0l0.2,0l0.4,0l0.2,0l0.2,0l0.2,0l0.2,0l0.4,0l0.2,0l0.2,0l0.2,0
				l0.2,0l0.4,0l0.2,0l0.2,0l0.2,0l0.5,0l0.2,0l0.2,0C909.6,1394.6,913.3,1381.4,917.2,1368.1L917.2,1368.1z"/>
			
				<linearGradient id="SVGID_19_" gradientUnits="userSpaceOnUse" x1="-146.2731" y1="-37104.8477" x2="2096.1382" y2="-23518.3711" gradientTransform="matrix(2.834646e-02 0 0 -2.834646e-02 840.8323 417.3921)">
				<stop  offset="0" style="stop-color:#7BBD36"/>
				<stop  offset="1" style="stop-color:#BED527"/>
			</linearGradient>
			<path class="st29" d="M945.9,1522.8l-12.5-118.9c0,0-43,8.1-49.2,0.6c-6.2-7.5-6.2-33-0.6-33s36.1-3.7,36.1-3.7l-4.4-77.3
				c0,0-53.4,4.8-56.1,0.3c-2.6-4.5-1.4-50.5,0.8-52c2.2-1.6,37.1,1.2,37.1,1.2s-16.5-54.8-10.3-89.1c6.2-34.3,22.1-51.1,22.1-51.1
				s-23.4-11.2-55.2,6.5c-31.8,17.8-84.8,94.4-87.2,116.5C764,1245,764,1245,764,1245s29.3,6.5,30.5,9.7c1.2,3.1-4.1,47.1-8.7,47.1
				s-38.9-3.7-38.9-3.7s-0.9,85.1,3.4,87.2c4.4,2.2,31.2,3.4,31.2,3.4s5.3,29.3,0.9,31.2c-4.4,1.9-43.9-0.6-46.7,0.9
				c-1.4,0.8-0.4,21.7,1,43.2C769.1,1497.6,830.5,1529.3,945.9,1522.8L945.9,1522.8z"/>
			
				<linearGradient id="SVGID_20_" gradientUnits="userSpaceOnUse" x1="-800.6991" y1="-36996.8438" x2="1441.7643" y2="-23410.3672" gradientTransform="matrix(2.834646e-02 0 0 -2.834646e-02 840.8323 417.3921)">
				<stop  offset="0" style="stop-color:#95C753"/>
				<stop  offset="1" style="stop-color:#D3DF4C"/>
			</linearGradient>
			<path class="st30" d="M839.2,1516.3l0.2,0l0.2,0c0.9,0.2,1.9,0.4,2.8,0.6l0.2,0l0.2,0l0.8,0.2l0.2,0c0.7,0.1,1.4,0.3,2,0.4l0.2,0
				c0.7,0.1,1.4,0.3,2.1,0.4l1.2,0.2c0.9,0.2,1.9,0.3,2.8,0.5L839.2,1516.3z M826.2,1513.8c-3.5-8.5-4.8-18-9.2-42.1
				c-18-96.8-18.6-185.9,6.6-281.6c-18.2,90-12.8,189.6,3.9,279.6c5.6,30.2,5.8,36.4,11.8,46.5L826.2,1513.8z"/>
			
				<linearGradient id="SVGID_21_" gradientUnits="userSpaceOnUse" x1="33711.6562" y1="-32583.2109" x2="26748.6758" y2="-20523" gradientTransform="matrix(2.834646e-02 0 0 -2.834646e-02 840.8323 417.3921)">
				<stop  offset="0" style="stop-color:#6EBD00"/>
				<stop  offset="1" style="stop-color:#B1D25B"/>
			</linearGradient>
			<path class="st31" d="M1914.9,1315.1c-4.2-27.2-13.3-80.1-20.7-83.8c-10-5-59.2,18.1-67.3,12.5c-8.1-5.6-17.4-33.7-17.4-33.7
				s31.8-12.5,31.2-19.3c-0.6-6.9-29.9-80.4-46.7-79.8c-16.8,0.6-71.7,27.4-71.7,27.4s-24.9-44.2-19.9-47.4
				c5-3.1,29.3-13.1,29.3-13.1s-31.2-46.7-93.5-55.5c-62.3-8.7-110.9,20.6-110.9,20.6s15,4.4,19.9,12.5c5,8.1,49.9,109.7,54.8,109.7
				c5,0,30.2-22.4,34.6-20.6c4.4,1.9,20.9,38.3,19.6,41.4c-1.2,3.1-44.2,30.5-44.2,35.2c0,4.7,40.8,63.9,43.6,74.5
				c2.8,10.6,42.1-6.5,45.5-5.3c3.4,1.2,15,36.8,11.2,40.5c-3.7,3.7-45.2,20.6-45.2,24.3c0,2.9,12.6,51.9,18.1,73.2
				c43.3-5.3,82.3-16.3,122-40.1C1840.5,1368.3,1877.9,1344.4,1914.9,1315.1L1914.9,1315.1z"/>
			
				<linearGradient id="SVGID_22_" gradientUnits="userSpaceOnUse" x1="33862.9219" y1="-32495.8809" x2="26899.9902" y2="-20435.6699" gradientTransform="matrix(2.834646e-02 0 0 -2.834646e-02 840.8323 417.3921)">
				<stop  offset="0" style="stop-color:#95C753"/>
				<stop  offset="1" style="stop-color:#C6DA59"/>
			</linearGradient>
			<path class="st32" d="M1820.3,1380.3l0.1-0.1l0.1-0.1l0.3-0.2l0.1-0.1l0.1-0.1l0.1-0.1l0.1,0l0.1,0l0.1-0.1l0.6-0.4l0.1-0.1
				l0.1-0.1l0.1-0.1l0.1-0.1l0.1-0.1l0.1-0.1l0,0l0.1-0.1l0.1-0.1l0.1-0.1l0.1-0.1l0.1-0.1l0.1-0.1l0.1-0.1l0.1-0.1l0.1-0.1l0.1-0.1
				l0.1-0.1l0,0l0.1-0.1l0.1-0.1l0.1-0.1l0.1-0.1l0.7-0.4l0.1-0.1l0.1-0.1l0.1,0l0.1-0.1l0.9-0.5l0.1-0.1l0.1-0.1l0.1-0.1l0.1-0.1
				l0.1-0.1l0,0l0.1-0.1l0.1-0.1l0.1-0.1l0.1-0.1l0.1-0.1l0.1-0.1l0.1-0.1l0.1-0.1l0.1-0.1l0.1-0.1l0.1-0.1
				c-47.2-106.9-114.1-223.3-198.7-301C1702.2,1146.8,1775.8,1279.9,1820.3,1380.3L1820.3,1380.3z"/>
			<path class="st19" d="M1820.3,1380.3c3-1.9,6.1-3.8,9.2-5.7c-47.2-106.9-114.1-223.3-198.7-301
				C1702.2,1146.8,1775.8,1279.9,1820.3,1380.3z"/>
			
				<linearGradient id="SVGID_23_" gradientUnits="userSpaceOnUse" x1="28618.8027" y1="-33408.2891" x2="23554.7871" y2="-25296.6289" gradientTransform="matrix(2.834646e-02 0 0 -2.834646e-02 840.8323 417.3921)">
				<stop  offset="0" style="stop-color:#52B33E"/>
				<stop  offset="1" style="stop-color:#96C62D"/>
			</linearGradient>
			<path class="st33" d="M1678.2,1348c-0.5-11.8-2.8-28.7-10-49.2c-6.6,1-11.8,0.6-12.7-3c-2.8-10.6-43.6-69.8-43.6-74.5
				c0-1.1,2.2-3.3,5.6-6.1c-39.3-42.8-78.9-50.8-97.6-36.2c-22.4,17.4,0,47.4,35.5,79.8c35.5,32.4,78.7,111.1,80.5,173.6
				c17.1-0.8,33.4-1.9,49.1-3.9c-5.5-21.3-18.1-70.3-18.1-73.2C1667,1354,1671.8,1351.2,1678.2,1348L1678.2,1348z"/>
			
				<linearGradient id="SVGID_24_" gradientUnits="userSpaceOnUse" x1="28622.8984" y1="-33405.7305" x2="23558.8848" y2="-25294.0723" gradientTransform="matrix(2.834646e-02 0 0 -2.834646e-02 840.8323 417.3921)">
				<stop  offset="0" style="stop-color:#88BF50"/>
				<stop  offset="1" style="stop-color:#DBE798"/>
			</linearGradient>
			<path class="st34" d="M1663.4,1430.7L1663.4,1430.7l0.1,0l0.1,0l0.1,0l0.1,0l0.1,0l0.1,0l0.1,0l0.1,0l0,0l0,0l0.1,0l0.1,0l0.1,0
				l0.2,0l0.1,0l0.1,0l0.1,0l0.1,0h0l0.1,0l0.1,0l0.1,0l0.1,0l0.1,0l0.1,0l0.1,0l0.1,0l0.1,0l0.1,0l0,0l0,0l0.1,0l0.1,0l0.1,0l0.1,0
				l0.1,0l0.1,0l0.1,0l0.1,0l0.1,0l0,0l0.1,0l0.1,0l0.1,0l0.1,0l0.1,0l0.1,0l0.3,0l0.1,0l0.1,0l0.1,0l0.1,0l0.1,0l0.1,0l0.1,0l0.1,0
				l0.1,0l0,0l0,0l0.1,0l0.1,0c-0.4-13.8-4.1-97-29.6-136.4c-27.6-42.7-44-57.1-44-57.2c-1-0.9-2.5-0.8-3.3,0.2
				c-0.9,1-0.8,2.5,0.2,3.3c0,0,16,14.1,43.2,56.2C1659.5,1335,1663,1418,1663.4,1430.7L1663.4,1430.7z"/>
			<path class="st19" d="M1663.4,1430.7c1.6-0.1,3.1-0.3,4.7-0.4c-0.4-13.8-4.1-97-29.6-136.4c-27.6-42.7-44-57.1-44-57.2
				c-1-0.9-2.5-0.8-3.3,0.2c-0.9,1-0.8,2.5,0.2,3.3c0,0,16,14.1,43.2,56.2C1659.5,1335,1663,1418,1663.4,1430.7L1663.4,1430.7z"/>
			
				<linearGradient id="SVGID_25_" gradientUnits="userSpaceOnUse" x1="35087.9883" y1="-30916.3008" x2="34956.0781" y2="-23045.8613" gradientTransform="matrix(2.834646e-02 0 0 -2.834646e-02 840.8323 417.3921)">
				<stop  offset="0" style="stop-color:#ACED1F"/>
				<stop  offset="1" style="stop-color:#D2E06B"/>
			</linearGradient>
			<path class="st35" d="M1843.9,1365.5c0.5-38.9-0.3-146.2-23.3-226.8c-0.4-1.2,0.4-2.6,1.6-2.9c1.2-0.4,2.6,0.4,2.9,1.6
				c22.6,79,24,183.5,23.5,225C1847,1363.5,1845.4,1364.5,1843.9,1365.5L1843.9,1365.5z"/>
			
				<linearGradient id="SVGID_26_" gradientUnits="userSpaceOnUse" x1="36421.3047" y1="-30893.9492" x2="36289.3438" y2="-23023.5098" gradientTransform="matrix(2.834646e-02 0 0 -2.834646e-02 840.8323 417.3921)">
				<stop  offset="0" style="stop-color:#ACED1F"/>
				<stop  offset="1" style="stop-color:#D2E06B"/>
			</linearGradient>
			<path class="st36" d="M1854.9,1284.6c0,0,18.7-37.4,33-26.5C1902.2,1269,1862.1,1304.2,1854.9,1284.6z"/>
			
				<linearGradient id="SVGID_27_" gradientUnits="userSpaceOnUse" x1="34306.8906" y1="-30929.3379" x2="34175.0273" y2="-23059.4863" gradientTransform="matrix(2.834646e-02 0 0 -2.834646e-02 840.8323 417.3921)">
				<stop  offset="0" style="stop-color:#ACED1F"/>
				<stop  offset="1" style="stop-color:#D2E06B"/>
			</linearGradient>
			<path class="st37" d="M1834.6,1282.1c0,0-26.4-25-40.8-17.1C1779.4,1272.8,1833.1,1301.7,1834.6,1282.1z"/>
			
				<linearGradient id="SVGID_28_" gradientUnits="userSpaceOnUse" x1="36145.1836" y1="-30898.4863" x2="36013.2734" y2="-23028.1992" gradientTransform="matrix(2.834646e-02 0 0 -2.834646e-02 840.8323 417.3921)">
				<stop  offset="0" style="stop-color:#ACED1F"/>
				<stop  offset="1" style="stop-color:#D2E06B"/>
			</linearGradient>
			<path class="st38" d="M1845.2,1202.9c0,0,19.6-49.5,34-37.4C1893.5,1177.7,1849.9,1220.4,1845.2,1202.9z"/>
			
				<linearGradient id="SVGID_29_" gradientUnits="userSpaceOnUse" x1="34127.5625" y1="-30932.3965" x2="33995.6523" y2="-23061.957" gradientTransform="matrix(2.834646e-02 0 0 -2.834646e-02 840.8323 417.3921)">
				<stop  offset="0" style="stop-color:#ACED1F"/>
				<stop  offset="1" style="stop-color:#D2E06B"/>
			</linearGradient>
			<path class="st39" d="M1826.5,1202.3c0,0-29.3-29-38.6-15.3C1778.5,1200.7,1826.2,1217.6,1826.5,1202.3z"/>
			
				<linearGradient id="SVGID_30_" gradientUnits="userSpaceOnUse" x1="35519.3516" y1="-30908.9297" x2="35387.4375" y2="-23038.6309" gradientTransform="matrix(2.834646e-02 0 0 -2.834646e-02 840.8323 417.3921)">
				<stop  offset="0" style="stop-color:#ACED1F"/>
				<stop  offset="1" style="stop-color:#D2E06B"/>
			</linearGradient>
			<path class="st40" d="M1830.9,1135c0,0,4.4-41.8,22.1-34.6C1870.8,1107.6,1842.4,1146.2,1830.9,1135z"/>
			
				<linearGradient id="SVGID_31_" gradientUnits="userSpaceOnUse" x1="33820.8672" y1="-30937.5" x2="33688.9102" y2="-23067.1074" gradientTransform="matrix(2.834646e-02 0 0 -2.834646e-02 840.8323 417.3921)">
				<stop  offset="0" style="stop-color:#ACED1F"/>
				<stop  offset="1" style="stop-color:#D2E06B"/>
			</linearGradient>
			<path class="st41" d="M1814.1,1137.2c0,0-19-25.2-32.1-16.2C1768.9,1130,1812.5,1152.4,1814.1,1137.2z"/>
			
				<linearGradient id="SVGID_32_" gradientUnits="userSpaceOnUse" x1="21651.9004" y1="-14926.6582" x2="21651.9473" y2="-28601.6914" gradientTransform="matrix(2.834646e-02 0 0 -2.834646e-02 840.8323 417.3921)">
				<stop  offset="0" style="stop-color:#9C8BE8"/>
				<stop  offset="1" style="stop-color:#6468D1"/>
			</linearGradient>
			<path class="st42" d="M1676.5,702.5c0,0,48.1,0.9,46.9,52c-0.5,19.2,2.6,92.3-9.4,176.3c-41.9,5.3-54.5,31.2-54.5,31.2
				s26.2-10,43,12.5c1.1,1.4,2.1,2.9,3,4.6c-4.3,20.5-9.7,41.1-16.3,61.3c-13.7-8-30.8-15-51.3-17.9
				c-62.3-8.7-110.9,20.6-110.9,20.6s15,4.4,19.9,12.5c5,8.1,49.9,109.7,54.8,109.7c5,0,30.2-22.4,34.6-20.6
				c0.2,0.1,0.5,0.3,0.8,0.6c-12.9,17.6-27.8,33.5-44.9,47.1c-30.2-22.3-57.7-24.8-72.4-13.4c-15.1,11.8-9.9,29.2,6.1,49.2
				c-24.2,8-51.3,12.5-81.8,12.5c-147.6,0-221.5-18.8-258.5-38l110.6-9c0,0,35.7-2,70.6-109.5c0.2-0.6,0.4-1.3,0.6-1.9
				c0.4-1.2,0.8-2.4,1.2-3.7c0.3-0.9,0.6-1.8,0.9-2.7c0.3-0.9,0.6-1.9,0.9-2.8c0.4-1.2,0.7-2.5,1.1-3.7l0.6-2.1
				c0.4-1.5,0.9-3,1.3-4.6l0.4-1.5c0.5-1.8,1-3.6,1.5-5.4l0.2-0.9c0.6-2,1.1-4.1,1.7-6.2l0.1-0.4c0.6-2.2,1.2-4.5,1.7-6.7l0.1-0.3
				c0.6-2.3,1.2-4.7,1.8-7.1c38.6-157,52.3-254.3,52.3-254.3s19.9-67.3,101-72.3C1615.4,702.5,1676.5,702.5,1676.5,702.5
				L1676.5,702.5z"/>
			<path class="st8" d="M1212.4,1213.8c-10.5-3.6-19.3-7.4-26.6-11.2l110.6-9c0,0,35.7-2,70.6-109.5c0.2-0.6,0.4-1.3,0.6-1.9
				c0.4-1.2,0.8-2.4,1.2-3.7c0.3-0.9,0.6-1.8,0.9-2.7c0.3-0.9,0.6-1.9,0.9-2.8c0.4-1.2,0.7-2.5,1.1-3.7l0.6-2.1
				c0.4-1.5,0.9-3,1.3-4.6l0.4-1.5c0.5-1.8,1-3.6,1.5-5.4l0.2-0.9c0.6-2,1.1-4.1,1.7-6.2l0.1-0.4c0.6-2.2,1.2-4.5,1.7-6.7l0.1-0.3
				c0.6-2.3,1.2-4.7,1.8-7.1c38.6-157,52.3-254.3,52.3-254.3s5.6-18.8,22.8-37.3c-16.6,124.8-63,429.3-123,453.2
				C1300.1,1209,1253.9,1213.2,1212.4,1213.8z"/>
			<path class="st19" d="M1265.4,1340.3l43.1-106.5c-44.7-5.2-76.8-12.9-100-21.3l-15.4,39.4l-88.8-6.8l-17,27L1265.4,1340.3
				L1265.4,1340.3z"/>
			<path class="st8" d="M1018.5,1448.4c40.2-33.9,118.9-86.9,228.7-99.4c108-12.3,109.7-67.5,66.6-114.6c-1.8-0.2-3.6-0.4-5.4-0.6
				l-43.1,106.5l-178.1-68.3l-22.1,35c-2,15-46.7,75.1-46.7,75.1s-19.9-10.6-36.5-8.1c-16.5,2.5-15.6,44.9-15.6,44.9
				s58,16.8,53.6,25.5C1019.6,1445.2,1019.1,1446.5,1018.5,1448.4z M1104.2,1245.1l88.8,6.8l15.4-39.4c-8.8-3.2-16.3-6.5-22.7-9.9
				l-57.6,4.7L1104.2,1245.1L1104.2,1245.1z"/>
			<path class="st43" d="M660.9,569.4l615.7-114.7l-37.4-387.6l-658.1,97.2L660.9,569.4L660.9,569.4z"/>
			
				<linearGradient id="SVGID_33_" gradientUnits="userSpaceOnUse" x1="-5334.8862" y1="-4541.2852" x2="-8698.5293" y2="-2430.7324" gradientTransform="matrix(2.834646e-02 0 0 -2.834646e-02 840.8323 417.3921)">
				<stop  offset="0" style="stop-color:#AACE3A"/>
				<stop  offset="1" style="stop-color:#E0E66B"/>
			</linearGradient>
			<path class="st44" d="M598.7,485L703,466.2l18.8,104.3l-104.3,18.8L598.7,485z"/>
			<path class="st45" d="M674.2,222.1l97.5-13.5c4.6-0.6,8.9,2.6,9.5,7.2l0,0c0.6,4.6-2.6,8.9-7.2,9.5l-97.5,13.5
				c-4.6,0.6-8.9-2.6-9.5-7.2l0,0C666.4,227,669.6,222.8,674.2,222.1z"/>
			<path class="st45" d="M819.2,202l97.5-13.5c4.6-0.6,8.9,2.6,9.5,7.2l0,0c0.6,4.6-2.6,8.9-7.2,9.5l-97.5,13.5
				c-4.6,0.6-8.9-2.6-9.5-7.2l0,0C811.4,206.9,814.6,202.7,819.2,202z"/>
			<path class="st45" d="M947.5,184.3l60.1-8.3c2.8-0.4,5.7,3,6.3,7.6l0,0c0.6,4.6-1.1,8.7-4,9l-60.1,8.3c-2.8,0.4-5.7-3-6.3-7.6
				l0,0C942.9,188.7,944.7,184.7,947.5,184.3z"/>
			<path class="st45" d="M1047.4,170.4l134.2-18.6c6.3-0.9,12,2.1,12.6,6.7l0,0c0.6,4.6-4,9-10.3,9.9l-134.2,18.6
				c-6.3,0.9-12-2.1-12.6-6.7l0,0C1036.4,175.8,1041,171.3,1047.4,170.4z"/>
			<path class="st45" d="M825.4,246.5l97.5-13.5c4.6-0.6,8.9,2.6,9.5,7.2l0,0c0.6,4.6-2.6,8.9-7.2,9.5l-97.5,13.5
				c-4.6,0.6-8.9-2.6-9.5-7.2l0,0C817.6,251.4,820.8,247.1,825.4,246.5z"/>
			<path class="st45" d="M958.1,228.1l112.3-15.6c5.3-0.7,10.1,2.4,10.7,7l0,0c0.6,4.6-3.1,8.9-8.4,9.7l-112.3,15.6
				c-5.3,0.7-10.1-2.4-10.7-7l0,0C949.1,233.1,952.8,228.8,958.1,228.1z"/>
			<path class="st45" d="M1103,208l88.6-12.3c4.2-0.6,8.1,2.7,8.7,7.3l0,0c0.6,4.6-2.2,8.8-6.4,9.4l-88.6,12.3
				c-4.2,0.6-8.1-2.7-8.7-7.3l0,0C1096,212.8,1098.8,208.6,1103,208z"/>
			<path class="st45" d="M825.2,287.4l30-4.2c1.4-0.2,3.1,3.4,3.7,8l0,0c0.6,4.6,0,8.5-1.4,8.7l-30,4.2c-1.4,0.2-3.1-3.4-3.7-8l0,0
				C823.1,291.5,823.8,287.6,825.2,287.4z"/>
			<path class="st45" d="M882,279.5l131.3-18.2c6.2-0.9,11.7,2.2,12.4,6.8l0,0c0.6,4.6-3.9,9-10.1,9.9l-131.3,18.2
				c-6.2,0.9-11.7-2.2-12.4-6.8l0,0C871.3,284.8,875.8,280.4,882,279.5z"/>
			<path class="st45" d="M1059.1,255l134.2-18.6c6.3-0.9,12,2.1,12.6,6.7l0,0c0.6,4.6-4,9-10.3,9.9l-134.2,18.6
				c-6.3,0.9-12-2.1-12.6-6.7l0,0C1048.1,260.3,1052.8,255.9,1059.1,255z"/>
			<path class="st45" d="M692.7,355.8l97.5-13.5c4.6-0.6,8.9,2.6,9.5,7.2l0,0c0.6,4.6-2.6,8.9-7.2,9.5L695,372.4
				c-4.6,0.6-8.9-2.6-9.5-7.2l0,0C684.9,360.7,688.1,356.4,692.7,355.8z"/>
			<path class="st45" d="M837.8,335.7l97.5-13.5c4.6-0.6,8.9,2.6,9.5,7.2l0,0c0.6,4.6-2.6,8.9-7.2,9.5l-97.5,13.5
				c-4.6,0.6-8.9-2.6-9.5-7.2l0,0C829.9,340.6,833.2,336.3,837.8,335.7z"/>
			<path class="st45" d="M966,317.9l60.1-8.3c2.8-0.4,5.7,3,6.3,7.6l0,0c0.6,4.6-1.1,8.7-4,9l-60.1,8.3c-2.8,0.4-5.7-3-6.3-7.6l0,0
				C961.4,322.4,963.2,318.3,966,317.9z"/>
			<path class="st45" d="M1065.9,304.1l134.2-18.6c6.3-0.9,12,2.1,12.6,6.7l0,0c0.6,4.6-4,9-10.3,9.9l-134.2,18.6
				c-6.3,0.9-12-2.1-12.6-6.7l0,0C1054.9,309.4,1059.6,304.9,1065.9,304.1z"/>
			<path class="st45" d="M711.7,390.3l134.2-18.6c6.3-0.9,12,2.1,12.6,6.7l0,0c0.6,4.6-4,9-10.3,9.9L714,406.9
				c-6.3,0.9-12-2.1-12.6-6.7l0,0C700.7,395.6,705.3,391.2,711.7,390.3z"/>
			<path class="st46" d="M699.8,466.7l3.1-0.6l0.6,3.4l-81.1,118.8l-5,0.9l-0.3-1.6L699.8,466.7z"/>
			<path class="st46" d="M598.7,485l3.2-0.6l119.2,82.8l0.6,3.2l-3.3,0.6l-119.2-82.7L598.7,485L598.7,485z"/>
			
				<linearGradient id="SVGID_34_" gradientUnits="userSpaceOnUse" x1="15195.6426" y1="4470.5581" x2="9120" y2="3382.5974" gradientTransform="matrix(2.834646e-02 0 0 -2.834646e-02 840.8323 417.3921)">
				<stop  offset="0" style="stop-color:#AACE3A"/>
				<stop  offset="1" style="stop-color:#DFE56B"/>
			</linearGradient>
			<path class="st47" d="M1287.8,292.9c0.4,0.4,0.8,0.9,1.2,1.3l0,0l0,0c0.2,0.3,0.5,0.6,0.8,0.8l0,0l0,0c0.4,0.5,0.9,0.9,1.3,1.4
				l0,0c0.2,0.2,0.5,0.5,0.8,0.7l0,0l0,0c0.5,0.5,1,1,1.5,1.4l0,0l0,0c0.2,0.2,0.5,0.4,0.7,0.6l0,0l0,0c0.6,0.5,1.2,1,1.8,1.5l0,0
				l0,0c0.2,0.2,0.5,0.4,0.7,0.5c0.6,0.5,1.3,1,2,1.5c0.2,0.2,0.4,0.3,0.7,0.5L1287.8,292.9z M1290.6,294.8L1290.6,294.8
				c0.8,0.5,1.7,1,2.5,1.5l0,0l0.5,0.3l0,0c0.9,0.5,1.8,1,2.8,1.5l0,0l0.4,0.2l0,0c1,0.5,2,1,3.1,1.4l0.3,0.1l0,0
				c1.1,0.5,2.2,0.9,3.4,1.4l0.3,0.1c1.2,0.5,2.4,0.9,3.7,1.3l0,0l0.2,0.1c1.3,0.4,2.6,0.8,3.9,1.2l0,0l0.2,0L1290.6,294.8z
				 M1290.6,294.8c1.3,0.4,2.7,0.8,4.1,1.1l0,0l0.2,0c1.4,0.4,2.9,0.7,4.4,1l0.1,0h0c1.5,0.3,3.1,0.6,4.7,0.9c0,0-0.2,6.2-0.5,15.9
				l-197.2,25.7l-6.1-47l154.6-19.1L1290.6,294.8z"/>
			
				<linearGradient id="SVGID_35_" gradientUnits="userSpaceOnUse" x1="16751.4629" y1="3641.1047" x2="8794.4131" y2="2719.821" gradientTransform="matrix(2.834646e-02 0 0 -2.834646e-02 840.8323 417.3921)">
				<stop  offset="0" style="stop-color:#7BBD36"/>
				<stop  offset="1" style="stop-color:#9AC952"/>
			</linearGradient>
			<path class="st48" d="M1243.6,298.4l-21.1,49.8l-33.7,4.4l-33.1,4.3l22.3-50.4L1243.6,298.4L1243.6,298.4z"/>
			
				<linearGradient id="SVGID_36_" gradientUnits="userSpaceOnUse" x1="16746.7773" y1="3681.1602" x2="8789.8223" y2="2759.9282" gradientTransform="matrix(2.834646e-02 0 0 -2.834646e-02 840.8323 417.3921)">
				<stop  offset="0" style="stop-color:#7BBD36"/>
				<stop  offset="1" style="stop-color:#9AC952"/>
			</linearGradient>
			<path class="st49" d="M1339.1,317.4l-7,16.5l-66.7,8.7l22.1-50c9.5,11.5,25,20.7,49.4,24.8L1339.1,317.4L1339.1,317.4z"/>
			<path class="st50" d="M938.1,517.8l11.9,75.3l54.2-8.7l-9-77.2L938.1,517.8z"/>
			<path class="st50" d="M837.8,680.4c0,0,6.9-58.6,12.5-64.2c5.6-5.6,99.7-23.1,99.7-23.1l54.2-8.7c0,0,99.7-22.4,104.1-19.3
				c4.4,3.1,51.1,48,51.1,48l-38,6.9c0,0-26.2-28-31.2-28c-5,0-212.5,43.3-212.5,43.3l-5.9,40.2L837.8,680.4L837.8,680.4z"/>
			
				<linearGradient id="SVGID_37_" gradientUnits="userSpaceOnUse" x1="-11171.2598" y1="-14308.8076" x2="-8950.7666" y2="-14220.8848" gradientTransform="matrix(2.834646e-02 0 0 -2.834646e-02 840.8323 417.3921)">
				<stop  offset="0" style="stop-color:#FFFFFF"/>
				<stop  offset="1" style="stop-color:#B5C3FF"/>
			</linearGradient>
			<path class="st51" d="M494.2,806.3l33.7,81.6c0,0,27.4,6.9,55.5-2.5s39.3-18.7,39.3-18.7l-5-94.1c0,0-27.3-29.6-77.3-16.2
				C490.3,769.8,494.2,806.3,494.2,806.3z"/>
			
				<linearGradient id="SVGID_38_" gradientUnits="userSpaceOnUse" x1="-10246.1533" y1="-12406.6572" x2="-9412.2637" y2="-15518.7021" gradientTransform="matrix(2.834646e-02 0 0 -2.834646e-02 840.8323 417.3921)">
				<stop  offset="0" style="stop-color:#202F73"/>
				<stop  offset="1" style="stop-color:#15225C"/>
			</linearGradient>
			<path class="st52" d="M617.5,772.6c0,0-27.3-29.6-77.3-16.2c-49.9,13.4-46.1,49.9-46.1,49.9C513.1,832.8,617.1,813.4,617.5,772.6
				z"/>
			<path class="st43" d="M518.1,864.3c-12.8,8.9-33.7,26.7-29.2,44.8c6.9,27.6,93.2,20.3,134.6,0.3c40-19.2,48.1-60-2.1-65l1.2,22.3
				c0,0-11.2,9.3-39.3,18.7s-55.5,2.5-55.5,2.5L518.1,864.3L518.1,864.3z"/>
			<path class="st16" d="M564.8,925.3c21.5-2.8,43.2-8.4,58.7-15.9c11.2-5.4,19.8-12.4,25.4-19.9l-26.5-25.7l0.1,2.8
				c0,0-11.2,9.3-39.3,18.7s-55.5,2.5-55.5,2.5L564.8,925.3L564.8,925.3z"/>
			
				<linearGradient id="SVGID_39_" gradientUnits="userSpaceOnUse" x1="-7785.9297" y1="-13968.5381" x2="-6275.564" y2="-13782.3164" gradientTransform="matrix(2.834646e-02 0 0 -2.834646e-02 840.8323 417.3921)">
				<stop  offset="0" style="stop-color:#FFFFFF"/>
				<stop  offset="1" style="stop-color:#B5C3FF"/>
			</linearGradient>
			<path class="st53" d="M618.2,785c4.2-2.7,10.9-5.8,16.8-4.1c9.7,2.8,20.7,30.2,11.8,45.3c-8.9,15.1-15.9,18.9-25.5,18.2L621,838
				c2-0.5,4.7-1.3,8.2-2.7c10.8-4.4,18.2-12.2,15.6-29.3c-2.6-17.1-11.5-20.3-24.3-11.2c-0.6,0.4-1.2,0.8-1.7,1.1L618.2,785
				L618.2,785z"/>
			<path class="st54" d="M564.3,785.2c0,0-23.1-5.6-5-46.7c18.1-41.1,25.6-55.5,0-86.6c-25.6-31.2-34-95.1,33-136.5
				c67-41.4,360.2-101,433.7-200.7c73.5-99.7,132.3-177.6,217.6-201.6c40.6-11.4,88-27.1,126.4-40.3
				c-64.8-41.5-142.8-65.6-255.9-53.1C867.3,47.2,737.7,164.4,630.5,311.5c-69.8,95.8-229.6,130.3-335.2,224.7
				c21.6,47.6,48,85,78.9,90.2c89.7,15,135.1,48.1,148.3,89.7C535.7,757.7,537.5,785.2,564.3,785.2L564.3,785.2z"/>
			
				<linearGradient id="SVGID_40_" gradientUnits="userSpaceOnUse" x1="-8064.1836" y1="5598.9966" x2="-17099.8867" y2="3994.1167" gradientTransform="matrix(2.834646e-02 0 0 -2.834646e-02 840.8323 417.3921)">
				<stop  offset="0" style="stop-color:#AACE3A"/>
				<stop  offset="1" style="stop-color:#E9EB73"/>
			</linearGradient>
			<path class="st55" d="M386,263.6L676.6,218l9.9,62.8l-290.6,45.6L386,263.6L386,263.6z"/>
			
				<linearGradient id="SVGID_41_" gradientUnits="userSpaceOnUse" x1="12594.6826" y1="-27442.1914" x2="7889.9756" y2="-22517.6543" gradientTransform="matrix(2.834646e-02 0 0 -2.834646e-02 840.8323 417.3921)">
				<stop  offset="0" style="stop-color:#2F3A68"/>
				<stop  offset="1" style="stop-color:#544699"/>
			</linearGradient>
			<path class="st56" d="M1257.1,1034c0,0-121.5,31.9-179.6,55.3c18.7,4,22.2,19.2,22.2,19.2s-15-6.9-24.6,8.1
				c-9.7,15-20.9,128.4-20.9,128.4s-29-5-34.9-5c-5.9,0-12.5,38.3-12.5,38.3s53,17.8,58,26.2c0.3,0.6,0.4,1.4,0.3,2.5l22.1-35l17-27
				l23.9-37.8l57.6-4.7l110.6-9c0,0,34.8-1.9,69.3-105.5L1257.1,1034L1257.1,1034z"/>
			<path class="st57" d="M1308.5,1233.8c-42.2-4.9-73.3-12.1-96.1-20c-1.3-0.5-2.6-0.9-3.9-1.4l-15.4,39.4l-88.8-6.8l-17,27
				l178.1,68.3L1308.5,1233.8L1308.5,1233.8z"/>
			<path class="st58" d="M430.9,285.8c0.3,1.9,0.3,3.7,0.1,5.4c-0.2,1.6-0.6,3.1-1.2,4.3c-0.6,1.2-1.5,2.3-2.6,3
				c-1.1,0.8-2.4,1.3-4,1.5c-1.4,0.2-2.6,0.1-3.8-0.3c-1.2-0.4-2.2-1-3.1-2c-0.9-1-1.7-2.2-2.3-3.8c-0.6-1.6-1.1-3.5-1.4-5.7
				c-0.3-1.9-0.3-3.7-0.1-5.4c0.2-1.6,0.6-3.1,1.2-4.3c0.6-1.2,1.5-2.3,2.6-3c1.1-0.8,2.4-1.3,4-1.5c1.4-0.2,2.6-0.1,3.8,0.3
				c1.2,0.4,2.2,1,3.1,2c0.9,1,1.7,2.2,2.3,3.8C430.2,281.6,430.6,283.5,430.9,285.8L430.9,285.8z M427.6,286.3
				c-0.1-0.4-0.1-0.9-0.2-1.3c-0.1-0.4-0.2-0.8-0.3-1.3l-9.7,9.3c0.3,0.6,0.6,1.2,1,1.8c0.4,0.5,0.8,1,1.3,1.3
				c0.5,0.3,1,0.6,1.6,0.8c0.6,0.2,1.2,0.2,1.9,0.1c0.9-0.1,1.6-0.4,2.3-0.9c0.7-0.5,1.2-1.2,1.6-2.1c0.4-0.9,0.6-2,0.7-3.3
				C427.8,289.4,427.8,288,427.6,286.3L427.6,286.3z M416,287.6c0.1,0.4,0.1,0.8,0.2,1.2c0.1,0.4,0.1,0.8,0.2,1.2l9.7-9.3
				c-0.3-0.6-0.6-1.2-1-1.7c-0.4-0.5-0.8-0.9-1.2-1.3c-0.5-0.3-1-0.6-1.5-0.7c-0.6-0.1-1.2-0.2-1.8-0.1c-0.9,0.1-1.6,0.4-2.3,0.9
				c-0.7,0.5-1.2,1.2-1.6,2.1c-0.4,0.9-0.6,2-0.7,3.3C415.7,284.5,415.8,286,416,287.6L416,287.6z M477.5,292.6l-15.9,2.1l-0.4-3.1
				l6.5-0.8l-2.4-18.4l-5.6,4.1l-1.6-2.7l7.5-5.3l3-0.4l2.9,22.2l5.7-0.7L477.5,292.6L477.5,292.6z M522.3,273.9
				c0.3,1.9,0.3,3.7,0.1,5.4c-0.2,1.6-0.6,3.1-1.2,4.3c-0.6,1.2-1.5,2.3-2.6,3c-1.1,0.8-2.4,1.3-4,1.5c-1.4,0.2-2.6,0.1-3.8-0.3
				c-1.2-0.4-2.2-1-3.1-2c-0.9-1-1.7-2.2-2.3-3.8c-0.6-1.6-1.1-3.5-1.4-5.7c-0.3-1.9-0.3-3.7-0.1-5.4c0.2-1.6,0.6-3.1,1.2-4.3
				c0.6-1.2,1.5-2.3,2.6-3c1.1-0.8,2.4-1.3,4-1.5c1.4-0.2,2.6-0.1,3.8,0.3c1.2,0.4,2.2,1,3.1,2c0.9,1,1.7,2.2,2.3,3.8
				C521.5,269.8,522,271.7,522.3,273.9L522.3,273.9z M518.9,274.5c-0.1-0.4-0.1-0.9-0.2-1.3c-0.1-0.4-0.2-0.8-0.3-1.3l-9.7,9.3
				c0.3,0.6,0.6,1.2,1,1.8c0.4,0.5,0.8,1,1.3,1.3c0.5,0.3,1,0.6,1.6,0.8c0.6,0.2,1.2,0.2,1.9,0.1c0.9-0.1,1.6-0.4,2.3-0.9
				c0.7-0.5,1.2-1.2,1.6-2.1c0.4-0.9,0.6-2,0.7-3.3C519.2,277.6,519.1,276.1,518.9,274.5L518.9,274.5z M507.3,275.8
				c0.1,0.4,0.1,0.8,0.2,1.2c0.1,0.4,0.1,0.8,0.2,1.2l9.7-9.3c-0.3-0.6-0.6-1.2-1-1.7c-0.4-0.5-0.8-0.9-1.2-1.3
				c-0.5-0.3-1-0.6-1.5-0.7c-0.6-0.1-1.2-0.2-1.8-0.1c-0.9,0.1-1.6,0.4-2.3,0.9c-0.7,0.5-1.2,1.2-1.6,2.1c-0.4,0.9-0.6,2-0.7,3.3
				C507.1,272.7,507.1,274.1,507.3,275.8L507.3,275.8z M568.8,280.7l-15.9,2.1l-0.4-3.1l6.5-0.8l-2.4-18.4l-5.6,4.1l-1.6-2.7
				l7.5-5.3l3-0.4l2.9,22.2l5.7-0.7L568.8,280.7L568.8,280.7z M613.6,262.1c0.3,1.9,0.3,3.7,0.1,5.4c-0.2,1.6-0.6,3.1-1.2,4.3
				c-0.6,1.2-1.5,2.3-2.6,3c-1.1,0.8-2.4,1.3-4,1.5c-1.4,0.2-2.6,0.1-3.8-0.3c-1.2-0.4-2.2-1-3.1-2c-0.9-1-1.7-2.2-2.3-3.8
				c-0.6-1.6-1.1-3.5-1.4-5.7c-0.3-1.9-0.3-3.7-0.1-5.4c0.2-1.6,0.6-3.1,1.2-4.3c0.6-1.2,1.5-2.3,2.6-3c1.1-0.8,2.4-1.3,4-1.5
				c1.4-0.2,2.6-0.1,3.8,0.3c1.2,0.4,2.2,1,3.1,2c0.9,1,1.7,2.2,2.3,3.8C612.9,257.9,613.3,259.8,613.6,262.1L613.6,262.1z
				 M610.2,262.6c-0.1-0.4-0.1-0.9-0.2-1.3c-0.1-0.4-0.2-0.8-0.3-1.3l-9.7,9.3c0.3,0.6,0.6,1.2,1,1.8c0.4,0.5,0.8,1,1.3,1.3
				c0.5,0.3,1,0.6,1.6,0.8c0.6,0.2,1.2,0.2,1.9,0.1c0.9-0.1,1.6-0.4,2.3-0.9c0.7-0.5,1.2-1.2,1.6-2.1c0.4-0.9,0.6-2,0.7-3.3
				C610.5,265.7,610.4,264.3,610.2,262.6L610.2,262.6z M598.7,263.9c0.1,0.4,0.1,0.8,0.2,1.2c0.1,0.4,0.1,0.8,0.2,1.2l9.7-9.3
				c-0.3-0.6-0.6-1.2-1-1.7c-0.4-0.5-0.8-0.9-1.2-1.3c-0.5-0.3-1-0.6-1.5-0.7c-0.6-0.1-1.2-0.2-1.8-0.1c-0.9,0.1-1.6,0.4-2.3,0.9
				c-0.7,0.5-1.2,1.2-1.6,2.1c-0.4,0.9-0.6,2-0.7,3.3C598.4,260.8,598.4,262.3,598.7,263.9L598.7,263.9z M660.1,268.8l-15.9,2.1
				l-0.4-3.1l6.5-0.8l-2.4-18.4l-5.6,4.1l-1.6-2.7l7.5-5.3l3-0.4l2.9,22.2l5.7-0.7L660.1,268.8L660.1,268.8z"/>
			<path class="st26" d="M1336.4,333.3c-0.9,30.9-2.5,97.8-0.1,120.6c3.1,29.9,3.1,29.9,3.1,29.9l54.6,1l11.4,0.2l4.6-1.8l34.1-12.9
				l-7.4,10.4l-33.3,46.7l-0.5,11.1c0,0,42.7-19.6,135.5-23.4v-42.9V461h-47.4l-31.2-62.3c0,0,20.6-15,29.3-26.8
				c8.7-11.8,1.2-47.4-28-44.9c-29.3,2.5-38.6,46.1-38.6,46.1l-13.7-56.7l-69.8,0.9l-2.4,5.6
				C1336.6,325.6,1336.5,329.1,1336.4,333.3z"/>
			
				<linearGradient id="SVGID_42_" gradientUnits="userSpaceOnUse" x1="-3059.1655" y1="-35290.168" x2="-2927.2549" y2="-27419.6816" gradientTransform="matrix(2.834646e-02 0 0 -2.834646e-02 840.8323 417.3921)">
				<stop  offset="0" style="stop-color:#ACED1F"/>
				<stop  offset="1" style="stop-color:#E8FF82"/>
			</linearGradient>
			<path class="st59" d="M745.6,1472.5c0.1-47.6,3.2-139,23.4-209.7c0.4-1.2-0.4-2.6-1.6-2.9c-1.2-0.4-2.6,0.4-2.9,1.6
				c-19.8,69.2-23.3,157.8-23.6,206.7C742.4,1469.6,744,1471,745.6,1472.5L745.6,1472.5z"/>
			
				<linearGradient id="SVGID_43_" gradientUnits="userSpaceOnUse" x1="-4361.291" y1="-35268.2969" x2="-4229.3804" y2="-27398.1992" gradientTransform="matrix(2.834646e-02 0 0 -2.834646e-02 840.8323 417.3921)">
				<stop  offset="0" style="stop-color:#ACED1F"/>
				<stop  offset="1" style="stop-color:#E8FF82"/>
			</linearGradient>
			<path class="st60" d="M734.7,1408.5c0,0-18.7-37.4-33-26.5c-0.3,0.2-0.6,0.5-0.9,0.8c-0.1,3.1-0.3,6.1-0.5,9.3
				c0,0,0.1,1.3,0.5,3.6C707.8,1408.7,729.6,1422.5,734.7,1408.5L734.7,1408.5z"/>
			
				<linearGradient id="SVGID_44_" gradientUnits="userSpaceOnUse" x1="-2278.0916" y1="-35303.2617" x2="-2146.1812" y2="-27432.916" gradientTransform="matrix(2.834646e-02 0 0 -2.834646e-02 840.8323 417.3921)">
				<stop  offset="0" style="stop-color:#ACED1F"/>
				<stop  offset="1" style="stop-color:#E8FF82"/>
			</linearGradient>
			<path class="st61" d="M754.9,1406c0,0,26.4-25,40.8-17.1C810.2,1396.8,756.5,1425.7,754.9,1406z"/>
			
				<linearGradient id="SVGID_45_" gradientUnits="userSpaceOnUse" x1="-4116.3877" y1="-35272.3555" x2="-3984.4773" y2="-27402.0098" gradientTransform="matrix(2.834646e-02 0 0 -2.834646e-02 840.8323 417.3921)">
				<stop  offset="0" style="stop-color:#ACED1F"/>
				<stop  offset="1" style="stop-color:#E8FF82"/>
			</linearGradient>
			<path class="st62" d="M744.3,1326.9c0,0-19.6-49.5-34-37.4C696,1301.7,739.7,1344.4,744.3,1326.9z"/>
			
				<linearGradient id="SVGID_46_" gradientUnits="userSpaceOnUse" x1="-2098.738" y1="-35306.2656" x2="-1966.8302" y2="-27435.8242" gradientTransform="matrix(2.834646e-02 0 0 -2.834646e-02 840.8323 417.3921)">
				<stop  offset="0" style="stop-color:#ACED1F"/>
				<stop  offset="1" style="stop-color:#E8FF82"/>
			</linearGradient>
			<path class="st63" d="M763.1,1326.3c0,0,29.3-29,38.6-15.3C811,1324.7,763.3,1341.5,763.1,1326.3z"/>
			
				<linearGradient id="SVGID_47_" gradientUnits="userSpaceOnUse" x1="-3490.5269" y1="-35282.9883" x2="-3358.6165" y2="-27412.4043" gradientTransform="matrix(2.834646e-02 0 0 -2.834646e-02 840.8323 417.3921)">
				<stop  offset="0" style="stop-color:#ACED1F"/>
				<stop  offset="1" style="stop-color:#E8FF82"/>
			</linearGradient>
			<path class="st64" d="M758.7,1259c0,0-4.4-41.8-22.1-34.6C718.8,1231.6,747.1,1270.2,758.7,1259z"/>
			
				<linearGradient id="SVGID_48_" gradientUnits="userSpaceOnUse" x1="-1792.0062" y1="-35311.0195" x2="-1660.098" y2="-27441.0625" gradientTransform="matrix(2.834646e-02 0 0 -2.834646e-02 840.8323 417.3921)">
				<stop  offset="0" style="stop-color:#ACED1F"/>
				<stop  offset="1" style="stop-color:#E8FF82"/>
			</linearGradient>
			<path class="st65" d="M775.5,1261.2c0,0,19-25.2,32.1-16.2C820.7,1254,777.1,1276.4,775.5,1261.2z"/>
			<path class="st66" d="M655.4,876.8c-0.5,13-9.1,32.7-51.6,44.1c-67.2,18-102,4.1-106.8-1.6l0,0c23.8,14.9,91.3,7.1,126.5-9.9
				C640.9,901,652.2,888.6,655.4,876.8z"/>
		</g>
	</g>
</g>
</svg>
