<?xml version="1.0" encoding="utf-8"?>
<!-- Generator: Adobe Illustrator 24.1.0, SVG Export Plug-In . SVG Version: 6.00 Build 0)  -->
<svg version="1.1" id="Capa_1" xmlns="http://www.w3.org/2000/svg" xmlns:xlink="http://www.w3.org/1999/xlink" x="0px" y="0px"
	 viewBox="0 0 5000 3575.6" style="enable-background:new 0 0 5000 3575.6;" xml:space="preserve">
<style type="text/css">
	.st0{opacity:0.42;fill:#FE7101;enable-background:new    ;}
	.st1{opacity:0.8;fill:#F32735;enable-background:new    ;}
	.st2{fill:#514F4F;}
	.st3{fill:#3F3F3F;}
	.st4{fill:#353535;}
	.st5{fill:#C23825;}
	.st6{fill:#7C7C7C;}
	.st7{fill:#E01B07;}
	.st8{fill:#C12000;}
	.st9{fill:#771704;}
	.st10{fill:#D4DFF1;}
	.st11{fill:#EAF1F8;}
	.st12{fill:#CCE2F2;}
	.st13{opacity:0.58;}
	.st14{fill:#BCD5E4;}
	.st15{fill:#BCD6EF;}
	.st16{fill:#8DB0DC;}
	.st17{fill:#5077BA;}
	.st18{fill:#FFD375;}
	.st19{opacity:0.25;fill:#0B65AE;}
	.st20{fill:#6D87A9;}
	.st21{opacity:0.71;fill:#C6D2EB;}
	.st22{fill:#FAC2AE;}
	.st23{fill:#F1A080;}
	.st24{fill:#2D2E75;}
	.st25{fill:#211F5E;}
	.st26{fill:#E6515B;}
	.st27{fill:#B03E45;}
	.st28{fill:#242258;}
	.st29{fill:#D6EAF8;}
	.st30{fill:#BADCEC;}
	.st31{fill:#232F63;}
	.st32{fill:#A7C7D2;}
	.st33{fill:#92A9B6;}
	.st34{fill:#DEF2FC;}
	.st35{fill:#1D2024;}
	.st36{fill:#FFFFFF;}
	.st37{fill:#C5AED3;}
	.st38{fill:#7457A3;}
	.st39{fill:#5CC1A4;}
	.st40{opacity:0.52;fill:#FFFFFF;}
	.st41{fill:#C3E1EA;}
	.st42{fill:#D6DFF1;}
</style>
<path class="st0" d="M209.6-69.2H60.1c-3.7,0-6.6-3-6.6-6.6v-149.5c0-3.7,3-6.6,6.6-6.6h149.5c3.7,0,6.6,3,6.6,6.6v149.5
	C216.3-72.2,213.3-69.2,209.6-69.2z"/>
<path class="st1" d="M460.9-69.2H311.4c-3.7,0-6.6-3-6.6-6.6v-149.5c0-3.7,3-6.6,6.6-6.6h149.5c3.7,0,6.6,3,6.6,6.6v149.5
	C467.5-72.2,464.5-69.2,460.9-69.2z"/>
<path class="st2" d="M724-69.2H574.6c-3.7,0-6.6-3-6.6-6.6v-149.5c0-3.7,3-6.6,6.6-6.6H724c3.7,0,6.6,3,6.6,6.6v149.5
	C730.7-72.2,727.7-69.2,724-69.2z"/>
<path class="st3" d="M988.1-69.2H838.7c-3.7,0-6.6-3-6.6-6.6v-149.5c0-3.7,3-6.6,6.6-6.6h149.5c3.7,0,6.6,3,6.6,6.6v149.5
	C994.8-72.2,991.8-69.2,988.1-69.2z"/>
<path class="st4" d="M1231.7-69.2h-149.5c-3.7,0-6.6-3-6.6-6.6v-149.5c0-3.7,3-6.6,6.6-6.6h149.5c3.7,0,6.6,3,6.6,6.6v149.5
	C1238.3-72.2,1235.3-69.2,1231.7-69.2z"/>
<rect x="3754.5" y="-232" class="st5" width="162.8" height="162.8"/>
<rect x="4005.7" y="-232" class="st2" width="162.8" height="162.8"/>
<rect x="4268.9" y="-232" class="st3" width="162.8" height="162.8"/>
<rect x="2981.9" y="-232" class="st0" width="162.8" height="162.8"/>
<rect x="3233.2" y="-232" class="st6" width="162.8" height="162.8"/>
<rect x="3496.3" y="-232" class="st6" width="162.8" height="162.8"/>
<rect x="4533" y="-232" class="st4" width="162.8" height="162.8"/>
<rect x="4776.5" y="-232" class="st4" width="162.8" height="162.8"/>
<rect x="3747.2" y="-485.5" class="st5" width="162.8" height="162.8"/>
<rect x="3998.5" y="-485.5" class="st2" width="162.8" height="162.8"/>
<rect x="4261.7" y="-485.5" class="st3" width="162.8" height="162.8"/>
<rect x="2974.7" y="-485.5" class="st0" width="162.8" height="162.8"/>
<rect x="3225.9" y="-485.5" class="st6" width="162.8" height="162.8"/>
<rect x="3489.1" y="-485.5" class="st6" width="162.8" height="162.8"/>
<rect x="4525.8" y="-485.5" class="st4" width="162.8" height="162.8"/>
<rect x="4769.3" y="-485.5" class="st4" width="162.8" height="162.8"/>
<path class="st0" d="M209.6-322.7H60.1c-3.7,0-6.6-3-6.6-6.6v-149.5c0-3.7,3-6.6,6.6-6.6h149.5c3.7,0,6.6,3,6.6,6.6v149.5
	C216.3-325.7,213.3-322.7,209.6-322.7z"/>
<path class="st5" d="M460.9-322.7H311.4c-3.7,0-6.6-3-6.6-6.6v-149.5c0-3.7,3-6.6,6.6-6.6h149.5c3.7,0,6.6,3,6.6,6.6v149.5
	C467.5-325.7,464.5-322.7,460.9-322.7z"/>
<path class="st7" d="M724-322.7H574.6c-3.7,0-6.6-3-6.6-6.6v-149.5c0-3.7,3-6.6,6.6-6.6H724c3.7,0,6.6,3,6.6,6.6v149.5
	C730.7-325.7,727.7-322.7,724-322.7z"/>
<path class="st8" d="M988.1-322.7H838.7c-3.7,0-6.6-3-6.6-6.6v-149.5c0-3.7,3-6.6,6.6-6.6h149.5c3.7,0,6.6,3,6.6,6.6v149.5
	C994.8-325.7,991.8-322.7,988.1-322.7z"/>
<path class="st9" d="M1231.7-322.7h-149.5c-3.7,0-6.6-3-6.6-6.6v-149.5c0-3.7,3-6.6,6.6-6.6h149.5c3.7,0,6.6,3,6.6,6.6v149.5
	C1238.3-325.7,1235.3-322.7,1231.7-322.7z"/>
<g>
	<g>
		<rect x="339.2" y="3178" class="st10" width="4422.1" height="32.3"/>
		<path class="st11" d="M508.5,3178h4055.7c0,0,595.6-1644.3-50.9-1988.8C3935.3,881.2,4147-31.4,3333.9,74S2471,488.1,1653.1,423.7
			C437.3,328-309.9,1176.1,400,2347.9C579.3,2643.9,593.4,2944.1,508.5,3178z"/>
		<g>
			<g>
				<path class="st12" d="M804.9,2944c0,4.7-17.8,8.5-39.7,8.5c-21.9,0-39.7-3.8-39.7-8.5c0-4.7,17.8-8.5,39.7-8.5
					C787.1,2935.5,804.9,2939.3,804.9,2944z"/>
				<path class="st12" d="M804.9,3186.6c0,4.7-17.8,8.5-39.7,8.5c-21.9,0-39.7-3.8-39.7-8.5c0-4.7,17.8-8.5,39.7-8.5
					C787.1,3178,804.9,3181.9,804.9,3186.6z"/>
				<rect x="725.4" y="2944" class="st12" width="79.4" height="242.6"/>
			</g>
			<g>
				<path class="st12" d="M765.6,2968l-2.6,0c0-1.2,0.8-120.1-26.2-193.1l2.3-1.5C766.5,2847.1,765.7,2966.8,765.6,2968z"/>
			</g>
			<path class="st12" d="M728.4,2710.8l13.9-12.3c-4.8-15.9-11.9-33-22.2-51h-6.9l3-6.5c-7.1-11.6-15.6-23.6-25.6-35.7
				c0,0,1.2,29.9,6.9,66.7h10.9l-10,6c1.3,7.9,2.8,16.1,4.5,24.3l12.9-3.2l-11,12c8.3,35.9,21.1,71,41.1,87.6
				c0,0,12.4-36.7-0.8-89.9L728.4,2710.8z"/>
			<g>
				<path class="st12" d="M765.4,2977.8c0-1.4-1-145.8,32-234.7l2.3,1.5c-32.7,88.2-31.7,231.8-31.7,233.2L765.4,2977.8z"/>
			</g>
			<path class="st12" d="M810,2667.3l-16.7-14.8c5.8-19.2,14.4-39.9,26.8-61.5h8.3l-3.7-7.8c8.6-14,18.8-28.4,31-43
				c0,0-1.5,36.1-8.3,80.5h-13.2l12.1,7.2c-1.6,9.6-3.4,19.4-5.4,29.3l-15.6-3.8l13.3,14.5c-10,43.3-25.5,85.7-49.6,105.7
				c0,0-15-44.3,1-108.5L810,2667.3z"/>
		</g>
		<g class="st13">
			<g>
				<g>
					<path class="st12" d="M1223.5,2596.5l44.7,577.6c0,0,395.5,3.6,394.6-2.5c-0.9-6.1,12.2-590.1,12.2-590.1L1223.5,2596.5z"/>
				</g>
				<g>
					<polyline class="st14" points="1223.5,2630.2 1678.8,2630.2 1675,2679.3 1223.5,2630.2 					"/>
				</g>
				<g>
					<polygon class="st12" points="1113.7,2529 3125.7,2529 3125.7,2590.1 1113.7,2630.2 					"/>
				</g>
				<g>
					<g>
						<g>
							<g>
								<g>
									<polygon class="st12" points="2838.4,2591.7 2814.5,3178.2 2781.6,3179 2769.6,2591.7 									"/>
								</g>
							</g>
						</g>
					</g>
				</g>
			</g>
			<g>
				<path class="st14" d="M1237.7,2802.4c0,0.5,430.2,23.1,430.2,23.1l-0.5,18.5l-428.2-20.8L1237.7,2802.4z"/>
			</g>
			<g>
				<polygon class="st14" points="1252.2,3013.6 1662.8,3004.1 1662.2,3024.5 1253,3024.5 				"/>
			</g>
			<g>
				<path class="st14" d="M1496.9,2734.4H1418c-4.9,0-8.9-4-8.9-8.9l0,0c0-4.9,4-8.9,8.9-8.9h78.9c4.9,0,8.9,4,8.9,8.9l0,0
					C1505.9,2730.4,1501.9,2734.4,1496.9,2734.4z"/>
			</g>
			<g>
				<path class="st14" d="M1502.8,2931.2h-78.9c-4.9,0-8.9-4-8.9-8.9l0,0c0-4.9,4-8.9,8.9-8.9h78.9c4.9,0,8.9,4,8.9,8.9l0,0
					C1511.8,2927.1,1507.8,2931.2,1502.8,2931.2z"/>
			</g>
			<g>
				<path class="st14" d="M1502.8,3133h-78.9c-4.9,0-8.9-4-8.9-8.9l0,0c0-4.9,4-8.9,8.9-8.9h78.9c4.9,0,8.9,4,8.9,8.9l0,0
					C1511.8,3129,1507.8,3133,1502.8,3133z"/>
			</g>
		</g>
	</g>
	<g>
		<g>
			<rect x="1151.4" y="1203.8" class="st15" width="552.5" height="407.3"/>
			<rect x="1151.4" y="1203.8" class="st16" width="552.5" height="41.4"/>
			<g>
				<path class="st17" d="M1204.3,1224.7c0,4-3.3,7.2-7.3,7.2c-4,0-7.3-3.2-7.3-7.2c0-4,3.3-7.2,7.3-7.2
					C1201,1217.5,1204.3,1220.7,1204.3,1224.7z"/>
				<path class="st18" d="M1227.5,1224.7c0,4-3.3,7.2-7.3,7.2s-7.3-3.2-7.3-7.2c0-4,3.3-7.2,7.3-7.2S1227.5,1220.7,1227.5,1224.7z"
					/>
				<path class="st17" d="M1250.8,1224.7c0,4-3.3,7.2-7.3,7.2c-4,0-7.3-3.2-7.3-7.2c0-4,3.3-7.2,7.3-7.2
					C1247.5,1217.5,1250.8,1220.7,1250.8,1224.7z"/>
			</g>
			<g>
				<g>
					<rect x="1534.5" y="1360.6" class="st19" width="64.3" height="88.4"/>
					<rect x="1245.4" y="1312.8" class="st19" width="353.4" height="30"/>
					<rect x="1248.3" y="1360.6" class="st19" width="273.3" height="14.4"/>
					<rect x="1248.3" y="1397.6" class="st19" width="273.3" height="14.4"/>
					<rect x="1248.3" y="1434.6" class="st19" width="273.3" height="14.4"/>
					<rect x="1248.3" y="1471.6" class="st19" width="351.9" height="14.4"/>
					<rect x="1248.3" y="1508.7" class="st19" width="351.9" height="14.4"/>
				</g>
			</g>
		</g>
		<g>
			<g>
				<path class="st20" d="M3265,2014.2h-0.7c-8.4,0-15.7-5.3-18.5-13.2c-1.1-3-2.3-5.9-3.6-8.8c-3.5-7.6-2.1-16.5,3.8-22.4l0.5-0.5
					c7.7-7.7,7.7-20.1,0-27.8l-12.9-12.9c-7.7-7.7-20.1-7.7-27.8,0l-0.5,0.5c-5.9,5.9-14.9,7.3-22.4,3.8c-2.9-1.3-5.8-2.5-8.8-3.6
					c-7.8-2.9-13.2-10.2-13.2-18.5v-0.7c0-10.8-8.8-19.6-19.6-19.6H3123c-10.8,0-19.6,8.8-19.6,19.6v0.7c0,8.4-5.3,15.7-13.2,18.5
					c-3,1.1-5.9,2.3-8.8,3.6c-7.6,3.5-16.5,2.1-22.4-3.8l-0.5-0.5c-7.7-7.7-20.1-7.7-27.8,0l-12.9,12.9c-7.7,7.7-7.7,20.1,0,27.8
					l0.5,0.5c5.9,5.9,7.3,14.9,3.8,22.4c-1.3,2.9-2.5,5.8-3.6,8.8c-2.9,7.8-10.2,13.2-18.5,13.2h-0.7c-10.8,0-19.6,8.8-19.6,19.6
					v18.3c0,10.8,8.8,19.6,19.6,19.6h0.7c8.4,0,15.7,5.3,18.5,13.2c1.1,3,2.3,5.9,3.6,8.8c3.5,7.6,2.1,16.5-3.8,22.4l-0.5,0.5
					c-7.7,7.7-7.7,20.1,0,27.8l12.9,12.9c7.7,7.7,20.1,7.7,27.8,0l0.5-0.5c5.9-5.9,14.9-7.3,22.4-3.8c2.9,1.3,5.8,2.5,8.8,3.6
					c7.8,2.9,13.2,10.2,13.2,18.5v0.7c0,10.8,8.8,19.6,19.6,19.6h18.3c10.8,0,19.6-8.8,19.6-19.6v-0.7c0-8.4,5.3-15.7,13.2-18.5
					c3-1.1,5.9-2.3,8.8-3.6c7.6-3.5,16.5-2.1,22.4,3.8l0.5,0.5c7.7,7.7,20.1,7.7,27.8,0l12.9-12.9c7.7-7.7,7.7-20.1,0-27.8l-0.5-0.5
					c-5.9-5.9-7.3-14.9-3.8-22.4c1.3-2.9,2.5-5.8,3.6-8.8c2.9-7.8,10.2-13.2,18.5-13.2h0.7c10.8,0,19.6-8.8,19.6-19.6v-18.3
					C3284.7,2023,3275.9,2014.2,3265,2014.2z M3132.1,2122.3c-43.8,0-79.3-35.5-79.3-79.3s35.5-79.3,79.3-79.3
					c43.8,0,79.3,35.5,79.3,79.3S3175.9,2122.3,3132.1,2122.3z"/>
			</g>
			<g>
				<path class="st16" d="M3332.1,1999.7h-1c-12.6,0-23.6-8-27.9-19.8c-1.7-4.5-3.5-8.9-5.5-13.2c-5.3-11.4-3.2-24.9,5.7-33.8
					l0.7-0.7c11.5-11.5,11.5-30.2,0-41.8l-19.4-19.4c-11.5-11.5-30.2-11.5-41.8,0l-0.7,0.7c-8.9,8.9-22.3,11-33.8,5.7
					c-4.3-2-8.7-3.8-13.2-5.5c-11.8-4.3-19.8-15.3-19.8-27.9v-1c0-16.3-13.2-29.5-29.5-29.5h-27.5c-16.3,0-29.5,13.2-29.5,29.5v1
					c0,12.6-8,23.6-19.8,27.9c-4.5,1.7-8.9,3.5-13.2,5.5c-11.4,5.3-24.9,3.2-33.8-5.7l-0.7-0.7c-11.5-11.5-30.2-11.5-41.8,0
					l-19.4,19.4c-11.5,11.5-11.5,30.2,0,41.8l0.7,0.7c8.9,8.9,11,22.3,5.7,33.8c-2,4.3-3.8,8.7-5.5,13.2
					c-4.3,11.8-15.3,19.8-27.9,19.8h-1c-16.3,0-29.5,13.2-29.5,29.5v27.5c0,16.3,13.2,29.5,29.5,29.5h1c12.6,0,23.6,8,27.9,19.8
					c1.7,4.5,3.5,8.9,5.5,13.2c5.3,11.4,3.2,24.9-5.7,33.8l-0.7,0.7c-11.5,11.5-11.5,30.2,0,41.8l19.4,19.4
					c11.5,11.5,30.2,11.5,41.8,0l0.7-0.7c8.9-8.9,22.3-11,33.8-5.7c4.3,2,8.7,3.8,13.2,5.5c11.8,4.3,19.8,15.3,19.8,27.9v1
					c0,16.3,13.2,29.5,29.5,29.5h27.5c16.3,0,29.5-13.2,29.5-29.5v-1c0-12.6,8-23.6,19.8-27.9c4.5-1.7,8.9-3.5,13.2-5.5
					c11.4-5.3,24.9-3.2,33.8,5.7l0.7,0.7c11.5,11.5,30.2,11.5,41.8,0l19.4-19.4c11.5-11.5,11.5-30.2,0-41.8l-0.7-0.7
					c-8.9-8.9-11-22.3-5.7-33.8c2-4.3,3.8-8.7,5.5-13.2c4.3-11.8,15.3-19.8,27.9-19.8h1c16.3,0,29.5-13.2,29.5-29.5v-27.5
					C3361.6,2012.9,3348.4,1999.7,3332.1,1999.7z M3132.1,2162.4c-65.9,0-119.4-53.4-119.4-119.4s53.4-119.4,119.4-119.4
					c65.9,0,119.4,53.4,119.4,119.4S3198,2162.4,3132.1,2162.4z"/>
			</g>
		</g>
		<g>
			<ellipse class="st21" cx="3846.1" cy="3412" rx="624.8" ry="79.2"/>
			<path class="st22" d="M4066.5,2217.7c0,0,24.6,111.1,23.7,123c-0.9,11.8-63.3,174.9-63.3,174.9l-22.3-169.4l10.3-128.4H4066.5z"
				/>
			<path class="st23" d="M4029.5,2217.7c0,0,23.3,108.4,17.9,122.1c-5.5,13.7-32.5,127.5-32.5,127.5L4029.5,2217.7z"/>
			<path class="st22" d="M3603.5,1991.6c0,0-71.6,151.8-71.6,300.9c0,0,5.7,120.9,119.4-59.8l-22-98.3c0,0,15-91.5,16.2-141.8
				c0.2-10.7,5.5-20.6,14.2-26.9c9.9-7.1,23.5-19.1,35.8-37.2c23.1-34,32.2-27.3,32.2-27.3s-1.8-23.7-51.6,7.3
				c0,0-10.3,12.4-7.3-15.9l1.2-16.8c0,0,17.3-8.8,19.4-15.5c2.1-6.7,24-2.4,34.3-9.4c0,0,10.9-3.6,7.6-9.1
				c-3.3-5.5-25.2-0.6-37.3-5.8c-12.1-5.2-64.7,20-64.7,20s-17.3,8.2-17.3,54.9S3610.5,1966.9,3603.5,1991.6z"/>
			<path class="st23" d="M3605,2217.7c0,0,29.6,33.6-7.3,87.9c0,0,44.6-53.5,51.7-70.4L3605,2217.7z"/>
			<path class="st23" d="M3637.2,2094.6c0,0-46.7,45-70.8,133.3l-6.3,30l29-46.9c0,0,45.1-81.6,45.6-82.8
				C3635.1,2127,3637.2,2094.6,3637.2,2094.6z"/>
			<path class="st24" d="M4021.6,1677.7c0,0,84.4-16.4,71,66.8c-13.4,83.2-96.5,159.7-10.3,213.1s187-65.6,130.5-180.9
				c-56.5-115.4-145.7-165.2-197.9-107.5L4021.6,1677.7z"/>
			<path class="st22" d="M3769.6,1589.1c0,0-23.1,26.7-42.5,69.2c-19.4,42.5-40.1,52.2-40.1,52.2s19.4,17,27.9,17
				c0,0-13.4,40.1,0,81.4c13.4,41.3,75.3-1.7,92.3,36.2c0,0,25.3,102.3-23.8,118s106.3,7.3,106.3,7.3s-23.1-59.5,4.9-94.7
				s46.1-110.5,46.1-110.5l-25-125.7L3769.6,1589.1z"/>
			<path class="st23" d="M3793.9,1613.6c0,0,90.6,13.7,82.3,102.6C3876.2,1716.2,3920.8,1609.6,3793.9,1613.6z"/>
			<path class="st23" d="M3807.3,1939.3c0,0,54.7,22.7,75.1,1.7l7.6,36.6l-98.4-6.8l7.1-15.3L3807.3,1939.3z"/>
			<path class="st23" d="M3921.9,1748.7c0,0-34.5,24.3-39.1,44.3c-4.6,20-13.1,54,11.8,82.6l35-43.7L3921.9,1748.7z"/>
			<g>
				<path class="st22" d="M3973,3347.6c0,0,104.3-27.8,108.6-47.9c4.4-20.7-18.4-61-20.3-61l64.9-31.6c0,0,9.1,62.5,7.6,89.1
					c-1.6,29.5-2.7,55.4-14.7,62.5c-22.7,13.5-146.1,26.6-146.1,26.6V3347.6z"/>
				<path class="st24" d="M3924.1,3381.9c-3.2-7.9-2.8-19,1.5-21c5.9-2.8,27-12.4,38.9-15.7c11.9-3.3,30.3-4.9,23.6-2.6
					c-6.7,2.4,3.1,16.9,13.6,18c36.5,3.8,66.5-15.9,87.9-17.7c30.8-2.5,42.1-35.7,44.2-41.2c5.1,4.5,20.3,35,21.8,44.4
					c1.3,8.5,3.6,23.9,0.2,31.9c-2.4,5.5-7.5,16.6-7.4,29.2c0,0-6.5,3.5-22.5,4.2c-10.1,0.4-23.1-3.5-23.1-3.5v-19.2
					c0,0-8.1-1.7-18.7-1.2c-10.6,0.4-23.7,6.1-30.1,11.1c-5,4-10.3,10.6-16.2,12.2c-17.1,4.5-29.4,5.8-48,3.8
					C3950.7,3410.5,3929.6,3395.5,3924.1,3381.9z"/>
				<path class="st23" d="M4077.4,3267l3.6,17.1c0,0,35.6,13.5,52.9-13.4l-3.2-21.4L4077.4,3267z"/>
			</g>
			<path class="st24" d="M3846.1,2424.5c0,0,55.3,417.1,69.5,490c14.3,72.9,146.3,296.6,143.6,356.1c0,0,56.4,17.3,81.9-20.9
				c0,0-36.4-218.6-93.8-311.5c0,0,31.9-118.4-26.4-533.7L3846.1,2424.5z"/>
			<g>
				<path class="st22" d="M3594.3,3391.7c0,0,97.2-31.7,101.8-54c4.7-23-4.9-67.2-6.9-67.1l82.3,0c0,0-4.6,21.2-6.2,50.7
					c-1.8,32.9,15.6,73.1,2.8,81.1c-24.3,15-173.8,31.3-173.8,31.3V3391.7z"/>
				<path class="st24" d="M3541.8,3429.9c-3.5-8.8-3-21.2,1.6-23.4c6.4-3.1,29-13.8,41.8-17.5c12.8-3.7,32.6-5.5,25.3-2.9
					c-7.2,2.6,3.3,18.8,14.7,20.1c39.2,4.2,71.5-17.7,94.4-19.7c33.1-2.8,45.2-39.7,47.5-45.8c5.5,5,21.9,39,23.4,49.4
					c1.4,9.4,3.8,26.6,0.2,35.5c-2.6,6.2-8,18.5-7.9,32.5c0,0-7,3.9-24.1,4.7c-10.9,0.5-24.8-3.9-24.8-3.9v-21.3
					c0,0-8.7-1.8-20.1-1.4c-11.4,0.5-25.5,6.8-32.3,12.4c-5.4,4.4-11.1,11.8-17.4,13.5c-18.4,5-31.6,6.4-51.5,4.2
					C3570.4,3461.7,3547.7,3445,3541.8,3429.9z"/>
				<path class="st23" d="M3696,3301.8l1.3,18.4c0,0,24.9,20.3,67.9,1.1v-31.1L3696,3301.8z"/>
			</g>
			<path class="st24" d="M3680.6,2434.2c0,0-24,416.5-28.8,482.1s28.8,389.9,28.8,389.9s55.3,18.4,101.7,0
				c0,0,47.8-251.5,16.6-373.6c0,0,141.9-357,112.7-553.7L3680.6,2434.2z"/>
			<path class="st25" d="M3680.6,2434.2c0,0-3.9,21.9,55,27.9c58.9,6.1,291.3-14,291.3-14l-4.1-35.2L3680.6,2434.2z"/>
			<path class="st25" d="M3880.2,2676.6l24.6-118.9c0,0,5,161-6.9,244.6L3880.2,2676.6z"/>
			<path class="st26" d="M3795.4,1946.1c0,0-54.6,19.4-77.7,25.5c-23.1,6.1-136,224.7-136,224.7s37.9,42.5,68.7,47.4l26-32.8
				c0,0,0,134.8-17,168.2c-17,33.4,6.1,72.3,48.6,67.4c42.5-4.9,314.7-22.9,314.7-22.9s22.9-11.1,11.9-60.9
				c-10.9-49.8-6.1-133.6-6.1-133.6s34,10.9,44.9-4.9l-52.2-233.2c0,0-8.5-20-38.6-20.5c-30.1-0.5-93.4-18.2-93.4-18.2
				s-34.3,18.2-61.8,8.2C3800.1,1950.5,3795.4,1946.1,3795.4,1946.1z"/>
			<path class="st27" d="M3677.3,2210.8c0,0,52.2-52.2,58.3-78.9c0,0-36.5,151.1-63.2,187.3L3677.3,2210.8z"/>
			<path class="st27" d="M4030.1,2113.6l-0.6,115.4c0,0,16.9,3.9,22.5,3.7L4030.1,2113.6z"/>
			<path class="st24" d="M4028.8,1657.7c-8.2-36.4-61.9-125.9-180.3-120.5c-118.4,5.5-92.3,70.7-92.3,70.7c6.9,7.6,8.1,0.8,72.3,9.7
				c43.7,6.1,45.4,43.2,51.3,45.5c6.9,23.7,6.8,57.5-10,71.5c-16.5,13.7,14.7-6,29.8-28.5c3.7,11.8,8.7,21.8,18.4,26.6
				c3.4,1.7,6,3.6,8.3,5.7c-1.5,2.4-49.1,77.5-39.4,110.3c0,0,0,0,0,0c2.2,14.6,7.8,26.8,7.8,26.8
				C4058,1838.6,4037.3,1695.3,4028.8,1657.7z"/>
			<path class="st22" d="M3882.8,1725.3c0,0,23.8-40.3,42.5-14.4c18.7,25.9-31.2,62.5-31.2,62.5L3882.8,1725.3z"/>
			<polygon class="st27" points="4028.8,1657.7 4032.2,1676.5 4042.8,1676.5 4038.9,1651.2 			"/>
			<path class="st28" d="M4041.2,1666c0,0,72.2-4.7,69.9,61.8c-2.3,66.5-58.9,183.1-24.6,232.3c0,0-79.1-29.4-25.2-127
				c0,0,69.4-153.6-18.5-156.6L4041.2,1666z"/>
			<path class="st23" d="M3670.9,1910.9c0,0-13.3,9-13.3-8.7c0-17.8,2-30.1,19.8-39.4s53.9-16.9,53.9-16.9s-11.3,10.1-39.7,16.7
				c0,0-8.2,3-12.5,7.5C3674.6,1874.7,3665.3,1888.5,3670.9,1910.9z"/>
			<path class="st28" d="M3943.4,1849.6c-22.2,7.8-44.5-12.3-40.3-35.5c4.2-23.1,14-52,34.8-84.9c8.7-12.6,13.4-26.5-4.4-30.9
				c-34.6-8.5-71.4-64.6-71.4-64.6c37.5,60.5,4,104.1,4,104.1c6.6-2.7,16.8-12.5,16.8-12.5c20.3-25.5,35.5-19,35.5-19
				c21.6,11-0.6,45.5-0.6,45.5s1.8-1.6,4.5-4.2c-20.6,26.8-51.5,79-27.6,127.9l-0.4,2.7c114.1-30.1,124.7-92.1,124.7-92.1
				C3985.8,1825.6,3961.3,1843.3,3943.4,1849.6z"/>
		</g>
		<g>
			<rect x="1697.5" y="1320" class="st29" width="1338.2" height="748.2"/>
			<path class="st30" d="M1925.1,2068.2c0,0,368.1-166.6,583.6-416.9c215.5-250.3,527.1-331.3,527.1-331.3H1697.5v748.2H1925.1z"/>
			<path class="st31" d="M2981.6,1347.6c5.4,0,9.8,4.4,9.8,9.8v659.3c0,5.4-4.4,9.8-9.8,9.8H1740.2c-5.4,0-9.8-4.4-9.8-9.8v-659.3
				c0-5.4,4.4-9.8,9.8-9.8H2981.6 M2981.6,1268.2H1740.2c-49.3,0-89.2,40-89.2,89.2v659.3c0,49.3,40,89.2,89.2,89.2h1241.4
				c49.3,0,89.2-40,89.2-89.2v-659.3C3070.8,1308.1,3030.9,1268.2,2981.6,1268.2L2981.6,1268.2z"/>
			<polygon class="st32" points="1453.7,2321.9 1681.6,2095.2 3055.4,2095.2 3274.1,2321.9 			"/>
			<polygon class="st31" points="3274.1,2321.9 1453.7,2321.9 1491.6,2357.2 3250.4,2357.2 3274.1,2321.9 			"/>
			<polygon class="st33" points="2119.3,2286.7 2570.4,2286.7 2518.8,2214.1 2199.1,2214.1 			"/>
			<circle class="st34" cx="2241.3" cy="1306.9" r="14.9"/>
			<rect x="2285.1" y="1296.6" class="st35" width="141.8" height="20.8"/>
		</g>
		<g>
			<g>
				<path class="st36" d="M2926.1,2002.8c0,13.4-10.9,24.2-24.2,24.2h-582.6c-13.4,0-24.2-10.9-24.2-24.2v-456.4
					c0-13.4,10.9-24.2,24.2-24.2h582.6c13.4,0,24.2,10.9,24.2,24.2V2002.8z"/>
			</g>
			<g>
				<path class="st37" d="M2901.8,1522.2h-582.6c-13.4,0-24.2,10.9-24.2,24.2v44.4h631.1v-44.4
					C2926.1,1533,2915.2,1522.2,2901.8,1522.2z"/>
			</g>
			<path class="st37" d="M2570.3,1655.3v337.5h-224.6v-337.5H2570.3 M2577.2,1648.4h-238.3v351.2h238.3V1648.4L2577.2,1648.4z"/>
			<g>
				<path class="st38" d="M2884,1553.4h-39.3c-6.2,0-11.1-5-11.1-11.1s5-11.1,11.1-11.1h39.3c6.2,0,11.1,5,11.1,11.1
					S2890.1,1553.4,2884,1553.4z"/>
				<path class="st38" d="M2884,1569h-39.3c-6.2,0-11.1-5-11.1-11.1c0-6.2,5-11.1,11.1-11.1h39.3c6.2,0,11.1,5,11.1,11.1
					C2895.1,1564,2890.1,1569,2884,1569z"/>
				<path class="st38" d="M2884,1584.6h-39.3c-6.2,0-11.1-5-11.1-11.1s5-11.1,11.1-11.1h39.3c6.2,0,11.1,5,11.1,11.1
					S2890.1,1584.6,2884,1584.6z"/>
			</g>
			<path class="st38" d="M2787,1573.5h-267c-8.6,0-15.6-7-15.6-15.6l0,0c0-8.6,7-15.6,15.6-15.6h267c8.6,0,15.6,7,15.6,15.6l0,0
				C2802.6,1566.5,2795.6,1573.5,2787,1573.5z"/>
			<g>
				<path class="st36" d="M2319.1,1571c-1.9,0-3.8-0.7-5.3-2.2c-2.9-2.9-2.9-7.6,0-10.5l14.3-14.3c2.9-2.9,7.6-2.9,10.5,0
					c2.9,2.9,2.9,7.6,0,10.5l-14.3,14.3C2322.9,1570.3,2321,1571,2319.1,1571z"/>
				<path class="st36" d="M2333.3,1571c-1.9,0-3.8-0.7-5.3-2.2l-14.3-14.3c-2.9-2.9-2.9-7.6,0-10.5c2.9-2.9,7.6-2.9,10.5,0
					l14.3,14.3c2.9,2.9,2.9,7.6,0,10.5C2337.1,1570.3,2335.2,1571,2333.3,1571z"/>
			</g>
			<path class="st36" d="M2394,1571c-8,0-14.6-6.5-14.6-14.6s6.5-14.6,14.6-14.6c8,0,14.6,6.5,14.6,14.6S2402,1571,2394,1571z
				 M2394,1556.2c-0.2,0-0.3,0.1-0.3,0.3L2394,1556.2z"/>
			<path class="st36" d="M2366.8,1563.9h-15.3c-4.1,0-7.4-3.3-7.4-7.4s3.3-7.4,7.4-7.4h15.3c4.1,0,7.4,3.3,7.4,7.4
				S2370.9,1563.9,2366.8,1563.9z"/>
			<path class="st37" d="M2810.5,1829h-173.8c-10.7,0-19.3-8.7-19.3-19.3c0-10.7,8.7-19.3,19.3-19.3h173.8
				c10.7,0,19.3,8.7,19.3,19.3C2829.8,1820.4,2821.1,1829,2810.5,1829z M2636.7,1797.3c-6.9,0-12.5,5.6-12.5,12.5
				s5.6,12.5,12.5,12.5h173.8c6.9,0,12.5-5.6,12.5-12.5s-5.6-12.5-12.5-12.5H2636.7z"/>
			<path class="st37" d="M2810.5,1886.7h-173.8c-10.7,0-19.3-8.7-19.3-19.3c0-10.7,8.7-19.3,19.3-19.3h173.8
				c10.7,0,19.3,8.7,19.3,19.3C2829.8,1878,2821.1,1886.7,2810.5,1886.7z M2636.7,1854.9c-6.9,0-12.5,5.6-12.5,12.5
				c0,6.9,5.6,12.5,12.5,12.5h173.8c6.9,0,12.5-5.6,12.5-12.5c0-6.9-5.6-12.5-12.5-12.5H2636.7z"/>
			<path class="st37" d="M2810.5,1947h-173.8c-10.7,0-19.3-8.7-19.3-19.3c0-10.7,8.7-19.3,19.3-19.3h173.8
				c10.7,0,19.3,8.7,19.3,19.3C2829.8,1938.4,2821.1,1947,2810.5,1947z M2636.7,1915.2c-6.9,0-12.5,5.6-12.5,12.5
				c0,6.9,5.6,12.5,12.5,12.5h173.8c6.9,0,12.5-5.6,12.5-12.5c0-6.9-5.6-12.5-12.5-12.5H2636.7z"/>
			<path class="st37" d="M2810.5,2004.6h-173.8c-10.7,0-19.3-8.7-19.3-19.3c0-10.7,8.7-19.3,19.3-19.3h173.8
				c10.7,0,19.3,8.7,19.3,19.3C2829.8,1996,2821.1,2004.6,2810.5,2004.6z M2636.7,1972.9c-6.9,0-12.5,5.6-12.5,12.5
				c0,6.9,5.6,12.5,12.5,12.5h173.8c6.9,0,12.5-5.6,12.5-12.5c0-6.9-5.6-12.5-12.5-12.5H2636.7z"/>
			<path class="st37" d="M2887.4,1765.7H2618V1645h269.4V1765.7z M2624.9,1758.8h255.7v-107h-255.7V1758.8z"/>
			<path class="st39" d="M2872.6,1809.7c0,4.6-3.8,8.4-8.4,8.4c-4.6,0-8.4-3.8-8.4-8.4c0-4.6,3.8-8.4,8.4-8.4
				C2868.8,1801.3,2872.6,1805.1,2872.6,1809.7z"/>
			<path class="st39" d="M2872.6,1867.1c0,4.6-3.8,8.4-8.4,8.4c-4.6,0-8.4-3.8-8.4-8.4c0-4.6,3.8-8.4,8.4-8.4
				C2868.8,1858.7,2872.6,1862.5,2872.6,1867.1z"/>
		</g>
		<rect x="2447.1" y="1344.2" class="st19" width="130" height="682.9"/>
		<g>
			<rect x="1905.2" y="980.2" class="st36" width="624.6" height="1037.8"/>
			<rect x="1905.2" y="980.2" class="st16" width="624.6" height="105.5"/>
			<g>
				<path class="st17" d="M1985.4,1033.7c0,10.2-8.3,18.5-18.5,18.5c-10.2,0-18.5-8.3-18.5-18.5c0-10.2,8.3-18.5,18.5-18.5
					C1977.1,1015.2,1985.4,1023.5,1985.4,1033.7z"/>
				<path class="st18" d="M2044.2,1033.7c0,10.2-8.3,18.5-18.5,18.5s-18.5-8.3-18.5-18.5c0-10.2,8.3-18.5,18.5-18.5
					S2044.2,1023.5,2044.2,1033.7z"/>
				<path class="st17" d="M2103.1,1033.7c0,10.2-8.3,18.5-18.5,18.5c-10.2,0-18.5-8.3-18.5-18.5c0-10.2,8.3-18.5,18.5-18.5
					C2094.9,1015.2,2103.1,1023.5,2103.1,1033.7z"/>
			</g>
		</g>
		<g>
			<g>
				<path class="st19" d="M2465.4,1941.8h-491.2c-4.4,0-7.9-3.7-7.9-8.2v-78l37.5-39h461.7c4.4,0,7.9,3.7,7.9,8.2v108.8
					C2473.3,1938.1,2469.8,1941.8,2465.4,1941.8z"/>
				<path class="st19" d="M1995.8,1855.3h-29.6l37.5-39v30.8C2003.7,1851.6,2000.2,1855.3,1995.8,1855.3z"/>
			</g>
			<rect x="1961.7" y="1203.8" class="st19" width="128.4" height="239.7"/>
			<rect x="2269.9" y="1594.8" class="st19" width="203.4" height="184.2"/>
			<rect x="2347.7" y="1203.8" class="st19" width="125.6" height="125.6"/>
			<rect x="2107.6" y="1136" class="st19" width="365.7" height="42.7"/>
			<rect x="2109.8" y="1203.8" class="st19" width="210.1" height="20.4"/>
			<rect x="2109.8" y="1256.4" class="st19" width="210.1" height="20.4"/>
			<rect x="2109.8" y="1309" class="st19" width="210.1" height="20.4"/>
			<rect x="2109.8" y="1361.6" class="st19" width="363.5" height="20.4"/>
			<rect x="2109.8" y="1414.2" class="st19" width="363.5" height="20.4"/>
			<path class="st19" d="M1989.5,1149.9c0,7.7-6.2,13.9-13.9,13.9c-7.7,0-13.9-6.2-13.9-13.9s6.2-13.9,13.9-13.9
				C1983.3,1136,1989.5,1142.2,1989.5,1149.9z"/>
			<path class="st19" d="M2039.8,1149.9c0,7.7-6.2,13.9-13.9,13.9c-7.7,0-13.9-6.2-13.9-13.9s6.2-13.9,13.9-13.9
				C2033.6,1136,2039.8,1142.2,2039.8,1149.9z"/>
			<path class="st19" d="M2090.1,1149.9c0,7.7-6.2,13.9-13.9,13.9c-7.7,0-13.9-6.2-13.9-13.9s6.2-13.9,13.9-13.9
				C2083.9,1136,2090.1,1142.2,2090.1,1149.9z"/>
			<g>
				
					<rect x="1966.2" y="1758.9" transform="matrix(-1 -1.224647e-16 1.224647e-16 -1 4203.1685 3539.5383)" class="st19" width="270.7" height="21.8"/>
				
					<rect x="1966.2" y="1704.1" transform="matrix(-1 -1.224647e-16 1.224647e-16 -1 4203.1685 3430.1184)" class="st19" width="270.7" height="21.8"/>
				
					<rect x="1966.2" y="1649.4" transform="matrix(-1 -1.224647e-16 1.224647e-16 -1 4203.1685 3320.6973)" class="st19" width="270.7" height="21.8"/>
				
					<rect x="1966.2" y="1594.7" transform="matrix(-1 -1.224647e-16 1.224647e-16 -1 4203.1685 3211.2764)" class="st19" width="270.7" height="21.8"/>
				
					<rect x="1966.2" y="1540" transform="matrix(-1 -1.224647e-16 1.224647e-16 -1 4439.5176 3101.8564)" class="st19" width="507.1" height="21.8"/>
				
					<rect x="1966.2" y="1485.3" transform="matrix(-1 -1.224647e-16 1.224647e-16 -1 4439.5176 2992.4355)" class="st19" width="507.1" height="21.8"/>
			</g>
		</g>
		<g>
			<rect x="891.5" y="1559" class="st16" width="652.1" height="440.6"/>
			<g>
				<rect x="891.5" y="1559" class="st31" width="652.1" height="44.8"/>
			</g>
			<g>
				<path class="st17" d="M953.9,1581.7c0,4.3-3.9,7.8-8.6,7.8c-4.8,0-8.6-3.5-8.6-7.8c0-4.3,3.9-7.8,8.6-7.8
					C950,1573.9,953.9,1577.4,953.9,1581.7z"/>
				<path class="st18" d="M981.3,1581.7c0,4.3-3.9,7.8-8.6,7.8c-4.8,0-8.6-3.5-8.6-7.8c0-4.3,3.9-7.8,8.6-7.8
					C977.5,1573.9,981.3,1577.4,981.3,1581.7z"/>
				<path class="st17" d="M1008.8,1581.7c0,4.3-3.9,7.8-8.6,7.8s-8.6-3.5-8.6-7.8c0-4.3,3.9-7.8,8.6-7.8
					S1008.8,1577.4,1008.8,1581.7z"/>
			</g>
		</g>
		<rect x="985" y="1695.1" class="st40" width="399.9" height="240.6"/>
		<rect x="953.2" y="1655.4" class="st36" width="399.9" height="240.6"/>
		<circle class="st26" cx="1139.9" cy="1791.5" r="77.7"/>
		<polygon class="st36" points="1118.7,1746.8 1118.7,1829.3 1184.2,1788.1 		"/>
		<polygon class="st41" points="1750.1,2122.3 2998.5,2122.3 3030.6,2147.5 1728.3,2147.5 		"/>
		<polygon class="st41" points="1703.1,2162.5 3041.7,2162.5 3076.2,2187.6 1679.7,2187.6 		"/>
		<path class="st21" d="M2825.8,893.1h200.6c36.2,0,65.5,28,65.5,62.5v102.6c0,34.5-29.3,62.5-65.5,62.5h-138.3
			c-2.3,20.2-12.1,59.1-52.8,75.8c0,0,13.5-42.8,9-75.8h-18.5c-36.2,0-65.5-28-65.5-62.5V955.6
			C2760.2,921.1,2789.6,893.1,2825.8,893.1z"/>
		<g>
			<path class="st31" d="M2990.8,870.2h-191.3c-34.5,0-62.5,28-62.5,62.5v102.6c0,34.5,28,62.5,62.5,62.5h131.9
				c2.2,20.2,11.6,59.1,50.4,75.8c0,0-12.9-42.8-8.6-75.8h17.6c34.5,0,62.5-28,62.5-62.5V932.7
				C3053.3,898.1,3025.3,870.2,2990.8,870.2z"/>
		</g>
		<circle class="st36" cx="2822.7" cy="986.3" r="22.8"/>
		<circle class="st36" cx="2889.3" cy="986.3" r="22.8"/>
		<circle class="st36" cx="2956" cy="986.3" r="22.8"/>
		<circle class="st26" cx="2982.1" cy="870.6" r="37"/>
		<path class="st30" d="M1363.3,2235.3h-514c-26,0-47-25.3-47-56.5l0,0c0-31.2,21-56.5,47-56.5h514c26,0,47,25.3,47,56.5l0,0
			C1410.3,2210,1389.3,2235.3,1363.3,2235.3z"/>
		<path class="st16" d="M1775.5,927.8h-552.6c-2.1,0-3.7-1.7-3.7-3.7V748.2c0-2.1,1.7-3.7,3.7-3.7h552.6c2.1,0,3.7,1.7,3.7,3.7V924
			C1779.3,926.1,1777.6,927.8,1775.5,927.8z"/>
		<path class="st16" d="M1595.6,903.5c0,0-7.3,39.2,38.3,64.7c0,0-25.5-45.5,0-64.7H1595.6z"/>
		
			<rect x="1273.5" y="874.8" transform="matrix(-1 -1.224647e-16 1.224647e-16 -1 2761.3887 1766.974)" class="st36" width="214.4" height="17.3"/>
		
			<rect x="1273.5" y="831.5" transform="matrix(-1 -1.224647e-16 1.224647e-16 -1 2948.5703 1680.3165)" class="st36" width="401.6" height="17.3"/>
		
			<rect x="1273.5" y="788.2" transform="matrix(-1 -1.224647e-16 1.224647e-16 -1 2948.5703 1593.6583)" class="st36" width="401.6" height="17.3"/>
		<rect x="1074.3" y="2140.6" class="st26" width="14" height="79.5"/>
		<rect x="1099.3" y="2140.6" class="st26" width="14" height="79.5"/>
		<polygon class="st31" points="918.3,2140.6 866.7,2178 866.7,2140.6 852.7,2140.6 852.7,2220.1 866.7,2220.1 866.7,2187.5 
			918.3,2220.1 		"/>
		<polygon class="st31" points="1297.8,2218.2 1346.8,2182.6 1346.8,2218.2 1360.1,2218.2 1360.1,2142.5 1346.8,2142.5 
			1346.8,2173.5 1297.8,2142.5 		"/>
		<polygon class="st15" points="3274.1,1225.3 3274.1,1623.4 3637.9,1623.4 3637.9,1336.1 3530.5,1225.3 		"/>
		<g>
			<g>
				<rect x="3530.5" y="1422.2" class="st19" width="42.3" height="73.1"/>
				<rect x="3340.2" y="1382.7" class="st19" width="232.7" height="24.8"/>
				<rect x="3342.1" y="1422.2" class="st19" width="180" height="11.9"/>
				<rect x="3342.1" y="1452.8" class="st19" width="180" height="11.9"/>
				<rect x="3342.1" y="1483.4" class="st19" width="180" height="11.9"/>
				<rect x="3342.1" y="1514.1" class="st19" width="231.7" height="11.9"/>
				<rect x="3342.1" y="1544.7" class="st19" width="231.7" height="11.9"/>
			</g>
		</g>
		<polygon class="st19" points="3535.5,1230.5 3535.5,1347.4 3637.9,1347.4 3637.9,1337 		"/>
		<polygon class="st42" points="3530.5,1225.3 3530.5,1337 3637.9,1337 		"/>
	</g>
</g>
</svg>
