<?xml version="1.0" encoding="utf-8"?>
<!-- Generator: Adobe Illustrator 24.1.0, SVG Export Plug-In . SVG Version: 6.00 Build 0)  -->
<svg version="1.1" id="Capa_1" xmlns="http://www.w3.org/2000/svg" xmlns:xlink="http://www.w3.org/1999/xlink" x="0px" y="0px"
	 viewBox="0 0 5000 3575.6" style="enable-background:new 0 0 5000 3575.6;" xml:space="preserve">
<style type="text/css">
	.st0{opacity:0.42;fill:#FE7101;enable-background:new    ;}
	.st1{opacity:0.8;fill:#F32735;enable-background:new    ;}
	.st2{fill:#514F4F;}
	.st3{fill:#3F3F3F;}
	.st4{fill:#353535;}
	.st5{fill:#C23825;}
	.st6{fill:#7C7C7C;}
	.st7{fill:#E01B07;}
	.st8{fill:#C12000;}
	.st9{fill:#771704;}
	.st10{fill:#D4E0F4;}
	.st11{fill:#EAF2F9;}
	.st12{opacity:0.58;}
	.st13{fill:#CEE4F4;}
	.st14{fill:#BDD6E5;}
	.st15{opacity:0.56;}
	.st16{fill:#D3DDEF;}
	.st17{fill:#E7EDF7;}
	.st18{fill:#1B227A;}
	.st19{opacity:0.6;fill:#7485A5;}
	.st20{fill:#C6D2EB;}
	.st21{fill:#E6515B;}
	.st22{fill:#FFFFFF;}
	.st23{fill:#D8E0EF;}
	.st24{fill:#84B4FE;}
	.st25{fill:#EDF1F7;}
	.st26{fill:#FAC2AE;}
	.st27{fill:#F1A080;}
	.st28{fill:#111A56;}
	.st29{fill:#161F60;}
	.st30{fill:#E8505B;}
	.st31{opacity:0.45;}
	.st32{fill:#B03D44;}
	.st33{fill:#C3ECFE;}
	.st34{opacity:0.45;fill:#B03D44;}
	.st35{opacity:0.25;fill:#1B227A;}
	.st36{opacity:0.15;}
	.st37{opacity:0.47;fill:#5C8CC6;}
	.st38{fill:#6B97D6;}
	.st39{fill:#ACCDFC;}
	.st40{fill:#1F1D5B;}
	.st41{fill:#F4B7A4;}
	.st42{fill:#1B2264;}
	.st43{fill:#6C6C96;}
	.st44{fill:#3F3F72;}
	.st45{fill:#AAB5CB;}
	.st46{fill:#939CAF;}
	.st47{fill:#B03E45;}
</style>
<path class="st0" d="M209.6-69.2H60.1c-3.7,0-6.6-3-6.6-6.6v-149.5c0-3.7,3-6.6,6.6-6.6h149.5c3.7,0,6.6,3,6.6,6.6v149.5
	C216.3-72.2,213.3-69.2,209.6-69.2z"/>
<path class="st1" d="M460.9-69.2H311.4c-3.7,0-6.6-3-6.6-6.6v-149.5c0-3.7,3-6.6,6.6-6.6h149.5c3.7,0,6.6,3,6.6,6.6v149.5
	C467.5-72.2,464.5-69.2,460.9-69.2z"/>
<path class="st2" d="M724-69.2H574.6c-3.7,0-6.6-3-6.6-6.6v-149.5c0-3.7,3-6.6,6.6-6.6H724c3.7,0,6.6,3,6.6,6.6v149.5
	C730.7-72.2,727.7-69.2,724-69.2z"/>
<path class="st3" d="M988.1-69.2H838.7c-3.7,0-6.6-3-6.6-6.6v-149.5c0-3.7,3-6.6,6.6-6.6h149.5c3.7,0,6.6,3,6.6,6.6v149.5
	C994.8-72.2,991.8-69.2,988.1-69.2z"/>
<path class="st4" d="M1231.7-69.2h-149.5c-3.7,0-6.6-3-6.6-6.6v-149.5c0-3.7,3-6.6,6.6-6.6h149.5c3.7,0,6.6,3,6.6,6.6v149.5
	C1238.3-72.2,1235.3-69.2,1231.7-69.2z"/>
<rect x="3754.5" y="-232" class="st5" width="162.8" height="162.8"/>
<rect x="4005.7" y="-232" class="st2" width="162.8" height="162.8"/>
<rect x="4268.9" y="-232" class="st3" width="162.8" height="162.8"/>
<rect x="2981.9" y="-232" class="st0" width="162.8" height="162.8"/>
<rect x="3233.2" y="-232" class="st6" width="162.8" height="162.8"/>
<rect x="3496.3" y="-232" class="st6" width="162.8" height="162.8"/>
<rect x="4533" y="-232" class="st4" width="162.8" height="162.8"/>
<rect x="4776.5" y="-232" class="st4" width="162.8" height="162.8"/>
<rect x="3747.2" y="-485.5" class="st5" width="162.8" height="162.8"/>
<rect x="3998.5" y="-485.5" class="st2" width="162.8" height="162.8"/>
<rect x="4261.7" y="-485.5" class="st3" width="162.8" height="162.8"/>
<rect x="2974.7" y="-485.5" class="st0" width="162.8" height="162.8"/>
<rect x="3225.9" y="-485.5" class="st6" width="162.8" height="162.8"/>
<rect x="3489.1" y="-485.5" class="st6" width="162.8" height="162.8"/>
<rect x="4525.8" y="-485.5" class="st4" width="162.8" height="162.8"/>
<rect x="4769.3" y="-485.5" class="st4" width="162.8" height="162.8"/>
<path class="st0" d="M209.6-322.7H60.1c-3.7,0-6.6-3-6.6-6.6v-149.5c0-3.7,3-6.6,6.6-6.6h149.5c3.7,0,6.6,3,6.6,6.6v149.5
	C216.3-325.7,213.3-322.7,209.6-322.7z"/>
<path class="st5" d="M460.9-322.7H311.4c-3.7,0-6.6-3-6.6-6.6v-149.5c0-3.7,3-6.6,6.6-6.6h149.5c3.7,0,6.6,3,6.6,6.6v149.5
	C467.5-325.7,464.5-322.7,460.9-322.7z"/>
<path class="st7" d="M724-322.7H574.6c-3.7,0-6.6-3-6.6-6.6v-149.5c0-3.7,3-6.6,6.6-6.6H724c3.7,0,6.6,3,6.6,6.6v149.5
	C730.7-325.7,727.7-322.7,724-322.7z"/>
<path class="st8" d="M988.1-322.7H838.7c-3.7,0-6.6-3-6.6-6.6v-149.5c0-3.7,3-6.6,6.6-6.6h149.5c3.7,0,6.6,3,6.6,6.6v149.5
	C994.8-325.7,991.8-322.7,988.1-322.7z"/>
<path class="st9" d="M1231.7-322.7h-149.5c-3.7,0-6.6-3-6.6-6.6v-149.5c0-3.7,3-6.6,6.6-6.6h149.5c3.7,0,6.6,3,6.6,6.6v149.5
	C1238.3-325.7,1235.3-322.7,1231.7-322.7z"/>
<g>
	<rect x="438.6" y="2997.7" class="st10" width="4286" height="28.7"/>
	<path class="st11" d="M578.1,2997.7H4509c0,0,577.3-1542.4-49.3-1865.6c-560.2-288.9-355.1-1145-1143.2-1046s-836.3,388.5-1629,328
		C509.1,324.2-215.2,1119.9,472.9,2219C646.7,2496.7,660.4,2778.3,578.1,2997.7z"/>
	<g class="st12">
		<g>
			<g>
				<path class="st13" d="M2760.2,2446.3L2802,2994c0,0,369.5,3.4,368.7-2.4c-0.8-5.8,11.4-559.6,11.4-559.6L2760.2,2446.3z"/>
			</g>
			<g>
				<polyline class="st14" points="2760.2,2478.2 3185.7,2478.2 3182.1,2524.8 2760.2,2478.2 				"/>
			</g>
			<g>
				<polygon class="st13" points="2657.6,2382.3 4537.8,2382.3 4537.8,2440.2 2657.6,2478.2 				"/>
			</g>
			<g>
				<g>
					<g>
						<g>
							<g>
								<polygon class="st13" points="4269.3,2441.8 4246.9,2998 4216.3,2998.7 4205,2441.8 								"/>
							</g>
						</g>
					</g>
				</g>
			</g>
		</g>
		<g>
			<path class="st14" d="M2773.5,2641.5c0,0.5,402,21.9,402,21.9l-0.5,17.6l-400.2-19.8L2773.5,2641.5z"/>
		</g>
		<g>
			<polygon class="st14" points="2787,2841.9 3170.7,2832.8 3170.2,2852.2 2787.8,2852.2 			"/>
		</g>
		<g>
			<path class="st14" d="M3015.7,2577.1H2942c-4.6,0-8.4-3.8-8.4-8.5l0,0c0-4.7,3.8-8.5,8.4-8.5h73.7c4.6,0,8.4,3.8,8.4,8.5l0,0
				C3024.1,2573.2,3020.3,2577.1,3015.7,2577.1z"/>
		</g>
		<g>
			<path class="st14" d="M3021.3,2763.7h-73.7c-4.6,0-8.4-3.8-8.4-8.5l0,0c0-4.7,3.8-8.5,8.4-8.5h73.7c4.6,0,8.4,3.8,8.4,8.5l0,0
				C3029.6,2759.9,3025.9,2763.7,3021.3,2763.7z"/>
		</g>
		<g>
			<path class="st14" d="M3021.3,2955.1h-73.7c-4.6,0-8.4-3.8-8.4-8.5l0,0c0-4.7,3.8-8.5,8.4-8.5h73.7c4.6,0,8.4,3.8,8.4,8.5l0,0
				C3029.6,2951.3,3025.9,2955.1,3021.3,2955.1z"/>
		</g>
	</g>
	<g class="st15">
		<g>
			<path class="st16" d="M1544.2,2775.9c0,4.4-18.1,7.9-40.3,7.9c-22.3,0-40.3-3.6-40.3-7.9c0-4.4,18.1-7.9,40.3-7.9
				C1526.1,2767.9,1544.2,2771.5,1544.2,2775.9z"/>
			<path class="st16" d="M1544.2,3001.7c0,4.4-18.1,7.9-40.3,7.9c-22.3,0-40.3-3.6-40.3-7.9c0-4.4,18.1-7.9,40.3-7.9
				C1526.1,2993.8,1544.2,2997.3,1544.2,3001.7z"/>
			<rect x="1463.5" y="2775.9" class="st16" width="80.7" height="225.8"/>
		</g>
		<g>
			<path class="st16" d="M1504.3,2798.2l-2.6,0c0-1.1,0.8-111.8-26.6-179.8l2.4-1.4C1505.2,2685.7,1504.3,2797.1,1504.3,2798.2z"/>
		</g>
		<path class="st16" d="M1466.5,2558.8l14.1-11.4c-4.9-14.8-12.1-30.8-22.6-47.5h-7l3.1-6c-7.2-10.8-15.8-21.9-26-33.2
			c0,0,1.3,27.8,7,62.1h11.1l-10.1,5.6c1.3,7.4,2.8,15,4.6,22.6l13.1-3l-11.2,11.2c8.4,33.4,21.5,66.1,41.7,81.5
			c0,0,12.6-34.1-0.8-83.7L1466.5,2558.8z"/>
		<g>
			<path class="st16" d="M1504,2807.3c0-1.3-1-135.7,32.5-218.5l2.4,1.4c-33.2,82.1-32.2,215.8-32.2,217.1L1504,2807.3z"/>
		</g>
		<path class="st16" d="M1549.4,2518.3l-17-13.8c5.9-17.8,14.6-37.1,27.2-57.3h8.4l-3.7-7.3c8.7-13.1,19.1-26.5,31.4-40.1
			c0,0-1.5,33.6-8.4,74.9H1574l12.2,6.7c-1.6,8.9-3.4,18.1-5.5,27.3l-15.9-3.6l13.5,13.5c-10.1,40.3-25.9,79.8-50.4,98.4
			c0,0-15.2-41.2,1-101L1549.4,2518.3z"/>
	</g>
	<g class="st12">
		<polygon class="st13" points="4107.8,2316.3 4151.7,2316.3 4157.5,2445 4115.1,2445 		"/>
	</g>
	<g class="st12">
		<g>
			<path class="st13" d="M4028,2271.3c0,0,81.2,0,83.4,0c2.2,0,3,174.4,3,174.4h-77.6L4028,2271.3z"/>
		</g>
		<g>
			<path class="st11" d="M4100.5,2379.1c0,12.2-10.8,22.1-24.1,22.1c-13.3,0-24.1-9.9-24.1-22.1c0-12.2,8.6-20.6,22-20.6
				C4087.5,2358.5,4100.5,2366.9,4100.5,2379.1z"/>
		</g>
	</g>
	<g class="st12">
		<g>
			<polygon class="st13" points="3964.4,2447.5 3960.7,2256.6 4036.8,2259.2 4036.8,2445.7 			"/>
		</g>
		<g>
			<path class="st11" d="M4014.1,2296.8c0,7.8-6.9,14.1-15.4,14.1s-15.4-6.3-15.4-14.1c0-7.8,5.6-14,14.1-14
				C4005.9,2282.8,4014.1,2289,4014.1,2296.8z"/>
		</g>
	</g>
	<ellipse class="st17" cx="1079.4" cy="3125.2" rx="443.3" ry="83.9"/>
	<ellipse class="st17" cx="1945.2" cy="3261.3" rx="245.6" ry="54.4"/>
	<ellipse class="st17" cx="3411.4" cy="3345.8" rx="854.1" ry="101.4"/>
	<path class="st18" d="M3119.2,884.3h-1.3c-16.4,0-30.7-10.4-36.3-25.8c-2.2-5.8-4.5-11.6-7.1-17.2c-6.8-14.9-4.2-32.4,7.4-43.9
		l0.9-0.9c15-15,15-39.4,0-54.4l-25.3-25.3c-15-15-39.4-15-54.4,0l-0.9,0.9c-11.6,11.6-29.1,14.3-43.9,7.4c-5.6-2.6-11.4-5-17.2-7.1
		c-15.4-5.6-25.8-19.9-25.8-36.3v-1.3c0-21.2-17.2-38.4-38.4-38.4h-35.8c-21.2,0-38.4,17.2-38.4,38.4v1.3
		c0,16.4-10.4,30.7-25.8,36.3c-5.8,2.2-11.6,4.5-17.2,7.1c-14.9,6.8-32.4,4.2-43.9-7.4l-0.9-0.9c-15-15-39.4-15-54.4,0l-25.3,25.3
		c-15,15-15,39.4,0,54.4l0.9,0.9c11.6,11.6,14.3,29.1,7.4,43.9c-2.6,5.6-5,11.4-7.1,17.2c-5.6,15.4-19.9,25.8-36.3,25.8h-1.3
		c-21.2,0-38.4,17.2-38.4,38.4v35.8c0,21.2,17.2,38.4,38.4,38.4h1.3c16.4,0,30.7,10.4,36.3,25.8c2.2,5.8,4.5,11.6,7.1,17.2
		c6.8,14.9,4.2,32.4-7.4,43.9l-0.9,0.9c-15,15-15,39.4,0,54.4l25.3,25.3c15,15,39.4,15,54.4,0l0.9-0.9c11.6-11.6,29.1-14.3,43.9-7.4
		c5.6,2.6,11.4,5,17.2,7.1c15.4,5.6,25.8,19.9,25.8,36.3v1.3c0,21.2,17.2,38.4,38.4,38.4h35.8c21.2,0,38.4-17.2,38.4-38.4v-1.3
		c0-16.4,10.4-30.7,25.8-36.3c5.8-2.2,11.6-4.5,17.2-7.1c14.9-6.8,32.4-4.2,43.9,7.4l0.9,0.9c15,15,39.4,15,54.4,0l25.3-25.3
		c15-15,15-39.4,0-54.4l-0.9-0.9c-11.6-11.6-14.3-29.1-7.4-43.9c2.6-5.6,5-11.4,7.1-17.2c5.6-15.4,19.9-25.8,36.3-25.8h1.3
		c21.2,0,38.4-17.2,38.4-38.4v-35.8C3157.7,901.5,3140.4,884.3,3119.2,884.3z M2859,1096c-85.8,0-155.3-69.5-155.3-155.3
		c0-85.8,69.5-155.3,155.3-155.3c85.8,0,155.3,69.5,155.3,155.3C3014.3,1026.4,2944.7,1096,2859,1096z"/>
	<g>
		<rect x="1174.7" y="885.1" class="st19" width="1684.3" height="1174.6"/>
		<rect x="1083.8" y="794.3" class="st20" width="1684.3" height="1174.6"/>
		<rect x="1299.2" y="1426" class="st18" width="48.3" height="343.2"/>
		<rect x="1377.9" y="1306" class="st18" width="48.3" height="463.2"/>
		<rect x="1456.6" y="1162.3" class="st18" width="48.3" height="606.9"/>
		<rect x="1535.3" y="1113.3" class="st18" width="48.3" height="656"/>
		<rect x="1614" y="1195.6" class="st18" width="48.3" height="573.6"/>
		<rect x="1692.7" y="1314.8" class="st18" width="48.3" height="454.4"/>
		<rect x="1771.4" y="1211.4" class="st18" width="48.3" height="557.8"/>
		<rect x="1850.1" y="1083.4" class="st18" width="48.3" height="685.8"/>
		<rect x="1928.8" y="931.7" class="st18" width="48.3" height="837.5"/>
		<rect x="2007.5" y="885.1" class="st18" width="48.3" height="884.1"/>
		<polygon class="st21" points="2098.1,1853.1 1234.5,1853.1 1234.5,931.7 1241.6,931.7 1241.6,1846.1 2098.1,1846.1 		"/>
	</g>
	<polygon class="st21" points="1210.8,953.9 1267,953.9 1238.9,901.5 	"/>
	<g>
		<circle class="st22" cx="2661.2" cy="1868.1" r="442"/>
		<path class="st23" d="M2436.9,1523.2c0-4.6-0.1-9.3,0-13.9c0.1-2.8-1-3.3-3.5-2.3c-7.1,2.6-11.8,9.5-11.6,17.2
			c0.1,6.7,4.5,12,11.8,14.7c2.7,1,3.4,0.1,3.4-2.5C2436.8,1532,2436.9,1527.6,2436.9,1523.2z"/>
		<g>
			<path class="st24" d="M2688.1,2382.3c-41.6,0-83.8-5-125.9-15.5h0c-135.1-33.6-249-117.9-320.7-237.2
				c-71.7-119.3-92.7-259.4-59.1-394.5c33.6-135.1,117.9-249,237.2-320.7c119.3-71.7,259.4-92.7,394.5-59.1
				c278.9,69.4,449.3,352.8,379.8,631.6C3135,2223.7,2921.8,2382.3,2688.1,2382.3z M2591.3,2250.2c214.6,53.4,432.6-77.7,486-292.3
				c53.4-214.6-77.7-432.6-292.3-486c-103.9-25.9-211.7-9.7-303.5,45.5c-91.8,55.2-156.6,142.8-182.5,246.8
				c-25.9,103.9-9.7,211.7,45.5,303.5C2399.7,2159.5,2487.4,2224.3,2591.3,2250.2L2591.3,2250.2z"/>
			<path class="st24" d="M1937.2,3279c-10,0-20.1-2.5-29.5-7.8c-28.9-16.3-39.1-52.9-22.8-81.8l529-937.9
				c16.3-28.9,52.9-39.1,81.8-22.8c28.9,16.3,39.1,52.9,22.8,81.8l-529,937.9C1978.6,3268,1958.2,3279,1937.2,3279z"/>
		</g>
		<g>
			<path class="st18" d="M2645.7,2389.4c-41.6,0-83.8-5-125.9-15.5h0c-135.1-33.6-249-117.9-320.7-237.2
				c-71.7-119.3-92.7-259.4-59.1-394.5c33.6-135.1,117.9-249,237.2-320.7c119.3-71.7,259.4-92.7,394.5-59.1
				c278.9,69.4,449.3,352.8,379.8,631.6C3092.6,2230.8,2879.4,2389.4,2645.7,2389.4z M2548.9,2257.3
				c214.6,53.4,432.6-77.7,486-292.3c53.4-214.6-77.7-432.6-292.3-486c-103.9-25.9-211.7-9.7-303.5,45.5
				c-91.8,55.2-156.6,142.8-182.5,246.8c-25.9,103.9-9.7,211.7,45.5,303.5C2357.3,2166.6,2444.9,2231.4,2548.9,2257.3L2548.9,2257.3
				z"/>
			<path class="st18" d="M1894.8,3286.1c-10,0-20.1-2.5-29.5-7.8c-28.9-16.3-39.1-52.9-22.8-81.8l529-937.9
				c16.3-28.9,52.9-39.1,81.8-22.8c28.9,16.3,39.1,52.9,22.8,81.8l-529,937.9C1936.2,3275.1,1915.8,3286.1,1894.8,3286.1z"/>
		</g>
	</g>
	<g>
		<rect x="2204.6" y="971.8" class="st25" width="106.5" height="21.2"/>
		<rect x="2550.1" y="1020.8" class="st25" width="81" height="21.2"/>
		<rect x="2204.6" y="1020.8" class="st25" width="310.4" height="21.2"/>
		<rect x="2204.6" y="1069.8" class="st25" width="426.5" height="21.2"/>
		<rect x="2495.6" y="1118.8" class="st25" width="135.6" height="21.2"/>
		<rect x="2204.6" y="1118.8" class="st25" width="257.2" height="21.2"/>
		<rect x="2346.1" y="971.8" class="st25" width="285.1" height="21.2"/>
	</g>
	<g>
		<path class="st26" d="M868.8,2979.2l-16.2,98.3c0,0,71.9,30.3,88.6-8.6c0,0-29.2-17.3-22.1-104.8L868.8,2979.2z"/>
		<path class="st27" d="M867.1,2993l-3.7,19.4c0,0,33.1,27.5,55.7,0l-1.3-35.6L867.1,2993z"/>
		<path class="st26" d="M1219.4,2971.7l8.6,85.9c0,0,37.8,7.6,57.3-14.6l-15.1-82.7L1219.4,2971.7z"/>
		<path class="st27" d="M1221.2,2989.4l3.2,31.7c0,0,42,5.8,55.2-9.3l-5.4-32.5L1221.2,2989.4z"/>
		<path class="st26" d="M1059.3,1329.2c0,0,30.1,50.8,39.5,103.4c4.2,23.7,9.2,38.1,13.4,46.7c9.5,19.5,6.3,41.4-3.2,60.9
			c-6.8,14.1-18.7,33.9-35.7,44.6c0,0-36.7,18.8-63.9,17.9c-23.3-0.8-119.5-16.3-127.8-121.4c-1.4-18.1,20.8-32.9,23.9-57.2
			C929.4,1238.5,1059.3,1329.2,1059.3,1329.2z"/>
		<path class="st28" d="M932.8,1451.1c0,0-10.5,18.2,0,32.2l-33.1-23.2L932.8,1451.1z"/>
		<path class="st18" d="M959.6,1589.6c0,0-94.8-14.7-130.7-102.2c-9.5-23.3-8.3-96.9,5.3-124.8c44.2-90.7,228.9-146.7,242.7,7.3
			c0,0-19-51.9-60.8-44.2c0,0-52.8,117.5-98.6,134.4C871.8,1477,870.6,1514,959.6,1589.6z"/>
		<path class="st18" d="M860.2,2155.9c0,0-24.3,275.5,0,483c0,0-27,175-5.4,359.8h71.9l84.7-370.5c0,0,4.4-206.4,43.3-300.4
			c0,0,72.9,233.4,81,317.7s50.2,317.7,72.9,356.6l83.2-7c0,0-29.7-276.6-20-344.7c9.7-68.1-74.6-546.2-74.6-546.2L860.2,2155.9z"/>
		<path class="st29" d="M1200,2123c2.2,1.1,5.6,29,5.6,29s-334.8,56.2-350.9,84.9l3.9-61L1200,2123z"/>
		<path class="st26" d="M966.6,1568.1c-1.1,3.2,43.2,101.6-25.9,123.2c0,0,91.8,108,138.3-9.7c0,0-56.2,24.9-38.9-113.5H966.6z"/>
		<path class="st24" d="M873.7,1702.7c0,0,83.1-16.4,89.6-24.3c0,0,42.7,50.9,98.9,3.9c0,0,250.1-82.2,295.5-117.8
			c45.4-35.7,249.6-130.8,249.6-130.8l28.4,44.1c0,0-205,153.2-224.5,159.6s-220.4,118.3-220.4,118.3s12.2,229.3,42.9,328.2
			c0,0,18.6,38.1-26.7,47s-342.8,57.5-342.8,57.5s-45.4,1.6-42.1-30.8s-0.2-85.1-0.2-85.1s-83.3-1.6-90.6-13.8
			c-7.3-12.2-23.5-10.5,17-133.7C788.9,1801.8,802.9,1709.8,873.7,1702.7z"/>
		<path class="st29" d="M856.4,3054.5c0,0,50,14.5,73.5,0c0,0,76.1,50.3,105.3,41.4c29.2-8.9,48.6,47.8,48.6,47.8l-237.4,9.7
			C846.4,3153.5,816.2,3163.8,856.4,3054.5z"/>
		<path class="st29" d="M1217,3033.5c0,0,50,14.5,73.5,0c0,0,76.1,50.3,105.3,41.4c29.2-8.9,48.6,47.8,48.6,47.8l-237.4,9.7
			C1207,3132.4,1176.8,3142.8,1217,3033.5z"/>
		<path class="st26" d="M1594.4,1454.9c0,0,61.6-42.9,64-49.4s35.7-33.2,128.8-32.4c0,0,41.3-9,42.1,0c0.8,8.9-86.7,60.5-86.7,60.5
			s4.1,27.1,35.7,17.4c31.6-9.7,33.2,19.4,33.2,19.4s-30.8-8.9-44.6,0c-13.8,8.9-56.7,3.9-77.8-15.5l-77,30L1594.4,1454.9z"/>
		<g>
			
				<rect x="902.4" y="1842.1" transform="matrix(0.9977 6.793126e-02 -6.793126e-02 0.9977 137.548 -64.0004)" class="st18" width="214.7" height="296.7"/>
			<g>
				<g>
					<path class="st30" d="M1025.5,1809.4c-6.3-0.4-11.7,4.3-12.1,10.6l-1,14.5l22.7,1.5c0,0,0.8-11.6,1-14.5
						C1036.5,1815.2,1031.7,1809.8,1025.5,1809.4z M1024.2,1827.2c-3.5-0.2-6.2-3.3-5.9-6.8c0.2-3.5,3.3-6.2,6.8-5.9
						c3.5,0.2,6.2,3.3,5.9,6.8C1030.8,1824.8,1027.8,1827.5,1024.2,1827.2z"/>
				</g>
			</g>
			<g class="st31">
				<g>
					<path class="st32" d="M1031.1,1821.3c0.2-3.5-2.4-6.6-5.9-6.8c-0.3,0-0.6,0-1,0c1-0.3,1-0.6,2.6-0.4c3.5,0.2,6.2,3.3,5.9,6.8
						c-0.2,3.2-2,4.8-4.5,5.3C1029.7,1825.1,1030.9,1823.2,1031.1,1821.3z M1015.9,1833.3l1-14.5c0.3-3.9,2.2-7.3,5.4-9.1
						c-4.8,1-8.6,5.2-9,10.3l-1,14.5l22.7,1.5c0,0,0-0.6,0.1-1.5L1015.9,1833.3z"/>
				</g>
			</g>
			
				<rect x="916.4" y="1847.4" transform="matrix(0.9977 6.793126e-02 -6.793126e-02 0.9977 137.3236 -64.1017)" class="st33" width="189.6" height="279.4"/>
			
				<rect x="923.7" y="1855.9" transform="matrix(0.9977 6.793126e-02 -6.793126e-02 0.9977 137.3236 -64.1017)" class="st22" width="175" height="262.4"/>
			<path class="st30" d="M1089.2,1856.9l-137.6-9.4l1.1-16.7c0.1-1.4,1.4-2.5,2.8-2.4l132.4,9c1.4,0.1,2.5,1.4,2.4,2.8
				L1089.2,1856.9z"/>
			<path class="st34" d="M957.1,1845.1l0.6-8.2c0.2-3.2,1.7-5.9,4-7.8c-5.1,0.8-9.1,4.9-9.5,10.3l-0.6,8.2l137.6,9.4l0.2-2.8
				L957.1,1845.1z"/>
			<g>
				<polygon class="st18" points="961.8,1871 962.7,1873.3 965.1,1873.8 963.3,1875.4 963.5,1877.9 961.4,1876.6 959.2,1877.6 
					959.8,1875.2 958.1,1873.3 960.6,1873.2 				"/>
				<polygon class="st18" points="972.4,1871.8 973.4,1874 975.8,1874.5 973.9,1876.1 974.1,1878.6 972,1877.3 969.8,1878.3 
					970.4,1875.9 968.7,1874.1 971.2,1873.9 				"/>
				<polygon class="st18" points="983,1872.5 984,1874.8 986.4,1875.3 984.5,1876.9 984.8,1879.3 982.7,1878 980.4,1879 981,1876.6 
					979.3,1874.8 981.8,1874.6 				"/>
				<polygon class="st18" points="993.7,1873.2 994.6,1875.5 997,1876 995.1,1877.6 995.4,1880 993.3,1878.7 991,1879.7 
					991.6,1877.4 990,1875.5 992.4,1875.3 				"/>
				<polygon class="st35" points="1004.3,1873.9 1005.2,1876.2 1007.6,1876.7 1005.7,1878.3 1006,1880.8 1003.9,1879.5 
					1001.6,1880.5 1002.2,1878.1 1000.6,1876.2 1003,1876.1 				"/>
				<g>
					<g class="st36">
						<path class="st18" d="M986.5,1892.9l-32.9-2.2c-0.9-0.1-1.5-0.8-1.5-1.7s0.8-1.5,1.7-1.5l32.9,2.2c0.9,0.1,1.5,0.8,1.5,1.7
							C988.1,1892.3,987.4,1893,986.5,1892.9z"/>
						<path class="st18" d="M1084.8,1908.7l-71.4-4.9c-0.9-0.1-1.5-0.8-1.5-1.7c0.1-0.9,0.8-1.5,1.7-1.5l71.4,4.9
							c0.9,0.1,1.5,0.8,1.5,1.7C1086.5,1908.1,1085.7,1908.7,1084.8,1908.7z"/>
						<path class="st18" d="M1002.5,1903.1l-49.6-3.4c-0.9-0.1-1.5-0.8-1.5-1.7c0.1-0.9,0.8-1.5,1.7-1.5l49.6,3.4
							c0.9,0.1,1.5,0.8,1.5,1.7C1004.2,1902.5,1003.4,1903.1,1002.5,1903.1z"/>
						<path class="st18" d="M1084.2,1917.7l-131.9-9c-0.9-0.1-1.5-0.8-1.5-1.7c0.1-0.9,0.8-1.5,1.7-1.5l131.9,9
							c0.9,0.1,1.5,0.8,1.5,1.7C1085.8,1917.1,1085.1,1917.8,1084.2,1917.7z"/>
						<path class="st18" d="M1083.6,1926.8l-101.9-6.9c-0.9-0.1-1.5-0.8-1.5-1.7c0.1-0.9,0.8-1.5,1.7-1.5l101.9,6.9
							c0.9,0.1,1.5,0.8,1.5,1.7C1085.2,1926.2,1084.5,1926.8,1083.6,1926.8z"/>
						<path class="st18" d="M971.3,1919.1l-19.6-1.3c-0.9-0.1-1.5-0.8-1.5-1.7c0.1-0.9,0.8-1.5,1.7-1.5l19.6,1.3
							c0.9,0.1,1.5,0.8,1.5,1.7C972.9,1918.5,972.2,1919.2,971.3,1919.1z"/>
						<path class="st18" d="M1085.4,1899.6l-88.1-6c-0.9-0.1-1.5-0.8-1.5-1.7c0.1-0.9,0.8-1.5,1.7-1.5l88.1,6
							c0.9,0.1,1.5,0.8,1.5,1.7S1086.3,1899.7,1085.4,1899.6z"/>
					</g>
					<g class="st36">
						<path class="st18" d="M983.6,1935.8l-32.9-2.2c-0.9-0.1-1.5-0.8-1.5-1.7s0.8-1.5,1.7-1.5l32.9,2.2c0.9,0.1,1.5,0.8,1.5,1.7
							C985.2,1935.2,984.5,1935.9,983.6,1935.8z"/>
						<path class="st18" d="M1081.9,1951.6l-71.4-4.9c-0.9-0.1-1.5-0.8-1.5-1.7c0.1-0.9,0.8-1.5,1.7-1.5l71.4,4.9
							c0.9,0.1,1.5,0.8,1.5,1.7C1083.5,1951,1082.8,1951.7,1081.9,1951.6z"/>
						<path class="st18" d="M999.6,1946l-49.6-3.4c-0.9-0.1-1.5-0.8-1.5-1.7c0.1-0.9,0.8-1.5,1.7-1.5l49.6,3.4
							c0.9,0.1,1.5,0.8,1.5,1.7C1001.2,1945.4,1000.5,1946.1,999.6,1946z"/>
						<path class="st18" d="M1081.3,1960.7l-131.9-9c-0.9-0.1-1.5-0.8-1.5-1.7c0.1-0.9,0.8-1.5,1.7-1.5l131.9,9
							c0.9,0.1,1.5,0.8,1.5,1.7S1082.2,1960.7,1081.3,1960.7z"/>
						<path class="st18" d="M1080.7,1969.7l-101.9-6.9c-0.9-0.1-1.5-0.8-1.5-1.7c0.1-0.9,0.8-1.5,1.7-1.5l101.9,6.9
							c0.9,0.1,1.5,0.8,1.5,1.7C1082.3,1969.1,1081.5,1969.8,1080.7,1969.7z"/>
						<path class="st18" d="M968.4,1962.1l-19.6-1.3c-0.9-0.1-1.5-0.8-1.5-1.7c0.1-0.9,0.8-1.5,1.7-1.5l19.6,1.3
							c0.9,0.1,1.5,0.8,1.5,1.7C970,1961.5,969.3,1962.1,968.4,1962.1z"/>
						<path class="st18" d="M1082.5,1942.6l-88.1-6c-0.9-0.1-1.5-0.8-1.5-1.7c0.1-0.9,0.8-1.5,1.7-1.5l88.1,6
							c0.9,0.1,1.5,0.8,1.5,1.7S1083.4,1942.6,1082.5,1942.6z"/>
					</g>
					<g class="st36">
						<path class="st18" d="M980.7,1978.8l-32.9-2.2c-0.9-0.1-1.5-0.8-1.5-1.7s0.8-1.5,1.7-1.5l32.9,2.2c0.9,0.1,1.5,0.8,1.5,1.7
							S981.5,1978.8,980.7,1978.8z"/>
						<path class="st18" d="M1079,1994.6l-71.4-4.9c-0.9-0.1-1.5-0.8-1.5-1.7c0.1-0.9,0.8-1.5,1.7-1.5l71.4,4.9
							c0.9,0.1,1.5,0.8,1.5,1.7C1080.6,1994,1079.9,1994.6,1079,1994.6z"/>
						<path class="st18" d="M996.7,1989l-49.6-3.4c-0.9-0.1-1.5-0.8-1.5-1.7c0.1-0.9,0.8-1.5,1.7-1.5l49.6,3.4
							c0.9,0.1,1.5,0.8,1.5,1.7C998.3,1988.4,997.6,1989,996.7,1989z"/>
						<path class="st18" d="M1078.4,2003.6l-131.9-9c-0.9-0.1-1.5-0.8-1.5-1.7c0.1-0.9,0.8-1.5,1.7-1.5l131.9,9
							c0.9,0.1,1.5,0.8,1.5,1.7S1079.2,2003.7,1078.4,2003.6z"/>
						<path class="st18" d="M1077.7,2012.6l-101.9-6.9c-0.9-0.1-1.5-0.8-1.5-1.7s0.8-1.5,1.7-1.5l101.9,6.9c0.9,0.1,1.5,0.8,1.5,1.7
							S1078.6,2012.7,1077.7,2012.6z"/>
						<path class="st18" d="M965.5,2005l-19.6-1.3c-0.9-0.1-1.5-0.8-1.5-1.7c0.1-0.9,0.8-1.5,1.7-1.5l19.6,1.3
							c0.9,0.1,1.5,0.8,1.5,1.7C967.1,2004.4,966.3,2005.1,965.5,2005z"/>
						<path class="st18" d="M1079.6,1985.5l-88.1-6c-0.9-0.1-1.5-0.8-1.5-1.7c0.1-0.9,0.8-1.5,1.7-1.5l88.1,6
							c0.9,0.1,1.5,0.8,1.5,1.7C1081.2,1984.9,1080.5,1985.6,1079.6,1985.5z"/>
					</g>
					<g class="st36">
						<path class="st18" d="M977.7,2021.7l-32.9-2.2c-0.9-0.1-1.5-0.8-1.5-1.7s0.8-1.5,1.7-1.5l32.9,2.2c0.9,0.1,1.5,0.8,1.5,1.7
							S978.6,2021.8,977.7,2021.7z"/>
						<path class="st18" d="M1076.1,2037.5l-71.4-4.9c-0.9-0.1-1.5-0.8-1.5-1.7c0.1-0.9,0.8-1.5,1.7-1.5l71.4,4.9
							c0.9,0.1,1.5,0.8,1.5,1.7C1077.7,2036.9,1076.9,2037.6,1076.1,2037.5z"/>
						<path class="st18" d="M993.8,2031.9l-49.6-3.4c-0.9-0.1-1.5-0.8-1.5-1.7c0.1-0.9,0.8-1.5,1.7-1.5l49.6,3.4
							c0.9,0.1,1.5,0.8,1.5,1.7C995.4,2031.3,994.6,2032,993.8,2031.9z"/>
						<path class="st18" d="M1075.4,2046.5l-131.9-9c-0.9-0.1-1.5-0.8-1.5-1.7s0.8-1.5,1.7-1.5l131.9,9c0.9,0.1,1.5,0.8,1.5,1.7
							S1076.3,2046.6,1075.4,2046.5z"/>
						<path class="st18" d="M1074.8,2055.6l-101.9-6.9c-0.9-0.1-1.5-0.8-1.5-1.7s0.8-1.5,1.7-1.5l101.9,6.9c0.9,0.1,1.5,0.8,1.5,1.7
							S1075.7,2055.6,1074.8,2055.6z"/>
						<path class="st18" d="M962.5,2047.9l-19.6-1.3c-0.9-0.1-1.5-0.8-1.5-1.7c0.1-0.9,0.8-1.5,1.7-1.5l19.6,1.3
							c0.9,0.1,1.5,0.8,1.5,1.7C964.2,2047.3,963.4,2048,962.5,2047.9z"/>
						<path class="st18" d="M1076.7,2028.5l-88.1-6c-0.9-0.1-1.5-0.8-1.5-1.7c0.1-0.9,0.8-1.5,1.7-1.5l88.1,6
							c0.9,0.1,1.5,0.8,1.5,1.7C1078.3,2027.9,1077.5,2028.5,1076.7,2028.5z"/>
					</g>
					<g class="st36">
						<path class="st18" d="M974.8,2064.7l-32.9-2.2c-0.9-0.1-1.5-0.8-1.5-1.7c0.1-0.9,0.8-1.5,1.7-1.5l32.9,2.2
							c0.9,0.1,1.5,0.8,1.5,1.7C976.5,2064.1,975.7,2064.7,974.8,2064.7z"/>
						<path class="st18" d="M1073.1,2080.4l-71.4-4.9c-0.9-0.1-1.5-0.8-1.5-1.7c0.1-0.9,0.8-1.5,1.7-1.5l71.4,4.9
							c0.9,0.1,1.5,0.8,1.5,1.7S1074,2080.5,1073.1,2080.4z"/>
						<path class="st18" d="M990.8,2074.8l-49.6-3.4c-0.9-0.1-1.5-0.8-1.5-1.7c0.1-0.9,0.8-1.5,1.7-1.5l49.6,3.4
							c0.9,0.1,1.5,0.8,1.5,1.7S991.7,2074.9,990.8,2074.8z"/>
						<path class="st18" d="M1072.5,2089.5l-131.9-9c-0.9-0.1-1.5-0.8-1.5-1.7s0.8-1.5,1.7-1.5l131.9,9c0.9,0.1,1.5,0.8,1.5,1.7
							S1073.4,2089.5,1072.5,2089.5z"/>
						<path class="st18" d="M1071.9,2098.5l-101.9-6.9c-0.9-0.1-1.5-0.8-1.5-1.7c0.1-0.9,0.8-1.5,1.7-1.5l101.9,6.9
							c0.9,0.1,1.5,0.8,1.5,1.7S1072.8,2098.6,1071.9,2098.5z"/>
						<path class="st18" d="M959.6,2090.9l-19.6-1.3c-0.9-0.1-1.5-0.8-1.5-1.7s0.8-1.5,1.7-1.5l19.6,1.3c0.9,0.1,1.5,0.8,1.5,1.7
							C961.2,2090.3,960.5,2090.9,959.6,2090.9z"/>
						<path class="st18" d="M1073.7,2071.4l-88.1-6c-0.9-0.1-1.5-0.8-1.5-1.7s0.8-1.5,1.7-1.5l88.1,6c0.9,0.1,1.5,0.8,1.5,1.7
							C1075.4,2070.8,1074.6,2071.5,1073.7,2071.4z"/>
					</g>
				</g>
			</g>
		</g>
		<path class="st26" d="M1056.8,2020.3l-7,43.2c0,0,58.9,20,74,11.3c15.1-8.6,13.5-68.1,13.5-68.1S1142.7,1978.2,1056.8,2020.3z"/>
		<path class="st37" d="M870.7,1839.9c0,0-0.3,1.3-0.7,3.7c-3.8,19.1-30,102.7-36.5,133.2c-1.3,6.1,0,4.1,0,4.1
			s170.4,12.4,223.4,39.4c0,0-125.9-47.2-201.2-44C855.6,1976.4,867.7,1885.5,870.7,1839.9z"/>
		<path class="st37" d="M821.9,2072.5l227.9-8.9c0,0-198.9,51.3-226.4,48.1L821.9,2072.5z"/>
		<path class="st24" d="M799.4,1985.7c0,0,131.5-10.2,257.4,34.6l-7,43.2c0,0-237.5,16.3-296.6,3.3L799.4,1985.7z"/>
		<polygon class="st38" points="1186.8,1697.3 1190.8,1755.6 1201.9,1749.4 		"/>
		<polygon class="st29" points="1054.7,2327.7 1069.1,2273.7 1086,2433.2 		"/>
		<polygon class="st39" points="1538.5,1466.4 1577.1,1521.1 1635.7,1477.6 1607.3,1433.5 		"/>
		<polygon class="st39" points="1006,2005.1 1000.2,2064.7 1049.8,2063.5 1056.8,2017.8 		"/>
		<path class="st27" d="M887.7,1501.3c0,0,16,26.3,43,15.8l-28.7,13.5C902,1530.6,890.7,1515.5,887.7,1501.3z"/>
		<path class="st28" d="M1016.2,1325.7c0,0,10.6-65.3-107-33.5c0,0,126.3-74.1,167.8,56.6l4.8,27
			C1081.7,1375.8,1060.9,1318.3,1016.2,1325.7z"/>
		<path class="st28" d="M889.3,1506.9c0,0-20.2,26.6-46.1,7.4c0,0,51.3,73.6,106.7,77.2l6.5-4.7
			C956.4,1586.8,906.6,1553.5,889.3,1506.9z"/>
		<path class="st40" d="M1089,1469.1c-4.1,0-8.5-0.7-13-2.1c-21.6-6.9-25.1-27.3-25.2-28.2l-0.2-1.5l0.9-1.2
			c1-1.3,24.7-31.7,63.7-22.4l1,0.2l0.7,0.8c0.5,0.5,12.4,13.5,5.9,30.8C1118,1458.5,1105.5,1469.1,1089,1469.1z M1058.1,1439.2
			c1.1,4.3,5.6,16.5,20.1,21.1c18.6,5.9,33.2-4.2,38.1-17.2c4.2-11.2-1.8-20.2-3.8-22.8C1082.6,1413.9,1062.7,1434,1058.1,1439.2z"
			/>
		<path class="st40" d="M996.6,1497.9c-4.1,0-8.5-0.7-13-2.1c-21.6-6.9-25.1-27.3-25.2-28.2l-0.2-1.5l0.9-1.2
			c1-1.3,24.6-31.6,63.7-22.4l1,0.2l0.7,0.8c0.5,0.5,12.4,13.5,5.9,30.8C1025.6,1487.2,1013.1,1497.9,996.6,1497.9z M965.6,1467.9
			c1.1,4.3,5.6,16.5,20.1,21.1c18.6,5.9,33.2-4.2,38.1-17.2c4.2-11.2-1.8-20.2-3.8-22.8C990.1,1442.6,970.2,1462.7,965.6,1467.9z"/>
		<path class="st40" d="M1024.7,1448.1l-5.6-4.3c6.1-7.8,21.7-19.6,37.2-8.3l-4.2,5.7C1038.3,1431,1025.2,1447.4,1024.7,1448.1z"/>
		<path class="st27" d="M987.4,1598.4c0,0,33.9,5.1,64.1-4.2l-14.3,5.6l-0.2,26.1C1037,1625.9,1023.1,1608.1,987.4,1598.4z"/>
		<path class="st27" d="M1056.6,2021.7c0,0,11.4,45.7,46.1,54.7l-52.9-12.9L1056.6,2021.7z"/>
		<path class="st27" d="M1612.7,1441.9l10.3-7.5c0,0,11.6,31.9,51.4,26.2l-39.7,15.5L1612.7,1441.9z"/>
		<path class="st27" d="M1827.8,1376.2c0,0-35.1,29.6-85.1,57.3c0,0,2.3,16.3,17.3,18.9c0,0-44-3.5-24.4-26.1
			C1755.2,1403.7,1827.8,1376.2,1827.8,1376.2z"/>
		<path class="st18" d="M964.3,1673.5c0,0,31.4,24.8,51.2,28.6l44-21c0,0,3.8,23.3-2.7,53.2c0,0-25.3-29.5-41.4-32.2
			c0,0-26.1,16.8-36.1,32.2C979.3,1734.3,965.3,1701,964.3,1673.5z"/>
	</g>
	<g>
		<path class="st28" d="M4274.5,2080.3c0,0-107.5,39.5-86.4,114.8c0,0,5.9,18.1,38.9,29.4c0,0,15.6-109.8,96.6-146L4274.5,2080.3z"
			/>
		<path class="st41" d="M3289.6,2696.2c0,0-20.1,170.8-275.7,447.2c-12.3,13.2-18.3,31.2-16.5,49.1l5.8,57.9l-122.5,119l-14.2-32
			c0,0,62.1-92.4,85.9-178.8c23.8-86.4,152.3-399.8,152.3-399.8s211.8-219.3,244.2-213.9c32.4,5.4,61.6,65.9,61.6,65.9l-52.9,116.7
			L3289.6,2696.2z"/>
		<path class="st27" d="M3410.7,2623.5c0,0-71.9-22.4-89.1-6.2c-32.4,30.4-155.6,177.7-242.2,204.4l29.6-73.4
			C3108.9,2748.3,3351.2,2441.4,3410.7,2623.5z"/>
		<path class="st26" d="M3422.5,2495.2c0,0-41.1-31.3-89.7-33.5c-48.6-2.2-420.3,344.7-420.3,344.7s-106,68.7-152.7,116.3
			c-14.9,15.1-33.6,22.6-55.1,24.8c-29.3,2.9-54.3-3.4-54.3-3.4s37.4,60,82.7,55.7c45.4-4.3,154.5-69.2,154.5-69.2
			s-5.4-61.7,91.8-82.1s278.3-145,337.1-261.5c0,0,103.7,24.9,114.5,9.7S3422.5,2495.2,3422.5,2495.2z"/>
		<path class="st26" d="M3702.4,2101.9c0,0,24.9,304.7,84.3,329.5c59.4,24.9,162.1-86.4,169.6-103.7c0,0-119.9,19.4-138.3,8.6
			c0,0-35.7-171.8-73.5-258.2c0,0,15.9-86.7-3.1-118.7c0,0-9.7-16.2-11.8,15c-2,31.2-16.6,38.1-51.1,15.4
			c-34.4-22.7-77.4-36.1-84.3-31.6s-10.5,30.4,20.3,68.1C3645.4,2063.9,3673.9,2095.7,3702.4,2101.9z"/>
		<path class="st27" d="M3889.3,2363.4c0,0-50.9,81.8-106.6,30s-58.4-124.1-58.4-124.1s14.8,143.2,65.6,159.4
			c50.8,16.2,105.9-40,105.9-40L3889.3,2363.4z"/>
		<path class="st26" d="M4152.7,1837.2c0,0-67.8,7-104,90.8c0,0-24,17.9-50.8,25.3c0,0-14.6,13.3,17,25.9c0,0-6.5,12.6-6.5,19.2
			c0,6.7-13.9,56.9-13.9,56.9s-6.4,26.6,32.5,36.2s81.8,17,81,46.6c-0.8,29.6-42.9,104.3-42.9,104.3s63.2,41.4,97.2,13.3
			c0,0-19.4-59.9,45.4-132.4c64.8-72.5,26.7-212.2,26.7-212.2L4152.7,1837.2z"/>
		<path class="st27" d="M4171.4,2027.4c0,0-37.2,63.4,0,151.7l17.4-35.7L4171.4,2027.4z"/>
		<path class="st21" d="M2706.2,2944.7c-10-2.5-20-5.1-30-7.6c-6.4-1.6-12.8-3-19.4-3.1c-3.8-0.1-7.4,0.4-9.7,3.3
			c-4.5,5.4-4.4,10.8,0.5,16.8c7.1,8.7,16,16,24.7,23.5c6.8,5.9,13.9,11.5,21.9,16c19.7,11,39.9,13.8,60.7,9.4
			c6.6-1.4,12.8-3.7,18.8-6.3c22.4-9.4,46.5-13.2,72.4-11.4c4.7,0.3,6.5,2,7,6.2c0.6,5.8-0.9,11.1-2.6,16.4
			c-4.8,15-11.7,29-19.3,42.8c-0.7,1.2-0.5,1.8,1,2.3c2.2,0.8,4.5,2.5,6.3,2.3c1.7-0.3,1.8-3,2.6-4.7c5.5-11.8,11.3-23.4,18.5-34.3
			c6.8-10.3,14.7-20,23.1-29.2c9.4-10.4,15.9-22.2,17-36.3c0.6-7.1-0.3-14.1-4-20.9c-2.6-4.8-4.9-6.2-10.4-5.6
			c-3.8,0.4-7.8,0.7-11.4,1.9c-0.3,0.5-0.7,0.2-1.1,0l0,0c-0.4,0.7-1.2,0.7-1.8,0.8c-9.6,2.8-19.1,5.8-28.5,9
			c-11.5,4-22.9,8.3-34.1,12.8c-11.6,4.7-22.5,10.3-34.3,14.8c-11.6,4.4-23.5,7.9-36.8,7.6c-11-0.2-20.8-3.7-28.6-11.7
			C2703.7,2953.7,2702.8,2949.2,2706.2,2944.7z"/>
		<path class="st21" d="M2874.3,3326.6c-9.2,4.6-18.5,9.1-27.7,13.7c-5.9,3-11.7,6-16.8,10.2c-2.9,2.4-5.3,5.1-5.3,8.8
			c0.1,7.1,3.6,11.1,11.3,12.5c11.1,2,22.6,1.8,34,1.9c9,0.1,18-0.2,27.1-2c22.1-4.4,39.4-15.4,52.3-32.2c4.1-5.4,7.3-11.1,10.3-17
			c10.9-21.6,26.9-40.2,47.7-55.6c3.8-2.8,6.3-2.7,9.4,0.2c4.2,4,6.5,9,8.7,14.1c6,14.5,9.9,29.7,13.1,45.1c0.3,1.4,0.8,1.7,2.3,1.1
			c2.1-0.8,5.1-1,6.3-2.4c1.2-1.3-0.6-3.5-1-5.3c-3.4-12.5-6.5-25.1-8.1-38.1c-1.5-12.3-1.7-24.7-1.4-37.2
			c0.4-14-2.3-27.2-10.6-38.7c-4.1-5.7-9.3-10.6-16.6-13.4c-5.1-2-7.7-1.6-11.6,2.5c-2.7,2.8-5.5,5.5-7.4,8.8
			c0.1,0.6-0.4,0.6-0.8,0.7l0,0c0.1,0.7-0.5,1.3-0.9,1.8c-5.5,8.3-10.8,16.8-15.8,25.3c-6.2,10.5-12.1,21.1-17.7,31.8
			c-5.8,11.1-10.5,22.5-16.5,33.5c-6,10.8-12.7,21.2-23.1,29.6c-8.5,6.9-18.2,10.6-29.4,9.6
			C2878.2,3335.1,2874.6,3332.2,2874.3,3326.6z"/>
		<path class="st18" d="M3422.5,2495.2c0,0-76.5,160.6-86.7,222.3c0,0,167.7,127.3,290.9,156.5s363.9,49.4,403.6-38.1
			c39.7-87.5,39.7-105,39.7-105l-282.8-132.5c0,0-7.3,32.4-25.9,32.4S3506,2507.1,3422.5,2495.2z"/>
		<path class="st42" d="M3779.1,2610.5c0,0,224.5,121,171,187.5c-53.5,66.4-387.3,54.3-387.3,54.3s473.2,75.2,502.4-63.5
			c15.6-74-98.3-151.5-98.3-151.5L3779.1,2610.5z"/>
		<path class="st21" d="M4073.5,2223.3c0,0,21.5,35.9,88,27.6c0,0,41.4,92.8-18.6,293.9c-60,201.1-69.5,212.4-69.5,212.4
			s-221.4-92.4-247.4-118.3s-46.1-22.1-46.1-22.1s-40.6-5.5,42-106c0,0,29.2-70.5,43.8-126.4c14.6-55.9,111-67.3,154.8-126.4
			C4064.4,2198.9,4073.5,2223.3,4073.5,2223.3z"/>
		<g>
			<path class="st43" d="M3979.5,2956.8l140.6,397.2c0,0-5.5,31.4-31.7,8.8l-198.7-393.5L3979.5,2956.8z"/>
			<path class="st44" d="M3900.9,2971.2l1.1,5.1l64.8,297.9c0,0-9.6,40.8-35.8,7l-88.8-290.3L3900.9,2971.2z"/>
			<path class="st43" d="M3889.7,2980.7l-2.6,6.8l-150.3,398c0,0-42.7,42.8-48.3-14.4l115.8-404.2L3889.7,2980.7z"/>
			<path class="st44" d="M3820,2939.2l-2.8,5.7l-163.1,330.2c0,0-39.2,33.4-37.8-16.3l135.7-338.3L3820,2939.2z"/>
			<g>
				<path class="st45" d="M4123.3,2594.3c0,0,59.6,390.1-217.5,407.1c0,0-161.3,12.3-362.9-144.3c0,0,77.1-27.3,283.3-0.9
					C4073.4,2887.9,4123.3,2594.3,4123.3,2594.3z"/>
				<path class="st46" d="M4115.8,2803.9c0,0-37.6,351.5-489.2,110.6C3626.6,2914.5,3968,3054.5,4115.8,2803.9z"/>
			</g>
		</g>
		<path class="st18" d="M4112.9,1851.7c0,0,38.2-16,49.7-5.7c0,0-36.8,63-15,100.2c21.9,37.3-27.6,78.3-27.6,78.3
			s49.8-37.3,52.2-10.5s-38.1,131.3,42.9,170.2c0,0,8.1-69.5,68.6-81c98.3-18.7,114.9-274.7-94.9-292.6
			C4188.7,1810.7,4101.6,1803.7,4112.9,1851.7z"/>
		<path class="st47" d="M3816.9,2514.6l-9,14c0,0,53.8,41,121.3,0c67.5-41,70.8-50.2,70.8-50.2l-13-14.1
			C3987.1,2464.3,3915.2,2545.4,3816.9,2514.6z"/>
		<path class="st26" d="M3929.8,2399l63.2,72.1l-95.6,57.5c0,0-38.9,34-179.9-57.5c-141-91.6-154.5-79.5-154.5-79.5
			s-42.4,6.3-82.1-0.4c0,0-56.4,3.2-77.7-10.6c0,0-18.3-12,10.5-19.7c28.8-7.7,59.6-7.7,59.6-7.7s8.2-2.3-17.7-9.6
			c-16.4-4.6-35.2,0.6-46.9,5c-3.1,1.2-5.8-2.6-3.6-5.1c9.1-10.5,25.8-24.6,45.6-18.5c20.7,6.3,46.1,6,60.3,5.1
			c5.4-0.3,9.2-5.4,7.9-10.7c-2.7-10.6-5-27,3.4-34.3c0,0,9.4-0.4,11.3,8c8.4,35.1,36.5,57.4,36.5,57.4s183.7,37.2,290.7,80.4
			C3860.7,2430.9,3901.9,2447.2,3929.8,2399z"/>
		<path class="st47" d="M4000.1,2478.4l54-40.5c0,0-27.1,57.3-147.8,101.8L4000.1,2478.4z"/>
		<path class="st47" d="M3929.8,2399l-19.5,23.1c0,0-5.4-18.2,19.5-43.6c24.9-25.4,60.5-49.2,60.5-49.2L3929.8,2399z"/>
		<path class="st27" d="M3612.3,1959.6c0,0,47.2,31,63.9,49.7C3676.2,2009.2,3655,2003.5,3612.3,1959.6z"/>
		<path class="st27" d="M3594,1959.6c0,0,53.2,35.6,72,57C3665.9,2016.5,3642.1,2009.9,3594,1959.6z"/>
		<path class="st27" d="M3589.6,1973.6c0,0,40.9,28,59.6,49.4C3649.2,2023,3637.7,2024,3589.6,1973.6z"/>
		<path class="st27" d="M3606,2014.8c0,0,80.2,84.4,97.2,84.1c17-0.3,5.1,60.9,5.1,60.9l-5.9-56.7
			C3702.5,2103.1,3669.8,2101.9,3606,2014.8z"/>
	</g>
</g>
</svg>
