<?xml version="1.0" encoding="utf-8"?>
<!-- Generator: Adobe Illustrator 24.1.0, SVG Export Plug-In . SVG Version: 6.00 Build 0)  -->
<svg version="1.1" id="Capa_1" xmlns="http://www.w3.org/2000/svg" xmlns:xlink="http://www.w3.org/1999/xlink" x="0px" y="0px"
	 viewBox="0 0 5000 3575.6" style="enable-background:new 0 0 5000 3575.6;" xml:space="preserve">
<style type="text/css">
	.st0{opacity:0.42;fill:#FE7101;enable-background:new    ;}
	.st1{opacity:0.8;fill:#F32735;enable-background:new    ;}
	.st2{fill:#514F4F;}
	.st3{fill:#3F3F3F;}
	.st4{fill:#353535;}
	.st5{fill:#C23825;}
	.st6{fill:#7C7C7C;}
	.st7{fill:#E01B07;}
	.st8{fill:#C12000;}
	.st9{fill:#771704;}
	.st10{fill:#CEE4F4;}
	.st11{fill:#EAF2F9;}
	.st12{opacity:0.56;}
	.st13{fill:#D3DDEF;}
	.st14{fill:#D4E0F4;}
	.st15{opacity:0.71;fill:#C6D2EB;}
	.st16{opacity:0.71;}
	.st17{fill:#C6D2EB;}
	.st18{fill:#7DAFBC;}
	.st19{fill:#5592A0;}
	.st20{fill:#A7C7D2;}
	.st21{fill:#E6515B;}
	.st22{fill:#FFFFFF;}
	.st23{fill:#4F81A3;}
	.st24{fill:#B03E45;}
	.st25{fill:#2D2E75;}
	.st26{fill:#14204C;}
	.st27{fill:none;}
	.st28{fill:#F2727E;}
	.st29{fill:#3C4F87;}
	.st30{fill:#5364A0;}
	.st31{fill:#2C406D;}
	.st32{fill:#F1A080;}
	.st33{fill:#1D2956;}
	.st34{fill:#121E44;}
	.st35{fill:#232F63;}
	.st36{fill:#86ADB7;}
	.st37{fill:#6595A0;}
	.st38{fill:#FAC2AE;}
	.st39{fill:#468391;}
	.st40{fill:#231F20;}
</style>
<path class="st0" d="M209.6-69.2H60.1c-3.7,0-6.6-3-6.6-6.6v-149.5c0-3.7,3-6.6,6.6-6.6h149.5c3.7,0,6.6,3,6.6,6.6v149.5
	C216.3-72.2,213.3-69.2,209.6-69.2z"/>
<path class="st1" d="M460.9-69.2H311.4c-3.7,0-6.6-3-6.6-6.6v-149.5c0-3.7,3-6.6,6.6-6.6h149.5c3.7,0,6.6,3,6.6,6.6v149.5
	C467.5-72.2,464.5-69.2,460.9-69.2z"/>
<path class="st2" d="M724-69.2H574.6c-3.7,0-6.6-3-6.6-6.6v-149.5c0-3.7,3-6.6,6.6-6.6H724c3.7,0,6.6,3,6.6,6.6v149.5
	C730.7-72.2,727.7-69.2,724-69.2z"/>
<path class="st3" d="M988.1-69.2H838.7c-3.7,0-6.6-3-6.6-6.6v-149.5c0-3.7,3-6.6,6.6-6.6h149.5c3.7,0,6.6,3,6.6,6.6v149.5
	C994.8-72.2,991.8-69.2,988.1-69.2z"/>
<path class="st4" d="M1231.7-69.2h-149.5c-3.7,0-6.6-3-6.6-6.6v-149.5c0-3.7,3-6.6,6.6-6.6h149.5c3.7,0,6.6,3,6.6,6.6v149.5
	C1238.3-72.2,1235.3-69.2,1231.7-69.2z"/>
<rect x="3754.5" y="-232" class="st5" width="162.8" height="162.8"/>
<rect x="4005.7" y="-232" class="st2" width="162.8" height="162.8"/>
<rect x="4268.9" y="-232" class="st3" width="162.8" height="162.8"/>
<rect x="2981.9" y="-232" class="st0" width="162.8" height="162.8"/>
<rect x="3233.2" y="-232" class="st6" width="162.8" height="162.8"/>
<rect x="3496.3" y="-232" class="st6" width="162.8" height="162.8"/>
<rect x="4533" y="-232" class="st4" width="162.8" height="162.8"/>
<rect x="4776.5" y="-232" class="st4" width="162.8" height="162.8"/>
<rect x="3747.2" y="-485.5" class="st5" width="162.8" height="162.8"/>
<rect x="3998.5" y="-485.5" class="st2" width="162.8" height="162.8"/>
<rect x="4261.7" y="-485.5" class="st3" width="162.8" height="162.8"/>
<rect x="2974.7" y="-485.5" class="st0" width="162.8" height="162.8"/>
<rect x="3225.9" y="-485.5" class="st6" width="162.8" height="162.8"/>
<rect x="3489.1" y="-485.5" class="st6" width="162.8" height="162.8"/>
<rect x="4525.8" y="-485.5" class="st4" width="162.8" height="162.8"/>
<rect x="4769.3" y="-485.5" class="st4" width="162.8" height="162.8"/>
<path class="st0" d="M209.6-322.7H60.1c-3.7,0-6.6-3-6.6-6.6v-149.5c0-3.7,3-6.6,6.6-6.6h149.5c3.7,0,6.6,3,6.6,6.6v149.5
	C216.3-325.7,213.3-322.7,209.6-322.7z"/>
<path class="st5" d="M460.9-322.7H311.4c-3.7,0-6.6-3-6.6-6.6v-149.5c0-3.7,3-6.6,6.6-6.6h149.5c3.7,0,6.6,3,6.6,6.6v149.5
	C467.5-325.7,464.5-322.7,460.9-322.7z"/>
<path class="st7" d="M724-322.7H574.6c-3.7,0-6.6-3-6.6-6.6v-149.5c0-3.7,3-6.6,6.6-6.6H724c3.7,0,6.6,3,6.6,6.6v149.5
	C730.7-325.7,727.7-322.7,724-322.7z"/>
<path class="st8" d="M988.1-322.7H838.7c-3.7,0-6.6-3-6.6-6.6v-149.5c0-3.7,3-6.6,6.6-6.6h149.5c3.7,0,6.6,3,6.6,6.6v149.5
	C994.8-325.7,991.8-322.7,988.1-322.7z"/>
<path class="st9" d="M1231.7-322.7h-149.5c-3.7,0-6.6-3-6.6-6.6v-149.5c0-3.7,3-6.6,6.6-6.6h149.5c3.7,0,6.6,3,6.6,6.6v149.5
	C1238.3-325.7,1235.3-322.7,1231.7-322.7z"/>
<g>
	<g>
		<g>
			<g>
				<path class="st10" d="M3890.9,2759.9c7.4,1.6,15.3,2,19.7,1.8c84.4-3.4,169.2-1.4,253.7-1.1c7.9,0,16.3-0.1,22.9-3.8
					c40.6-23.3-51.3-25-59.9-25c-32.6,0-65.2,0-97.8,0c-44.5,0-80.9,1.6-133.1,3c-6.4,0.2-18.4,0.5-21.3,5.5
					C3868.6,2751.7,3879.2,2757.3,3890.9,2759.9z"/>
			</g>
		</g>
		<g>
			<g>
				<path class="st10" d="M3949.5,3020.2c20,3.9,55.7,3,60,3.1c37.4,0,74.8,0.1,112.2,0.3c4.8,0,9.8,0,14.3-1.4
					c4.5-1.5,8.6-4.8,9.1-9c1.5-11.8-186.2-18.9-203.4-7.1C3930.8,3013.5,3937.1,3017.7,3949.5,3020.2z"/>
			</g>
		</g>
		<g>
			<g>
				<polygon class="st10" points="4130.8,3012.7 4186,2746 4179.5,2745 4124.3,3011.7 				"/>
			</g>
		</g>
		<g>
			<g>
				<polygon class="st10" points="3947.2,3012.7 3953.7,3011.7 3898.5,2745 3892,2746 				"/>
			</g>
		</g>
		<g>
			<g>
				<polygon class="st10" points="4172.1,2794.1 4173.8,2791.6 4084.7,2745.5 4083,2748 				"/>
			</g>
		</g>
		<g>
			<g>
				<polygon class="st10" points="4164.5,2830.8 4166.2,2828.3 4018.6,2752.4 4016.9,2754.8 				"/>
			</g>
		</g>
		<g>
			<g>
				<polygon class="st10" points="4154.3,2880.1 4156,2877.7 3942.8,2759.1 3941.1,2761.5 				"/>
			</g>
		</g>
		<g>
			<g>
				<polygon class="st10" points="4144.2,2929 4145.9,2926.5 3907,2796.8 3905.2,2799.3 				"/>
			</g>
		</g>
		<g>
			<g>
				<polygon class="st10" points="4135.2,2972.7 4136.8,2970.2 3921.5,2867.4 3919.9,2869.9 				"/>
			</g>
		</g>
		<g>
			<g>
				<polygon class="st10" points="4090.7,3012.9 4092.4,3010.5 3934.1,2928.1 3932.4,2930.5 				"/>
			</g>
		</g>
		<g>
			<g>
				<polygon class="st10" points="4011.6,3013 4013.2,3010.5 3944.3,2977.5 3942.7,2980 				"/>
			</g>
		</g>
		<g>
			<g>
				<polygon class="st10" points="3907.5,2798.8 3949.2,2740.4 3946.4,2738.9 3904.7,2797.3 				"/>
			</g>
		</g>
		<g>
			<g>
				<polygon class="st10" points="3915.6,2838.1 3990,2747.6 3987.3,2745.9 3912.9,2836.4 				"/>
			</g>
		</g>
		<g>
			<g>
				<polygon class="st10" points="3925.4,2885.5 4036.7,2747.6 4034,2745.9 3922.7,2883.9 				"/>
			</g>
		</g>
		<g>
			<g>
				<polygon class="st10" points="3934.6,2930.2 4092.9,2751.6 4090.3,2749.9 3932,2928.4 				"/>
			</g>
		</g>
		<g>
			<g>
				<polygon class="st10" points="3941.8,2965.3 4137.6,2754.5 4135,2752.7 3939.3,2963.5 				"/>
			</g>
		</g>
		<g>
			<g>
				<polygon class="st10" points="3951.6,3004.1 4181.1,2760.4 4178.6,2758.6 3949,3002.3 				"/>
			</g>
		</g>
		<g>
			<g>
				<polygon class="st10" points="4005.4,3004.2 4162.4,2850.7 4159.9,2848.8 4002.9,3002.3 				"/>
			</g>
		</g>
		<g>
			<g>
				<polygon class="st10" points="4058,3012.6 4151,2906.3 4148.3,2904.6 4055.3,3010.8 				"/>
			</g>
		</g>
		<g>
			<g>
				<polygon class="st10" points="4099.7,3012.6 4137.3,2972.3 4134.7,2970.5 4097.1,3010.8 				"/>
			</g>
		</g>
	</g>
	<g>
		<path class="st11" d="M456.9,2903.5h4161.6c0,0,611.2-1463.2-52.2-1769.8C3973.2,859.7,4190.3,47.6,3356,141.4
			s-885.4,368.5-1724.6,311.2C383.8,367.4-383,1122.1,345.5,2164.9C529.5,2428.3,544,2695.4,456.9,2903.5z"/>
		<g class="st12">
			<g>
				<path class="st13" d="M777.1,2627.7c0,4.9-21.2,8.8-47.2,8.8c-26.1,0-47.2-3.9-47.2-8.8c0-4.8,21.1-8.8,47.2-8.8
					C756,2618.9,777.1,2622.9,777.1,2627.7z"/>
				<path class="st13" d="M777.1,2878c0,4.9-21.2,8.8-47.2,8.8c-26.1,0-47.2-3.9-47.2-8.8c0-4.9,21.1-8.8,47.2-8.8
					C756,2869.2,777.1,2873.1,777.1,2878z"/>
				<rect x="682.6" y="2627.7" class="st13" width="94.5" height="250.3"/>
			</g>
			<g>
				<path class="st13" d="M730.5,2652.5l-3.1,0c0-1.2,1-123.9-31.2-199.2l2.8-1.5C731.4,2527.8,730.5,2651.3,730.5,2652.5z"/>
			</g>
			<path class="st13" d="M686.2,2387.2l16.5-12.7c-5.7-16.4-14.2-34.1-26.4-52.6H668l3.6-6.7c-8.5-12-18.5-24.3-30.5-36.8
				c0,0,1.5,30.8,8.2,68.8h13l-11.9,6.2c1.5,8.2,3.3,16.6,5.3,25.1l15.4-3.3l-13.1,12.4c9.8,37,25.1,73.3,48.9,90.3
				c0,0,14.8-37.8-1-92.8L686.2,2387.2z"/>
			<g>
				<path class="st13" d="M730.1,2662.6c0-1.5-1.2-150.4,38-242.2l2.8,1.5c-38.9,91-37.7,239.1-37.7,240.6L730.1,2662.6z"/>
			</g>
			<path class="st13" d="M783.3,2342.3l-19.9-15.3c6.9-19.8,17.1-41.1,31.9-63.5h9.9l-4.4-8.1c10.2-14.5,22.3-29.3,36.8-44.4
				c0,0-1.8,37.2-9.8,83h-15.7l14.3,7.4c-1.8,9.9-4,20-6.5,30.3l-18.6-3.9l15.8,15c-11.8,44.7-30.3,88.5-59,109
				c0,0-17.8-45.7,1.2-112L783.3,2342.3z"/>
		</g>
		<rect x="312" y="2879.7" class="st14" width="4537.6" height="28.8"/>
	</g>
	
		<ellipse transform="matrix(1.034026e-03 -1 1 1.034026e-03 -543.8335 6019.7563)" class="st15" cx="2741.1" cy="3282.1" rx="175.7" ry="2123.5"/>
	<g class="st16">
		<g>
			<path class="st17" d="M1125.9,2824.8c103.8-58.4,185.7-164.9,224.8-292.2l-8-3.9c-38.2,124.6-118.5,228.9-220.2,286.2
				L1125.9,2824.8z"/>
			<g>
				<g>
					<path class="st17" d="M1335,2564.6c15-16,24.7-39.1,26.8-63.6c0.5-6,0.4-12.9-3.2-17.4c-1-1.2-2.2-2.3-3.6-2.4
						c-2.2-0.3-4.1,1.7-5.5,3.8c-7.3,10.7-9.4,25.5-10.1,39.7C1338.8,2538.8,1336.7,2549.3,1335,2564.6"/>
				</g>
				<g>
					<path class="st17" d="M1315.6,2608.1c8.2-22.2,9.4-48.5,3.2-72.6c-1.5-5.9-3.9-12.2-8.6-14.8c-1.3-0.7-2.7-1.1-4-0.5
						c-2.1,0.8-3.1,3.6-3.7,6.2c-3.1,13.6-0.1,28.4,4,42.1C1310.6,2582.1,1312.1,2592.9,1315.6,2608.1"/>
				</g>
				<g>
					<path class="st17" d="M1286.6,2661.7c10.5-20.7,14.3-46.5,10.5-71.1c-0.9-6-2.7-12.7-7-15.9c-1.2-0.9-2.6-1.4-4-1.1
						c-2.2,0.5-3.4,3.1-4.3,5.5c-4.4,13-2.9,28-0.3,42.1C1284.2,2635.3,1284.6,2646.1,1286.6,2661.7"/>
				</g>
				<g>
					<path class="st17" d="M1252.6,2708.7c10.5-20.7,14.3-46.5,10.5-71.1c-0.9-6-2.7-12.7-7-15.9c-1.2-0.9-2.6-1.4-4-1.1
						c-2.2,0.5-3.4,3.1-4.3,5.5c-4.4,13-2.9,28-0.3,42.1C1250.2,2682.3,1250.6,2693.1,1252.6,2708.7"/>
				</g>
				<g>
					<path class="st17" d="M1200.9,2763c12.2-19.2,18.2-44.2,16.6-69c-0.4-6.1-1.6-12.9-5.7-16.6c-1.1-1-2.5-1.8-3.9-1.6
						c-2.2,0.2-3.7,2.6-4.8,4.9c-5.5,12.3-5.3,27.4-3.9,41.6C1200.8,2736.6,1200.3,2747.4,1200.9,2763"/>
				</g>
				<g>
					<path class="st17" d="M1160.1,2797.8c12.1-17.1,19.3-40.8,20-65.6c0.2-6.1-0.3-12.9-3.6-17.2c-0.9-1.2-2-2.1-3.2-2.2
						c-1.9-0.1-3.4,2-4.5,4.1c-5.8,11.3-6.8,26.2-6.7,40.5C1162.1,2771.7,1160.8,2782.3,1160.1,2797.8"/>
				</g>
				<g>
					<path class="st17" d="M1305.7,2627.3c20.9,4,43.1-1.4,61.1-14.9c4.4-3.3,9-7.8,9.6-13.9c0.2-1.7,0-3.5-0.8-4.9
						c-1.3-2.2-3.9-2.7-6.2-2.8c-12.2-0.1-23.6,7.3-33.7,15.5C1325.7,2614.6,1317.3,2619.2,1305.7,2627.3"/>
				</g>
				<g>
					<path class="st17" d="M1282.2,2667.8c19.8,9.9,42.6,11.2,63,3.5c5-1.9,10.3-4.8,12.2-10.6c0.5-1.6,0.7-3.4,0.2-4.9
						c-0.9-2.5-3.3-3.8-5.6-4.4c-12-3.7-24.6,0.1-36.2,5.1C1304.3,2661.5,1295.1,2663.5,1282.2,2667.8"/>
				</g>
				<g>
					<path class="st17" d="M1246.4,2715.2c18,14.4,40.3,21.2,61.8,18.7c5.3-0.6,11-2.2,13.8-7.3c0.8-1.4,1.3-3.1,1-4.7
						c-0.4-2.7-2.7-4.4-4.8-5.7c-11.2-6.5-24.4-5.9-36.6-3.8C1269.3,2714.4,1259.9,2714.1,1246.4,2715.2"/>
				</g>
				<g>
					<path class="st17" d="M1195.8,2769.9c19.9,9.4,42.8,10,63,1.8c5-2,10.2-5.1,12-10.9c0.5-1.6,0.7-3.4,0.1-4.9
						c-0.9-2.5-3.4-3.7-5.6-4.3c-12-3.3-24.6,0.8-36,6.1C1217.8,2763,1208.6,2765.2,1195.8,2769.9"/>
				</g>
				<g>
					<path class="st17" d="M1154.2,2801.4c14.8,19.1,35.4,32.1,57,36c5.3,0.9,11.3,1.1,15-2.9c1-1.1,1.9-2.6,1.9-4.3
						c0.1-2.7-1.7-5-3.6-6.8c-9.8-9.5-22.8-12.7-35.2-14.4C1177,2807.4,1167.7,2804.3,1154.2,2801.4"/>
				</g>
			</g>
		</g>
	</g>
	<g>
		<polygon class="st18" points="3621.5,1284.2 1295.6,1284.2 1617.2,3149.2 3936,3149.2 		"/>
		<polygon class="st19" points="3572.2,1640.1 3667.7,3149.2 3182.8,3297.9 3379.3,1743.7 		"/>
		<polygon class="st20" points="1178.4,1432.9 3504.3,1432.9 3182.8,3297.9 864,3297.9 		"/>
		<polygon class="st21" points="1178.4,1432.9 3504.3,1432.9 3429.3,1890.2 1106.9,1890.2 		"/>
		<g>
			<polygon class="st22" points="2185.8,2093.1 1997.9,2093.1 1975.2,2238 2163.1,2238 			"/>
			<polygon class="st22" points="1880.1,2843.9 1856.3,2995.4 2044.2,2995.4 2068,2843.9 			"/>
			<polygon class="st22" points="2103.6,2616.7 2127.4,2465.2 1939.5,2465.2 1915.8,2616.7 			"/>
			<polygon class="st22" points="2133.3,2427.3 2157.1,2275.8 1969.2,2275.8 1945.5,2427.3 			"/>
			<polygon class="st22" points="1828.3,3173.7 2016.3,3173.4 2038.3,3033.3 1850.4,3033.3 			"/>
			<polygon class="st22" points="1909.8,2654.6 1886,2806.1 2073.9,2806.1 2097.7,2654.6 			"/>
			<polygon class="st22" points="1507.2,2093.1 1319.3,2093.1 1296.6,2238 1484.4,2238 			"/>
			<polygon class="st22" points="1454.7,2427.3 1478.5,2275.8 1290.6,2275.8 1266.8,2427.3 			"/>
			<polygon class="st22" points="1201.5,2843.9 1177.7,2995.4 1365.6,2995.4 1389.3,2843.9 			"/>
			<polygon class="st22" points="1149.6,3174.6 1337.5,3174.3 1359.6,3033.3 1171.7,3033.3 			"/>
			<polygon class="st22" points="1419.1,2654.6 1231.2,2654.6 1207.4,2806.1 1395.3,2806.1 			"/>
			<polygon class="st22" points="1448.8,2465.2 1260.9,2465.2 1237.1,2616.7 1425,2616.7 			"/>
			<polygon class="st22" points="1375.8,3174.3 1563.8,3174 1585.8,3033.3 1398,3033.3 			"/>
			<polygon class="st22" points="1733.4,2093.1 1545.5,2093.1 1522.8,2238 1710.6,2238 			"/>
			<polygon class="st22" points="1457.4,2654.6 1433.6,2806.1 1621.5,2806.1 1645.3,2654.6 			"/>
			<polygon class="st22" points="1680.9,2427.3 1704.7,2275.8 1516.8,2275.8 1493.1,2427.3 			"/>
			<polygon class="st22" points="1427.7,2843.9 1403.9,2995.4 1591.8,2995.4 1615.6,2843.9 			"/>
			<polygon class="st22" points="1651.2,2616.7 1675,2465.2 1487.1,2465.2 1463.3,2616.7 			"/>
			<polygon class="st22" points="2329.8,2616.7 2353.6,2465.2 2165.7,2465.2 2142,2616.7 			"/>
			<polygon class="st22" points="2136,2654.6 2112.2,2806.1 2300.1,2806.1 2323.9,2654.6 			"/>
			<polygon class="st22" points="2054.6,3173.4 2242.5,3173.1 2264.5,3033.3 2076.6,3033.3 			"/>
			<polygon class="st22" points="2106.3,2843.9 2082.5,2995.4 2270.4,2995.4 2294.2,2843.9 			"/>
			<polygon class="st22" points="2412,2093.1 2224.1,2093.1 2201.4,2238 2389.3,2238 			"/>
			<polygon class="st22" points="2359.6,2427.3 2383.3,2275.8 2195.5,2275.8 2171.7,2427.3 			"/>
			<polygon class="st22" points="1653.9,2843.9 1630.1,2995.4 1818,2995.4 1841.8,2843.9 			"/>
			<polygon class="st22" points="1907.1,2427.3 1930.9,2275.8 1743,2275.8 1719.3,2427.3 			"/>
			<polygon class="st22" points="1683.6,2654.6 1659.8,2806.1 1847.7,2806.1 1871.5,2654.6 			"/>
			<polygon class="st22" points="1877.4,2616.7 1901.2,2465.2 1713.3,2465.2 1689.5,2616.7 			"/>
			<polygon class="st22" points="1959.6,2093.1 1771.7,2093.1 1749,2238 1936.9,2238 			"/>
			<polygon class="st22" points="1602.1,3174 1790,3173.7 1812,3033.3 1624.2,3033.3 			"/>
			<polygon class="st22" points="936.6,3174.9 1111.2,3174.6 1133.4,3033.3 959.7,3033.3 			"/>
			<polygon class="st22" points="1192.9,2654.6 1021.4,2654.6 996.7,2806.1 1169.1,2806.1 			"/>
			<polygon class="st22" points="1281,2093.1 1112.9,2093.1 1089.3,2238 1258.2,2238 			"/>
			<polygon class="st22" points="1163.1,2843.9 990.6,2843.9 965.9,2995.4 1139.4,2995.4 			"/>
			<polygon class="st22" points="1222.6,2465.2 1052.3,2465.2 1027.6,2616.7 1198.8,2616.7 			"/>
			<polygon class="st22" points="1252.3,2275.8 1083.1,2275.8 1058.4,2427.3 1228.5,2427.3 			"/>
			<polygon class="st22" points="2362.2,2654.6 2338.5,2806.1 2526.3,2806.1 2550.1,2654.6 			"/>
			<polygon class="st22" points="2280.9,3173.1 2468.8,3172.8 2490.7,3033.3 2302.8,3033.3 			"/>
			<polygon class="st22" points="2638.2,2093.1 2450.3,2093.1 2427.6,2238 2615.5,2238 			"/>
			<polygon class="st22" points="2585.8,2427.3 2609.5,2275.8 2421.7,2275.8 2397.9,2427.3 			"/>
			<polygon class="st22" points="2332.5,2843.9 2308.7,2995.4 2496.6,2995.4 2520.4,2843.9 			"/>
			<polygon class="st22" points="2556,2616.7 2579.8,2465.2 2391.9,2465.2 2368.2,2616.7 			"/>
			<polygon class="st23" points="3046.8,2616.7 3228.6,2616.7 3256.7,2465.2 3070.6,2465.2 			"/>
			<polygon class="st23" points="3017.1,2806.1 3193.5,2806.1 3221.6,2654.6 3040.9,2654.6 			"/>
			<polygon class="st23" points="2959.6,3172.2 3125.6,3171.9 3151.3,3033.3 2981.4,3033.3 			"/>
			<polygon class="st23" points="3076.5,2427.3 3263.7,2427.3 3291.8,2275.8 3100.3,2275.8 			"/>
			<polygon class="st23" points="2987.4,2995.4 3158.3,2995.4 3186.4,2843.9 3011.1,2843.9 			"/>
			<polygon class="st23" points="3325.7,2093.1 3129,2093.1 3106.2,2238 3298.8,2238 			"/>
			<polygon class="st22" points="3090.6,2093.1 2902.8,2093.1 2880,2238 3067.9,2238 			"/>
			<polygon class="st22" points="3038.2,2427.3 3062,2275.8 2874.1,2275.8 2850.3,2427.3 			"/>
			<polygon class="st22" points="2790.9,2806.1 2978.8,2806.1 3002.5,2654.6 2814.6,2654.6 			"/>
			<polygon class="st22" points="2733.4,3172.5 2921.3,3172.2 2943.1,3033.3 2755.2,3033.3 			"/>
			<polygon class="st22" points="2820.6,2616.7 3008.5,2616.7 3032.2,2465.2 2844.4,2465.2 			"/>
			<polygon class="st22" points="2784.9,2843.9 2761.2,2995.4 2949,2995.4 2972.8,2843.9 			"/>
			<polygon class="st22" points="2507.1,3172.8 2695,3172.5 2716.9,3033.3 2529,3033.3 			"/>
			<polygon class="st22" points="2782.3,2616.7 2806,2465.2 2618.2,2465.2 2594.4,2616.7 			"/>
			<polygon class="st22" points="2812,2427.3 2835.7,2275.8 2647.9,2275.8 2624.1,2427.3 			"/>
			<polygon class="st22" points="2588.4,2654.6 2564.7,2806.1 2752.5,2806.1 2776.3,2654.6 			"/>
			<polygon class="st22" points="2864.4,2093.1 2676.5,2093.1 2653.8,2238 2841.7,2238 			"/>
			<polygon class="st22" points="2558.7,2843.9 2534.9,2995.4 2722.8,2995.4 2746.6,2843.9 			"/>
		</g>
		<polygon class="st24" points="3504.3,1432.9 3621.5,1284.2 3685.7,1661.5 3429.3,1890.2 		"/>
		<path class="st21" d="M1158.4,2334.1c41-26.4,76.6-53.6,76.6-53.6c-40.2,4.4-73.3,20-99,37.6c-22-13.4-52.2-26.3-93.4-37.6
			c0,0,37.9,19.7,74.6,51.8c-28.6,23.8-43.7,46.6-43.7,46.6c17.5-5.7,39.3-17,61.2-30.1c22.7,23.1,42.2,50.8,48,81.2
			C1182.7,2430,1213.8,2381.7,1158.4,2334.1z"/>
		<path class="st21" d="M1558.3,2581.6c-27.3,40.4-49.3,79.5-49.3,79.5c35.2-19.9,59.5-47.3,76.1-73.6c25.5,3.7,58.3,3.6,100.6-2.3
			c0,0-42.6-3.2-89-18.2c16.9-33.1,21.8-60,21.8-60c-13.8,12.1-29.4,31.2-44.4,51.8c-29.9-12.3-58.8-30.1-76.1-55.7
			C1498.2,2503.2,1488.6,2559.8,1558.3,2581.6z"/>
		<path class="st21" d="M2494.2,2364.9c-27.3,40.4-49.3,79.5-49.3,79.5c35.2-19.9,59.5-47.3,76.1-73.6c25.5,3.7,58.3,3.6,100.6-2.3
			c0,0-42.6-3.2-89-18.2c16.9-33.1,21.8-60,21.8-60c-13.8,12.1-29.4,31.2-44.4,51.8c-29.9-12.3-58.8-30.1-76.1-55.7
			C2434.1,2286.4,2424.5,2343,2494.2,2364.9z"/>
		<path class="st21" d="M2711.2,2345.6c-40.2,27.6-75,55.8-75,55.8c40-5.5,72.7-22.1,97.8-40.5c22.4,12.8,52.9,24.8,94.4,34.8
			c0,0-38.5-18.6-76.1-49.6c27.9-24.6,42.3-47.8,42.3-47.8c-17.3,6.2-38.8,18.2-60.3,31.9c-23.3-22.4-43.6-49.6-50.3-79.7
			C2684,2250.6,2654.3,2299.7,2711.2,2345.6z"/>
		<path class="st21" d="M2921.5,2362.7c-34.1,34.9-62.7,69.4-62.7,69.4c38.2-13.2,67-35.9,88.1-58.7c24.4,8.2,56.7,14,99.4,15.8
			c0,0-41.4-10.8-84.3-33.8c22.6-29.6,32.1-55.2,32.1-55.2c-15.8,9.4-34.5,25.4-52.9,43c-27.2-17.4-52.4-40.1-64.9-68.4
			C2876.3,2274.7,2856.8,2328.7,2921.5,2362.7z"/>
		<g>
			<path class="st25" d="M1418,1718.9h-232.9c-0.6,0-1-0.4-1-1v-11.2c0-0.6,0.4-1,1-1H1418c0.6,0,1,0.4,1,1v11.2
				C1419,1718.4,1418.6,1718.9,1418,1718.9z"/>
			<path class="st25" d="M1322.4,1749.8h-137.3c-0.6,0-1-0.4-1-1v-11.2c0-0.6,0.4-1,1-1h137.3c0.6,0,1,0.4,1,1v11.2
				C1323.4,1749.4,1323,1749.8,1322.4,1749.8z"/>
		</g>
		<g>
			<path class="st25" d="M1841.8,1967.1h-232.9c-0.6,0-1-0.4-1-1v-11.2c0-0.6,0.4-1,1-1h232.9c0.6,0,1,0.4,1,1v11.2
				C1842.8,1966.7,1842.4,1967.1,1841.8,1967.1z"/>
			<path class="st25" d="M1746.2,1998.1h-137.3c-0.6,0-1-0.4-1-1v-11.2c0-0.6,0.4-1,1-1h137.3c0.6,0,1,0.4,1,1v11.2
				C1747.2,1997.6,1746.8,1998.1,1746.2,1998.1z"/>
		</g>
		<g>
			<path class="st25" d="M2179.9,1976H1947c-0.6,0-1-0.4-1-1v-11.2c0-0.6,0.4-1,1-1h232.9c0.6,0,1,0.4,1,1v11.2
				C2180.9,1975.5,2180.5,1976,2179.9,1976z"/>
			<path class="st25" d="M2084.3,2007H1947c-0.6,0-1-0.4-1-1v-11.2c0-0.6,0.4-1,1-1h137.3c0.6,0,1,0.4,1,1v11.2
				C2085.3,2006.5,2084.9,2007,2084.3,2007z"/>
		</g>
		<g>
			<path class="st25" d="M2518,1984.9h-232.9c-0.6,0-1-0.4-1-1v-11.2c0-0.6,0.4-1,1-1H2518c0.6,0,1,0.4,1,1v11.2
				C2519,1984.4,2518.6,1984.9,2518,1984.9z"/>
			<path class="st25" d="M2422.4,2015.8h-137.3c-0.6,0-1-0.4-1-1v-11.2c0-0.6,0.4-1,1-1h137.3c0.6,0,1,0.4,1,1v11.2
				C2423.4,2015.4,2423,2015.8,2422.4,2015.8z"/>
		</g>
		<g>
			<path class="st25" d="M2856.1,1993.8h-232.9c-0.6,0-1-0.4-1-1v-11.2c0-0.6,0.4-1,1-1h232.9c0.6,0,1,0.4,1,1v11.2
				C2857.1,1993.3,2856.7,1993.8,2856.1,1993.8z"/>
			<path class="st25" d="M2760.5,2024.7h-137.3c-0.6,0-1-0.4-1-1v-11.2c0-0.6,0.4-1,1-1h137.3c0.6,0,1,0.4,1,1v11.2
				C2761.5,2024.3,2761,2024.7,2760.5,2024.7z"/>
		</g>
		<g>
			<path class="st25" d="M3194.2,2002.7h-232.9c-0.6,0-1-0.4-1-1v-11.2c0-0.6,0.4-1,1-1h232.9c0.6,0,1,0.4,1,1v11.2
				C3195.2,2002.2,3194.8,2002.7,3194.2,2002.7z"/>
			<path class="st25" d="M3098.6,2033.6h-137.3c-0.6,0-1-0.4-1-1v-11.2c0-0.6,0.4-1,1-1h137.3c0.6,0,1,0.4,1,1v11.2
				C3099.6,2033.2,3099.1,2033.6,3098.6,2033.6z"/>
		</g>
		
			<rect x="941.9" y="2504.2" transform="matrix(0.9909 0.1349 -0.1349 0.9909 368.2242 -126.2515)" class="st21" width="348.2" height="301.2"/>
		
			<rect x="1801.1" y="2809.8" transform="matrix(0.9909 0.1349 -0.1349 0.9909 417.2942 -239.3355)" class="st21" width="348.2" height="301.2"/>
		<path class="st26" d="M2386.4,2663.2c0,0,39,35.4,49.9,64.2c0,0,98.4-88.2,143.6-96.2l-151.4,130L2386.4,2663.2z"/>
		<path class="st26" d="M2620.2,2659.3c0,0,39,35.4,49.9,64.2c0,0,98.4-88.2,143.6-96.2l-151.4,130L2620.2,2659.3z"/>
		<g>
			<path class="st22" d="M2076.3,2936.2l-231.2-28.6c-0.5-0.1-0.9-0.6-0.9-1.1l1.4-11.1c0.1-0.5,0.6-0.9,1.1-0.9l231.2,28.6
				c0.5,0.1,0.9,0.6,0.9,1.1l-1.4,11.1C2077.3,2935.8,2076.8,2936.2,2076.3,2936.2z"/>
			<path class="st22" d="M1977.6,2955.2l-136.3-16.8c-0.5-0.1-0.9-0.6-0.9-1.1l1.4-11.1c0.1-0.5,0.6-0.9,1.1-0.9l136.3,16.8
				c0.5,0.1,0.9,0.6,0.9,1.1l-1.4,11.1C1978.6,2954.8,1978.1,2955.2,1977.6,2955.2z"/>
		</g>
		<g>
			<path class="st22" d="M1215.2,2631L984,2602.4c-0.5-0.1-0.9-0.6-0.9-1.1l1.4-11.1c0.1-0.5,0.6-0.9,1.1-0.9l231.2,28.6
				c0.5,0.1,0.9,0.6,0.9,1.1l-1.4,11.1C1216.3,2630.7,1215.8,2631.1,1215.2,2631z"/>
			<path class="st22" d="M1116.5,2650l-136.3-16.8c-0.5-0.1-0.9-0.6-0.9-1.1l1.4-11.1c0.1-0.5,0.6-0.9,1.1-0.9l136.3,16.8
				c0.5,0.1,0.9,0.6,0.9,1.1l-1.4,11.1C1117.6,2649.7,1117.1,2650.1,1116.5,2650z"/>
		</g>
		<g>
			<path class="st22" d="M1206.8,2705.3l-231.2-28.6c-0.5-0.1-0.9-0.6-0.9-1.1l1.4-11.1c0.1-0.5,0.6-0.9,1.1-0.9l231.2,28.6
				c0.5,0.1,0.9,0.6,0.9,1.1l-1.4,11.1C1207.8,2704.9,1207.3,2705.3,1206.8,2705.3z"/>
			<path class="st22" d="M1108.1,2724.3l-136.3-16.8c-0.5-0.1-0.9-0.6-0.9-1.1l1.4-11.1c0.1-0.5,0.6-0.9,1.1-0.9l136.3,16.8
				c0.5,0.1,0.9,0.6,0.9,1.1l-1.4,11.1C1109.1,2723.9,1108.6,2724.3,1108.1,2724.3z"/>
		</g>
		<circle class="st25" cx="1984.7" cy="2845.3" r="22.6"/>
		<circle class="st25" cx="1121" cy="2535.4" r="22.4"/>
		<g>
			<path class="st27" d="M1744.8,1562.7c86.7,0,160.7-53.8,190.7-129.9h-381.3C1584.1,1508.9,1658.1,1562.7,1744.8,1562.7z"/>
			<path class="st27" d="M1744.8,1152.9c-87.2,0-161.6,54.5-191.2,131.2H1936C1906.4,1207.4,1832,1152.9,1744.8,1152.9z"/>
			<g>
				<path class="st28" d="M1492.7,1284.2h-197.1l-117.2,148.7h314.7c-7.1-23.8-10.9-49-10.9-75
					C1482.2,1332.3,1485.8,1307.5,1492.7,1284.2z"/>
				<path class="st28" d="M1996.9,1284.2H1936h-382.4c-8.8,22.9-13.7,47.7-13.7,73.7c0,26.5,5.1,51.8,14.2,75h381.3h61h1507.8
					l117.2-148.7H1996.9z"/>
			</g>
		</g>
		<g>
			<circle class="st24" cx="1728.2" cy="1593.7" r="60.7"/>
			<path class="st20" d="M1725.4,1562.7l0.2-0.9c-78.3-7.3-143.8-58.6-171.5-128.9c-9.2-23.2-14.2-48.5-14.2-75
				c0-26,4.9-50.8,13.7-73.7c29.6-76.7,104-131.2,191.2-131.2c87.2,0,161.6,54.5,191.2,131.2h60.9
				c-31.9-109.2-132.7-188.9-252.1-188.9c-119.5,0-220.3,79.8-252.1,188.9c-6.8,23.4-10.5,48.1-10.5,73.7c0,26.1,3.8,51.3,10.9,75
				c30.6,102.7,122.3,179.1,233,186.9C1759.7,1588.5,1725.4,1562.7,1725.4,1562.7z"/>
		</g>
		<g>
			<circle class="st24" cx="2309.5" cy="1593.7" r="60.7"/>
			<path class="st20" d="M2306.7,1562.7l0.2-0.9c-78.3-7.3-143.8-58.6-171.5-128.9c-9.2-23.2-14.2-48.5-14.2-75
				c0-26,4.9-50.8,13.7-73.7c29.6-76.7,104-131.2,191.2-131.2s161.6,54.5,191.2,131.2h60.9c-31.9-109.2-132.7-188.9-252.1-188.9
				c-119.5,0-220.3,79.8-252.1,188.9c-6.8,23.4-10.5,48.1-10.5,73.7c0,26.1,3.8,51.3,10.9,75c30.6,102.7,122.3,179.1,233,186.9
				C2341,1588.5,2306.7,1562.7,2306.7,1562.7z"/>
		</g>
		<g>
			<circle class="st24" cx="2890.8" cy="1593.7" r="60.7"/>
			<path class="st20" d="M2887.9,1562.7l0.2-0.9c-78.3-7.3-143.8-58.6-171.5-128.9c-9.2-23.2-14.2-48.5-14.2-75
				c0-26,4.9-50.8,13.7-73.7c29.6-76.7,104-131.2,191.2-131.2c87.2,0,161.6,54.5,191.2,131.2h60.9
				c-31.9-109.2-132.7-188.9-252.1-188.9c-119.5,0-220.3,79.8-252.1,188.9c-6.8,23.4-10.5,48.1-10.5,73.7c0,26.1,3.8,51.3,10.9,75
				c30.6,102.7,122.3,179.1,233,186.9C2922.3,1588.5,2887.9,1562.7,2887.9,1562.7z"/>
		</g>
	</g>
	<g>
		<path class="st29" d="M3151.7,2942l668.8-276.8l341.2,28.4l-343,236c0,0-344.2,108.4-347.8,104.8
			C3467.4,3030.8,3151.7,2942,3151.7,2942z"/>
		<rect x="3151.7" y="2942" class="st30" width="484.4" height="356.8"/>
		<polygon class="st31" points="3636.1,2942 4161.7,2693.5 4161.7,3052.2 3636.1,3298.8 		"/>
	</g>
	<g>
		<path class="st32" d="M4247.9,3080.5c0,0,35,55.4,28.8,81c-6.2,25.6,61.8-5.7,61.8-5.7s-45-50.6-37.1-95.8
			C4309.5,3014.8,4247.9,3080.5,4247.9,3080.5z"/>
		<path class="st33" d="M4140.8,2686.6c0,0,40.2,354.8,113.3,424.1c0,0,40.2,2.7,55.6-11.7c0,0,6.2-516.4-71.1-512.6
			S4140.8,2686.6,4140.8,2686.6z"/>
		<path class="st34" d="M4152.1,2738.9c0,0,38.8,318.1,102,371.8l22.7-0.5c0,0-130-353.7-60.8-471.8
			C4285.2,2520.3,4119.2,2685.6,4152.1,2738.9z"/>
		<path class="st26" d="M3842.4,1906.9c0,0-46.7,78.4-17.9,129.5l46-113.7L3842.4,1906.9z"/>
		<path class="st26" d="M4062.8,2157c0,0-85.1,94.6-117.4,95.3l-12.2-39C3933.2,2213.3,4053.1,2132.9,4062.8,2157z"/>
		<path class="st32" d="M4007.9,3210.8c0,0,13.1,36.3,18.5,86.2c5.4,49.9,59.8-31.8,59.8-31.8s-23.7-28.7-19.6-89.3
			C4070.7,3115.4,4007.9,3210.8,4007.9,3210.8z"/>
		<path class="st35" d="M3501,2730.1c0,0,5.2,179.7,425.5,97.9c0,0,61.8-13.1,71.1-16.2c0,0-58.7,340.6,9.3,413.4
			c0,0,45.3,14.4,64.9-11.3c0,0,20.6-312.9,74.2-418.6c53.6-105.7,0-142.3,0-142.3L3501,2730.1z"/>
		<polygon class="st36" points="4047.1,2620.9 3828.2,2720.9 4047.1,2747.1 4276.8,2614.5 		"/>
		<path class="st37" d="M4028.9,2629.2l-9.8,4.5c0,0,99.7,13.9,116.5,3.3C4152.5,2626.4,4028.9,2629.2,4028.9,2629.2z"/>
		<path class="st37" d="M4048.8,2675.6c0,0,18.9,24.6-14.1,28.4s-108.4-10.2-143.8,6.3c-35.4,16.6-76-6-76-6s122.9-41,147.3-33.9
			C3986.6,2677.7,4048.8,2675.6,4048.8,2675.6z"/>
		<path class="st33" d="M3719,2717.1c0,0-100.5,51.1-67.5,85.5c33,34.4,126.7,45.4,126.7,45.4s-254,17.2-260.7-95.1
			C3510.8,2640.4,3718,2707,3719,2717.1z"/>
		<path class="st38" d="M3925.6,2504c0,0,19.5,58,19.5,67.2c0,0,119,10.3,190.6,38l-19.6,21c0,0-131.4,6.2-209.7-12.3
			c0,0-28.8-1-38.1-70.3L3925.6,2504z"/>
		<path class="st38" d="M3858.6,2222.2c0,0-26.9,53-92.3,68.4s104.4,99.2,111.8,80s-41.6-56.4,32.3-132.8c0,0,105.7-4.7,136.6-81.1
			c0,0,72.6,9.7,47.4-54.9c0,0-21.3-23.9-30.2,7.5c0,0,39.1-114.2-0.7-132c-39.8-17.8-154.5-78.7-188.2-45.8s-53.6,87.7-50.8,104.8
			c2.7,17.1-20.6,27.2-19.9,54.5C3805.3,2118.2,3819.7,2201,3858.6,2222.2z"/>
		<path class="st32" d="M3977.3,2006.9c1.6-0.1,64.2,23.8,66.7,127.8c0,0,42.5-85.8,14.2-116.3
			C4029.9,1987.9,3977.3,2006.9,3977.3,2006.9z"/>
		<path class="st32" d="M3785.2,2284.8c0,0,32.2,87.3,84.4,42.8l4.4,22.8c0,0-5.7,30.4-44.4,18.1
			C3790.9,2356.2,3740.7,2295.4,3785.2,2284.8z"/>
		<path class="st21" d="M3838.4,2352.1c-42.8-12-62.7-70.6-62.7-70.6c-58.3,21-200.3,69.7-267.5,285.5
			c-30.8,99-38.5,154.8-28.1,183.7c12.3,34.4,42.5,28.4,42.5,28.4l168.6-64.5c6.2-4.2-5.9-40.7,1.6-40.7h122.3
			c19.1,0,48.9-5.7,50.6-24.7c1.4-15.2-3.8-42.9-1.7-62.9c1.3-12.6,5.1-23.6,16.9-28.3c8.9-3.5,22.3-10.4,31.5-16.8
			c11.8-8.3,20.8-33.7,20.8-33.7c0.7-43-56.8-178.1-56.8-178.1C3867.8,2348,3845.1,2355.8,3838.4,2352.1L3838.4,2352.1z"/>
		<path class="st24" d="M3868.3,2449.1l-4.3,137.3c0,0,1-21,26.9-32.7C3890.9,2553.7,3870.4,2510.1,3868.3,2449.1z"/>
		<path class="st24" d="M3762.7,2368.6v217.8l-11.4,16.1l7.2,50.6l31-3.4c0,0-22.7-11.8-19.1-41.6
			C3774,2578.4,3772,2368,3762.7,2368.6z"/>
		<path class="st24" d="M3649.3,2536.3l6.2,94.9l8.2,1.1l27.5,82.4l-27.5,10.5C3663.8,2725.1,3633.3,2625.6,3649.3,2536.3z"/>
		<path class="st26" d="M4015.2,3258.9c0,0,5.1,3.9,0.1,23.1c-5,19.2-20.2,65.7,16.6,65s95.1,45,162.1,39.9
			c67-5.2,77.8-45.8,74.2-56.1s-187.3-58.3-190.9-87.1C4077.3,3243.6,4045.4,3277.4,4015.2,3258.9z"/>
		<path class="st26" d="M4262,3131.5c0,0,4.7,3.6,0.1,21.2s-18.5,60.3,15.2,59.7c33.7-0.7,87.3,41.4,148.9,36.6
			c61.5-4.7,71.5-42,68.2-51.5s-172-53.6-175.4-80C4318.9,3117.5,4289.7,3148.5,4262,3131.5z"/>
		<polygon class="st39" points="4273.6,2631.2 4276.8,2609.6 4047.1,2747.1 4047.1,2765.2 		"/>
		<polygon class="st37" points="3828.2,2720.9 4047.1,2747.1 4047.1,2765.2 3828.2,2735.2 		"/>
		<path class="st35" d="M3828.2,1791c0,0,47.8,89.8,207.8,101.6c108.3,8,136.7,150.2,63.7,223.1c0,0-12.2-38.8-35.5-6.3l-19.9,25.3
			c0,0,22-120.4-19.2-128.2C3995.5,2000.8,3807.2,2057.7,3828.2,1791z"/>
		<path class="st40" d="M3695.7,2194.1l164.1-38c0,0,18.8,9.2,7.5,21.5l-167.4,36.9C3699.9,2214.7,3713.3,2205.9,3695.7,2194.1z"/>
		<polygon class="st40" points="3695.7,2194.1 3661.2,2214.7 3699.9,2214.7 3719.4,2202.4 		"/>
		<path class="st40" d="M3673.4,2207.4c0,0,6.1,3.7,2.2,7.3h-14.4L3673.4,2207.4z"/>
		<path class="st38" d="M3663.8,2632.2c0,0,74.1-4.5,87.5-29.8l7.2,50.6c0,0,83.8-13,172.4,0c0,0,26.4,0.7,53.7-8.5
			c27.3-9.2,15.5,11.3,55.6,17.4c40.2,6.2-8.2,37.5-28.8,36.4s-28-8.5-28-8.5s-26.4,13.5-56.4-4.7c0,0-121.7,58.8-236,25.5
			C3691.1,2710.7,3675.1,2702,3663.8,2632.2z"/>
		<polygon class="st36" points="4047.1,2747.1 4135.7,2525.5 4385,2388 4276.8,2614.5 		"/>
		<polygon class="st20" points="4385,2388 4169.3,2674 4047.1,2747.1 4135.7,2525.5 		"/>
		<path class="st33" d="M3997.6,2811.8c0,0,29.5-9.6,38.5-14.4c0,0-88.1,336.2-4.9,431.8l-24.3-3.9
			C4006.9,3225.2,3937.6,3150.3,3997.6,2811.8z"/>
		<path class="st32" d="M3758.6,2653.1c0,0-11.7,0-28.8,11.3c0,0-1.4-10.6,4.5-14.4c5.8-3.8,23.3-4.8,23.3-4.8L3758.6,2653.1z"/>
		<path class="st32" d="M3716.5,2623.4c0,0-33.1,23.1-33.4,41s3.5,41.6,3.5,41.6s-15.9-21.9-22.8-73.7
			C3663.8,2632.2,3698.7,2628.4,3716.5,2623.4z"/>
		<path class="st32" d="M3945.1,2571.2c0,0-13.4-0.3-21.6,5.1C3915.2,2581.7,3920.1,2554.8,3945.1,2571.2z"/>
		<path class="st32" d="M3898.1,2550c0,0-14.1,35.1,7.6,55.3c21.6,20.3,63.9,22,63.9,22l-63.1-9.5c0,0-24.1-2.9-34.4-49.9
			C3872,2567.9,3879,2555.7,3898.1,2550z"/>
		<path class="st32" d="M3852.5,2710.4c0,0,65.6-23.3,73.3-29.6c7.7-6.3,29.6,13.5,54.6,5s12.3,15.4,55.7,5.5
			c0,0-27.2,18.3-52.5-1.4c0,0-29.5,14.2-56.4-4.7C3927.1,2685.2,3888.4,2705.2,3852.5,2710.4z"/>
		<path class="st32" d="M4002,2653.1c0,0,28.4,18.1,53.8,18.3C4055.8,2671.4,4042.8,2681.5,4002,2653.1z"/>
		<path class="st32" d="M4053,2678.4c0,0-29,1.4-46-10.8C4007,2667.6,4031.3,2686.8,4053,2678.4z"/>
		<path class="st32" d="M4005.6,2677.4c0,0,17.6,10.5,38.6,9.1"/>
		<path class="st32" d="M3858.6,2222.2c0,0,17.1,15.1,51.8,15.6l-27.6,35.2C3882.8,2273,3855.1,2258,3858.6,2222.2z"/>
		<path class="st25" d="M3859.5,2105.4l-51.2-18.4c-11.4-4.1-16.9-17.8-12.3-30.6l4.8-13.3c4.6-12.8,17.7-19.8,29.1-15.7l51.2,18.4
			c11.4,4.1,16.9,17.8,12.3,30.6l-4.8,13.3C3884,2102.4,3870.9,2109.5,3859.5,2105.4z M3827.7,2033.6c-8.3-3-17.9,2.1-21.3,11.5
			l-4.8,13.3c-3.4,9.3,0.7,19.3,9,22.3l51.2,18.4c8.3,3,17.9-2.1,21.3-11.5l4.8-13.3c3.4-9.3-0.7-19.3-9-22.3L3827.7,2033.6z"/>
		<path class="st25" d="M3970.2,2147.3l-51.2-18.4c-11.4-4.1-16.9-17.8-12.3-30.6l4.8-13.3c4.6-12.8,17.7-19.8,29.1-15.7l51.2,18.4
			c11.4,4.1,16.9,17.8,12.3,30.6l-4.8,13.3C3994.6,2144.4,3981.6,2151.4,3970.2,2147.3z M3938.3,2075.5c-8.3-3-17.9,2.1-21.3,11.5
			l-4.8,13.3c-3.4,9.3,0.7,19.3,9,22.3l51.2,18.4c8.3,3,17.9-2.1,21.3-11.5l4.8-13.3c3.4-9.3-0.7-19.3-9-22.3L3938.3,2075.5z"/>
		<path class="st25" d="M3911.4,2086.9c-1-4.6-2.9-7.7-5.9-9.3c-5.8-3-13.7,0.7-13.8,0.7l-2.1-6c0.4-0.2,10.5-5,18.8-0.7
			c4.5,2.3,7.5,6.8,8.9,13.4L3911.4,2086.9z"/>
	</g>
</g>
<rect x="1682.1" y="2209.6" transform="matrix(0.9909 0.1349 -0.1349 0.9909 335.257 -228.7689)" class="st21" width="348.2" height="301.2"/>
<path class="st25" d="M1894.1,2261.7c0,12.5-10.1,22.6-22.6,22.6s-22.6-10.1-22.6-22.6"/>
<path class="st22" d="M1965.6,2351.6l-220.1-27.2c-3.6-0.4-6.2-3.7-5.7-7.4l0,0c0.4-3.6,3.7-6.2,7.4-5.7l220.1,27.2
	c3.6,0.4,6.2,3.7,5.7,7.4l0,0C1972.5,2349.4,1969.2,2352,1965.6,2351.6z"/>
<path class="st22" d="M1879.4,2393.1l-136.3-16.8c-0.5-0.1-0.9-0.6-0.9-1.1l1.4-11.1c0.1-0.5,0.6-0.9,1.1-0.9L1881,2380
	c0.5,0.1,0.9,0.6,0.9,1.1l-1.4,11.1C1880.4,2392.8,1879.9,2393.2,1879.4,2393.1z"/>
</svg>
