<?xml version="1.0" encoding="utf-8"?>
<!-- Generator: Adobe Illustrator 24.1.0, SVG Export Plug-In . SVG Version: 6.00 Build 0)  -->
<svg version="1.1" id="Capa_1" xmlns="http://www.w3.org/2000/svg" xmlns:xlink="http://www.w3.org/1999/xlink" x="0px" y="0px"
	 viewBox="0 0 5000 3575.6" style="enable-background:new 0 0 5000 3575.6;" xml:space="preserve">
<style type="text/css">
	.st0{opacity:0.8;fill:#1F60E5;}
	.st1{opacity:0.29;fill:#1F60E5;}
	.st2{opacity:0.91;fill:#FFFFFF;}
	.st3{opacity:0.65;fill:#FFFFFF;}
	.st4{opacity:0.79;fill:#FFFFFF;}
	.st5{fill:#FFFFFF;}
	.st6{opacity:0.53;fill:#FFFFFF;}
	.st7{opacity:0.27;}
	.st8{opacity:0.57;fill:#FFFFFF;}
	.st9{opacity:0.93;}
	.st10{opacity:0.15;fill:#FFFFFF;}
	.st11{opacity:0.15;}
	.st12{opacity:0.47;fill:#FFFFFF;}
	.st13{opacity:0.14;fill:#FFFFFF;}
	.st14{opacity:0.14;}
	.st15{opacity:0.1;}
	.st16{opacity:0.21;fill:#FFFFFF;}
	.st17{opacity:0.1;fill:#FFFFFF;}
	.st18{fill:#003FC3;}
	.st19{opacity:0.5;fill:#03157A;}
	.st20{fill:#752D3E;}
	.st21{fill:#4A0E1F;}
	.st22{opacity:0.5;fill:#FE7101;}
	.st23{opacity:0.5;fill:#5A0000;}
	.st24{fill:#FAA292;}
	.st25{fill:#A13858;}
	.st26{fill:#F8BBC2;}
	.st27{opacity:0.2;fill:#E8635D;}
	.st28{opacity:0.3;fill:#E8635D;}
	.st29{fill:#512D50;}
	.st30{fill:none;stroke:#000000;stroke-miterlimit:10;}
	.st31{fill:#03157A;}
	.st32{opacity:0.3;fill:#03157A;}
	.st33{opacity:0.3;}
	.st34{opacity:0.3;fill:#FE8796;}
	.st35{opacity:0.32;fill:#020E49;}
	.st36{opacity:0.71;fill:#020E49;}
	.st37{fill:#BFB6AC;}
	.st38{fill:#D85B05;}
	.st39{opacity:0.46;fill:#D85B05;}
	.st40{opacity:8.000000e-02;fill:#1F60E5;}
	.st41{clip-path:url(#SVGID_2_);}
	.st42{opacity:0.47;fill:#1F60E5;}
	.st43{opacity:0.11;fill:#1F60E5;}
	.st44{fill:#2D1D2C;}
	.st45{fill:#28007A;}
	.st46{opacity:0.5;fill:#003FC3;}
	.st47{opacity:0.63;fill:#003FC3;}
	.st48{fill:none;stroke:#1F60E5;stroke-width:2;stroke-miterlimit:10;}
	.st49{opacity:0.63;fill:#FFFFFF;}
	.st50{fill:#E9FFFD;stroke:#D85B05;stroke-miterlimit:10;}
	.st51{fill:#D0E0AD;}
	.st52{fill:#C8E8E4;}
	.st53{clip-path:url(#SVGID_4_);}
	.st54{opacity:0.45;fill:url(#SVGID_5_);}
	.st55{fill:#054CE2;}
	.st56{opacity:0.17;fill:#03157A;}
	.st57{opacity:6.000000e-02;fill:#FFFFFF;}
	.st58{opacity:0.21;fill:#E8635D;}
	.st59{opacity:0.68;fill:#03157A;}
	.st60{opacity:0.1;fill:#1F60E5;}
	.st61{opacity:0.28;fill:#1F60E5;}
	.st62{opacity:0.67;}
	.st63{fill:#E8635D;}
	.st64{opacity:0.57;fill:#1F60E5;}
	.st65{opacity:0.35;fill:#FFB600;}
	.st66{opacity:0.72;fill:#FFB600;}
	.st67{opacity:0.54;fill:#FFB600;}
	.st68{opacity:0.54;fill:#FFFFFF;}
	.st69{opacity:0.78;}
	.st70{fill:#FE7101;}
	.st71{opacity:0.69;fill:#FE7101;}
	.st72{opacity:0.44;fill:#FE7101;}
	.st73{opacity:0.43;fill:#FE7101;}
	.st74{opacity:0.45;fill:#FE7101;}
	.st75{opacity:0.78;fill:#FE7101;}
	.st76{opacity:0.42;fill:#FE7101;}
	.st77{fill:none;stroke:#FFB600;stroke-miterlimit:10;}
	.st78{opacity:0.61;}
	.st79{opacity:0.42;}
	.st80{opacity:0.56;fill:#FFFFFF;}
	.st81{fill:#FFB600;}
	.st82{opacity:0.17;fill:#FE7101;}
	.st83{opacity:0.67;fill:#FFB600;}
	.st84{opacity:0.29;fill:#FFB600;}
</style>
<g>
	<g>
		<g>
			<path class="st0" d="M4513.8,2827.5c-54.4,49-116.5,88.5-182.5,121.5c-97.9,48.9-204.4,83.4-306.9,113.3
				c-109,31.7-224.4,64.3-340.6,79.5c-92.7,12.2-186,13.3-276.8-5.9c-6.5-1.4-13-2.8-19.4-4.4c-4.3-1-8.6-2.1-12.9-3.2
				c-8.6-2.2-17.1-4.4-25.6-6.8c0,0-0.1,0-0.1,0c-6.4-1.8-12.8-3.6-19.1-5.4c0,0-0.1,0-0.1,0c-12.8-3.7-25.5-7.5-38.2-11.3
				c-29.7-8.9-59.4-17.9-89.4-25.4c-2.9-0.7-5.7-1.4-8.7-2.1c-23.4-5.6-47-10.4-70.6-14.7c-12-2.2-24.1-4.2-36.2-6.2
				c-1.1-0.2-2.2-0.3-3.2-0.5c-68.9-11.1-138.4-19.5-206.8-33.4c-60.5-12.3-120.2-29-179.9-44.8c0,0-0.1,0-0.1,0
				c-7.2-1.9-14.3-3.8-21.5-5.6c-2-0.5-4-1.1-6-1.6c0,0,0,0-0.1,0c-39.2-10.2-78.6-19.7-118.3-27c-2.6-0.5-5.2-0.9-7.9-1.4
				c-11.6-2.1-23.2-3.9-34.8-5.6c-19.5-2.8-38.9-4.9-58.4-6.4c-81.7-6.5-163.7-2.9-245.6,6.5c-72.3,8.3-144.6,21.1-216.3,35.5
				c-24.4,4.9-48.7,9.9-72.9,15.1c-5.1,1.1-10.1,2.1-15.2,3.2h-0.1l-30.4,6.5c-11.4,2.4-22.7,4.9-34.1,7.3l-347.5,74.6
				c-42.4,9.1-84.9,18.2-127.4,27.3c-28.7,6.2-57.4,12.3-86,18.5c-5.5,1.2-11,2.4-16.6,3.5c-0.2,0.1-0.4,0.1-0.6,0.2
				c-1.8,0.4-3.6,0.8-5.5,1.2c-6.5,1.4-13.1,2.8-19.7,4.2h0c-17.8,3.8-35.7,7.7-53.6,11.5c-72.3,15.5-146.1,31.1-219.7,23.6
				c-2.2-0.2-4.3-0.5-6.5-0.7c-71.5-8.8-143-43.1-179.4-105c-48-81.8-24.4-186.8-52-277.6c-33.8-111.1-137.1-183.4-230.1-252.9
				c-92.9-69.5-189-158.2-195.7-274.1c-5.6-97.6,56.8-188.5,135.6-246.3c78.8-57.8,173.1-89.6,263.8-126
				c150.2-60.3,295.8-151,411.9-267c25.8-25.8,50.1-52.8,72.6-81c22.3-27.8,41.1-55.5,56.8-83c8.2-14.4,15.6-28.8,22.1-43.2
				c5.9-13.1,11.2-26.2,15.8-39.3c46.4-132,27.5-266.7-26.7-422.2c-22.1-63.3-40.7-127.8-55.7-193.1
				C1166.9,652,1206.6,559,1259,466.7c75.8-133.5,229.7-200.7,385.4-221.6c18.1-2.4,36.3-4.2,54.4-5.4c52-3.5,103.2-2.1,150.7,3.6
				c245.9,29.2,473.3,143.6,685.3,271.6c78.5,47.4,156,97,239.3,135.6c37.8,17.5,76.7,32.6,116.3,45.2c20.7,6.6,41.5,12.5,62.6,17.8
				c1.3,0.3,2.5,0.6,3.8,0.9c18,4.4,36.2,8.4,54.4,11.8c87.3,16.5,176.8,21.5,265.3,14.6c163.5-12.7,322.3-65.2,486-73.8
				c171.9-9.1,351,34.1,483.4,144.1c12.2,10.1,23.9,20.9,35.1,32.2c12.3,12.4,24.1,25.5,35.1,39.2
				c87.6,108.7,131.5,253.5,99.6,388.6c-8.2,34.6-21.4,65.3-36.5,94.7c-6.8,13.3-13.9,26.3-21.1,39.3c-17.7,32-35.7,63.9-49.7,99.4
				c-33.4,84.9-44.9,178.6-31.7,269c5.5,37.6,15.2,71.6,27.9,103.1c5.5,13.5,11.6,26.6,18.1,39.3c45.1,87.1,113.8,156.9,180.3,239
				c51.7,63.9,113,122.1,146.8,197C4722.5,2512.6,4644.9,2709.4,4513.8,2827.5z"/>
			<path class="st0" d="M1141.9,1485.3c18.3-31.1,25.5-70.5,11.4-103.8c-2.9-6.7-6.8-13.4-13-17.1c-11-6.6-25.9-2-35.3,6.9
				c-9.3,8.9-14.6,21.1-20.6,32.5c-27.3,52.1-73.3,92.4-123.7,122.7c-54.6,32.8-189.9,56.8-218.9,116c-26,53.1,11.8,87.1,59.3,78.7
				c56.7-10,115-66.3,162.6-96C1026.4,1586.1,1102.8,1551.5,1141.9,1485.3z"/>
			<path class="st0" d="M3035.5,674.5c91.9,15,175.2,19.3,266-2.7c24-5.8,56.6-5.1,64.5-33.1c11.8-41.8-29.4-45.8-57.3-35.1
				c-70.5,27.1-150.8,33.1-223.8,12.5c-69.9-19.7-111.8-77.7-184.2-93.7c-24-5.3-85.2-4.2-88.9,31.1c-2.1,19.7,39.2,58.3,53.6,69.4
				C2912.4,659,2978.9,665.3,3035.5,674.5z"/>
			<path class="st0" d="M4395,1910.4c7.6,6,16.4,11.5,26.2,11.7c9.7,0.2,20.1-6.9,20.3-16.7c0.1-5.9-3.3-11.2-6.7-15.9
				c-19.3-27.1-43.6-51.6-54.6-83c-20.4-58.5,10-117.2,15-175.5c4.7-56.2-25.4-85.2-54.3-26.7
				C4296.7,1693.7,4313.8,1846.2,4395,1910.4z"/>
			<g>
				<path class="st1" d="M4127.6,1754.5c29.1,28.3,26.3,82.9-6.7,106.5c-33,23.6-87.3,6.6-99.1-32.2c-11.8-38.8,26.5-84,66.5-76.8
					c13.9,2.5,26.4,10,38.4,17.3"/>
				<circle class="st2" cx="3965.8" cy="1496.3" r="167.5"/>
				<g>
					<circle class="st2" cx="1888.2" cy="1889.7" r="158.4"/>
					
						<ellipse transform="matrix(0.7071 -0.7071 0.7071 0.7071 -567.8825 1940.0493)" class="st3" cx="2057.9" cy="1655.5" rx="35.5" ry="35.5"/>
				</g>
				<g>
					
						<ellipse transform="matrix(0.7071 -0.7071 0.7071 0.7071 -141.0605 1265.3496)" class="st2" cx="1456.9" cy="802.9" rx="46.5" ry="46.5"/>
					<path class="st4" d="M2422,1309.5c-6.4,0-11.6,5.2-11.6,11.6c0,6.4,5.2,11.6,11.7,11.6s11.6-5.2,11.6-11.7
						C2433.6,1314.7,2428.4,1309.5,2422,1309.5z"/>
					<path class="st5" d="M710,2008c0,12.8,10.5,23.2,23.3,23.2c12.8,0,23.2-10.5,23.2-23.3c0-12.8-10.5-23.2-23.3-23.2
						C720.4,1984.7,710,1995.1,710,2008z"/>
					<path class="st4" d="M2088.1,636c-6.4,0-11.6,5.2-11.6,11.7c0,6.4,5.2,11.6,11.7,11.6c6.4,0,11.6-5.2,11.6-11.7
						C2099.7,641.2,2094.5,636,2088.1,636z"/>
					<g>
						
							<ellipse transform="matrix(0.7071 -0.7071 0.7071 0.7071 154.9645 1976.381)" class="st6" cx="2463.2" cy="801.1" rx="108.5" ry="108.5"/>
					</g>
				</g>
			</g>
		</g>
		<g>
			<g class="st7">
				<polygon class="st8" points="3371.1,909.6 3474.7,909.4 3434.8,1364.4 3321,1364.6 				"/>
				<path class="st5" d="M3515.8,884.1l-28.6-19c0,0-27.8,53.1-25,76.3l15-2.8C3477.2,938.7,3477.8,903.3,3515.8,884.1z"/>
				<polygon class="st8" points="3243.9,991.2 3320.4,1007.2 3269.7,1364.7 3169,1364.9 				"/>
				<polygon class="st8" points="3241.4,1037.9 3356.8,1038.3 3329.8,1364.6 3210.1,1364.9 				"/>
				<polygon class="st5" points="3274.8,1212.7 3342,1218.1 3341.1,1230.3 3273.9,1224.9 				"/>
				<polygon class="st5" points="3113.2,1102.4 3162.7,1101.7 3070,1365.2 3013.3,1346.2 				"/>
				<polygon class="st8" points="3162.4,1101.2 3205.1,1108.9 3141.8,1365 3068.1,1365.2 				"/>
				<polygon class="st5" points="3207.8,993.2 3244.1,991.4 3172.4,1364.9 3126.1,1365 				"/>
				<polygon class="st8" points="3452.1,909 3579.1,908.7 3580,1364.1 3425.7,1364.4 				"/>
				<polygon class="st5" points="3372.9,951.1 3449.5,951 3446.6,1015 3366.9,1015.1 				"/>
				<polygon class="st5" points="3248,1058.1 3317.6,1054.5 3307.3,1195 3236.6,1187.3 				"/>
				<polygon class="st5" points="3222.5,1208.2 3319.6,1215.9 3318.7,1228.1 3221.6,1220.3 				"/>
				<polygon class="st5" points="3449.5,951 3578.6,950.7 3578.7,1011.4 3446,1015.8 				"/>
				<polygon class="st5" points="3371.6,1294.2 3404.2,1294.1 3401.3,1341.6 3368.6,1341.7 				"/>
				<polygon class="st5" points="3241.8,1003.5 3318.4,1020 3317.6,1026.1 3240.4,1010.3 				"/>
				<polygon class="st5" points="3241.8,1003.5 3205.6,1004.9 3203.7,1011.6 3240.4,1010.3 				"/>
				<polygon class="st5" points="3185.2,1131.8 3207.5,1132 3164.1,1343.1 3141.8,1342.9 				"/>
				<polygon class="st5" points="3040.8,1315.8 3070.5,1321.9 3064.7,1344.6 3032.5,1332.2 				"/>
				<polygon class="st5" points="3053.2,1289 3080.1,1293.3 3074.4,1316 3045.2,1305.6 				"/>
				<polygon class="st5" points="3095.7,1193.2 3122.6,1111.5 3141.5,1111.9 3107.4,1195.2 				"/>
			</g>
			<g class="st9">
				<path class="st10" d="M1907.8,851.3l105.2-42.9c1.9-0.8,2.8-3,2.1-4.9L1816.7,317c-0.8-1.9-3-2.8-4.9-2.1l-105.2,42.9
					c-1.9,0.8-2.8,3-2.1,4.9l198.3,486.5C1903.7,851.1,1905.9,852.1,1907.8,851.3z"/>
				<g class="st11">
					<path class="st5" d="M2519.5,1044.1l-0.1-68.5c0-1.7,1.3-3,3-3l406.9-0.9c1.7,0,3,1.3,3,3l0.1,68.5c0,1.7-1.3,3-3,3l-406.9,0.9
						C2520.8,1047.1,2519.5,1045.8,2519.5,1044.1z"/>
					<path class="st8" d="M2929.6,1214.8l-0.4-167.9c0-2.1-1.7-3.7-3.8-3.7l-346.4,0.7c-2.1,0-3.7,1.7-3.7,3.8l0.4,167.9
						c0,2.1,1.7,3.7,3.8,3.7l346.4-0.7C2927.9,1218.6,2929.6,1216.9,2929.6,1214.8z"/>
					<path class="st5" d="M2942.3,1356L2942,1213c0-2.1-1.7-3.7-3.8-3.7l-469,1c-2.1,0-3.7,1.7-3.7,3.8l0.3,143.1
						c0,2.1,1.7,3.7,3.8,3.7l469-1C2940.7,1359.8,2942.3,1358.1,2942.3,1356z"/>
					<path class="st5" d="M2953,713.4l0.3,124.8c0,4.3-3.5,7.9-7.8,7.9l-460.8,1c-4.3,0-7.9-3.5-7.9-7.9l-0.3-134.8
						c0-4.3,3.5-7.9,7.9-7.9l406.1-0.9C2911.1,702.2,2932,708.2,2953,713.4z"/>
					<path class="st5" d="M2634.8,1169.7c-6.1-28.2-0.8-61.5,0.1-90.2c0.2-5.3,8-5.3,8.2,0c1.1,28.8,6.5,62,0.5,90.2
						C2642.7,1174.4,2635.8,1174.4,2634.8,1169.7z"/>
					<path class="st5" d="M2676.2,1169.6c-6.1-28.2-0.8-61.5,0.1-90.2c0.2-5.3,8-5.3,8.2,0c1.1,28.8,6.5,62,0.5,90.2
						C2684.1,1174.3,2677.2,1174.3,2676.2,1169.6z"/>
					<path class="st5" d="M2717.6,1169.5c-6.1-28.2-0.8-61.5,0.1-90.2c0.2-5.3,8-5.3,8.2,0c1.1,28.8,6.5,62,0.5,90.2
						C2725.5,1174.2,2718.6,1174.3,2717.6,1169.5z"/>
				</g>
				<path class="st12" d="M4358.1,1405.1c7.2-13,14.4-26.1,21.1-39.3l-1366.7,2.9l-1-483.4l1304.6-2.8c-11-13.7-22.7-26.8-35.1-39.2
					L3011.4,846l-0.3-119.8c-18.2-3.4-36.4-7.4-54.4-11.8l0.3,131.7l-1256.9,2.7l-1.3-616.4l-54.4,0.1l2.5,1139.1l-373.3,0.8
					c-4.6,13.1-9.9,26.2-15.8,39.3l389.2-0.8l1.4,646.6l54.4-0.1l-0.3-136l1256.9-2.7l0.3,136l54.4-0.1l-0.3-136l1309-2.8
					c-6.6-12.7-12.6-25.7-18.1-39.3l-1290.9,2.8l-1-471.4L4358.1,1405.1z M2957.2,885.4l1,483.4l-1256.9,2.7l-1-483.4L2957.2,885.4z
					 M2959.3,1879.4l-1256.9,2.7l-1-471.4l1256.9-2.7L2959.3,1879.4z"/>
				<path class="st10" d="M1898,505.3l55.3-40.4c1.3-1,3.2-0.7,4.2,0.7l239.9,328.6c1,1.3,0.7,3.2-0.7,4.2l-55.3,40.4
					c-1.3,1-3.2,0.7-4.2-0.7l-239.9-328.6C1896.4,508.2,1896.7,506.3,1898,505.3z"/>
				<path class="st13" d="M2537.7,1859.6l46.5,19.2c1.9,0.8,4.1-0.1,4.9-2l139.3-336.4c0.8-1.9-0.1-4.1-2-4.9l-46.5-19.2
					c-1.9-0.8-4.1,0.1-4.9,2l-139.3,336.4C2534.9,1856.6,2535.8,1858.8,2537.7,1859.6z"/>
				<g class="st14">
					<path class="st5" d="M2789.4,1862.4l103.2,16.9c2,0.3,4-1,4.3-3.1l66.9-408.6c0.3-2-1-4-3.1-4.3l-103.2-16.9
						c-2-0.3-4,1-4.3,3.1l-66.9,408.6C2786,1860.1,2787.4,1862.1,2789.4,1862.4z"/>
					<path class="st5" d="M2873,1491.7c18.7-3.1,38.9,4.1,57.1,7.1c4.3,0.7,5.7,5.6,5,10.1c-0.7,4.5-3.6,8.7-8,8
						c-18.2-3-39.7-2.5-56.4-11.5C2865.9,1503,2867.6,1492.6,2873,1491.7z"/>
					<path class="st5" d="M2847.7,1646.1c18.7-3.2,38.9,4.1,57.1,7.1c4.3,0.7,5.7,5.6,5,10.1c-0.7,4.5-3.6,8.7-8,8
						c-18.2-3-39.7-2.5-56.4-11.5C2840.7,1657.4,2842.4,1647,2847.7,1646.1z"/>
					<path class="st5" d="M2891.9,1561.2c7.4,1.2,12.2,10.6,10.6,20.7c-1.6,10.1-9.2,17.4-16.6,16.2c-7.4-1.2-12.2-10.6-10.6-20.7
						C2876.9,1567.4,2884.5,1560,2891.9,1561.2z"/>
				</g>
				<g class="st15">
					<path class="st5" d="M2663.2,1853.9l90.2,20.9c2,0.5,4-0.8,4.5-2.8l77.1-332.4c0.5-2-0.8-4-2.8-4.5l-90.2-20.9
						c-2-0.5-4,0.8-4.5,2.8l-77.1,332.4C2659.9,1851.4,2661.2,1853.4,2663.2,1853.9z"/>
					<path class="st5" d="M2774.8,1570.4c6.6,1.5,9.5,14,6.4,27.5c-3.1,13.5-11.2,23.4-17.8,21.9c-6.6-1.5-9.5-14-6.4-27.5
						C2760.1,1578.8,2768.2,1568.9,2774.8,1570.4z"/>
					<path class="st5" d="M2731.3,1668.1c8.9,1.3,17.6,3.5,26.3,5.4c7.9,1.7,16.2,2.1,23,7.6c3.4,2.7,0.6,14.6-3.6,15.6
						c-8.5,1.9-16.1-1.4-24-3.3c-8.7-2.2-17.5-4-26-6.7c-3.1-0.4-3.4-5.5-2.2-10.3C2725.8,1671.6,2728.3,1667.1,2731.3,1668.1z"/>
				</g>
				<path class="st16" d="M1488.4,1193.8l24,0.1l27.9,0.1c95.1-128.4,2.9-272.2,2.9-272.2c-36.7,38.6-56.1,79.7-64.9,118.9
					C1464.7,1101.5,1476.5,1158,1488.4,1193.8z"/>
				<path class="st17" d="M1428.7,1193.6l59.7,0.1c-11.9-35.8-23.7-92.3-10.1-153.2c-30.8-49.2-70-77-70-77
					C1370.3,1059.6,1396.3,1139.9,1428.7,1193.6z"/>
				<polygon class="st17" points="1353.8,1193.5 1386.6,1368.8 1564.9,1369.2 1592.5,1194 1540.2,1193.9 1512.4,1193.8 
					1488.4,1193.8 1428.7,1193.6 				"/>
				<path class="st16" d="M2228,1192.2l24,0.1l27.9,0.1c95.1-128.4,2.9-272.2,2.9-272.2c-36.7,38.6-56.1,79.7-64.9,118.9
					C2204.3,1099.9,2216.1,1156.4,2228,1192.2z"/>
				<path class="st17" d="M2168.3,1192l59.7,0.1c-11.9-35.8-23.7-92.3-10.1-153.2c-30.8-49.2-70-77-70-77
					C2109.9,1058,2135.9,1138.3,2168.3,1192z"/>
				<polygon class="st17" points="2093.4,1191.9 2126.2,1367.2 2304.5,1367.6 2332.1,1192.4 2279.9,1192.3 2252,1192.3 2228,1192.2 
					2168.3,1192 				"/>
			</g>
		</g>
		<g>
			<path class="st18" d="M2276,1935.9l-45,87.9c0,0-305.3,301.3-361.1,330.7c0,0-111.4-71.1-109.6-166.5
				c-1.8,10.1-18.2,102.9-18.2,102.9l80.2,175.4l-340.5,38l134.8-388.7l0.4-3.8l53.4-528c0.5-0.6,0.9-1.3,1.4-2
				c6.5,4.4,10.2,6.9,10.2,6.9l15.5-63.6c6.4-16.2,12.1-33.2,15-49.3c0.6,0.1,1.3,0.2,1.9,0.3c34.4,5.3,89.8,15.5,134.3,31.4
				c27.1,9.7,50.2,21.4,62.1,35.5c42.7,50.5,25.2,572,25.2,572l268.1-261.3L2276,1935.9z"/>
			<path class="st19" d="M2276,1935.9l-4.1,7.9l-41,80c0,0-305.3,301.3-361.1,330.7c0,0-111.4-71.1-109.6-166.5
				c-1.8,10.1-18.2,102.9-18.2,102.9l80.2,175.4l-340.5,38l134.8-388.7l0.4-3.8l53.4-528c0.5-0.6,0.9-1.3,1.4-2
				c6.5,4.4,10.2,6.9,10.2,6.9l15.5-63.6c6.4-16.2,12.1-33.2,15-49.3c0.6,0.1,1.3,0.2,1.9,0.3c34.4,5.3,89.8,15.5,134.3,31.4
				c27.1,9.7,50.2,21.4,62.1,35.5c42.7,50.5,25.2,572,25.2,572l268.1-261.3l11.1,12.7L2276,1935.9z"/>
			<path class="st18" d="M1670.6,1581c0.4,0.3,0.7,0.5,1.1,0.7c-0.5,0.7-0.9,1.4-1.4,2L1670.6,1581z"/>
			<path class="st18" d="M1712.4,1475.8c-2.8,16.1-8.5,33-15,49.3l12.1-49.7C1710.5,1475.5,1711.4,1475.7,1712.4,1475.8z"/>
			<g>
				<path class="st20" d="M1899.7,2990.2l-30.4,6.5c-11.4,2.4-22.7,4.9-34.1,7.3l-347.5,74.6c-42.4,9.1-84.9,18.2-127.4,27.3
					l-99.5-3.6l-19.6-0.7l-3.4-0.1L917.2,3090l-6.7-90.5l119.8-1.1l123.5-1.2l0.9,0l15.2-0.1l8.3-0.1l20.1-0.2h0l70.9-0.7l0.5,0
					l504.6-4.7L1899.7,2990.2z"/>
				<path class="st21" d="M1360.4,3106c-28.7,6.2-57.4,12.3-86,18.5c-5.5,1.2-11,2.4-16.6,3.5c-0.2,0.1-0.4,0.1-0.6,0.2
					c-1.8,0.4-3.6,0.8-5.5,1.2c-6.5,1.4-13.1,2.8-19.7,4.2h0l-312.9-7.7l-1.9-35.9l320.7,11.6l3.4,0.1l2.8,0.1l16.7,0.6L1360.4,3106
					z"/>
				<path class="st22" d="M800,2120.6c13.5,172.4,206.9,582.2,301.4,774.2c27.1,55,46,92.1,50.4,100.6c0.7,1.2,1,1.9,1,1.9
					l623.1,2.4l-1.6-8c-10.7-52.9-74.1-361.8-146.9-597.6c-33.4-108.8-68.8-202.1-101.9-247.3
					C1388.5,1959.2,787.1,1958.6,800,2120.6z"/>
				<path class="st23" d="M1088.3,2994.8l63.5,0.5l624.1,4.3l-1.6-8c-10.7-52.9-74.1-361.8-146.9-597.6
					c-69.7,16.5-237.3,70.3-373.4,223.7c-94.1,106.3-135,206.6-152.6,276.9C1085.9,2956.3,1088.3,2994.8,1088.3,2994.8z"/>
				<path class="st24" d="M1915,2987c-5.1,1.1-10.1,2.1-15.2,3.2h-0.1l-30.4,6.5c-11.4,2.4-22.7,4.9-34.1,7.3l-561.9-6.5l-0.6,0
					l-74.5-0.9h0l-0.8-1.2l-12.6-17.7l2.6,0l583.5,7.3l2,0h0l17.2,0.2L1915,2987z"/>
				<path class="st25" d="M1790.2,2985.5c0,0-122.3-522.3-189.8-701.6c-67.5-179.3-145.7-198.6-145.7-198.6s82.2,54.3,156,273.8
					c73.8,219.5,160.2,626.1,160.2,626.1L1790.2,2985.5z"/>
			</g>
			<path class="st26" d="M1974.8,1059.4l0,22.9c0,1.4,0,2.9-0.1,4.3c-0.3,8.2-1.4,16.2-3.4,24c-4.8,19.5-14.7,37.7-28.8,52.5
				l-7.8,8.2c-9.8,10.4-14.2,24.9-11.6,38.9l17.3,95.5c2.9,16.2-9.5,31-25.9,31.1l-19.3,0c-13.8,0-25.7,9.8-28.4,23.3l-9.8,48.4
				c-3.8,18.7-20.2,32.2-39.3,32.3l-5.4,0c-32.3,0.1-64.1-7.1-93.1-20.8c-9.3-4.4-18.4-9.5-27.1-15.3l-65.3-43.3
				c-30.7-20.4-52.2-52-59.9-88l-9.5-44.8c0,0-10.2-15.9-19.7-37c0,0,0,0,0,0c-2.1-4.7-4.2-9.6-6.1-14.6c-0.6-1.5-1.1-2.9-1.6-4.4
				c-0.5-1.4-1-2.8-1.4-4.2c0-0.1,0-0.1-0.1-0.2c-0.5-1.4-0.9-2.7-1.3-4.1c-0.4-1.4-0.8-2.7-1.2-4.1c-6.6-23.6-7.8-47.6,7.3-61.6
				c10.1-9.4,26.6-14.8,40-10.5c5.6,1.7,10.7,5.2,14.5,10.7c10.7,15.3,14.9,44.4,17.5,62.7c0,0.2,0.1,0.3,0.1,0.5
				c0.2-0.2,0.3-0.5,0.5-0.7l0.7-0.3c1,0.6,2.1,1.2,3.1,1.6c10.8,4.6,23.7-0.1,28.8-11.1l2.9-6.3l49.5-106.1
				c0.6-1.2,1.2-2.4,1.9-3.5c6-10.2,15.9-16.9,26.8-19.1c8.1-1.7,16.8-0.9,24.8,2.7c0.7,0.3,1.5,0.7,2.2,1
				c26.6,13.8,67.6,31.9,123.1,47c1,0.3,2.1,0.6,3.1,0.8c1,0.3,2.1,0.6,3.1,0.8c1,0.3,2.1,0.5,3.1,0.8c1.1,0.2,2.1,0.5,3.1,0.7
				s2.1,0.4,3.1,0.7c39.7,8.3,66.1,3.1,84.7-8.1c0,0,0.1,0,0.1,0C1971.7,1061.5,1973.3,1060.4,1974.8,1059.4z"/>
			<path class="st26" d="M1734.7,1357.1l-21.2,87l-27.7,113.8l-7,28.7l-20.6,84.6c0,0-8.9-16-11.3-7.7
				c-46.3,156.6-221.7-74.9-196.6-170.1c8.8-33.5,44.8-202.3,44.8-202.3v-0.1c0.8-1.2,1.7-2.8,2.7-4.7c9.2-17.3,26.5-60.6,35-82.2
				c2.9-7.5,4.8-12.4,4.9-12.7c0,0,0,0,0,0c-3.3-7.3-6.6-15.3-9.3-23.4c-0.9-2.7-1.7-5.5-2.5-8.2l13.5,12.7L1734.7,1357.1z"/>
			<path class="st27" d="M1719.4,1419.9l-5.9,24.2l-14.8,60.7l-27.4,74.5c-91.1-91.4-151-233.1-173.5-292.9
				c9.2-17.3,26.5-60.6,35-82.2c2.9-7.5,4.8-12.4,4.9-12.7c9.5,21.2,19.7,37,19.7,37l9.5,44.8c7.7,36.1,29.2,67.6,59.9,88l65.3,43.3
				C1700.9,1410.4,1710,1415.5,1719.4,1419.9z"/>
			<path class="st28" d="M1719.4,1419.9l-5.9,24.2c-17-7.3-33.1-16.8-47.8-28.3c0,0-61.7-48.1-61.8-48.2
				c-25.3-19.7-43.3-48-50.6-79.2c-3.1-13.2-4.6-26.4-3.5-39.9c1.3-15.2-11.2-23.8-23.8-11.2c-3.6,3.6-7,7.8-11.7,9.6
				c5.9-10.9,10.4-22.6,13.2-34.7c0.8-3.5,1.5-7.1,3.4-10.2c8.5-13.6,14.4,5,18.1,11.7c2.3,4.2,7.6,10.1,8.6,14.7
				c0,0,9.5,44.8,9.5,44.8c7.7,36.1,29.2,67.6,59.9,88l65.3,43.3C1700.9,1410.4,1710,1415.5,1719.4,1419.9z"/>
			<path class="st26" d="M1974.7,1012l0.1,47.3c-20.9,14.8-52.7,21.7-105,7.5c-55.5-15.1-96.5-33.2-123.1-47
				c-20.6-10.7-45.9-2.2-55.7,18.8l-52.5,112.4c-5.6,12.1-20.6,16.5-31.9,9.5l-0.7,0.3c21.8-33.9,25.9-78.9,34.8-117.8
				c1.2-5,14.6-75.5,17.3-75.5l162.3-0.3L1974.7,1012z"/>
			<path class="st29" d="M2015.9,1002.7c-9.4,17.6-19.5,41.4-41.1,56.7c-20.9,14.8-52.7,21.7-105,7.5c-55.5-15.1-96.5-33.2-123.1-47
				c-3.8-2-7.7-3.3-11.7-4c-17.6-3.1-35.9,5.7-44,22.8l-22.6,48.3c0,0.1,0,0.1-0.1,0.2l-29.9,63.9c-1.7,3.5-4.1,6.4-7.1,8.6
				c-1,0.7-2.1,1.4-3.2,1.9c0,0-0.1,0-0.1,0c-3.9,1.9-8.3,2.7-12.6,2.1c-3.1-0.4-6.1-1.4-9-3.2l-0.7,0.3l-0.5,0.2
				c-0.3-2.3-0.7-4.7-1.1-7.3c-0.2-1.4-0.4-2.8-0.6-4.2c-2.7-17.4-7.2-38.8-15.8-51.2c0,0,0-0.1-0.1-0.1
				c-13.2-18.7-40.3-13.4-54.5-0.1c-0.6,0.5-1.1,1-1.5,1.6c-2,2.1-3.7,4.5-5.1,7c-0.1,0.1-0.1,0.2-0.2,0.3
				c-5.9,10.8-6.2,24.8-3.6,39.3c0.8,4.4,1.8,8.9,3.1,13.4l0,0c3.1,11,7.4,21.9,11.8,31.6c0,0,0,0,0,0c-0.4,1.1-23.8,62.2-37.1,89.4
				c-2.2,4.4-4.1,7.9-5.5,10.2c0.5-0.7,0.7-1.7,0.7-3c0-1.7-0.2-3.9-0.7-6.5c-0.8-3.9-2.2-8.8-4-14.2c-9.5-28.2-30-71.5-33.2-80.6
				c-2.7-7.6-5.3-15.2-6.5-23.1c-0.9-6.3-1.2-13-0.8-19.9c2.3-45.5,30.4-101.8,49.4-137.9c28.9-54.9,68.9-104.3,120-140
				c17.7-12.4,40.5-15.2,60.8-7.6c4.9,1.8,10.2,3.8,16,5.8c34.7,12.2,85,27.4,135.1,33.8c52.4,6.8,104.7,4,139.3-21.4l0.7-0.6
				l1.2-0.9C1973.1,875,2034.5,968,2015.9,1002.7z"/>
			<path class="st26" d="M1495.8,1288.1c0,1.3-0.3,2.3-0.7,3L1495.8,1288.1z"/>
			<path class="st30" d="M1681.7,1471.6"/>
			<g>
				<path class="st5" d="M1670.3,1582.8l-53.7,529l-102.2-14.6c0,0-33.6-629.1-41.6-658.4c1,17.4,25.2-17,33.7-1.4
					c9.5,17.6,14.5,34.2,21.5,52.1c13.6,35,44.8,78.9,77.2,98.5C1634.9,1606.2,1655.2,1603.9,1670.3,1582.8z"/>
			</g>
			<g>
				<path class="st5" d="M1680,1566.2c5.3-12.3,11.7-26.4,17.4-41.1l-15.5,63.6c0,0-3.7-2.5-10.2-6.9
					C1674.7,1577.3,1677.4,1572.1,1680,1566.2z"/>
			</g>
			<path class="st18" d="M2208.8,2911.2c-0.8,6.8-2.4,15.4-4.6,25.2c-6,0.7-12,1.4-18,2.2c-66.3,8.3-132.5,20.1-198.3,33.3
				c-24.4,4.9-48.7,9.9-72.9,15.1c-5.1,1.1-10.1,2.1-15.2,3.2h-0.1l-30.4,6.5c-11.4,2.4-22.7,4.9-34.1,7.3l-199.8,42.9l-147.7,31.7
				c-89.8-5-176.6-10-249.5-14.1c-6.9-0.4-13.7-0.8-20.3-1.2c-2-0.1-4-0.2-6-0.3c-12-0.7-23.6-1.3-34.6-1.9
				c-84.1-4.7-138.6-7.8-138.6-7.8s-3.3-21.7-8.3-55c-14.5-97.8-42.6-295.8-39.5-336.8c0-0.3,0.1-0.5,0.1-0.8
				c0.3-3.4,0.8-5.6,1.6-6.4c0,0,1-0.2,2.8-0.5c2.9-0.5,7.8-1.4,14.7-2.7c18.9-3.4,51.8-9.4,92.7-16.6
				c35.6-6.4,77.2-13.7,120.9-21.3c0.1,0,0.3-0.1,0.4-0.1c6.2-1.1,12.5-2.2,18.8-3.3c7.3-1.3,14.5-2.5,21.8-3.8
				c17.1-3,34.4-5.9,51.5-8.8c4.2-0.7,8.4-1.4,12.5-2.1c3.8-0.6,7.6-1.3,11.4-1.9c0.5-0.1,1.1-0.2,1.6-0.3c4.3-0.7,8.5-1.4,12.7-2.1
				c10.5-1.8,21-3.5,31.2-5.2c3.4-0.5,6.7-1.1,10-1.6c1.6-0.3,3.2-0.5,4.7-0.8c2.4-0.4,4.7-0.8,7-1.2c2.8-0.5,5.7-0.9,8.5-1.4
				c5.2-0.8,10.4-1.7,15.5-2.5c2.6-0.4,5.2-0.8,7.8-1.2c5.4-0.9,10.7-1.7,15.9-2.5c0.5-0.1,1.1-0.2,1.6-0.2c5-0.8,9.9-1.5,14.6-2.3
				c3.8-0.6,7.5-1.2,11.2-1.7c0.2-0.1,0.4-0.1,0.6-0.1c1.5-0.2,3-0.4,4.4-0.7c3.1-0.5,6.1-0.9,9.1-1.4c0.3,0,0.5-0.1,0.8-0.1
				c3-0.4,6-0.9,8.9-1.3c1.8-0.3,3.5-0.5,5.2-0.8c1.4-0.2,2.7-0.4,4.1-0.6c6.4-0.9,12.4-1.8,18.2-2.5c5.1-0.7,9.9-1.3,14.4-1.9
				c0,0,0.1,0,0.1,0c0.8-0.1,1.5-0.2,2.3-0.3c2.3-0.3,4.4-0.5,6.5-0.8c0.1,0,0.2,0,0.3,0c0.7-0.1,1.4-0.2,2.2-0.2
				c0.7-0.1,1.4-0.2,2.1-0.2c0.1,0,0.2,0,0.3,0c1.8-0.2,3.5-0.4,5.2-0.5c0.9-0.1,1.8-0.2,2.7-0.3c5.3-0.5,9.7-0.8,13.1-1
				c28.1-1,58.4,4.1,89.4,12.7c1.7,0.5,3.5,1,5.2,1.5c3.3,1,6.6,1.9,9.9,3c55.6,17.2,112.5,44.1,162.3,65.5c0.9,0.4,1.9,0.8,2.8,1.2
				c6.1,2.6,12,5.1,17.9,7.5c5.9,2.4,11.6,4.7,17.2,6.8c64.3,24.6,128.2,49.9,192.1,75.7c7.5,3,14.9,6.4,22.1,10.2
				c25.9,13.5,50.1,31.8,68.9,54C2197.8,2827.2,2214,2866.8,2208.8,2911.2z"/>
			<path class="st18" d="M2550.7,2876.9c-1.6,21.7-4.4,43.6-7.7,65c-11.6-2.1-23.2-3.9-34.8-5.6c-19.5-2.8-38.9-4.9-58.4-6.4
				c-81.7-6.5-163.7-2.9-245.6,6.5c-72.3,8.3-144.6,21.1-216.3,35.5c-79.9-121.7-213.3-324.7-218.3-332.3c4.9,5.8,45.4,3.4,80.2,0.3
				c23.8-2.1,44.9-4.5,50-4.6c90.6-2.5,181.2-4.4,271.8-4.4c81.8,0,195.3-15.6,277.6,20.9c20.9,9.2,39.8,21.9,55.7,38.9
				c28.5,30.6,41.5,70.4,45.8,113.7C2552.8,2827.9,2552.5,2852.3,2550.7,2876.9z"/>
			<path class="st19" d="M2550.7,2876.9c-1.6,21.7-4.4,43.6-7.7,65c-11.6-2.1-23.2-3.9-34.8-5.6c-19.5-2.8-38.9-4.9-58.4-6.4
				c-81.7-6.5-163.7-2.9-245.6,6.5c2.3-9.8,3.8-18.4,4.6-25.2c9.8-84-56.8-150.9-129.2-180.1c-63.8-25.7-127.8-51-192.1-75.7
				c-12-4.6-24.7-9.9-37.9-15.5c23.8-2.1,44.9-4.5,50-4.6c90.6-2.5,181.2-4.4,271.8-4.4c81.8,0,195.3-15.6,277.6,20.9
				c20.9,9.2,39.8,21.9,55.7,38.9c28.5,30.6,41.5,70.4,45.8,113.7C2552.8,2827.9,2552.5,2852.3,2550.7,2876.9z"/>
			<path class="st26" d="M2464.5,1972.4c-10.9,36.5-50.9,64.8-87.2,72.4c-8.7,1.8-17.8,3.4-27.3,4.7c-40.2,5.7-86.3,7.6-125.1,7.9
				c-18.5,0.1-35.4,0-49-0.3c-2.1,0-4.2-0.1-6.1-0.1c-18.1-0.5-29.2-1.1-29.2-1.1l-0.2-106.4c0,0,1.1-0.5,3.1-1.4
				c3.1-1.4,8.3-3.8,15.2-6.9c3.3-1.6,7-3.2,11-5.1c2.3-1.1,4.8-2.2,7.3-3.4c16.1-7.4,35.6-16.4,55.2-25.3c4.5-2.1,9.1-4.1,13.5-6.2
				c15.6-7.2,30.6-14,43-19.7c19.5-8.9,40.4-13.9,61.8-15.1c28.5-1.6,58.2-5.4,85,1.3c1.4,0.3,2.8,0.7,4.2,1.1
				c25.4,7.5,22.3,16.3,23.6,41.7C2464.1,1929.6,2470.1,1953.7,2464.5,1972.4z"/>
			<path class="st26" d="M2215.1,1866.4l96.1-49c27.6-14.1,60.4-13.2,87.3,2.3h0c24.5,14.2,39.6,40.3,39.7,68.6l0,15.5l-188.8,45.6
				L2215.1,1866.4z"/>
			<path class="st28" d="M2435.4,1867.7c-26.8-6.7-56.5-2.9-85-1.3c-21.4,1.2-42.3,6.2-61.8,15.1c-12.4,5.7-27.4,12.6-43,19.7
				c-4.5,2.1-9,4.1-13.5,6.2l-17-41.1l96.1-49c27.6-14.1,60.4-13.2,87.3,2.3c12.2,7.1,22.1,17.1,29,29
				C2431,1854.6,2433.6,1861,2435.4,1867.7z"/>
			<path class="st18" d="M2162.4,2115.7c-39.4,17.5-78.9,35-118.3,52.5c-4.5,2-9,4-13.4,6c-8.8,3.9-17.6,7.8-26.3,11.7
				c-19.1,8.4-38.1,16.9-57.2,25.3c-38.4,17.1-76.8,34.1-115.2,51.1c-65.7,29.1-131.3,58.4-197.1,87.4l-636.3,1.4l0.4,206.2
				l561.4-1.2c0.5,1,0.9,2,1.3,3.1c7.9,19.4,9.1,40.9-3.1,57.2c-12.6,16.7-34.8,22.1-55.3,26.4c-116.7,24.5-233.4,49-350,73.6
				c-41.8,8.8-84.2,17.6-126.6,18.6c-16.1,0.4-32.3-0.3-48.4-2.5c-7.2-1-14.8-2.5-20-7.6c-4.9-4.8-6.7-11.7-8.2-18.4
				c-3-13.3-5.5-26.8-7.3-40.3c-5.5-39.1-3.9-77.9-2-116.7c1.1-20.9,2.3-41.7,2.5-62.6c0.1-12.5-0.1-24.9-0.8-37.4
				c-0.9-15.5-0.9-30.9-0.2-46.4c1.6-40.3,7.6-80.5,13.4-120.3c13.8-95.5,32.8-190.2,54.1-284.4c5.7-25.2,11.5-50.3,17.5-75.4
				c24.3-101.8,50.4-203.3,78.9-304.1c25.8-25.8,50.1-52.8,72.6-81c22.3-27.8,41.1-55.5,56.8-83l114-33.2
				c14.3-4.2,28.6-8.3,42.9-12.5c0.1,0,0.2-0.1,0.4-0.1l31.2-9.1c8.7,0.5,18,4.2,26.1,6.2c8.8,2.2,17.8,4.5,25.5,9.4
				c7.1,4.6,12.7,11.2,18.1,17.8c17.5,21.6,26.8,47.1,32.7,73.8l12.7,80.6c8.7,55.3,17.4,110.6,26.1,165.9
				c15.1,95.7,30.2,191.4,45.2,287.1c1.6,10.2,3.2,20.3,4.8,30.5l1.1,7l73.9-20.9l12.3-3.5l453.5-128.4l0.7,4.9l1.6,10.7l17.3,115.9
				l2.6,17.3l1.4,9.5C2181.9,2097.2,2174.7,2110.2,2162.4,2115.7z"/>
			<path class="st31" d="M1615.4,2071.3c-1,9.3-2.4,17.9-4.2,25.7c0,0-158.4-551-261.5-675.3c14.3-4.2,28.6-8.3,42.9-12.5
				c0.1,0,0.2-0.1,0.4-0.1c8.2-2.5,17.3-7.7,25.6-8.9c1.8-0.3,3.7-0.3,5.6-0.2c8.7,0.5,18,4.2,26.1,6.2c8.8,2.2,17.8,4.5,25.5,9.4
				c7.1,4.6,12.7,11.2,18.1,17.8c17.5,21.6,26.8,47.1,32.7,73.8c5.9,26.5,8.6,54.2,12.7,80.6c8.7,55.3,17.4,110.6,26.1,165.9
				c15.1,95.7,30.2,191.4,45.2,287.1C1612.2,2050.9,1613.8,2061.1,1615.4,2071.3z"/>
			<path class="st32" d="M2208.3,2784.9c-1.8-0.7-3.5-1.5-5.3-2.2c0-0.1,0-0.1,0.1-0.2C2204.4,2778.7,2211.9,2783.1,2208.3,2784.9z"
				/>
			<path class="st32" d="M2208.8,2911.2c-0.8,6.8-2.4,15.4-4.6,25.2c-6,0.7-12,1.4-18,2.2c-3.2-1.1-6.3-2.5-9.2-4
				c-10,0.3-21.2-3.6-30.2-8.5c-39.9-21.6-72.5-54.5-110.6-79.2c-134.1-86.9-349-92.1-501.6-73.3c-31.9,3.9-74.6,0-100.7,5
				c-22.9-1.2-40.2-3.3-55.4-3.6l-0.1,0c-15.8-0.2-29.3,1.6-44.5,8.6c-12.5,5.7-26.2,15-43.3,29.4c-22.3,18.9-46.4,41.3-47.7,70.5
				c-1.1,24.1,14.6,46.4,34.5,59.9c19.9,13.6,43.7,19.9,67,26.1c92.6,24.4,185.1,48.9,277.7,73.4c4.5,1.2,9,2.4,13.4,4.1
				l-147.7,31.7c-89.8-5-176.6-10-249.5-14.1c-6.9-0.4-13.7-0.8-20.3-1.2c-2-0.1-4-0.2-6-0.3c-12-0.7-23.6-1.3-34.6-1.9
				c-38.5-29.4-71.6-66.6-97-107.7c-15.5-25.2-29-53.6-26.1-83c1.5-15.6,9.1-31,20.4-41.7c-15.4-29.1-31.4-60.4-47.9-93.8
				c-11.7-23.6-23.6-48.3-35.7-74.1c-5.1-10.9-10.3-22.1-15.5-33.4c-0.5-1-0.9-1.9-1.3-2.9c-11.9-26-23-51.1-33.4-75.1
				c1.1-20.6,4.6-42.2,2.5-62.6c0.1-12.5-0.1-24.9-0.8-37.4c-0.9-15.5-0.9-30.9-0.2-46.4c1.6-40.3,7.6-80.5,13.4-120.3
				c13.8-95.5,32.8-190.2,54.1-284.4c4.3,2.4,6,8.3,6.9,13.4c19.6,105.8,11.5,214.5,17.9,321.9c0.4,5.9,1,11.7,2,17.4
				c9.4,57.4,46.3,107.2,77.5,156.1c11.4,17.9,24.6,34.6,39.2,49.9c20.8,21.8,44.6,40.8,70.4,56.3c0.1,0,0.3-0.1,0.4-0.1
				c6.2-1.1,12.5-2.2,18.8-3.3c7.3-1.3,14.5-2.5,21.8-3.8c17.1-3,34.4-5.9,51.5-8.8c4.2-0.7,8.4-1.4,12.5-2.1
				c3.8-0.6,7.6-1.3,11.4-1.9c0.5-0.1,1.1-0.2,1.6-0.3c4.3-0.7,8.5-1.4,12.7-2.1c10.5-1.8,21-3.5,31.2-5.2c3.4-0.5,6.7-1.1,10-1.6
				c1.6-0.3,3.2-0.5,4.7-0.8c2.4-0.4,4.7-0.8,7-1.2c2.8-0.5,5.7-0.9,8.5-1.4c5.2-0.9,10.4-1.7,15.5-2.5c2.6-0.4,5.2-0.8,7.8-1.2
				c5.4-0.9,10.7-1.7,15.9-2.5c0.5-0.1,1.1-0.2,1.6-0.2c5-0.8,9.8-1.5,14.6-2.3c3.8-0.6,7.5-1.2,11.2-1.7c0.2-0.1,0.4-0.1,0.6-0.1
				c1.5-0.2,3-0.4,4.4-0.7c3.1-0.5,6.1-0.9,9.1-1.4c0.3,0,0.5-0.1,0.8-0.1c3-0.4,6-0.9,8.9-1.3c1.8-0.3,3.5-0.5,5.2-0.8
				c1.4-0.2,2.7-0.4,4.1-0.6c6.4-0.9,12.4-1.8,18.2-2.5c5.1-0.7,9.9-1.3,14.4-1.9c0,0,0.1,0,0.1,0c0.8-0.1,1.5-0.2,2.3-0.3
				c2.3-0.3,4.4-0.6,6.5-0.8c0.1,0,0.2,0,0.3,0c0.7-0.1,1.4-0.2,2.2-0.2c0.7-0.1,1.4-0.2,2.1-0.2c0.1,0,0.2,0,0.3,0
				c1.8-0.2,3.5-0.4,5.2-0.5c0.9-0.1,1.8-0.2,2.7-0.3c5.3-0.5,9.7-0.8,13.1-1c28.1-1,58.4,4.1,89.4,12.7c1.7,0.5,3.5,1,5.2,1.5
				c3.3,1,6.6,1.9,9.9,3c55.6,17.2,112.5,44.1,162.3,65.5c0.9,0.4,1.9,0.8,2.8,1.2c0.9,0.4,1.8,0.7,2.7,1.1
				c5.1,2.1,10.1,4.3,15.2,6.4c19,8,38.1,15.9,57.3,23.6l-1.6-1.6c29,11.2,56.8,22,83.1,34.1c0.1,0,0.2,0.1,0.2,0.1
				c30.8,12.1,61.6,24.3,92.4,36.5c25.9,13.5,50.1,31.8,68.9,54C2197.8,2827.2,2214,2866.8,2208.8,2911.2z"/>
			<path class="st32" d="M1388.1,2776.1l-54.3,7.5c15.3-7,28.8-8.8,44.5-8.6l0.1,0C1381.7,2775.5,1384.9,2775.8,1388.1,2776.1z"/>
			<path class="st31" d="M1848.6,1507.5c-52.2,136-232,608.1-232,608.1l54.1-534.6l0.7-1.8l27.4-74.5l10.8-29.4
				C1743.4,1480.5,1802,1490.8,1848.6,1507.5z"/>
			<g>
				<path class="st5" d="M1251.7,3129.3c-6.5,1.4-13.1,2.8-19.7,4.2h0c-17.8,3.8-35.7,7.7-53.6,11.5
					c-72.3,15.5-146.1,31.1-219.7,23.6c-2.2-0.2-4.3-0.5-6.5-0.7c-8.8-4.7-16.8-10.7-23.6-18.4c-11.5-13-12.4-24.5-14-40.5
					c-18.7-183.6-41.3-368.5-63.1-552.4c-16.3-137.6-32.7-275.3-49-412.9l0-0.1c-0.8-6.9-1.6-13.7-2.4-20.6c0,0,0,0,0-0.1
					c0-0.1,0-0.1,0-0.2c-0.1-0.7-0.2-1.4-0.2-2.1c0,0.2,0.1,0.4,0.1,0.8c0,0.1,0,0.2,0,0.3l0,0.1c0.1,0.2,0.1,0.4,0.1,0.6
					c0,0.2,0.1,0.3,0.1,0.5c2.3,16.8,18.7,120.2,94.6,315.2c0.3,0.8,0.7,1.6,1,2.5c3,7.6,6,15.3,9.1,23.1
					c19.3,48.3,42.1,101.9,69,160.7c0.4,1,0.9,1.9,1.3,2.9c5.2,11.3,10.3,22.5,15.5,33.4c30.8,65.8,60.5,124.6,88.1,176.4
					c8.6,16.2,17.1,31.8,25.3,46.6c23.6,42.8,45.4,79.9,64.7,111.6l1,1.6c0.1,0.1,0.1,0.2,0.1,0.2c15.6,25.6,29.7,47.5,41.8,65.9
					c10.1,15.3,18.9,28.1,26.1,38.5c6,8.5,10.9,15.3,14.7,20.5C1252.8,3124.7,1252.5,3127.2,1251.7,3129.3z"/>
				<path class="st5" d="M1252.6,3122.1c-3.8-5.2-8.7-12-14.7-20.5c-7.2-10.3-16-23.1-26.1-38.5c-12.1-18.3-26.1-40.3-41.8-65.9
					c0-0.1-0.1-0.1-0.1-0.2l-1-1.6c-19.3-31.7-41.1-68.8-64.7-111.6c-8.2-14.9-16.6-30.4-25.3-46.6
					c-27.6-51.8-57.3-110.6-88.1-176.4c-5.1-10.9-10.3-22.1-15.5-33.4c-0.5-1-0.9-1.9-1.3-2.9c-26.9-58.8-49.7-112.4-69-160.7
					c-3.1-7.8-6.2-15.6-9.1-23.1c-0.3-0.9-0.6-1.7-1-2.5c-75.9-195-92.3-298.4-94.6-315.2c2.7,15.9,21.4,110.3,108.6,330.4
					c8.9,22.3,18.4,45.9,28.7,70.9c2.1,5.1,4.2,10.2,6.3,15.2c43.7,103.6,93.7,204.6,147.3,303.5c5.3,9.9,10.7,19.7,16.2,29.6
					c22.8,41.3,46.2,82.2,69.9,122.9c0.2,0.4,0.4,0.7,0.6,1.1c0.1,0.1,0.1,0.2,0.2,0.4c0.1,0.1,0.1,0.2,0.2,0.3
					c14.6,24.8,29.3,49.6,44.3,74.2c5,8.3,14.5,19.4,21.4,30.3c3.9,6.1,7,12.1,8,17.4C1252.4,3120.2,1252.5,3121.2,1252.6,3122.1z"
					/>
				<path class="st5" d="M1274.3,3124.5c-5.5,1.2-11,2.4-16.6,3.5c-0.2,0.1-0.4,0.1-0.6,0.2c-1.3-1.7-2.8-3.7-4.5-6.1
					c-3.8-5.2-8.7-12-14.7-20.5c-7.2-10.3-16-23.1-26.1-38.5c-12.1-18.3-26.1-40.3-41.8-65.9c0-0.1-0.1-0.1-0.1-0.2l-1-1.6
					c-19.3-31.7-41.1-68.8-64.7-111.6c-8.2-14.9-16.6-30.4-25.3-46.6c-27.6-51.8-57.3-110.6-88.1-176.4
					c-5.1-10.9-10.3-22.1-15.5-33.4c-0.5-1-0.9-1.9-1.3-2.9c-26.9-58.8-49.7-112.4-69-160.7c-3.1-7.8-6.2-15.6-9.1-23.1
					c-0.3-0.9-0.6-1.7-1-2.5c-75.9-195-92.3-298.4-94.6-315.2c0-0.2-0.1-0.3-0.1-0.5c-0.1-0.7-0.1-1.1-0.2-1.5
					c0-0.3-0.1-0.5-0.1-0.5s33.5,133.6,113.3,323.1c24.1,57.1,52.3,119.4,85.2,184.6c3.9,7.7,7.7,15.3,11.6,22.9
					c36,70.8,71.7,137.5,104.6,197.5c0.1,0.2,0.2,0.4,0.3,0.6c26.2,47.6,50.7,91,72.5,128.7c3.5,6,6.9,11.9,10.2,17.7
					c0.2,0.4,0.5,0.8,0.7,1.1h0c0.1,0.2,0.2,0.4,0.3,0.6c14.9,25.6,28.2,48.2,39.5,67.3c8.8,14.9,16.5,27.5,22.7,37.8
					C1266.6,3111.8,1271.1,3119.2,1274.3,3124.5z"/>
			</g>
			<path class="st32" d="M1240.3,3131.7c-2.8,0.6-5.5,1.2-8.3,1.8h0c-17.8,3.8-35.7,7.7-53.6,11.5c-72.3,15.5-146.1,31.1-219.7,23.6
				c-2.2-0.2-4.3-0.5-6.5-0.7c-8.8-4.7-16.8-10.7-23.6-18.4c-11.5-13-12.4-24.5-14-40.5c-13.7-134.6-29.5-270-45.5-405.1
				C967.3,2851.5,1098.3,3019.9,1240.3,3131.7z"/>
			<g class="st33">
				<path class="st31" d="M1251.7,3129.3c-3.8,0.8-7.6,1.6-11.3,2.4c-2.8,0.6-5.5,1.2-8.3,1.8h0c-17.8,3.8-35.7,7.7-53.6,11.5
					c-72.3,15.5-146.1,31.1-219.7,23.6c-2.2-0.2-4.3-0.5-6.5-0.7c-8.8-4.7-16.8-10.7-23.6-18.4c-11.5-13-12.4-24.5-14-40.5
					c-13.7-134.6-29.5-270-45.5-405.1c-5.8-49.2-11.7-98.3-17.5-147.3c-16.3-137.6-32.7-275.3-49-412.9l0-0.1
					c-0.8-6.9-1.6-13.7-2.4-20.6c0,0,0,0,0-0.1c0-0.1,0-0.1,0-0.2c-0.1-0.7-0.2-1.4-0.2-2.1c0,0.2,0.1,0.4,0.1,0.8
					c0,0.1,0,0.2,0,0.3l0,0.1c0.1,0.2,0.1,0.4,0.1,0.6c0,0.2,0.1,0.3,0.1,0.5c2.3,16.8,18.7,120.2,94.6,315.2c0.3,0.8,0.7,1.6,1,2.5
					c3,7.6,6,15.3,9.1,23.1c19.3,48.3,42.1,101.9,69,160.7c0.4,1,0.9,1.9,1.3,2.9c5.2,11.3,10.3,22.5,15.5,33.4
					c30.8,65.8,60.5,124.6,88.1,176.4c8.6,16.2,17.1,31.8,25.3,46.6c23.6,42.8,45.4,79.9,64.7,111.6l1,1.6c0.1,0.1,0.1,0.2,0.1,0.2
					c15.6,25.6,29.7,47.5,41.8,65.9c10.1,15.3,18.9,28.1,26.1,38.5c6,8.5,10.9,15.3,14.7,20.5
					C1252.8,3124.7,1252.5,3127.2,1251.7,3129.3z"/>
				<path class="st31" d="M1252.6,3122.1c-3.8-5.2-8.7-12-14.7-20.5c-7.2-10.3-16-23.1-26.1-38.5c-12.1-18.3-26.1-40.3-41.8-65.9
					c0-0.1-0.1-0.1-0.1-0.2l-1-1.6c-19.3-31.7-41.1-68.8-64.7-111.6c-8.2-14.9-16.6-30.4-25.3-46.6
					c-27.6-51.8-57.3-110.6-88.1-176.4c-5.1-10.9-10.3-22.1-15.5-33.4c-0.5-1-0.9-1.9-1.3-2.9c-26.9-58.8-49.7-112.4-69-160.7
					c-3.1-7.8-6.2-15.6-9.1-23.1c-0.3-0.9-0.6-1.7-1-2.5c-75.9-195-92.3-298.4-94.6-315.2c2.7,15.9,21.4,110.3,108.6,330.4
					c8.9,22.3,18.4,45.9,28.7,70.9c2.1,5.1,4.2,10.2,6.3,15.2c43.7,103.6,93.7,204.6,147.3,303.5c5.3,9.9,10.7,19.7,16.2,29.6
					c22.8,41.3,46.2,82.2,69.9,122.9c0.2,0.4,0.4,0.7,0.6,1.1c0.1,0.1,0.1,0.2,0.2,0.4c0.1,0.1,0.1,0.2,0.2,0.3
					c14.6,24.8,29.3,49.6,44.3,74.2c5,8.3,14.5,19.4,21.4,30.3c3.9,6.1,7,12.1,8,17.4C1252.4,3120.2,1252.5,3121.2,1252.6,3122.1z"
					/>
				<path class="st31" d="M1274.3,3124.5c-5.5,1.2-11,2.4-16.6,3.5c-0.2,0.1-0.4,0.1-0.6,0.2c-1.3-1.7-2.8-3.7-4.5-6.1
					c-3.8-5.2-8.7-12-14.7-20.5c-7.2-10.3-16-23.1-26.1-38.5c-12.1-18.3-26.1-40.3-41.8-65.9c0-0.1-0.1-0.1-0.1-0.2l-1-1.6
					c-19.3-31.7-41.1-68.8-64.7-111.6c-8.2-14.9-16.6-30.4-25.3-46.6c-27.6-51.8-57.3-110.6-88.1-176.4
					c-5.1-10.9-10.3-22.1-15.5-33.4c-0.5-1-0.9-1.9-1.3-2.9c-26.9-58.8-49.7-112.4-69-160.7c-3.1-7.8-6.2-15.6-9.1-23.1
					c-0.3-0.9-0.6-1.7-1-2.5c-75.9-195-92.3-298.4-94.6-315.2c0-0.2-0.1-0.3-0.1-0.5c-0.1-0.7-0.1-1.1-0.2-1.5
					c0-0.3-0.1-0.5-0.1-0.5s33.5,133.6,113.3,323.1c24.1,57.1,52.3,119.4,85.2,184.6c3.9,7.7,7.7,15.3,11.6,22.9
					c36,70.8,71.7,137.5,104.6,197.5c0.1,0.2,0.2,0.4,0.3,0.6c26.2,47.6,50.7,91,72.5,128.7c3.5,6,6.9,11.9,10.2,17.7
					c0.2,0.4,0.5,0.8,0.7,1.1h0c0.1,0.2,0.2,0.4,0.3,0.6c14.9,25.6,28.2,48.2,39.5,67.3c8.8,14.9,16.5,27.5,22.7,37.8
					C1266.6,3111.8,1271.1,3119.2,1274.3,3124.5z"/>
			</g>
			<path class="st32" d="M1398.5,2350.2c-6.9-12.5-82.4,13.6-89.4,16.4c-44.8,17.4-89.9-2-115.9-43.1c-23.8-37.6-28-84.2-27.1-128.6
				c1.3-71.3,20.5-137.6,31.2-207.3C1197.3,1987.5,1398.5,2350.2,1398.5,2350.2z"/>
			<path class="st19" d="M1398.5,2350.2l-34,2c-25.7-50.7-121.9-240.3-171.9-334.7l4.6-30L1398.5,2350.2z"/>
			<path class="st32" d="M1715.6,2055.7c-5.5,3-11,6.1-16.6,9.3c-34.7,19.8-69.5,41.7-105.8,57c-42.9-90-68.8-193-108.4-285.8
				c-15.5-36.3-31.9-72.5-48.8-108.5c-26.8-57.1-54.9-113.7-82.7-168.8c-42.8-85,16.1-109.2,16.1-109.2L1715.6,2055.7z"/>
			<path class="st19" d="M1699,2065c-20.4,11.6-40.4,23.8-61,35c-14.7,8-42.8,29.8-52.2,7.2c-12.1-28.9-23.6-58.2-34.2-87.7
				c-22-61.2-41.2-123.5-66.8-183.4c-15.5-36.3-31.9-72.5-48.8-108.5c24.1,30.2,45.4,80.8,58.4,104.9c25.5,47.4,47.8,96.5,66.6,147
				c14.7,39.4,34.5,86.1,76,93c13.6,2.2,27.4-0.5,40.9-3.2C1684.9,2067.8,1691.9,2066.4,1699,2065z"/>
			<path class="st32" d="M2030.6,2174.1c-8.8,3.9-17.6,7.8-26.3,11.7c-1.2,0.3-2.4,0.6-3.7,0.9c-17.8,4.9-36.5,16.9-53.5,24.5
				c-38.4,17.1-76.8,34.1-115.2,51.1c-65.7,29.1-131.3,58.4-197.1,87.4l-231,0.5c23.8-26.7,83.8-30.2,116.6-41.2
				c55-18.4,108.5-41.6,164.9-55.5c48.7-11.9,98.9-16.8,147.4-28.9C1899.6,2207.8,1960.2,2155.7,2030.6,2174.1z"/>
			<path class="st34" d="M2350,2049.5c-40.2,5.7-86.3,7.6-125.1,7.9c-18.5,0.1-35.4,0-49-0.3l-17.3-115.9c3.3-1.6,7-3.2,11-5.1
				c2.3-1.1,4.8-2.2,7.3-3.4c10.7,4.5,18.7,17.5,24,26.3c15.2,25.1,34.3,49.4,61.2,61.1C2290.7,2032.6,2326.8,2030.5,2350,2049.5z"
				/>
			<path class="st28" d="M2224.9,2057.4c-18.5,0.1-35.4,0-49-0.3l-17.3-115.9c3.3-1.6,7-3.2,11-5.1
				C2181.9,1964.5,2218.7,2048.9,2224.9,2057.4z"/>
			<path class="st32" d="M1884.9,2674.6c-31.1,1.6-61.1-10.4-90.8-19.7c-103.7-32.2-213.3-32.7-320.5-42.9
				c-27.7-2.7-98.7-1.5-133.6-18.8c92-15.5,177.8-29.2,221.5-34.1c9-1,16.2-1.6,21.3-1.8c28.1-1,58.4,4.1,89.4,12.7
				c1.7,0.5,3.5,1,5.2,1.5c3.3,1,6.6,1.9,9.9,3c55.6,17.2,112.5,44.1,162.3,65.5c1.8,0.8,3.7,1.6,5.5,2.3
				C1865.8,2652.3,1875.8,2663.1,1884.9,2674.6z"/>
			<path class="st35" d="M1537.7,1191.4C1537.7,1191.4,1537.7,1191.4,1537.7,1191.4c-0.4,1.1-23.8,62.3-37.1,89.4
				c-2.2,4.4-4.1,7.9-5.5,10.2c0.5-0.7,0.7-1.7,0.7-3c0-1.7-0.2-3.9-0.7-6.5c-0.8-3.9-2.2-8.8-4-14.2c-9.5-28.2-30-71.5-33.2-80.6
				c-2.7-7.6-5.3-15.2-6.5-23.1c-0.9-6.3-1.2-13-0.8-19.9c6.8,2.2,13.6,4.6,20.6,4.5c23-0.4,43.2-45.4,60.5-48.6
				c-2,2.1-3.7,4.5-5.1,7c-7.8,14.1-6.1,33.7-0.7,53.1l0,0C1529,1170.8,1533.3,1181.7,1537.7,1191.4z"/>
			<path class="st35" d="M1971.9,875.9l-0.2,0.5c0,0-87.6,101.3-255.4,0.5c-7.8-4.7-14.3-9-19.6-12.9c34.7,12.2,85,27.4,135.1,33.8
				c52.4,6.8,104.7,4,139.3-21.4L1971.9,875.9z"/>
			<path class="st36" d="M1971.2,876.5c-1.1,5-5.8,9.1-12.2,14.6c-16.7,14.5-40.2,18.2-62.3,18.3c-21.8,0.2-44.6-3.4-64.8-11.5
				C1884.2,904.6,1936.6,901.9,1971.2,876.5z"/>
			<path class="st35" d="M1638.1,1114.3c1.1-0.5,2.2-1.1,3.2-1.8c8.6-6,11.4-17.2,12.5-27.6c3.1-27.7,12-71.3,45.3-77.8
				c11.3-2.2,22.7,2.8,33.2,7.6c0.9,0.4,1.8,0.8,2.6,1.2c-17.6-3.1-35.9,5.7-44,22.8c-7.5,16-16.1,31.9-22.6,48.3
				c0,0.1,0,0.1-0.1,0.2l-29.9,63.9c-1.7,3.5-4.1,6.4-7.1,8.6c-1,0.7-2.1,1.4-3.2,1.9c0,0-0.1,0-0.1,0c-4.1,1.4-8.4,2.2-12.6,2.1
				c-3.1-0.4-6.1-1.4-9-3.2l-0.7,0.3l-0.5,0.2c-0.3-2.3-0.7-4.7-1.1-7.3c-0.2-1.4-0.4-2.8-0.6-4.2c-2.7-17.4-7.2-38.8-15.8-51.2
				c0,0,0-0.1-0.1-0.1c5,3,9.8,6.5,14.7,9.5c10.5,6.6,24.3,11.4,35.2,6.7c0.3-0.7,0.6-1.5,0.8-2.2"/>
			<path class="st36" d="M1537.7,1191.4C1537.7,1191.4,1537.7,1191.4,1537.7,1191.4c-0.4,1.1-23.8,62.3-37.1,89.4
				c-1.9,0.4-3.7,0.6-5.6,0.7c-0.8-3.9-2.2-8.8-4-14.2c10-11.5,16.9-25.6,21.1-40.3c5.5-19.3,6.4-39.6,5.7-59.6
				c-0.4-10.8-5.6-56.2,8.6-60.7c0.1,0,0.1,0,0.2-0.1c-7.8,14.1-6.1,33.7-0.7,53.1l0,0C1529,1170.8,1533.3,1181.7,1537.7,1191.4z"/>
			<path class="st28" d="M1974.8,1059.4l0,22.9c0,1.4,0,2.9-0.1,4.3c-41.8,16.7-111.4,22.3-204.9-47.4c0,0-41.7-33.2-77.1-4
				c10.8-18.4,34.4-25.4,53.8-15.3c26.6,13.8,67.6,31.9,123.1,47C1922.1,1081.1,1953.8,1074.2,1974.8,1059.4z"/>
			<path class="st27" d="M1528,1159.3c0.2,3.3,0.4,6.3,0.5,8.8c0-0.1,0-0.1-0.1-0.2c-0.5-1.4-0.9-2.7-1.3-4.1
				c-0.4-1.4-0.8-2.7-1.2-4.1c-6.6-23.6-7.8-47.6,7.3-61.6c10.1-9.4,26.6-14.8,40-10.5C1554.9,1093.4,1524.2,1110.5,1528,1159.3z"/>
			<path class="st27" d="M1974.8,1060.5l0,21.2c-8.9,13.9-26.6,22-41.8,26.4c-17,5-34.9,6-52.5,6.7c-14.2,0.5-23.6-4-37.2-7.6
				c-22.1-5.8-40.5-22.2-64.1-24.1c-20.2-1.6-41,3.7-57.7,15.3c-31.8,22.2-48.4,64.8-85,77.8c-9.4,3.3-22.4,2.8-26.2-6.4
				c-1.2-2.9-1.3-5.5-0.7-7.8c10.8,4.6,23.7-0.1,28.8-11.1l2.9-6.3l49.5-106.1c0.6-1.2,1.2-2.4,1.9-3.5c6-10.2,15.9-16.9,26.8-19.1
				c8.6-1.3,17.5-0.4,24.8,2.7c0.7,0.3,1.5,0.7,2.2,1c26.6,13.8,67.6,31.9,123.1,47c1,0.3,2.1,0.6,3.1,0.8c1,0.3,2.1,0.6,3.1,0.8
				c1,0.3,2.1,0.5,3.1,0.8c1.1,0.2,2.1,0.5,3.1,0.7s2.1,0.4,3.1,0.7c1.9,0.4,3.8,0.7,5.7,1.1c26.9,4.8,53.9,4,79-9.2
				c0,0,0.1,0,0.1,0C1971.9,1061.5,1973.4,1060.9,1974.8,1060.5z"/>
		</g>
		<g>
			<g>
				<polygon class="st37" points="2819.9,2356.6 2899.8,2053.1 3032.7,2069.7 3022,2301.9 3149.4,2344.7 3147.6,2355.9 				"/>
				<polygon class="st38" points="2831.3,2356.6 2911.2,2053.1 3044.2,2069.6 3033.4,2301.9 3160.9,2344.7 3159,2355.9 				"/>
				<polygon class="st37" points="3037,2215.6 3042.4,2069.7 2902.6,2053.1 2845.6,2264.6 				"/>
				<path class="st39" d="M2466.9,2062.8c-0.1,21.9,7.4,42.9,20.8,58.4c13.4,15.5,31.7,24.2,50.7,24.1l879.3-1.9
					c39.4-0.1,71.2-36.8,71.1-82.1l-1.3-582.1c-0.1-45.3-32.1-81.9-71.5-81.8l-874.9,1.9c-39.1,0.1-70.9,36.4-71.1,81.4
					L2466.9,2062.8z"/>
				<path class="st38" d="M2508.4,2062.7c-0.1,21.9,7.1,42.9,19.9,58.4c12.9,15.5,30.4,24.2,48.6,24.2l843.6-1.8
					c37.8-0.1,68.3-36.8,68.2-82.1l-1.3-582.1c-0.1-45.3-30.8-81.9-68.6-81.8l-839.4,1.8c-37.5,0.1-68,36.4-68.2,81.4L2508.4,2062.7
					z"/>
				<path class="st5" d="M3488.6,2002.3l-1.1-523.1c-0.1-45.3-30.8-81.9-68.6-81.8l-839.4,1.8c-37.5,0.1-68,36.4-68.2,81.4
					l-2.7,523.8L3488.6,2002.3z"/>
				<g>
					<g>
						<polygon class="st5" points="3336,1842 2987.1,1845.2 2984.5,1502.2 3333.4,1499.1 						"/>
					</g>
					<g>
						
							<rect x="3015.4" y="1531" transform="matrix(1 -8.927758e-03 8.927758e-03 1 -14.0021 27.3152)" class="st5" width="74.3" height="102"/>
						
							<rect x="3015.4" y="1531" transform="matrix(1 -8.927758e-03 8.927758e-03 1 -14.0021 27.3152)" class="st40" width="74.3" height="102"/>
						<g>
							<defs>
								
									<rect id="SVGID_1_" x="3015.4" y="1531" transform="matrix(1 -8.927758e-03 8.927758e-03 1 -14.0021 27.3152)" width="74.3" height="102"/>
							</defs>
							<clipPath id="SVGID_2_">
								<use xlink:href="#SVGID_1_"  style="overflow:visible;"/>
							</clipPath>
							<g class="st41">
								<polygon class="st5" points="3061.2,1612.6 3043.6,1612.7 3043.9,1608.7 3044.4,1600.6 3045,1592 3059.2,1589.6 
									3060,1598.7 3060.8,1607.5 								"/>
								<path class="st5" d="M3093.6,1648.1l-81.8,0.5l1.3-26.1c0.3-7.1,4.9-13.2,11.5-15.5c0.4-0.1,0.8-0.3,1.2-0.4l3.3-0.9
									l5.4-1.4l2.9-0.8l6.2-1.6l0.2-0.1l0,0.5l-0.2,2.8l1.5,0.3l11.3,2.5l4,0.9l0.3-6.5l0.1-1.6l1,0.2l3.3,0.8l3.6,0.9l8.1,2
									c1,0.3,1.9,0.6,2.8,1.1c0,0,0.1,0,0.1,0.1c5,2.5,7.6,7.6,8.8,13.7L3093.6,1648.1z"/>
								<path class="st42" d="M3093.6,1648.1l-81.8,0.5l1.3-26.1c0.3-7.1,4.9-13.2,11.5-15.5c0.4-0.1,0.8-0.3,1.2-0.4l3.3-0.9
									l5.4-1.4l2.9-0.8l6.2-1.6l0.2-0.1l0,0.5l-0.2,2.8l1.5,0.3l11.3,2.5l4,0.9l0.3-6.5l0.1-1.6l1,0.2l3.3,0.8l3.6,0.9l8.1,2
									c1,0.3,1.9,0.6,2.8,1.1c0,0,0.1,0,0.1,0.1c5,2.5,7.6,7.6,8.8,13.7L3093.6,1648.1z"/>
								<path class="st5" d="M3068.3,1578.2c-0.1,2.6-0.9,5.2-2,7.6v0c-0.2,0.3-0.3,0.7-0.5,1c-0.9,2-2.6,3.5-4.1,5.1
									c-0.7,0.8-1.3,1.5-2.1,2.2c-2.3,2.2-5.1,4.1-8.3,4.1c-2.5,0-4.7-1-6.7-2.6c-2.8-2.2-5.2-5.5-7.1-8.2c-0.5-0.8-1-1.5-1.5-2.2
									c-1.3-2-2-3.9-2.1-6.9c0-1.4,0.1-2.7,0.3-4.1c0.4-2.6,1.2-5.1,1.7-7.7c0.7-3.5,1.5-7.1,2.2-10.6l22.6-6.8l3.9,11.7
									c0.7,3.3,1.5,6.7,2.2,10c0.2,1,0.5,1.9,0.7,2.9C3068,1575.3,3068.3,1576.7,3068.3,1578.2z"/>
								<path class="st43" d="M3060,1597.2c-2.4,2.4-5.2,4.4-8.6,4.4c-2.6,0-4.9-1.1-6.9-2.8l0.3-3.1c2,1.5,4.2,2.6,6.7,2.6
									c3.3,0,6-1.9,8.3-4.1L3060,1597.2z"/>
								<path class="st5" d="M3035.2,1574l-3.7,1.5c-1.2,0.5-1.8,1.8-1.5,3.1l0,0c0.6,2.2,1.9,4.1,3.8,5.3l3.2,2.1L3035.2,1574z"/>
								<path class="st5" d="M3072.3,1578.2c0,1.7-0.8,3.5-1.7,4.5c0,0,0,0,0,0.1c0,0-0.1,0.1-0.1,0.1c-0.3,0.3-0.6,0.5-0.9,0.8
									l-3,2.1l-0.2,0.2v0l1.4-11.9l0.1,0l3.5,1.3c0,0,0,0,0.1,0.1C3072.1,1575.9,3072.3,1577,3072.3,1578.2z"/>
								<path class="st44" d="M3063.1,1560.5c-0.2-1.4-0.4-2.5-0.4-3L3063.1,1560.5z"/>
								<path class="st44" d="M3063.4,1562.3c-0.1-0.3-0.1-0.6-0.2-0.9C3063.3,1561.7,3063.4,1562,3063.4,1562.3z"/>
								<path class="st44" d="M3069.3,1555.9c-0.1-0.3-0.2-0.6-0.3-0.9C3069.1,1555.3,3069.2,1555.6,3069.3,1555.9z"/>
								<path class="st45" d="M3035.1,1573.9"/>
								<path class="st5" d="M3065.3,1570.3c-2.5-3.3-5.6-10.2-5.6-10.2c-3,2-18.2,0.1-18.2,0.1c-0.8,3.4-2.6,6.6-4.2,8.9
									c1.4-4.6,2.2-10.8,2.4-11.4c0-0.1,0.2-0.2,0.6-0.2c3-0.2,16.9,2.7,22.4-0.4l0,0.1c0,0.4,0.2,1.6,0.5,3.1l0,0.1
									C3063.6,1563.3,3064.3,1567.2,3065.3,1570.3z"/>
								<path class="st5" d="M3072.5,1629.5l-6.6-0.7l3.5,5.6l-9.9,13.8l-11.8,16.4l-10.4-16.3l-9.5-14.7l5.5-10.3l-5.5,0l-0.1-17
									l1.3-0.6l5.4-1.4l2.9-0.8l6.2-1.6l0.2,0.5l1.3,3.1l4.6,11.3l6.7-8.7l4.3-5.7l1-1.3l3.3,0.8l3.6,0.9l8.1,2
									c1,0.3,1.9,0.6,2.8,1.1c0,0,0.1,0,0.1,0.1L3072.5,1629.5z"/>
								<path class="st46" d="M3072.5,1629.5l-6.6-0.7l3.5,5.6l-9.9,13.8l-11.8,16.4l-10.4-16.3l-9.5-14.7l5.5-10.3l-5.5,0l-0.1-17
									l1.3-0.6l5.4-1.4l2.9-0.8l6.2-1.6l0.2,0.5l1.3,3.1l4.6,11.3l6.7-8.7l4.3-5.7l1-1.3l3.3,0.8l3.6,0.9l8.1,2
									c1,0.3,1.9,0.6,2.8,1.1c0,0,0.1,0,0.1,0.1L3072.5,1629.5z"/>
								<path class="st5" d="M3060.6,1600.9l-1.1,0.9c-4.1,3.1-9.6,3.2-13.8,0.2l-1.4-1l-0.7,1.8l4.4,44.9l9.9-25.6L3060.6,1600.9z"
									/>
								<path class="st47" d="M3070.1,1561.3c0.1,4.2-0.8,8.3-1.6,13.1c0,0.3-0.3,1.7-1.5-0.4c-0.2-0.3-0.3-0.6-0.5-0.9
									c-0.2-0.3-0.3-0.7-0.5-1.1c0-0.1-0.1-0.3-0.1-0.4c-0.2-0.6-0.4-1.3-0.7-2c-0.1-0.2-0.1-0.4-0.2-0.6
									c-0.2-0.8-0.4-1.6-0.6-2.4c0-0.2-0.1-0.3-0.1-0.5c0-0.2-0.1-0.3-0.1-0.5c0-0.2-0.1-0.4-0.1-0.5c-0.1-0.3-0.1-0.6-0.2-0.9
									c0-0.2-0.1-0.3-0.1-0.5c-0.1-0.4-0.2-0.8-0.2-1.1c0-0.1,0-0.1,0-0.2c0-0.1,0-0.2-0.1-0.3c-0.1-0.3-0.1-0.6-0.2-0.9
									c0-0.3-0.1-0.6-0.1-0.8l0-0.1l-0.4-3l0-0.1l0-0.1c0,0,0,0,0,0l0-0.1c-0.1,0.1-0.2,0.1-0.3,0.2c-5.7,2.7-19.2,0-22.1,0.2
									c-0.3,0-0.5,0.1-0.6,0.2c0,0.1,0,0.2-0.1,0.3c0,0,0,0.1,0,0.1c0,0,0,0,0,0.1c0,0.1,0,0.1,0,0.2c0,0.2-0.1,0.3-0.1,0.5
									c0,0,0,0.1,0,0.1c0,0,0,0.1,0,0.1c0,0.1,0,0.2-0.1,0.4c0,0.1,0,0.2,0,0.3c0,0.1,0,0.2-0.1,0.3c-0.1,0.4-0.1,0.8-0.2,1.3
									c0,0.1,0,0.2,0,0.3c-0.1,0.4-0.2,0.9-0.2,1.3c0,0.1-0.1,0.3-0.1,0.5c0,0.2-0.1,0.5-0.1,0.7c0,0.1,0,0.2-0.1,0.3
									c0,0.2-0.1,0.4-0.1,0.6c-0.1,0.3-0.2,0.7-0.2,1c-0.1,0.6-0.3,1.1-0.4,1.7c-0.1,0.3-0.2,0.6-0.2,0.8
									c-0.1,0.3-0.2,0.5-0.2,0.8c0,0.1,0,0.1,0,0.2c-0.1,0.3-0.2,0.7-0.3,1c0,0.1-0.1,0.2-0.1,0.2c-0.3,0.7-0.5,1.3-0.8,1.8
									c-0.9,1.7-1.4,1.2-1.5,2c-0.3-4.8-1.1-7.1-1.3-11.9c-0.1-2.5-0.1-4.9,0.3-7c0.2-0.9,0.4-1.7,0.7-2.6
									c1.7-4.4,5.8-7.3,10.7-8.7c3.1-0.9,6.6-1.1,9.8-0.7c0,0,0,0,0,0c1.3,0.4,2.5,0.6,3.7,0.8c8.9,1.2,11.8-3.9,11.8-3.9
									s3.9,9.6-1,14.3c0.1,0.3,0.2,0.6,0.3,0.9c0.1,0.3,0.2,0.6,0.2,0.9c0,0.1,0.1,0.3,0.1,0.4c0,0.1,0.1,0.3,0.1,0.4
									c0,0.1,0.1,0.3,0.1,0.4c0.1,0.4,0.1,0.7,0.2,1.1c0,0.1,0,0.2,0,0.3c0,0.2,0,0.3,0,0.5c0,0.1,0,0.2,0,0.3c0,0.1,0,0.2,0,0.3
									c0,0.1,0,0.2,0,0.3C3070.1,1561.1,3070.1,1561.2,3070.1,1561.3z"/>
								<path class="st44" d="M3062.7,1557.4C3062.7,1557.4,3062.7,1557.4,3062.7,1557.4c-0.1,0-0.2,0-0.4,0
									c0.1-0.1,0.2-0.1,0.3-0.2L3062.7,1557.4z"/>
							</g>
						</g>
					</g>
					<g>
						<line class="st48" x1="3125.6" y1="1544.2" x2="3296.6" y2="1542.7"/>
						<line class="st48" x1="3125.8" y1="1561.5" x2="3296.7" y2="1559.9"/>
						<line class="st48" x1="3125.8" y1="1561.5" x2="3296.7" y2="1559.9"/>
						<line class="st48" x1="3125.9" y1="1578.8" x2="3296.9" y2="1577.2"/>
					</g>
					<g>
						<line class="st48" x1="3014.2" y1="1654.5" x2="3297.5" y2="1652"/>
						<line class="st48" x1="3014.5" y1="1688.2" x2="3297.7" y2="1685.7"/>
						<line class="st48" x1="3014.8" y1="1722.8" x2="3298" y2="1720.3"/>
						<line class="st48" x1="3015.1" y1="1757.4" x2="3298.3" y2="1754.8"/>
						<line class="st48" x1="3015.3" y1="1791.9" x2="3298.6" y2="1789.4"/>
					</g>
				</g>
				
					<rect x="2950.4" y="2049.5" transform="matrix(1 -2.151060e-03 2.151060e-03 1 -4.4234 6.4996)" class="st49" width="138" height="20.3"/>
				
					<rect x="2639.1" y="1639.7" transform="matrix(1 -2.151002e-03 2.151002e-03 1 -3.7627 6.1671)" class="st50" width="452.2" height="225.4"/>
				
					<rect x="3033" y="1657.2" transform="matrix(1 -2.150949e-03 2.150949e-03 1 -3.6548 6.575)" class="st51" width="43.9" height="90.5"/>
				
					<rect x="2780.4" y="1651.8" transform="matrix(1 -2.151234e-03 2.151234e-03 1 -3.5573 6.1245)" class="st52" width="129.5" height="9.6"/>
				
					<rect x="2780.5" y="1674.3" transform="matrix(0.9999 -1.064645e-02 1.064645e-02 0.9999 -17.7154 30.3867)" class="st52" width="129.5" height="9.6"/>
				
					<rect x="2780.7" y="1752.4" transform="matrix(1 -2.151234e-03 2.151234e-03 1 -3.7736 6.1252)" class="st52" width="129.5" height="9.6"/>
				
					<rect x="2780.7" y="1774.9" transform="matrix(1 -2.151234e-03 2.151234e-03 1 -3.822 6.1253)" class="st52" width="129.5" height="9.6"/>
				
					<rect x="2780.8" y="1826.2" transform="matrix(1 -2.151234e-03 2.151234e-03 1 -3.9324 6.1257)" class="st52" width="129.5" height="9.6"/>
				
					<rect x="2780.9" y="1848.7" transform="matrix(1 -2.151234e-03 2.151234e-03 1 -3.9808 6.1258)" class="st52" width="129.5" height="9.6"/>
				
					<rect x="2933.8" y="1825.9" transform="matrix(1 -2.150655e-03 2.150655e-03 1 -3.9303 6.4738)" class="st52" width="148.7" height="9.6"/>
				
					<rect x="2933.9" y="1848.4" transform="matrix(1 -2.150655e-03 2.150655e-03 1 -3.9786 6.4739)" class="st52" width="148.7" height="9.6"/>
				
					<rect x="2933.7" y="1778.8" transform="matrix(1 -2.150657e-03 2.150657e-03 1 -3.829 6.4735)" class="st52" width="148.7" height="9.6"/>
				
					<rect x="2933.8" y="1801.3" transform="matrix(1 -2.150657e-03 2.150657e-03 1 -3.8773 6.4736)" class="st52" width="148.7" height="9.6"/>
				<g>
					
						<rect x="2663.3" y="1674.1" transform="matrix(1 -8.927126e-03 8.927126e-03 1 -15.3851 24.2442)" class="st5" width="89.4" height="122.8"/>
					
						<rect x="2663.3" y="1674.1" transform="matrix(1 -8.927126e-03 8.927126e-03 1 -15.3851 24.2442)" class="st40" width="89.4" height="122.8"/>
					<g>
						<defs>
							
								<rect id="SVGID_3_" x="2663.3" y="1674.1" transform="matrix(1 -8.927126e-03 8.927126e-03 1 -15.3851 24.2442)" width="89.4" height="122.8"/>
						</defs>
						<clipPath id="SVGID_4_">
							<use xlink:href="#SVGID_3_"  style="overflow:visible;"/>
						</clipPath>
						<g class="st53">
							<polygon class="st5" points="2718.5,1772.3 2697.3,1772.5 2697.6,1767.7 2698.3,1757.9 2699,1747.6 2716.1,1744.6 
								2717,1755.6 2718,1766.2 							"/>
							<path class="st5" d="M2757.6,1815.1l-98.5,0.6l1.5-31.4c0.4-8.6,5.9-15.9,13.8-18.6c0.5-0.2,1-0.3,1.5-0.4l4-1l6.6-1.7
								l3.5-0.9l7.4-1.9l0.3-0.1l-0.1,0.6l-0.3,3.4l1.8,0.4l13.6,3l4.8,1.1l0.4-7.9l0.1-1.9l1.1,0.3l3.9,1l4.3,1l9.8,2.4
								c1.2,0.3,2.3,0.7,3.4,1.3c0,0,0.1,0,0.1,0.1c6,3,9.2,9.2,10.5,16.5L2757.6,1815.1z"/>
							<path class="st42" d="M2757.6,1815.1l-98.5,0.6l1.5-31.4c0.4-8.6,5.9-15.9,13.8-18.6c0.5-0.2,1-0.3,1.5-0.4l4-1l6.6-1.7
								l3.5-0.9l7.4-1.9l0.3-0.1l-0.1,0.6l-0.3,3.4l1.8,0.4l13.6,3l4.8,1.1l0.4-7.9l0.1-1.9l1.1,0.3l3.9,1l4.3,1l9.8,2.4
								c1.2,0.3,2.3,0.7,3.4,1.3c0,0,0.1,0,0.1,0.1c6,3,9.2,9.2,10.5,16.5L2757.6,1815.1z"/>
							<path class="st5" d="M2727,1730.9c-0.1,3.1-1.1,6.3-2.4,9.2v0c-0.2,0.4-0.4,0.8-0.5,1.2c-1.1,2.4-3.2,4.2-4.9,6.2
								c-0.8,0.9-1.6,1.8-2.5,2.7c-2.8,2.7-6.1,4.9-10,4.9c-3,0-5.7-1.2-8-3.1c-3.4-2.7-6.2-6.6-8.5-9.9c-0.7-0.9-1.3-1.8-1.8-2.6
								c-1.5-2.4-2.4-4.7-2.5-8.3c-0.1-1.7,0.1-3.3,0.4-4.9c0.5-3.1,1.5-6.2,2.1-9.3c0.9-4.3,1.8-8.5,2.7-12.8l27.2-8.2l4.7,14.1
								c0.9,4,1.8,8,2.7,12c0.3,1.1,0.6,2.3,0.8,3.5C2726.7,1727.4,2727.1,1729.1,2727,1730.9z"/>
							<path class="st43" d="M2717,1753.8c-2.9,2.9-6.3,5.3-10.4,5.3c-3.1,0-5.9-1.3-8.3-3.3l0.3-3.7c2.4,1.8,5,3.1,8,3.1
								c3.9,0,7.2-2.2,10-4.9L2717,1753.8z"/>
							<path class="st5" d="M2687.2,1725.9l-4.4,1.8c-1.4,0.6-2.2,2.2-1.8,3.7l0,0c0.7,2.6,2.3,4.9,4.5,6.3l3.9,2.5L2687.2,1725.9z"
								/>
							<path class="st5" d="M2731.9,1730.9c0,2-0.9,4.2-2.1,5.4c0,0,0,0-0.1,0.1c-0.1,0.1-0.1,0.1-0.2,0.2c-0.4,0.3-0.7,0.6-1.1,0.9
								l-3.6,2.5l-0.3,0.2v0l1.7-14.4l0.1,0l4.2,1.5c0,0,0,0,0.1,0.1C2731.6,1728.2,2731.9,1729.5,2731.9,1730.9z"/>
							<path class="st44" d="M2720.8,1709.6c-0.3-1.7-0.5-3-0.5-3.6L2720.8,1709.6z"/>
							<path class="st44" d="M2721.2,1711.8c-0.1-0.4-0.1-0.7-0.2-1.1C2721.1,1711.1,2721.1,1711.4,2721.2,1711.8z"/>
							<path class="st44" d="M2728.2,1704.1c-0.1-0.4-0.2-0.7-0.3-1.1C2728,1703.3,2728.1,1703.7,2728.2,1704.1z"/>
							<path class="st45" d="M2687.1,1725.7"/>
							<path class="st5" d="M2723.5,1721.4c-3-4-6.7-12.3-6.7-12.3c-3.6,2.4-21.9,0.1-21.9,0.1c-1,4.1-3.2,7.9-5.1,10.7
								c1.7-5.6,2.6-13,2.8-13.7c0-0.1,0.3-0.2,0.7-0.2c3.6-0.2,20.4,3.2,27-0.4l0,0.2c0.1,0.5,0.3,1.9,0.6,3.8l0,0.1
								C2721.4,1713,2722.3,1717.6,2723.5,1721.4z"/>
							<path class="st5" d="M2732.2,1792.7l-7.9-0.8l4.2,6.8l-11.9,16.6l-14.2,19.8l-12.6-19.6l-11.4-17.8l6.6-12.4l-6.7,0
								l-0.1-20.5l1.6-0.7l6.6-1.7l3.5-0.9l7.4-1.9l0.2,0.6l1.5,3.8l5.5,13.6l8.1-10.5l5.2-6.8l1.2-1.6l3.9,1l4.3,1l9.8,2.4
								c1.2,0.3,2.3,0.7,3.4,1.3c0,0,0.1,0,0.1,0.1L2732.2,1792.7z"/>
							<path class="st46" d="M2732.2,1792.7l-7.9-0.8l4.2,6.8l-11.9,16.6l-14.2,19.8l-12.6-19.6l-11.4-17.8l6.6-12.4l-6.7,0
								l-0.1-20.5l1.6-0.7l6.6-1.7l3.5-0.9l7.4-1.9l0.2,0.6l1.5,3.8l5.5,13.6l8.1-10.5l5.2-6.8l1.2-1.6l3.9,1l4.3,1l9.8,2.4
								c1.2,0.3,2.3,0.7,3.4,1.3c0,0,0.1,0,0.1,0.1L2732.2,1792.7z"/>
							<path class="st5" d="M2717.8,1758.3l-1.4,1c-4.9,3.7-11.6,3.8-16.6,0.3l-1.7-1.2l-0.8,2.1l5.3,54.1l11.9-30.8L2717.8,1758.3z
								"/>
							<path class="st47" d="M2729.2,1710.6c0.2,5-1,10-2,15.8c-0.1,0.3-0.3,2-1.8-0.5c-0.2-0.3-0.4-0.7-0.6-1.1
								c-0.2-0.4-0.4-0.8-0.6-1.3c-0.1-0.2-0.1-0.3-0.2-0.5c-0.3-0.7-0.5-1.5-0.8-2.4c-0.1-0.2-0.1-0.5-0.2-0.7
								c-0.3-0.9-0.5-1.9-0.7-2.8c0-0.2-0.1-0.4-0.1-0.6c0-0.2-0.1-0.4-0.1-0.6c0-0.2-0.1-0.4-0.1-0.6c-0.1-0.4-0.1-0.7-0.2-1.1
								c0-0.2-0.1-0.4-0.1-0.6c-0.1-0.5-0.2-0.9-0.3-1.4c0-0.1,0-0.2,0-0.2c0-0.1,0-0.2-0.1-0.4c-0.1-0.4-0.1-0.7-0.2-1.1
								c-0.1-0.3-0.1-0.7-0.2-1l0-0.1l-0.5-3.6l0-0.1l0-0.1c0,0,0,0,0,0l0-0.2c-0.1,0.1-0.3,0.1-0.4,0.2c-6.9,3.3-23.1,0-26.6,0.2
								c-0.4,0-0.6,0.1-0.7,0.2c0,0.1-0.1,0.2-0.1,0.4c0,0,0,0.1,0,0.1c0,0,0,0,0,0.1c0,0.1,0,0.2,0,0.3c0,0.2-0.1,0.4-0.1,0.7
								c0,0.1,0,0.1,0,0.2c0,0.1,0,0.1,0,0.2c0,0.1,0,0.3-0.1,0.4c0,0.1,0,0.2,0,0.3c0,0.1,0,0.3-0.1,0.4c-0.1,0.5-0.2,1-0.3,1.6
								c0,0.1,0,0.2-0.1,0.3c-0.1,0.5-0.2,1-0.3,1.6c0,0.2-0.1,0.4-0.1,0.5c-0.1,0.3-0.1,0.6-0.2,0.9c0,0.1-0.1,0.3-0.1,0.4
								c0,0.2-0.1,0.4-0.1,0.7c-0.1,0.4-0.2,0.8-0.3,1.2c-0.2,0.7-0.3,1.3-0.5,2c-0.1,0.3-0.2,0.7-0.3,1c-0.1,0.3-0.2,0.6-0.3,1
								c0,0.1,0,0.1-0.1,0.2c-0.1,0.4-0.3,0.8-0.4,1.2c0,0.1-0.1,0.2-0.1,0.3c-0.3,0.8-0.6,1.6-1,2.2c-1.1,2-1.7,1.5-1.8,2.4
								c-0.4-5.8-1.3-8.5-1.6-14.3c-0.2-3-0.2-5.9,0.3-8.4c0.2-1.1,0.5-2.1,0.8-3.1c2.1-5.3,7-8.8,12.8-10.4
								c3.8-1.1,7.9-1.3,11.8-0.8c0,0,0,0,0,0c1.6,0.4,3.1,0.7,4.4,0.9c10.7,1.4,14.3-4.7,14.3-4.7s4.7,11.6-1.2,17.2
								c0.1,0.4,0.2,0.7,0.3,1.1c0.1,0.4,0.2,0.7,0.3,1.1c0,0.2,0.1,0.4,0.1,0.5c0,0.2,0.1,0.4,0.1,0.5c0,0.2,0.1,0.4,0.1,0.5
								c0.1,0.4,0.1,0.9,0.2,1.3c0,0.1,0,0.2,0,0.4c0,0.2,0,0.4,0.1,0.6c0,0.1,0,0.3,0,0.4c0,0.1,0,0.3,0,0.4c0,0.1,0,0.3,0,0.4
								C2729.2,1710.3,2729.2,1710.5,2729.2,1710.6z"/>
							<path class="st44" d="M2720.2,1705.9C2720.2,1705.9,2720.2,1705.9,2720.2,1705.9c-0.1,0-0.3,0-0.4,0c0.1-0.1,0.3-0.1,0.4-0.2
								L2720.2,1705.9z"/>
						</g>
					</g>
				</g>
			</g>
			
				<linearGradient id="SVGID_5_" gradientUnits="userSpaceOnUse" x1="2498.3911" y1="1584.2963" x2="3878.489" y2="1563.8503" gradientTransform="matrix(1 -2.200000e-03 2.200000e-03 1 -0.2712 15.4673)">
				<stop  offset="0" style="stop-color:#FFFFFF"/>
				<stop  offset="1" style="stop-color:#FFFFFF;stop-opacity:0"/>
			</linearGradient>
			<path class="st54" d="M3868.5,797.8L3823.4,2345l-935.9,2l-347.3-217.8c-19.3-12.1-30.8-33.4-30.4-56.2l10.1-580
				c0.7-39.5,23.8-75.1,59.5-91.8L3868.5,797.8z"/>
		</g>
		<g>
			<path class="st18" d="M3801.2,2896.1l-55.9,117.1l-61.4,128.5c-92.7,12.2-186,13.3-276.8-5.9c-69.3-14.6-136.1-39.3-204.8-56.5
				c-2.9-0.7-5.8-1.4-8.7-2.1c-104.2-25.1-211.8-33.4-316.8-54.8c-49.5-10.1-98.5-23.1-147.3-36.1c-20.1-5.3-40.2-10.7-60.3-15.9
				l39.5-119.5c5.1-15.6,13.2-29.9,23.6-42.3c10.3-12.4,23-22.9,37.5-30.7c2.3-1.3,4.6-2.5,7-3.6c10.4-4.9,21.5-8.4,32.9-10.3
				l627.1-108.2l68.1-11.8l1.2-0.2l26.2-4.5l11.4-2c4.7-0.8,9.5,0,13.6,2.2c1.7,0.9,3.4,2.1,4.8,3.5l234.6,228.7
				C3803.4,2878.1,3805.2,2887.9,3801.2,2896.1z"/>
			<path class="st18" d="M3565.1,2590.3l-7.6,49.3c-4.1-2.2-8.9-3-13.6-2.2l-734.2,126.5c-11.4,1.9-22.4,5.4-32.9,10.3
				c4.3-12.4,7.9-22.7,9.4-25.7c15.2-30,34.1-48.4,64.7-61.7c38-16.6,83.8-17.2,124.9-22.5c108.6-14,217.2-27.7,325.9-41.3
				C3389.4,2612.1,3477.2,2601.2,3565.1,2590.3z"/>
			<path class="st32" d="M3565.1,2590.3l-7.6,49.3c-4.1-2.2-8.9-3-13.6-2.2l-734.2,126.5c-11.4,1.9-22.4,5.4-32.9,10.3
				c4.3-12.4,7.9-22.7,9.4-25.7c15.2-30,34.1-48.4,64.7-61.7c38-16.6,83.8-17.2,124.9-22.5c108.6-14,217.2-27.7,325.9-41.3
				C3389.4,2612.1,3477.2,2601.2,3565.1,2590.3z"/>
			<path class="st30" d="M3652.8,2552.9c-5.3,16,3.2,60.3,59.2,236.2"/>
			<path class="st22" d="M4184,2150c18.6,0,239.7,103.2,239.7,103.2l-39.3,298.1L4185,2589L4184,2150z"/>
			<path class="st32" d="M3402.1,2656.1c20.1-9,39.4-19.9,58.9-23.2c51.4-8.8,98.1,30.1,138.9,55.6c68.9,43.1,150,61.2,227,87.2
				c77,26,155.2,64.1,199.1,132.5c7.9,12.3,14.6,25.9,14.8,40.5c0.2,21.5-14,40.5-30.1,54.7c-105.7,93-283.3,87.8-405.2,33
				c-42.2-19-80.3-46.5-110-82.2c-27.1-32.6-39.2-79.3-84.8-90.5c-144.5-35.5-296-25.6-440.3,5.5c-68.1,14.7-123.4,29.1-177.2,73.8
				c-45.4,37.7-63.2,46.9-124.5,26.9c15.1-38.7,27.1-79.3,40.1-118.9c5.1-15.6,13.2-29.9,23.6-42.3c10.3-12.4,23-22.9,37.5-30.7
				c2.3-1.3,4.6-2.5,7-3.6c10.4-4.9,21.5-8.4,32.9-10.3c113.3-19.6,226.7-39.1,340-58.7c73.1-12.6,146.9-23,219.6-37.9
				C3380.5,2665.2,3391.4,2660.9,3402.1,2656.1z"/>
			<path class="st26" d="M3957.7,1468.1c0,0-311,115.1-268.6,53.8c20.4-29.5,21.1-58.9,16.4-81.5c-2.3-10.9-5.9-20.2-9.1-27.2
				c-4-8.6-7.5-13.7-7.5-13.7l-4.9,1.6l-5.1,1.7l-70.5,23c-4.6,1.5-9.4,2.3-14.1,2.3c-7.1,0-14.1-1.6-20.5-4.8
				c-12.9-6.4-22-18.5-24.7-32.6l-11.6-61.5c-3.6-18.9-16.7-34.6-34.7-41.4l-30.7-11.6c-9.8-3.7-15-14.4-11.8-24.4l26.9-83.1
				c4.5-13.8,3.1-28.8-3.8-41.5l-14.6-27.1c-9.4-17.4-10.7-38-3.6-56.4l16.9-44.1c5.6,4.6,11.8,8.2,18.5,10.5
				c37.3,13.2,53.1-45.3,95.7-21.5c32.1,18,62.9,124.9,76.1,176.7c4.2,16.5,19.1,28,36.1,28l-0.1-34.4c1.5-1.3,4.1-3.5,7.6-6.2
				c17.7-13.6,57.2-38.6,73.5-6.1c17.2,34.3-5.3,73.9-14.7,87.9c-2.3,3.4-3.8,5.3-3.8,5.3s3.1,0.7,8.5,2.1c0.1,0.1,0.1,0.2,0.2,0.3
				c4.4,6.6,10.5,15.3,18.2,24.8c0.6,0.7,1.2,1.5,1.8,2.2c10.4,12.7,23.2,26.4,37.7,37.6c0.8,0.6,1.6,1.2,2.4,1.8
				c1.5,1.1,2.9,2.1,4.4,3.2c1,0.7,1.9,1.4,2.9,2c1.4,1,2.9,1.9,4.3,2.8c0.7,0.4,1.3,0.8,2,1.2c0.8,0.5,1.6,0.9,2.4,1.4
				c0.1,0.1,0.3,0.2,0.4,0.2c0.5,0.3,1,0.6,1.5,0.8c1.8,1,3.7,1.9,5.5,2.7c1.3,0.6,2.5,1.1,3.8,1.6c0.8,0.3,1.6,0.6,2.4,0.9
				c0.8,0.3,1.5,0.6,2.3,0.8c0.8,0.3,1.6,0.5,2.4,0.8c0.7,0.2,1.5,0.4,2.2,0.7c0.7,0.2,1.5,0.4,2.2,0.6c0.9,0.2,1.7,0.4,2.5,0.6
				c0.8,0.2,1.6,0.3,2.4,0.5c0.8,0.1,1.6,0.3,2.4,0.4c1,0.2,2,0.3,3,0.4c1.4,0.1,2.7,0.2,4,0.3c2,0.1,4,0,6-0.1
				c0.7,0,1.4-0.1,2.1-0.1c0.1,0,0.2,0,0.3,0c0.9-0.1,1.8-0.2,2.6-0.3c0.1,0,0.1,0,0.2,0c0.7-0.1,1.5-0.2,2.2-0.4
				c0.4-0.1,0.9-0.2,1.3-0.2c1.3-0.2,2.6-0.5,3.9-0.9c0.6-0.1,1.1-0.3,1.7-0.5c0.1,0,0.2-0.1,0.3-0.1c0.8-0.2,1.5-0.5,2.3-0.7
				c1-0.3,1.9-0.7,2.9-1.1c0.4-0.2,0.9-0.3,1.2-0.5c0.1,0.6,0.1,1.3,0.1,1.9c0,6.6,0.6,13.8,1.6,21.2c0.5,3.8,1.2,7.6,1.9,11.5
				c0.2,1.2,0.5,2.5,0.7,3.7c2,10,4.5,20.3,7.4,30.2C3942.8,1433,3957.7,1468.1,3957.7,1468.1z"/>
			<path class="st26" d="M3707,1160c0,0,0.5-0.4,1.3-1.2l0.1,34.4c-17,0-31.8-11.5-36.1-28c-13.2-51.7-44-158.7-76.1-176.7
				c-42.6-23.9-58.5,34.7-95.7,21.5c-6.7-2.4-12.9-6-18.5-10.5l11.7-30.7l74.4-48l103.9,63.6L3707,1160z"/>
			<path class="st26" d="M3920.1,1325.3c-0.4,0.2-0.8,0.4-1.2,0.5c-60.4,23.9-119.3-53.9-139.3-84
				C3810.7,1249.9,3917.1,1280.8,3920.1,1325.3z"/>
			<path class="st29" d="M3982.4,1152.2c-3.8,36.2-8.3,110.7-36.2,150.6c-5.1,7.3-11,13.4-17.8,17.9c-2.6,1.8-5.4,3.3-8.3,4.5
				c-0.4,0.2-0.8,0.4-1.2,0.5c-1,0.4-1.9,0.7-2.9,1.1c-0.7,0.3-1.5,0.5-2.3,0.7c-0.1,0.1-0.2,0.1-0.3,0.1c-0.6,0.2-1.1,0.3-1.7,0.5
				c-1.3,0.4-2.6,0.7-3.9,0.9c-0.4,0.1-0.9,0.2-1.3,0.2c-0.7,0.1-1.5,0.3-2.2,0.4c-0.1,0-0.1,0-0.2,0c-0.9,0.1-1.8,0.2-2.6,0.3
				c-0.1,0-0.2,0-0.3,0c-0.7,0.1-1.4,0.1-2.1,0.1c-2,0.1-4,0.1-6,0.1c-1.4-0.1-2.7-0.2-4-0.3c-1-0.1-2-0.2-3-0.4
				c-0.8-0.1-1.6-0.2-2.4-0.4c-0.8-0.2-1.6-0.3-2.4-0.5c-0.9-0.2-1.7-0.4-2.5-0.6c-0.7-0.2-1.5-0.4-2.2-0.6
				c-0.7-0.2-1.5-0.4-2.2-0.7c-0.8-0.3-1.6-0.5-2.4-0.8c-0.8-0.3-1.5-0.5-2.3-0.8c-0.8-0.3-1.6-0.6-2.4-0.9
				c-1.3-0.5-2.5-1.1-3.8-1.6c-1.9-0.9-3.7-1.8-5.5-2.7c-0.6-0.3-1.3-0.7-1.9-1.1c-0.8-0.5-1.6-0.9-2.4-1.4c-0.7-0.4-1.3-0.8-2-1.2
				c-1.5-0.9-2.9-1.8-4.3-2.8c-1-0.6-1.9-1.3-2.9-2c-1.5-1.1-3-2.1-4.4-3.2c-0.8-0.6-1.6-1.2-2.4-1.8c-3.7-2.9-7.4-6-10.9-9.1
				c-10-9.1-19.1-19.1-26.8-28.5c-0.6-0.7-1.2-1.5-1.8-2.2c-7.6-9.5-13.8-18.2-18.2-24.8c-0.1-0.1-0.1-0.2-0.2-0.3
				c-2-3-3.6-5.5-4.8-7.4c9.4-14,31.9-53.6,14.7-87.9c-16.3-32.5-55.8-7.5-73.5,6.1l-7.5,40.6c-10.7,0-20.5-4.5-27.4-12
				c-4.1-4.4-7.1-9.9-8.7-16c-13.2-51.7-44-158.7-76.1-176.7c-42.6-23.9-58.5,34.7-95.7,21.5c-6.7-2.4-12.9-6-18.5-10.5
				c-3.5-2.9-6.9-6.1-9.9-9.6c-17.6-20.3-26.9-50.1-24.8-73.9c3.5-38.6,29.2-72.9,60.7-92.7c13.6-8.5,88.8-29.1,87.7-47.5
				c0,0,0.2,4.4,0.7,11c0.1,1.6,0.2,3.3,0.4,5.2c1.4,18.3,4.5,46.9,9.8,55.7c8,13.3,26.5-40,114.3-53.5c3.5-0.5,7-0.9,10.5-1
				c23.8-1,48.1,6.5,71.2,17.9c31.1,15.4,60.1,37.8,83.4,56.1c20.7,16.3,47.5,33.4,65.2,52.4c26.9,28.8,30.2,77.4,35.6,114.4
				C3992.2,1071.7,3986.4,1114.3,3982.4,1152.2z"/>
			<path class="st55" d="M3991.1,1525.2l-0.2-110c0-11.2-11.2-19-21.7-15.1c-67.8,24.8-272.6,99.6-281.4,101.8l-71.4,189
				L3991.1,1525.2z"/>
			<path class="st5" d="M4407.4,2709.1l-76.1,239.8c-97.9,48.9-204.4,83.4-306.9,113.3c-109,31.7-224.4,64.3-340.6,79.5
				c-92.7,12.2-186,13.3-276.8-5.9c-69.3-14.6-136.1-39.3-204.8-56.5c-2.9-0.7-5.7-1.4-8.7-2.1l-5.3-1.9l513.5-57.2l44.3-4.9
				c70.2-7.9,136.8-31.1,195.7-67c58.6-35.7,109.6-84,148.8-142.3l235.5-353.5l71-106.6l26.4-90.5l13.7,208.8
				C4442.9,2545.6,4432.7,2629.4,4407.4,2709.1z"/>
			<path class="st32" d="M4407.4,2709.1l-36.4,114.7l-39.7,125.2c-97.9,48.9-204.4,83.4-306.9,113.3
				c-109,31.7-224.4,64.3-340.6,79.5c-92.7,12.2-186,13.3-276.8-5.9c-65.2-13.7-128.2-36.5-192.7-53.4c-4-1.1-8.1-2.1-12.1-3.1
				c-2.9-0.7-5.7-1.4-8.7-2.1l-5.3-1.9l513.5-57.2l44.3-4.9c70.2-7.9,136.8-31.1,195.7-67c58.6-35.7,109.6-84,148.8-142.3
				l235.5-353.5l71-106.6l26.4-90.5l13.7,208.8C4442.9,2545.6,4432.7,2629.4,4407.4,2709.1z"/>
			<path class="st55" d="M4326.2,2450.4l-235.5,353.5c-28,41.6-62,78.2-100.5,108.6c-15.4,12.2-31.6,23.5-48.3,33.7
				c-39.1,23.8-81.6,42.1-126.3,53.9c-22.6,6-45.8,10.4-69.4,13.1l-44.3,4.9l-138.7-103.2c0,0-16.4-23.2-38.3-54.1l-3.1-4.4
				c-18.7-26.5-40.9-57.8-60.1-84.9c-0.8-1.1-1.6-2.3-2.4-3.4c-23.8-33.6-42.4-59.9-42.9-60.5c0,0,3.3-21.6,50.5-112.4
				c12.5-24,28.1-52.8,47.5-87.3c18.5-32.9,31.7-70.6,40.9-110c3-12.5,5.5-25.1,7.7-37.8c8.5-48.8,11.7-98.6,12.3-143.3
				c0.3-24.2-0.2-46.9-1-67.3c-0.2-3.6-0.3-7.1-0.5-10.5c-2.5-50.3-7.2-83.6-7.2-83.6l85.5-459.1l92-26.2l247-70.4l64.6,96.5
				l39.1,58.4c39.1,58.4,67.7,123.3,84.3,191.6l16.1,66.1l70.6,289.8L4326.2,2450.4z"/>
			<path class="st26" d="M2682.5,2221.9l-0.4,1.6l-17.1,70.5l-11.1,45.6l-154.3,0.3c-1.3,0-2.7,0.1-4,0.4l-91.2,16.4
				c-13.8,2.5-26.5-8.1-26.5-22.1l-0.1-63.6c0-16.4,8.9-31.5,23.3-39.4l73.2-40.1c13.2-7.2,28.5-9.4,43.1-6.2l130.6,28.5l0.8,0.2
				l5.1,1.1l14.5,3.2l9.4,2.1c0.6,0.1,1.3,0.3,1.8,0.5c0.1,0,0.1,0,0.1,0.1c0.4,0.1,0.7,0.2,1.1,0.4c0.2,0.1,0.3,0.1,0.5,0.2
				C2681.8,2221.5,2682.2,2221.6,2682.5,2221.9z"/>
			<g>
				<polygon class="st5" points="2770.5,2206.2 2727.9,2347.3 2727.9,2347.3 2652,2347.5 2654,2339.5 2682.5,2221.9 2682.6,2221.4 
					2686.3,2206.4 				"/>
			</g>
			<path class="st28" d="M2682.5,2221.9l-28.6,117.7l-136.4,0.3c13.7-3.9,27.8-6.4,42-7.5c19-1.4,39.1-0.6,55.8-9.6
				c19.2-10.3,30-31.4,36.2-52.3c2.9-9.8,8.4-36.8,16.9-52.3l9.4,2.1c0.6,0.1,1.3,0.3,1.8,0.5c0.1,0,0.1,0,0.1,0.1
				c0.6,0.2,1.1,0.3,1.6,0.6C2681.8,2221.5,2682.2,2221.6,2682.5,2221.9z"/>
			<path class="st34" d="M2682.2,2223.4l-17.1,70.5c-0.8,1.3-1.8,2.5-2.7,3.7c-11.8,14.8-29.6,23.2-46.8,31.1
				c-8.3,3.8-16.7,7.6-25.2,10.9l-90.7,0.2c-1.3,0-2.7,0.1-4,0.4l-91.2,16.4c-13.8,2.5-26.5-8.1-26.5-22.1l0-1
				c7.5-3.8,16.7-5.3,25.3-6.3c13.9-1.7,27.8-3.4,41.8-3.6c12.6-0.2,25.2,0.8,37.9,0.7c43.1-0.5,85.9-15.2,120.3-41.3
				c10.8-8.2,20.7-17.4,29-28.2c9.2-12,16.1-25.7,21.8-39.7l14.5,3.2l9.4,2.1c0.6,0.1,1.3,0.3,1.8,0.5c0.1,0,0.1,0,0.1,0.1
				c0.4,0.1,0.7,0.2,1.1,0.4C2681.4,2221.9,2681.8,2222.7,2682.2,2223.4z"/>
			<path class="st32" d="M4371,2823.8l-39.7,125.2c-97.9,48.9-204.4,83.4-306.9,113.3c-109,31.7-224.4,64.3-340.6,79.5
				c-92.7,12.2-186,13.3-276.8-5.9c-65.2-13.7-128.2-36.5-192.7-53.4c-4-3.8-6.1-5.9-6.1-5.9s383.2,17.8,699.6-33.4
				C4123.1,3008.3,4287.7,2893.7,4371,2823.8z"/>
			<path class="st56" d="M4326.2,2450.4l-235.5,353.5c-28,41.6-62,78.2-100.5,108.6c-29.2,18.1-59.3,34.8-90,50.2
				c-27.5,13.8-55.8,26.6-84.7,37.4c-22.6,6-45.8,10.4-69.4,13.1l-44.3,4.9l-138.7-103.2c0,0-16.4-23.2-38.3-54.1l-3.1-4.4
				c-18.7-26.5-40.9-57.8-60.1-84.9c-0.8-1.1-1.6-2.3-2.4-3.4c-23.8-33.6-42.4-59.9-42.9-60.5c0,0,3.3-21.6,50.5-112.4
				c12.5-24,28.1-52.8,47.5-87.3c18.5-32.9,31.7-70.6,40.9-110c10.3-14.4,19.9-29.1,27.8-44.8c1.4-2.8,2.8-5.7,4.1-8.6
				c17.7-39.9,22.4-84.2,31.5-126.9c5.3-24.8,12.2-49.3,20.6-73.2c21.4-60.9,52.5-118.5,91.8-169.6c21.5-28,119.4-141.4,138.4-53.1
				c12.6,58.5-53.9,82.4-54.8,137.2c-1.3,83.7,23.9,167.7,71.2,236.8c9.8,14.4,20.7,28.4,26.8,44.7c12.4,33,3.4,69.7-3.2,104.3
				c-13.3,69.3-24.1,185.1,30.5,242c72.3,75.3,153.6-168.3,164-211c43.7-180.1,30.9-374.5,80.4-550.3c1.1-4.1,2.6-8.4,5.9-11
				c1.6-1.2,3.2-1.9,4.8-2.1l70.6,289.8L4326.2,2450.4z"/>
			<path class="st55" d="M3858.7,1889.2c-9.6,28.8-25.5,55.5-46.8,78.1L3483.3,2314c-14.4,15.2-34.3,24.2-55.2,24.8l-704.2,21.8
				l4-13.3l0,0l14.9-49.4l27.7-91.7l8.8-29.3l537.3-65l228-386.3l56-69.6c33.8-42,89-60.5,141.3-47.4l17.3,4.4
				c56.3,14.5,97.5,62.8,102.9,120.7l6.5,69.1C3871.4,1832.3,3867.8,1861.7,3858.7,1889.2z"/>
			<path class="st56" d="M4055.6,1596.3c-29.3-10.2-57.8-22.9-87.4-32.5c-36.2-11.8-75.2-19-112.4-10.7
				c-75.1,16.6-137.5,61.7-216.9,62.3c104.6-65.6,234.1-81.9,352.1-115.5L4055.6,1596.3z"/>
			<path class="st56" d="M3858.7,1889.2c-0.7,2-1.3,3.9-2.1,5.9c-9.7,26.5-24.8,51.1-44.7,72.1L3642,2146.5l-5.5,5.8l-61.2,64.5
				l-30,31.6l-62.1,65.5c-14.4,15.2-34.3,24.2-55.2,24.8l-704.2,21.8l4-13.3l0,0l14.9-49.4c3.8-1.3,7.7-2.3,11.7-2.9
				c47.2-7.2,103.9,16.7,151.2,22.2c57.7,6.6,115.9,8.2,173.8,4.7c89.9-5.4,179.1-22.9,264.2-52.2c86.4-29.7,148.5-62.9,220.2-122.4
				c3.3-2.7,6.6-5.5,9.9-8.3c39.4-33.2,77.4-67.8,115.5-102.5c24.5-22.3,49.1-44.6,74.1-66.6c15.8-13.9,54.1-54.2,90-77.5
				C3855.1,1891.4,3856.9,1890.2,3858.7,1889.2z"/>
			<path class="st57" d="M3636.5,2152.3c-7.2,21.4-13.2,43.2-17.8,65.3c-9.1,42.7-13.7,87-31.5,126.9c-1.3,2.9-2.6,5.8-4.1,8.6
				c-6.2,4.3-13.1,7.5-20.1,7c8.5-48.8,11.7-98.6,12.3-143.3L3636.5,2152.3z"/>
			<path class="st34" d="M3931.8,1393.8c-61.4,18.4-177.7,38.5-226.2,46.6c-5.1-24.4-16.6-40.9-16.6-40.9c0,0,0.1,0,0.1,0
				c4.1-1.1,137.9-35.6,215.1-69.7c4.9-0.7,9.8-1.9,14.8-3.9c0.4-0.2,0.9-0.3,1.2-0.5c0.1,0.6,0.1,1.3,0.1,1.9
				c0,6.6,0.6,13.8,1.6,21.2c0.7,5,1.6,10.1,2.6,15.2C3926.4,1373.5,3928.9,1383.8,3931.8,1393.8z"/>
			<path class="st34" d="M3921.8,1348.3c-7.3,2-15.8,4.4-25.3,6.9c-0.7,0.2-1.4,0.4-2.1,0.6c-0.9,0.3-1.8,0.5-2.8,0.8
				c-0.1,0-0.2,0.1-0.3,0.1c-1.1,0.3-2.3,0.6-3.4,0.9c-2.1,0.6-4.3,1.2-6.4,1.7c-17.8,4.7-35.6,9.2-53.5,13.6
				c-1.8,0.4-3.5,0.9-5.3,1.3c-41.3,9.9-86.2,19.3-123.6,24.2c-2.9,0.4-5.8,0.7-8.7,1.1c0-0.1,0-0.1-0.1-0.2
				c-0.3-1.2-0.4-2.2-0.1-2.9c1.4-3.1,10-6.6,12.9-8.2c9.2-5,18.9-9.2,28.4-13.6c18.1-8.4,37.1-18.1,47.4-36
				c17.6-30.4-2-50.6-5.4-79.6c-0.8-7.3-0.1-15.2,6.1-16.8c4.4,6.6,10.5,15.3,18.2,24.8c0.6,0.7,1.2,1.5,1.8,2.2
				c7.7,9.4,16.7,19.4,26.8,28.5c3.5,3.2,7.1,6.2,10.9,9.1c0.8,0.6,1.6,1.2,2.4,1.8c1.5,1.1,2.9,2.1,4.4,3.2c1,0.7,1.9,1.4,2.9,2
				c1.4,1,2.9,1.9,4.3,2.8c0.7,0.4,1.3,0.8,2,1.2c0.8,0.5,1.6,0.9,2.4,1.4c0.6,0.4,1.3,0.7,1.9,1.1c1.8,1,3.7,1.9,5.5,2.7
				c1.3,0.6,2.5,1.1,3.8,1.6c0.8,0.3,1.6,0.6,2.4,0.9c0.8,0.3,1.5,0.6,2.3,0.8c0.8,0.3,1.6,0.5,2.4,0.8c0.7,0.2,1.5,0.4,2.2,0.7
				c0.7,0.2,1.5,0.4,2.2,0.6c0.9,0.2,1.7,0.4,2.5,0.6c0.8,0.2,1.6,0.3,2.4,0.5c0.8,0.1,1.6,0.3,2.4,0.4c1,0.2,2,0.3,3,0.4
				c1.4,0.1,2.7,0.2,4,0.3c2,0.1,4,0,6-0.1c0.7,0,1.4-0.1,2.1-0.1c0.1,0,0.2,0,0.3,0c0.9-0.1,1.8-0.2,2.6-0.3c0.1,0,0.1,0,0.2,0
				c0.7-0.1,1.5-0.2,2.2-0.4c0.4-0.1,0.9-0.2,1.3-0.2c1.3-0.2,2.6-0.5,3.9-0.9c0.6-0.1,1.1-0.3,1.7-0.5c0.1,0,0.2-0.1,0.3-0.1
				c0.8-0.2,1.5-0.5,2.3-0.7c1-0.3,1.9-0.7,2.9-1.1c0.4-0.2,0.9-0.3,1.2-0.5c0.1,0.6,0.1,1.3,0.1,1.9c0,5.5,0.4,11.3,1.2,17.4
				C3921.5,1345.8,3921.6,1347.1,3921.8,1348.3z"/>
			<path class="st58" d="M3921.3,1344.6c-0.5,0.3-0.9,0.7-1.4,1c-6.7,4.7-15.6,7.5-23.4,9.7c-0.7,0.2-1.4,0.4-2.1,0.6
				c-0.9,0.3-1.8,0.5-2.8,0.8c-0.1,0-0.2,0.1-0.3,0.1c-1.1,0.3-2.3,0.6-3.4,0.9c-2.1,0.6-4.3,1.2-6.4,1.7
				c-17.8,4.7-35.6,9.2-53.5,13.6c-1.8,0.4-3.5,0.9-5.3,1.3c-37.9,9.1-76.1,17.6-114.7,22.9c-3,0.4-5.9,0.8-8.9,1.2
				c-2.9,0.4-5.8,0.7-8.7,1.1c-0.5,0.1-1,0.1-1.5,0.2c0.2-0.1,0.7-0.2,1.4-0.4c0.2-0.1,0.4-0.1,0.6-0.2c36.5-9.5,72.8-20,108.9-31.4
				c12.4-3.9,30.5-8.4,38.6-19.6c7.2-9.9-0.8-26.2,5.8-30.1c6.3-3.8,25.7,8.1,32.2,9.8c11.5,3,23.7,3.9,35.2,0.6
				c0.6-0.1,1.1-0.3,1.7-0.5c0.1,0,0.2-0.1,0.3-0.1c0.8-0.2,1.5-0.5,2.3-0.7c1-0.3,1.9-0.7,2.9-1.1c0.4-0.2,0.9-0.3,1.2-0.5
				c0.1,0.6,0.1,1.3,0.1,1.9C3920.2,1332.6,3920.6,1338.5,3921.3,1344.6z"/>
			<path class="st34" d="M3681,1181.2c-26.1-10.7-45.7-38-59.7-64c-17.5-32.6-35.1-69.4-69.2-83.7c-18.7-7.8-82.9-10-80.1-42.7
				c0-0.3,0.1-0.7,0.1-1c3,3.5,6.3,6.8,9.9,9.6c5.6,4.6,11.8,8.2,18.5,10.5c37.3,13.2,53.1-45.3,95.7-21.5
				c32.1,18,62.9,124.9,76.1,176.7C3673.9,1171.4,3676.9,1176.8,3681,1181.2z"/>
			<path class="st35" d="M3802.6,811c-26.3-4-53.6,0.1-79.1,8.1c-35.3,11.1-64.3,23.1-95,44.1c-6.2,4.2-12.6,8.3-19.9,9.9
				c-10.9,2.5-23.1-1.4-30.6-9.7c-12.6-13.9-2-59.9,14.3-69.6c1.4-0.8,2.9-1.5,4.5-2c1.4,18.3,4.5,46.9,9.8,55.7
				c8,13.3,26.5-40,114.3-53.5c3.5-0.5,7-0.9,10.5-1C3755.2,792.1,3779.4,799.6,3802.6,811z"/>
			<path class="st36" d="M3731.4,793.1c-0.2,0.1-0.4,0.2-0.6,0.3c-20,9.5-42.5,12.7-62.5,22.2c-14.3,6.8-27,16.8-37.1,29
				c-7.6,9.3-16,21.1-28,20.2c-8.5-0.6-15.3-8.2-17.6-16.4c-2.4-8.2-1.1-17,0.5-25.4c0-12.6,2.9-26.9,10.4-36.1
				c1.2,17.6,4.3,51.2,10.1,60.9c8,13.3,26.5-40,114.3-53.5C3724.4,793.6,3727.9,793.2,3731.4,793.1z"/>
		</g>
		<g>
			<path class="st5" d="M2550.1,2607.1l0.7,336.2c-2.6-0.5-5.2-0.9-7.9-1.4c-11.6-2.1-23.2-3.9-34.8-5.6
				c-19.5-2.8-38.9-4.9-58.4-6.4l-0.7-322.6L2550.1,2607.1z"/>
			<path class="st59" d="M2550.1,2607.1l0.7,336.2c-2.6-0.5-5.2-0.9-7.9-1.4c-11.6-2.1-23.2-3.9-34.8-5.6
				c-19.5-2.8-38.9-4.9-58.4-6.4l-0.7-322.6L2550.1,2607.1z"/>
			<path class="st5" d="M3057.6,2606l-1116.1,2.4c-22.4,0-40.6-18.1-40.7-40.5l-0.1-44.6l1197.2-2.6l0.1,44.6
				C3098.2,2587.8,3080,2606,3057.6,2606z"/>
			<path class="st19" d="M3057.6,2606l-1116.1,2.4c-22.4,0-40.6-18.1-40.7-40.5l-0.1-44.6l1197.2-2.6l0.1,44.6
				C3098.2,2587.8,3080,2606,3057.6,2606z"/>
			
				<rect x="998.7" y="2348" transform="matrix(1 -2.150955e-03 2.150955e-03 1 -5.2666 5.2226)" class="st5" width="2853.4" height="206.2"/>
			
				<rect x="998.7" y="2348" transform="matrix(1 -2.150955e-03 2.150955e-03 1 -5.2666 5.2226)" class="st60" width="2853.4" height="206.2"/>
			<polygon class="st61" points="3852.2,2496.8 3852.3,2551.1 998.9,2557.2 998.6,2405 			"/>
		</g>
		<g>
			<g class="st62">
				<path class="st63" d="M3769.1,1155c2.7,5.6,3.7,12,3.9,18.2c0.1,6.2-0.1,12.6-1.9,18.7c-3.3,12.2-11.3,23.1-21.9,29.5
					c4.7-4,8.7-8.7,11.9-13.8c3.2-5.1,5.6-10.7,7-16.5c1.6-5.8,1.6-11.8,1.9-17.9C3770.1,1167.2,3770.1,1161.2,3769.1,1155z"/>
			</g>
			<g class="st62">
				<path class="st63" d="M3761.4,1207.8c-10.5-3.3-19.1-11.2-23.1-20.9c5,9.2,14.1,15.8,23.9,17.7c0.9,0.2,1.5,1.1,1.3,2
					c-0.2,0.9-1.1,1.5-2,1.3C3761.5,1207.8,3761.4,1207.8,3761.4,1207.8z"/>
			</g>
		</g>
		<g>
			<g class="st62">
				<path class="st63" d="M1560.8,1107c-5.2,5-8.8,11.5-11.5,18.2c-2.6,6.6-4.9,13.6-5.5,21c-1.3,14.5,3,29.5,11.9,40.7
					c-3.5-6.2-5.9-12.9-7.3-19.7c-1.4-6.8-1.8-13.8-0.9-20.6c0.6-6.9,3-13.4,5.1-20.1C1554.9,1119.7,1557.3,1113.2,1560.8,1107z"/>
			</g>
			<g class="st62">
				<path class="st63" d="M1548,1167.1c12.7,0.7,25.1-4.5,33.4-13.3c-9.1,7.9-21.6,11.4-33,9.5c-1-0.2-2,0.5-2.2,1.6
					c-0.2,1.1,0.5,2,1.6,2.2C1547.9,1167.1,1547.9,1167.1,1548,1167.1z"/>
			</g>
		</g>
		<g>
			<g>
				
					<ellipse transform="matrix(0.1466 -0.9892 0.9892 0.1466 -2432.7397 2590.1233)" class="st61" cx="284.8" cy="2705" rx="30.8" ry="30.8"/>
				
					<ellipse transform="matrix(0.3247 -0.9458 0.9458 0.3247 -2553.9558 2343.5056)" class="st64" cx="364.1" cy="2960.2" rx="25.9" ry="25.9"/>
				<circle class="st65" cx="579" cy="3225.5" r="17"/>
				<path class="st66" d="M4374.8,3129.2c1.1,12.2-8,22.9-20.1,24c-12.2,1.1-22.9-8-24-20.1s8-22.9,20.1-24
					C4363,3108,4373.7,3117,4374.8,3129.2z"/>
				
					<ellipse transform="matrix(0.6428 -0.766 0.766 0.6428 -570.7531 4656.2437)" class="st61" cx="4707.8" cy="2940.2" rx="23.2" ry="23.2"/>
				
					<ellipse transform="matrix(0.8567 -0.5159 0.5159 0.8567 -569.2847 2846.8767)" class="st67" cx="4838.4" cy="2447.9" rx="28.5" ry="28.5"/>
			</g>
			<g>
				<g>
					<path class="st5" d="M4613.4,2406.7l-3.9,43.2c-12.8,141.9-110.4,261.7-246.8,303l-15.8,4.8l5.9-49.8
						c14.9-126.2,97.2-234.4,214.8-282.4L4613.4,2406.7z"/>
					<path class="st5" d="M4210,2841.8l38.2-10.9c125.5-35.7,260.6,8,341.5,110.6l9.4,11.9l-44.5,11.4
						c-112.8,28.8-232.8-5.7-313.3-90.1L4210,2841.8z"/>
					<path class="st68" d="M4613.4,2406.7l-3.9,43.2c-12.8,141.9-110.4,261.7-246.8,303l-15.8,4.8l5.9-49.8
						c14.9-126.2,97.2-234.4,214.8-282.4L4613.4,2406.7z"/>
					<path class="st5" d="M4210,2841.8l38.2-10.9c125.5-35.7,260.6,8,341.5,110.6l9.4,11.9l-44.5,11.4
						c-112.8,28.8-232.8-5.7-313.3-90.1L4210,2841.8z"/>
					<path class="st5" d="M4910.2,2683.7l-34.8,25.9c-114.3,85-268.8,92-390.3,17.9l-14.1-8.6l41-28.8c104-73,239.5-83.7,353.7-28
						L4910.2,2683.7z"/>
					<path class="st5" d="M4910.2,2683.7l-34.8,25.9c-114.3,85-268.8,92-390.3,17.9l-14.1-8.6l41-28.8c104-73,239.5-83.7,353.7-28
						L4910.2,2683.7z"/>
					<path class="st5" d="M4613.4,2406.7l-3.9,43.2c-12.8,141.9-110.4,261.7-246.8,303l-15.8,4.8l5.9-49.8
						c14.9-126.2,97.2-234.4,214.8-282.4L4613.4,2406.7z"/>
					<path class="st5" d="M4078.5,2886.1l8.7,47.6l12.6-10.1c59.8-47.6,102.8-112.4,125-183.4c0-0.1,0-0.1,0-0.2
						c18.3-58.9,22.3-122,9.6-182.8l-8.6-40.9l-35.4,33.7c-14.4,13.7-27.5,28.4-39.4,44C4087.5,2677,4060,2784.4,4078.5,2886.1z"/>
					<path class="st5" d="M4209.9,2841.8l31.3,32.8c58.5,61.3,137.7,96.3,219.9,99.8c31,1.4,62.5-1.8,93.4-9.7l44.5-11.4l-9.4-11.9
						c-55.7-70.6-137.1-113.4-223.4-121.5c0,0-0.1,0-0.1,0c-39-3.7-79-0.2-118.1,10.9L4209.9,2841.8z"/>
					<g class="st69">
						<g>
							<path class="st70" d="M3986,3070.1c3.3,0.4,6.7,0.8,10.1,1.2c15-28.5,32.3-54.9,51.4-79.4c2.2-2.9,4.5-5.8,6.8-8.6
								c16.3-20.2,33.8-39,52.2-56.6c32.9-31.6,68.6-59.2,105.2-83.1c2-1.4,4-2.7,6.1-3.9c66.8-43.1,136.3-74.4,197-96.7
								c9.2-3.4,18.2-6.6,27.2-9.6c11.7-4,23.3-7.7,34.6-11.2l0,0c14.2-4.4,28-8.4,41.4-12.1c103.6-28.3,180.1-35.9,181.1-36
								c2.6-0.2,4.5-2.6,4.3-5.2c-0.2-2.6-2.6-4.6-5.2-4.3c-1,0.1-76.4,7.6-179,35.3c-11.5,3.1-23.4,6.5-35.6,10.1
								c-3.5,1-7,2.1-10.6,3.2c-10,3.1-20.1,6.4-30.4,9.8c-10.2,3.4-20.5,7-31,10.9c-0.1,0-0.1,0.1-0.2,0.1
								c-15.6,5.7-30.8,11.7-45.8,17.9c-71.2,29.6-135,64.6-190.1,104.5c-9.2,6.7-18.2,13.5-26.9,20.4
								c-14.8,11.8-28.9,23.9-42.3,36.5c-6.7,6.3-13.3,12.6-19.6,19.1c-15.5,15.8-30,32.2-43.4,49.1c-2.3,2.9-4.6,5.8-6.8,8.7
								c-19.3,25.3-36.1,51.8-50.5,79.4C3986.1,3069.7,3986,3069.9,3986,3070.1z"/>
						</g>
					</g>
					<path class="st71" d="M4612.7,2415.9l-3.9,43.2c-12.8,141.9-110.4,261.7-246.8,303l-15.8,4.8l5.9-49.8
						c14.9-126.2,97.2-234.4,214.8-282.4L4612.7,2415.9z"/>
					<path class="st72" d="M4078.5,2886.1l8.7,47.6l12.6-10.1c59.8-47.6,102.8-112.4,125-183.4c0-0.1,0-0.1,0-0.2
						c13.4-55.5,15-113.7,3.2-170.2l-9.2-43.8l-37.9,36.1c-10.6,10.1-20.6,20.7-30,31.8C4087.5,2677,4060,2784.4,4078.5,2886.1z"/>
					<path class="st73" d="M4226,2842.9l31.3,32.8c54.6,57.3,127.4,91.6,203.8,98.7c31,1.4,62.5-1.8,93.4-9.7l44.5-11.4l-9.4-11.9
						c-55.7-70.6-137.1-113.4-223.4-121.5c0,0-0.1,0-0.1,0c-33.9-1.5-68.3,2.4-102,12L4226,2842.9z"/>
					<path class="st5" d="M4910.2,2683.7l-34.8,25.9c-114.3,85-268.8,92-390.3,17.9l-14.1-8.6l41-28.8c104-73,239.5-83.7,353.7-28
						L4910.2,2683.7z"/>
					<path class="st74" d="M4910.2,2683.7l-34.8,25.9c-114.3,85-268.8,92-390.3,17.9l-14.1-8.6l41-28.8c104-73,239.5-83.7,353.7-28
						L4910.2,2683.7z"/>
				</g>
				<g>
					<path class="st5" d="M1227.6,3096.5L1227.6,3096.5c-4.2,1.4-8.5,2.7-12.7,4c-0.4,0.1-0.8,0.3-1.2,0.4l0,0c0,0-0.1-0.1-0.1-0.1
						c-2.6-0.9-5.8-1.9-9.5-3c-3.9-1.2-8.4-2.5-13.4-3.9c-0.6-0.2-1.2-0.3-1.9-0.5c-30-8.3-78-18.9-134.1-22.2
						c-14.4-0.8-29.4-1.2-44.8-0.8c-22,0.5-45.7,2.4-70.4,6.5c-3.6,0.6-7.2,1.2-10.8,1.9l0,0c-22.9,4.4-46.6,10.8-70.2,19.8
						c-18.6,7-37.1,15.7-55.4,26.2c-4.9,2.9-9.9,5.9-14.8,9c-10.6,6.8-21.1,14.2-31.3,22.5c-34.7,27.7-67.3,63.8-95.1,110.7
						c-0.8,1.4-2.2,2.2-3.7,2.3c-0.1,0-0.2,0-0.3,0c-0.9,0-1.7-0.2-2.5-0.6c-0.8-0.4-1.3-1.1-1.7-1.8c-0.8-1.4-0.8-3.2,0.1-4.7
						c25.4-42.7,55.9-78.9,90.9-108.2c23.7-19.9,49.6-36.7,77.5-50.3c12.6-6.1,25.6-11.6,39.1-16.4c19.4-7,39.6-12.6,60.6-16.8
						c3.6-0.7,7.2-1.4,10.8-2.1c24.8-4.4,50.7-6.9,77.4-7.4c11.3-0.3,22.4-0.1,33.2,0.3c57,2.1,106.8,12.3,139.9,20.9
						c3.1,0.8,6.1,1.6,8.8,2.4c2.6,0.7,5.1,1.4,7.5,2.1c3.4,1,6.6,1.9,9.4,2.8c10.5,3.3,16.5,5.5,16.7,5.6
						C1226.3,3095.2,1227.1,3095.8,1227.6,3096.5z"/>
				</g>
				<path class="st5" d="M663.4,3253.8l-26.4,14.6c-86.7,48.1-135.9,144.2-124.4,242.9l1.3,11.4l30-17.8
					c76.2-45.1,122.2-128,120.2-216.7L663.4,3253.8z"/>
				<path class="st5" d="M800.9,3119.2l-19.7,22.8c-64.9,75-78,182.2-33.3,270.8l5.2,10.3l22.1-27c56-68.5,70.7-162.2,38.3-244.8
					L800.9,3119.2z"/>
				<path class="st75" d="M800.9,3119.2l-19.7,22.8c-64.9,75-78,182.2-33.3,270.8l5.2,10.3l22.1-27c56-68.5,70.7-162.2,38.3-244.8
					L800.9,3119.2z"/>
				<g class="st69">
					<g>
						<path class="st70" d="M1227.6,3096.5L1227.6,3096.5c-4.2,1.4-8.5,2.7-12.7,4c-0.4,0.1-0.8,0.3-1.2,0.4l0,0
							c0,0-0.1-0.1-0.1-0.1c-2.6-0.9-5.8-1.9-9.5-3c-3.9-1.2-8.4-2.5-13.4-3.9c-0.6-0.2-1.2-0.3-1.9-0.5c-30-8.3-78-18.9-134.1-22.2
							c-14.4-0.8-29.4-1.2-44.8-0.8c-22,0.5-45.7,2.4-70.4,6.5c-3.6,0.6-7.2,1.2-10.8,1.9l0,0c-22.9,4.4-46.6,10.8-70.2,19.8
							c-18.6,7-37.1,15.7-55.4,26.2c-4.9,2.9-9.9,5.9-14.8,9c-10.6,6.8-21.1,14.2-31.3,22.5c-34.7,27.7-67.3,63.8-95.1,110.7
							c-0.8,1.4-2.2,2.2-3.7,2.3c-0.1,0-0.2,0-0.3,0c-0.9,0-1.7-0.2-2.5-0.6c-0.8-0.4-1.3-1.1-1.7-1.8c-0.8-1.4-0.8-3.2,0.1-4.7
							c25.4-42.7,55.9-78.9,90.9-108.2c23.7-19.9,49.6-36.7,77.5-50.3c12.6-6.1,25.6-11.6,39.1-16.4c19.4-7,39.6-12.6,60.6-16.8
							c3.6-0.7,7.2-1.4,10.8-2.1c24.8-4.4,50.7-6.9,77.4-7.4c11.3-0.3,22.4-0.1,33.2,0.3c57,2.1,106.8,12.3,139.9,20.9
							c3.1,0.8,6.1,1.6,8.8,2.4c2.6,0.7,5.1,1.4,7.5,2.1c3.4,1,6.6,1.9,9.4,2.8c10.5,3.3,16.5,5.5,16.7,5.6
							C1226.3,3095.2,1227.1,3095.8,1227.6,3096.5z"/>
					</g>
				</g>
				<path class="st76" d="M663.4,3253.8l-26.4,14.6c-86.7,48.1-135.9,144.2-124.4,242.9l1.3,11.4l30-17.8
					c76.2-45.1,122.2-128,120.2-216.7L663.4,3253.8z"/>
				<g>
					<path class="st5" d="M1030.6,3169c-4.1-0.6-8.2-1.3-12.3-1.9c-12.7-20.9-26.7-40.6-41.7-59.1l0,0c-2.3-2.9-4.6-5.7-7-8.5
						c-16.7-19.9-34.5-38.4-53.2-55.6c-33.5-31-69.8-57.8-106.8-81.1c-2.1-1.3-4.1-2.6-6.1-3.8c0,0,0,0-0.1,0
						c-67.6-41.8-137.7-71.7-198.7-92.8c-9.2-3.2-18.4-6.2-27.4-9.1c-11.8-3.7-23.4-7.3-34.8-10.5l-0.1,0
						c-14.3-4.2-28.2-7.9-41.6-11.3c-5.1-1.3-10.1-2.5-15-3.7c-96.4-23.2-165.8-28.7-166.8-28.8c-2.6-0.2-4.6-2.5-4.4-5.1
						c0.2-2.6,2.5-4.6,5.1-4.4c1,0.1,68.3,5.4,162.5,27.6c5.6,1.3,11.3,2.7,17.2,4.2c11.6,2.9,23.5,6,35.8,9.5l0,0
						c3.5,0.9,7,2,10.6,3c6.7,1.9,13.6,4,20.5,6.1c3.4,1,6.7,2.1,10.1,3.1c10.3,3.2,20.6,6.6,31.1,10.3l0,0c0,0,0.1,0,0.1,0
						c0,0,0.1,0,0.1,0c15.7,5.4,31.1,11.1,46.1,17l0,0c6.3,2.5,12.5,5,18.6,7.6c64.3,26.6,122.4,57.8,173.4,93.2
						c9.3,6.5,18.4,13.1,27.2,19.9c0,0,0.1,0,0.1,0c15,11.5,29.3,23.4,42.9,35.6c6.8,6.1,13.5,12.4,20,18.7
						c15.8,15.5,30.7,31.6,44.4,48.3c2.4,2.9,4.7,5.7,6.9,8.6C1003.4,3126.3,1017.8,3147.2,1030.6,3169z"/>
				</g>
				<path class="st77" d="M4862.2,2479.7"/>
				<g>
					<g>
						<g>
							<g>
								<path class="st5" d="M4551.4,3146.2c-1.8,0.2-3.7-0.5-5-2.1c-11.5-13.7-24-26.4-37.4-37.8c-102.1-87-243-90.7-343.3-78.5
									c-109.1,13.3-194.8,47.7-195.7,48.1c-3,1.2-6.4-0.2-7.6-3.2c-1.2-3,0.2-6.4,3.2-7.6c0.9-0.4,88-35.4,198.6-48.9
									c102.5-12.4,246.9-8.6,352.2,81.2c13.9,11.8,26.9,25,38.8,39.2c2.1,2.5,1.7,6.1-0.7,8.2
									C4553.7,3145.6,4552.5,3146.1,4551.4,3146.2z"/>
							</g>
						</g>
						<g>
							<path class="st5" d="M4305.5,3280c0,0,4-208.4-220.3-249C4085.3,3031.1,4053.1,3220.9,4305.5,3280z"/>
						</g>
						<path class="st5" d="M4547.7,2860.1c0,0-200.7-56.3-296.4,150.6C4251.3,3010.7,4427,3089.5,4547.7,2860.1z"/>
						<path class="st5" d="M4470.2,3104.1c3.7-16.1,218.1,37.8,170.7,254.2C4640.9,3358.4,4422.2,3312.6,4470.2,3104.1z"/>
					</g>
				</g>
				<g class="st69">
					<g>
						<g>
							<g>
								<path class="st70" d="M4551.4,3146.2c-1.8,0.2-3.7-0.5-5-2.1c-11.5-13.7-24-26.4-37.4-37.8c-102.1-87-243-90.7-343.3-78.5
									c-109.1,13.3-194.8,47.7-195.7,48.1c-3,1.2-6.4-0.2-7.6-3.2c-1.2-3,0.2-6.4,3.2-7.6c0.9-0.4,88-35.4,198.6-48.9
									c102.5-12.4,246.9-8.6,352.2,81.2c13.9,11.8,26.9,25,38.8,39.2c2.1,2.5,1.7,6.1-0.7,8.2
									C4553.7,3145.6,4552.5,3146.1,4551.4,3146.2z"/>
							</g>
						</g>
						<g class="st78">
							<path class="st70" d="M4305.5,3280c0,0,4-208.4-220.3-249C4085.3,3031.1,4053.1,3220.9,4305.5,3280z"/>
						</g>
						<path class="st70" d="M4547.7,2860.1c0,0-200.7-56.3-296.4,150.6C4251.3,3010.7,4427,3089.5,4547.7,2860.1z"/>
						<g class="st79">
							<path class="st70" d="M4466.8,3065.7c3.7-16.1,218.1,37.8,170.7,254.2C4637.5,3320,4418.8,3274.2,4466.8,3065.7z"/>
						</g>
					</g>
				</g>
				<g>
					<g>
						<path class="st5" d="M3943.9,2795c0.7,2.1,1.5,4.3,2.3,6.7c11.5,34.3,30.7,97.2,40.8,162.1c1,6.6,2,13.3,2.8,19.9l0,0
							c0.3,2.5,0.6,4.9,0.9,7.4c0.5,4.2,0.9,8.3,1.2,12.5c1.9,21.9,2.4,43.4,0.8,63.5c-0.1,1.1-0.2,2.2-0.3,3.4
							c-23.8,9.6-48,18.5-72.4,26.5c0,0-0.1,0-0.1,0c-2.3,0.7-4.6,1.3-6.9,1.9c-3.6,1-7.2,2-10.9,2.9c-0.3,0.1-0.6,0.2-1,0.2
							c-2.8,0.7-5.7,1.5-8.5,2.2l-6.4,1.6c-3,0.8-6.1,1.5-9.1,2.2c-8,1.9-15.9,3.8-23.8,5.6c-2.5,0.6-5.1,1.2-7.6,1.7
							c-3,0.7-6.1,1.3-9.1,2c-0.5,0.1-1.1,0.2-1.6,0.4c-0.3,1.4-0.7,2.8-0.9,4.2c-0.6,0.2-1.1,0.3-1.7,0.4c0.3-1.5,0.7-2.9,1-4.3
							c-3.8,0.8-7.7,1.6-11.5,2.4c-3.1,0.6-6.2,1.3-9.3,1.8c-3.4,0.7-6.7,1.3-10,1.9c-2.3,0.5-4.7,0.9-7,1.3
							c-3.4,0.6-6.8,1.3-10.2,1.8c-38.2,6.8-75.1,12-109.6,15.6c-0.5,0.1-0.9,0.1-1.4,0.1c13.1-94.4,68.2-267.8,262.5-368
							c0,0,0.9,2.3,2.4,6.5l1,2.7C3941.2,2787.1,3942.4,2790.6,3943.9,2795z"/>
					</g>
					<path class="st80" d="M3943.9,2795c0.7,2.1,1.5,4.3,2.3,6.7c11.5,34.3,30.7,97.2,40.8,162.1c1,6.6,2,13.3,2.8,19.9l0,0
						c0.3,2.5,0.6,4.9,0.9,7.4c0.5,4.2,0.9,8.3,1.2,12.5c1.9,21.9,2.4,43.4,0.8,63.5c-0.1,1.1-0.2,2.2-0.3,3.4
						c-23.8,9.6-48,18.5-72.4,26.5c0,0-0.1,0-0.1,0c-2.3,0.7-4.6,1.3-6.9,1.9c-3.6,1-7.2,2-10.9,2.9c-0.3,0.1-0.6,0.2-1,0.2
						c-2.8,0.7-5.7,1.5-8.5,2.2l-6.4,1.6c-3,0.8-6.1,1.5-9.1,2.2c-8,1.9-15.9,3.8-23.8,5.6c-2.5,0.6-5.1,1.2-7.6,1.7
						c-3,0.7-6.1,1.3-9.1,2c-0.5,0.1-1.1,0.2-1.6,0.4c-0.3,1.4-0.7,2.8-0.9,4.2c-0.6,0.2-1.1,0.3-1.7,0.4c0.3-1.5,0.7-2.9,1-4.3
						c29.5-131.5,73.2-254.1,105.9-336.3l0,0l1,2.7C3941.2,2787.1,3942.4,2790.6,3943.9,2795z"/>
				</g>
				<g>
					<g class="st62">
						<path class="st81" d="M3943.9,2795c0.7,2.1,1.5,4.3,2.3,6.7c11.2,32.9,30.6,95.7,41.2,161.1c1,6.5,2,13,2.9,19.6
							c0.4,2.8,0.7,5.6,1.1,8.4c0.5,4.2,0.9,8.3,1.3,12.4c2.2,23,2.8,45.6,1.1,66.6c-0.1,1.1-0.2,2.2-0.3,3.4
							c-6.5,2.6-13,5.2-19.6,7.7c0,0-0.1,0.1-0.1,0c-2.7,0.9-5.5,1.7-8.2,2.6l-0.5,0.2c-3,0.9-6,1.9-9,2.8
							c-3.7,1.1-7.4,2.2-11.1,3.3c-6.2,1.9-12.5,3.7-18.7,5.4c-2.1,0.6-4.1,1.2-6.1,1.7c0,0-0.1,0-0.1,0c-2.3,0.7-4.6,1.3-6.9,1.9
							c-3.6,1-7.2,2-10.9,2.9c-0.3,0.1-0.6,0.2-1,0.2c-2.8,0.7-5.7,1.5-8.5,2.2l-6.4,1.6c-3,0.8-6.1,1.5-9.1,2.2
							c-8,1.9-15.9,3.8-23.8,5.6c-2.5,0.6-5.1,1.2-7.6,1.7c-3,0.7-6.1,1.3-9.1,2c-0.5,0.1-1.1,0.2-1.6,0.4c-0.3,1.4-0.7,2.8-0.9,4.2
							c-0.6,0.2-1.1,0.3-1.7,0.4c0.3-1.5,0.7-2.9,1-4.3c-3.8,0.8-7.7,1.6-11.5,2.4c-3.1,0.6-6.2,1.3-9.3,1.8
							c-3.4,0.7-6.7,1.3-10,1.9c-2.3,0.5-4.7,0.9-7,1.3c-3.4,0.6-6.8,1.3-10.2,1.8c-38.2,6.8-75.1,12-109.6,15.6
							c13.9-95,69.8-266,262.1-365.1c0,0,0.5,1.3,1.4,3.8c0.2,0.5,0.4,1.1,0.6,1.7l0.3,1C3941.2,2787.1,3942.4,2790.6,3943.9,2795z"
							/>
					</g>
					<path class="st22" d="M3943.9,2795c0.7,2.1,1.5,4.3,2.3,6.7c11.2,32.9,30.6,95.7,41.2,161.1c1,6.5,2,13,2.9,19.6
						c0.4,2.8,0.7,5.6,1.1,8.4c0.5,4.2,0.9,8.3,1.3,12.4c2.2,23,2.8,45.6,1.1,66.6c-0.1,1.1-0.2,2.2-0.3,3.4
						c-6.5,2.6-13,5.2-19.6,7.7c0,0-0.1,0.1-0.1,0c-2.7,0.9-5.5,1.7-8.2,2.6l-0.5,0.2c-3,0.9-6,1.9-9,2.8c-3.7,1.1-7.4,2.2-11.1,3.3
						c-6.2,1.9-12.5,3.7-18.7,5.4c-2.1,0.6-4.1,1.2-6.1,1.7c0,0-0.1,0-0.1,0c-2.3,0.7-4.6,1.3-6.9,1.9c-3.6,1-7.2,2-10.9,2.9
						c-0.3,0.1-0.6,0.2-1,0.2c-2.8,0.7-5.7,1.5-8.5,2.2l-6.4,1.6c-3,0.8-6.1,1.5-9.1,2.2c-8,1.9-15.9,3.8-23.8,5.6
						c-2.5,0.6-5.1,1.2-7.6,1.7c-3,0.7-6.1,1.3-9.1,2c-0.5,0.1-1.1,0.2-1.6,0.4l0,0c29.6-130.4,72.8-251.7,105.2-333.3
						C3941.2,2787.1,3942.4,2790.6,3943.9,2795z"/>
				</g>
				<g>
					<path class="st5" d="M399.5,2533.8l4.7,43.1c15.5,141.6,115.5,259.5,252.6,298.1l15.9,4.5l-6.8-49.7
						c-17.3-125.9-101.7-232.4-220.2-278.2L399.5,2533.8z"/>
					<path class="st5" d="M811.2,2961.1l-38.4-10.1c-126.1-33.3-260.4,13.1-339.3,117.2l-9.1,12l44.7,10.5
						c113.3,26.6,232.6-10.2,311.5-96.2L811.2,2961.1z"/>
					<path class="st68" d="M399.5,2533.8l4.7,43.1c15.5,141.6,115.5,259.5,252.6,298.1l15.9,4.5l-6.8-49.7
						c-17.3-125.9-101.7-232.4-220.2-278.2L399.5,2533.8z"/>
					<path class="st5" d="M811.2,2961.1l-38.4-10.1c-126.1-33.3-260.4,13.1-339.3,117.2l-9.1,12l44.7,10.5
						c113.3,26.6,232.6-10.2,311.5-96.2L811.2,2961.1z"/>
					<path class="st5" d="M108.1,2816.5l35.3,25.2c115.9,82.7,270.5,86.8,390.6,10.3l13.9-8.9l-41.6-28
						c-105.4-71-241.1-79.1-354.2-21.1L108.1,2816.5z"/>
					<path class="st5" d="M108.1,2816.5l35.3,25.2c115.9,82.7,270.5,86.8,390.6,10.3l13.9-8.9l-41.6-28
						c-105.4-71-241.1-79.1-354.2-21.1L108.1,2816.5z"/>
					<path class="st5" d="M399.5,2533.8l4.7,43.1c15.5,141.6,115.5,259.5,252.6,298.1l15.9,4.5l-6.8-49.7
						c-17.3-125.9-101.7-232.4-220.2-278.2L399.5,2533.8z"/>
					<path class="st5" d="M943.6,3002.8l-7.7,47.8l-12.8-9.8c-60.7-46.4-105-110.4-128.5-181c0-0.1,0-0.1,0-0.2
						c-19.5-58.5-24.7-121.5-13.1-182.6l7.8-41l36.1,33c14.6,13.4,28.1,27.9,40.3,43.2C930.5,2793.9,960,2900.7,943.6,3002.8z"/>
					<path class="st5" d="M811.3,2961.1l-30.7,33.4c-57.3,62.4-135.8,98.9-217.9,104c-31,2-62.5-0.6-93.6-7.9l-44.7-10.5l9.1-12.1
						c54.3-71.7,134.9-116,221-125.8c0,0,0.1,0,0.1,0c38.9-4.4,79-1.8,118.2,8.6L811.3,2961.1z"/>
					<g class="st69">
						<g>
							<path class="st70" d="M1030.6,3169c-4.1-0.6-8.2-1.3-12.3-1.9c-12.7-20.9-26.7-40.6-41.7-59.1l0,0c-2.3-2.9-4.6-5.7-7-8.5
								c-16.7-19.9-34.5-38.4-53.2-55.6c-33.5-31-69.8-57.8-106.8-81.1c-2.1-1.3-4.1-2.6-6.1-3.8c0,0,0,0-0.1,0
								c-67.6-41.8-137.7-71.7-198.7-92.8c-9.2-3.2-18.4-6.2-27.4-9.1c-11.8-3.7-23.4-7.3-34.8-10.5l-0.1,0
								c-14.3-4.2-28.2-7.9-41.6-11.3c-5.1-1.3-10.1-2.5-15-3.7c-96.4-23.2-165.8-28.7-166.8-28.8c-2.6-0.2-4.6-2.5-4.4-5.1
								c0.2-2.6,2.5-4.6,5.1-4.4c1,0.1,68.3,5.4,162.5,27.6c5.6,1.3,11.3,2.7,17.2,4.2c11.6,2.9,23.5,6,35.8,9.5l0,0
								c3.5,0.9,7,2,10.6,3c6.7,1.9,13.6,4,20.5,6.1c3.4,1,6.7,2.1,10.1,3.1c10.3,3.2,20.6,6.6,31.1,10.3l0,0c0,0,0.1,0,0.1,0
								c0,0,0.1,0,0.1,0c15.7,5.4,31.1,11.1,46.1,17l0,0c6.3,2.5,12.5,5,18.6,7.6c64.3,26.6,122.4,57.8,173.4,93.2
								c9.3,6.5,18.4,13.1,27.2,19.9c0,0,0.1,0,0.1,0c15,11.5,29.3,23.4,42.9,35.6c6.8,6.1,13.5,12.4,20,18.7
								c15.8,15.5,30.7,31.6,44.4,48.3c2.4,2.9,4.7,5.7,6.9,8.6C1003.4,3126.3,1017.8,3147.2,1030.6,3169z"/>
						</g>
					</g>
					<path class="st76" d="M400.3,2543l4.7,43.1c15.5,141.6,115.5,259.5,252.6,298.1l15.9,4.5l-6.8-49.7
						c-17.3-125.9-101.7-232.4-220.2-278.2L400.3,2543z"/>
					<path class="st82" d="M943.6,3002.8l-7.7,47.8l-12.8-9.8c-60.7-46.4-105-110.4-128.5-181c0-0.1,0-0.1,0-0.2
						c-14.5-55.3-17.2-113.4-6.5-170.1l8.3-44l38.6,35.3c10.8,9.9,21,20.3,30.6,31.2C930.5,2793.9,960,2900.7,943.6,3002.8z"/>
					<path class="st73" d="M795.3,2962.5l-30.7,33.4c-53.5,58.3-125.6,94-201.9,102.6c-31,2-62.5-0.6-93.6-7.9l-44.7-10.5l9.1-12.1
						c54.3-71.7,134.9-116,221-125.8c0,0,0.1,0,0.1,0c33.8-2.2,68.4,1,102.2,10L795.3,2962.5z"/>
					<path class="st5" d="M108.1,2816.5l35.3,25.2c115.9,82.7,270.5,86.8,390.6,10.3l13.9-8.9l-41.6-28
						c-105.4-71-241.1-79.1-354.2-21.1L108.1,2816.5z"/>
					<path class="st75" d="M108.1,2816.5l35.3,25.2c115.9,82.7,270.5,86.8,390.6,10.3l13.9-8.9l-41.6-28
						c-105.4-71-241.1-79.1-354.2-21.1L108.1,2816.5z"/>
				</g>
				<path class="st5" d="M1454.5,2949.5c1.1,7,2,14,2.8,20.9c1.6,14.2,2.7,28.2,3.1,42c0.1,2.3,0.1,4.6,0.1,6.8c0,2.7,0,5.4,0,8
					c0,1.8,0,3.5,0,5.2c-0.1,3.8-0.2,7.6-0.4,11.4c0,0.9-0.1,1.8-0.1,2.7c-0.1,1.2-0.2,2.5-0.2,3.7c-0.1,1.8-0.2,3.6-0.4,5.4
					c-0.2,3.1-0.5,6.1-0.9,9.1c-0.1,1.2-0.3,2.4-0.4,3.7c-0.2,1.8-0.5,3.6-0.7,5.3c-0.1,0.7-0.2,1.4-0.3,2c-0.4,2.6-0.8,5.2-1.3,7.7
					c-3.3,1.1-6.5,2-9.8,3.1c-4,1.2-7.9,2.4-11.9,3.6c-3.4,1-6.9,2.1-10.3,3.1c-1,0.3-1.9,0.6-2.9,0.9l-0.2,0
					c-8.3,2.5-16.6,5-24.9,7.5c-2.7,0.8-5.4,1.6-8.1,2.4c-2.7,0.8-5.4,1.6-8.1,2.4l-0.3,0.1c-2.9,0.8-5.7,1.7-8.6,2.5l0,0
					c-8,2.3-15.9,4.6-24,6.9c-0.8-0.5-1.6-1-2.4-1.5c-31.3,6.7-62.9,12.6-94.5,17.5c-0.3-0.6-0.5-1.2-0.8-1.8l0,0
					c-0.5-1.1-0.9-2.2-1.4-3.3c-1.7-3.9-3.3-8.1-5.1-12.4c-6.1-15.3-12.3-33-18.1-52.7c-0.9-3.1-1.8-6.3-2.7-9.5
					c-5.3-19.4-10-40.4-13.5-62.8c0,0,0,0,0-0.1c-1.3-8.6-2.5-17.5-3.4-26.5c0,0,0,0,0-0.1c-2.7-26.7-3.5-54.9-1.4-84l0,0
					c0.1-1.4,0.2-2.8,0.3-4.2l0-0.1c2.9-35.9,10.3-73.1,24-110.7c3.4-9.4,7.2-18.9,11.5-28.3l0,0c0.1-0.1,0.1-0.2,0.1-0.3
					c3-6.6,6.1-13.1,9.5-19.7l0,0c0,0,0,0,0,0c2.2-4.3,4.5-8.6,6.9-12.9c0,0,0,0,0,0c6.5-11.6,13.6-23.2,21.5-34.7
					c15.1-22.1,33-44.1,53.9-65.5c0,0,28.1,51,58.1,124.3C1415,2790.2,1442.6,2870.8,1454.5,2949.5z"/>
				<path class="st83" d="M1454.5,2949.5c1.1,7,2,14,2.8,20.9c1.6,14.2,2.7,28.2,3.1,42c0.1,2.3,0.1,4.6,0.1,6.8c0,2.7,0,5.4,0,8
					c0,1.8,0,3.5,0,5.2c-0.1,3.8-0.2,7.6-0.4,11.4c0,0.9-0.1,1.8-0.1,2.7c-0.1,1.2-0.2,2.5-0.2,3.7c-0.1,1.8-0.2,3.6-0.4,5.4
					c-0.2,3.1-0.5,6.1-0.9,9.1c-0.1,1.2-0.3,2.4-0.4,3.7c-0.2,1.8-0.5,3.6-0.7,5.3c-0.1,0.7-0.2,1.4-0.3,2c-0.4,2.6-0.8,5.2-1.3,7.7
					c-3.3,1.1-6.5,2-9.8,3.1c-4,1.2-7.9,2.4-11.9,3.6c-3.4,1-6.9,2.1-10.3,3.1c-1,0.3-1.9,0.6-2.9,0.9l-0.2,0
					c-8.3,2.5-16.6,5-24.9,7.5c-2.7,0.8-5.4,1.6-8.1,2.4c-2.7,0.8-5.4,1.6-8.1,2.4l-0.3,0.1c-2.9,0.8-5.7,1.7-8.6,2.5l0,0
					c-8,2.3-15.9,4.6-24,6.9c-0.8-0.5-1.6-1-2.4-1.5c-31.3,6.7-62.9,12.6-94.5,17.5c-0.3-0.6-0.5-1.2-0.8-1.8l0,0
					c-0.5-1.1-0.9-2.2-1.4-3.3c-1.7-3.9-3.3-8.1-5.1-12.4c-6.1-15.3-12.3-33-18.1-52.7c-0.9-3.1-1.8-6.3-2.7-9.5
					c-5.3-19.4-10-40.4-13.5-62.8c0,0,0,0,0-0.1c-1.3-8.6-2.5-17.5-3.4-26.5c0,0,0,0,0-0.1c-2.7-26.7-3.5-54.9-1.4-84l0,0
					c0.1-1.4,0.2-2.8,0.3-4.2l0-0.1c2.9-35.9,10.3-73.1,24-110.7c3.4-9.4,7.2-18.9,11.5-28.3l0,0c0.1-0.1,0.1-0.2,0.1-0.3
					c3-6.6,6.1-13.1,9.5-19.7l0,0c0,0,0,0,0,0c2.2-4.3,4.5-8.6,6.9-12.9c0,0,0,0,0,0c6.5-11.6,13.6-23.2,21.5-34.7
					c15.1-22.1,33-44.1,53.9-65.5c0,0,28.1,51,58.1,124.3C1415,2790.2,1442.6,2870.8,1454.5,2949.5z"/>
				<path class="st83" d="M1460.4,3032.4c-0.1,3.8-0.2,7.6-0.4,11.4c0,0.9-0.1,1.8-0.1,2.7c-0.1,1.2-0.2,2.5-0.2,3.7
					c-0.1,1.8-0.2,3.6-0.4,5.4c-0.2,3.1-0.5,6.1-0.9,9.1c-0.1,1.2-0.3,2.4-0.4,3.7c-0.2,1.8-0.5,3.6-0.7,5.3c-0.1,0.7-0.2,1.4-0.3,2
					c-0.4,2.6-0.8,5.2-1.3,7.7c-3.3,1.1-6.5,2-9.8,3.1c-4,1.2-7.9,2.4-11.9,3.6c-3.4,1-6.9,2.1-10.3,3.1c-1,0.3-1.9,0.6-2.9,0.9
					l-0.2,0c-8.3,2.5-16.6,5-24.9,7.5c-2.7,0.8-5.4,1.6-8.1,2.4c-2.7,0.8-5.4,1.6-8.1,2.4l-0.3,0.1c-2.9,0.8-5.7,1.7-8.6,2.5l0,0
					c-8,2.3-15.9,4.6-24,6.9c-0.8-0.5-1.6-1-2.4-1.5c-31.3,6.7-62.9,12.6-94.5,17.5c-0.3-0.6-0.5-1.2-0.8-1.8l0,0
					c-0.5-1.1-0.9-2.2-1.4-3.3c-1.7-3.9-3.3-8.1-5.1-12.4c-6.1-15.3-12.3-33-18.1-52.7c-0.9-3.1-1.8-6.3-2.7-9.5
					c-5.3-19.4-10-40.4-13.5-62.8c0,0,0,0,0-0.1c-1.3-8.6-2.5-17.5-3.4-26.5c0,0,0,0,0-0.1c-2.7-26.7-3.5-54.9-1.4-84l0,0
					c0.1-1.4,0.2-2.8,0.3-4.2l0-0.1c2.9-35.9,10.3-73.1,24-110.7c3.4-9.4,7.2-18.9,11.5-28.3l0,0c0.1-0.1,0.1-0.2,0.1-0.3
					c2.1,1.7,4.2,3.5,6.3,5.3c0.5,0.4,1,0.8,1.4,1.2c2.9,2.5,5.8,5,8.7,7.7c3.3,2.9,6.5,5.9,9.6,8.9c1.3,1.2,2.6,2.4,3.9,3.6
					c17.9,17.2,35.1,36.1,51.8,56.2c3.8,4.6,7.6,9.3,11.3,14c1,1.2,1.9,2.4,2.9,3.6c2.5,3.1,4.8,6.2,7.3,9.4l0,0
					c3.4,4.5,6.8,9,10.2,13.6c2.4,3.3,4.9,6.6,7.2,9.9c28.9,40.1,55.4,82.7,78.9,124.3c2.6,4.5,5.1,9,7.6,13.5
					C1451,3015,1455.8,3023.7,1460.4,3032.4z"/>
				<path class="st5" d="M1423.5,3093.1c-1,0.3-1.9,0.6-2.9,0.9l-0.2,0c-8.3,2.5-16.6,5-24.9,7.5c-2.7,0.8-5.4,1.6-8.1,2.4
					c-2.7,0.8-5.4,1.6-8.1,2.4l-0.3,0.1c-2.9,0.8-5.7,1.7-8.6,2.5l0,0c-8,2.3-15.9,4.6-24,6.9c-0.8-0.5-1.6-1-2.4-1.5
					c-31.3,6.7-62.9,12.6-94.5,17.5c-25.4,4-50.8,7.3-76.2,9.9c-4.9-3.2-9.9-6.6-14.9-10.1c-16.2-11.3-30.8-23.6-44.1-36.8
					c-3.7-3.7-7.3-7.5-10.9-11.4c-2.3-2.5-4.6-5.1-6.8-7.7c-2.4-2.7-4.6-5.5-6.8-8.3c-138.9-173-86.4-453.2-86.4-453.2
					c1.6,0.2,3.2,0.4,4.7,0.5c1,0.1,2.1,0.3,3.1,0.4c1.6,0.2,3.1,0.5,4.7,0.7c3.1,0.5,6.2,1.1,9.3,1.8c0.4,0.1,0.8,0.1,1.1,0.2
					c0.4,0.1,0.8,0.2,1.2,0.3c0.8,0.2,1.5,0.4,2.3,0.5c2.3,0.6,4.6,1.1,6.9,1.8c1.2,0.3,2.3,0.7,3.5,1c1.1,0.3,2.3,0.7,3.4,1.1
					c1.5,0.5,3,1,4.6,1.5c0.8,0.3,1.6,0.5,2.4,0.8c0.9,0.3,1.9,0.6,2.8,1c1.3,0.5,2.6,1,3.9,1.5c1,0.4,2,0.8,3,1.2
					c0.6,0.2,1.2,0.5,1.8,0.7c2.6,1,5.1,2.1,7.7,3.3c1.2,0.5,2.3,1.1,3.4,1.6c3.7,1.7,7.3,3.5,11,5.4c1.7,0.9,3.4,1.8,5,2.7
					c1.7,0.9,3.3,1.9,5,2.8c5,2.9,10,5.9,14.9,9.1c1.6,1.1,3.3,2.1,4.9,3.2c2.4,1.6,4.7,3.2,7.1,4.9c1.6,1.1,3.1,2.1,4.6,3.2
					c0.3,0.2,0.6,0.5,1,0.7c1.7,1.2,3.3,2.5,5,3.7c5.9,4.5,11.8,9.1,17.6,14c1.9,1.6,3.8,3.2,5.7,4.9c2.4,2,4.7,4.1,7.1,6.2
					c4.5,4.1,9,8.3,13.5,12.6s8.9,8.7,13.3,13.2c4.4,4.5,8.7,9.1,13.1,13.8c4.3,4.7,8.6,9.5,12.8,14.3c4.2,4.9,8.5,9.8,12.6,14.8
					c3.8,4.6,7.6,9.3,11.3,14c1,1.2,1.9,2.4,2.9,3.6c2.5,3.1,4.8,6.2,7.2,9.4l0,0l0,0c3.4,4.5,6.8,9,10.2,13.6
					c31.7,43,60.6,89.1,86.1,134.2C1377,2994.7,1403.5,3049.1,1423.5,3093.1z"/>
				<path class="st83" d="M1423.5,3093.1c-1,0.3-1.9,0.6-2.9,0.9l-0.2,0c-8.3,2.5-16.6,5-24.9,7.5c-2.7,0.8-5.4,1.6-8.1,2.4
					c-2.7,0.8-5.4,1.6-8.1,2.4l-0.3,0.1c-2.9,0.8-5.7,1.7-8.6,2.5l0,0c-8,2.3-15.9,4.6-24,6.9c-0.8-0.5-1.6-1-2.4-1.5
					c-31.3,6.7-62.9,12.6-94.5,17.5c-25.4,4-50.8,7.3-76.2,9.9c-4.9-3.2-9.9-6.6-14.9-10.1c-16.2-11.3-30.8-23.6-44.1-36.8
					c-3.7-3.7-7.3-7.5-10.9-11.4c-2.3-2.5-4.6-5.1-6.8-7.7c-2.4-2.7-4.6-5.5-6.8-8.3c-138.9-173-86.4-453.2-86.4-453.2
					c1.6,0.2,3.2,0.4,4.7,0.5c1,0.1,2.1,0.3,3.1,0.4c1.6,0.2,3.1,0.5,4.7,0.7c3.1,0.5,6.2,1.1,9.3,1.8c0.4,0.1,0.8,0.1,1.1,0.2
					c0.4,0.1,0.8,0.2,1.2,0.3c0.8,0.2,1.5,0.4,2.3,0.5c2.3,0.6,4.6,1.1,6.9,1.8c1.2,0.3,2.3,0.7,3.5,1c1.1,0.3,2.3,0.7,3.4,1.1
					c1.5,0.5,3,1,4.6,1.5c0.8,0.3,1.6,0.5,2.4,0.8c0.9,0.3,1.9,0.6,2.8,1c1.3,0.5,2.6,1,3.9,1.5c1,0.4,2,0.8,3,1.2
					c0.6,0.2,1.2,0.5,1.8,0.7c2.6,1,5.1,2.1,7.7,3.3c1.2,0.5,2.3,1.1,3.4,1.6c3.7,1.7,7.3,3.5,11,5.4c1.7,0.9,3.4,1.8,5,2.7
					c1.7,0.9,3.3,1.9,5,2.8c5,2.9,10,5.9,14.9,9.1c1.6,1.1,3.3,2.1,4.9,3.2c2.4,1.6,4.7,3.2,7.1,4.9c1.6,1.1,3.1,2.1,4.6,3.2
					c0.3,0.2,0.6,0.5,1,0.7c1.7,1.2,3.3,2.5,5,3.7c5.9,4.5,11.8,9.1,17.6,14c1.9,1.6,3.8,3.2,5.7,4.9c2.4,2,4.7,4.1,7.1,6.2
					c4.5,4.1,9,8.3,13.5,12.6s8.9,8.7,13.3,13.2c4.4,4.5,8.7,9.1,13.1,13.8c4.3,4.7,8.6,9.5,12.8,14.3c4.2,4.9,8.5,9.8,12.6,14.8
					c3.8,4.6,7.6,9.3,11.3,14c1,1.2,1.9,2.4,2.9,3.6c2.5,3.1,4.8,6.2,7.2,9.4l0,0l0,0c3.4,4.5,6.8,9,10.2,13.6
					c31.7,43,60.6,89.1,86.1,134.2C1377,2994.7,1403.5,3049.1,1423.5,3093.1z"/>
				<path class="st5" d="M1423.5,3093.1c-1,0.3-1.9,0.6-2.9,0.9l-0.2,0c-8.3,2.5-16.6,5-24.9,7.5c-2.7,0.8-5.4,1.6-8.1,2.4
					c-2.9,0.8-5.8,1.7-8.7,2.5c-2.8,0.8-5.6,1.6-8.4,2.4l0,0c-8,2.3-15.9,4.6-24,6.9c-0.8-0.5-1.6-1-2.4-1.5
					c-23.6-14.4-46-31.6-67.3-51c-3.7-3.3-7.3-6.7-10.9-10.2c-20.3-19.5-39.5-41-57.7-63.8c-90-112.8-155.2-259.9-196.8-374.1
					c1.6,0.2,3.1,0.5,4.7,0.7c0.3,0,0.6,0.1,0.9,0.2c2.5,0.4,5.1,0.9,7.6,1.5c0.3,0.1,0.6,0.1,0.8,0.2c0.4,0.1,0.8,0.1,1.1,0.2
					c0.4,0.1,0.8,0.2,1.2,0.3c0.8,0.2,1.5,0.4,2.3,0.5c2.3,0.6,4.6,1.1,6.9,1.8c1.2,0.3,2.3,0.7,3.5,1c1.1,0.3,2.3,0.7,3.4,1.1
					c1.5,0.5,3,1,4.6,1.5c0.8,0.3,1.6,0.5,2.4,0.8c0.9,0.3,1.9,0.6,2.8,1c1.3,0.5,2.6,1,3.9,1.5c1,0.4,2,0.8,3,1.2
					c0.6,0.2,1.2,0.5,1.8,0.7c2.6,1,5.1,2.1,7.7,3.3c1.2,0.5,2.3,1.1,3.4,1.6c3.7,1.7,7.3,3.5,11,5.4c1.7,0.9,3.4,1.8,5,2.7
					c1.7,0.9,3.3,1.9,5,2.8c5,2.9,10,5.9,14.9,9.1c1.6,1.1,3.3,2.1,4.9,3.2c2.4,1.6,4.7,3.2,7.1,4.9c1.6,1.1,3.1,2.1,4.6,3.2
					c0.3,0.2,0.6,0.5,1,0.7c1.7,1.2,3.3,2.5,5,3.7c5.9,4.5,11.8,9.1,17.6,14c1.9,1.6,3.8,3.2,5.7,4.9c2.4,2,4.7,4.1,7.1,6.2
					c4.5,4.1,9,8.3,13.5,12.6s8.9,8.7,13.3,13.2c4.4,4.5,8.7,9.1,13.1,13.8c4.3,4.7,8.6,9.5,12.8,14.3c4.2,4.9,8.5,9.8,12.6,14.8
					c3.8,4.6,7.6,9.3,11.3,14c1,1.2,1.9,2.4,2.9,3.6c2.5,3.1,4.8,6.2,7.2,9.4l0,0c3.4,4.5,6.8,9,10.2,13.6
					c31.7,43,60.6,89.1,86.1,134.2C1377,2994.7,1403.5,3049.1,1423.5,3093.1z"/>
				<path class="st84" d="M1423.5,3093.1c-1,0.3-1.9,0.6-2.9,0.9l-0.2,0c-8.3,2.5-16.6,5-24.9,7.5c-2.7,0.8-5.4,1.6-8.1,2.4
					c-2.9,0.8-5.8,1.7-8.7,2.5c-2.8,0.8-5.6,1.6-8.4,2.4l0,0c-8,2.3-15.9,4.6-24,6.9c-0.8-0.5-1.6-1-2.4-1.5
					c-23.6-14.4-46-31.6-67.3-51c-3.7-3.3-7.3-6.7-10.9-10.2c-20.3-19.5-39.5-41-57.7-63.8c-90-112.8-155.2-259.9-196.8-374.1
					c1.6,0.2,3.1,0.5,4.7,0.7c0.3,0,0.6,0.1,0.9,0.2c2.5,0.4,5.1,0.9,7.6,1.5c0.3,0.1,0.6,0.1,0.8,0.2c0.4,0.1,0.8,0.1,1.1,0.2
					c0.4,0.1,0.8,0.2,1.2,0.3c0.8,0.2,1.5,0.4,2.3,0.5c2.3,0.6,4.6,1.1,6.9,1.8c1.2,0.3,2.3,0.7,3.5,1c1.1,0.3,2.3,0.7,3.4,1.1
					c1.5,0.5,3,1,4.6,1.5c0.8,0.3,1.6,0.5,2.4,0.8c0.9,0.3,1.9,0.6,2.8,1c1.3,0.5,2.6,1,3.9,1.5c1,0.4,2,0.8,3,1.2
					c0.6,0.2,1.2,0.5,1.8,0.7c2.6,1,5.1,2.1,7.7,3.3c1.2,0.5,2.3,1.1,3.4,1.6c3.7,1.7,7.3,3.5,11,5.4c1.7,0.9,3.4,1.8,5,2.7
					c1.7,0.9,3.3,1.9,5,2.8c5,2.9,10,5.9,14.9,9.1c1.6,1.1,3.3,2.1,4.9,3.2c2.4,1.6,4.7,3.2,7.1,4.9c1.6,1.1,3.1,2.1,4.6,3.2
					c0.3,0.2,0.6,0.5,1,0.7c1.7,1.2,3.3,2.5,5,3.7c5.9,4.5,11.8,9.1,17.6,14c1.9,1.6,3.8,3.2,5.7,4.9c2.4,2,4.7,4.1,7.1,6.2
					c4.5,4.1,9,8.3,13.5,12.6s8.9,8.7,13.3,13.2c4.4,4.5,8.7,9.1,13.1,13.8c4.3,4.7,8.6,9.5,12.8,14.3c4.2,4.9,8.5,9.8,12.6,14.8
					c3.8,4.6,7.6,9.3,11.3,14c1,1.2,1.9,2.4,2.9,3.6c2.5,3.1,4.8,6.2,7.2,9.4l0,0c3.4,4.5,6.8,9,10.2,13.6
					c31.7,43,60.6,89.1,86.1,134.2C1377,2994.7,1403.5,3049.1,1423.5,3093.1z"/>
			</g>
		</g>
	</g>
</g>
</svg>
