<?xml version="1.0" encoding="utf-8"?>
<!-- Generator: Adobe Illustrator 24.1.0, SVG Export Plug-In . SVG Version: 6.00 Build 0)  -->
<svg version="1.1" id="Capa_1" xmlns="http://www.w3.org/2000/svg" xmlns:xlink="http://www.w3.org/1999/xlink" x="0px" y="0px"
	 viewBox="0 0 5000 3575.6" style="enable-background:new 0 0 5000 3575.6;" xml:space="preserve">
<style type="text/css">
	.st0{fill:url(#SVGID_1_);}
	.st1{fill:#C23825;enable-background:new    ;}
	.st2{opacity:0.8;fill:#C23825;enable-background:new    ;}
	.st3{opacity:0.93;}
	.st4{opacity:0.15;fill:#FFFFFF;enable-background:new    ;}
	.st5{opacity:0.15;}
	.st6{fill:#FFFFFF;}
	.st7{opacity:0.57;fill:#FFFFFF;enable-background:new    ;}
	.st8{opacity:0.47;fill:#FFFFFF;enable-background:new    ;}
	.st9{opacity:0.14;fill:#FFFFFF;enable-background:new    ;}
	.st10{opacity:0.14;}
	.st11{opacity:0.1;}
	.st12{opacity:0.47;}
	.st13{opacity:0.8;}
	.st14{opacity:0.8;fill:#FFFFFF;enable-background:new    ;}
	.st15{fill:#514F4F;}
	.st16{opacity:0.91;fill:#FFFFFF;enable-background:new    ;}
	.st17{opacity:0.65;fill:#FFFFFF;enable-background:new    ;}
	.st18{opacity:0.79;fill:#FFFFFF;enable-background:new    ;}
	.st19{opacity:0.53;fill:#FFFFFF;enable-background:new    ;}
	.st20{fill:#4F2C3E;}
	.st21{opacity:0.32;fill:#020E49;enable-background:new    ;}
	.st22{opacity:0.64;fill:#020E49;enable-background:new    ;}
	.st23{fill:none;stroke:#000000;stroke-miterlimit:10;}
	.st24{fill:#F8BBC2;}
	.st25{fill:#353535;}
	.st26{fill:#1E1E1E;}
	.st27{opacity:0.78;fill:#FE7101;enable-background:new    ;}
	.st28{opacity:0.75;fill:#E8635D;enable-background:new    ;}
	.st29{opacity:0.3;fill:#E8635D;enable-background:new    ;}
	.st30{opacity:0.3;fill:#FE8796;enable-background:new    ;}
	.st31{opacity:0.67;}
	.st32{fill:#E8635D;}
	.st33{opacity:0.28;fill:#EFC2C2;enable-background:new    ;}
	.st34{opacity:0.39;fill:#FE7101;enable-background:new    ;}
	.st35{fill:#FE7101;}
	.st36{opacity:0.82;fill:#FE7101;enable-background:new    ;}
	.st37{opacity:0.63;fill:#FFFFFF;enable-background:new    ;}
	.st38{opacity:0.57;fill:#FE7101;enable-background:new    ;}
	.st39{opacity:0.44;fill:#FE7101;enable-background:new    ;}
	.st40{fill:url(#SVGID_2_);}
	.st41{fill:url(#SVGID_3_);}
	.st42{opacity:0.42;fill:#FE7101;enable-background:new    ;}
	.st43{clip-path:url(#SVGID_5_);}
	.st44{opacity:0.68;}
	.st45{opacity:0.11;fill:#FFFFFF;enable-background:new    ;}
	.st46{opacity:0.14;fill:#1F60E5;enable-background:new    ;}
	.st47{fill:#28007A;}
	.st48{fill:#7C7C7C;}
	.st49{fill:#2D1D2C;}
	.st50{opacity:0.68;clip-path:url(#SVGID_7_);}
	.st51{opacity:0.43;fill:#FE7101;enable-background:new    ;}
	.st52{opacity:0.28;fill:#FE7101;enable-background:new    ;}
	.st53{opacity:0.53;fill:#FE7101;enable-background:new    ;}
	.st54{opacity:0.17;fill:#03157A;enable-background:new    ;}
	.st55{opacity:0.72;fill:#FFFFFF;enable-background:new    ;}
	.st56{opacity:0.87;fill:#FFFFFF;enable-background:new    ;}
	.st57{opacity:0.51;}
	.st58{opacity:0.78;enable-background:new    ;}
	.st59{opacity:0.17;fill:#FFFFFF;enable-background:new    ;}
	.st60{opacity:0.7;}
	.st61{fill:url(#SVGID_8_);}
	.st62{fill:url(#SVGID_9_);}
	.st63{opacity:0.54;fill:#FFFFFF;enable-background:new    ;}
	.st64{opacity:0.78;}
	.st65{opacity:0.69;fill:#FE7101;enable-background:new    ;}
	.st66{opacity:0.45;fill:#FE7101;enable-background:new    ;}
	.st67{fill:none;stroke:#FFB600;stroke-miterlimit:10;}
	.st68{opacity:0.61;}
	.st69{opacity:0.42;}
	.st70{opacity:0.56;fill:#FFFFFF;enable-background:new    ;}
	.st71{fill:#FFB600;}
	.st72{opacity:0.5;fill:#FE7101;enable-background:new    ;}
	.st73{opacity:0.17;fill:#FE7101;enable-background:new    ;}
	.st74{opacity:0.67;fill:#FFB600;enable-background:new    ;}
	.st75{opacity:0.29;fill:#FFB600;enable-background:new    ;}
	.st76{opacity:0.35;fill:#FFB600;enable-background:new    ;}
	.st77{opacity:0.72;fill:#FFB600;enable-background:new    ;}
	.st78{opacity:0.54;fill:#FFB600;enable-background:new    ;}
	.st79{opacity:0.8;fill:#F32735;enable-background:new    ;}
	.st80{fill:#3F3F3F;}
	.st81{fill:#E01B07;}
	.st82{fill:#771704;}
	.st83{fill:#054CE2;}
</style>
<g>
	<g>
		
			<linearGradient id="SVGID_1_" gradientUnits="userSpaceOnUse" x1="3492.3999" y1="2192.1001" x2="3492.3999" y2="2192.1001" gradientTransform="matrix(1 0 0 -1 0 3576)">
			<stop  offset="0" style="stop-color:#FFFFFF"/>
			<stop  offset="1" style="stop-color:#FFFFFF;stop-opacity:0"/>
		</linearGradient>
		<path class="st0" d="M3492.4,1383.9"/>
		<g>
			<path class="st1" d="M4649.7,2616.7c-7.6,14.2-15.7,28.2-24.4,41.9c-2.3,3.6-4.6,7.2-7,10.7c-16.2,24.5-34,48-53.4,70.2
				c-6.8,7.8-13.9,15.5-21.1,23c-21.5,22.3-44,43.1-67.3,62.4c-0.9,0.7-1.8,1.5-2.7,2.2c-39.4,32.4-81.3,60.7-125,85.5
				c-1.9,1.1-3.8,2.2-5.7,3.2c-35.8,20-72.9,37.6-111,53.1l0,0c-4.6,1.9-9.2,3.7-13.8,5.5c-2.7,1.1-5.4,2.2-8.2,3.2c0,0,0,0-0.1,0
				c-31.7,12.1-64,22.9-96.9,32.5l0,0c-14.9,4.4-29.9,8.5-45.1,12.3l-8.6,2.2c-12.7,3.1-25.4,5.9-38,8.5c-4.4,0.9-8.9,1.8-13.3,2.6
				c-53.9,10-107.4,15-160.7,16.1c-53.4,1.1-106.5-1.6-159.4-7.2c-275.1-28.8-546.2-132.3-827.1-152.8
				c-288.2-21.1-585.1,14-846.1,143.4c-208.9,103.6-407.4,179.7-614.2,195.8h-0.4c-0.6,0.1-1.2,0.1-1.8,0.1c0,0,0,0,0-0.1
				c-12.2,0.4-24.4,0.8-36.6,1c-26.6,0.4-53.2,0.2-79.7-0.7c0.1,0.1,0.1,0.1,0.2,0.2c3.9,0.2,7.8,0.5,11.7,0.7
				c-3.9-0.2-7.8-0.4-11.7-0.7c-0.4,0-0.8-0.1-1.2-0.1c-3.6-0.2-7.3-0.4-10.9-0.7h-0.1c-27.8-1.2-55.6-3.2-83.2-6.2
				c-0.2,0-0.4,0-0.5-0.1c-2.2-0.1-4.4-0.4-6.6-0.5c-2.6-0.2-5.3-0.4-7.9-0.7c-0.1,0-0.3,0-0.4,0c-4.6-0.7-9.2-1.4-13.8-2.2
				c-11.1-1.8-22.3-3.7-33.5-5.9l0,0c-37.1-7.2-74.6-16.5-112.7-28.2c0,0,0,0-0.1,0c-3.3-1-6.6-2-9.8-3.1
				c-21.3-6.7-42.7-14.1-64.3-22.3c-27.2-10.3-54.1-22.3-80.5-35.9c-4-2-7.9-4.1-11.8-6.3c-51.5-27.6-100.7-61.4-145.2-100.3
				c-2-1.8-4.1-3.6-6.1-5.4c-36.1-32.1-69-67.6-97.5-105.9l0,0c-24.9-33.5-46.4-69.1-63.6-106.4c-3.1-6.6-6-13.3-8.8-20.1
				c-1.7-4.1-3.3-8.2-4.9-12.3c-2-5.2-3.9-10.4-5.7-15.6c-0.2-0.4-0.3-0.9-0.5-1.4c-4.6-13.5-8.7-27.1-12.2-40.9l0,0
				c-1.2-4.9-2.4-9.8-3.5-14.7c0-0.1,0-0.1,0-0.1c-0.4-1.9-0.8-3.8-1.2-5.7c-1.2-5.7-2.2-11.4-3.2-17.2c-1.4-8.3-2.4-16.5-3-24.7
				c-0.1-1-0.2-2-0.2-3c-3.3-48.5,6.2-95,21.7-140.3c0.9-2.6,1.8-5.2,2.7-7.8c1.1-3.1,2.2-6.2,3.4-9.3c1.3-3.4,2.6-6.8,3.9-10.2
				c50.4-127.6,139.6-247.5,117.3-381c-0.2-1-0.3-2-0.5-3c-1.3-7.6-3.1-15.2-5.2-22.8c-2.2-8.1-4.7-16-7.6-23.8c-0.3-1-0.7-2-1.1-3
				c-50-135.4-184.4-221-268-336c-8-11-15.5-22.1-22.5-33.4c-67.3-107.2-92.4-226.6-59.8-352.7c45.9-177.8,194.4-337,394.3-325.9
				c68.6,3.8,137.2,22.2,205.3,12.8c62.9-8.7,120.1-40.7,171.2-77.6c51.9-37.5,99.3-80.9,141.3-128.9c2.9-3.3,5.8-6.6,8.6-10
				c5.5-6.4,10.8-12.9,16.1-19.4c1.1-1.3,2.1-2.6,3.1-3.9c13.3-16.9,26-34.3,37.9-52.1c2.9-4.3,5.8-8.7,8.6-13
				c6.4-9.9,12.5-19.9,18.5-30c13.6-23.2,26.1-47,37.4-71.4c4.5-9.7,8.8-19.4,12.9-29.3c3.6-8.6,7-17.3,10.3-26
				c29-77.2,53.4-158.6,88.4-233.5c27.8-59.8,62.4-115.4,111.1-161.1c4.3-4.1,8.8-8,13.3-12c0.3-0.3,0.7-0.6,1-0.8
				c4.3-3.7,8.8-7.3,13.3-10.8c11.9-9.3,24.6-18,38.2-26.2c3.6-2.2,7.2-4.3,10.8-6.3c1.3-0.7,2.5-1.4,3.8-2.1
				c128.3-69.1,265-35.6,391.2,29.3c133.4,68.7,248.6,164.5,390.8,214.5c13.1,4.6,26.4,8.8,39.9,12.6c0.6,0.2,1.2,0.3,1.8,0.5
				c9,2.5,18,4.8,27.1,7c33.8,8.2,68.1,14.5,102.8,19c10.7,1.4,21.4,2.6,32.1,3.6c54.3,5.2,109.2,5.8,163.7,2.1
				c3.1-0.2,6.3-0.4,9.4-0.7c22-1.7,43.9-4.1,65.7-7.2c16.2-2.3,32.3-4.9,48.3-8c15.6-3,31.1-6.3,46.5-10
				c154.6-37.1,315.8-110.4,474.5-50.6c156.1,58.8,228.9,199.3,263.4,350.6c2.2,9.6,4.1,19.2,5.9,28.8c3.4,18.3,6.1,36.7,8.6,55.2
				c10,73.4,16.3,147.5,43.2,217.8c63.4,165.2,192.2,203,342.4,208.7c37.9,1.4,77.3,0.8,117.3-0.3c121.4-3.4,263.3,17.6,323.3,120.8
				c24.9,42.8,31.6,87,28.9,132.1c-1.1,18.3-3.8,36.7-7.4,55.2c-22.1,112.4-80.3,228.6-44.7,340.8
				c28.2,88.9,100.6,156.6,151.3,235.4C4756.3,2225.3,4743.5,2441.1,4649.7,2616.7z"/>
			<path class="st2" d="M3893.3,1019.5c23.7,13.8,57.1,22.2,75,0.9c13.5-16.2,10.1-41.9-0.7-60.1c-10.8-18.3-27.4-31.9-40.7-48.3
				c-59.1-72.7-9.6-120.3-15.7-194.9c-5.5-66.3-80.1-91.3-124.6-44.2C3693.8,771.2,3804.2,967.3,3893.3,1019.5z"/>
			<path class="st2" d="M4566.3,1893.5c8.1,15.9,18.8,31.4,34.5,38.8s37,4,45.8-11.5c8.4-14.7,2.8-33.7-4.7-48.9
				c-13.7-27.8-34-53.5-36.9-84.6c-3.9-42,110.2-182.2,5.4-137.9C4530.9,1682.8,4533.5,1829.1,4566.3,1893.5z"/>
			<path class="st2" d="M459.6,2133.3c-5,26.4-19.8,49.2-28.5,74.4c-8.6,25.2-9.4,57.7,9.4,75.1c25.9,24.1,67.1,0.9,85.4-30.5
				c26-44.6,28.2-102.3,14.9-153.2c-7.7-29.6-108.1-245.4-154.3-178.1C366.8,1949.6,470,2078.8,459.6,2133.3z"/>
			<path class="st2" d="M1100.2,428.9c2.8,21.7,16.1,41,33.7,52.8s38.9,16.6,59.8,16.1c30.2-0.8,60.8-13.1,80.5-37
				s26.6-59.9,13.4-88.3c-5-10.8-12.6-20.1-21.1-28.1C1201.9,284,1087.6,330.9,1100.2,428.9z"/>
		</g>
		<g>
			<g class="st3">
				<path class="st4" d="M2759.7,386.3l-130.8,337.8c-1.7,4.5-6.7,6.7-11,4.9l-125.6-53.2c-4.3-1.8-6.4-7-4.7-11.5L2596,384.1
					C2650.3,389.3,2705.2,390,2759.7,386.3z"/>
				<g class="st5">
					<path class="st6" d="M1836.6,995.2V903c0-1.6-1.3-3-2.8-3l-514.2,0.1c-1.6,0-2.8,1.3-2.8,3v92.2c0,1.6,1.3,3,2.8,3l514.2-0.1
						C1835.4,998.2,1836.6,996.8,1836.6,995.2z"/>
					<path class="st7" d="M1320.7,1222.2l-0.1-225c0-1.6,1.3-3,3-3l439.7-0.1c1.6,0,3,1.3,3,3l0.1,225c0,1.6-1.3,3-3,3l-439.7,0.1
						C1322.1,1225.1,1320.7,1223.8,1320.7,1222.2z"/>
					<path class="st6" d="M1305.1,1408.1v-192.3c0-1.6,1.3-3,3-3l594.1-0.2c1.6,0,3,1.3,3,3v192.3c0,1.6-1.3,3-3,3l-594.1,0.2
						C1306.5,1411.1,1305.1,1409.7,1305.1,1408.1z"/>
					<path class="st6" d="M1691.8,1159.9c7.5-37.2,0.9-80.9-0.4-118.8c-0.2-7-10.1-7-10.4,0c-1.3,37.9-7.9,81.6-0.4,118.8
						C1681.9,1166.1,1690.5,1166.1,1691.8,1159.9z"/>
					<path class="st6" d="M1639.7,1159.9c7.5-37.2,0.9-80.9-0.4-118.8c-0.2-7-10.1-7-10.4,0c-1.3,37.9-7.9,81.6-0.4,118.8
						C1629.7,1166.1,1638.4,1166.1,1639.7,1159.9z"/>
					<path class="st6" d="M1587.5,1159.9c7.5-37.2,0.9-80.9-0.4-118.8c-0.2-7-10.1-7-10.4,0c-1.3,37.9-7.9,81.6-0.4,118.8
						C1577.6,1166.1,1586.3,1166.1,1587.5,1159.9z"/>
				</g>
				<path class="st8" d="M4143.3,1402.4l-679.2,0.1h-183.7h-227.1H2835l-0.3-1024.1c-21.8,3.1-43.7,5.5-65.7,7.2l0.1,356.9
					l-390.5,0.1l-270.1,0.1l-857.2,0.2v-35.8c-14.4,22.4-29.9,44.2-46.5,65.2c-1,1.3-2.1,2.6-3.1,3.9c-5.2,6.6-10.6,13-16.1,19.4v7
					l0.1,600.3L923,1403v49.6l262.7-0.1l0.1,595.1H625.3h-9.6c3.2,8.7,6.1,17.6,8.6,26.8c2.1,7.7,3.8,15.3,5.2,22.8h9.1h547.3
					l0.1,171.7h65.7v-171.7l975.3-0.2l542.5-0.1l0.1,171.7h65.7l-0.2-816.4h39.1h438.4l845-0.1h311.3v-49.6L4143.3,1402.4z
					 M2152.9,2047.4l-321.5,0.1h-78.9h-76.7h-128.4h-31h-143h-121.7l-0.1-595.1l343.8-0.1l1174.1-0.3l0.1,595.1L2152.9,2047.4z
					 M1905.1,1402.7l-274,0.1l-326,0.1h-53.6l-0.1-610.4l821.3-0.2l318.9-0.1l377.6-0.1l0.2,610.4l-204.8,0.1L1905.1,1402.7z"/>
				<path class="st4" d="M2563.9,380.6l-229.8,330.8c-2.2,3.2-6.4,3.9-9.5,1.6l-64.9-49.3c-3-2.3-3.7-6.8-1.5-9.9l202.9-292.1
					C2494.9,369.8,2529.3,376.1,2563.9,380.6z"/>
				<path class="st9" d="M1832.3,2059.4l-60.7,26.4c-1.8,0.8-3.9-0.1-4.6-2l-177.3-444.7c-0.8-1.9,0.1-4,1.9-4.8l60.7-26.4
					c1.8-0.8,3.9,0.1,4.6,2l177.3,444.7C1835,2056.5,1834.1,2058.7,1832.3,2059.4z"/>
				<g class="st10">
					<path class="st6" d="M1515.5,2064.2l-132.2,23c-1.9,0.3-3.7-1-4.1-3l-85.9-540.2c-0.3-2,1-3.9,2.9-4.2l132.2-23
						c1.9-0.3,3.7,1,4.1,3l85.9,540.2C1518.7,2061.9,1517.4,2063.8,1515.5,2064.2z"/>
					<path class="st6" d="M1408,1576.7c-23.6-4.1-49,5.5-71.9,9.6c-5.4,0.9-7.2,7.4-6.3,13.4c0.9,6,4.6,11.5,10.1,10.5
						c23-3.9,49.9-3.4,71-15.3C1416.9,1591.5,1414.7,1577.9,1408,1576.7z"/>
					<path class="st6" d="M1440.3,1779.8c-23.6-4.1-49,5.5-71.9,9.6c-5.4,0.9-7.2,7.4-6.3,13.4c0.9,6,4.6,11.5,10.1,10.5
						c23-3.9,49.9-3.4,71-15.3C1449.2,1794.6,1447,1781,1440.3,1779.8z"/>
					
						<ellipse transform="matrix(0.9898 -0.1428 0.1428 0.9898 -227.4617 215.5816)" class="st6" cx="1388.3" cy="1692.6" rx="17.4" ry="24.6"/>
				</g>
				<g class="st11">
					<path class="st6" d="M1674.4,2052.5l-115.9,28.4c-1.9,0.5-3.8-0.8-4.2-2.8l-98.6-439.8c-0.4-2,0.7-4,2.6-4.4l115.9-28.4
						c1.9-0.5,3.8,0.8,4.2,2.8l98.6,439.8C1677.5,2050.1,1676.3,2052.1,1674.4,2052.5z"/>
					<path class="st6" d="M1531.9,1679.9c-8.3,2-11.9,18.5-7.9,36.2s14.2,30.8,22.5,28.8s11.9-18.5,7.9-36.2
						C1550.4,1691,1540.2,1677.9,1531.9,1679.9z"/>
					<path class="st6" d="M1586.9,1808.4c-11.2,1.7-22.1,4.7-33.1,7.2c-9.9,2.3-20.3,2.8-28.9,10.1c-4.2,3.6-0.7,19.3,4.6,20.5
						c10.8,2.5,20.3-1.8,30.2-4.4c10.9-2.9,22-5.3,32.7-8.9c3.9-0.5,4.3-7.3,2.8-13.6C1593.8,1812.9,1590.6,1807.1,1586.9,1808.4z"
						/>
				</g>
			</g>
			<g class="st12">
				<path class="st8" d="M1840.3,400.8c0,172.6-136.1,312.5-303.9,312.5c-91.6,0-173.6-41.6-229.3-107.5c4.5-9.7,8.8-19.4,12.9-29.3
					c3.6-8.6,7-17.3,10.3-26c29-77.2,53.4-158.6,88.4-233.5c27.8-59.8,62.4-115.4,111.1-161.1c4.3-4.1,8.8-8,13.3-12
					c0.3-0.3,0.7-0.6,1-0.8c4.3-3.7,8.8-7.3,13.3-10.8c11.9-9.3,24.6-18,38.2-26.2c3.6-2.2,7.2-4.3,10.8-6.3
					c1.3-0.7,2.5-1.4,3.8-2.1C1742.5,131.5,1840.3,254.4,1840.3,400.8z"/>
				<g class="st13">
					<g>
						<rect x="1529.8" y="638.2" class="st6" width="13.4" height="57.6"/>
						<path class="st6" d="M1543.1,143.8v21.3h-13.3v-9.3C1534.1,151.7,1538.6,147.7,1543.1,143.8z"/>
					</g>
				</g>
				<g class="st13">
					<g>
						<polygon class="st6" points="1817.8,408.6 1817.8,394.7 1762.7,394.7 1762.7,408.6 						"/>
					</g>
				</g>
				<g class="st13">
					<g>
						<polygon class="st6" points="1730.7,614.6 1740.1,604.7 1701.2,564 1691.7,573.8 						"/>
					</g>
				</g>
				<g class="st13">
					<g>
						<polygon class="st6" points="1691.7,229.4 1701.1,239.3 1740.1,198.6 1730.6,188.7 						"/>
						<polygon class="st6" points="1332.8,604.7 1342.2,614.6 1381.2,573.8 1371.8,564 						"/>
					</g>
				</g>
				<rect x="1521.4" y="271" class="st14" width="30.1" height="135.7"/>
				<polygon class="st14" points="1658.9,538.3 1674.8,521.7 1543.6,384.5 1527.8,401.1 				"/>
			</g>
		</g>
		<g>
			<path class="st15" d="M1582.3,1579.5c-27.5,28-24.8,82.2,6.5,105.4c31.3,23.3,82.7,6.3,93.8-32.1c11.1-38.4-25.3-83.1-63.1-75.9
				c-13.2,2.5-24.9,9.9-36.4,17.2"/>
			<ellipse class="st16" cx="2359.8" cy="1320.3" rx="158.6" ry="165.8"/>
			<g>
				<ellipse class="st17" cx="4375.2" cy="1988.6" rx="33.7" ry="35.2"/>
			</g>
			<g>
				<ellipse class="st16" cx="2089.2" cy="528.9" rx="44" ry="46"/>
				<ellipse class="st18" cx="1879.2" cy="619.9" rx="11" ry="11.5"/>
			</g>
		</g>
		<ellipse class="st18" cx="1023" cy="1897.8" rx="11" ry="11.5"/>
		<g>
			<ellipse class="st19" cx="1154.3" cy="1752.9" rx="102.7" ry="107.4"/>
		</g>
		<g>
			<path class="st20" d="M3548.8,1328c-20.5,30.5-49.4,55-84.7,74.4c-42.3,23.3-94,39.3-151.6,49.6c-128.3,22.8-286.4,17.2-438.4,0
				c-111.2-12.6-219-31.3-309.5-49.5c-143.4-28.9-243.2-56.6-243.2-56.6s220.3-239.3,125.9-415.8c-24.5-45.8-42.5-93.1-55.6-137.9
				c-5-17-9.3-33.6-13-49.6c-6.2-26.9-10.7-52.3-14-75.1c-9.6-66.3-9-111.3-9-111.3s-0.5-20.4,5.5-50.6
				c8.3-42.2,29.2-103.5,81.5-154c41.9-40.5,104.1-74.2,196.3-85.6c99.7-12.4,185.8,28.7,252.7,101.4c5.8,6.3,11.4,12.7,16.8,19.4
				c78.9,96.8,103,241.1,232.1,283.4c163.6,53.7,341.1,26.7,435.5,211C3646.7,1019.3,3634.8,1200.1,3548.8,1328z"/>
			<path class="st21" d="M2520.2,991.4l-0.4,4.3c-10.9,107.9-55.2,209-126.2,288.1l-25,27.8l970,128.6c0,0,100.1-281.2-60.1-433.8
				c-65.6-62.4-151.5-94.3-235.4-119.3c-68.8-20.5-152.9-48.2-180.2-126.6c-6.8-19.5-9.4-40.4-16.7-59.6"/>
			<path class="st22" d="M2508.3,1004.8c47,71,51.8,163.6,12.3,239.5l-29,55.8l595.7,10.6c8.7,0.2,55.6-98.8,58.4-113.1
				c11-55.4-40.5-113.5-79.9-141.9c-50-35.9-109.2-56.1-158.1-93.5c-36.6-28-152-156.5-100.2-203.5
				c-48.5,45.4-96.4,91.4-145.8,135.8C2651.5,903.4,2511.7,1020.6,2508.3,1004.8C2508.3,1004.9,2508.3,1004.9,2508.3,1004.8z"/>
			<rect x="2621.8" y="2420" class="st23" width="254.7" height="59.8"/>
			<path class="st24" d="M2854.6,731.8c-0.8,13.6-3.8,27.1-9,39.9c-3.2,8-7,17.2-11.4,27.4c-7.1,16.5-15.7,35.5-25.6,55.6
				c-0.2,0.4-0.4,0.8-0.6,1.2c-18.4,37.5-41.3,79-67.4,116.1c-35,49.8-75.9,91.6-119.7,105.3c-3.5,1.1-7,2-10.6,2.7
				c-2.4,0.5-4.8,0.9-7.3,1.2c-79.5,10.2-144.3-36.4-185.5-78.7c-27.3-28-45.2-64.5-51.2-104c-5.4-35.2-18-80.8-30.8-121.9
				c-1.7-5.5-3.4-11-5.2-16.3c32.8-7.5,70.8-27,113.9-60.6c13.6-10.6,26.7-20,39.4-28.3c3.3-2.2,6.6-4.2,9.8-6.3c1.6-1,3.2-2,4.8-3
				c1.9-1.2,3.8-2.3,5.7-3.4c2.2-1.3,4.4-2.6,6.6-3.8c2.2-1.2,4.3-2.4,6.5-3.6c1-0.5,2-1,3-1.6c3.6-1.9,7.1-3.7,10.6-5.4
				c3-1.4,5.9-2.8,8.8-4.1c1.5-0.7,3-1.3,4.5-2c1.4-0.5,2.7-1.1,4.1-1.7c1.6-0.7,3.1-1.3,4.7-1.9c2.5-1,5-1.9,7.4-2.7
				c1.5-0.5,3.1-1,4.6-1.5c1.2-0.4,2.4-0.8,3.6-1.1c1.9-0.6,3.7-1.1,5.5-1.6c1-0.3,2-0.5,3-0.8c2.7-0.7,5.5-1.4,8.2-1.9
				c0.8-0.2,1.6-0.4,2.4-0.5c1.1-0.2,2.3-0.4,3.4-0.6c1.5-0.3,2.9-0.5,4.4-0.7c1-0.1,2.1-0.3,3.1-0.4c1-0.1,2-0.3,2.9-0.4
				c1.1-0.1,2.1-0.2,3.1-0.3c1.3-0.1,2.7-0.2,4-0.3c1.7-0.1,3.4-0.2,5-0.2c1.4,0,2.7-0.1,4.1-0.1c3.7,0,7.4,0.1,10.9,0.5
				c0.7,0,1.4,0.1,2,0.2c3.1,0.3,6.1,0.7,9,1.3c0.7,0.1,1.4,0.3,2.1,0.4c0.4,0.1,0.7,0.1,1.1,0.2c1,0.2,2,0.4,3,0.7
				c5.8,1.4,11.3,3.2,16.6,5.4c0.9,0.4,1.8,0.7,2.7,1.2c1.8,0.8,3.5,1.6,5.2,2.5c0.9,0.4,1.7,0.9,2.5,1.4c0.9,0.5,1.7,1,2.5,1.4
				c0.9,0.5,1.7,1,2.5,1.5s1.7,1,2.5,1.6c0.8,0.5,1.6,1.1,2.4,1.6c1.6,1.1,3.2,2.3,4.7,3.5c1.9,1.5,3.8,3.1,5.7,4.7
				c1.9,1.6,3.7,3.3,5.4,5.1c0.7,0.7,1.4,1.4,2.1,2.1c0.7,0.7,1.4,1.4,2.1,2.2c1.6,1.7,3.1,3.5,4.7,5.2c1.4,1.7,2.8,3.4,4.1,5.1
				c0.2,0.3,0.4,0.6,0.7,0.9c0.6,0.8,1.2,1.6,1.8,2.5c1.4,1.9,2.8,3.9,4.1,5.8c0.6,1,1.3,2,1.9,3c1.9,2.9,3.7,5.9,5.4,9
				c1.8,3.1,3.5,6.3,5.1,9.5c0,0,0,0.1,0.1,0.1c8.4,16.6,15.2,35.3,20.7,55.6c0.2,0.8,0.5,1.7,0.7,2.5c0.5-1,1.1-2.1,1.7-3.2
				c1.6-3,3.2-6,4.6-9v-0.1c2.8-6.2,3.2-12.8,5.1-19.4c0-0.1,0.1-0.2,0.1-0.4c3.3-11.5,8.7-22.5,14.4-32.7c0.9-1.6,1.8-3.3,2.8-4.9
				c1.2-2.2,2.5-4.6,3.7-7.2c0.1-0.1,0.1-0.1,0.1-0.2l0,0c0.9-1.8,1.8-3.7,2.7-5.6c0.4-0.7,0.8-1.5,1.2-2.3c0.8-1.5,1.7-3.1,2.5-4.6
				c0.3-0.6,0.7-1.1,1-1.7c0.6-0.9,1.2-1.8,1.8-2.7c0.5-0.7,1-1.4,1.5-2.1c0.5-0.7,1.1-1.4,1.6-2s1-1.2,1.6-1.7
				c0.5-0.5,1.1-1,1.6-1.5c0.1,0,0.1-0.1,0.2-0.1c0.6-0.5,1.2-1,1.8-1.4c2.2-1.6,4.5-2.7,7.2-3.3c19.3-4.2,32.5,16.1,38.5,32.1
				C2853.3,699.5,2855.5,715.7,2854.6,731.8z"/>
			<path class="st24" d="M2539.5,640.4c-2.9,1.3-5.9,2.7-8.8,4.1C2533.7,643,2536.6,641.7,2539.5,640.4z"/>
			<path class="st24" d="M2784.5,681.1c-0.1,0.1-0.1,0.1-0.1,0.2C2784.4,681.2,2784.4,681.1,2784.5,681.1L2784.5,681.1z"/>
			<path class="st24" d="M2763.3,736l-11.3,22.1c-34.3-131.6-127.3-198.9-307.6-58.3c-43.1,33.6-81.1,53-113.9,60.6
				c-15.9-49.6-30.6-89-30.6-89l105.9-101.7l349.1-50.9C2754.8,518.8,2762.2,727.4,2763.3,736z"/>
			<path class="st24" d="M2936.5,1223.3l-131.6,194.5c0,0-188.8-86.8-183.1-128.6c0.8-5.6-0.1-99.3-0.5-177.6c0-8.6-0.1-17-0.1-25
				c0-3.1,0-6.2-0.1-9.3c0-5.7,0-11.3,0-16.5c0-31.4,0.1-53.8,0.7-55.8c0,0,60.1-117.8,111.5-186.2c35.5-47.2,66.8-70.8,71.1-15.8
				c0.3,3.2,0.4,6.7,0.5,10.5c0.1,8.7,0.7,17.7,1.5,27c0.5,5.1,1,10.3,1.7,15.5c1.2,9.8,2.8,19.7,4.7,29.8
				c10.9,58.8,31.4,121.8,52.7,177.3C2900.1,1153.1,2936.5,1223.3,2936.5,1223.3z"/>
			<path class="st20" d="M2804.4,653.2c-0.3,0.1-0.6,0.1-0.9,0.2c0,0-0.5,0.7-1.5,2c-0.6,0.4-1.2,0.9-1.8,1.4
				c-0.1,0-0.1,0.1-0.2,0.1c-0.5,0.5-1.1,1-1.6,1.5s-1.1,1.1-1.6,1.7c-0.6,0.6-1.1,1.3-1.6,2s-1,1.3-1.5,2.1
				c-0.6,0.9-1.2,1.8-1.8,2.7c-0.3,0.5-0.7,1.1-1,1.7c-0.9,1.5-1.7,3.1-2.5,4.6c-0.4,0.8-0.8,1.5-1.2,2.3c-2.3,4.7-4.5,9.2-6.6,13
				c-0.9,1.6-1.9,3.3-2.8,4.9c-5.8,10.3-11.2,21.4-14.5,33c-1.9,6.6-2.3,13.2-5.1,19.4v0.1l-6.3,12.2c-10.6-40.5-26.7-75-49.3-99.1
				c-45.1-48.3-115.9-55.4-218.9,12.4c-1.3,0.9-2.7,1.8-4.1,2.7c-0.2,0.1-0.5,0.3-0.7,0.5l0,0l0,0c-11.1,7.5-22.7,15.9-34.5,25.1
				c-43.1,33.6-81.1,53-113.9,60.6c-5.7,1.3-11.2,2.3-16.5,2.9c-93.1,10.6-138.2-82.6-130-216c11.4-185.5,306.2-197.4,306.2-197.4
				L2752,462L2804.4,653.2z"/>
			<path class="st15" d="M3892.2,2072.9L3258,2377.4l-26.5,12.7l-6,2.9c0,0-4.9-11.2-15.2-27.5c0,0,0-0.1-0.1-0.1
				c-7.8-12.3-18.6-27.5-32.7-43c-1.7-1.9-3.6-3.9-5.4-5.9c0.1-6.8,0.2-13.8,0.3-20.8c0.9-41.9,3.1-87.4,6.2-134.3
				c18.2-14.6,37.4-30.1,56.6-46c85-70.5,169.1-147.1,164.8-171.1c-1.2-6.9-2.3-13-3.2-18.4c-5.4-31.9-5.4-38.4-5.4-38.4
				s-100.9-205.7-136.9-228.4c-0.5-0.3-0.9-0.6-1.4-0.8l0,0c-1.8-0.9-3.4-1.3-4.8-1.2c-5.4,0.6-12.9,28.5-21.2,73.9c0,0,0,0,0,0.1
				c-7.5,41.2-15.6,96.8-23.2,159.5c-5.5,45-10.7,93.6-15.2,143.2c-3.9,42.5-7.4,85.6-10.2,127.7c-62.3,49.8-113.4,88-113.4,88
				c7.3,2.2,14.3,4.6,21,7.4l-29.4,17.9c-11.3,6.9-24.3,9.8-37.3,8.3l-166-18.7l-173.1,95.3l-38.7,21.3c0,0,69.9,36.6,104.2,38.8
				c1.1,0.1,2.1,0.1,3.1,0.1c32.9,0,167.4-50.9,187.4-44.9c9.4,2.8,41.5,19.5,73,36.4c43.9,23.6,96.4,21.4,138.4-5.7l24.9-16.1
				c2.2,58,8.7,99.9,21.2,114.1c3.7,4.2,3.9,8.1,0.9,11.6c-47.5,55.8-893.6,21.3-893.6,21.3l-103-511.6l-10.6-513.8
				c-2.1-102.8,66.2-192.5,162.4-213.5l271.9-59.1l128.6,418.4l226-475.7l194.4,12.5c29.2,1.9,57.8,7.5,85.1,16.5
				c1.9,0.6,3.9,1.3,5.8,2c66.4,23.2,125.2,66.7,168.5,125.5c3.3,4.5,6.6,9.1,9.7,13.9c2.1,3,4,6.1,6,9.2l19.2,30.7L3892.2,2072.9z"
				/>
			<path class="st25" d="M3396.8,1925.9c-5.4-31.9-5.4-38.4-5.4-38.4s-100.9-205.7-136.9-228.4c-0.5-0.3-0.9-0.6-1.4-0.8
				c-26.7-37.7-25.4,65.1-26,72.8c-4.2,53-16.7,106.6-23.2,159.5c-4.5,36.8,1.9,91-13.8,127.5c-3.3,34.4-6.3,69.3-8.9,103.9
				c-1.9,25.2-14,48.4-33.3,63.6c-47.6,37.4-82.8,63.9-82.8,63.9c7.3,2.2,14.3,4.6,21,7.4l-29.4,17.9c-11.3,6.9-24.3,9.8-37.3,8.3
				l-166-18.7l-173.1,95.3c35.7-49,118.9-145.4,217.4-138.7c63.3,4.3,158.1,70.5,226-62.8c15.2-29.9,29.2-68.4,41.8-110.7
				c-4,2.4-8.4,4.4-13.4,6c-17.8,5.5-36.7,5.6-55.2,5.7c-26.6,0.1-63.9-5.7-90.5-5.6c58.6-12.6,125.9-29.9,154.8-97
				c27.2-63.1,19.1-133.4,10-198.5c-8.2-58.9-16.3-117.8-24.5-176.7c-3.1-22.2,11-43.1,32.1-47.3c27-5.4,57.1-10.2,76.1-0.4
				c28.9,15,48.8,74.9,62.4,103c40.3,83.2,70.7,173.2,79.8,266.4C3398.1,1910.6,3398.6,1918.6,3396.8,1925.9z"/>
			<path class="st15" d="M3194,2503.7c3.7,4.2,3.9,8.1,0.9,11.6c-69.8,2.1-220.4,5.8-222.6-1.1c-1.9-5.9-135-58.7-226.3-94.4
				c1.1,0.1,2.1,0.1,3.1,0.1c32.9,0,167.4-50.9,187.4-44.9c9.4,2.8,41.5,19.5,73,36.4c43.9,23.6,96.4,21.4,138.4-5.7l24.9-16.1
				C3175,2447.6,3181.5,2489.5,3194,2503.7z"/>
			<path class="st15" d="M3172.8,2389.6l-24.9,16.1c-42,27.1-94.5,29.3-138.4,5.7c-31.4-16.9-63.6-33.6-73-36.4
				c-20-6-154.5,44.9-187.4,44.9s-107.3-38.9-107.3-38.9l211.7-116.7l166,18.7c13,1.5,26-1.5,37.3-8.3l29.4-17.9
				c-6.8-2.8-13.8-5.2-21-7.4c0,0,51.1-38.3,113.4-88c-3.1,46.9-5.2,92.4-6.2,134.3c-0.1,7-0.3,14-0.3,20.8
				C3171.7,2342.8,3171.9,2367.4,3172.8,2389.6z"/>
			<polygon class="st26" points="3123.9,1191.9 2956.5,1543.4 2925.4,1551.5 2853.5,1570.3 2855.4,1575.8 2887.9,1669.1 
				2710.5,2037 2697.9,2006.7 2576,1710.9 2621.8,1630.2 2558.8,1576.3 2495.4,1270.6 2493.9,1263.6 2621.8,1235.3 2655.2,1335.8 
				2743.8,1602.3 2756.7,1641 2915.1,1244.3 2934.9,1194.6 2940.8,1179.9 2976.1,1179.6 			"/>
			<polygon class="st25" points="3155.4,1194.9 2988,1546.4 2956.9,1554.5 2885,1573.3 2886.9,1578.8 2919.3,1672 2741.9,2040 
				2729.4,2009.7 2607.4,1713.9 2653.2,1633.2 2590.3,1579.3 2526.9,1273.6 2525.4,1266.6 2653.2,1238.3 2686.6,1338.7 
				2775.3,1605.2 2788.2,1644 2946.6,1247.3 2966.4,1197.6 2972.3,1182.9 3007.6,1182.6 			"/>
			<polygon class="st26" points="2925.4,1551.5 2922.2,1558.4 2855.4,1575.8 2853.5,1570.3 			"/>
			<polygon class="st26" points="2934.9,1194.6 2915.1,1244.3 2756.7,1641 2743.8,1602.3 2880.8,1259.2 2906.4,1194.9 			"/>
			<path class="st24" d="M3210.2,2365.4l-37.4,24.2l-24.9,16.1c-42,27.1-94.5,29.3-138.4,5.7c-31.4-16.9-63.6-33.6-73-36.4
				c-20-6-154.5,44.9-187.4,44.9c-16.9,0-44.8-10.3-67.9-20.3c-21.8-9.5-39.4-18.6-39.4-18.6l211.7-116.7l166,18.7
				c1.3,0.1,2.5,0.2,3.7,0.3c10.1,0.5,20.1-1.6,29.2-6.2c1.5-0.7,2.9-1.5,4.3-2.4l29.4-17.9l13.4-8.2l8.5-5.2
				C3108.2,2243.4,3176.3,2291.4,3210.2,2365.4z"/>
			<path class="st6" d="M2914.7,1178.4l-74.2,120.4c-20.3,33-55.3,52.9-92.8,52.9h-0.4c-40.3-0.2-74.9-76.4-94.1-113.4l-31.4-3
				l135,405.8l184.1-461.1L2914.7,1178.4z"/>
			<path class="st27" d="M2915.1,1244.3L2756.7,1641l-101.5-305.3l4.3,8.2c19.2,37,56.2,60.1,96.4,60.3h0.4
				c37.5,0,72.4-19.9,92.8-52.9L2915.1,1244.3z"/>
			<path class="st28" d="M2634.8,949.4l-1.5,11.2c-0.6,4.3-1.4,8.1-2.4,12.1s-2.3,7.9-3.8,11.8c-3.1,7.7-7.3,15.3-12.7,22.3
				s-12.3,13.4-20.5,18.1c-8.2,4.7-17.8,7.5-27,7.5l-0.1-1.1c2.1-0.7,4.2-1.4,6.2-2.2l0,0c6.1-2.5,11.5-5.7,16.1-9.6
				c6.2-5.1,11.1-11.2,15.3-17.7c2.6-4.1,4.9-8.3,6.9-12.6c1.2-2.6,2.4-5.2,3.5-7.8c0.1-0.3,0.3-0.7,0.4-1c1.3-3.2,2.5-6.4,3.7-9.7
				c0.1-0.3,0.2-0.6,0.3-0.9c-1.8,0.7-3.6,1.4-5.4,2.1c-5.7,2.1-11.5,3.9-17.2,5.6c-11.5,3.4-23.2,6.1-34.8,8.6
				c-11.7,2.5-23.4,4.7-35.1,6.7c-2.2,0.4-4.3,0.7-6.5,1.1c-9.5,1.6-19.1,3.1-28.7,4.3l-0.2-1.1c11.6-2.5,23.1-5.2,34.6-7.9
				c11.5-2.8,22.9-5.8,34.3-8.9c11.4-3.1,22.6-6.5,33.6-10.3c5.5-1.9,11-3.9,16.2-6.1c5.2-2.2,10.3-4.7,14.6-7.5L2634.8,949.4z"/>
			<path class="st29" d="M2812.8,885.7c-56.1,134.1-150.8,184.2-191.7,200.9c0-3.1,0-6.2-0.1-9.3c76.6-23.8,144-133.5,187.1-221.4
				C2809.4,865.6,2810.9,875.6,2812.8,885.7z"/>
			<path class="st30" d="M2865.5,1063c-98.9,48.8-211.5,49.5-244.3,48.5c0-8.6-0.1-17-0.1-25c0-3.1,0-6.2-0.1-9.3
				c76.6-23.8,144-133.5,187.1-221.4c1.2,9.8,2.8,19.7,4.7,29.8C2823.7,944.5,2844.2,1007.5,2865.5,1063z"/>
			<path class="st30" d="M2854.6,731.8c-11.9-72.2-45.4-69.1-65.9-59.4c3.6-6.7,7.8-13.2,13.2-17c2.2-1.6,4.5-2.7,7.2-3.3
				c19.3-4.2,32.5,16.1,38.5,32.1C2853.3,699.5,2855.5,715.7,2854.6,731.8z"/>
			<g>
				<g class="st31">
					<path class="st32" d="M2807,720.9c-6.1,3.5-11.1,8.9-15.2,14.6c-4,5.7-7.9,11.9-10.3,18.9c-4.8,13.8-4.6,29.4,0.9,42.5
						c-1.7-6.9-2.3-14-1.9-21c0.4-7,1.8-13.8,4.2-20.2c2.2-6.5,6.1-12.2,9.8-18.2C2798.3,731.7,2802.2,726.1,2807,720.9z"/>
				</g>
				<g class="st31">
					<path class="st32" d="M2780.2,775.9c11.6,3.9,24.4,2.2,34.3-4.3c-10.4,5.3-22.9,5.4-32.9,0.7c-0.9-0.4-2,0-2.4,1
						S2779.2,775.4,2780.2,775.9C2780.1,775.8,2780.2,775.9,2780.2,775.9z"/>
				</g>
			</g>
			<path class="st30" d="M2808.7,854.7L2808.7,854.7c-18.5,37.8-41.6,79.8-67.9,117.3l40.6-104.1
				C2785.7,856.6,2797.7,850.8,2808.7,854.7L2808.7,854.7z"/>
			<path class="st30" d="M2751.9,758.1c0,0-103-170.5-228.9-69.2c-95.3,76.6-161.1,87.2-187.4,87.8c-1.7-5.5-3.4-11-5.2-16.3
				c32.8-7.5,70.8-27,113.9-60.6C2624.6,559.2,2717.6,626.5,2751.9,758.1z"/>
			<path class="st21" d="M2702.7,659c-45.7-49-117.7-55.6-223,15.1c2.9-2.8,11.3-15.9,12.3-17.2c11.3-14.1,23.7-27.4,37.3-38.9
				c34.7-29.2,79.4-49.4,122.9-28.5C2678.1,601.9,2694.7,630.4,2702.7,659z"/>
			<path class="st21" d="M2784.5,681.1c-0.1,0.1-0.1,0.1-0.1,0.2c-9.7,13.3-16.9,28.7-20.9,44.8c-0.1,0.1-0.1,0.2-0.1,0.4
				c-1.9,6.6-2.3,13.2-5.1,19.4v0.1c-1.4,3.1-3,6-4.6,9c-0.7,0.3-1.5,0.5-2.2,0.6h-0.1c-5.4-20.3-12.3-39-20.7-55.6l-0.1-0.1
				c-1.6-3.2-3.3-6.4-5.1-9.5c-1.7-3.1-3.5-6-5.4-9c-0.7-1-1.3-2-1.9-3c-1.3-2-2.7-3.9-4.1-5.8c-0.6-0.8-1.2-1.6-1.8-2.5
				c-0.2-0.3-0.4-0.6-0.7-0.9c-1.3-1.7-2.7-3.4-4.1-5.1c-1.5-1.8-3.1-3.5-4.7-5.2c-0.7-0.7-1.4-1.5-2.1-2.2
				c-0.7-0.7-1.4-1.4-2.1-2.1c-1.8-1.8-3.6-3.4-5.4-5.1c-1.9-1.6-3.7-3.2-5.7-4.7c-1.5-1.2-3.1-2.4-4.7-3.5
				c-0.8-0.5-1.6-1.1-2.4-1.6c-0.8-0.5-1.6-1.1-2.5-1.6c-0.8-0.5-1.6-1-2.5-1.5c-0.8-0.5-1.7-1-2.5-1.4c-0.8-0.5-1.7-0.9-2.5-1.4
				c-1.7-0.9-3.5-1.7-5.2-2.5c-0.9-0.4-1.8-0.8-2.7-1.2c-5.3-2.2-10.8-4-16.6-5.4c-1-0.2-2-0.5-3-0.7c-0.4-0.1-0.7-0.1-1.1-0.2
				c-0.7-0.1-1.4-0.3-2.1-0.4c-2.9-0.6-6-1-9-1.3c-0.7-0.1-1.3-0.1-2-0.2c-3.5-0.3-7.2-0.5-10.9-0.5c-1.3,0-2.7,0-4.1,0.1
				c-1.7,0-3.3,0.1-5,0.2c-1.3,0.1-2.6,0.2-4,0.3c-1,0.1-2,0.2-3.1,0.3c-1,0.1-1.9,0.2-2.9,0.4c-1,0.1-2,0.3-3.1,0.4
				c-1.5,0.2-2.9,0.4-4.4,0.7c-1.1,0.2-2.3,0.4-3.4,0.6c-0.8,0.1-1.6,0.3-2.4,0.5c-2.7,0.5-5.4,1.2-8.2,1.9c-1,0.3-2,0.5-3,0.8
				c-1.8,0.5-3.6,1-5.5,1.6c-1.2,0.4-2.4,0.7-3.6,1.1c-1.5,0.5-3,1-4.6,1.5c-2.4,0.8-4.9,1.7-7.4,2.7c-1.5,0.6-3.1,1.2-4.7,1.9
				c-1.4,0.6-2.7,1.1-4.1,1.7c-1.5,0.7-3,1.3-4.5,2c-2.9,1.3-5.9,2.7-8.8,4.1c-3.5,1.7-7,3.4-10.6,5.4c-1,0.5-2,1-3,1.6
				c-2.1,1.1-4.3,2.3-6.5,3.6c-2.2,1.2-4.3,2.5-6.6,3.8c-1.9,1.1-3.8,2.2-5.7,3.4c-1.6,1-3.2,1.9-4.8,3c-3.2,2-6.5,4.1-9.8,6.3
				c11.5-30.3,50.2-106.6,150.9-113.8c25.6-1.8,49.5,6.1,68.4,24.4c21.1,20.3,24.3,40.8,37,66.4
				C2748.6,665.9,2765.7,678.5,2784.5,681.1L2784.5,681.1z"/>
			<path class="st21" d="M2445.8,360.2c0,0,93-18.4,180.1,26.1c13.8,7.1,28.6,11.6,43.8,14l24.6,4c6.5,1.1,9.7-8,4.2-11.7
				C2665.8,371,2588.4,336.8,2445.8,360.2z"/>
			<path class="st30" d="M3210.2,2365.4l-17.6,11.4l-19.8,12.8l-24.9,16.1c-42,27.1-94.5,29.3-138.4,5.7
				c-31.4-16.9-63.6-33.6-73-36.4c-20-6-154.5,44.9-187.4,44.9c-16.9,0-44.8-10.3-67.9-20.3l46.7,5.8c21.4,2.6,43.1-0.3,63.2-8.6
				l108.1-44.4c14-5.8,29.8-4.2,42.6,4.2c11.2,7.4,25.5,17.4,39.1,28.8c42.3,35.4,155,44.8,166-29.9c4.1-28.2-28.8-80.4-47.1-107
				l8.5-5.2C3108.2,2243.4,3176.3,2291.4,3210.2,2365.4z"/>
			<path class="st30" d="M3092.4,2370.6c-13.8-40.1-44.1-69-69.2-87.2c10.1,0.5,20.1-1.6,29.2-6.2
				C3095.5,2308.3,3092.4,2370.6,3092.4,2370.6z"/>
			<path class="st25" d="M3892.2,2072.9L3258,2377.4l-47.7-11.9c0,0,0-0.1-0.1-0.1c-7.8-12.3-18.6-27.5-32.7-43
				c49.4-46.3,184.7-137.7,297.1-211c99.3-64.8,143.1-192.4,105.7-308.3l-150-465.1c5.5,7.4,10.7,15.1,15.7,23L3892.2,2072.9z"/>
			<path class="st25" d="M3440.1,1351.8c-54.5,21.7-111.3,27.2-127-32.9c-11.8-45.1-33.8-81-57.1-108.4c1.9,0.6,3.9,1.3,5.8,2
				c66.4,23.2,125.2,66.7,168.5,125.5C3433.7,1342.4,3437,1347,3440.1,1351.8z"/>
		</g>
		<g>
			<path class="st33" d="M4217,1655.5l-1533.6,750.9l-453.5-303.6l-74.1-49.6L1717,1759.5l-107.6-72l-13.9-9.3l-78.1-52.3
				l-27.4-18.4l108-149.3l30-41.4l5.9-8.2l128.8-178.1l6.4-8.9l2.3-3.1l304.1-420.4l35.9-49.6l292.3-404.2
				c13.1,4.6,26.4,8.8,39.9,12.6c0.6,0.2,1.2,0.3,1.8,0.5c41.9-40.5,104.1-74.2,196.3-85.6c99.7-12.4,185.8,28.7,252.7,101.4
				c15.6-3,31.1-6.3,46.5-10c154.6-37.1,315.8-110.4,474.5-50.6c156.1,58.8,228.9,199.3,263.4,350.6c2.2,9.6,4.1,19.2,5.9,28.8
				c3.4,18.3,6.1,36.7,8.6,55.2c10,73.4,16.3,147.5,43.2,217.8c63.4,165.2,192.2,203,342.4,208.7l67.1,234.5l14.2,49.6L4217,1655.5z
				"/>
			<g id="laptop_8_">
				<polygon class="st6" points="2685.5,2403.3 2661.9,2403.1 2636.4,2403 2502.3,2402.2 2446.2,2401.8 2380.2,2401.4 
					2213.7,2400.4 1910.8,2398.6 1754.3,2397.6 1687.9,2397.2 1687.7,2396.2 1489,1612 1486.5,1602 1482.7,1587.1 1595.6,1587.7 
					1828.1,1589.1 2018.2,1590.3 2107,1590.9 2480.3,1593.1 2665.8,2325.5 				"/>
				<polygon class="st34" points="2685.5,2403.3 2661.9,2403.1 2636.4,2403 2502.3,2402.2 2446.2,2401.8 2380.2,2401.4 
					2213.7,2400.4 1910.8,2398.6 1754.3,2397.6 1687.9,2397.2 1687.7,2396.2 1489,1612 1486.5,1602 1482.7,1587.1 1595.6,1587.7 
					1828.1,1589.1 2018.2,1590.3 2107,1590.9 2480.3,1593.1 2665.8,2325.5 				"/>
				<path class="st35" d="M3085.2,2479.9v1.2l-397.3-2.8l-184.6-1.3l-232.7-1.6l-577.8-4.1l0.4-62.8l60.9,0.4l156.5,1.1l312,2.2
					l157.4,1.1l75.2,0.5l107.6,0.7l82.7,0.6l41.7,0.3h0.9l337.3,2.4c0.1,0,0.3,0,0.4,0C3058.6,2418.4,3084.9,2445.9,3085.2,2479.9z"
					/>
				<polygon class="st6" points="1687.2,2396.2 2661.9,2403.1 2460.7,1608.9 1486,1601.9 				"/>
				<path class="st36" d="M1743.5,2005c51.7,24.3,232.8,45.1,404.6,46.3s269.2-17.5,217.5-41.9c-51.7-24.3-232.8-45.1-404.6-46.3
					C1789.2,1961.9,1691.8,1980.6,1743.5,2005z"/>
				<path class="st37" d="M3085.2,2479.9v1.2l-397.3-2.8l0.4-62.7l337.3,2.4c0.1,0,0.3,0,0.4,0
					C3058.6,2418.4,3084.8,2446,3085.2,2479.9z"/>
				
					<rect x="2457.8" y="2324.3" transform="matrix(7.133090e-03 -1 1 7.133090e-03 38.3171 4870.0098)" class="st6" width="27.6" height="182.9"/>
				
					<rect x="1818.7" y="2332.9" transform="matrix(7.111262e-03 -1 1 7.111262e-03 -591.5997 4226.5278)" class="st6" width="27.6" height="156.5"/>
				
					<rect x="2457.8" y="2324.3" transform="matrix(7.133090e-03 -1 1 7.133090e-03 38.3171 4870.0098)" class="st38" width="27.6" height="182.9"/>
				
					<rect x="1818.7" y="2332.9" transform="matrix(7.111262e-03 -1 1 7.111262e-03 -591.5997 4226.5278)" class="st38" width="27.6" height="156.5"/>
				<polygon class="st39" points="2454.2,1618.9 1488.6,1612 1486,1601.9 2460.7,1608.9 2661.9,2403.1 2652.8,2403.1 				"/>
			</g>
			<g class="st12">
				
					<linearGradient id="SVGID_2_" gradientUnits="userSpaceOnUse" x1="1777.0868" y1="1950.212" x2="2283.1387" y2="1194.9114" gradientTransform="matrix(1 0 0 -1 0 3576)">
					<stop  offset="0" style="stop-color:#FFFFFF"/>
					<stop  offset="1" style="stop-color:#FFFFFF;stop-opacity:0"/>
				</linearGradient>
				<polygon class="st40" points="2503.3,2476.9 2270.7,2475.3 2222.7,2412.2 2213.7,2400.4 2213.4,2399.9 1614.7,1612.9 
					1607.1,1602.8 1595.6,1587.7 1828.1,1589.1 1839.7,1604.5 1847.4,1614.5 2446,2401.6 2446.2,2401.8 2446.2,2401.8 
					2455.3,2413.8 2467.3,2429.5 				"/>
				
					<linearGradient id="SVGID_3_" gradientUnits="userSpaceOnUse" x1="2011.8313" y1="2115.376" x2="2519.4399" y2="1357.7517" gradientTransform="matrix(1 0 0 -1 0 3576)">
					<stop  offset="0" style="stop-color:#FFFFFF"/>
					<stop  offset="1" style="stop-color:#FFFFFF;stop-opacity:0"/>
				</linearGradient>
				<polygon class="st41" points="2716.1,2391.6 2687.4,2415.5 2662,2436.6 2645.7,2415.2 2636.4,2403 2636.4,2403 2037.7,1615.9 
					2030,1605.8 2018.2,1590.3 2107,1590.9 2118.9,1606.5 2126.6,1616.6 2616.9,2261.1 2630.4,2278.9 2665.8,2325.5 				"/>
			</g>
		</g>
		<g>
			<g>
				<path class="st6" d="M1379.6,1274.7c-82.3,229.6-332.5,295.9-539.6,312.3c-123.3,9.7-249.5,6-367.5-32.9
					c-92.9-30.6-175.8-83.3-238.1-156.5c-14.6-17.1-28-35.2-40.2-54.6c-17.7-27.9-32.7-58.1-44.7-90.6
					C70.8,1039.1,114.8,700,268.3,529.2c230.4-256.4,673.1-96.3,901.2,84.6C1351,757.6,1462.3,1043.8,1379.6,1274.7z"/>
				<path class="st42" d="M1379.6,1274.7c-82.3,229.6-332.5,295.9-539.6,312.3c-123.3,9.7-249.5,6-367.5-32.9
					c-92.9-30.6-175.8-83.3-238.1-156.5c-14.6-17.1-28-35.2-40.2-54.6c-17.7-27.9-32.7-58.1-44.7-90.6
					C70.8,1039.1,114.8,700,268.3,529.2c230.4-256.4,673.1-96.3,901.2,84.6C1351,757.6,1462.3,1043.8,1379.6,1274.7z"/>
				<g>
					<g>
						<defs>
							<path id="SVGID_4_" d="M1379.4,1278c-82.4,229.6-332.6,295.7-539.8,312c-123.3,9.7-249.5,5.8-367.5-33.2
								c-92.9-30.7-175.7-83.4-238-156.6c-14.6-17.1-28-35.3-40.1-54.6c-17.7-27.9-32.6-58.1-44.6-90.6
								C70.9,1041.6,115,702.5,268.6,531.8c230.6-256.3,673.1-95.9,901.2,85.1C1351.1,760.9,1462.3,1047.2,1379.4,1278z"/>
						</defs>
						<clipPath id="SVGID_5_">
							<use xlink:href="#SVGID_4_"  style="overflow:visible;"/>
						</clipPath>
						<g class="st43">
							<g class="st44">
								<path class="st15" d="M1406.4,1265.5l-311.6-50.4l22.5-228.4l4.3-0.7c0.5,0.4,1,0.7,1.5,1l17.6,11.7l0,0
									c3.2,5.2,6.8,10.6,10.8,16.4c14,20.4,31,45.4,52,62.4c0.2,0.2,0.4,0.3,0.6,0.5l-2.7,36.7l-4.5,61.5l-2.2,30.2h130.5
									l-3.2-38.9l-5.4-66.6l-2.8-33.9c0.2-0.2,0.3-0.3,0.5-0.5c5.5-5.4,10.7-11.1,15.6-16.8c10.9-12.8,23.4-23.6,30.5-38.8
									c1.2-2.5,2.3-5,3.4-7.5l1.6-1.1l0.4-0.3L1406.4,1265.5z"/>
								<path class="st6" d="M1564.2,1753.4l-606-276.6l10.4-197.6c2.8-53.8,37-99.9,85.4-116.5c2.9-1,5.9-1.9,8.9-2.7l24.8-6.4
									l40.4-10.4l21.5-5.6l45.7-11.8l1.7-0.4l-0.3,3.9l-1.8,21.2l11.1,2.6l83.3,19.6l29.6,6.9l2.7-49.6l0.6-12l7.1,1.8l24.2,6.2
									l26.3,6.6l60.1,15.2c7.5,2.1,14.4,4.8,20.8,8.1c0.3,0.1,0.6,0.3,0.8,0.4c37,19.3,56,57.9,64.3,104.3L1564.2,1753.4z"/>
								<path class="st15" d="M1564.2,1753.4L981.9,1674l-13.3-394.7c2.8-53.8,37-99.9,85.4-116.5c2.9-1,5.9-1.9,8.9-2.7l24.8-6.4
									l40.4-10.4l21.5-5.6l45.7-11.8l1.7-0.4l-0.3,3.9l-1.8,21.2l11.1,2.6l83.3,19.6l29.6,6.9l2.7-49.6l0.6-12l7.1,1.8l24.2,6.2
									l26.3,6.6l60.1,15.2c7.5,2.1,14.4,4.8,20.8,8.1c0.3,0.1,0.6,0.3,0.8,0.4c37,19.3,56,57.9,64.3,104.3L1564.2,1753.4z"/>
								<path class="st45" d="M1408.9,946.1c-0.4,12.7-5.7,26.2-12.9,33.7c-0.1,0.2-0.2,0.3-0.4,0.4c-0.4,0.3-0.7,0.7-1.1,1
									c-2.2,2-4.5,3.9-7,5.6l-21.6,15.2l-0.4,0.3l-1.6,1.1c-1.1,2.6-2.2,5.1-3.4,7.5c-7.1,15.2-19.6,26-30.5,38.8
									c-4.9,5.7-10,11.4-15.6,16.8c-0.2,0.2-0.3,0.3-0.5,0.5l2.8,33.9l5.4,66.6l3.2,38.9h-130.5l2.2-30.2l4.5-61.5l2.7-36.7
									c-0.2-0.2-0.4-0.3-0.6-0.5c-21-17-38.1-42.1-52-62.4c-4-5.9-7.7-11.2-10.8-16.4l0,0L1123,987c-0.5-0.3-1-0.7-1.5-1
									c-6.2-4.4-11.7-9.9-16.1-16.2c-4.7-6.8-8.2-14.5-10.2-22.8c-2.4-9.6,2.5-19.5,11.4-23.1l21.1-8.5
									c3.3-19.6,9.2-38.9,13.3-58.1c5.6-26.8,11.2-53.6,16.8-80.4l167.3-50.5l28.4,89c5.4,25.2,10.8,50.6,16.1,75.8
									c1.5,7.2,3.4,14.5,5.1,21.9l0.4,0.2l25.9,9.7c0.1,0.1,0.3,0.2,0.4,0.4C1407.1,929.1,1409.1,937.5,1408.9,946.1z"/>
								<path class="st46" d="M1316.8,1089.4c-17.6,17.8-38.9,32.8-64.1,32.8c-19.3,0-36.3-8.7-51.2-21.3l2-23.4
									c14.4,11.7,30.7,19.6,49.2,19.6c24.1,0,44.6-13.7,61.8-30.6L1316.8,1089.4z"/>
								<path class="st15" d="M1380.6,917.7c-0.4,2.1-2,12.8-11.4-3c-0.6-0.9-1.1-1.9-1.6-2.9c-0.7-1.3-1.4-2.7-2.1-4.3
									c-0.8-1.7-1.6-3.4-2.3-5.3c0-0.1-0.1-0.2-0.1-0.3c-0.7-1.8-1.4-3.6-2.1-5.5c-0.4-1-0.7-2-1.1-3.1c-0.7-2-1.4-4.2-2.1-6.4
									s-1.3-4.4-2-6.6c-0.7-2.3-1.3-4.6-1.9-6.9c-0.9-3.5-1.8-7-2.6-10.6c-0.4-1.6-0.8-3.3-1.1-4.9c-0.4-1.6-0.7-3.2-1.1-4.9
									c-0.3-1.5-0.7-3-1-4.5c-1-4.9-2-9.9-2.9-14.6c-0.4-2-0.7-4.1-1.1-6.1c-0.2-1.4-0.5-2.9-0.7-4.3c-0.4-2.4-0.8-4.8-1.2-7.1
									c-0.2-1.4-0.4-2.7-0.6-3.9l-0.1-0.5l-3.3-23.1l-0.1-0.6l-0.1-1c-40.9,22.6-143.9,0.3-166,1.6c-2.5,0.1-3.9,0.6-4.2,1.4
									c-0.1,0.2-0.1,0.4-0.2,0.7s-0.1,0.6-0.2,1c-0.1,0.7-0.3,1.5-0.5,2.6c-0.1,0.7-0.3,1.5-0.4,2.4c-0.3,1.9-0.7,4.1-1.1,6.6
									c-0.2,1.3-0.4,2.6-0.7,4.1l0,0c-0.3,1.7-0.6,3.4-0.8,5.2c-0.6,3.6-1.3,7.5-2.1,11.6c-0.2,1.2-0.4,2.5-0.7,3.8
									c-0.4,2.3-0.8,4.6-1.3,6.9c-0.4,2.2-0.9,4.4-1.4,6.6v0.1c-0.7,3.4-1.5,7-2.3,10.4c-1.1,4.7-2.2,9.4-3.4,14
									c-0.9,3.4-1.8,6.8-2.8,10.1c-0.4,1.3-0.8,2.6-1.2,3.8c-0.4,1.3-0.8,2.5-1.2,3.8c-0.4,1.2-0.8,2.4-1.3,3.6
									c-0.4,1.2-0.8,2.3-1.3,3.4c-1.7,4.5-3.5,8.6-5.5,12.1c-7,12.6-10.3,9.2-11.3,14.8c-2.1-36.5-7.7-53.8-9.3-90.3
									c-0.9-19-0.9-36.9,2.1-53.1c1.2-6.8,2.9-13.2,5.2-19.4c35.9-93.3,211.3-96,251.4-5c1.8,4,3.4,8,4.8,11.9
									C1402.3,816.3,1390.4,860.1,1380.6,917.7z"/>
								<path class="st15" d="M1338.2,788.9l3.3,23.1C1339.7,800.8,1338.7,792.3,1338.2,788.9z"/>
								<path class="st15" d="M1355.8,880.4c0.7,2.2,1.3,4.5,2,6.6c-0.1-0.2-0.2-0.5-0.3-0.7C1357,884.4,1356.4,882.4,1355.8,880.4z
									"/>
								<path class="st47" d="M1133.8,911.8"/>
								<path class="st48" d="M1389.5,1322.6l-45.1-5l23.7,39.7l-68.3,96.3l-81.2,114.6l-71-114.6l-64.3-103.8l38-72h-38v-119.1
									l9.2-4.2l37.4-9.7l19.9-5.1l42.3-11l1.3,3.2l8.6,22.1l30.9,79.1l46.2-61l29.8-39.4l7.1-9.4l22.4,5.7l24.3,6.1l55.6,14.1
									c6.9,1.9,13.3,4.4,19.2,7.5c0.3,0.1,0.5,0.3,0.8,0.4L1389.5,1322.6z"/>
								<path class="st6" d="M1321.4,1117.9l-8.4,6.5c-30.2,23.3-71.2,23.8-101.9,1.1l-10.2-7.6l-5.1,13.4l30.9,340.5l74.3-193.1
									L1321.4,1117.9z"/>
							</g>
							<g>
								<polygon class="st6" points="841,1282.6 687.1,1282.7 689.6,1247.1 694.9,1174.6 700.4,1097.9 824.2,1076.8 830.9,1158.3 
									837.3,1236.8 								"/>
								<path class="st6" d="M1122.6,1601.4l-714.7,0.2l12.2-233c3.3-63.5,43.7-117.9,100.8-137.4c3.5-1.2,7-2.3,10.6-3.2l29.2-7.6
									l47.6-12.3l25.4-6.6l53.9-14l2-0.5l-0.4,4.6l-2.2,25l13.1,3.1l98.3,23.1l34.9,8.2l3.2-58.4l0.8-14.1l8.3,2.1l28.6,7.3
									l31,7.8l70.8,17.9c8.8,2.5,17,5.6,24.5,9.5c0.3,0.2,0.7,0.3,1,0.5c43.6,22.8,66.1,68.3,75.9,123L1122.6,1601.4z"/>
								<path class="st15" d="M1122.6,1601.4l-714.7,0.2l12.2-233c3.3-63.5,43.7-117.9,100.8-137.4c3.5-1.2,7-2.3,10.6-3.2l29.2-7.6
									l47.6-12.3l25.4-6.6l53.9-14l2-0.5l-0.4,4.6l-2.2,25l13.1,3.1l98.3,23.1l34.9,8.2l3.2-58.4l0.8-14.1l8.3,2.1l28.6,7.3
									l31,7.8l70.8,17.9c8.8,2.5,17,5.6,24.5,9.5c0.3,0.2,0.7,0.3,1,0.5c43.6,22.8,66.1,68.3,75.9,123L1122.6,1601.4z"/>
								<path class="st6" d="M904.1,975.3c-0.8,23.2-8.4,46.6-17.6,67.9l0,0c-1.3,3-2.6,6-4,8.9c-8.3,18-23.1,30.7-36,45.8
									c-5.7,6.7-11.8,13.5-18.3,19.8c-20.3,19.8-44.5,36-72.9,36.1c-21.8,0-41-9.3-58-23.1c-24.8-20-44.9-49.6-61.4-73.6
									c-4.8-6.9-9-13.3-12.8-19.4c-11-18.2-17.3-34.9-18.1-61.7c-0.3-12.4,0.9-24.5,2.9-36.6c3.9-23.1,10.9-45.8,15.6-68.5
									c6.6-31.6,13.2-63.2,19.8-94.8l197.4-59.5l33.5,105c6.3,29.8,12.7,59.6,19,89.5c1.8,8.5,4.1,17.1,6,25.9
									C902.3,949.5,904.6,962.4,904.1,975.3z"/>
								<path class="st42" d="M830.9,1144.7c-20.8,21-45.9,38.7-75.6,38.7c-22.8,0-42.8-10.2-60.4-25.1l2.4-27.6
									c17,13.8,36.2,23.2,58,23.1c28.4,0,52.6-16.2,72.9-36.1L830.9,1144.7z"/>
								<path class="st6" d="M615.4,936.4l-32.3,13c-10.4,4.2-16.2,15.9-13.5,27.2l0,0c4.7,19.5,16.4,36.4,32.7,47.2l28.2,18.8
									L615.4,936.4z"/>
								<path class="st6" d="M939.5,975.6c-0.4,15-6.7,30.9-15.2,39.7c-0.1,0.2-0.3,0.3-0.4,0.5c-0.4,0.4-0.8,0.8-1.3,1.2
									c-2.6,2.4-5.4,4.7-8.3,6.7l-25.9,18.2l-1.9,1.3l0,0l12.7-106.6l0.7,0.3l30.6,11.4c0.2,0.1,0.3,0.3,0.5,0.5
									C937.4,955.6,939.8,965.4,939.5,975.6z"/>
								<path class="st49" d="M860.1,817.4c-1.9-12.4-3.2-22-3.8-26.4L860.1,817.4z"/>
								<path class="st49" d="M862.7,833.4c-0.5-2.8-0.9-5.4-1.4-8C861.8,828,862.2,830.6,862.7,833.4z"/>
								<path class="st49" d="M913.9,776.3c-0.7-2.7-1.5-5.4-2.4-8.1C912.5,771,913.2,773.6,913.9,776.3z"/>
								<path class="st47" d="M615.1,935.2"/>
								<path class="st6" d="M879,905.1c-21.9-29.8-48.2-91.4-48.2-91.4c-26.2,17.8-159.2,0-159.2,0c-7.4,30.2-23.4,58.7-37.5,79.5
									c12.4-41.3,19.4-96.2,21.1-101.5c0.3-0.9,2-1.5,5-1.6c26.1-1.5,147.6,24.7,195.8-1.9l0.2,1.3c0.4,3.5,1.7,13.9,4,28l0.1,0.6
									C864,842.3,870.4,876.9,879,905.1z"/>
								<path class="st6" d="M939.3,1434.4l-57.5-6.3l30.3,50.6l-87,122.8l-103.5,146.1l-90.5-146l-82-132.2l48.4-91.7h-48.4v-151.8
									l11.7-5.4l47.6-12.3l25.4-6.6l53.9-14l1.6,4.1l11,28.1l39.4,100.8l58.9-77.8l38-50.3l9.1-12l28.6,7.3l31,7.8l70.8,17.9
									c8.8,2.5,17,5.6,24.5,9.5c0.3,0.2,0.7,0.3,1,0.5L939.3,1434.4z"/>
								<path class="st25" d="M939.3,1434.4l-57.5-6.3l30.3,50.6l-87,122.8l-103.5,146.1l-90.5-146l-82-132.2l48.4-91.7h-48.4
									v-151.8l11.7-5.4l47.6-12.3l25.4-6.6l53.9-14l1.6,4.1l11,28.1l39.4,100.8l58.9-77.8l38-50.3l9.1-12l28.6,7.3l31,7.8
									l70.8,17.9c8.8,2.5,17,5.6,24.5,9.5c0.3,0.2,0.7,0.3,1,0.5L939.3,1434.4z"/>
								<path class="st6" d="M836.4,1178.3l-9.9,7.7c-35.6,27.5-84,28-120.1,1.3l-12.1-8.9l-6,15.8l36.4,401.6l87.7-227.7
									L836.4,1178.3z"/>
								<path class="st25" d="M920.9,824.9c1,37.4-7.4,74-14.8,117.2c-0.4,2.5-2.4,15.1-13.4-3.5c-1.5-2.5-2.9-5.3-4.4-8.3
									c-1.4-3-2.8-6.3-4.1-9.7c-0.4-1.1-0.9-2.3-1.3-3.5c-2-5.5-3.9-11.4-5.7-17.5c-0.5-1.7-1-3.4-1.5-5.2
									c-1.9-6.9-3.6-14-5.3-21.1c-0.3-1.4-0.6-2.8-0.9-4.2c-0.3-1.4-0.6-2.8-0.9-4.2c-0.3-1.6-0.7-3.1-1-4.7
									c-0.5-2.6-1.1-5.2-1.6-7.8c-0.3-1.4-0.5-2.8-0.8-4.1c-0.7-3.5-1.3-6.9-1.9-10.2c-0.1-0.6-0.2-1.2-0.3-1.7
									c-0.2-0.9-0.3-1.9-0.5-2.8c-0.5-2.8-0.9-5.4-1.4-8c-0.4-2.5-0.8-5-1.2-7.3l-0.1-0.6l-3.8-26.4l-0.1-0.8l-0.1-0.7
									c0,0,0,0,0-0.1l-0.2-1.3c-1,0.5-1.9,1-3,1.5c-50,24.1-167.3-1.1-192.9,0.4c-2.9,0.2-4.6,0.7-4.9,1.6
									c-0.2,0.5-0.4,1.6-0.7,3.1c-0.1,0.2-0.1,0.5-0.1,0.7c0,0.1-0.1,0.3-0.1,0.5c-0.1,0.6-0.2,1.2-0.3,1.9
									c-0.2,1.4-0.5,3.1-0.8,4.9c-0.1,0.4-0.1,0.8-0.2,1.2c-0.1,0.4-0.1,0.8-0.2,1.2c-0.2,1-0.3,2.1-0.5,3.2
									c-0.1,0.7-0.2,1.5-0.4,2.2c-0.2,1-0.3,2-0.5,3c-0.6,3.6-1.3,7.5-2,11.6c-0.1,0.8-0.3,1.6-0.4,2.4c-0.7,3.8-1.4,7.7-2.2,11.8
									c-0.3,1.3-0.5,2.7-0.8,4c-0.4,2.1-0.8,4.2-1.3,6.3c-0.2,1-0.4,2-0.6,3c-0.3,1.6-0.7,3.3-1.1,5c-0.7,3.1-1.3,6.2-2.1,9.2
									c-1.1,5-2.4,9.9-3.7,14.8c-0.7,2.5-1.3,5-2,7.4s-1.4,4.8-2.1,7.1c-0.1,0.4-0.3,0.9-0.4,1.4c-0.9,3-1.9,5.8-2.9,8.6
									c-0.2,0.7-0.5,1.4-0.7,2.1c-2.3,6.1-4.7,11.6-7.3,16.2c-8.2,14.8-12.1,10.9-13.4,17.5c-2.5-43-9.1-63.4-11-106.5
									c-1-22.4-1-43.5,2.5-62.6c1.4-8,3.4-15.6,6.2-22.8c15.1-39.3,51.2-65,93.5-76.8c27.3-7.7,57.3-9.6,85.8-5.8
									c0.1,0,0.1,0,0.2,0.1c11.5,3.4,22.1,5.6,31.9,7c77.4,10.9,103.7-33.9,103.7-33.9s33.5,86.1-9.5,127.4
									c0.9,2.7,1.6,5.4,2.4,8.1c0.7,2.7,1.4,5.3,2,8c0.3,1.3,0.6,2.6,0.9,3.9c0.3,1.3,0.5,2.6,0.8,3.9c0.3,1.3,0.5,2.6,0.7,3.9
									c0.5,3.3,1,6.6,1.4,9.8c0.1,0.9,0.2,1.9,0.3,2.8c0.1,1.4,0.3,2.8,0.4,4.2c0.1,1,0.1,1.9,0.2,2.9c0.1,1,0.1,2,0.2,3.1
									c0.1,1,0.1,2,0.1,3C920.9,822.9,920.9,823.9,920.9,824.9z"/>
								<path class="st49" d="M856.1,789.4C856.1,789.5,856.1,789.5,856.1,789.4c-1.1,0.1-2.1,0.2-3.1,0.3c1-0.5,2-1,3-1.5
									L856.1,789.4z"/>
							</g>
							<g class="st44">
								<path class="st6" d="M569.1,1736.4l-598.6-273.2l10.2-195.1c2.8-53.2,36.6-98.7,84.4-115.1c2.9-1,5.9-1.9,8.8-2.7l24.5-6.3
									l39.9-10.3l21.3-5.5l45.2-11.7l1.7-0.4l-0.3,3.9l-1.8,20.9l11,2.6l82.3,19.3l29.2,6.9l2.6-48.9l0.6-11.8l7,1.8l23.9,6.1
									l25.9,6.6l59.3,15c7.4,2.1,14.2,4.7,20.5,8c0.3,0.1,0.6,0.3,0.8,0.4c36.5,19.1,55.4,57.2,63.5,103L569.1,1736.4z"/>
								<path class="st15" d="M569.1,1736.4l-598.6-273.2l10.2-195.1c2.8-53.2,36.6-98.7,84.4-115.1c2.9-1,5.9-1.9,8.8-2.7l24.5-6.3
									l39.9-10.3l21.3-5.5l45.2-11.7l1.7-0.4l-0.3,3.9l-1.8,20.9l11,2.6l82.3,19.3l29.2,6.9l2.6-48.9l0.6-11.8l7,1.8l23.9,6.1
									l25.9,6.6l59.3,15c7.4,2.1,14.2,4.7,20.5,8c0.3,0.1,0.6,0.3,0.8,0.4c36.5,19.1,55.4,57.2,63.5,103L569.1,1736.4z"/>
								<path class="st45" d="M415.7,939c-0.4,12.5-5.7,25.9-12.8,33.3c-0.1,0.2-0.2,0.3-0.4,0.4c-0.4,0.3-0.7,0.7-1.1,1
									c-2.2,2-4.5,3.9-6.9,5.6l-21.7,15.2l-1.6,1.1c-1.1,2.5-2.2,5-3.4,7.4c-7,15-19.4,25.7-30.1,38.3
									c-4.8,5.7-9.9,11.3-15.4,16.6c-0.2,0.2-0.3,0.3-0.5,0.5l2.7,33.5l5.3,65.8l3.1,38.4H204l2.1-29.8l4.4-60.7l2.6-36.3
									c-0.2-0.2-0.4-0.3-0.6-0.5c-20.7-16.8-37.6-41.5-51.4-61.7c-4-5.8-7.6-11.1-10.7-16.2l0,0L133,979.4
									c-6.8-4.5-12.7-10.3-17.3-17c-4.6-6.7-8.1-14.4-10-22.5c-2.3-9.5,2.5-19.3,11.2-22.8l20.9-8.4c3.3-19.3,9.1-38.4,13.1-57.4
									c5.5-26.5,11.1-53,16.6-79.4L333.1,722l28.1,87.9c5.3,24.9,10.6,49.9,15.9,74.9c1.5,7.1,3.4,14.4,5,21.7l0.4,0.2l25.6,9.5
									c0.1,0.1,0.3,0.2,0.4,0.4C413.9,922.2,416,930.5,415.7,939z"/>
								<path class="st46" d="M324.7,1080.6c-17.4,17.6-38.5,32.4-63.3,32.4c-19.1,0-35.8-8.5-50.6-21l2-23.1
									c14.3,11.6,30.4,19.4,48.6,19.4c23.8,0,44.1-13.6,61.1-30.2L324.7,1080.6z"/>
								<path class="st15" d="M387.8,911c-0.4,2.1-2,12.6-11.2-2.9c-0.5-0.9-1.1-1.8-1.6-2.8c-0.7-1.3-1.4-2.7-2.1-4.2
									c-0.8-1.6-1.5-3.4-2.3-5.2c0-0.1-0.1-0.2-0.1-0.3c-0.7-1.8-1.4-3.6-2-5.4c-0.4-1-0.7-2-1.1-3.1c-0.7-2-1.4-4.1-2.1-6.3
									c-0.7-2.1-1.3-4.4-2-6.6c-0.7-2.3-1.3-4.5-1.9-6.8c-0.9-3.4-1.8-6.9-2.6-10.5c-0.4-1.6-0.8-3.2-1.1-4.9
									c-0.4-1.6-0.7-3.2-1.1-4.8c-0.3-1.5-0.7-3-1-4.4c-1-4.9-2-9.7-2.9-14.4c-0.4-2-0.7-4-1.1-6c-0.2-1.4-0.5-2.8-0.7-4.2
									c-0.4-2.4-0.8-4.8-1.2-7c-0.2-1.3-0.4-2.6-0.6-3.9l-0.1-0.5l-3.2-22.8l-0.1-0.6l-0.1-1c-40.4,22.3-142.1,0.3-164,1.6
									c-2.4,0.1-3.9,0.6-4.2,1.4c-0.1,0.2-0.1,0.4-0.2,0.7c-0.1,0.3-0.1,0.6-0.2,1c-0.1,0.7-0.3,1.5-0.5,2.5
									c-0.1,0.7-0.3,1.5-0.4,2.3c-0.3,1.9-0.7,4.1-1.1,6.6c-0.2,1.3-0.4,2.6-0.7,4l0,0c-0.3,1.6-0.5,3.4-0.8,5.1
									c-0.6,3.6-1.3,7.4-2,11.5c-0.2,1.2-0.4,2.4-0.7,3.7c-0.4,2.3-0.8,4.5-1.3,6.8c-0.4,2.1-0.9,4.3-1.3,6.5v0.1
									c-0.7,3.4-1.5,6.9-2.2,10.3c-1.1,4.6-2.2,9.2-3.4,13.8c-0.9,3.4-1.8,6.8-2.8,10c-0.4,1.3-0.8,2.6-1.2,3.8
									c-0.4,1.3-0.8,2.5-1.2,3.7s-0.8,2.4-1.2,3.6c-0.4,1.1-0.8,2.3-1.3,3.4c-1.7,4.4-3.5,8.5-5.4,11.9
									c-6.9,12.4-10.2,9.1-11.2,14.7c-2.1-36-7.6-53.1-9.2-89.2c-0.8-18.7-0.8-36.4,2.1-52.4c1.2-6.7,2.8-13.1,5.2-19.1
									c35.5-92.2,208.7-94.8,248.4-5c1.8,4,3.4,7.9,4.7,11.7C409.2,810.8,397.5,854,387.8,911z"/>
								<path class="st15" d="M345.9,783.7l3.2,22.8C347.4,795.5,346.3,787.1,345.9,783.7z"/>
								<path class="st15" d="M363.3,874.1c0.7,2.2,1.3,4.4,2,6.6c-0.1-0.2-0.2-0.5-0.3-0.7C364.4,878,363.9,876.1,363.3,874.1z"/>
								<path class="st47" d="M144,905.2"/>
								<path class="st48" d="M396.6,1310.9l-44.5-4.9l23.5,39.2l-67.4,95.2L228,1553.6l-70.1-113.2l-63.5-102.5l37.5-71.1H94.4
									v-117.6l9.1-4.2l36.9-9.5l19.7-5.1l41.8-10.8l1.2,3.2l8.5,21.8l30.5,78.2l45.6-60.3l29.5-39l7-9.3l22.1,5.6l24,6.1
									l54.9,13.9c6.8,1.9,13.2,4.4,19,7.4c0.3,0.1,0.5,0.3,0.8,0.4L396.6,1310.9z"/>
								<path class="st6" d="M329.3,1108.7l-8.3,6.4c-29.8,23-70.4,23.5-100.6,1.1l-10.1-7.5l-5.1,13.2l30.5,336.3l73.4-190.7
									L329.3,1108.7z"/>
							</g>
						</g>
					</g>
				</g>
			</g>
			<g>
				<path class="st6" d="M4858.5,1377.9c1.9-3.3,3.8-6.7,5.7-10.1c201.6-372.4-173.7-706.3-510.8-620.3
					c-222.4,56.7-361.9,245.5-324.1,488.2C4091,1633.3,4663.8,1715.2,4858.5,1377.9z"/>
				<path class="st42" d="M4858.5,1377.9c1.9-3.3,3.8-6.7,5.7-10.1c201.6-372.4-173.7-706.3-510.8-620.3
					c-222.4,56.7-361.9,245.5-324.1,488.2C4091,1633.3,4663.8,1715.2,4858.5,1377.9z"/>
				<g>
					<g>
						<defs>
							<path id="SVGID_6_" d="M4858.5,1377.9c1.9-3.3,3.8-6.7,5.7-10.1c201.6-372.4-173.7-706.3-510.8-620.3
								c-222.4,56.7-361.9,245.5-324.1,488.2C4091,1633.3,4663.8,1715.2,4858.5,1377.9z"/>
						</defs>
						<clipPath id="SVGID_7_">
							<use xlink:href="#SVGID_6_"  style="overflow:visible;"/>
						</clipPath>
						<g class="st50">
							<path class="st51" d="M4587.2,1482l-313.5-113.3l64.2-232l4.6,0.1c0.4,0.5,0.9,0.9,1.3,1.4l16.1,15.5l0,0
								c2.4,6,5.2,12.3,8.3,19.1c10.8,23.8,24,53.1,42.7,74.8c0.2,0.2,0.4,0.4,0.6,0.6l-9.3,37.5l-15.6,62.8l-7.7,30.8l135.1,25.5
								l3.7-40.8l6.3-70l3.2-35.6c0.2-0.1,0.4-0.3,0.6-0.4c6.7-4.5,13-9.4,19.1-14.4c13.5-11.1,28.4-19.8,38.5-34.2
								c1.7-2.3,3.3-4.7,4.9-7.1l1.8-0.8l0.5-0.2L4587.2,1482z"/>
							<path class="st6" d="M4663.1,2018l-577.7-405.1l46.2-202.5c12.6-55.2,56.2-96.2,109.3-103.9c3.2-0.5,6.5-0.8,9.8-1.1
								l26.8-1.8l43.7-2.9l23.3-1.5l49.5-3.3l1.8-0.1l-1,4l-5.7,21.6l11.1,4.9l82.7,36.6l29.4,13l11.7-50.8l2.8-12.3l7,3.2l24,11.1
								l26,12l59.5,27.5c7.4,3.6,14.1,7.8,20.1,12.4c0.3,0.2,0.5,0.4,0.8,0.6c34.8,27.2,47.6,71,47.9,120.5L4663.1,2018z"/>
							<path class="st15" d="M4663.1,2018l-588.5-196.3l57-411.2c12.6-55.2,56.2-96.2,109.3-103.9c3.2-0.5,6.5-0.8,9.8-1.1l26.8-1.8
								l43.7-2.9l23.3-1.5l49.5-3.3l1.8-0.1l-1,4l-5.7,21.6l11.1,4.9l82.7,36.6l29.4,13l11.7-50.8l2.8-12.3l7,3.2l24,11.1l26,12
								l59.5,27.5c7.4,3.6,14.1,7.8,20.1,12.4c0.3,0.2,0.5,0.4,0.8,0.6c34.8,27.2,47.6,71,47.9,120.5L4663.1,2018z"/>
							<path class="st6" d="M4647.1,1151.9c-2.7,13.1-10.6,26-19.4,32.3c-0.1,0.1-0.3,0.3-0.5,0.4c-0.4,0.3-0.9,0.6-1.3,0.9
								c-2.7,1.7-5.4,3.2-8.3,4.5l-25.1,11.5l-0.5,0.2l-1.8,0.8c-1.6,2.4-3.2,4.8-4.9,7.1c-10,14.4-24.9,23.1-38.5,34.2
								c-6.1,5-12.4,9.9-19.1,14.4c-0.2,0.1-0.4,0.3-0.6,0.4l-3.2,35.6l-6.3,70l-3.7,40.8l-135.1-25.5l7.7-30.8l15.6-62.8l9.3-37.5
								c-0.2-0.2-0.4-0.4-0.6-0.6c-18.7-21.7-31.9-51-42.7-74.8c-3.1-6.9-5.9-13.1-8.3-19.1l0,0l-16.1-15.5
								c-0.4-0.5-0.9-0.9-1.3-1.4c-5.7-5.7-10.3-12.5-13.7-19.9c-3.6-8-5.9-16.6-6.4-25.6c-0.7-10.4,6.1-19.7,15.9-21.7l23.4-4.7
								c6.9-19.6,16.5-38.4,24.1-57.6c10.6-26.6,21.2-53.3,31.8-80l182.3-19.4l13.5,97.7c1,27.2,2.1,54.5,3.1,81.7
								c0.3,7.7,0.9,15.7,1.4,23.7l0.4,0.2l25.1,15.1c0.1,0.1,0.2,0.3,0.3,0.5C4648.3,1134,4648.9,1143,4647.1,1151.9z"/>
							<path class="st46" d="M4526,1282.2c-21.5,15-46.2,26.3-72.2,21.4c-20-3.8-36-16.1-49.2-32.1l6.3-23.8
								c12.9,15,28.3,26.3,47.4,30c24.9,4.7,48.7-5.5,69.5-19.5L4526,1282.2z"/>
							<path class="st51" d="M4612,878.8c28.6,27.8,47.7,61.2,46.6,102.5c-0.7,24.6-1.2,44.9-9.3,68.5
								c-7.8,22.8-18.3,44.5-26.3,67.2c-0.7,2.1-4.4,12.8-11.2-5.3c-0.4-1.1-0.8-2.1-1.1-3.3c-0.5-1.5-1-3.1-1.4-4.8
								c-0.5-1.9-1-3.9-1.5-5.9c0-0.1,0-0.3-0.1-0.4c-0.4-2-0.8-4-1.1-6.1c-0.2-1.1-0.4-2.3-0.6-3.4c-0.4-2.3-0.8-4.6-1-7
								c-0.3-2.4-0.6-4.8-0.9-7.3s-0.5-5-0.7-7.5c-0.3-3.8-0.6-7.6-0.8-11.5c-0.1-1.8-0.2-3.6-0.3-5.4c-0.1-1.8-0.2-3.5-0.2-5.3
								c-0.1-1.6-0.2-3.3-0.2-4.8c-0.2-5.3-0.3-10.6-0.4-15.7c0-2.2,0-4.4-0.1-6.5c0-1.5,0-3.1,0-4.6c0-2.6,0-5.1,0.1-7.6
								c0-1.5,0-2.9,0.1-4.2v-0.6l0.8-24.6l0.1-0.7v-1.1c-23.2,7.7-50.5,1.9-73.6-3.3c-23.3-5.2-56.4-21-80.3-13.4
								c-7,2.2-12.9,7.1-18.3,12.3c-15,14.4-25.1,30.9-33.7,49.8c-1.6,3.4-3.1,6.7-4.7,9.9c-0.6,1.2-1.3,2.5-1.9,3.7
								c-0.7,1.2-1.3,2.4-1.9,3.6s-1.3,2.4-1.9,3.5s-1.3,2.2-2,3.3c-2.6,4.3-5.2,8.2-7.9,11.4c-4.3,5.2-9.9,8-14.2,12.7
								c6.4-13.5,0.1-39-0.4-53.8c-0.7-21-1.3-42.1,0.9-63c2.3-21.3,3.8-48.5,15.3-67.1c7.6-12.2,18.9-21.3,30.6-29.3
								c29.5-20.1,64-28.9,99.1-29.3C4547.3,824,4583.9,851.5,4612,878.8z"/>
							<path class="st15" d="M4602.2,975.3l-0.8,24.6C4601.6,988,4602,979,4602.2,975.3z"/>
							<path class="st15" d="M4604,1073.5c0.3,2.5,0.6,4.9,0.9,7.3c-0.1-0.3-0.1-0.6-0.1-0.8
								C4604.4,1077.8,4604.2,1075.7,4604,1073.5z"/>
							<path class="st47" d="M4368.5,1062.5"/>
							<path class="st48" d="M4559.6,1537.8l-45.8-14l17.5,45.7l-87.9,86.4l-104.6,102.7l-53-132.5l-48-120l52.2-67.1l-39.3-7.4
								l21.3-123.3l10.3-2.6l40.4-2.7l21.5-1.4l45.8-3l0.7,3.6l4.9,24.5l17.8,88l58.8-54.1l38-35l9.1-8.3l22.2,10.3l24.1,11.1
								l55,25.4c6.8,3.4,13,7.2,18.6,11.5c0.2,0.2,0.5,0.4,0.7,0.6L4559.6,1537.8z"/>
							<path class="st6" d="M4525.7,1312.6l-9.9,5.1c-35.4,18.2-78,10.6-105.6-18.8l-9.2-9.9l-7.7,12.9l-29.1,358.5l111.6-185.3
								L4525.7,1312.6z"/>
						</g>
					</g>
				</g>
			</g>
		</g>
		<g>
			<g>
				<path class="st6" d="M875.4,2346.7V2179c0-1.6,1.3-3,3-3h454.1c1.6,0,3,1.3,3,3v167.7c0,1.6-1.3,3-3,3H878.4
					C876.8,2349.6,875.4,2348.3,875.4,2346.7z"/>
				<path class="st52" d="M875.4,2346.7V2179c0-1.6,1.3-3,3-3h454.1c1.6,0,3,1.3,3,3v167.7c0,1.6-1.3,3-3,3H878.4
					C876.8,2349.6,875.4,2348.3,875.4,2346.7z"/>
				<path class="st6" d="M859.3,2486.5v-143.2c0-1.6,1.3-3,3-3h613.4c1.6,0,3,1.3,3,3v143.2c0,1.6-1.3,3-3,3H862.3
					C860.6,2489.5,859.3,2488.1,859.3,2486.5z"/>
				<path class="st53" d="M859.3,2486.5v-143.2c0-1.6,1.3-3,3-3h613.4c1.6,0,3,1.3,3,3v143.2c0,1.6-1.3,3-3,3H862.3
					C860.6,2489.5,859.3,2488.1,859.3,2486.5z"/>
				<path class="st6" d="M1258.5,2300.6c7.8-28,0.9-60.9-0.4-89.3c-0.2-5.3-10.5-5.3-10.7,0c-1.3,28.5-8.2,61.4-0.4,89.3
					C1248.2,2305.3,1257.2,2305.3,1258.5,2300.6z"/>
				<path class="st6" d="M1204.7,2300.6c7.8-28,0.9-60.9-0.4-89.3c-0.2-5.3-10.5-5.3-10.7,0c-1.3,28.5-8.2,61.4-0.4,89.3
					C1194.4,2305.3,1203.4,2305.3,1204.7,2300.6z"/>
				<path class="st6" d="M1150.9,2300.6c7.8-28,0.9-60.9-0.4-89.3c-0.2-5.3-10.5-5.3-10.7,0c-1.3,28.5-8.2,61.4-0.4,89.3
					C1140.6,2305.3,1149.6,2305.3,1150.9,2300.6z"/>
			</g>
			<rect x="482.9" y="2478.3" class="st6" width="3665.3" height="212.4"/>
			<polygon class="st54" points="4162.6,2541.1 4162.6,2753.5 497.2,2753.5 497.2,2690.7 4148.2,2690.7 4148.2,2541.1 			"/>
			<g>
				<path class="st6" d="M4185.9,1698c-16.8,31.3-43,68.7-79.2,86.8c-5.5,2.8-7.9,10-5.7,16c5.3,14.7,2.3,44.8-67.2,91.2
					c-57.6,38.5-102.7,92-131.3,131.6h102.7l-21.6,103.3l-2.7,12.9l-1.3,6.1l-2.7,13l-12.8,61.1l0,0l-3.1,15l-7.8,37.1l-1.4,6.8
					l-2.9,13.9l-0.3,1.4l-20,95.6l-12.1,57.9l-2.7,12.8l-3.1,14.8h-248.9l-9.8-51.7l-11.6-61.1l-6.6-34.8l-8.2-43.2l0,0l-13.1-69
					l-0.9-4.8l-11.4-59.8l-3.4-18.2l-1.7-9.1l-19-100.1h174l-11.3-36.9c-6.8-2.7-14-5.5-21.3-8.3c-2-0.7-4-1.5-6-2.2
					c-1.2-0.4-2.4-0.9-3.7-1.3c-1.6-0.6-3.3-1.2-4.9-1.8c-1.3-0.5-2.7-0.9-4-1.4c-2.7-0.9-5.4-1.9-8.2-2.8c-1-0.3-1.9-0.6-2.9-1
					c-0.4-0.1-0.9-0.3-1.3-0.4c-1-0.3-1.9-0.6-2.9-1c-1.5-0.5-2.9-0.9-4.4-1.4c-1.4-0.4-2.8-0.9-4.2-1.3c-6.6-2-13.2-4-19.8-5.9
					c-1.5-0.4-3-0.8-4.4-1.2c-1.5-0.4-3.1-0.8-4.6-1.2c-0.9-0.2-1.8-0.5-2.6-0.7c-1.8-0.5-3.5-0.9-5.3-1.3c-8.2-2-16.5-3.9-24.7-5.5
					c-0.7-0.1-1.4-0.3-2.1-0.4c-1.7-0.3-3.3-0.6-5-0.9c-1.4-0.2-2.8-0.5-4.2-0.7c-0.5-0.1-0.9-0.2-1.4-0.2c-1.5-0.2-3-0.5-4.4-0.7
					c-0.6-0.1-1.1-0.2-1.7-0.2c-1-0.1-2-0.3-3-0.4c-1.5-0.2-3-0.4-4.4-0.6c-1.5-0.2-3-0.4-4.5-0.5c-0.8-0.1-1.5-0.2-2.3-0.2
					c-4.9-0.5-9.7-0.9-14.5-1.2c-1.7-0.1-3.4-0.2-5.1-0.2c-0.7,0-1.4,0-2.1-0.1c-4.6-0.1-9.2-0.1-13.6,0.1
					c-22.7,0.9-44.7-8.3-61.1-24.8l-33.8-33.7c6.2,6.2-43.2,26.6-45.9,27c-27.1,4.4-58.8-5.6-84.1-15.6
					c-64.2-25.2-132.3-83.7-151.7-155.2l96.1-56.9c87.6-51.8,198.1-30.6,262.4,50.3l14.8,18.7l68.3-6.2l18-1.6
					c14.1-1.3,27.9,2,39.7,9c-0.1-0.4-0.1-0.8-0.1-1.3v-6.2c0-12.8-11.4-22.7-23.3-19.7c-3.6,0.9-7.6,1.4-12.3,1.2
					c-29.8-0.9-107.5-121.8-147.6-157.7c-1-0.9-2-1.9-2.9-3c-1.2-1.4-2.3-3-3.3-4.7c-0.5-0.8-1-1.7-1.4-2.7
					c-1.1-2.3-2.1-4.8-2.9-7.4c-3.5-11.1-4.6-25.3-4.2-40.9c0-1.3,0.1-2.6,0.1-3.9c0.1-2.5,0.3-5.1,0.4-7.6c0.1-1.2,0.2-2.3,0.3-3.5
					c0.1-1,0.2-2,0.3-3c0.1-1.1,0.2-2.2,0.3-3.3c0.1-0.9,0.2-1.9,0.3-2.8c0.2-1.4,0.3-2.7,0.5-4.1c0-0.2,0.1-0.5,0.1-0.7
					c0.1-1,0.3-2,0.4-3c0.1-0.9,0.2-1.8,0.3-2.6c0.6-4.2,1.2-8.4,1.9-12.6c0.2-1.2,0.4-2.3,0.6-3.5c0.2-1.1,0.4-2.1,0.5-3.2
					c0.3-1.4,0.5-2.8,0.8-4.3c0.4-2.3,0.8-4.6,1.3-6.8c0.3-1.4,0.6-2.9,0.9-4.3c1.1-5.3,2.2-10.5,3.3-15.6c0.3-1.1,0.5-2.3,0.8-3.4
					c0.2-0.8,0.4-1.6,0.5-2.4c0.3-1.3,0.6-2.5,0.9-3.7c1.9-8.1,3.9-15.7,5.7-22.5l0.4-1.6c0.4-1.5,0.8-3,1.2-4.4
					c0.2-0.6,0.3-1.2,0.5-1.8c0.1-0.4,0.2-0.8,0.3-1.1c0-0.1,0.1-0.2,0.1-0.3l0,0l0,0c3.1-11.2,14.6-17.2,25.1-13.2
					c22,8.6,64.4,22.3,132.9,33.6c97.3,16.1,132.7,197.4,139.1,235.4c0.7,4.3,2.8,8.3,5.9,11.3c3.7,3.5,7.3,7.3,10.7,11.3
					c0.6,0.7,1.2,1.5,1.8,2.2c1.5,1.8,2.9,3.6,4.3,5.5c0.6,0.8,1.2,1.6,1.7,2.4c0.6,0.9,1.2,1.7,1.8,2.6c0.7,1,1.4,2,2.1,3
					c0.5,0.8,1.1,1.6,1.6,2.5c0.5,0.8,1,1.6,1.5,2.4c0.2,0.4,0.5,0.7,0.7,1.1c0.5,0.7,0.9,1.5,1.3,2.2c0.5,0.9,1.1,1.9,1.7,2.8
					c0.4,0.7,0.8,1.4,1.2,2.1s0.8,1.4,1.2,2.1c1.6,2.9,3.1,5.8,4.5,8.8c0.3,0.6,0.6,1.2,0.9,1.9c0.8,1.6,1.6,3.3,2.3,4.9
					c0.4,0.8,0.7,1.5,1,2.3s0.7,1.5,1,2.3c1,2.4,2,4.8,3,7.2c0.5,1.1,0.9,2.2,1.3,3.4c1.5,3.9,3,7.9,4.4,12c0.3,0.9,0.6,1.8,0.9,2.7
					c0.3,0.7,0.5,1.5,0.8,2.2c0.5,1.4,0.9,2.7,1.3,4.1c6.2-9.4,13-17.9,20.6-25.2c23.7-22.9,57.7-29.9,88.2-18.9l49.1,17.6
					c7.8,2.8,16-3.3,16-11.9c0-16.6,6.4-31.6,16.9-42.5c10.4-10.9,24.8-17.6,40.6-17.6h77.1c0.6,0,1.2,0,1.8,0
					c0.5,0,1.1,0.1,1.6,0.1c0.1,0,0.2,0,0.3,0c0.4,0,0.7,0.1,1.1,0.1c0.2,0,0.4,0.1,0.6,0.1c0.5,0.1,1.1,0.2,1.6,0.3
					c0.5,0.1,1,0.2,1.5,0.4c0.4,0.1,0.9,0.2,1.3,0.4c0.2,0.1,0.5,0.1,0.7,0.2c0.3,0.1,0.5,0.2,0.8,0.3c0.2,0.1,0.3,0.1,0.5,0.2
					c0.4,0.1,0.7,0.3,1,0.4s0.5,0.2,0.8,0.3c0,0,0.1,0,0.1,0.1c0.3,0.1,0.5,0.2,0.8,0.4c1.3,0.6,2.5,1.4,3.7,2.2
					c0.3,0.2,0.5,0.4,0.8,0.6c0.4,0.3,0.8,0.6,1.2,0.9c1.2,1,2.3,2,3.4,3.1c0.3,0.3,0.6,0.7,0.9,1c1.4,1.6,2.6,3.3,3.7,5.1
					c0.3,0.4,0.5,0.9,0.8,1.3c0,0,0,0,0,0.1c0.2,0.4,0.4,0.7,0.6,1.1c0.3,0.6,0.5,1.1,0.8,1.7c0.2,0.4,0.4,0.9,0.5,1.3
					c0.1,0.2,0.2,0.4,0.2,0.6c0.1,0.3,0.3,0.7,0.4,1c0.2,0.5,0.3,1,0.4,1.5c0.1,0.4,0.2,0.8,0.3,1.2c0.1,0.3,0.1,0.5,0.2,0.8
					c0.1,0.4,0.2,0.8,0.3,1.2c0.1,0.5,0.2,1,0.3,1.6v0.1c0.1,1,0.2,2,0.3,3.1C4190.3,1685.6,4189.1,1692,4185.9,1698z"/>
				<path class="st2" d="M4185.9,1698c-16.8,31.3-43,68.7-79.2,86.8c-5.5,2.8-7.9,10-5.7,16c5.3,14.7,2.3,44.8-67.2,91.2
					c-57.6,38.5-102.7,92-131.3,131.6h102.7l-21.6,103.3l-2.7,12.9l-1.3,6.1l-2.7,13l-12.8,61.1l0,0l-3.1,15l-7.8,37.1l-1.4,6.8
					l-2.9,13.9l-0.3,1.4l-20,95.6l-12.1,57.9l-2.7,12.8l-3.1,14.8h-248.9l-9.8-51.7l-11.6-61.1l-6.6-34.8l-8.2-43.2l0,0l-13.1-69
					l-0.9-4.8l-11.4-59.8l-3.4-18.2l-1.7-9.1l-19-100.1h174l-11.3-36.9c-6.8-2.7-14-5.5-21.3-8.3c-2-0.7-4-1.5-6-2.2
					c-1.2-0.4-2.4-0.9-3.7-1.3c-1.6-0.6-3.3-1.2-4.9-1.8c-1.3-0.5-2.7-0.9-4-1.4c-2.7-0.9-5.4-1.9-8.2-2.8c-1-0.3-1.9-0.6-2.9-1
					c-0.4-0.1-0.9-0.3-1.3-0.4c-1-0.3-1.9-0.6-2.9-1c-1.5-0.5-2.9-0.9-4.4-1.4c-1.4-0.4-2.8-0.9-4.2-1.3c-6.6-2-13.2-4-19.8-5.9
					c-1.5-0.4-3-0.8-4.4-1.2c-1.5-0.4-3.1-0.8-4.6-1.2c-0.9-0.2-1.8-0.5-2.6-0.7c-1.8-0.5-3.5-0.9-5.3-1.3c-8.2-2-16.5-3.9-24.7-5.5
					c-0.7-0.1-1.4-0.3-2.1-0.4c-1.7-0.3-3.3-0.6-5-0.9c-1.4-0.2-2.8-0.5-4.2-0.7c-0.5-0.1-0.9-0.2-1.4-0.2c-1.5-0.2-3-0.5-4.4-0.7
					c-0.6-0.1-1.1-0.2-1.7-0.2c-1-0.1-2-0.3-3-0.4c-1.5-0.2-3-0.4-4.4-0.6c-1.5-0.2-3-0.4-4.5-0.5c-0.8-0.1-1.5-0.2-2.3-0.2
					c-4.9-0.5-9.7-0.9-14.5-1.2c-1.7-0.1-3.4-0.2-5.1-0.2c-0.7,0-1.4,0-2.1-0.1c-4.6-0.1-9.2-0.1-13.6,0.1
					c-22.7,0.9-44.7-8.3-61.1-24.8l-33.8-33.7c6.2,6.2-43.2,26.6-45.9,27c-27.1,4.4-58.8-5.6-84.1-15.6
					c-64.2-25.2-132.3-83.7-151.7-155.2l96.1-56.9c87.6-51.8,198.1-30.6,262.4,50.3l14.8,18.7l68.3-6.2l18-1.6
					c14.1-1.3,27.9,2,39.7,9c-0.1-0.4-0.1-0.8-0.1-1.3v-6.2c0-12.8-11.4-22.7-23.3-19.7c-3.6,0.9-7.6,1.4-12.3,1.2
					c-29.8-0.9-107.5-121.8-147.6-157.7c-1-0.9-2-1.9-2.9-3c-1.2-1.4-2.3-3-3.3-4.7c-0.5-0.8-1-1.7-1.4-2.7
					c-1.1-2.3-2.1-4.8-2.9-7.4c-3.5-11.1-4.6-25.3-4.2-40.9c0-1.3,0.1-2.6,0.1-3.9c0.1-2.5,0.3-5.1,0.4-7.6c0.1-1.2,0.2-2.3,0.3-3.5
					c0.1-1,0.2-2,0.3-3c0.1-1.1,0.2-2.2,0.3-3.3c0.1-0.9,0.2-1.9,0.3-2.8c0.2-1.4,0.3-2.7,0.5-4.1c0-0.2,0.1-0.5,0.1-0.7
					c0.1-1,0.3-2,0.4-3c0.1-0.9,0.2-1.8,0.3-2.6c0.6-4.2,1.2-8.4,1.9-12.6c0.2-1.2,0.4-2.3,0.6-3.5c0.2-1.1,0.4-2.1,0.5-3.2
					c0.3-1.4,0.5-2.8,0.8-4.3c0.4-2.3,0.8-4.6,1.3-6.8c0.3-1.4,0.6-2.9,0.9-4.3c1.1-5.3,2.2-10.5,3.3-15.6c0.3-1.1,0.5-2.3,0.8-3.4
					c0.2-0.8,0.4-1.6,0.5-2.4c0.3-1.3,0.6-2.5,0.9-3.7c1.9-8.1,3.9-15.7,5.7-22.5l0.4-1.6c0.4-1.5,0.8-3,1.2-4.4
					c0.2-0.6,0.3-1.2,0.5-1.8c0.1-0.4,0.2-0.8,0.3-1.1c0-0.1,0.1-0.2,0.1-0.3l0,0l0,0c3.1-11.2,14.6-17.2,25.1-13.2
					c22,8.6,64.4,22.3,132.9,33.6c97.3,16.1,132.7,197.4,139.1,235.4c0.7,4.3,2.8,8.3,5.9,11.3c3.7,3.5,7.3,7.3,10.7,11.3
					c0.6,0.7,1.2,1.5,1.8,2.2c1.5,1.8,2.9,3.6,4.3,5.5c0.6,0.8,1.2,1.6,1.7,2.4c0.6,0.9,1.2,1.7,1.8,2.6c0.7,1,1.4,2,2.1,3
					c0.5,0.8,1.1,1.6,1.6,2.5c0.5,0.8,1,1.6,1.5,2.4c0.2,0.4,0.5,0.7,0.7,1.1c0.5,0.7,0.9,1.5,1.3,2.2c0.5,0.9,1.1,1.9,1.7,2.8
					c0.4,0.7,0.8,1.4,1.2,2.1s0.8,1.4,1.2,2.1c1.6,2.9,3.1,5.8,4.5,8.8c0.3,0.6,0.6,1.2,0.9,1.9c0.8,1.6,1.6,3.3,2.3,4.9
					c0.4,0.8,0.7,1.5,1,2.3s0.7,1.5,1,2.3c1,2.4,2,4.8,3,7.2c0.5,1.1,0.9,2.2,1.3,3.4c1.5,3.9,3,7.9,4.4,12c0.3,0.9,0.6,1.8,0.9,2.7
					c0.3,0.7,0.5,1.5,0.8,2.2c0.5,1.4,0.9,2.7,1.3,4.1c6.2-9.4,13-17.9,20.6-25.2c23.7-22.9,57.7-29.9,88.2-18.9l49.1,17.6
					c7.8,2.8,16-3.3,16-11.9c0-16.6,6.4-31.6,16.9-42.5c10.4-10.9,24.8-17.6,40.6-17.6h77.1c0.6,0,1.2,0,1.8,0
					c0.5,0,1.1,0.1,1.6,0.1c0.1,0,0.2,0,0.3,0c0.4,0,0.7,0.1,1.1,0.1c0.2,0,0.4,0.1,0.6,0.1c0.5,0.1,1.1,0.2,1.6,0.3
					c0.5,0.1,1,0.2,1.5,0.4c0.4,0.1,0.9,0.2,1.3,0.4c0.2,0.1,0.5,0.1,0.7,0.2c0.3,0.1,0.5,0.2,0.8,0.3c0.2,0.1,0.3,0.1,0.5,0.2
					c0.4,0.1,0.7,0.3,1,0.4s0.5,0.2,0.8,0.3c0,0,0.1,0,0.1,0.1c0.3,0.1,0.5,0.2,0.8,0.4c1.3,0.6,2.5,1.4,3.7,2.2
					c0.3,0.2,0.5,0.4,0.8,0.6c0.4,0.3,0.8,0.6,1.2,0.9c1.2,1,2.3,2,3.4,3.1c0.3,0.3,0.6,0.7,0.9,1c1.4,1.6,2.6,3.3,3.7,5.1
					c0.3,0.4,0.5,0.9,0.8,1.3c0,0,0,0,0,0.1c0.2,0.4,0.4,0.7,0.6,1.1c0.3,0.6,0.5,1.1,0.8,1.7c0.2,0.4,0.4,0.9,0.5,1.3
					c0.1,0.2,0.2,0.4,0.2,0.6c0.1,0.3,0.3,0.7,0.4,1c0.2,0.5,0.3,1,0.4,1.5c0.1,0.4,0.2,0.8,0.3,1.2c0.1,0.3,0.1,0.5,0.2,0.8
					c0.1,0.4,0.2,0.8,0.3,1.2c0.1,0.5,0.2,1,0.3,1.6v0.1c0.1,1,0.2,2,0.3,3.1C4190.3,1685.6,4189.1,1692,4185.9,1698z"/>
				<path class="st6" d="M4005.2,2023.6l-21.6,103.3l-2.7,12.9l-1.3,6.1l-2.7,13l-12.8,61.1l-3.2,15l-7.8,37.1l-1.4,6.8l-2.9,13.9
					l-0.3,1.4l-20,95.6l-12.1,57.9l-2.7,12.8l-3.1,14.8h-248.9l-9.8-51.7l-11.6-61.1l-6.6-34.8l-8.2-43.2l0,0l-13.1-69l-0.9-4.8
					l-11.4-59.8l0,0l0,0l-3.4-18.2l-1.7-9.1l-19-100.1h429.2V2023.6z"/>
				<path class="st53" d="M4005.2,2023.6l-21.6,103.3l-2.7,12.9l-1.3,6.1l-2.7,13l-12.8,61.1l-3.2,15l-7.8,37.1l-1.4,6.8l-2.9,13.9
					l-0.3,1.4l-20,95.6l-12.1,57.9l-2.7,12.8l-3.1,14.8h-248.9l-9.8-51.7l-11.6-61.1l-6.6-34.8l-8.2-43.2l0,0l-13.1-69l-0.9-4.8
					l-11.4-59.8l0,0l0,0l-3.4-18.2l-1.7-9.1l-19-100.1h429.2V2023.6z"/>
				<path class="st19" d="M4185.9,1698c-16.8,31.3-43,68.7-79.2,86.8c-5.5,2.8-7.9,10-5.7,16c5.3,14.7,2.3,44.8-67.2,91.2
					c-57.6,38.5-102.7,92-131.3,131.6h-112.6v-0.5c0-2.1,0.1-4.4,0.1-6.6c0-1.2,0.1-2.5,0.1-3.7s0-2.5,0.1-3.8
					c0.3-11.3,0.8-23.7,1.6-36.7c4.5-73.5,18.1-168.6,56.7-227.1c6.2-9.4,13-17.9,20.6-25.2c23.7-22.9,57.7-29.9,88.2-18.9
					l49.1,17.6c7.8,2.8,16-3.3,16-11.9c0-16.6,6.4-31.6,16.9-42.5c10.4-10.9,24.8-17.6,40.6-17.6h77.1c9.5,0,17.7,4,23.5,10.2
					c0.3,0.3,0.6,0.7,0.9,1C4190.4,1668.2,4193.3,1684.1,4185.9,1698z"/>
				<path class="st55" d="M3848.5,1745.1c-38.6,58.6-52.2,153.6-56.7,227.1c-0.8,13.1-1.3,25.4-1.6,36.7c0,1.2-0.1,2.5-0.1,3.8
					c0,1.2-0.1,2.5-0.1,3.7c0,2.3-0.1,4.5-0.1,6.6v0.5H3750l-11.3-36.9l-70.3-229.4c-0.5-1.6-0.8-3.2-0.9-4.8
					c-0.1-0.4-0.1-0.8-0.1-1.3v-6.2c0-12.8-11.4-22.7-23.3-19.7c-3.6,0.9-7.6,1.4-12.3,1.2c-29.8-0.9-107.5-121.8-147.6-157.7
					c-31.2-28-5-137.9,8-184.9c3.1-11.2,14.6-17.2,25.1-13.2c22,8.6,64.4,22.3,132.9,33.6c97.3,16.1,132.7,197.4,139.1,235.4
					c0.7,4.3,2.8,8.3,5.9,11.3c17,15.9,30.5,37.6,41.3,62.6C3841.1,1723.5,3845,1734.1,3848.5,1745.1z"/>
				<path class="st56" d="M3738.8,1986.7c-6.8-2.7-14-5.5-21.3-8.3c-53.6-20-119.3-39-172.5-37c-22.7,0.9-44.7-8.3-61.1-24.8
					l-33.8-33.7c6.2,6.2-43.2,26.6-45.9,27c-27.1,4.4-58.8-5.6-84.1-15.6c-64.2-25.2-132.3-83.7-151.7-155.2l96.1-56.9
					c87.6-51.8,198.1-30.6,262.4,50.3l14.8,18.7l68.3-6.2l18-1.6c14.1-1.3,27.9,2,39.7,9c0.1,1.6,0.4,3.3,0.9,4.8l44,143.5l2.7,9
					L3738.8,1986.7z"/>
				<g class="st57">
					<g>
						<path class="st6" d="M3696.1,2145.2c-39.7,0-74.1,1.6-95.9,5.7l0,0l-5.2-27.3l26.8-22.3L3696.1,2145.2z"/>
						<path class="st6" d="M3916.5,2447.7l-2.7,12.8l-166.5-79l-72.4-34.3l-41.2-19.6l-8.2-43.2l0,0l-13.1-69l-0.9-4.8
							c1.1,1,2.2,2.1,3.4,3.2c15.9,14.9,35.6,31.9,57.7,49.9c21.2,17.4,44.6,35.8,68.6,54.3c18.2,14,36.8,28.1,55.2,41.9
							C3840.7,2393.1,3883.7,2424.2,3916.5,2447.7z"/>
						<path class="st6" d="M3953.2,2272.1l-1.4,6.8l-2.9,13.9l-0.3,1.4l0,0l-1.2-0.7l-64.2-37.9l-82-48.4l-93.3-55l-11.7-6.9
							c7.1,0,14.5,0,21.9,0.1c52.6,0.7,111.7,3.6,162.6,6.7l9.6,15.9l40.3,66.8L3953.2,2272.1z"/>
						<path class="st6" d="M3980.9,2139.8l-4,19.1c-22.6-1.8-57-4.4-96.3-6.8l-77.7-128.5h46L3980.9,2139.8z"/>
					</g>
				</g>
				<g class="st58">
					<path class="st35" d="M3492.6,1383.6c10.6,9.1,20.9,18.7,31,28.4c10.1,9.7,20,19.7,29.7,29.8c19.4,20.3,38.2,41.3,56.2,63.1
						c18,21.8,35.1,44.2,51.4,67.4c16.3,23.2,31.6,47.1,45.8,71.8c7.1,12.3,13.9,24.9,20.4,37.6s12.6,25.6,18.4,38.7
						c5.7,13.1,11.1,26.4,16,39.9s9.2,27.2,13.1,41c3.9,13.9,7.1,27.9,10,42l2,10.6c0.6,3.5,1.1,7.1,1.7,10.7l0.8,5.3l0.7,5.4
						c0.4,3.6,0.9,7.1,1.3,10.7c1.5,14.3,2.3,28.7,2.7,43.1v10.8v2.7l-0.1,2.7l-0.2,5.4c-0.1,7.2-0.8,14.4-1.3,21.5h-0.6
						c0.3-14.3,0.3-28.7-0.6-43c-0.8-14.3-2.1-28.5-4.1-42.7c-2.1-14.1-4.4-28.2-7.5-42.1s-6.5-27.7-10.5-41.4
						c-16-54.6-38.7-107-66.3-156.4c-13.9-24.7-28.8-48.7-44.8-72c-15.9-23.3-32.8-45.9-50.5-67.8c-17.6-21.9-36-43.2-55.2-63.8
						c-9.6-10.3-19.3-20.4-29.3-30.2c-10-9.9-20.1-19.6-30.5-28.8L3492.6,1383.6z"/>
				</g>
				<g class="st58">
					<path class="st35" d="M3715.2,1909.8c-4.9-4.2-9.9-8.2-15-12.2c-11-8.5-22.2-16.7-33.7-24.3c-46.1-30.6-95.9-55.1-147.6-73.9
						c-25.9-9.3-52.2-17.4-78.8-24.3s-53.5-12.6-80.5-17.2c-27-4.7-54.3-8.4-81.6-11c-13.7-1.3-27.3-2.4-41-3.1s-27.4-1.3-41.1-1.2
						v-0.6c13.7-0.3,27.5,0,41.2,0.6c13.7,0.5,27.4,1.4,41.1,2.5c27.4,2.2,54.7,5.5,81.9,9.8c27.2,4.4,54.2,9.8,81,16.4
						s53.3,14.4,79.4,23.5c13.1,4.6,26,9.5,38.8,14.7c12.8,5.3,25.5,10.9,38,16.9c12.5,6.1,24.8,12.6,36.9,19.5
						c12.1,7,23.9,14.4,35.5,22.3c11.5,7.9,22.7,16.3,33.7,25.1l8.1,6.8c0.3,0.3,0.7,0.6,1,0.8L3715.2,1909.8z"/>
				</g>
				<g class="st58">
					<path class="st35" d="M4181.4,1657.9c-9.9,5.7-19.7,11.5-29.5,17.5c-23.6,14.5-46.8,30-69.3,46.3
						c-22.6,16.2-44.6,33.4-65.8,51.5c-21.3,18-41.8,37.1-61.4,57.1c-39.1,40-74.2,84.3-103.4,132.6c-7.3,12-14.1,24.4-20.6,37
						c-3,5.8-5.9,11.7-8.6,17.7l-1.2-9.3c0.2-0.4,0.4-0.8,0.6-1.2l4.6-9.7c6.3-12.8,13-25.5,20.2-37.7c7.3-12.2,14.9-24.3,23-35.9
						c8.2-11.6,16.6-23,25.5-34.1c8.9-11,18.1-21.8,27.5-32.3c9.5-10.4,19.2-20.6,29.1-30.6c19.9-19.9,40.7-38.8,62.3-56.6
						c21.5-17.9,43.8-34.8,66.6-50.9c22.8-16,46.2-31.1,70.1-45.3c9.7-5.8,19.5-11.4,29.4-16.9
						C4180.8,1657.2,4181.1,1657.5,4181.4,1657.9z"/>
				</g>
				<path class="st42" d="M3738.8,1986.7c-6.8-2.7-14-5.5-21.3-8.3c-23.5-62.7-87.4-192.7-107.5-233.3l18-1.6
					c14.1-1.3,27.9,2,39.7,9c0.1,1.6,0.4,3.3,0.9,4.8l44,143.5l2.7,9L3738.8,1986.7z"/>
				<path class="st42" d="M3836.7,1713.5c4.3,10,8.2,20.6,11.7,31.6c-38.6,58.6-52.2,153.6-56.7,227.1c-0.8,13.1-1.3,25.4-1.6,36.7
					c0,1.2-0.1,2.5-0.1,3.8c0,1.2-0.1,2.5-0.1,3.7c0,2.3-0.1,4.5-0.1,6.6v0.5H3754C3734.9,1902.2,3800.1,1774,3836.7,1713.5z"/>
			</g>
			<path class="st59" d="M4059.5,2648.8v376.6c-12.6,3.2-25.2,6.3-37.8,9.1c-4.6,1.1-9.3,2.1-14,3.2c0.1-0.7,0.3-1.4,0.5-2.1
				c-53.9,10-107.4,15-160.7,16.1c-53.4,1.1-106.5-1.6-159.4-7.2c-275.1-28.8-546.2-132.3-827.1-152.8
				c-288.2-21.1-585.1,14-846.1,143.4c-208.9,103.6-407.4,179.7-614.2,195.8h-0.4c-0.6,0-1.2,0.1-1.7,0.1c-12.2,0.4-24.4,0.8-36.6,1
				c-26.6,0.4-53.2,0.2-79.7-0.7c-3.9-0.1-7.9-0.3-11.8-0.5h-0.1c-27.8-1.2-55.6-3.2-83.2-6.2c-0.2,0-0.4,0-0.5-0.1
				c-9.6-1-19.2-2.2-28.8-3.4c-10.9-1.4-21.8-3-32.6-4.8c-66.4-10.7-132-27.4-196.3-51.7c-27-10.2-53.7-22.1-79.9-35.6l0,0
				c-3.9-2-7.8-4-11.6-6.1c-51.4-27.5-100.5-61.2-145-99.9c-2-1.7-3.9-3.4-5.9-5.1c-36.8-32.6-70.4-68.8-99.3-107.8l0,0
				c-24.4-32.9-45.6-68-62.5-104.6c-4.3-9.3-8.4-18.8-12.1-28.3l0,0c-1.6-4-3.1-8-4.6-12.1l0,0c-1.4-3.8-2.7-7.6-4.1-11.5
				c-1.3-3.8-2.5-7.5-3.7-11.3l0,0c-1-3.1-1.9-6.1-2.8-9.1c-4.1-13.9-7.6-28.1-10.4-42.3c-0.2-0.9-0.3-1.7-0.5-2.6l0,0
				c-0.7-3.8-1.4-7.7-2.1-11.5c-0.1-0.8-0.3-1.6-0.4-2.4c-0.3-2-0.7-4.1-0.9-6.1c-0.9-6.4-1.5-12.8-1.9-19.2h3578.2V2648.8z"/>
			<path class="st29" d="M3210.2,2365.4l-17.6,11.4c-6.3-47.6-67.5-115.4-84.4-133.4C3108.2,2243.4,3176.3,2291.4,3210.2,2365.4z"/>
			<polygon class="st15" points="4148.2,2604.9 4148.2,2690.7 482.9,2690.7 482.9,2487.4 			"/>
			<ellipse class="st6" cx="1789.4" cy="1070.9" rx="22" ry="23"/>
			<g class="st60">
				
					<linearGradient id="SVGID_8_" gradientUnits="userSpaceOnUse" x1="3807.4258" y1="1536.2111" x2="3810.7458" y2="1350.2708" gradientTransform="matrix(1 0 0 -1 0 3576)">
					<stop  offset="0" style="stop-color:#FFFFFF"/>
					<stop  offset="1" style="stop-color:#FFFFFF;stop-opacity:0"/>
				</linearGradient>
				<polygon class="st61" points="4005.2,2023.6 3983.6,2126.9 3972,2132 3920.4,2154.7 3920.4,2154.7 3890.2,2168 3801.1,2207.2 
					3725.7,2240.4 3672.6,2263.8 3625.6,2284.5 3612.5,2215.5 3614.9,2213.9 3707.9,2152.1 3718.1,2145.4 3783.2,2102.1 
					3834.3,2075.4 3880.5,2051.3 3933.6,2023.6 				"/>
				
					<linearGradient id="SVGID_9_" gradientUnits="userSpaceOnUse" x1="3802.2415" y1="1285.2745" x2="3804.2861" y2="1170.7574" gradientTransform="matrix(1 0 0 -1 0 3576)">
					<stop  offset="0" style="stop-color:#FFFFFF"/>
					<stop  offset="1" style="stop-color:#FFFFFF;stop-opacity:0"/>
				</linearGradient>
				<polygon class="st62" points="3964.1,2219.9 3961,2235 3953.2,2272.1 3951.8,2278.9 3948.9,2292.8 3948.9,2292.8 3947.4,2293.5 
					3796.4,2360 3747.4,2381.6 3652,2423.6 3640.4,2362.5 3675,2347.2 3741.2,2318.1 3883.1,2255.6 3930.6,2234.7 				"/>
			</g>
		</g>
		<g>
			<g>
				<g>
					<path class="st6" d="M4650.3,2377.8l-7.6,44.3c-24.9,145.6-131.9,260.8-270.4,291.1l-16,3.5l10.1-51
						c25.6-129.2,116.4-233.6,236.9-272.7L4650.3,2377.8z"/>
					<path class="st6" d="M4213.6,2791.5l38.7-7.8c127.2-25.6,257.1,31.8,328.3,145.3l8.2,13.1l-45,7.7
						c-114.1,19.6-229.8-26.9-302.1-121.5L4213.6,2791.5z"/>
					<path class="st63" d="M4650.3,2377.8l-7.6,44.3c-24.9,145.6-131.9,260.8-270.4,291.1l-16,3.5l10.1-51
						c25.6-129.2,116.4-233.6,236.9-272.7L4650.3,2377.8z"/>
					<path class="st6" d="M4213.6,2791.5l38.7-7.8c127.2-25.6,257.1,31.8,328.3,145.3l8.2,13.1l-45,7.7
						c-114.1,19.6-229.8-26.9-302.1-121.5L4213.6,2791.5z"/>
					<path class="st6" d="M4920,2691.2l-36.6,23.6c-120.4,77.6-273.9,70.9-387.7-16.8l-13.2-10.2l43.1-26.1
						c109.2-66.1,244.2-64.9,352.4,3L4920,2691.2z"/>
					<path class="st6" d="M4920,2691.2l-36.6,23.6c-120.4,77.6-273.9,70.9-387.7-16.8l-13.2-10.2l43.1-26.1
						c109.2-66.1,244.2-64.9,352.4,3L4920,2691.2z"/>
					<path class="st6" d="M4650.3,2377.8l-7.6,44.3c-24.9,145.6-131.9,260.8-270.4,291.1l-16,3.5l10.1-51
						c25.6-129.2,116.4-233.6,236.9-272.7L4650.3,2377.8z"/>
					<path class="st6" d="M4079.7,2825.4l4.5,50.1l13.4-9.3c63.3-43.8,111.5-107,139.5-178.4c0-0.1,0-0.1,0.1-0.2
						c23.2-59.2,32.6-124.1,25.3-188.3l-4.9-43.1l-37.9,31.6c-15.4,12.9-29.7,26.9-42.8,41.9
						C4106.7,2609.9,4070.2,2718.5,4079.7,2825.4z"/>
					<path class="st6" d="M4213.6,2791.5l28.1,36.8c52.5,68.7,127.9,112,208.9,123.1c30.6,4.2,62,3.8,93.2-1.6l45-7.7l-8.2-13.1
						c-49-78.1-125.8-129.7-210.5-145.9h-0.1c-38.3-7.3-78.1-7.4-117.7,0.6L4213.6,2791.5z"/>
					<g class="st64">
						<g>
							<path class="st35" d="M3972.2,3007.4c3.3,0.7,6.6,1.4,9.9,2.1c17.3-28.1,36.7-53.9,57.7-77.5c2.5-2.8,4.9-5.6,7.5-8.3
								c17.9-19.4,36.8-37.3,56.5-53.9c35.3-29.7,73-55,111.3-76.5c2.1-1.2,4.2-2.4,6.3-3.5c69.9-38.5,141.3-64.6,203.2-82.2
								c9.4-2.6,18.6-5.2,27.8-7.5c11.9-3.1,23.7-5.9,35.2-8.5l0,0c14.4-3.3,28.5-6.2,42-8.7c104.9-19.9,181.3-20.9,182.3-20.9
								c2.6,0,4.7-2.3,4.7-5s-2.2-5-4.8-4.9c-1,0-76.3,0.9-180.1,20.3c-11.7,2.2-23.7,4.6-36.1,7.3c-3.6,0.8-7.1,1.6-10.7,2.4
								c-10.1,2.3-20.5,4.8-30.9,7.4c-10.4,2.6-20.9,5.4-31.6,8.4c-0.1,0-0.1,0.1-0.2,0c-15.9,4.5-31.5,9.3-46.8,14.4
								c-73,24.2-139.1,54.6-197.1,90.9c-9.7,6.1-19.1,12.3-28.3,18.6c-15.7,10.8-30.7,22.1-45,33.9c-7.2,5.9-14.2,11.9-21.1,18
								c-16.7,15-32.5,30.6-47.2,46.9c-2.5,2.8-5,5.6-7.4,8.4c-21.3,24.5-40.2,50.4-56.8,77.6
								C3972.4,3007,3972.3,3007.2,3972.2,3007.4z"/>
						</g>
					</g>
					<path class="st65" d="M4648.9,2387.3l-7.6,44.3c-24.9,145.6-131.9,260.8-270.4,291.1l-16,3.5l10.1-51
						c25.6-129.2,116.4-233.6,236.9-272.7L4648.9,2387.3z"/>
					<path class="st39" d="M4079.7,2825.4l4.5,50.1l13.4-9.3c63.3-43.8,111.5-107,139.5-178.4c0-0.1,0-0.1,0.1-0.2
						c18.1-56.2,24.7-116.3,17.9-175.7l-5.3-46.1l-40.6,33.9c-11.4,9.5-22.2,19.6-32.4,30.2
						C4106.7,2609.9,4070.2,2718.5,4079.7,2825.4z"/>
					<path class="st51" d="M4229.3,2794l28.1,36.8c49.1,64.2,118.2,106.3,193.1,120.5c30.6,4.2,62,3.8,93.2-1.6l45-7.7l-8.2-13.1
						c-49-78.1-125.8-129.7-210.5-145.9h-0.1c-33.4-4.6-67.8-3.7-102,3.2L4229.3,2794z"/>
					<path class="st6" d="M4920,2691.2l-36.6,23.6c-120.4,77.6-273.9,70.9-387.7-16.8l-13.2-10.2l43.1-26.1
						c109.2-66.1,244.2-64.9,352.4,3L4920,2691.2z"/>
					<path class="st66" d="M4920,2691.2l-36.6,23.6c-120.4,77.6-273.9,70.9-387.7-16.8l-13.2-10.2l43.1-26.1
						c109.2-66.1,244.2-64.9,352.4,3L4920,2691.2z"/>
				</g>
				<g>
					<path class="st6" d="M1251.9,3146.9L1251.9,3146.9c-4.3,1-8.6,2-13,3c-0.4,0.1-0.8,0.2-1.2,0.3l0,0l-0.1-0.1
						c-2.5-1.1-5.5-2.5-9.1-4c-3.7-1.6-8.1-3.4-12.9-5.3c-0.6-0.2-1.2-0.5-1.8-0.7c-29-11.3-75.6-26.7-130.8-35.1
						c-14.2-2.2-29-3.9-44.2-4.9c-21.8-1.5-45.5-1.6-70.2,0.4c-3.6,0.3-7.2,0.6-10.8,1l0,0c-23.1,2.5-47,6.9-71.2,14.1
						c-19,5.6-38.1,12.8-57.1,22.1c-5.1,2.5-10.3,5.2-15.4,8c-11.1,6.1-22.1,12.8-32.9,20.4c-36.7,25.5-72.1,59.9-103.7,105.9
						c-0.9,1.4-2.4,2-3.8,2c-0.1,0-0.2,0-0.3,0c-0.9,0-1.7-0.3-2.5-0.9c-0.7-0.5-1.2-1.2-1.5-2c-0.7-1.5-0.5-3.4,0.5-4.9
						c28.9-41.8,62.1-76.5,99.3-103.8c25.2-18.5,52.3-33.5,81-45c13-5.2,26.4-9.7,40.1-13.5c19.8-5.5,40.3-9.5,61.4-11.9
						c3.6-0.4,7.2-0.8,10.9-1.2c24.9-2.3,50.7-2.5,77.3-0.7c11.2,0.8,22.2,1.9,32.9,3.3c56.2,7.3,104.6,22.3,136.6,34.3
						c3,1.1,5.9,2.2,8.5,3.3c2.6,1,4.9,1.9,7.2,2.9c3.3,1.4,6.3,2.6,9,3.8c10.1,4.3,15.8,7.2,16,7.3
						C1250.8,3145.5,1251.4,3146.1,1251.9,3146.9z"/>
				</g>
				<path class="st6" d="M680.1,3258.5l-27.4,12.8c-89.9,41.9-146.9,136.9-144.1,240l0.3,11.9l31.3-15.7
					c79.2-39.7,132-121.4,137.6-213.3L680.1,3258.5z"/>
				<path class="st6" d="M827.8,3131.8l-21.5,21.8c-70.7,71.7-93,181.4-56.4,277.2l4.2,11.1l24.2-26c61.3-65.8,84-161.4,59.1-249.8
					L827.8,3131.8z"/>
				<path class="st27" d="M827.8,3131.8l-21.5,21.8c-70.7,71.7-93,181.4-56.4,277.2l4.2,11.1l24.2-26c61.3-65.8,84-161.4,59.1-249.8
					L827.8,3131.8z"/>
				<g class="st64">
					<g>
						<path class="st35" d="M1251.9,3146.9L1251.9,3146.9c-4.3,1-8.6,2-13,3c-0.4,0.1-0.8,0.2-1.2,0.3l0,0l-0.1-0.1
							c-2.5-1.1-5.5-2.5-9.1-4c-3.7-1.6-8.1-3.4-12.9-5.3c-0.6-0.2-1.2-0.5-1.8-0.7c-29-11.3-75.6-26.7-130.8-35.1
							c-14.2-2.2-29-3.9-44.2-4.9c-21.8-1.5-45.5-1.6-70.2,0.4c-3.6,0.3-7.2,0.6-10.8,1l0,0c-23.1,2.5-47,6.9-71.2,14.1
							c-19,5.6-38.1,12.8-57.1,22.1c-5.1,2.5-10.3,5.2-15.4,8c-11.1,6.1-22.1,12.8-32.9,20.4c-36.7,25.5-72.1,59.9-103.7,105.9
							c-0.9,1.4-2.4,2-3.8,2c-0.1,0-0.2,0-0.3,0c-0.9,0-1.7-0.3-2.5-0.9c-0.7-0.5-1.2-1.2-1.5-2c-0.7-1.5-0.5-3.4,0.5-4.9
							c28.9-41.8,62.1-76.5,99.3-103.8c25.2-18.5,52.3-33.5,81-45c13-5.2,26.4-9.7,40.1-13.5c19.8-5.5,40.3-9.5,61.4-11.9
							c3.6-0.4,7.2-0.8,10.9-1.2c24.9-2.3,50.7-2.5,77.3-0.7c11.2,0.8,22.2,1.9,32.9,3.3c56.2,7.3,104.6,22.3,136.6,34.3
							c3,1.1,5.9,2.2,8.5,3.3c2.6,1,4.9,1.9,7.2,2.9c3.3,1.4,6.3,2.6,9,3.8c10.1,4.3,15.8,7.2,16,7.3
							C1250.8,3145.5,1251.4,3146.1,1251.9,3146.9z"/>
					</g>
				</g>
				<path class="st42" d="M680.1,3258.5l-27.4,12.8c-89.9,41.9-146.9,136.9-144.1,240l0.3,11.9l31.3-15.7
					c79.2-39.7,132-121.4,137.6-213.3L680.1,3258.5z"/>
				<g>
					<path class="st6" d="M1013.4,3186.9c-3.3,0.2-6.7,0.4-10.1,0.5c-13-30.5-28.3-59.1-45.6-85.9c-2-3.2-4.1-6.3-6.2-9.4
						c-14.8-22-30.8-42.8-47.9-62.3c-30.5-35.1-64-66.1-98.7-93.5c-1.9-1.5-3.8-3-5.7-4.5c-63.3-49.4-130-86.7-188.7-114
						c-8.9-4.1-17.6-8.1-26.3-11.9c-11.3-4.9-22.5-9.6-33.5-14l0,0c-13.8-5.6-27.2-10.7-40.2-15.4c-100.7-36.6-176-49.9-177-50
						c-2.6-0.4-4.3-3-3.9-5.7s2.9-4.5,5.4-4.1c1,0.2,75.2,13.2,175,49.2c11.2,4.1,22.8,8.4,34.6,13c3.4,1.3,6.8,2.7,10.2,4.1
						c9.7,3.9,19.5,8,29.5,12.3c9.9,4.2,19.9,8.7,29.9,13.4c0.1,0,0.1,0.1,0.2,0.1c15.1,7,29.8,14.3,44.1,21.8
						c68.6,35.6,129.4,76.4,181.3,121.6c8.7,7.5,17.1,15.2,25.2,23c13.9,13.2,27,26.8,39.5,40.8c6.2,7,12.3,14,18.2,21.2
						c14.3,17.5,27.6,35.5,39.7,54c2.1,3.2,4.1,6.3,6.1,9.5c17.4,27.6,32.3,56.2,44.7,85.8
						C1013.3,3186.5,1013.3,3186.7,1013.4,3186.9z"/>
				</g>
				<path class="st67" d="M4823.9,2475.5"/>
				<g>
					<g>
						<g>
							<g>
								<path class="st6" d="M4475.3,3130c-1.8,0-3.6-0.9-4.7-2.6c-10.1-15.2-21.5-29.5-33.8-42.5
									c-93.5-99.2-232.6-115.8-332.8-112.2c-109.1,3.9-196.9,31.8-197.7,32c-3.1,1-6.3-0.8-7.2-4s0.8-6.6,3.8-7.6
									c0.9-0.3,90.1-28.6,200.7-32.6c102.5-3.6,245,13.5,341.5,115.8c12.7,13.5,24.5,28.3,35,44c1.8,2.7,1.2,6.5-1.4,8.4
									C4477.6,3129.6,4476.4,3130,4475.3,3130z"/>
							</g>
						</g>
						<g>
							<path class="st6" d="M4220.5,3246.2c0,0,22-215.2-196.4-277.5C4024.1,2968.8,3975.8,3162.2,4220.5,3246.2z"/>
						</g>
						<path class="st6" d="M4496.3,2833.7c0,0-193.7-76.4-306.2,129C4190.1,2962.7,4357.1,3060.2,4496.3,2833.7z"/>
						<path class="st6" d="M4398.5,3079.1c5-16.3,212.5,58.8,146.9,278.4C4545.4,3357.6,4333,3290.4,4398.5,3079.1z"/>
					</g>
				</g>
				<g class="st64">
					<g>
						<g>
							<g>
								<path class="st35" d="M4475.3,3130c-1.8,0-3.6-0.9-4.7-2.6c-10.1-15.2-21.5-29.5-33.8-42.5
									c-93.5-99.2-232.6-115.8-332.8-112.2c-109.1,3.9-196.9,31.8-197.7,32c-3.1,1-6.3-0.8-7.2-4s0.8-6.6,3.8-7.6
									c0.9-0.3,90.1-28.6,200.7-32.6c102.5-3.6,245,13.5,341.5,115.8c12.7,13.5,24.5,28.3,35,44c1.8,2.7,1.2,6.5-1.4,8.4
									C4477.6,3129.6,4476.4,3130,4475.3,3130z"/>
							</g>
						</g>
						<g class="st68">
							<path class="st35" d="M4220.5,3246.2c0,0,22-215.2-196.4-277.5C4024.1,2968.8,3975.8,3162.2,4220.5,3246.2z"/>
						</g>
						<path class="st35" d="M4496.3,2833.7c0,0-193.7-76.4-306.2,129C4190.1,2962.7,4357.1,3060.2,4496.3,2833.7z"/>
						<g class="st69">
							<path class="st35" d="M4398.5,3039.1c5-16.3,212.5,58.8,146.9,278.4C4545.4,3317.5,4333,3250.4,4398.5,3039.1z"/>
						</g>
					</g>
				</g>
				<g>
					<g>
						<path class="st6" d="M4018.7,2941.9L4018.7,2941.9c-0.1,5.4-0.3,10.9-0.6,16.2c-0.2,3.4-0.4,6.9-0.6,10.3
							c-0.3,4.1-0.6,8.3-1,12.4c-1.7,19-4.3,37.5-8.2,54.8c-53.9,10-107.4,15-160.7,16.1c-53.4,1.1-106.5-1.6-159.4-7.2
							c30.4-87,103.2-219.3,260.6-290.9c16.7-7.7,34.4-14.6,53.2-20.7c0,0,0.5,2.5,1.2,7.1c0.6,3.4,1.3,8,2.2,13.6
							C4010.8,2789.2,4020.7,2865.9,4018.7,2941.9z"/>
					</g>
					<path class="st70" d="M4018.7,2941.9L4018.7,2941.9c-0.1,5.4-0.3,10.9-0.6,16.2c-0.2,3.4-0.4,6.9-0.6,10.3
						c-0.3,4.1-0.6,8.3-1,12.4c-1.7,19-4.3,37.5-8.2,54.8c-53.9,10-107.4,15-160.7,16.1c47.4-116.7,104.2-223.1,147.6-298.1
						c2.7-4.7,5.4-9.2,7.9-13.6c0.6,3.4,1.3,8,2.2,13.6C4010.8,2789.2,4020.7,2865.9,4018.7,2941.9z"/>
				</g>
				<g>
					<g class="st31">
						<path class="st71" d="M4018.7,2941.9L4018.7,2941.9c-0.1,5.4-0.3,10.9-0.6,16.2c-0.2,3.4-0.4,6.9-0.6,10.3
							c-0.3,4.1-0.6,8.3-1,12.4c-1.7,19-4.3,37.5-8.2,54.8c-53.9,10-107.4,15-160.7,16.1c-53.4,1.1-106.5-1.6-159.4-7.2
							c30.4-87,103.2-219.3,260.6-290.9c16.7-7.7,34.4-14.6,53.2-20.7c0,0,0.5,2.5,1.2,7.1c0.6,3.4,1.3,8,2.2,13.6
							C4010.8,2789.2,4020.7,2865.9,4018.7,2941.9z"/>
					</g>
					<path class="st72" d="M4018.7,2941.9L4018.7,2941.9c-0.1,5.4-0.3,10.9-0.6,16.2c-0.2,3.4-0.4,6.9-0.6,10.3
						c-0.3,4.1-0.6,8.3-1,12.4c-1.7,19-4.3,37.5-8.2,54.8c-53.9,10-107.4,15-160.7,16.1c47.4-116.7,104.2-223.1,147.6-298.1
						c2.7-4.7,5.4-9.2,7.9-13.6c0.6,3.4,1.3,8,2.2,13.6C4010.8,2789.2,4020.7,2865.9,4018.7,2941.9z"/>
				</g>
				<g>
					<path class="st6" d="M436.3,2455.5l1,45c3.1,147.9,91.8,278.9,224.1,331.2l15.3,6.1l-2.5-52c-6.3-131.8-80.5-249.6-193.8-307.7
						L436.3,2455.5z"/>
					<path class="st6" d="M806.8,2934.6l-37.1-14c-121.9-45.9-258.8-10-345.8,90.5l-10.1,11.6l43.3,14.9
						c109.8,37.8,231,10.5,316.5-71.3L806.8,2934.6z"/>
					<path class="st63" d="M436.3,2455.5l1,45c3.1,147.9,91.8,278.9,224.1,331.2l15.3,6.1l-2.5-52
						c-6.3-131.8-80.5-249.6-193.8-307.7L436.3,2455.5z"/>
					<path class="st6" d="M806.8,2934.6l-37.1-14c-121.9-45.9-258.8-10-345.8,90.5l-10.1,11.6l43.3,14.9
						c109.8,37.8,231,10.5,316.5-71.3L806.8,2934.6z"/>
					<path class="st6" d="M123.6,2721.5l32.7,29.2c107.5,96.1,260.1,114.3,385.6,46l14.5-7.9l-38.7-32.7
						c-98.2-82.9-231.7-103.6-348.6-53.9L123.6,2721.5z"/>
					<path class="st6" d="M123.6,2721.5l32.7,29.2c107.5,96.1,260.1,114.3,385.6,46l14.5-7.9l-38.7-32.7
						c-98.2-82.9-231.7-103.6-348.6-53.9L123.6,2721.5z"/>
					<path class="st6" d="M436.3,2455.5l1,45c3.1,147.9,91.8,278.9,224.1,331.2l15.3,6.1l-2.5-52c-6.3-131.8-80.5-249.6-193.8-307.7
						L436.3,2455.5z"/>
					<path class="st6" d="M934.1,2989.8l-11.8,48.8l-11.8-11.3c-56.1-53.5-94.3-123.7-111.5-198.8c0-0.1,0-0.1,0-0.2
						c-14.2-62.3-13.9-127.9,2.8-190.1l11.2-41.8l32.8,37.4c13.3,15.2,25.4,31.4,36.1,48.3C939.2,2772.5,959.2,2885.7,934.1,2989.8z
						"/>
					<path class="st6" d="M806.8,2934.6l-33.2,31.8c-62,59.4-142.9,90-224.6,87.9c-30.8-0.8-61.8-6.3-91.9-16.6l-43.3-14.9
						l10.1-11.6c59.9-69.2,143.5-107.8,229.5-110.1h0.1c38.9-1,78.3,5.3,116.2,19.6L806.8,2934.6z"/>
					<g class="st64">
						<g>
							<path class="st35" d="M1013.4,3186.9c-3.3,0.2-6.7,0.4-10.1,0.5c-13-30.5-28.3-59.1-45.6-85.9c-2-3.2-4.1-6.3-6.2-9.4
								c-14.8-22-30.8-42.8-47.9-62.3c-30.5-35.1-64-66.1-98.7-93.5c-1.9-1.5-3.8-3-5.7-4.5c-63.3-49.4-130-86.7-188.7-114
								c-8.9-4.1-17.6-8.1-26.3-11.9c-11.3-4.9-22.5-9.6-33.5-14l0,0c-13.8-5.6-27.2-10.7-40.2-15.4c-100.7-36.6-176-49.9-177-50
								c-2.6-0.4-4.3-3-3.9-5.7s2.9-4.5,5.4-4.1c1,0.2,75.2,13.2,175,49.2c11.2,4.1,22.8,8.4,34.6,13c3.4,1.3,6.8,2.7,10.2,4.1
								c9.7,3.9,19.5,8,29.5,12.3c9.9,4.2,19.9,8.7,29.9,13.4c0.1,0,0.1,0.1,0.2,0.1c15.1,7,29.8,14.3,44.1,21.8
								c68.6,35.6,129.4,76.4,181.3,121.6c8.7,7.5,17.1,15.2,25.2,23c13.9,13.2,27,26.8,39.5,40.8c6.2,7,12.3,14,18.2,21.2
								c14.3,17.5,27.6,35.5,39.7,54c2.1,3.2,4.1,6.3,6.1,9.5c17.4,27.6,32.3,56.2,44.7,85.8
								C1013.3,3186.5,1013.3,3186.7,1013.4,3186.9z"/>
						</g>
					</g>
					<path class="st42" d="M436.3,2465l1,45c3.1,147.9,91.8,278.9,224.1,331.2l15.3,6.1l-2.5-52c-6.3-131.8-80.5-249.6-193.8-307.7
						L436.3,2465z"/>
					<path class="st73" d="M934.1,2989.8l-11.8,48.8l-11.8-11.3c-56.1-53.5-94.3-123.7-111.5-198.8c0-0.1,0-0.1,0-0.2
						c-9.5-58.5-7.2-118.9,8.3-176.5l12-44.7l35.1,40c9.8,11.2,19,22.9,27.5,35.1C939.2,2772.5,959.2,2885.7,934.1,2989.8z"/>
					<path class="st51" d="M790.8,2934.6l-33.2,31.8c-58,55.5-132.4,85.9-208.6,87.9c-30.8-0.8-61.8-6.3-91.9-16.6l-43.3-14.9
						l10.1-11.6c59.9-69.2,143.5-107.8,229.5-110.1h0.1c33.7,0.8,67.5,7.3,100.3,19.6L790.8,2934.6z"/>
					<path class="st6" d="M123.6,2721.5l32.7,29.2c107.5,96.1,260.1,114.3,385.6,46l14.5-7.9l-38.7-32.7
						c-98.2-82.9-231.7-103.6-348.6-53.9L123.6,2721.5z"/>
					<path class="st27" d="M123.6,2721.5l32.7,29.2c107.5,96.1,260.1,114.3,385.6,46l14.5-7.9l-38.7-32.7
						c-98.2-82.9-231.7-103.6-348.6-53.9L123.6,2721.5z"/>
				</g>
				<path class="st6" d="M1438.1,3105.2c-1.3,7.2-2.7,14.4-4.2,21.4c-3.1,14.4-6.6,28.6-10.8,42.2c-0.7,2.3-1.4,4.5-2.1,6.7
					c-0.9,2.7-1.7,5.3-2.6,7.9c-0.6,1.7-1.1,3.4-1.7,5.1c-1.3,3.7-2.7,7.4-4.1,11c-0.3,0.9-0.7,1.8-1,2.6c-0.5,1.2-0.9,2.4-1.4,3.5
					c-0.7,1.7-1.4,3.4-2.1,5.1c-1.2,2.9-2.5,5.8-3.8,8.6c-0.5,1.1-1.1,2.3-1.6,3.4c-0.8,1.7-1.6,3.3-2.4,4.9
					c-0.3,0.6-0.6,1.3-0.9,1.9c-0.2,0.4-0.4,0.8-0.6,1.2c-12.2,0.4-24.4,0.8-36.6,1c-26.6,0.4-53.2,0.2-79.7-0.7
					c0.1,0.1,0.1,0.1,0.2,0.2c3.9,0.2,7.8,0.5,11.7,0.7c-3.9-0.2-7.8-0.4-11.7-0.7c-0.4,0-0.8-0.1-1.2-0.1
					c-3.6-0.2-7.3-0.4-10.9-0.7h-0.1c-4.7-0.3-9.5-0.6-14.2-0.9c-0.3-0.1-0.6-0.1-0.9-0.1c-4.6-0.3-9.3-0.6-13.8-1
					c-1.3,0-2.5-0.1-3.7-0.2c-2.7-0.2-5.5-0.4-8.2-0.6c-3-0.2-6-0.4-9.1-0.7l0,0c-4.4-0.4-8.9-0.7-13.3-1c-0.4,0-0.8-0.1-1.3-0.1
					c0,0,0,0-0.1,0c-0.7-0.1-1.5-0.1-2.2-0.2c-1.4-0.1-2.9-0.2-4.3-0.4c-0.4,0-0.7,0-1.1-0.1c-0.7,0-1.5-0.1-2.2-0.2
					c-2.9-0.3-5.8-0.5-8.8-0.8c-0.3-3.9-0.7-7.9-1-12.3l0,0c-0.1-1.2-0.1-2.5-0.2-3.7c-0.3-4.4-0.5-9-0.7-13.9
					c-0.8-18.8-0.9-40.7,0.6-64.6c0.2-3.3,0.4-6.7,0.7-10.1c1.4-18.8,3.7-38.8,7.3-59.5c0,0,0,0,0-0.1c1.5-8.9,3.3-18,5.4-27.2
					c0-0.1,0-0.1,0-0.1c6.1-27.1,14.5-55,26-82.9l0,0c0.5-1.3,1.1-2.6,1.7-3.9v-0.1c14.4-34.2,33.5-68.2,58.5-100.4
					c6.3-8.1,12.9-16,19.9-23.9v-0.1c0.1-0.1,0.1-0.2,0.2-0.3c4.9-5.4,10-10.7,15.3-16v-0.1l0,0c3.4-3.5,7-6.9,10.6-10.3l0,0
					c9.8-9.2,20.3-18.1,31.5-26.8c6.5-5,13.2-10,20.2-14.8c16-11,33.2-21.5,51.7-31.1c0,0,1.9,11.4,4.3,31.1
					c3.1,25.3,7.3,64.4,9.7,110.6C1452.9,2935.5,1452.5,3024,1438.1,3105.2z"/>
				<path class="st74" d="M1438.1,3105.2c-1.3,7.2-2.7,14.4-4.2,21.4c-3.1,14.4-6.6,28.6-10.8,42.2c-0.7,2.3-1.4,4.5-2.1,6.7
					c-0.9,2.7-1.7,5.3-2.6,7.9c-0.6,1.7-1.1,3.4-1.7,5.1c-1.3,3.7-2.7,7.4-4.1,11c-0.3,0.9-0.7,1.8-1,2.6c-0.5,1.2-0.9,2.4-1.4,3.5
					c-0.7,1.7-1.4,3.4-2.1,5.1c-1.2,2.9-2.5,5.8-3.8,8.6c-0.5,1.1-1.1,2.3-1.6,3.4c-0.8,1.7-1.6,3.3-2.4,4.9
					c-0.3,0.6-0.6,1.3-0.9,1.9c-0.2,0.4-0.4,0.8-0.6,1.2c-12.2,0.4-24.4,0.8-36.6,1c-26.6,0.4-53.2,0.2-79.7-0.7
					c0.1,0.1,0.1,0.1,0.2,0.2c3.9,0.2,7.8,0.5,11.7,0.7c-3.9-0.2-7.8-0.4-11.7-0.7c-0.4,0-0.8-0.1-1.2-0.1
					c-3.6-0.2-7.3-0.4-10.9-0.7h-0.1c-4.7-0.3-9.5-0.6-14.2-0.9c-0.3-0.1-0.6-0.1-0.9-0.1c-4.6-0.3-9.3-0.6-13.8-1
					c-1.3,0-2.5-0.1-3.7-0.2c-2.7-0.2-5.5-0.4-8.2-0.6c-3-0.2-6-0.4-9.1-0.7l0,0c-4.4-0.4-8.9-0.7-13.3-1c-0.4,0-0.8-0.1-1.3-0.1
					c0,0,0,0-0.1,0c-0.7-0.1-1.5-0.1-2.2-0.2c-1.4-0.1-2.9-0.2-4.3-0.4c-0.4,0-0.7,0-1.1-0.1c-0.7,0-1.5-0.1-2.2-0.2
					c-2.9-0.3-5.8-0.5-8.8-0.8c-0.3-3.9-0.7-7.9-1-12.3l0,0c-0.1-1.2-0.1-2.5-0.2-3.7c-0.3-4.4-0.5-9-0.7-13.9
					c-0.8-18.8-0.9-40.7,0.6-64.6c0.2-3.3,0.4-6.7,0.7-10.1c1.4-18.8,3.7-38.8,7.3-59.5c0,0,0,0,0-0.1c1.5-8.9,3.3-18,5.4-27.2
					c0-0.1,0-0.1,0-0.1c6.1-27.1,14.5-55,26-82.9l0,0c0.5-1.3,1.1-2.6,1.7-3.9v-0.1c14.4-34.2,33.5-68.2,58.5-100.4
					c6.3-8.1,12.9-16,19.9-23.9v-0.1c0.1-0.1,0.1-0.2,0.2-0.3c4.9-5.4,10-10.7,15.3-16v-0.1l0,0c3.4-3.5,7-6.9,10.6-10.3l0,0
					c9.8-9.2,20.3-18.1,31.5-26.8c6.5-5,13.2-10,20.2-14.8c16-11,33.2-21.5,51.7-31.1c0,0,1.9,11.4,4.3,31.1
					c3.1,25.3,7.3,64.4,9.7,110.6C1452.9,2935.5,1452.5,3024,1438.1,3105.2z"/>
				<path class="st74" d="M1416.6,3188.6c-1.3,3.7-2.7,7.4-4.1,11c-0.3,0.9-0.7,1.8-1,2.6c-0.5,1.2-0.9,2.4-1.4,3.5
					c-0.7,1.7-1.4,3.4-2.1,5.1c-1.2,2.9-2.5,5.8-3.8,8.6c-0.5,1.1-1.1,2.3-1.6,3.4c-0.8,1.7-1.6,3.3-2.4,4.9
					c-0.3,0.6-0.6,1.3-0.9,1.9c-0.2,0.4-0.4,0.8-0.6,1.2c-12.2,0.4-24.4,0.8-36.6,1c-26.6,0.4-53.2,0.2-79.7-0.7
					c0.1,0.1,0.1,0.1,0.2,0.2c3.9,0.2,7.8,0.5,11.7,0.7c-3.9-0.2-7.8-0.4-11.7-0.7c-0.4,0-0.8-0.1-1.2-0.1
					c-3.6-0.2-7.3-0.4-10.9-0.7h-0.1c-4.7-0.3-9.5-0.6-14.2-0.9c-0.3-0.1-0.6-0.1-0.9-0.1c-4.6-0.3-9.3-0.6-13.8-1
					c-1.3,0-2.5-0.1-3.7-0.2c-2.7-0.2-5.5-0.4-8.2-0.6c-3-0.2-6-0.4-9.1-0.7l0,0c-4.4-0.4-8.9-0.7-13.3-1c-0.4,0-0.8-0.1-1.3-0.1
					c0,0,0,0-0.1,0c-0.7-0.1-1.5-0.1-2.2-0.2c-1.4-0.1-2.9-0.2-4.3-0.4c-0.4,0-0.7,0-1.1-0.1c-0.7,0-1.5-0.1-2.2-0.2
					c-2.9-0.3-5.8-0.5-8.8-0.8c-0.3-3.9-0.7-7.9-1-12.3l0,0c-0.1-1.2-0.1-2.5-0.2-3.7c-0.3-4.4-0.5-9-0.7-13.9
					c-0.8-18.8-0.9-40.7,0.6-64.6c0.2-3.3,0.4-6.7,0.7-10.1c1.4-18.8,3.7-38.8,7.3-59.5c0,0,0,0,0-0.1c1.5-8.9,3.3-18,5.4-27.2
					c0-0.1,0-0.1,0-0.1c6.1-27.1,14.5-55,26-82.9l0,0c0.5-1.3,1.1-2.6,1.7-3.9v-0.1c14.4-34.2,33.5-68.2,58.5-100.4
					c6.3-8.1,12.9-16,19.9-23.9v-0.1c0.1-0.1,0.1-0.2,0.2-0.3c1.4,2.4,2.8,4.8,4.2,7.3c0.3,0.6,0.7,1.1,0.9,1.7
					c1.9,3.5,3.9,6.9,5.7,10.5c2.1,3.9,4.2,8,6.2,12.1c0.8,1.6,1.6,3.2,2.4,4.9c11.2,22.9,21.2,47.4,30.3,72.8
					c2.1,5.8,4.1,11.7,6.1,17.6c0.5,1.5,1,3,1.5,4.5c1.3,3.9,2.5,7.7,3.7,11.7v0.1c1.8,5.6,3.5,11.1,5.2,16.8
					c1.2,4.1,2.4,8.1,3.5,12.2c14.1,49.2,25.1,100,33.6,148.8c0.9,5.3,1.8,10.6,2.7,15.8C1413.5,3168.3,1415.1,3178.5,1416.6,3188.6
					z"/>
				<path class="st6" d="M1282.3,3231.3c0.1,0.1,0.1,0.1,0.2,0.2c3.9,0.2,7.8,0.5,11.7,0.7c-3.9-0.2-7.8-0.4-11.7-0.7
					c-0.4,0-0.8-0.1-1.2-0.1c-3.6-0.2-7.3-0.4-10.9-0.7h-0.1c-4.7-0.3-9.5-0.6-14.2-0.9c-0.3-0.1-0.6-0.1-0.9-0.1
					c-4.6-0.3-9.3-0.6-13.8-1c-1.3,0-2.5-0.1-3.7-0.2c-2.7-0.2-5.5-0.4-8.2-0.6c-3-0.2-6-0.4-9.1-0.7l0,0c-4.4-0.4-8.9-0.7-13.3-1
					c-0.4,0-0.8-0.1-1.3-0.1c0,0,0,0-0.1,0c-0.7-0.1-1.5-0.1-2.2-0.2c-1.4-0.1-2.9-0.2-4.3-0.4c-0.4,0-0.7,0-1.1-0.1
					c-0.7,0-1.5-0.1-2.2-0.2c-2.9-0.3-5.8-0.5-8.8-0.8c-0.2,0-0.4,0-0.5-0.1c-2.2-0.1-4.4-0.4-6.6-0.5c-2.6-0.2-5.3-0.4-7.9-0.7
					c-0.1,0-0.3,0-0.4,0c-4.6-0.7-9.2-1.4-13.8-2.2c-10.9-1.4-21.8-3-32.6-4.8c-0.3-0.4-0.6-0.7-0.9-1.1l0,0
					c-7.7-10-15.5-20.6-23.5-32.1c-11.5-16.5-21.2-33.7-29.4-51.1c-2.3-4.9-4.5-9.9-6.5-14.9c-2.1-5-4-10.1-5.8-15.1
					c-1.3-3.4-2.4-6.9-3.5-10.3c-38.1-117.3-14.7-245.5,14.6-338.1c7.4-23.5,15.2-44.7,22.5-62.8c6.7-16.8,13-30.9,18.1-41.9
					c7.8-16.7,12.9-26,12.9-26c1.4,0.7,2.9,1.4,4.3,2.1c0.9,0.5,1.8,1,2.7,1.5c0.8,0.4,1.7,0.9,2.5,1.4c0.5,0.3,1.1,0.6,1.6,0.9
					c1.4,0.8,2.7,1.6,4.1,2.4c1.4,0.8,2.7,1.7,4,2.5c0.5,0.3,1,0.6,1.5,1c2.4,1.6,4.8,3.2,7.2,4.9c0.7,0.5,1.4,1,2.1,1.5
					c1.1,0.8,2.2,1.6,3.3,2.5c1.3,1,2.7,2,3.9,3.1c0.5,0.4,0.9,0.7,1.4,1.1c0.5,0.4,0.9,0.7,1.4,1.1l0,0c0.9,0.8,1.9,1.5,2.8,2.3
					c1.1,0.9,2.2,1.9,3.3,2.8c0.8,0.7,1.7,1.5,2.5,2.2c0.5,0.4,0.9,0.9,1.4,1.3c6,5.5,11.8,11.4,17.5,17.6
					c3.9,4.3,7.7,8.8,11.4,13.4c0.6,0.7,1.2,1.5,1.8,2.2l0,0c3.1,3.9,6.1,7.9,9.1,12c5.9,8.2,11.6,16.7,17.1,25.6
					c2.6,4.2,5.2,8.5,7.6,12.9c1.1,2,2.3,4,3.4,6.1c0.6,1,1.1,2.1,1.7,3.1s1.1,2.1,1.7,3.1c0.4,0.8,0.9,1.6,1.3,2.5
					c2.9,5.6,5.8,11.2,8.6,16.9c11.2,22.9,21.3,47.4,30.4,72.8c2.1,5.8,4.1,11.7,6,17.6c0.3,0.7,0.5,1.5,0.8,2.2
					c0.1,0.4,0.3,0.9,0.4,1.3c0.1,0.3,0.2,0.7,0.3,1c1.3,3.9,2.5,7.7,3.7,11.7v0.1c1.1,3.4,2.2,6.9,3.3,10.4
					c0.7,2.1,1.3,4.2,1.9,6.4c2,6.6,3.9,13.3,5.7,20c1.9,6.7,3.7,13.4,5.4,20.1c4.4,16.8,8.4,33.7,12.1,50.6
					c1.5,6.7,2.9,13.5,4.3,20.2c0.9,4.2,1.7,8.4,2.5,12.6c2.5,12.6,4.8,25.1,7,37.5c0.9,5,1.7,10,2.5,14.9
					c1.7,9.9,3.2,19.7,4.7,29.4c0.7,4.8,1.4,9.7,2.1,14.4c6.1,42.4,10.4,82,13.5,116C1335.4,3232.4,1308.8,3232.2,1282.3,3231.3z"/>
				<path class="st74" d="M1282.3,3231.3c0.1,0.1,0.1,0.1,0.2,0.2c3.9,0.2,7.8,0.5,11.7,0.7c-3.9-0.2-7.8-0.4-11.7-0.7
					c-0.4,0-0.8-0.1-1.2-0.1c-3.6-0.2-7.3-0.4-10.9-0.7h-0.1c-4.7-0.3-9.5-0.6-14.2-0.9c-0.3-0.1-0.6-0.1-0.9-0.1
					c-4.6-0.3-9.3-0.6-13.8-1c-1.3,0-2.5-0.1-3.7-0.2c-2.7-0.2-5.5-0.4-8.2-0.6c-3-0.2-6-0.4-9.1-0.7l0,0c-4.4-0.4-8.9-0.7-13.3-1
					c-0.4,0-0.8-0.1-1.3-0.1c0,0,0,0-0.1,0c-0.7-0.1-1.5-0.1-2.2-0.2c-1.4-0.1-2.9-0.2-4.3-0.4c-0.4,0-0.7,0-1.1-0.1
					c-0.7,0-1.5-0.1-2.2-0.2c-2.9-0.3-5.8-0.5-8.8-0.8c-0.2,0-0.4,0-0.5-0.1c-2.2-0.1-4.4-0.4-6.6-0.5c-2.6-0.2-5.3-0.4-7.9-0.7
					c-0.1,0-0.3,0-0.4,0c-4.6-0.7-9.2-1.4-13.8-2.2c-10.9-1.4-21.8-3-32.6-4.8c-0.3-0.4-0.6-0.7-0.9-1.1l0,0
					c-7.7-10-15.5-20.6-23.5-32.1c-11.5-16.5-21.2-33.7-29.4-51.1c-2.3-4.9-4.5-9.9-6.5-14.9c-2.1-5-4-10.1-5.8-15.1
					c-1.3-3.4-2.4-6.9-3.5-10.3c-38.1-117.3-14.7-245.5,14.6-338.1c7.4-23.5,15.2-44.7,22.5-62.8c6.7-16.8,13-30.9,18.1-41.9
					c7.8-16.7,12.9-26,12.9-26c1.4,0.7,2.9,1.4,4.3,2.1c0.9,0.5,1.8,1,2.7,1.5c0.8,0.4,1.7,0.9,2.5,1.4c0.5,0.3,1.1,0.6,1.6,0.9
					c1.4,0.8,2.7,1.6,4.1,2.4c1.4,0.8,2.7,1.7,4,2.5c0.5,0.3,1,0.6,1.5,1c2.4,1.6,4.8,3.2,7.2,4.9c0.7,0.5,1.4,1,2.1,1.5
					c1.1,0.8,2.2,1.6,3.3,2.5c1.3,1,2.7,2,3.9,3.1c0.5,0.4,0.9,0.7,1.4,1.1c0.5,0.4,0.9,0.7,1.4,1.1l0,0c0.9,0.8,1.9,1.5,2.8,2.3
					c1.1,0.9,2.2,1.9,3.3,2.8c0.8,0.7,1.7,1.5,2.5,2.2c0.5,0.4,0.9,0.9,1.4,1.3c6,5.5,11.8,11.4,17.5,17.6
					c3.9,4.3,7.7,8.8,11.4,13.4c0.6,0.7,1.2,1.5,1.8,2.2l0,0c3.1,3.9,6.1,7.9,9.1,12c5.9,8.2,11.6,16.7,17.1,25.6
					c2.6,4.2,5.2,8.5,7.6,12.9c1.1,2,2.3,4,3.4,6.1c0.6,1,1.1,2.1,1.7,3.1s1.1,2.1,1.7,3.1c0.4,0.8,0.9,1.6,1.3,2.5
					c2.9,5.6,5.8,11.2,8.6,16.9c11.2,22.9,21.3,47.4,30.4,72.8c2.1,5.8,4.1,11.7,6,17.6c0.3,0.7,0.5,1.5,0.8,2.2
					c0.1,0.4,0.3,0.9,0.4,1.3c0.1,0.3,0.2,0.7,0.3,1c1.3,3.9,2.5,7.7,3.7,11.7v0.1c1.1,3.4,2.2,6.9,3.3,10.4
					c0.7,2.1,1.3,4.2,1.9,6.4c2,6.6,3.9,13.3,5.7,20c1.9,6.7,3.7,13.4,5.4,20.1c4.4,16.8,8.4,33.7,12.1,50.6
					c1.5,6.7,2.9,13.5,4.3,20.2c0.9,4.2,1.7,8.4,2.5,12.6c2.5,12.6,4.8,25.1,7,37.5c0.9,5,1.7,10,2.5,14.9
					c1.7,9.9,3.2,19.7,4.7,29.4c0.7,4.8,1.4,9.7,2.1,14.4c6.1,42.4,10.4,82,13.5,116C1335.4,3232.4,1308.8,3232.2,1282.3,3231.3z"/>
				<path class="st6" d="M1362,3231.9c-26.6,0.4-53.2,0.2-79.7-0.7c-20.3-25.4-37.9-54-53.2-84.9c-2.2-4.4-4.3-8.8-6.4-13.3
					c-10.8-23.2-20.4-47.6-28.9-72.7c-33-97.5-49.5-206.9-57.2-306.9c-1.7-21.5-2.9-42.5-3.8-62.8c-0.6-14.3-1.1-28.3-1.5-41.9
					c-0.2-7.6-0.3-15.1-0.5-22.4c0.8,0.4,1.7,0.9,2.5,1.4c0.5,0.3,1.1,0.6,1.6,0.9c1.4,0.8,2.7,1.6,4.1,2.4c1.4,0.8,2.7,1.7,4,2.5
					c0.5,0.3,1,0.6,1.5,1c2.4,1.6,4.8,3.2,7.2,4.9c0.7,0.5,1.4,1,2.1,1.5c1.1,0.8,2.2,1.6,3.3,2.5c1.3,1,2.7,2,3.9,3.1
					c0.5,0.4,0.9,0.7,1.4,1.1c0.5,0.4,0.9,0.7,1.4,1.1l0,0c0.9,0.8,1.9,1.5,2.8,2.3c1.1,0.9,2.2,1.9,3.3,2.8
					c0.8,0.7,1.7,1.5,2.5,2.2c0.5,0.4,0.9,0.9,1.4,1.3c6,5.5,11.8,11.4,17.5,17.6c3.9,4.3,7.7,8.8,11.4,13.4
					c0.6,0.7,1.2,1.5,1.8,2.2c3.1,3.9,6.1,7.9,9.1,12c5.9,8.2,11.6,16.7,17.1,25.6c2.6,4.2,5.2,8.5,7.6,12.9c1.1,2,2.3,4,3.4,6.1
					c0.6,1,1.1,2.1,1.7,3.1c0.5,1,1.1,2.1,1.7,3.1l0,0c0.4,0.8,0.9,1.6,1.3,2.5c2.9,5.6,5.8,11.2,8.6,16.9
					c11.2,22.9,21.3,47.4,30.4,72.8c2.1,5.8,4.1,11.7,6,17.6c0.3,0.7,0.5,1.5,0.8,2.2c0.1,0.4,0.3,0.9,0.4,1.3
					c0.1,0.3,0.2,0.6,0.3,1c1.3,3.9,2.5,7.7,3.7,11.7v0.1c1.1,3.4,2.2,6.9,3.3,10.4c0.7,2.1,1.3,4.2,1.9,6.4c2,6.6,3.9,13.3,5.8,20
					s3.7,13.4,5.4,20.1c4.4,16.8,8.4,33.7,12.1,50.6c1.5,6.7,2.9,13.5,4.3,20.2c0.9,4.2,1.7,8.4,2.5,12.6c2.5,12.6,4.8,25.1,7,37.5
					c0.9,5,1.7,10,2.6,14.9c1.7,9.9,3.2,19.7,4.7,29.4c0.7,4.8,1.4,9.7,2.1,14.4C1354.6,3158.4,1358.9,3197.9,1362,3231.9z"/>
				<path class="st75" d="M1362,3231.9c-26.6,0.4-53.2,0.2-79.7-0.7c-20.3-25.4-37.9-54-53.2-84.9c-2.2-4.4-4.3-8.8-6.4-13.3
					c-10.8-23.2-20.4-47.6-28.9-72.7c-33-97.5-49.5-206.9-57.2-306.9c-1.7-21.5-2.9-42.5-3.8-62.8c-0.6-14.3-1.1-28.3-1.5-41.9
					c-0.2-7.6-0.3-15.1-0.5-22.4c0.8,0.4,1.7,0.9,2.5,1.4c0.5,0.3,1.1,0.6,1.6,0.9c1.4,0.8,2.7,1.6,4.1,2.4c1.4,0.8,2.7,1.7,4,2.5
					c0.5,0.3,1,0.6,1.5,1c2.4,1.6,4.8,3.2,7.2,4.9c0.7,0.5,1.4,1,2.1,1.5c1.1,0.8,2.2,1.6,3.3,2.5c1.3,1,2.7,2,3.9,3.1
					c0.5,0.4,0.9,0.7,1.4,1.1c0.5,0.4,0.9,0.7,1.4,1.1l0,0c0.9,0.8,1.9,1.5,2.8,2.3c1.1,0.9,2.2,1.9,3.3,2.8
					c0.8,0.7,1.7,1.5,2.5,2.2c0.5,0.4,0.9,0.9,1.4,1.3c6,5.5,11.8,11.4,17.5,17.6c3.9,4.3,7.7,8.8,11.4,13.4
					c0.6,0.7,1.2,1.5,1.8,2.2c3.1,3.9,6.1,7.9,9.1,12c5.9,8.2,11.6,16.7,17.1,25.6c2.6,4.2,5.2,8.5,7.6,12.9c1.1,2,2.3,4,3.4,6.1
					c0.6,1,1.1,2.1,1.7,3.1c0.5,1,1.1,2.1,1.7,3.1l0,0c0.4,0.8,0.9,1.6,1.3,2.5c2.9,5.6,5.8,11.2,8.6,16.9
					c11.2,22.9,21.3,47.4,30.4,72.8c2.1,5.8,4.1,11.7,6,17.6c0.3,0.7,0.5,1.5,0.8,2.2c0.1,0.4,0.3,0.9,0.4,1.3
					c0.1,0.3,0.2,0.6,0.3,1c1.3,3.9,2.5,7.7,3.7,11.7v0.1c1.1,3.4,2.2,6.9,3.3,10.4c0.7,2.1,1.3,4.2,1.9,6.4c2,6.6,3.9,13.3,5.8,20
					s3.7,13.4,5.4,20.1c4.4,16.8,8.4,33.7,12.1,50.6c1.5,6.7,2.9,13.5,4.3,20.2c0.9,4.2,1.7,8.4,2.5,12.6c2.5,12.6,4.8,25.1,7,37.5
					c0.9,5,1.7,10,2.6,14.9c1.7,9.9,3.2,19.7,4.7,29.4c0.7,4.8,1.4,9.7,2.1,14.4C1354.6,3158.4,1358.9,3197.9,1362,3231.9z"/>
			</g>
			<g>
				<ellipse class="st15" cx="196.1" cy="2587.3" rx="38" ry="39.7"/>
				<ellipse class="st2" cx="266" cy="2923.7" rx="32" ry="33.4"/>
				<ellipse class="st76" cx="501.3" cy="3288.3" rx="21" ry="21.9"/>
				<ellipse class="st77" cx="4298.6" cy="3196" rx="21" ry="21.9"/>
				<ellipse class="st15" cx="4649.3" cy="3038.3" rx="22" ry="23"/>
				<ellipse class="st78" cx="4813.2" cy="2564" rx="27" ry="28.2"/>
			</g>
		</g>
	</g>
</g>
<path class="st33" d="M228.5-81.9H79c-3.7,0-6.6-3-6.6-6.6V-238c0-3.7,3-6.6,6.6-6.6h149.5c3.7,0,6.6,3,6.6,6.6v149.5
	C235.1-84.9,232.1-81.9,228.5-81.9z"/>
<path class="st79" d="M499.7-78.4H350.3c-3.7,0-6.6-3-6.6-6.6v-149.5c0-3.7,3-6.6,6.6-6.6h149.5c3.7,0,6.6,3,6.6,6.6V-85
	C506.4-81.4,503.4-78.4,499.7-78.4z"/>
<path class="st15" d="M762.9-78.4H613.4c-3.7,0-6.6-3-6.6-6.6v-149.5c0-3.7,3-6.6,6.6-6.6h149.5c3.7,0,6.6,3,6.6,6.6V-85
	C769.6-81.4,766.6-78.4,762.9-78.4z"/>
<path class="st80" d="M1027-78.4H877.5c-3.7,0-6.6-3-6.6-6.6v-149.5c0-3.7,3-6.6,6.6-6.6H1027c3.7,0,6.6,3,6.6,6.6V-85
	C1033.7-81.4,1030.7-78.4,1027-78.4z"/>
<path class="st25" d="M1270.5-78.4h-149.5c-3.7,0-6.6-3-6.6-6.6v-149.5c0-3.7,3-6.6,6.6-6.6h149.5c3.7,0,6.6,3,6.6,6.6V-85
	C1277.2-81.4,1274.2-78.4,1270.5-78.4z"/>
<path class="st33" d="M228.5-335.4H79c-3.7,0-6.6-3-6.6-6.6v-149.5c0-3.7,3-6.6,6.6-6.6h149.5c3.7,0,6.6,3,6.6,6.6V-342
	C235.1-338.4,232.1-335.4,228.5-335.4z"/>
<path class="st2" d="M499.7-331.9H350.3c-3.7,0-6.6-3-6.6-6.6V-488c0-3.7,3-6.6,6.6-6.6h149.5c3.7,0,6.6,3,6.6,6.6v149.5
	C506.4-334.8,503.4-331.9,499.7-331.9z"/>
<path class="st81" d="M762.9-331.9H613.4c-3.7,0-6.6-3-6.6-6.6V-488c0-3.7,3-6.6,6.6-6.6h149.5c3.7,0,6.6,3,6.6,6.6v149.5
	C769.6-334.8,766.6-331.9,762.9-331.9z"/>
<path class="st2" d="M1027-331.9H877.5c-3.7,0-6.6-3-6.6-6.6V-488c0-3.7,3-6.6,6.6-6.6H1027c3.7,0,6.6,3,6.6,6.6v149.5
	C1033.7-334.8,1030.7-331.9,1027-331.9z"/>
<path class="st82" d="M1270.5-331.9h-149.5c-3.7,0-6.6-3-6.6-6.6V-488c0-3.7,3-6.6,6.6-6.6h149.5c3.7,0,6.6,3,6.6,6.6v149.5
	C1277.2-334.8,1274.2-331.9,1270.5-331.9z"/>
<rect x="3696.8" y="-241.2" class="st2" width="162.8" height="162.8"/>
<rect x="3948.1" y="-241.2" class="st83" width="162.8" height="162.8"/>
<rect x="4211.3" y="-241.2" class="st25" width="162.8" height="162.8"/>
<rect x="2924.3" y="-241.2" class="st2" width="162.8" height="162.8"/>
<rect x="3175.5" y="-241.2" class="st15" width="162.8" height="162.8"/>
<rect x="3438.7" y="-241.2" class="st15" width="162.8" height="162.8"/>
<rect x="4475.4" y="-241.2" class="st26" width="162.8" height="162.8"/>
<rect x="4718.9" y="-241.2" class="st26" width="162.8" height="162.8"/>
<rect x="3696.8" y="-494.6" class="st2" width="162.8" height="162.8"/>
<rect x="3948.1" y="-494.6" class="st15" width="162.8" height="162.8"/>
<rect x="4211.3" y="-494.6" class="st80" width="162.8" height="162.8"/>
<rect x="2924.3" y="-494.6" class="st42" width="162.8" height="162.8"/>
<rect x="3175.5" y="-494.6" class="st48" width="162.8" height="162.8"/>
<rect x="3438.7" y="-494.6" class="st48" width="162.8" height="162.8"/>
<rect x="4475.4" y="-494.6" class="st25" width="162.8" height="162.8"/>
<rect x="4718.9" y="-494.6" class="st25" width="162.8" height="162.8"/>
</svg>
