<?xml version="1.0" encoding="utf-8"?>
<!-- Generator: Adobe Illustrator 24.1.0, SVG Export Plug-In . SVG Version: 6.00 Build 0)  -->
<svg version="1.1" id="Capa_1" xmlns="http://www.w3.org/2000/svg" xmlns:xlink="http://www.w3.org/1999/xlink" x="0px" y="0px"
	 viewBox="0 0 5000 5000" style="enable-background:new 0 0 5000 5000;" xml:space="preserve">
<style type="text/css">
	.st0{fill-rule:evenodd;clip-rule:evenodd;fill:#E5ECFF;}
	.st1{fill:#CEDDF4;}
	.st2{fill:#CDDEFC;}
	.st3{fill:#B9CEED;}
	.st4{fill:#D3DEEF;}
	.st5{fill:#E4EDFE;}
	.st6{fill:#BACDF7;}
	.st7{fill:#9BB8EA;}
	.st8{fill:#5878E0;}
	.st9{fill:#DCE8F7;}
	.st10{fill:url(#SVGID_1_);}
	.st11{opacity:0.2;fill:#FFFFFF;enable-background:new    ;}
	.st12{opacity:0.7;fill:#FFFFFF;enable-background:new    ;}
	.st13{fill:#FFFFFF;}
	.st14{fill:#FD8E01;}
	.st15{opacity:0.39;fill:#FFFFFF;enable-background:new    ;}
	.st16{opacity:0.8;fill:#FFFFFF;enable-background:new    ;}
	.st17{opacity:0.7;fill-rule:evenodd;clip-rule:evenodd;fill:#FFFFFF;enable-background:new    ;}
	.st18{fill:url(#SVGID_2_);}
	.st19{fill:#594A42;}
	.st20{fill:url(#SVGID_3_);}
	.st21{fill:#FFA78F;}
	.st22{fill:#FFBBA6;}
	.st23{fill:#69A0F0;}
	.st24{fill:#FCFCFC;}
	.st25{fill:#BEC5D5;}
	.st26{fill:none;stroke:#A5A5A5;stroke-width:12;stroke-miterlimit:10;}
	.st27{fill:#5552BB;}
	.st28{fill:#3D3D87;}
	.st29{fill:none;stroke:#BEC5D5;stroke-width:6;stroke-miterlimit:10;}
	.st30{fill:#440D40;}
	.st31{opacity:0.5;fill:#00A79D;enable-background:new    ;}
	.st32{fill:#FFC166;}
	.st33{opacity:0.3;fill:#0B5F99;enable-background:new    ;}
	.st34{fill:url(#SVGID_4_);}
	.st35{fill:#7F5A84;}
	.st36{clip-path:url(#SVGID_6_);}
	.st37{opacity:0.1;enable-background:new    ;}
	.st38{fill-rule:evenodd;clip-rule:evenodd;fill:#FDCCB3;}
	.st39{fill-rule:evenodd;clip-rule:evenodd;fill:#FE6600;}
	.st40{fill-rule:evenodd;clip-rule:evenodd;fill:#FCBD92;}
	.st41{fill-rule:evenodd;clip-rule:evenodd;fill:#FD8E01;}
	.st42{fill-rule:evenodd;clip-rule:evenodd;fill:#FCE3AD;}
	.st43{fill-rule:evenodd;clip-rule:evenodd;fill:#FCAB6B;}
	.st44{fill-rule:evenodd;clip-rule:evenodd;fill:#FD9800;}
	.st45{fill-rule:evenodd;clip-rule:evenodd;fill:#FD9402;}
	.st46{fill:#6A9FD3;}
	.st47{clip-path:url(#SVGID_8_);}
	.st48{fill:#FFD3C7;}
	.st49{fill:#FFC1B3;}
	.st50{fill:#594A5F;}
	.st51{fill:#4C4199;}
	.st52{fill:url(#SVGID_9_);}
	.st53{clip-path:url(#SVGID_11_);}
	.st54{fill:#F29127;}
	.st55{fill:#00215B;}
	.st56{fill:#FFE1BD;}
	.st57{clip-path:url(#SVGID_13_);}
	.st58{fill:#5A3760;}
	.st59{clip-path:url(#SVGID_15_);}
	.st60{opacity:0.2;enable-background:new    ;}
	.st61{fill:#AA77B0;}
	.st62{fill:#B8CAE0;}
	.st63{fill:#D4EAFF;}
	.st64{fill:#486096;}
	.st65{fill:#28405B;}
	.st66{fill:#385072;}
	.st67{fill:#FFA992;}
	.st68{fill:#364282;}
	.st69{fill:#465095;}
	.st70{fill:#E55928;}
	.st71{clip-path:url(#SVGID_17_);}
	.st72{fill:url(#SVGID_18_);}
	.st73{clip-path:url(#SVGID_20_);}
	.st74{fill:#FFA28D;}
	.st75{fill:#463D72;}
</style>
<g>
	<g id="Layer_2">
		<g id="Layer_1-2">
			<path class="st0" d="M4755.1,1302.9c-8.1-7.1-15.5-14.5-23.8-20.6c-2.9-2.1-8.9-3.1-11.7-1.5c-5.7,3.4-16.2,3.2-14.5,14.4
				c1.1,7.1,1.7,14.3,3.6,21.3c2.1,7.9-0.3,12.2-8.2,14.1c-4.8,1.2-9.5,3-14.9,4.7c-5.2-9.6-9.7-19.1-15.4-27.7
				c-1.9-2.8-7.4-4.9-11-4.4c-6.3,0.9-15.4-2-17.1,8.6c-1.2,7.4-3.1,14.9-3.9,22.3c-0.7,6.2-3.3,8.5-9.7,8.4
				c-22.6-0.4-17,1.8-21.7-17.6c-0.5-2.1-0.6-4.3-1-6.4c-2.1-11.4-14.1-19-24.9-15.4c-2.3,0.7-4,3.7-5.4,6.1
				c-2.4,4-4.3,8.3-6.5,12.4c-2.2,4.1-4.4,8.2-7.4,13.6c-6.7-2.1-13.6-3.7-20-6.6c-2.2-1-3.8-5.6-3.8-8.5c-0.1-5.3,1.2-10.7,2-16
				c2-14.9-1.5-20.3-16.1-24.1c-2.3-0.6-5.4,0.6-7.7,1.9c-2.5,1.4-4.3,3.7-6.4,5.7c-17.7,16.3-17.7,16.3-37.3-0.9
				c4.5-8.5,8.7-17.5,13.8-26c4-6.5,0.5-10.1-3.7-13.6c-4.7-4-7.1-12.6-16.4-8.1c-8.7,4.1-17.8,7.4-27.3,11.3l-14.9-21.5
				c6.5-6.2,11.9-12.7,18.6-17.2c11.5-7.7,4-15.2,1.6-23.3c-2.7-9-9-7.4-15.5-6.8c-7.8,0.7-15.6,1.1-22.4,1.5
				c-1.3-1.2-1.7-1.5-1.8-1.8c-7.8-22.3-7.8-22.3,13-32.8c12.4-6.2,15.6-13.6,10.9-26.6c-0.9-2.5-4.1-5-6.7-5.8
				c-8.5-2.9-17.2-5-25.7-7.4c-0.4-0.9-1-1.5-1-2.2c0.2-29-2.5-23.8,23.3-26.6c8.6-0.9,13.6-3.1,15.4-12.5
				c1.8-9.2,3.4-16.4-7.4-21.1c-6.4-2.8-12-7.8-17.5-11.5c-0.1-1-0.1-2,0-3c8.1-21.7,8.4-22.7,31.1-16.4
				c12.4,3.4,15.2-4.3,20.6-11.3c5.8-7.4,2.2-12.3-2.3-17.9s-8.6-11.5-13.5-18c5.7-6.5,11.3-12.9,17.3-19.7
				c8.1,5,15.8,9.4,23.2,14.5c5.2,3.6,9.5,3.1,13.3-1.4c4.6-5.4,15.7-6.4,11.3-17.9c-3.2-8.3-5.6-17-8.6-26.4l22.5-13
				c5.5,6.6,11.4,12.8,16.2,19.8c4.3,6.1,8.7,7.7,15.5,4.4c7-3.4,17.2-3.4,14.7-15.7c0-0.4,0-0.7,0-1.1c0.2-24.3,0.2-24.3,26-28.5
				c3.2,8.2,6.9,16.6,9.7,25.4c3.7,11.6,13,5.8,20,7c5.8,1,10.3-0.2,12.1-7.3c2.2-8.3,5.8-16.2,9.1-25.3c6.8,0.8,13.6,1.1,20.1,2.6
				c2.2,0.5,4.8,4,5.1,6.3c0.7,6.5,0.8,13,0.1,19.4c-0.7,7.8,2.7,10.7,9.6,14c12,5.7,19.8,4.2,26.4-7.4c3.1-5.6,7.7-10.2,11.3-14.9
				c0.7-0.1,1.3-0.1,2,0c22.1,8.9,22.1,8.9,14.9,31.5c-4.6,14.4-1,22.4,13.4,27.8c2.4,0.9,6.2-0.4,8.7-1.8
				c8.1-4.7,15.8-9.9,24.3-15.4l17.7,18.9c-5.5,7.3-11.1,15.2-17.2,22.6c-3.7,4.5-4.4,7.8-0.8,13.1c10.1,15.1,9.8,15.4,27.7,11.2
				c6.2-1.4,12.5-2.8,19.5-4.3c3.4,7.7,6.5,14.9,10.1,22.9c-8.4,5.9-16.4,12-24.9,17.2c-10.4,6.4-2.3,14-2,21
				c0.3,6.5,3.8,9.4,10.4,9.6c9.3,0.4,18.6,1.6,27.3,2.3c1,1.2,1.6,1.8,1.8,2.4c4.7,22,4.6,21.8-16.4,28.1
				c-8.2,2.5-18,1.7-19.4,15.6c-1.2,11.9,0.7,18.4,12.3,21.2c2.7,0.9,5.4,2,7.9,3.3c14,6.4,13.6,6.4,10.4,21.1
				c-1.6,7.1-4.2,10.9-12.2,9.4c-4.6-0.9-9.5,0.1-14-1c-11-2.8-16.9,0.7-21.2,11.6c-3.2,8.2-2.9,13.3,4.2,18.3
				c3.2,2.3,5.7,5.5,8.5,8.2c12.3,11.9,12.5,13.3,0.9,26.6c-2.4,2.2-5.7,3.2-8.9,2.7c-5.5-1.2-10.7-4.1-16-6.3
				c-13.5-5.6-23.1-2.3-29.3,10.4c-1,2-0.1,5.5,1,7.8c3.1,6.9,6.8,13.5,10.9,19.8c4.2,6.1,3.4,10.2-2.5,14.2
				C4764.1,1295.6,4760,1299.1,4755.1,1302.9z M4492.3,1111.8c-1.1,71.8,58,132.8,129.4,133.7c73.4,0.9,134.4-59.1,135.3-133
				c0.9-71.4-59.3-132.2-131.6-133C4552.7,978.6,4493.4,1037.6,4492.3,1111.8L4492.3,1111.8z"/>
			<path class="st0" d="M4624.1,1226.2c-63.9,0-113.8-50.2-114-114.7c-0.3-62.9,50.5-114.1,113.4-114.4c0.4,0,0.8,0,1.2,0
				c62.1,0,114.7,52.2,114.8,113.9C4739.7,1174.6,4688,1226.2,4624.1,1226.2z M4675.5,1112.4c0.1-29-23.4-52.6-52.5-52.7
				c-0.1,0-0.3,0-0.4,0c-28.5,0.3-51.8,24.7-51.7,54.1c0.1,28.5,23.9,51.4,53,51.2c28.6-0.1,51.7-23.4,51.6-52
				C4675.5,1112.8,4675.5,1112.6,4675.5,1112.4L4675.5,1112.4z"/>
			<path class="st0" d="M3855.1,1300.5c1.5,0.1,2.7,1.2,2.9,2.7c2.7,10.4,5.4,20.7,8.3,31c0.6,1.4,0.1,3.1-1.2,4
				c-12.4,10.6-24.8,21.1-37.2,31.7l-3.3,2.8l40.6,70.3l29.2-10.3c7-2.5,14.1-5,21.1-7.4c1.4-0.7,3.1-0.3,4,1
				c7.3,7.5,14.8,15,22.3,22.3c1.4,1,1.9,3,1.1,4.6c-5.6,15.6-11.1,31.3-16.7,46.9c-0.8,2.2-0.7,3.4,1.6,4.7
				c21.9,12.5,43.7,25.1,65.5,37.7c0.6,0.4,1.2,0.7,2.1,1.2c2.1-2.4,4.1-4.7,6.2-7.1c9.4-11,18.9-22,28.2-33.1
				c1.5-1.8,2.7-1.8,4.8-1.2c9.9,2.8,19.8,5.3,29.8,8c1.1,0.3,2.7,1.5,2.9,2.5c3.3,16.8,6.4,33.7,9.5,50.6h82
				c0.8-4.5,1.6-8.8,2.5-13.1c2.3-12.3,4.6-24.6,6.8-36.9c0.4-2,1.2-2.7,3.1-3.1c10.1-2.6,20.1-5.2,30.1-8.1
				c1.7-0.7,3.7-0.1,4.7,1.4c10.7,12.6,21.4,25.1,32.1,37.6c0.7,0.8,1.4,1.6,2.2,2.5l70.1-40.5c-0.3-1.1-0.7-2.2-1-3.2
				c-5.5-15.5-10.9-31.1-16.5-46.6c-0.9-1.7-0.4-3.7,1.1-4.8c7.4-7.1,14.7-14.4,21.8-21.8c1.5-1.6,2.6-2,4.8-1.2
				c15.7,5.7,31.5,11.2,47.2,16.7c1.5,0.5,2.7,1.1,3.9-0.9c12.9-22.6,25.9-45.2,39-67.7c0.1-0.3,0.2-0.6,0.2-0.9
				c-3-2.6-6.1-5.2-9.2-7.9c-10.3-8.8-20.6-17.6-31-26.4c-1.5-1-2-2.9-1.2-4.5c2.8-10,5.5-20,8-30.1c0.2-1.7,1.6-3,3.2-3.1
				c16.6-3,33.2-6.2,49.9-9.3c0.8-0.1,1.6-0.4,2.5-0.6v-80.9l-39.6-7.6c-4.3-0.8-8.7-1.7-13-2.4c-1.5-0.1-2.7-1.2-2.9-2.7
				c-2.7-10.4-5.4-20.7-8.3-31c-0.6-1.4-0.1-3.1,1.2-4c12.4-10.5,24.8-21.1,37.1-31.7l3.3-2.9l-40.6-70.2l-20.2,7.1
				c-10,3.5-20,7-30,10.6c-1.4,0.8-3.1,0.4-4.1-0.9c-7.4-7.7-15-15.2-22.7-22.7c-1.5-1.4-1.3-2.5-0.7-4.1
				c5.6-15.6,11-31.3,16.6-46.9c0.9-2.3,0.8-3.5-1.7-5c-21.6-12.3-43.1-24.8-64.7-37.2l-2.9-1.6l-18.3,21.4
				c-5.5,6.4-10.9,12.7-16.3,19.2c-0.9,1.3-2.6,1.8-4,1.1c-10.1-2.8-20.2-5.5-30.4-8.1c-1.7-0.2-3-1.6-3.1-3.2
				c-3-16.6-6.2-33.2-9.3-49.8c-0.1-0.8-0.4-1.6-0.6-2.5h-80.9c-2.7,14.2-5.4,28.4-8.1,42.7c-0.6,3.2-1.3,6.4-1.8,9.6
				c0,1.7-1.4,3.1-3.1,3.2c-10.1,2.5-20.1,5.2-30.1,8c-1.8,0.8-3.9,0.1-5-1.5c-10.8-12.8-21.8-25.6-32.7-38.4
				c-0.4-0.5-0.8-0.9-1.5-1.6l-70.2,40.6c2,5.6,3.9,11.2,5.9,16.7c4,11.2,7.8,22.4,11.9,33.5c0.7,1.9,0.2,2.9-1.1,4.3
				c-7.4,7.3-14.9,14.6-22,22.1c-1.1,1.5-3.2,2-4.8,1.1c-15.5-5.6-31.1-11-46.6-16.6c-2.4-0.8-3.5-0.7-5,1.7
				c-12.4,21.7-24.9,43.3-37.4,65c-0.5,0.8-0.9,1.6-1.4,2.6l21.4,18.3c6.3,5.4,12.6,10.8,19,16.1c1.7,1.4,1.8,2.5,1.2,4.5
				c-2.8,10-5.5,20-8,30.1c-0.2,1.7-1.6,3-3.2,3.1c-16.6,3-33.2,6.2-49.8,9.3c-0.8,0.1-1.6,0.4-2.5,0.6v80.7l39.6,7.6
				C3846.4,1298.9,3850.8,1299.8,3855.1,1300.5z M4117.9,1066.1c101.6,0,184,82.6,183.9,184.3c-0.1,101.2-82.6,183.7-184,183.7
				c-101.7,0-184.1-82.5-184.1-184.2C3933.8,1148.6,4016.4,1066.1,4117.9,1066.1L4117.9,1066.1z"/>
			<ellipse class="st1" cx="1139.2" cy="3637.4" rx="136.9" ry="46.7"/>
			<path class="st2" d="M1048.9,3033.4c-14.7-49.1-3.8-105,28.1-145.1c8.2-10.4,18-20.1,22.1-32.7c11-34.3-24.6-66.4-27.5-102.3
				c-3-37.1,28.7-66.8,57.5-90.3c14.5-11.9,30.7-24.4,49.5-24.6c23.4-0.2,42.7,19,53.1,40c10.3,21,14.5,44.5,24.6,65.6
				c10.2,21.5,26,39.8,38,60.4c12,20.6,20.1,45.5,12.7,68.1c-9.6,29.8-42.7,46.8-53.9,76c-17.2,44.6,23.2,96.9,4.8,141.1
				c-8,19.3-26.3,32.9-45.9,40.1C1138.5,3156.8,1070.3,3104.8,1048.9,3033.4z"/>
			<polygon class="st3" points="1161.8,3122.5 1147.7,3295 1161.8,3295 1170.7,3122.5 			"/>
			<path class="st3" d="M1174,2669c-4.7,70.6-9.2,141.2-11.6,211.9c-2.5,72.2-10.5,152.2,4.6,223.5c0.5,2.5,4.7,2,4.5-0.6
				c-9.8-144.9-0.2-290.1,7.4-434.9C1179.2,2665.8,1174.2,2665.8,1174,2669L1174,2669z"/>
			<path class="st4" d="M1128.7,3080.2c4.2,0,4.2-6.6,0-6.6S1124.4,3080.2,1128.7,3080.2z"/>
			<path class="st4" d="M1087.6,3052c1.6,0.6,3.4,0.2,4.6-1.1c2.3-2.1-0.7-6.1-3.4-4.4l-0.5,0.4c-1.4,0-2.6,1.2-2.6,2.7
				C1085.7,3050.7,1086.5,3051.7,1087.6,3052z"/>
			<path class="st4" d="M1116.8,3015.9c4.1,0,4.1-6.4,0-6.4C1112.7,3009.5,1112.7,3015.9,1116.8,3015.9z"/>
			<path class="st4" d="M1088,2981.5l0.7-0.5c0.9-0.9,0.9-2.3,0-3.1l-0.7-0.5c-1.2-1.2-3-1.2-4.2,0c-1.2,1.2-1.2,3,0,4.2
				C1084.9,2982.7,1086.8,2982.7,1088,2981.5z"/>
			<path class="st4" d="M1211,3072.2l0.9-0.6c1-0.6,1.4-2,0.7-3.1c-0.2-0.3-0.4-0.5-0.7-0.7l-0.9-0.5
				C1205.7,3064,1205.7,3075.5,1211,3072.2L1211,3072.2z"/>
			<path class="st4" d="M1233.6,3062.8c1.2-0.6,2.2-1.5,2.9-2.6c0.6-1.2,0.1-2.7-1.1-3.3c-0.3-0.2-0.6-0.2-1-0.3
				c-1.4-0.1-2.7,0.3-3.9,0.9C1227,3059.1,1230.1,3064.7,1233.6,3062.8L1233.6,3062.8z"/>
			<path class="st4" d="M1111.4,2730.9c0,0.4-0.1,0.8-0.1,1.2c-0.3,4,6.5,4,6.2,0c0-0.4,0-0.8-0.1-1.2c-0.1-1.6-1.5-2.9-3.2-2.8
				C1112.8,2728.2,1111.6,2729.4,1111.4,2730.9L1111.4,2730.9z"/>
			<path class="st4" d="M1125.1,2791.2c4.2,0,4.2-6.4,0-6.4S1121,2791.2,1125.1,2791.2z"/>
			<path class="st4" d="M1151.6,2741l0.7,0.1c1.5,0.3,2.9-0.5,3.3-2c0.1-0.4,0.1-0.8,0-1.3c0-0.2-0.1-0.5-0.1-0.7
				c-0.3-2.5-3.7-2.9-5.3-1.4C1148.7,2737.3,1149.2,2740.7,1151.6,2741z"/>
			<path class="st4" d="M1256.6,2839.7l0.9,0.5c1.9,1.1,4.3,0.5,5.5-1.4c1.1-1.9,0.5-4.3-1.4-5.5c-1.3-0.7-2.8-0.7-4.1,0l-0.9,0.5
				c-1.6,1-2.2,3.1-1.2,4.7C1255.7,2839,1256.1,2839.4,1256.6,2839.7L1256.6,2839.7z"/>
			<path class="st4" d="M1234.5,2894.4c2.4,0,4.4-1.2,4.7-3.7c0.6-4.5-5.4-6.4-6.9-1.9c-0.1,0.4-0.2,0.7-0.4,1.1
				C1230.6,2891.8,1232.4,2894.4,1234.5,2894.4L1234.5,2894.4z"/>
			<path class="st4" d="M1222.6,2830.1c5.3,0,5.3-8.2,0-8.2S1217.4,2830.1,1222.6,2830.1z"/>
			<path class="st4" d="M1240.5,2794.6c4,0,4-6.2,0-6.2C1236.5,2788.4,1236.5,2794.6,1240.5,2794.6z"/>
			<path class="st3" d="M1334.6,3074.4c18-10.8,39.9-12.5,60-18.5c26.2-7.7,49.7-22.6,67.9-43c19.4-21.8,33.8-50.5,60.9-61.2
				c29-11.4,61.3,2.2,92.5,1.8c27.6-0.3,54.1-11.7,81.6-12.6c16-0.6,36.7,8,34.7,23.9c-1.2,9.7-10.5,16-19,21l-40,23.6
				c-14.9,8.7-30,17.7-41.8,30.2c-19.7,20.9-28.8,50.1-48.8,70.6c-28.8,29.4-74.2,34.9-115.2,31.4c-22.2-1.9-47-5.2-64.5,8.5
				c-25.7,20.2-65.1,76.2-100.9,31.8C1276,3149.5,1304,3092.7,1334.6,3074.4z"/>
			<path class="st2" d="M1316.3,3159.1l-8-3.5c0,0-72.2,76.2-76.3,146.5h16.1C1248.1,3302.1,1240,3241.9,1316.3,3159.1z"/>
			<path class="st2" d="M1322.1,3152.7c62-31.8,121.8-67.9,183.6-100.1s125.4-60.8,187.6-92.2c2.8-1.4,0.8-6.4-2.2-5.2
				c-62.6,25.6-123.2,57-183.2,88.1c-63.5,32.9-128.2,66.1-187.7,105.9c-0.9,0.6-1.1,1.8-0.5,2.7
				C1320.1,3152.9,1321.2,3153.1,1322.1,3152.7z"/>
			<path class="st4" d="M1336.8,3104.5c4.8,0,4.8-7.4,0-7.4C1332,3097,1332,3104.5,1336.8,3104.5z"/>
			<path class="st4" d="M1378.2,3097l0.5-0.7c0.8-0.9,0.8-2.2,0-3.1l-0.5-0.6c-1.8-2.2-5.3-0.3-5.3,2.2S1376.4,3099.2,1378.2,3097z"
				/>
			<path class="st4" d="M1356.4,3082.5l1.1-0.4c0.9-0.3,1.3-1.2,1.1-2.1c-0.2-0.5-0.6-0.9-1.1-1.1l-1.1-0.4
				C1353,3077.1,1353,3083.8,1356.4,3082.5L1356.4,3082.5z"/>
			<path class="st4" d="M1489.3,3031.3v-0.4c0.4-2.5-1.5-5-4.2-4.2c-1.2,0.3-2.1,1.2-2.4,2.4c-0.8,2.8,1.8,4.6,4.2,4.2h0.4
				C1488.2,3033,1489,3032.3,1489.3,3031.3L1489.3,3031.3z"/>
			<path class="st4" d="M1513.7,2985.8c1.1,1.6,2.6,2.8,4.5,3.3c1.2,0.3,2.5,0,3.3-0.9c0.4-0.4,0.7-0.9,0.9-1.5
				c0.4-1.5-0.3-3-1.6-3.8c-1.3-1-2.9-1.6-4.5-1.6c-1.7,0-3,1.4-3,3C1513.3,2984.8,1513.5,2985.3,1513.7,2985.8z"/>
			<path class="st4" d="M1542.9,3005.2c0.9,1,2.2,1.7,3.6,1.9c2.5,0.4,4.6-2.5,2.6-4.4c-0.9-1.1-2.2-1.7-3.5-1.9
				C1543.1,3000.3,1540.8,3003.2,1542.9,3005.2z"/>
			<path class="st4" d="M1571.3,2987.9c1-0.4,1.9-1.1,2.6-2c1.1-1.4,0.5-4-1.6-3.9c-1.3,0-2.6,0.4-3.7,1.1
				C1565.3,2984.7,1568.2,2989.5,1571.3,2987.9L1571.3,2987.9z"/>
			<path class="st4" d="M1495.2,3111.2c1.3,0.5,2.7,0.5,3.9,0.1c1.2-0.4,2-1.6,1.6-2.9c-0.4-1.5-1.5-2.8-2.9-3.6
				C1494,3101.9,1490,3109.6,1495.2,3111.2L1495.2,3111.2z"/>
			<path class="st4" d="M1543.7,3116.8c1.7,0.3,3.3-0.5,4.2-1.9c0.4-0.6,0.4-1.4,0-2.1c-0.8-1.5-2.5-2.3-4.2-1.9
				c-1.6,0.1-2.9,1.5-2.8,3.2C1541,3115.5,1542.2,3116.7,1543.7,3116.8z"/>
			<path class="st4" d="M1538.3,3085.9l0.7-0.5c4.8-3.3-1.6-9.8-5-5l-0.5,0.7C1531.6,3083.9,1535.4,3087.7,1538.3,3085.9
				L1538.3,3085.9z"/>
			<path class="st4" d="M1571,3074.6c3.1,0,3.1-4.8,0-4.8S1567.9,3074.6,1571,3074.6z"/>
			<path class="st4" d="M1688.8,2977.4c3.5,0,3.5-5.5,0-5.5C1685.2,2971.9,1685.2,2977.4,1688.8,2977.4z"/>
			<path class="st4" d="M1340.3,3171.8l-0.4,0.5c-0.4,0.6-0.4,1.3,0,1.9l0.4,0.5c1.6,2.2,5.3,1.6,5.3-1.4
				S1341.9,3169.6,1340.3,3171.8z"/>
			<path class="st4" d="M1367.6,3160l0.6-0.6c0.9-0.9,0.9-2.3,0-3.2l-0.6-0.6c-1.9-2.1-5.4-0.4-5.4,2.2
				C1362.2,3160.4,1365.7,3162.1,1367.6,3160z"/>
			<path class="st4" d="M1128.4,2882.7l-0.3,0.5c-0.4,0.7-0.4,1.5,0,2.2l0.3,0.5c1.7,2.5,5.8,1.6,5.8-1.6
				S1130.1,2880.2,1128.4,2882.7L1128.4,2882.7z"/>
			<path class="st4" d="M1191.7,2953.3c4.6,0,4.6-7.2,0-7.2S1187.1,2953.3,1191.7,2953.3z"/>
			<path class="st5" d="M1006.6,3045.4c-16.4-34.9-42.7-64.1-75.7-84c-21.1-12.7-44.8-21.5-63.4-37.5c-31-26.9-45.9-72.2-83.2-89.2
				c-12.9-5.9-27.3-7.6-41.5-8.2c-23.3-0.9-49.3,2.5-64.1,20.5c-13.6,16.6-13.1,42-1.9,60.3c15,24.3,44.5,36,62.2,58.4
				c31,39.3,18.8,101.8,52.7,138.6c19.9,21.7,50.8,28.7,76.2,43.5c21,12.2,38.7,30.1,61.3,39
				C1016.3,3220.9,1031.4,3098.5,1006.6,3045.4z"/>
			<path class="st2" d="M985.2,3148.5l-6.8,4.8c78.3,98.9,87,155.7,87,155.7h18.1C1063.4,3234.8,985.2,3148.5,985.2,3148.5z"/>
			<path class="st2" d="M717.7,2866.5c54.3,32.5,97.4,95.3,137.3,142.1c39.9,46.8,76.4,103.9,123.5,144.1c0.9,0.8,2.3,0.7,3.1-0.2
				c0.7-0.8,0.8-2.1,0.1-2.9c-41.5-51.3-85.3-101.3-128.1-151.5c-38.2-44.7-80.2-105.8-134.5-133.8c-0.6-0.4-1.4-0.2-1.8,0.4
				C716.9,2865.3,717.1,2866.2,717.7,2866.5L717.7,2866.5z"/>
			<path class="st4" d="M840.8,3096.4c-0.6-0.3-1.2-0.6-1.9-0.8c-0.8-0.2-1.7,0.3-1.9,1.1c-0.1,0.3-0.1,0.6,0,0.8
				c0.2,0.6,0.5,1.3,0.9,1.8C839.6,3102.5,844,3098.2,840.8,3096.4L840.8,3096.4z"/>
			<path class="st4" d="M886.7,3128.6l0.5-0.7c0.6-0.6,0.6-1.6,0-2.3l-0.5-0.7c-1.4-1.8-4.4-0.2-4.4,1.8S885.3,3130.5,886.7,3128.6
				L886.7,3128.6z"/>
			<path class="st4" d="M868.6,3084.8l-0.5-0.9c-0.8-1.2-2.4-1.6-3.6-0.9c-0.4,0.2-0.7,0.5-0.9,0.9l-0.5,0.9
				C860,3090.8,871.8,3090.8,868.6,3084.8z"/>
			<path class="st4" d="M925.3,3146.9l0.6-0.6c0.9-0.9,0.9-2.4,0-3.3c-0.2-0.2-0.4-0.4-0.6-0.6c-1.2-1.2-3.3-1.2-4.5,0
				c-1.2,1.2-1.2,3.3,0,4.5C922,3148.2,924,3148.2,925.3,3146.9C925.2,3146.9,925.2,3146.9,925.3,3146.9z"/>
			<path class="st4" d="M819.5,3048.2c4.4,0,4.4-6.8,0-6.8S815.1,3048.2,819.5,3048.2z"/>
			<path class="st4" d="M791.4,2996.6l-0.6,0.5c-0.8,0.8-0.8,2,0,2.7l0.6,0.5c1.1,1.1,2.8,1.1,3.8,0c1.1-1.1,1.1-2.8,0-3.8
				C794.2,2995.5,792.5,2995.5,791.4,2996.6C791.4,2996.6,791.4,2996.6,791.4,2996.6L791.4,2996.6z"/>
			<path class="st4" d="M900.4,2976.3c3.7,0,3.7-5.8,0-5.8S896.7,2976.3,900.4,2976.3z"/>
			<path class="st4" d="M919.7,3024.8l0.9-0.5c1.2-0.7,1.6-2.2,0.9-3.4c-0.2-0.4-0.5-0.7-0.9-0.9l-0.9-0.5
				C914,3016.6,914,3027.8,919.7,3024.8L919.7,3024.8z"/>
			<path class="st4" d="M963.4,3026.2c3.6,0,3.6-5.6,0-5.6S959.8,3026.2,963.4,3026.2z"/>
			<path class="st4" d="M984.8,3079.5c3.3,0,3.3-5.2,0-5.2S981.4,3079.5,984.8,3079.5z"/>
			<path class="st4" d="M703.9,2888.9c2,0.9,3.5,1.7,5.7,0.9c1.3-0.4,2-1.7,1.6-2.9c-0.1-0.2-0.1-0.4-0.2-0.5
				c-1.2-2-2.5-2.3-4.8-2.9C703.1,2882.8,700.7,2887.5,703.9,2888.9L703.9,2888.9z"/>
			<path class="st4" d="M735,2909.5l0.5,0.7c2.7,4,8.1-1.3,4.1-4.1l-0.7-0.5C736.6,2904,733.4,2907.2,735,2909.5L735,2909.5z"/>
			<path class="st4" d="M755,2848.4l-1.2,0.6c-1,0.6-1.5,1.6-1.5,2.7c-0.1,0.8,0.3,1.6,0.9,2.2c1,0.9,2.5,1.1,3.7,0.5l1.2-0.6
				C761.7,2852,758.5,2846.6,755,2848.4L755,2848.4z"/>
			<path class="st4" d="M698.7,2851.3c2.5,0.7,4.6,1.7,6.7-0.2c0.4-0.4,0.6-1.1,0.4-1.7c-0.9-2.7-3.1-2.8-5.6-3.5
				C696.7,2845.1,695.2,2850.4,698.7,2851.3L698.7,2851.3z"/>
			<path class="st6" d="M991.2,3279.1l316.3,0.4c0,0-5.3,345.1-152.2,353.9C933.6,3646.6,991.2,3279.1,991.2,3279.1z"/>
			<path class="st7" d="M969.8,3279.1H1093c0,0-67.2,222.1,34.7,354l0,0C1127.7,3633.1,937.8,3643.9,969.8,3279.1"/>
			<rect x="4262.6" y="1897" class="st5" width="737.4" height="925.2"/>
			<rect x="4301" y="1934.4" class="st2" width="659.4" height="215.6"/>
			<rect x="4301" y="2187.8" class="st2" width="659.4" height="215.6"/>
			<rect x="4301" y="2448.8" class="st2" width="659.4" height="215.6"/>
			<path class="st5" d="M4654.2,1980.7c0,12.6-10.2,22.9-22.9,22.9c-12.6,0-22.9-10.2-22.9-22.9c0-12.6,10.2-22.9,22.9-22.9l0,0
				C4643.9,1957.9,4654.2,1968.1,4654.2,1980.7z"/>
			<path class="st5" d="M4654.2,2233.2c0,12.6-10.2,22.9-22.9,22.9c-12.6,0-22.9-10.2-22.9-22.9c0-12.6,10.2-22.9,22.9-22.9l0,0
				C4643.9,2210.3,4654.2,2220.5,4654.2,2233.2C4654.2,2233.2,4654.2,2233.2,4654.2,2233.2z"/>
			<path class="st5" d="M4654.2,2492.3c0,12.6-10.2,22.9-22.9,22.9c-12.6,0-22.9-10.2-22.9-22.9c0-12.6,10.2-22.9,22.9-22.9l0,0
				C4643.9,2469.4,4654.2,2479.7,4654.2,2492.3z"/>
			<path class="st8" d="M4090.2,751.4l-3142.6-4c-23.3,0-44.1,8.7-58.8,22.6h-0.3l-62.1,56.3l40.7,0.2l12.7,1868.7
				c0.3,39.5,36.7,71.6,81.5,71.6l3123.9,4l-37.8,34.2l51.9,0.2l63-56.6h-0.5c13.9-12.9,22.7-30.1,22.5-49.3l-12.7-1876.4
				C4171.4,783.5,4134.9,751.5,4090.2,751.4z"/>
			<path class="st9" d="M4026,809c44.8,0.1,81.2,32.1,81.5,71.6l12.8,1876.4c0.2,39.6-35.8,71.5-80.6,71.4l-3142.6-4
				c-44.8-0.1-81.2-32.1-81.5-71.6L802.7,876.4c-0.2-39.6,35.8-71.5,80.6-71.4L4026,809z"/>
			
				<linearGradient id="SVGID_1_" gradientUnits="userSpaceOnUse" x1="869.0525" y1="3181.4426" x2="4056.533" y2="3181.4426" gradientTransform="matrix(1 0 0 -1 0 5000)">
				<stop  offset="0" style="stop-color:#5471A9"/>
				<stop  offset="1" style="stop-color:#57B4E0"/>
			</linearGradient>
			<path class="st10" d="M4056.5,2658.5c0,62-49.1,112.3-109.7,112.3H978.7c-60.6,0-109.7-50.3-109.7-112.3V978.7
				c0-62,49.1-112.3,109.7-112.3h2968.1c60.6,0,109.7,50.3,109.7,112.3V2658.5z"/>
			<rect x="1273" y="1248.6" class="st11" width="1537.6" height="200.6"/>
			<path class="st12" d="M2639.6,1326.7H1367.8c-14.7,0-26.5-8.3-26.5-18.6v-1.8c0-10.2,11.9-18.6,26.5-18.6h1271.8
				c14.7,0,26.5,8.3,26.5,18.6v1.8C2666.1,1318.4,2654.3,1326.7,2639.6,1326.7z"/>
			<path class="st12" d="M2507.9,1416.9H1366.4c-13.9,0-25.1-7.9-25.1-17.6v-3.7c0-9.7,11.3-17.6,25.1-17.6h1141.5
				c13.9,0,25.2,7.9,25.2,17.6v3.7C2533.1,1409,2521.8,1416.9,2507.9,1416.9z"/>
			<rect x="1273" y="973.3" class="st11" width="1537.6" height="200.6"/>
			<path class="st12" d="M2639.6,1051.4H1367.8c-14.7,0-26.5-8.3-26.5-18.6v-1.8c0-10.3,11.9-18.6,26.5-18.6h1271.8
				c14.7,0,26.5,8.3,26.5,18.6v1.8C2666.1,1043.1,2654.3,1051.4,2639.6,1051.4z"/>
			<path class="st12" d="M2507.9,1141.6H1366.4c-13.9,0-25.1-7.9-25.1-17.6v-3.7c0-9.7,11.3-17.6,25.1-17.6h1141.5
				c13.9,0,25.2,7.9,25.2,17.6v3.7C2533.1,1133.7,2521.8,1141.6,2507.9,1141.6z"/>
			<rect x="1273" y="1526.7" class="st11" width="1537.6" height="200.6"/>
			<path class="st12" d="M2639.6,1604.9H1367.8c-14.7,0-26.5-8.3-26.5-18.6v-1.8c0-10.3,11.9-18.6,26.5-18.6h1271.8
				c14.7,0,26.5,8.3,26.5,18.6v1.8C2666.1,1596.6,2654.3,1604.9,2639.6,1604.9z"/>
			<path class="st12" d="M2507.9,1695.1H1366.4c-13.9,0-25.1-7.9-25.1-17.6v-3.7c0-9.7,11.3-17.6,25.1-17.6h1141.5
				c13.9,0,25.2,7.9,25.2,17.6v3.7C2533.1,1687.2,2521.8,1695.1,2507.9,1695.1z"/>
			<rect x="1273" y="1816.7" class="st11" width="1537.6" height="200.6"/>
			<path class="st12" d="M2639.6,1894.8H1367.8c-14.7,0-26.5-8.3-26.5-18.6v-1.8c0-10.3,11.9-18.6,26.5-18.6h1271.8
				c14.7,0,26.5,8.3,26.5,18.6v1.8C2666.1,1886.5,2654.3,1894.8,2639.6,1894.8z"/>
			<path class="st12" d="M2507.9,1985H1366.4c-13.9,0-25.1-7.9-25.1-17.6v-3.7c0-9.7,11.3-17.6,25.1-17.6h1141.5
				c13.9,0,25.2,7.9,25.2,17.6v3.7C2533.1,1977.1,2521.8,1985,2507.9,1985z"/>
			<path class="st13" d="M1211.4,1722.9h-187.1v-191.6h187.1V1722.9z M1041.4,1705.4h153v-156.7h-153V1705.4z"/>
			<path class="st13" d="M1211.4,2012.8h-187.1v-191.6h187.1V2012.8z M1041.4,1995.3h153v-156.7h-153V1995.3z"/>
			<path class="st13" d="M1211.4,1169.4h-187.1V977.8h187.1V1169.4z M1041.4,1151.9h153V995.2h-153V1151.9z"/>
			<path class="st13" d="M1211.4,1446.8h-187.1v-191.6h187.1V1446.8z M1041.4,1429.3h153v-156.7h-153V1429.3z"/>
			<path class="st14" d="M1096.9,1703.9l-60.5-85.3c-5.4-7.6-3.8-18.1,3.7-23.7c7.2-5.4,17.5-3.9,22.9,3.3c0.1,0.1,0.2,0.3,0.3,0.4
				l37.3,52.5l91.9-97.1c6.2-6.6,16.5-6.9,23.1-0.8c0.1,0.1,0.3,0.3,0.4,0.4c6.6,6.6,6.7,17.2,0.4,24L1096.9,1703.9z"/>
			<path class="st14" d="M1096.9,1404.2l-60.5-85.3c-5.4-7.6-3.8-18.1,3.7-23.7c7.2-5.4,17.5-3.9,22.9,3.3c0.1,0.1,0.2,0.3,0.3,0.4
				l37.3,52.5l91.9-97.1c6.2-6.6,16.5-6.9,23.1-0.8c0.1,0.1,0.3,0.2,0.4,0.4c6.6,6.6,6.7,17.2,0.4,24L1096.9,1404.2z"/>
			<path class="st11" d="M1028.1,2109.7h1238.5c5.7,0,10.3,4.6,10.3,10.3v530c0,5.7-4.6,10.3-10.3,10.3H1028.1
				c-5.7,0-10.3-4.6-10.3-10.3v-530C1017.8,2114.3,1022.4,2109.7,1028.1,2109.7z"/>
			<path class="st15" d="M2243.1,2404.5v209.3c0.1,9.2-7.3,16.8-16.6,16.9H1063.5c-9.2-0.1-16.6-7.6-16.6-16.9c0,0,0,0,0,0v-459.7
				c107.4,0,160.9,41.1,192.2,95.1c2,3.5,3.9,7,5.7,10.6c53,102.8,37.1,243.7,153.8,243.7c4.2,0,8.3-0.5,12.3-1.6
				c2.5-0.5,4.9-1.3,7.2-2.4c78.5-33.9,66.2-274,205.8-272.3c29.8,0.4,52.1,12.1,69.7,30.8c1.7,1.9,3.4,3.7,5,5.8
				c62.5,75.1,63.4,242.5,159.4,272.9c34.6,10.9,65.2-3.9,95.3-28.4c1.9-1.6,3.9-3.2,5.8-4.9c63.8-54.3,127.3-147,225.8-124.3
				c2.9,0.7,5.7,1.4,8.7,2.3C2209.1,2386.1,2225.6,2393.6,2243.1,2404.5z"/>
			<path class="st16" d="M2243.2,2362.3c-20.9,0.3-36.9,7.5-49.7,19.1c-23.7,21.5-36.5,58.3-48.9,94.2
				c-18.7,53.8-38,109.3-94.3,109.3c-3,0-6.2-0.1-9.4-0.4c-36.7-3.7-63.8-34.3-87.6-76.2c-14.8-26-28.3-56.4-42.2-87.5
				c-39-87.6-79.4-178.2-153.7-180.3c-0.9,0-1.7-0.1-2.5-0.1c-22.5,0-40.9,8.8-56.4,23.4c-31.4,29.3-51.4,82.2-71,134
				c-28.9,76.6-58.8,155.9-126.3,157.5c-48.5,1.1-70.6-17.7-90.3-53.3c-7.6-13.8-14.9-30.2-23.3-48.8
				c-15.2-34.2-34.3-76.8-65.8-126.3c-21.2-33.2-48.1-54.3-76.9-67c-77.8-34.7-169.4-9.3-198,0.2v-7.9
				c30.6-9.9,116.2-32.3,192.2-2.9c33.2,12.8,64.5,35.6,88.7,73.5c31.9,49.9,51,92.8,66.4,127.2c8.7,19.4,16,36,23.8,49.6
				c18.6,32.9,39.1,49.2,83.1,48.2c62.6-1.5,90.3-74.9,119.7-152.6c19.9-52.8,40.2-106.6,72.8-137.1c17.3-16.1,38-25.7,64-25
				c79,2.2,120.3,94.9,160.2,184.7c13.6,30.5,26.8,60.3,41.2,85.7c22.9,40.7,48.5,70.2,82.5,73.6c58,5.9,76.5-47.4,96.1-103.9
				c12.2-35.2,24.6-71.1,47.2-94c14.4-14.7,32.9-24,58.2-24.4L2243.2,2362.3z"/>
			<rect x="2372.9" y="2109.7" class="st11" width="1498.7" height="550.6"/>
			<path class="st17" d="M3373.4,991.1h75.5c5,1.2,9.8,3.2,14.9,3.7c197.8,19.8,370,165.5,425,361.5c9.9,35.2,14.9,71.9,22.1,107.9
				v77.3c-1.3,5.8-3.3,11.6-3.8,17.5c-19,199.8-163.3,377.9-352.5,432.9c-35.9,10.4-73.3,15.3-110.1,22.8h-66.6
				c-12.3-1.7-24.8-3-37-5.3c-203.8-37.8-340.7-156.3-406.8-357.8c-11.6-35.3-15.3-73.3-22.6-110.1v-81.8c1.2-5.1,3.1-10.1,3.8-15.2
				c30.1-209.6,142.5-351.8,335.9-425.2C3290,1004.5,3332.6,1000.2,3373.4,991.1z M3063.8,1188.5c-65.3,61-126.5,217.8-114.5,296
				h197.1c16.2-79,31.8-155.3,47.3-230.8L3063.8,1188.5z M3876.2,1485.1c-5.7-115.7-44.9-214-116.3-297.3l-131.2,65.9
				c15.7,77.5,31.2,153.9,47,231.5H3876.2z M2946.2,1520.8c4.7,110.1,41.1,205,106.6,285.8l135.9-70.7
				c-13.8-71.8-27.3-142.5-41.3-215.1H2946.2z M3674.9,1520.8c-14.1,73.1-27.9,144.3-41.5,214.9l136.1,71.1
				c65.3-82.3,102.7-176.8,106.2-286H3674.9z M3393.6,1294l-161.4-25.9c-27.5,68.9-43.2,140.8-44.6,216.2h206L3393.6,1294z
				 M3635.1,1485.1c-3.1-77.3-16.9-149.9-45.3-216.8l-160.7,25.6v191.2H3635.1z M3393.8,1520.9h-206.6c3,70.9,14.4,138.4,39.4,200.5
				c57.2-9.3,111.6-18.1,167.1-27.1L3393.8,1520.9z M3428.9,1694.3l167.2,27.3c24.1-63.8,36.7-130.4,39-200.6h-206.2V1694.3z
				 M3077.5,1832.3c59.7,72.9,203.4,146.2,268.7,138.7c-58.5-59-104.1-126.3-139.6-205.4L3077.5,1832.3z M3471.8,1975.5
				c109.8-16.7,197.2-63.2,274.8-142.1l-130.9-67.9C3580,1845.8,3533.7,1912.5,3471.8,1975.5L3471.8,1975.5z M3428.8,1728.7v238.7
				c67.2-60.5,117-128.6,154.2-213.2L3428.8,1728.7z M3239,1754.2c38.4,85,87.4,153.4,154,212.9V1729L3239,1754.2z M3340.3,1031.7
				c-94.1,14.8-178.6,56.9-254.2,130.3l120.8,59C3253.5,1154.9,3296.8,1093.5,3340.3,1031.7L3340.3,1031.7z M3736,1161.7
				c-76-73-160-115.4-254.1-130l133.5,189.7L3736,1161.7z M3393.4,1258.7v-220.5c-62.3,56.7-110,119.3-147,197.5L3393.4,1258.7z
				 M3576.3,1235.7c-38.7-78-84.3-142-147.2-196.3v219.2L3576.3,1235.7z"/>
			
				<linearGradient id="SVGID_2_" gradientUnits="userSpaceOnUse" x1="26047.3438" y1="507.0413" x2="26133.4277" y2="507.0413" gradientTransform="matrix(-1 -6.000000e-02 6.000000e-02 -1 28183.2109 5770.6499)">
				<stop  offset="0" style="stop-color:#F15A24"/>
				<stop  offset="1" style="stop-color:#F9A662"/>
			</linearGradient>
			<path class="st18" d="M2140.6,3726.8c15.6-20.6,16.1-50.3,16.1-50.3l63.1-5.9c0,0,4,21.9,7.3,49.6
				C2210.7,3728.5,2172.7,3743.6,2140.6,3726.8z"/>
			<path class="st19" d="M1991.8,3763.2c16.5-22.8,90.7-1.7,131.7-22c6.7-3.4,12.6-8.4,17.1-14.4c32.1,16.8,70.1,1.7,86.6-6.6
				c2.7,22.5,5,48.8,4.1,70.3c-0.6,13.3-11,24.1-24.2,25.4c-127.6,12.4-224.9-6.3-224.9-6.3
				C1978.6,3793.5,1982.1,3776.6,1991.8,3763.2z"/>
			<path class="st19" d="M2601.9,3702.3c3.7,19.8,6.6,42,5.8,60.6c-0.7,12.9-10.6,23.3-23.4,24.6c-123.7,12-210.6,9.6-210.6,9.6
				c-3.5-15.6-0.1-32,9.3-45c16-22.1,80.5-17.4,120.3-37.1c5.2-2.6,9.8-6.3,13.4-10.8C2544.2,3715.1,2581,3708,2601.9,3702.3z"/>
			
				<linearGradient id="SVGID_3_" gradientUnits="userSpaceOnUse" x1="25674.3164" y1="553.1284" x2="25759.2598" y2="553.1284" gradientTransform="matrix(-1 -6.000000e-02 6.000000e-02 -1 28183.2109 5770.6499)">
				<stop  offset="0" style="stop-color:#F15A24"/>
				<stop  offset="1" style="stop-color:#F9A662"/>
			</linearGradient>
			<path class="st20" d="M2528.4,3653l60.5-5.7c0,0,7.4,24.9,13.1,55c-20.9,5.7-57.7,12.7-85.2,1.9
				C2532.6,3684.4,2528.4,3653,2528.4,3653z"/>
			<path class="st21" d="M2350.5,1756.5c-8.1-16.4,58.3,17.9,58.3,17.9s-1.8,16.6-2.5,35.3c-7-2.3-32.2-10.3-56.7-12.5
				C2352.5,1780.7,2354.1,1763.8,2350.5,1756.5z"/>
			<path class="st22" d="M2349.7,1797.2c24.5,2.2,49.7,10.2,56.7,12.5c-0.6,18.8,0,39.8,4.8,47.9c9.7,16.1-67,3-72.5-4.1
				s1.8-15.8,1.8-15.8S2346.1,1817.7,2349.7,1797.2z"/>
			<path class="st22" d="M1891.8,1891.4c0,0-3-2.1-7.4-5c-11-7.2-30.3-19.5-29.4-15.8c1.3,5.2-14.5,38-18.4,48.1
				c-3.9,10.1-13.3,29.5-10.6,47.1c2.7,17.6,9.2,35.6,13.6,44.5c4.4,8.9,10,25.1,12.6,26c2.5,1,9.9,16.8,9.9,16.8l37.5-18.6
				c0,0-7.9-35.1-8.2-43.4c-0.3-8.3-1.4-34.2,1.1-48.2c2.5-14,9.3-37.7,4.2-44.6c-5.1-6.9-27.1-27.6-27.1-27.6"/>
			<path class="st23" d="M1909.6,2132c2.8,10.9,14.2,20.1,25.7,20.7l296.6,15.7c11.4,0.6,18.5-7.7,15.7-18.5l-105.4-416
				c-2.8-10.8-14.3-20.1-25.7-20.7l-296.6-15.7c-11.4-0.6-18.5,7.7-15.7,18.6L1909.6,2132z"/>
			<path class="st24" d="M1923.7,2116.3c2.5,9.9,12.9,18.5,23.1,19l264.4,14c10.2,0.5,16.4-7.1,13.9-17.1l-96.9-382.6
				c-2.5-9.9-12.9-18.5-23.1-19l-264.4-14c-10.2-0.5-16.4,7.1-13.9,17.1L1923.7,2116.3z"/>
			<polygon class="st25" points="1905.7,1781.6 2116.3,1792.8 2114.1,1784.2 1903.5,1773 			"/>
			<polygon class="st25" points="1918.8,1833.3 2129.3,1844.5 2127.2,1835.8 1916.6,1824.7 			"/>
			<polygon class="st25" points="1931.9,1885 2142.4,1896.2 2140.3,1887.5 1929.7,1876.3 			"/>
			<polygon class="st25" points="1945,1936.7 2155.5,1947.9 2153.4,1939.2 1942.8,1928 			"/>
			<polygon class="st25" points="1958.1,1988.4 2168.6,1999.6 2166.4,1990.9 1955.9,1979.7 			"/>
			<polygon class="st25" points="1971.2,2040.1 2181.7,2051.3 2179.5,2042.6 1969,2031.4 			"/>
			<polygon class="st25" points="1984.3,2091.8 2194.8,2102.9 2192.6,2094.3 1982.1,2083.1 			"/>
			<path class="st26" d="M1984.9,1700.3c0,0-10.2-7.8-5.3-15.5c5-7.7,3.5-16.4-16.6-17c-21.3-0.6-9.2,11.9-5,15.4
				c3.9,3.3,6.2,11.4,3.6,15.1C1959.9,1700.7,1984.9,1700.3,1984.9,1700.3z"/>
			<polygon class="st27" points="1921,1690.7 2019.7,1695.9 2025.8,1720 1927.1,1714.8 			"/>
			<polygon class="st28" points="2025.8,1720 2031.6,1742.9 2006.6,1741.6 1998.8,1735.3 1993.5,1741.5 1969.5,1740.2 1961.8,1734 
				1956.5,1740.2 1933.2,1739 1927.1,1714.8 			"/>
			<polygon class="st29" points="1855,1778.9 1888.1,1780.7 1880.2,1749.3 1847,1747.5 			"/>
			<polygon class="st29" points="1868.1,1830.6 1901.2,1832.4 1893.3,1801 1860.1,1799.2 			"/>
			<polygon class="st29" points="1881.2,1882.6 1914.4,1884.3 1906.4,1852.9 1873.3,1851.2 			"/>
			<polygon class="st29" points="1894.4,1934.5 1927.5,1936.3 1919.6,1904.9 1886.4,1903.1 			"/>
			<polygon class="st29" points="1907.6,1986.5 1940.7,1988.2 1932.7,1956.8 1899.6,1955.1 			"/>
			<polygon class="st29" points="1920.7,2038.4 1953.9,2040.2 1945.9,2008.8 1912.8,2007 			"/>
			<polygon class="st29" points="1933.9,2090.4 1967,2092.1 1959.1,2060.7 1925.9,2059 			"/>
			<path class="st30" d="M2104.4,3156.2l77.1-631.1l354.6,14.7c0,0,32.2,80.1,32.4,160s-28.1,338.8-28.1,338.9l0.8,87.2l-1-8.4
				l62.7,547.2l-77.5,13.8l-131.6-534.8l-1-8.3l-32.2-353.7l-109,397.1l-23.6,516.4l-78.2,2.5l-46.2-528.3l-0.3-3L2104.4,3156.2z"/>
			<path class="st31" d="M2425.4,2854.3c22.6,52.1-7.7,214.8,8.7,242.6c16.3,27.8,53.2,9.5,28.2,28.8
				c-25,19.3,18.8,373.1,18.8,373.1l0,0l-87.3-354.9l-1-8.3l-32.2-353.7C2360.6,2781.8,2402.8,2802.2,2425.4,2854.3z"/>
			<path class="st22" d="M2338.5,1543.3c29.4-40.6,108.1-43.9,163.3,1.2c55.3,45.2,2.9,153.3,2.9,153.3
				c-50.5,95.6-162,95.1-186.9,51.1S2309.1,1584,2338.5,1543.3z"/>
			<path class="st32" d="M2371.7,1461.8c44.1,0.7,98.8,13.9,140,35c36,18.5,55.2,58.4,48.1,98.2c-10.8,60.6-38.4,123.4-64.7,157
				c-34.7,44.1-125.9,51.6-135.6,24.8c-9.7-26.8,8.7-54.8,27.3-68.5c18.6-13.7-0.3-53-14.9-42.6c-14.6,10.4-24,54-36.1,40.6
				c-12-13.3,50.5-90.3,14.7-96.4c-26.2-4.5-45.4-26.4-57.4-52.1c-8.5-18.2-13.5-37.9-14.7-57.9
				C2276.2,1450.5,2339.7,1461.2,2371.7,1461.8z"/>
			<path class="st33" d="M2418.6,1587c36.3,11.4,10.4,89.3,57.5,92.4c26.5,1.7,44.6,3.2,59.5-1.7c-12,29.9-26.4,56.3-40.5,74.3
				c-34.7,44.1-125.9,51.6-135.6,24.8c-9.7-26.8,8.7-54.8,27.3-68.5c18.6-13.7-0.3-53-14.9-42.6c-14.6,10.4-24,54-36.1,40.6
				c-12-13.3,50.5-90.3,14.7-96.4c-26.2-4.5-45.4-26.4-57.4-52.1c-8.5-18.2-13.5-37.9-14.7-57.9
				C2278.4,1500,2299,1577.4,2418.6,1587z"/>
			
				<linearGradient id="SVGID_4_" gradientUnits="userSpaceOnUse" x1="25797.6758" y1="1995.651" x2="26227.9805" y2="1995.651" gradientTransform="matrix(-1 -6.000000e-02 6.000000e-02 -1 28183.2109 5770.6499)">
				<stop  offset="0" style="stop-color:#48407C"/>
				<stop  offset="1" style="stop-color:#AA77B0"/>
			</linearGradient>
			<path class="st34" d="M2528.3,1865.5c-19.5-23.9-121.7-19.7-121.7-19.7s-36.4,19-66.1-8.1c-36-5.2-175.7,10.1-175.7,10.1
				s-42.5,131.6,0.9,275.3c43.4,143.7,41,362.1,14,408.8c-27,46.7,279.3,109.6,363.8,28.6
				C2514.3,2401.8,2593.7,1945.6,2528.3,1865.5z"/>
			<path class="st35" d="M2222.8,1861.8c0,0,21.1,34.9,15.1,84.5c-6,49.6-54.4,209.2-55.4,219.1c-1,9.9-51,178.8-51,178.8
				s-47,36.1-82.1-4.7c-56.9-66.1-199.8-283.4-199.8-283.4l47.7-32.2l175.3,193.6c0,0,51-367.5,90.7-369
				C2203.2,1844.5,2222.8,1861.8,2222.8,1861.8z"/>
			<g>
				<defs>
					<path id="SVGID_5_" d="M2222.8,1861.8c0,0,21.1,34.9,15.1,84.5c-6,49.6-54.4,209.2-55.4,219.1c-1,9.9-51,178.8-51,178.8
						s-47,36.1-82.1-4.7c-56.9-66.1-199.8-283.4-199.8-283.4l47.7-32.2l175.3,193.6c0,0,51-367.5,90.7-369
						C2203.2,1844.5,2222.8,1861.8,2222.8,1861.8z"/>
				</defs>
				<clipPath id="SVGID_6_">
					<use xlink:href="#SVGID_5_"  style="overflow:visible;"/>
				</clipPath>
				<g class="st36">
					<path class="st37" d="M2302.7,1944.2c0.4-20.8,2.6-36.1-20-43.8c-11.8-4-48.9-16.8-56.3-1.2c-11,2-17.8,22.1-20.9,31.4
						c-12.6,15.7-6,48.4-9.3,69.3c-3.6,22.9-8.5,47.5-16.6,68.6c-7.4,19.3-7.2,40.9-13.7,61.6c-5.9,18.6-17.6,34.1-24,52.2
						c-12.6,35.8-26.9,79.4-52.4,106.9c-12.4-0.3-21.1,2.8-33-4.2c-8.1-4.7-15-13.6-23.8-17.1c-0.1-5.1-2.2-9.5-7.4-10.5
						c-4.5-10.8-18.1-16.1-26-24.7c-6.5-7-14-16-18.4-24c-10.6-19.5-26.7-38.7-37.5-57.9c-0.9-0.6-2-0.1-3-0.5
						c-0.7-6.2-7.3-8.7-8.5-14.5c-14.7-11.6-25.4-37.4-35.3-54.3c-11-18.8-20.9-32.2-38.4-45c-17.1-12.5-44.4-22.9-60.7-4.3
						c-20.8,23.8-25.8,67-29.2,97.4c-2.5,22-5.2,41.6-1.4,63.9c6.2,35.4,16,70.1,29.4,103.6c12.4,31.4,28.2,61.3,47,89.3
						c17.4,26,34.8,37.5,62,51.9c46.7,24.7,96.4,41,149.1,27.9c33.3-8.3,65.6-20.1,96.4-35.1c25.6-12.6,39.6-29.5,54.9-52.7
						c16.1-24.6,35.6-47.3,51.4-72.2c19.2-30,34.7-65.7,47-99.1s20.4-65.4,27.6-100.2c5.7-27.6,5.2-56.7,6.8-84.9
						c1-17.2,2.7-29.9-8.1-43.3c-9.2-11.3-21.6-16.8-32-26.6c-4.2-4-12.3-11.2-13.3-16.7c-0.8-4,3.3-9.2,2.3-14.6
						c-0.5-2.9-3.4-7.6-4.4-11.2c-6.9-9.1-12.3-25.8-26.3-27.5"/>
				</g>
			</g>
			<path class="st38" d="M1099.9,2072.7c13.9-36.9,27.7-73.7,41.6-110.5c11.9-31.6,23.7-63.3,35.4-95c7.1-10.3,8.5-23.6,13.1-35.2
				c-11.6-23.2-33.2-36.6-54-50.7c-2.3-1.4-5.1-1.7-7.6-0.9l-8.8-7.4l-25,15.1l0,0l-196,116c3.1,5.6,3.1,6.1,6.2,6.9
				c22.5,6.1,30.2,21.3,32.8,39.8c0.3,3.9,1.4,7.6,3,11.2c2.1,4,4.7,6.4,7.9,6.5c9.3,5.9,18.1,7.6,25.9,3c1.2,3.2,4.5,5.2,8.2,6.4
				c21.7,6.7,34.6,21.5,43.4,40.8c1.7,3.7,3.8,8.3,8.2,9.2c-0.9,17.2,3.4,22.3,20.6,23.1c15.6,0.7,30.5,0.2,37.5,21.6
				C1094.1,2077.9,1098.5,2077.6,1099.9,2072.7z"/>
			<path class="st39" d="M136.9,2795.5c3.5-4.6,6.9-9.4,10.6-13.8C386,2497.5,624.5,2213.2,862.9,1929c4.3-5.2,8.8-9.9,16-11.9
				c26-5.5,45.6,6.9,53,34.2c3.1,11.5,8,23.7,2.6,33.8c-3.6,6.2-8.5,11.4-13,16.8c-226.3,269.6-452.6,539.1-678.9,808.6
				c-4.8,5.7-9.2,11.9-15.4,16.3c-10,5.2-21.2-1.8-32-5.4c-14.2-6.8-28.8-10.7-43.3-16.1C146.5,2803.3,140,2802.5,136.9,2795.5z"/>
			<path class="st39" d="M1087.5,2096c-0.8,9.6-4.6,17.1-10.4,24c-236.3,281.1-472.4,562.3-708.5,843.5c-4.3,5.1-8.8,9.9-13.2,15
				c-5.5-0.7-8.1-5.1-10.1-9.1c-9.1-18.5-18.4-36.9-27.5-55.4c-2.1-4.3-2.8-8.5-1.2-12.3c2.8-6.3,7.4-11.2,11.7-16.2
				c227.1-270.6,454.3-541.2,681.5-811.8c4-4.8,7.8-9.8,12.8-13.6c13.2-7.9,30.1-5.2,46.8-2.1c11.2,2.1,16.7,10.5,18.6,20.5
				C1089.2,2084.4,1089,2090.3,1087.5,2096z"/>
			<path class="st40" d="M317.2,2907.4c10.6,18.1,19.4,36.7,28.2,55.3c2.6,5.4,4.3,11.5,9.9,15.8c-35.6-9.6-71.7-13.8-103.5-43.9
				c-22.5-21.3-47.5-40.2-71.3-60.3c-4-3.4-9.3-6-10.6-11.6c12.2,1,15.1,14.1,22.5,17.7c-26-26.1-25.6-53.6,2.4-62l26.6,9
				c5.8,0.4,10.7,3.8,15.3,7.7c23.4,19.4,46.7,38.9,69.8,58.6C311.4,2897.7,315.6,2901.9,317.2,2907.4z"/>
			<path class="st41" d="M1190,1831.8c-14.1-14.9-28.6-29.4-45.3-41.7c-4.8-3.5-9.1-7.9-15-8.8c-5-1-8.7-3.4-10.1-8.6l115.3-69
				l3,2.6C1222,1748.2,1206,1790,1190,1831.8z"/>
			<path class="st42" d="M947.5,1967.7l27.3,3.4c31.7,7.4,49,28.7,59.5,56.5c6.5,19.1,6.5,19.1,28.2,20.2c21.7,1.1,23.1,2,31.4,23
				c2.1,5.4,3.9,3,6,1.8c-2.8,8.7-6.1,16.9-12.3,23.4c-0.3-0.4-0.6-0.9-0.8-1.4c-5.8-33.6-10.2-37.2-44.8-35.8
				c-4.2,0.2-8.4,0.1-12.6,0.2c-7.4-11.2-10.6-23.2-15.8-34.7c-9.3-20.4-23.8-31.2-45.1-36.4c-11.5-2.8-23.2,0.1-34.5-8.9
				c-1.1-7-1.9-13.9-3.4-20.9c-6-28.6-17.4-37.7-51.7-40.9c6.2-4.7,11.2-10.9,19.6-13.2c30,8.9,43.4,27.8,44,54.7
				C942.7,1962.3,944.5,1965.6,947.5,1967.7z"/>
			<path class="st43" d="M195,2818.5c-3.2,7.8-14.1,8.7-16.1,18c-3.1,15.3,4,29.5,13.6,45.1c-7.4-6.3-14.9-12.6-22.4-18.8
				c-12.3-22.1-25.3-44-33.1-67.2C155.9,2805.2,176.1,2808.2,195,2818.5z"/>
			<path class="st44" d="M933.9,1979c1.9,0.3,3.9,0.8,5.8,1c55.9,6.3,72.4,17.1,89.6,79.1l-712.2,848.4l-95.6-80
				C459.1,2544.7,696.5,2261.9,933.9,1979z"/>
			<path class="st45" d="M254.2,2874.6c10.1,8.5,19.1,17.8,24.2,29.3c5.3,11.9,0.7,16.9-11.9,13.9c-17.8-4.2-49.2-30.6-56.3-47.3
				c-5.7-13.3-0.5-18.5,13.9-13.8C233.5,2859.8,243.2,2865.6,254.2,2874.6z"/>
			<path class="st46" d="M360.4,2486.4c0,0-173-27.2-226.5-34.2v-77.6L95.6,2312c0,0-35.1,94.7-46.6,169.5c0,0-18.2,95.6-3.1,139.3
				c15.1,43.7,145.3-6.7,198.4-35c53.1-28.3,121.2-54.7,121.2-54.7L360.4,2486.4z"/>
			<g>
				<defs>
					<path id="SVGID_7_" d="M360.4,2486.4c0,0-173-27.2-226.5-34.2v-77.6L95.6,2312c0,0-35.1,94.7-46.6,169.5
						c0,0-18.2,95.6-3.1,139.3c15.1,43.7,145.3-6.7,198.4-35c53.1-28.3,121.2-54.7,121.2-54.7L360.4,2486.4z"/>
				</defs>
				<clipPath id="SVGID_8_">
					<use xlink:href="#SVGID_7_"  style="overflow:visible;"/>
				</clipPath>
				<g class="st47">
					<path class="st37" d="M129.7,2320.8c0,0-83.3,256.8-42.8,270.5c40.5,13.6,46.3,9.1,88.8,3.7s101.1,3,140-25.8
						c38.9-28.8,74-35.2,95-60.4c21-25.2-8.9-154-81-175.2s-151.2-40.1-159.7-37.9c-8.5,2.2-52.5,18.9-46.4,22"/>
				</g>
			</g>
			<path class="st48" d="M487.5,4167.8c-18.2-7.4-40.3-31.4-44.6-41.7c-4.3-10.3-3.9-62.5-3.6-84.4c2.3-151.1,26.5-520.6,29.6-609
				c5.5-153.8-16.1-312.2-77.7-558.3l-221.9-166.7c0,0-11.3,21.5-22.3,54.7l-30.5-24.5c0,0-41.8,100.8-8.7,206.4
				c16.3,52-1,88.9,7.8,113.5c8.2,23,68.6,349.9,65.3,374s-30,91.9-39.1,162.8c-10,77.9-3.5,315.7-8.7,412.2h-0.1
				c0,0-4.3,71.9-12.4,87.8c-8.1,15.9-19.6,33.6-21.2,54.9c-0.9,12.3,6.2,25.2,20.5,32.1s23.6-0.9,28.7-0.4
				c29.7,2.9,35.5,25.2,86.4,32.4c15.7,2.2,39.5-3.6,53.1-14.8c5.2-4.3,4.9-11.2,1.8-15.8c-3.1-4.6-40.9-16.6-58-27
				c-16.4-9.9-32.8-38.1-37.4-47.8c-1.2-2.5-1.1-9.5-0.3-18.6c0,0,0,0,0-0.1c1.9-15.2,4.1-31,6.4-47.3c2-12.2,3.7-21.2,3.7-21.2
				l-0.5-0.1c32-209.9,94.2-487.8,102.6-583.3c2.5-29,3.6-64.5,3.7-106l41.4,119.6c0,0-25.1,86.4-25.6,180.8
				c-0.5,80.6,38.5,323.2,46.2,415.7c1,18.1,4.5,61.3-0.7,75.2c-6.3,17-22.8,37-21.8,58.3c0.6,12.4,9.6,24.1,25.3,28.7
				c15.6,4.7,24.3-4.4,29.6-4.7c31-1.6,39.8,19.7,93.4,19.1c16.5-0.2,40.4-9.5,53-22.7c4.9-5.1,3.6-11.8-0.2-15.9
				C547,4181.8,506.6,4175.5,487.5,4167.8z"/>
			<path class="st48" d="M174.7,2233.7l153.2-5.5c0,0-4-46.8,5.4-64.5c3.1-5.9,11.5-14.7,22.8-25c14.4-0.2,36.9-3.5,45.8-22.5
				c5.1-86.2-29.9-137.1-45.4-155.2c-18.5-33.8-48.1-74.9-111.5-68.6c-69.1,6.8-128.3,50.4-127.5,102.2s36,114.2,49.4,150
				C180.4,2180.5,174.7,2233.7,174.7,2233.7z"/>
			<path class="st49" d="M300.1,3090l-71.8,176.1c33.3,53.3,53.3,116.7,57.4,181.4c2.1,33.6-0.1,67.4,1.6,101
				c0.2,2.5,0.6,4.9,1.2,7.3c9-50.1,15.6-91.4,17.9-118.2c6.5-75.1,3.7-194.2-2.6-347.9C302.6,3089.7,301.4,3089.9,300.1,3090z"/>
			<path class="st50" d="M292.3,4202.2c3.5-6.4,4.3-16,0.8-18.3c-4.9-3.1-22.1-14-32.1-18.3c-10-4.3-25.7-7.9-20.1-5.1
				s-4.3,14.2-13.5,13.9c-31.9-1.2-55.8-21.8-74.1-25.9c-26.3-5.9-38-36.5-39.3-41.5c-4.9,3.3-15.8,28.4-17.9,36.3
				c-1.9,7.1-5.4,20.1-3.2,27.5c1.5,5,4.8,15.2,3.5,26c0,0,5.3,3.8,19,6.3c8.7,1.6,20.3-0.2,20.3-0.2l1.8-16.5
				c5.4-0.2,10.9,0.2,16.2,1.2c9.1,1.7,24.1,9.9,25,11c3.7,4.2,6.8,12.1,11.7,14.4c12.9,6.1,25.8,8.9,42,9.4
				C266.5,4223.6,286.2,4213.2,292.3,4202.2z"/>
			<path class="st50" d="M555.7,4204.7c2.9-6.9,2.4-16.5-1.5-18.2c-5.4-2.4-24.6-10.5-35.5-13.3c-10.8-2.8-27.5-4-21.4-2
				c6.1,2-2.6,14.7-12.2,15.7c-33.1,3.6-60.5-13.2-79.8-14.5c-28-1.9-38.4-30.6-40.4-35.3c-4.6,4-18.1,30.6-19.4,38.7
				c-1.1,7.3-3,20.8,0.1,27.7c2.2,4.8,6.9,14.3,7,25.2c0,0,5.9,3,20.4,3.4c9.2,0.3,20.9-3.2,20.9-3.2l-0.2-16.6
				c5.6-1,11.3-1.4,16.9-1.2c9.6,0.3,21.6,5.1,27.4,9.4c4.6,3.4,9.4,9.1,14.8,10.4c15.5,3.7,26.7,4.7,43.5,2.9
				C531.8,4229.7,550.8,4216.5,555.7,4204.7z"/>
			<path class="st51" d="M379,2745.2l-10.7,1.8c-5.5,0.9-10.8-2.8-11.7-8.3c0,0,0,0,0,0l-46.7-274.7c-0.9-5.5,2.8-10.8,8.3-11.7
				c0,0,0,0,0,0l10.7-1.8c5.5-0.9,10.8,2.8,11.7,8.3l46.7,274.7C388.2,2739.1,384.5,2744.3,379,2745.2
				C379,2745.2,379,2745.2,379,2745.2z"/>
			<path class="st50" d="M154.6,2706.8c-61.2,52.9-84.7,140.5-72.4,234.1c3.3,24.8,28.3,92.8,32.1,117.6
				c8.8,56.3,26.8,139.2,25.7,203.5c82.2,59.6,249.1,54.4,324.7,9.9c8.4-77.6,6.8-139.3,0.9-246.9c-9-162.4-81.4-313.7-82.8-327.2"
				/>
			
				<linearGradient id="SVGID_9_" gradientUnits="userSpaceOnUse" x1="86.9049" y1="2542.4858" x2="415.4927" y2="2542.4858" gradientTransform="matrix(1 0 0 -1 0 5000)">
				<stop  offset="0" style="stop-color:#CDDCFD"/>
				<stop  offset="1" style="stop-color:#E7F0FF"/>
			</linearGradient>
			<path class="st52" d="M380.5,2551.9c-3.1,29,0,73.5,4,123.1c0.7,8.4,4.8,24,4,32.5c-0.4,4.9-2.7,9.4-6.4,12.6
				c-8.8,8.7-25.9,14-44.6,17.3c-60.9,11-157.1,3.6-184.3,9c-25.5,5.1-51.7-3.5-51.7-19.1c0-10.8,9.9-16.9,10.8-38.1
				c2-46.6,0.5-152.6-8.1-199.9c-18-99.2-22.9-158.1-10.5-269.1l186-52.8c14.3,2.4,8.1,46,22.4,48.4c10.4,1.7,69.3,57.6,86,123.6
				c10.1,17.1,17.2,31,21.5,42.9c8.2,22.2,7.3,38.4-0.2,58.7C395.2,2480,385.1,2508.1,380.5,2551.9z"/>
			<g>
				<defs>
					<path id="SVGID_10_" d="M380.5,2551.9c-3.1,29,0,73.5,4,123.1c0.7,8.4,4.8,24,4,32.5c-0.4,4.9-2.7,9.4-6.4,12.6
						c-8.8,8.7-25.9,14-44.6,17.3c-60.9,11-157.1,3.6-184.3,9c-25.5,5.1-51.7-3.5-51.7-19.1c0-10.8,9.9-16.9,10.8-38.1
						c2-46.6,0.5-152.6-8.1-199.9c-18-99.2-22.9-158.1-10.5-269.1l186-52.8c14.3,2.4,8.1,46,22.4,48.4c10.4,1.7,69.3,57.6,86,123.6
						c10.1,17.1,17.2,31,21.5,42.9c8.2,22.2,7.3,38.4-0.2,58.7C395.2,2480,385.1,2508.1,380.5,2551.9z"/>
				</defs>
				<clipPath id="SVGID_11_">
					<use xlink:href="#SVGID_10_"  style="overflow:visible;"/>
				</clipPath>
				<g class="st53">
					<path class="st37" d="M60,2456.5c3.1,11.6,17.4,26,24.5,36.1c7.8,11,15.1,21.3,29.1,27.5c27.1,12,59.3,22.8,91.9,14.1
						c19.4-5.1,37.9-15.9,58.6-14.1c20.9,1.9,32.2,11.4,49.4,21.4c0.8,2.6,0.6,1.4,2,3c2.1,9.3,9.1,19,13,28.2
						c4.7,10.9,9.3,21.7,13.4,32.3c6.1,15.7,13.7,47.5,28.1,56.7c3.3,14.9,32.2,15.4,44.6,15c14.9-0.5,28.1-7.7,43-9.9
						c44.3-6.4,92.5-14.8,133.1-34.8c34.2-16.8,67-29.3,90.9-60.8c16.5-21.3,28.7-45.6,35.7-71.6c8.5-31.7,7.3-64.5,7.3-97.1
						c0-24.8-1.4-45.3-9.3-69c-19.5-58.3-58.8-91.1-114-115.3c-30.9-13.6-64.8-26.2-97.9-34.8c-34.7-9.1-68.3-21.5-103.4-30.1
						c-23.9-5.9-49.5-5-73.8-8.3c-20.7-2.8-43.5-1.7-64.3-2.8c-60.8-3-128.6-9-181.4,22.4c-37.4,22.2-60.9,55.6-72.2,98.4
						c-7.2,27.3-10.9,63.7-5.8,91.9c7.7,42.9,27.9,76.6,52.4,112c11.4,16.5,20.6,34.4,35.1,47.2c9.4,8.3,9.3,3.1,22,5.1"/>
				</g>
			</g>
			<path class="st54" d="M380.5,2551.9c-3.1,29,0,73.5,4,123.1c0.7,8.4,4.8,24,4,32.5c-0.4,4.9-2.7,9.4-6.4,12.6v-0.2
				c5.5-12.3-7.7-73.3-13.4-107.6c-5.9-34.5-4.2-100.9,8.1-142.9s16.7-62,16.7-62s9.5-14.3,16.1-25.1c8.2,22.2,7.3,38.4-0.2,58.7
				C395.2,2480,385.1,2508.1,380.5,2551.9z"/>
			<path class="st55" d="M358.4,2248.7c-9.3-11-23.6-16.5-31.7-28.3c-7.8-11.2-12.7-27.9-10.9-41.5c1.1-8.4,5.4-15.9,9.2-23.4
				c16.7-33.6,17.7-55.3-6.1-82.4c-7.8-8.9-15.5-18.2-19.4-29.4c-3.6-10.1-6.4-21.1,3.4-27.1c6.8-4.3,12.2-4.7,17.6,0.2
				c3.7,3.4,14.7,35.5,16.6,13.5c1.8-21.1,9.8-26.4-8.7-64.2c-2.2-4.5-12.4-22.1-10.9-26.1c23.8,4.5,31.9,10.8,41.6,25.9
				c10.6-11.9-20.4-98.9-115.9-96.5c-24.1,0.6-49.1,2.2-70.6,13.1c-21.5,10.9-45.4,30.1-44,49.4c-33.8,6.5-38.6,41-41.2,53.9
				c-3.8,18.4-4.4,37.3-2,56c3.6,27.5,13.8,53.7,19.2,80.9c4.4,22.1,5.6,46.6-3.1,67.7c-8.4,20.2-28.5,31.3-38.7,51
				c-12.9,25.1-12.1,56.1,1.1,81.2c13.2,25.1,29.8,41.4,25.4,72.1c-1.4,10-10.3,56.2,32.3,93.7c17.5,15.4,50.3,23.3,73,19.8
				s39.7-7.9,59.9-18.9c35.7-19.4,67.5-31.9,90.6-83.4c13.1-29.2-6.1-33.2,5.6-63.1c6.5-16.8,20.5-30.6,22.3-49.2
				c1.5-15.4-4.2-31.1-13.6-43.3C359.1,2249.6,358.8,2249.2,358.4,2248.7z"/>
			<path class="st56" d="M870.3,2228l3.9-23.2l63.8-62.1l78.8-35.9c0,0,47.7-14.4,16.7,49c-23.2,24.2-59.5,25.8-76.8,36.6
				c-17.2,10.8-32.2,45.2-55,45.2"/>
			<path class="st46" d="M879.5,2196.5c-51.9,42.2-237.9,95.6-262.7,110.6c-6,3.7-46.4,4.5-94.5,4c-16.6-3.3-76.2-16.1-106.8-34.2
				c-16.8-9.7-35.5-15.8-54.8-18l-7.6,14.8c-12.9,46.9-22.7,125.4,46.2,149c8-1.7,16-3,23.7-3.9c73.7-8,100.5-13.1,100.5-13.1
				c0.1-0.3,0.1-0.6,0.2-0.9c48.1-4.1,88.3-8.4,98.1-10.4c80.2-15.7,284.9-156.1,284.9-156.1S910.7,2205.6,879.5,2196.5z"/>
			<g>
				<defs>
					<path id="SVGID_12_" d="M879.5,2196.5c-51.9,42.2-237.9,95.6-262.7,110.6c-6,3.7-46.4,4.5-94.5,4
						c-16.6-3.3-76.2-16.1-106.8-34.2c-16.8-9.7-35.5-15.8-54.8-18l-7.6,14.8c-12.9,46.9-22.7,125.4,46.2,149c8-1.7,16-3,23.7-3.9
						c73.7-8,100.5-13.1,100.5-13.1c0.1-0.3,0.1-0.6,0.2-0.9c48.1-4.1,88.3-8.4,98.1-10.4c80.2-15.7,284.9-156.1,284.9-156.1
						S910.7,2205.6,879.5,2196.5z"/>
				</defs>
				<clipPath id="SVGID_13_">
					<use xlink:href="#SVGID_12_"  style="overflow:visible;"/>
				</clipPath>
				<g class="st57">
					<path class="st37" d="M329.8,2366.9c0,0,196.9,29.6,299.1-5.3c102.3-34.8,281.8-146.2,281.8-146.2s21.2,7,14.4,42.2
						c-6.8,35.2,18.6,21.2-32.9,82.5c-51.5,61.3-31.5,71.1-123.2,117.5c-91.7,46.5-109.1,61.2-184.1,64s-88.6,11.2-122.8-9.2
						c-34.1-20.5-71.9-40.4-89-50.8c-17.1-10.4-31.4-10.5-33.7-34c-2.3-23.5-9.8-55.2-9.8-55.2"/>
				</g>
			</g>
			<path class="st58" d="M4547.8,3524.1v365.1h57.8v-328.6C4585.4,3528.6,4564,3522.3,4547.8,3524.1z"/>
			<g>
				<defs>
					<path id="SVGID_14_" d="M4547.8,3524.1v365.1h57.8v-328.6C4585.4,3528.6,4564,3522.3,4547.8,3524.1z"/>
				</defs>
				<clipPath id="SVGID_15_">
					<use xlink:href="#SVGID_14_"  style="overflow:visible;"/>
				</clipPath>
				<g class="st59">
					<path class="st60" d="M4534.4,3593c0,0,49.8,18.2,78.4,128.7c28.6,110.5,52.2-12.9,46.7-63.5c-5.5-50.5-2.6-102.2-17.4-141
						s-42.7-94-81-72.9c-38.3,21.2-43.3,9.4-41.2,57c2.1,47.6,5.8,98.7,5.8,98.7"/>
				</g>
			</g>
			<path class="st58" d="M4410.9,4145.2c0,25.3-20,45.9-44.6,45.9c-24.6,0-44.6-20.5-44.6-45.9s20-45.9,44.6-45.9
				C4390.9,4099.3,4410.9,4119.9,4410.9,4145.2z"/>
			<path class="st58" d="M4624.2,4186.4c0,25.3-20,45.9-44.6,45.9s-44.7-20.5-44.7-45.9s20-45.9,44.7-45.9
				C4604.2,4140.6,4624.2,4161.1,4624.2,4186.4z"/>
			<path class="st58" d="M4835.2,4145.2c0,25.3-20,45.9-44.6,45.9s-44.7-20.5-44.7-45.9s20-45.9,44.7-45.9
				C4815.2,4099.3,4835.2,4119.9,4835.2,4145.2z"/>
			<path class="st61" d="M4537.2,3888.4c0,0,39-14.8,80.4,0l1.1,51.9l202.9,155.5v36.9h-59.9l-0.8-28.4l-155.4-112.8l1,141.2
				l-7.7,33.2h-40.5l-7.4-32.8l-1.7-137.6L4394.8,4103l-0.6,27.6l-55.5,0.3v-39.1l199-151v-31.1L4537.2,3888.4z"/>
			<path class="st61" d="M4851.3,3507.1c0,30.2-28.2,54.7-62.9,54.7h-416.7c-34.7,0-62.9-24.5-62.9-54.7v-41.4
				c0-30.2,28.2-54.7,62.9-54.7h416.7c34.7,0,62.9,24.5,62.9,54.7V3507.1z"/>
			<polygon class="st62" points="3192.8,4061.6 3176.5,4061.6 3248.7,3140.8 3295.7,3140.8 			"/>
			<polygon class="st62" points="3951.2,4052.2 3934.9,4053 3964.4,3129.7 4011.4,3127.6 			"/>
			<polygon class="st63" points="3556.2,4249.1 3537.5,4252.1 3543.5,3233.5 3597.8,3224.8 			"/>
			<polygon class="st63" points="4406.1,3184.6 3366,3185.6 3131.6,3106.2 4036.4,3093.5 			"/>
			<polygon class="st62" points="4406.1,3248.3 3383.4,3248.3 3131.6,3171.7 3131.6,3106.2 3396.9,3184.3 4406.1,3184.3 			"/>
			<path class="st64" d="M4066.1,3145c2,1.5,3.9,4.3,0.5,4.2l-398.9,12.6c-4.2,0-19.3-3.8-16.7-5.5l-75.6-59.9
				c1.4-1-18.7-15.8-15.7-15.7l217.6-2.8c2.7,0,11.8,0.4,13,1.2L4066.1,3145z"/>
			<path class="st65" d="M4067.9,3156.9c-0.3,3.5-3.3,6.3-6.8,6.3l-388,10.4c-3.1,0.1-5.8-2.4-5.8-5.5c0-0.2,0-0.5,0-0.7l0.4-5.7
				c0.3-3.5,3.2-6.2,6.7-6.3l388-10.5c3.1-0.2,5.7,2.2,5.9,5.3c0,0.3,0,0.6,0,0.9L4067.9,3156.9z"/>
			<path class="st66" d="M3523,3115.6c0.7,3.1,3.2,5.2,6.1,4.6l143.4,53.3c3.3-0.8,5.3-4,4.6-7.3l-56.7-448.4
				c-1.9-10.5-8.8-12.7-15.8-14l-135.7-17.4c-7.1-0.4-11.3,6.5-10.7,9.7L3523,3115.6z"/>
			<path class="st22" d="M3891.7,4035.3c-4.3,1.3-10.9,5.4-20.7,15.2c-49.7,49.9-135,43.1-160.2,34c30.4-14,57-28.2,77-64.3
				c3.1-5.7,6-11.5,8.4-17.5c3.3-0.1,6.7-0.2,10.2-0.2c25.5-0.2,55.7,2.6,84,12.9C3890.6,4023.2,3891.1,4029.8,3891.7,4035.3z"/>
			<path class="st67" d="M3890.5,4015.3c-28.3-10.3-58.5-13.1-84-12.9c-3.5,0-6.9,0.1-10.2,0.2c0.7-1.7,1.4-3.4,2.1-5.1
				c1.6-4.2,4.6-16,8.4-32.7h0.3c3.4,0.2,6.8,0.6,10.2,1.2l75.7,15.5c-1.5,7.8-2.3,15.7-2.5,23.6
				C3890.4,4008.7,3890.4,4012.2,3890.5,4015.3z"/>
			<path class="st67" d="M3893.4,3979c-0.1,0.8-0.3,1.6-0.4,2.4l-75.7-15.5c-3.4-0.6-6.8-1-10.2-1.2h-0.3l0.4-1.5
				c0.1-0.7,0.3-1.5,0.5-2.3C3826.9,3964.1,3864.9,3972.5,3893.4,3979z"/>
			<path class="st30" d="M3903.6,4112.4c-9.8,14.6-3.7,23.3-57.7,22.1c-39.8-0.8-39.4,0.3-139.5,18.9c-53.7,9.9-92.9-37-62.5-42.9
				c30.5-6,61.5-28.6,61.5-28.6c1.7,1.1,3.5,1.9,5.5,2.6c25.3,9.1,110.5,15.9,160.2-34c9.8-9.9,16.3-13.9,20.7-15.2
				c6.5-1.9,8,2.2,8,2.2S3913.4,4097.9,3903.6,4112.4z"/>
			<path class="st68" d="M4543.7,3455.7c-11.5,11.5-135.2,26.3-263.3,40c-15.2,1.6-30.4,3.2-45.6,4.8
				c-124.6,13.1-241.1,24.5-249.1,30.4c0,0,0,0.1,0,0.1c-0.3,9.6-1,19.6-1.9,30.1c-5,57.4-18.5,128.6-41.8,213.6
				c-48.6,177.5-48.6,206.9-48.6,206.9l-0.4-0.1c0.1-0.8,0.3-1.6,0.4-2.4c-28.5-6.5-66.4-15-85.8-18c-0.2,0.8-0.4,1.5-0.5,2.3
				l-0.4,1.5c0.1-0.8,0.2-1.6,0.4-2.3l0,0c15.4-99.6,40.8-307,42.9-354.6c2.9-63.2,16.9-162.2,46.4-187.3
				c18.3-15.6,185.2-67.1,315.8-106c18-5.4,35.3-10.5,51.5-15.3c56-16.5,97.9-28.7,105.3-31.2c7.5-2.5,25.8-5.2,48.1-8
				c54-6.6,131.1-12.8,131.1-12.8C4578.4,3305.1,4592.3,3407.1,4543.7,3455.7z"/>
			<path class="st30" d="M4140.2,4138.6c-39.7,60.1-126.5,70.4-153.4,66.5c-2-0.2-4-0.7-5.9-1.4c0,0-26.6,28.9-55.9,41.1
				c-29.3,11.9,19.5,51,71.3,30.2c96.3-38.7,95.8-39.9,135.7-47.1c54.2-9.7,46.4-17.2,53.3-33.8c6.9-16.5-19.1-74.2-19.1-74.2
				s-2.3-3.9-8.4-0.6C4153.7,4121.4,4148,4126.8,4140.2,4138.6z"/>
			<path class="st69" d="M4644.3,3195c0,0-172.8,23.6-194,40.6c-110.4,88.6-429.5,241.5-454,272.7c-24.5,31.3-8.3,76.8,1.6,140.6
				c7.5,48.5,45.3,312.2,49.9,414c3.6-0.6,7.1-0.9,10.8-1c27.1-1.2,89.6,3.1,89.6,3.1s-0.1-2.7-0.1-11.6
				c-0.1-26.3-15.7-94.2-1.8-235.9c10.6-105.8,5-166-5.2-234.9c14.3-16,521.7-149.1,540.9-178.1
				C4720.7,3346,4686.1,3246.8,4644.3,3195z"/>
			<path class="st67" d="M4149.3,4082.2c-1-9.6-1.4-19.2-1.2-28.8c0.3,7.5,0.1,11.6,0.1,11.6s-62.5-4.3-89.6-3.1
				c-0.4,18.1-1,31.4-1.7,37.2C4078.1,4090,4111.4,4079.7,4149.3,4082.2z"/>
			<path class="st22" d="M4149.3,4082.2c-37.9-2.5-71.2,7.8-92.5,16.9c-0.1,0.5-0.1,0.9-0.2,1.2c-9.8,57.7-37.1,80.8-69.8,104.8
				c27,3.9,113.8-6.4,153.4-66.5c7.8-11.8,13.5-17.2,17.5-19.4c-3.1-9.8-5.6-19.9-7.4-30C4149.9,4087,4149.6,4084.6,4149.3,4082.2z"
				/>
			<path class="st22" d="M3913,2988l-98.5-11.9l-59.1,41.7c0,0-33.6,27.6,9.9,29.9s48.6-39.6,87.6-31.1c39,8.5,67.3,6.7,67.3,6.7
				L3913,2988z"/>
			<path class="st70" d="M4336.6,2739.4c0,0,9.4-29.5,53.7-24.8c44.3,4.7,62.9,68.2-82.6,260.6c-99,128.1-104.9,119.2-210,102
				c-105.1-17.2-211-43.1-211-43.1l19.7-58.8c0,0,239.7,48.7,282.7,31.1C4189,3006.4,4316.7,2759.8,4336.6,2739.4z"/>
			<g>
				<defs>
					<path id="SVGID_16_" d="M4336.6,2739.4c0,0,9.4-29.5,53.7-24.8c44.3,4.7,62.9,68.2-82.6,260.6c-99,128.1-104.9,119.2-210,102
						c-105.1-17.2-211-43.1-211-43.1l19.7-58.8c0,0,239.7,48.7,282.7,31.1C4189,3006.4,4316.7,2759.8,4336.6,2739.4z"/>
				</defs>
				<clipPath id="SVGID_17_">
					<use xlink:href="#SVGID_16_"  style="overflow:visible;"/>
				</clipPath>
				<g class="st71">
					<path class="st37" d="M3879.9,3000.4l5,1c40.6,8.2,313.3,62,332,36.4c20.2-27.7,96.6-147.6,98.9-147.6s53.9,4.5,68.9,30
						c15,25.5,33,39.7,5.7,91.8c-27.4,52.1-60.4,110.5-121.4,138.2s-111.2,52.8-201.8,36.1s-62.2,96.4-156.5-29.4
						c-94.4-125.8-87.5-140-78.9-150.5c8.5-10.5-3.4-18.7,18.3-17.2"/>
				</g>
			</g>
			
				<linearGradient id="SVGID_18_" gradientUnits="userSpaceOnUse" x1="4537.3301" y1="1667.8958" x2="4464.4404" y2="2319.9673" gradientTransform="matrix(1 0 0 -1 0 5000)">
				<stop  offset="0" style="stop-color:#F15A24"/>
				<stop  offset="1" style="stop-color:#F9A662"/>
			</linearGradient>
			<path class="st72" d="M4374.2,2714.3c0,0-14.7,62.6-23.6,81.1c-11.9,24.8-37.3,75.8-41.9,102.9c-4.6,27.1,11.8,79.9,55.8,83.1
				c32.7,36,48.5,208,14.1,284.2c0,0,193.9,77.2,314.5,37.2c0,0-59.6-193.7-45.5-290.9c25-171.6,7.6-247.1,7.5-254l-12.5-38.9
				l-124.1-9.5h-56.2L4374.2,2714.3z"/>
			<path class="st22" d="M4111.2,3021.8l-86.9-47.9l-70.4,16.5c0,0-41.4,13-2,31.5c39.4,18.5,59.9-18.5,92.9,4
				c33,22.5,59.9,31.5,59.9,31.5L4111.2,3021.8z"/>
			<path class="st70" d="M4576.1,2746.9c0,0,10.5-32.9,59.9-27.7c49.4,5.2,70.3,76.1-92.2,290.9c-110.5,143-117.1,133-234.5,113.8
				c-117.3-19.2-235.6-48.1-235.6-48.1l22-65.7c0,0,267.6,54.4,315.6,34.7C4411.3,3044.9,4553.8,2769.6,4576.1,2746.9z"/>
			<g>
				<defs>
					<path id="SVGID_19_" d="M4576.1,2746.9c0,0,10.5-32.9,59.9-27.7c49.4,5.2,70.3,76.1-92.2,290.9
						c-110.5,143-117.1,133-234.5,113.8c-117.3-19.2-235.6-48.1-235.6-48.1l22-65.7c0,0,267.6,54.4,315.6,34.7
						C4411.3,3044.9,4553.8,2769.6,4576.1,2746.9z"/>
				</defs>
				<clipPath id="SVGID_20_">
					<use xlink:href="#SVGID_19_"  style="overflow:visible;"/>
				</clipPath>
				<g class="st73">
					<path class="st37" d="M4052.3,3045.5c0,0,290.9,84.7,346.2,59.4c55.3-25.2,89.7-77.6,110.7-112.1
						c21-34.4,140.8-311.9,191.7-281c50.9,30.9,149.8,23.4,143.8,174.7c-6,151.3,71.3,191.8-64.4,306.2
						c-135.7,114.3-86.1,150.7-303.7,195.6c-217.6,44.9-186.1,56.9-331.4,47.9c-145.3-9-195.8-9-210.2-98.9
						c-14.4-89.9-23-194.9,0-223.3"/>
				</g>
			</g>
			<path class="st74" d="M4524.3,2651.3c11.7-14.2-24.9-52.6-24.9-52.6l-38.4,19.2v2.8c0,0,8,14.9,10.7,37
				c16.2,1.3,32.1,5.4,46.9,12.1C4519.4,2662,4521.1,2655.2,4524.3,2651.3z"/>
			<path class="st75" d="M4406.1,2484.3c0,0-47.6-19.5-29.6-67.1c5-12.8,16.2-22.2,29.6-25c0,0,36.5-40.6,78.8-42.9
				c42.3-2.3,100.6,6.4,125.6,67.1c25,60.7,20.8,202.9,15.4,216.1s-109,33.5-109,33.5l-47.1-95.7L4406.1,2484.3z"/>
			<path class="st22" d="M4404.3,2441.4c0,0-61.4,265.3,81.1,190.4c15.6-10.4,25-40.6,25-40.6s19.8,8.6,26-27.3
				c6.3-35.9-9.4-40.6-21.8-33.6c-12.5,7-39.5-28.9-42.4-58.5C4469.4,2442.2,4415,2475.8,4404.3,2441.4z"/>
			<path class="st22" d="M4518.6,2669.8c-14.8-6.7-30.7-10.7-46.9-12.1c2.7,20.8-0.5,41.9-9.2,61c0,0,27,20.6,58.3,0
				C4520.8,2718.8,4516.5,2690.7,4518.6,2669.8z"/>
			<polygon class="st63" points="4327.2,4223.9 4346.1,4223.9 4263.4,3248.3 4208.8,3248.3 			"/>
		</g>
	</g>
</g>
</svg>
