<?xml version="1.0" encoding="utf-8"?>
<!-- Generator: Adobe Illustrator 24.1.0, SVG Export Plug-In . SVG Version: 6.00 Build 0)  -->
<svg version="1.1" id="Capa_1" xmlns="http://www.w3.org/2000/svg" xmlns:xlink="http://www.w3.org/1999/xlink" x="0px" y="0px"
	 viewBox="0 0 5000 5000" style="enable-background:new 0 0 5000 5000;" xml:space="preserve">
<style type="text/css">
	.st0{fill:#D9E4F4;}
	.st1{fill:#C6D2E5;}
	.st2{fill:#D3DEEF;}
	.st3{fill:#DFE7F4;}
	.st4{fill:#BACDF7;}
	.st5{fill:#9BB8EA;}
	.st6{fill:#EBF1FD;}
	.st7{fill-rule:evenodd;clip-rule:evenodd;fill:#DEEAFC;}
	.st8{fill:#FFB7B8;}
	.st9{fill:#5878E0;}
	.st10{fill:#DCE8F7;}
	.st11{fill:url(#SVGID_1_);}
	.st12{opacity:0.7;}
	.st13{fill-rule:evenodd;clip-rule:evenodd;fill:#FFFFFF;}
	.st14{fill:#7592D1;}
	.st15{fill:#91A7E5;}
	.st16{opacity:0.2;fill:#FFFFFF;enable-background:new    ;}
	.st17{opacity:0.9;fill:#FFFFFF;enable-background:new    ;}
	.st18{opacity:0.7;fill:#FFFFFF;enable-background:new    ;}
	.st19{opacity:0.2;fill:#9CD7FF;enable-background:new    ;}
	.st20{fill:#FFFFFF;}
	.st21{opacity:0.8;}
	.st22{fill:#9CD7FF;}
	.st23{opacity:0.5;fill:#FFFFFF;enable-background:new    ;}
	.st24{fill:#2F488E;}
	.st25{fill:#D4DCE8;}
	.st26{fill:none;}
	.st27{fill:none;stroke:#5878E0;stroke-width:6;stroke-linecap:round;stroke-miterlimit:10;}
	.st28{fill:#463D72;}
	.st29{clip-path:url(#SVGID_3_);}
	.st30{opacity:0.1;enable-background:new    ;}
	.st31{fill:url(#SVGID_4_);}
	.st32{fill:#594A42;}
	.st33{fill:url(#SVGID_5_);}
	.st34{fill:#440D40;}
	.st35{opacity:0.5;fill:#00A79D;enable-background:new    ;}
	.st36{fill:#5B0E5B;}
	.st37{fill:#EFA0A4;}
	.st38{fill:url(#SVGID_6_);}
	.st39{fill:#FDEBD7;}
	.st40{fill:#E1A628;}
	.st41{fill:#986A49;}
	.st42{fill:#E7A22D;}
	.st43{fill:#ECC79A;}
	.st44{fill:#EBA231;}
	.st45{clip-path:url(#SVGID_8_);}
	.st46{fill:#1D3163;}
	.st47{fill:#293E81;}
	.st48{fill:#FFD3C7;}
	.st49{fill:#F36C33;}
	.st50{clip-path:url(#SVGID_10_);}
	.st51{opacity:0.15;enable-background:new    ;}
	.st52{fill:url(#SVGID_11_);}
	.st53{fill:#513A56;}
	.st54{fill:#F4B5A6;}
	.st55{fill:url(#SVGID_12_);}
	.st56{fill:#FF6F5A;}
	.st57{fill:#FFE6F0;}
	.st58{fill:#EFA8AC;}
	.st59{fill:url(#SVGID_13_);}
	.st60{fill:#F36C32;}
	.st61{fill:#F2652D;}
	.st62{clip-path:url(#SVGID_15_);}
	.st63{fill:url(#SVGID_16_);}
	.st64{fill:#F9AC4C;}
	.st65{fill:#FFD250;}
	.st66{fill:#FFEB58;}
	.st67{fill:url(#SVGID_17_);}
	.st68{fill:#1A2155;}
	.st69{fill:#3B1E5B;}
	.st70{clip-path:url(#SVGID_19_);}
	.st71{fill:url(#SVGID_20_);}
	.st72{fill:none;stroke:#000000;stroke-width:0.5;stroke-linecap:round;stroke-linejoin:round;}
	.st73{fill:#2C1E56;}
	.st74{fill:#89BCE5;}
	.st75{fill:#5B7DDD;}
	.st76{fill:#6DA2C6;}
	.st77{clip-path:url(#SVGID_22_);}
	.st78{fill:#6F87B2;}
	.st79{fill:#C3CFE2;}
	.st80{fill:#8C93AD;}
	.st81{fill:#B2B8D6;}
	.st82{clip-path:url(#SVGID_24_);}
	.st83{clip-path:url(#SVGID_26_);}
</style>
<g>
	<g id="Layer_2">
		<g id="Layer_1-2">
			<ellipse class="st0" cx="755.2" cy="3868.9" rx="113.4" ry="38.4"/>
			<path class="st0" d="M680.4,3371.8c-12.2-40.4-3.2-86.4,23.3-119.4c6.8-8.5,14.9-16.5,18.3-26.9c9.1-28.2-20.4-54.6-22.8-84.2
				c-2.4-30.5,23.8-55,47.7-74.4c12.1-9.7,25.4-20,41-20.2c19.4-0.2,35.4,15.6,44,32.9s12.1,36.6,20.4,54
				c8.4,17.7,21.6,32.8,31.5,49.7c9.9,16.9,16.7,37.4,10.6,56.1c-8,24.5-35.4,38.5-44.7,62.5c-14.2,36.8,19.2,79.8,4,116.1
				c-6.7,15.9-21.8,27.1-38,33C754.6,3473.3,698.1,3430.5,680.4,3371.8z"/>
			<polygon class="st1" points="773.9,3445.1 762.2,3587.1 773.9,3587.1 781.2,3445.1 			"/>
			<path class="st1" d="M784,3071.9c-3.9,58.1-7.6,116.2-9.6,174.4c-2.1,59.4-8.7,125.3,3.8,184c0.4,2.1,3.9,1.6,3.7-0.5
				c-8.1-119.2-0.2-238.7,6.2-357.9C788.4,3069.2,784.2,3069.2,784,3071.9L784,3071.9z"/>
			<path class="st2" d="M746.5,3410.3c3.5,0,3.5-5.4,0-5.4S743,3410.3,746.5,3410.3z"/>
			<path class="st2" d="M712.4,3387.1c1.3,0.5,2.9,0.1,3.8-0.9c1.9-1.7-0.6-5-2.8-3.6l-0.5,0.3c-1.2,0.1-2.1,1.1-2.1,2.3
				C710.9,3386,711.5,3386.8,712.4,3387.1L712.4,3387.1z"/>
			<path class="st2" d="M736.6,3357.4c3.4,0,3.4-5.3,0-5.3C733.2,3352.1,733.2,3357.4,736.6,3357.4z"/>
			<path class="st2" d="M712.7,3329.1l0.5-0.4c0.7-0.7,0.7-1.9,0-2.6l-0.5-0.4c-1-0.9-2.5-0.9-3.5,0c-0.9,1-0.9,2.5,0,3.4
				C710.3,3330,711.8,3330,712.7,3329.1L712.7,3329.1z"/>
			<path class="st2" d="M814.7,3403.7l0.7-0.4c0.9-0.5,1.1-1.7,0.6-2.5c-0.2-0.2-0.4-0.4-0.6-0.6l-0.7-0.4
				C810.3,3397,810.3,3406.5,814.7,3403.7L814.7,3403.7z"/>
			<path class="st2" d="M833.4,3396c1-0.5,1.9-1.2,2.4-2.2c0.5-0.9,0.2-2.1-0.7-2.7c-0.3-0.2-0.6-0.3-1-0.3
				c-1.1-0.1-2.3,0.2-3.2,0.8C828,3393,830.6,3397.6,833.4,3396L833.4,3396z"/>
			<path class="st2" d="M732.2,3122.8l-0.1,1c-0.3,3.3,5.4,3.3,5.1,0c0-0.3,0-0.6-0.1-1c0-1.3-1.1-2.4-2.4-2.4
				S732.2,3121.4,732.2,3122.8L732.2,3122.8z"/>
			<path class="st2" d="M743.5,3172.4c3.4,0,3.4-5.3,0-5.3S740.1,3172.4,743.5,3172.4z"/>
			<path class="st2" d="M765.5,3131.2l0.6,0.1c1.2,0.3,2.4-0.5,2.7-1.7c0.1-0.3,0.1-0.7,0-1c0-0.2,0-0.4-0.1-0.6
				c-0.3-2-3.1-2.4-4.4-1.2C763.1,3128.1,763.5,3130.9,765.5,3131.2L765.5,3131.2z"/>
			<path class="st2" d="M852.5,3212.3l0.8,0.4c1.6,0.9,3.6,0.4,4.5-1.2c0.9-1.6,0.4-3.6-1.2-4.5c-1-0.6-2.3-0.6-3.3,0l-0.8,0.4
				c-1.4,0.8-1.8,2.6-0.9,3.9C851.7,3211.8,852.1,3212.1,852.5,3212.3L852.5,3212.3z"/>
			<path class="st2" d="M834.2,3257.4c1.9,0.1,3.6-1.2,3.9-3c0.4-1.6-0.5-3.2-2.1-3.6s-3.2,0.5-3.7,2.1c-0.1,0.3-0.2,0.6-0.3,0.9
				c-0.7,1.2-0.3,2.7,0.9,3.4C833.3,3257.3,833.8,3257.4,834.2,3257.4L834.2,3257.4z"/>
			<path class="st2" d="M824.3,3204.4c4.4,0,4.4-6.7,0-6.7S820,3204.4,824.3,3204.4z"/>
			<path class="st2" d="M839.1,3175.3c3.3,0,3.3-5.1,0-5.1S835.8,3175.3,839.1,3175.3z"/>
			<path class="st3" d="M917.1,3405.5c14.9-8.9,33.1-10.3,49.8-15.2c21.7-6.4,41.2-18.6,56.3-35.4c16.1-17.9,28-41.6,50.5-50.4
				c24-9.4,50.8,1.8,76.6,1.5c22.9-0.2,44.8-9.6,67.6-10.4c13.3-0.5,30.4,6.6,28.8,19.7c-1,8-8.7,13.2-15.7,17.3l-33.1,19.4
				c-12.3,7.2-24.8,14.6-34.7,24.9c-16.3,17.2-23.8,41.2-40.5,58.1c-23.9,24.2-61.5,28.8-95.5,25.8c-18.4-1.6-39-4.3-53.5,7
				c-21.3,16.6-54,62.7-83.6,26.2C868.6,3467.3,891.8,3420.6,917.1,3405.5z"/>
			<path class="st2" d="M902,3475.2l-6.7-2.9c0,0-59.9,62.8-63.2,120.6h13.3C845.4,3592.9,838.8,3543.4,902,3475.2z"/>
			<path class="st2" d="M906.7,3470c51.4-26.2,100.9-55.9,152.2-82.4c51.2-26.5,103.9-50,155.5-75.8c2.3-1.2,0.7-5.3-1.8-4.3
				c-51.9,21.1-102.1,47-151.8,72.5c-52.6,27.1-106.3,54.4-155.6,87.2c-0.7,0.5-1,1.5-0.5,2.2C905.1,3470.1,906,3470.4,906.7,3470
				L906.7,3470z"/>
			<path class="st2" d="M918.9,3430.3c4,0,4-6.2,0-6.2S914.9,3430.3,918.9,3430.3z"/>
			<path class="st2" d="M953.3,3424.1l0.5-0.5c0.7-0.7,0.7-1.8,0-2.6c-0.1-0.2-0.3-0.4-0.5-0.5c-1.5-1.8-4.4-0.3-4.4,1.8
				C948.9,3424.3,951.8,3425.9,953.3,3424.1z"/>
			<path class="st2" d="M935.2,3412.2l0.9-0.4c0.7-0.2,1.1-1,0.9-1.7c-0.1-0.4-0.5-0.8-0.9-0.9l-0.9-0.4
				C932.4,3407.8,932.4,3413.3,935.2,3412.2L935.2,3412.2z"/>
			<path class="st2" d="M1045.3,3370v-0.3c0.3-2-1.2-4.1-3.5-3.5c-1,0.2-1.7,1-2,2c-0.7,2.3,1.5,3.7,3.5,3.5h0.3
				C1044.4,3371.4,1045.1,3370.8,1045.3,3370L1045.3,3370z"/>
			<path class="st2" d="M1065.6,3332.6c0.9,1.3,2.2,2.3,3.7,2.7c1,0.3,2,0,2.7-0.7c0.3-0.4,0.6-0.8,0.7-1.2c0.3-1.2-0.2-2.5-1.3-3.2
				c-1.1-0.8-2.4-1.3-3.7-1.3c-1.4,0-2.5,1.1-2.5,2.4C1065.2,3331.8,1065.3,3332.2,1065.6,3332.6L1065.6,3332.6z"/>
			<path class="st2" d="M1089.8,3348.6c0.8,0.9,1.8,1.4,3,1.5c2,0.3,3.8-2,2.1-3.6c-0.7-0.9-1.8-1.4-2.9-1.6
				C1089.9,3344.5,1088,3346.9,1089.8,3348.6L1089.8,3348.6z"/>
			<path class="st2" d="M1113.3,3334.3c0.8-0.3,1.6-0.9,2.1-1.7c0.9-1.1,0.4-3.3-1.3-3.2c-1.1,0-2.2,0.3-3.1,0.9
				C1108.3,3331.7,1110.7,3335.7,1113.3,3334.3L1113.3,3334.3z"/>
			<path class="st2" d="M1050.2,3435.8c1,0.4,2.2,0.4,3.3,0c1-0.3,1.7-1.4,1.4-2.4c0,0,0,0,0,0c-0.4-1.3-1.2-2.3-2.4-3
				c-3.2-2.3-6.5,4-2.2,5.3L1050.2,3435.8z"/>
			<path class="st2" d="M1090.4,3440.4c1.4,0.3,2.8-0.4,3.5-1.6c0.3-0.5,0.3-1.2,0-1.7c-0.7-1.2-2.1-1.9-3.5-1.6
				c-1.4,0-2.4,1.1-2.4,2.4S1089.1,3440.4,1090.4,3440.4L1090.4,3440.4z"/>
			<path class="st2" d="M1085.9,3415l0.6-0.4c4-2.7-1.3-8-4.1-4c-0.1,0.2-0.3,0.4-0.4,0.6C1080.5,3413.4,1083.6,3416.6,1085.9,3415
				L1085.9,3415z"/>
			<path class="st2" d="M1113.1,3405.7c1.1-0.1,1.9-1.1,1.9-2.2c-0.1-1-0.9-1.8-1.9-1.8c-1.1,0.1-1.9,1.1-1.9,2.2
				C1111.3,3404.8,1112.1,3405.6,1113.1,3405.7z"/>
			<path class="st2" d="M1210.6,3325.7c1.3,0,2.3-1,2.3-2.3c0-1.2-1-2.2-2.3-2.2c-1.3,0-2.3,1-2.3,2.3
				C1208.4,3324.7,1209.4,3325.7,1210.6,3325.7z"/>
			<path class="st2" d="M921.8,3485.7l-0.3,0.4c-0.3,0.5-0.3,1.1,0,1.6l0.3,0.4c1.3,1.8,4.4,1.3,4.4-1.2c-0.1-1.3-1.3-2.3-2.7-2.2
				C922.9,3484.7,922.2,3485.1,921.8,3485.7L921.8,3485.7z"/>
			<path class="st2" d="M944.4,3476l0.5-0.5c0.7-0.7,0.7-1.9,0-2.7l-0.5-0.5c-1-1-2.7-1-3.7,0c-1,1-1,2.7,0,3.7
				C941.7,3477,943.4,3477,944.4,3476C944.4,3476,944.4,3476,944.4,3476L944.4,3476z"/>
			<path class="st2" d="M746.2,3247.7l-0.3,0.4c-0.3,0.5-0.3,1.2,0,1.8c0.1,0.1,0.2,0.3,0.3,0.4c0.7,1.2,2.3,1.6,3.5,0.9
				c1.2-0.7,1.6-2.3,0.9-3.5c-0.7-1.2-2.3-1.6-3.5-0.9C746.8,3247.1,746.4,3247.4,746.2,3247.7L746.2,3247.7z"/>
			<path class="st2" d="M798.7,3305.8c3.8,0,3.8-5.9,0-5.9C794.9,3299.9,794.9,3305.8,798.7,3305.8z"/>
			<path class="st3" d="M645.3,3381.7c-13.6-28.7-35.4-52.8-62.8-69.2c-17.5-10.4-37.1-17.7-52.5-30.9c-25.7-22.1-37.9-59.4-69-73.4
				c-10.7-4.9-22.7-6.3-34.4-6.7c-19.3-0.8-40.9,2.1-53.1,16.8c-11.3,13.6-10.9,34.6-1.6,49.6c12.4,20,36.9,29.6,51.5,48
				c25.7,32.3,15.6,83.8,43.7,114.1c16.5,17.8,42.1,23.6,63.2,35.8c17.4,10.1,32.1,24.8,50.8,32.1
				C653.4,3526.1,665.9,3425.4,645.3,3381.7z"/>
			<path class="st2" d="M627.6,3466.5l-5.6,4c64.9,81.4,72.2,128.2,72.2,128.2h15C692.4,3537.6,627.6,3466.5,627.6,3466.5z"/>
			<path class="st2" d="M405.9,3234.4c43.2,26.5,77.4,77.7,109.1,115.9c31.7,38.1,60.8,84.7,98.2,117.5c0.7,0.7,1.8,0.7,2.5,0
				c0.7-0.7,0.7-1.8,0-2.5l0,0c-33-41.8-67.8-82.6-101.8-123.5c-30.4-36.5-63.7-86.3-106.9-109.2c-0.5-0.3-1.2,0-1.4,0.5
				C405.3,3233.6,405.4,3234.1,405.9,3234.4L405.9,3234.4z"/>
			<path class="st2" d="M507.9,3423.7c-0.5-0.3-1-0.5-1.5-0.7c-0.7-0.2-1.4,0.2-1.6,0.9c-0.1,0.2-0.1,0.5,0,0.7
				c0.2,0.5,0.4,1,0.7,1.5C506.9,3428.7,510.5,3425.1,507.9,3423.7L507.9,3423.7z"/>
			<path class="st2" d="M545.9,3450.2l0.4-0.5c0.5-0.5,0.5-1.3,0-1.9l-0.4-0.5c-1.2-1.5-3.6-0.2-3.6,1.5S544.8,3451.7,545.9,3450.2z
				"/>
			<path class="st2" d="M530.9,3414.1l-0.4-0.7c-0.6-1-2-1.4-3-0.7c-0.3,0.2-0.6,0.4-0.7,0.7l-0.4,0.7
				C523.8,3419,533.5,3419,530.9,3414.1z"/>
			<path class="st2" d="M577.8,3465.2l0.5-0.5c0.8-0.8,0.8-2,0-2.8l-0.5-0.5c-1-1-2.7-1-3.7,0c-1,1-1,2.7,0,3.7
				C575.1,3466.3,576.8,3466.3,577.8,3465.2C577.8,3465.2,577.8,3465.2,577.8,3465.2L577.8,3465.2z"/>
			<path class="st2" d="M490.2,3384c3.7,0,3.7-5.6,0-5.6S486.6,3384,490.2,3384z"/>
			<path class="st2" d="M467,3341.4l-0.5,0.5c-0.6,0.6-0.6,1.6,0,2.2l0.5,0.4c0.9,0.9,2.3,0.9,3.2,0c0.9-0.9,0.9-2.3,0-3.2
				C469.3,3340.5,467.8,3340.5,467,3341.4C467,3341.4,467,3341.4,467,3341.4z"/>
			<path class="st2" d="M557.3,3324.8c1.3-0.3,2.1-1.6,1.8-2.9c-0.2-0.9-0.9-1.6-1.8-1.8c-1.3,0.1-2.3,1.2-2.2,2.5
				C555.1,3323.8,556.1,3324.7,557.3,3324.8z"/>
			<path class="st2" d="M573.3,3364.7l0.8-0.4c1-0.6,1.3-1.9,0.7-2.8c-0.2-0.3-0.4-0.5-0.7-0.7l-0.8-0.4
				C568.6,3358,568.6,3367.2,573.3,3364.7z"/>
			<path class="st2" d="M609.5,3365.9c1.3-0.1,2.3-1.2,2.2-2.5c-0.1-1.2-1-2.1-2.2-2.1c-1.3,0.1-2.3,1.2-2.2,2.5
				C607.4,3364.9,608.3,3365.8,609.5,3365.9z"/>
			<path class="st2" d="M627.2,3409.7c1.2-0.1,2.1-1.1,2-2.3c-0.1-1.1-0.9-1.9-2-2c-1.2,0.1-2.1,1.1-2,2.3
				C625.3,3408.8,626.2,3409.7,627.2,3409.7z"/>
			<path class="st2" d="M394.5,3252.9c1.7,0.7,2.9,1.4,4.7,0.7c1.1-0.3,1.7-1.4,1.4-2.4c0-0.2-0.1-0.3-0.2-0.4c-1-1.7-2.1-1.9-4-2.4
				C393.8,3247.8,391.9,3251.7,394.5,3252.9L394.5,3252.9z"/>
			<path class="st2" d="M420.2,3269.8c0.1,0.2,0.2,0.4,0.4,0.6c2.3,3.3,6.7-1.1,3.4-3.4l-0.6-0.4c-1.1-0.6-2.6-0.2-3.2,0.9
				C419.8,3268.2,419.8,3269.1,420.2,3269.8z"/>
			<path class="st2" d="M436.8,3219.5l-1,0.5c-0.8,0.4-1.3,1.3-1.2,2.2c-0.1,0.7,0.2,1.4,0.7,1.8c0.8,0.8,2.1,0.9,3.1,0.4l1-0.5
				C442.3,3222.5,439.7,3218,436.8,3219.5L436.8,3219.5z"/>
			<path class="st2" d="M390.1,3221.9c2.1,0.6,3.8,1.4,5.5-0.1c0.4-0.4,0.5-0.9,0.4-1.4c-0.7-2.2-2.6-2.3-4.7-2.9
				C388.5,3216.8,387.3,3221.2,390.1,3221.9L390.1,3221.9z"/>
			<path class="st4" d="M632.5,3574l262.1,0.3c0,0-4.4,284-126.1,291.2C584.7,3876.5,632.5,3574,632.5,3574z"/>
			<path class="st5" d="M614.8,3574h102.2c0,0-55.6,182.8,28.8,291.3l0,0C745.7,3865.4,588.3,3874.2,614.8,3574"/>
			<path class="st6" d="M1643.5,1051.6c148.6,33.2,225.3,55.5,359.6-21.4c124.7-68.4,187-192.3,330.8-222.2
				c244.5-51.3,642.5-38.5,810.3,149.5c47.9,51.3,57.5,111.1,129.5,145.3c47.9,21.4,110.3,21.4,167.8,29.9
				c115.1,17.1,234.9,21.4,350,51.3c129.4,34.2,321.2,85.5,369.2,205.1c43.1,111.1,76.7,200.9,9.6,307.7
				c-67.1,98.3-119.9,170.9-95.9,290.6c24,123.9,119.9,222.2,187,333.3c119.9,192.3,273.3,474.4,163,692.4
				c-47.9,102.6-124.7,239.3-268.5,243.6c-115.1,4.3-268.5-51.3-359.6-111.1c-105.5-72.7-172.6-205.1-311.7-239.3
				c-139.1-34.2-249.3,72.7-326,166.7c-167.8,213.7-412.3,341.9-685.6,431.6c-230.1,72.7-508.2,98.3-695.2-68.4
				c-100.7-89.7-148.6-192.3-206.2-299.2c-71.9-123.9-167.8-149.5-306.9-192.3c-268.5-81.2-541.8-162.4-666.5-414.6
				c-95.9-192.3-115.1-474.4,91.1-615.4c86.3-55.5,177.4-76.9,239.7-162.4c62.3-85.5,9.6-166.7,4.8-260.7
				c-4.8-123.9,62.3-149.5,124.7-243.6c28.8-42.7,14.4-85.5,38.4-128.2c19.2-38.5,50.2-68.3,95.9-81.2
				C1300.3,1008.6,1534.2,1027.2,1643.5,1051.6z"/>
			<path class="st7" d="M4385.4,1444.6c-10.2-9-19.7-18.2-30.2-26c-3.7-2.7-11.3-3.9-14.8-1.9c-7.3,4.3-20.5,4.1-18.4,18.1
				c1.4,8.9,2.2,18.1,4.5,26.7c2.7,10-0.4,15.3-10.4,17.7c-6.1,1.5-12,3.8-18.9,6c-6.6-12.2-12.2-24.1-19.6-34.8
				c-2.4-3.5-9.5-6.1-13.9-5.5c-8,1.1-19.5-2.6-21.7,10.8c-1.6,9.4-3.9,18.7-5,28.1c-0.9,7.9-4.2,10.7-12.4,10.6
				c-28.6-0.5-21.5,2.3-27.5-22.2c-0.6-2.6-0.7-5.4-1.2-8.1c-2.6-14.3-17.9-24-31.6-19.5c-2.9,0.9-5.1,4.7-6.9,7.6
				c-3.1,5-5.5,10.4-8.3,15.6c-2.8,5.2-5.6,10.3-9.3,17.1c-8.5-2.7-17.3-4.6-25.3-8.4c-2.8-1.3-4.8-7-4.9-10.7
				c-0.1-6.7,1.6-13.5,2.5-20.2c2.4-18.7-1.9-25.5-20.4-30.4c-2.9-0.7-6.9,0.8-9.8,2.3c-3.1,1.7-5.5,4.7-8.2,7.2
				c-22.5,20.6-22.5,20.6-47.3-1.1c5.7-10.7,11-22.1,17.5-32.7c5-8.2,0.6-12.7-4.7-17.2c-6-5.1-9-15.8-20.8-10.3
				c-11,5.2-22.6,9.3-34.5,14.2l-18.8-27.1c8.3-7.7,15.1-16,23.6-21.7c14.6-9.7,5-19.1,2-29.3c-3.4-11.4-11.4-9.4-19.7-8.6
				c-9.9,0.9-19.8,1.4-28.4,1.9c-1.7-1.6-2.2-1.8-2.3-2.2c-9.9-28.2-9.9-28.2,16.5-41.3c15.7-7.8,19.8-17.2,13.8-33.5
				c-1.1-3.1-5.1-6.2-8.5-7.3c-10.8-3.6-21.9-6.3-32.6-9.4c-0.5-1.1-1.2-1.9-1.2-2.7c0.3-36.6-3.2-30,29.6-33.5
				c10.9-1.2,17.1-3.9,19.6-15.8c2.3-11.5,4.3-20.7-9.4-26.6c-8.2-3.5-15.2-9.8-22.2-14.5c0-2-0.3-3,0-3.7
				c10.3-27.3,10.6-28.5,39.4-20.7c15.8,4.3,19.2-5.4,26.2-14.2c7.3-9.3,2.8-15.5-2.9-22.5c-5.7-7-10.9-14.5-17.1-22.7l21.9-24.8
				c10.2,6.3,20.1,11.8,29.4,18.2c6.6,4.5,12,3.9,16.8-1.7c5.8-6.8,19.9-8.1,14.3-22.5c-4.1-10.5-7.1-21.4-10.8-33.2l28.5-16.3
				c6.9,8.3,14.4,16.1,20.6,24.9c5.4,7.6,11,9.7,19.6,5.5c8.9-4.3,21.9-4.3,18.7-19.7c0-0.4,0-0.9,0-1.3c0.3-30.6,0.3-30.6,33-35.9
				c4,10.4,8.8,21,12.2,31.9c4.7,14.7,16.5,7.3,25.3,8.8c7.3,1.2,13-0.3,15.4-9.1c2.8-10.4,7.3-20.4,11.5-31.9
				c8.6,1,17.2,1.4,25.5,3.3c2.7,0.6,6.1,5,6.5,8c0.9,8.1,1,16.3,0.2,24.4c-0.9,9.8,3.4,13.5,12.2,17.6c15.1,7.1,25.2,5.3,33.5-9.5
				c3.9-7,9.8-12.9,14.4-18.7c0.8-0.1,1.6-0.1,2.4,0c28,11.2,28,11.2,18.8,39.6c-5.9,18.1-1.2,28.2,17,35c3,1.1,7.9-0.5,11-2.3
				c10.2-5.9,20-12.5,30.8-19.4l22.5,23.8c-7,9.2-14,19.1-21.8,28.4c-4.7,5.6-5.6,9.7-1,16.5c12.9,19.1,12.4,19.3,35.1,14.1
				c7.9-1.8,15.9-3.5,24.7-5.4c4.3,9.7,8.3,18.7,12.8,28.9c-10.7,7.4-20.8,15.1-31.5,21.7c-13.1,8-3,17.6-2.6,26.5
				c0.4,8.2,4.8,11.8,13.2,12.2c11.8,0.5,23.6,2,34.6,3c1.2,1.6,2.1,2.2,2.2,3c6,27.7,5.9,27.4-20.8,35.4
				c-10.4,3.1-22.8,2.2-24.6,19.7c-1.5,15,0.9,23.1,15.6,26.7c3.5,0.9,6.8,2.7,10.1,4.2c17.7,8.1,17.3,8,13.2,26.5
				c-2,9-5.4,13.8-15.5,11.8c-5.8-1.1-12.1,0.1-17.7-1.3c-13.9-3.5-21.5,0.9-26.9,14.6c-4.1,10.3-3.7,16.8,5.3,23.1
				c4,2.9,7.2,6.9,10.8,10.4c15.6,15,15.9,16.7,1.1,33.5c-2.3,2.6-7.9,4.1-11.3,3.4c-7-1.6-13.6-5.2-20.3-7.9
				c-17.1-7-29.3-3-37.1,13.1c-1.2,2.5-0.1,6.9,1.2,9.8c4.2,8.5,8.4,17.2,13.8,25c5.4,7.8,4.3,12.8-3.2,17.9
				C4396.8,1435.4,4391.7,1439.8,4385.4,1444.6z M4052.2,1204c-1.4,90.4,73.5,167.3,164.1,168.4c93,1.2,170.4-74.4,171.5-167.5
				c1.1-90-75.2-166.4-166.9-167.5C4128.8,1036.2,4053.6,1110.5,4052.2,1204L4052.2,1204z"/>
			<path class="st7" d="M4219.4,1348.1c-81.1,0.1-144.3-63.2-144.5-144.5c-0.4-79.2,64-143.7,143.8-144.1c0.5,0,0.9,0,1.4,0
				c78.7,0.1,145.4,65.8,145.6,143.5C4365.8,1283,4300.3,1348,4219.4,1348.1z M4284.5,1204.7c-0.2-37-30.2-66.7-67-66.3
				c-36.2,0.4-65.7,31-65.5,68.1c0.2,35.8,30.3,64.8,67.2,64.4C4256,1270.6,4284.7,1241.4,4284.5,1204.7L4284.5,1204.7z"/>
			<path class="st7" d="M3392.9,979.4c2.2,0.3,3.1,1.3,3.7,3.4c3.4,13,6.8,26.1,10.5,39.1c0.7,2.4,0,3.5-1.6,5
				c-15.7,13.3-31.4,26.6-47.1,40l-4.2,3.6c17.1,29.5,34.3,58.9,51.4,88.5l37.1-13c8.9-3.1,17.9-6.2,26.7-9.4
				c2.2-0.8,3.5-0.4,5.1,1.2c9.3,9.5,18.7,18.8,28.3,28c2,1.9,2.3,3.3,1.4,5.7c-7.1,19.7-14,39.4-21.2,59c-1,2.8-0.9,4.3,2,5.9
				c27.8,15.7,55.4,31.6,83.1,47.5c0.8,0.5,1.6,0.9,2.7,1.5c2.6-3,5.2-6,7.8-9c11.9-13.9,23.9-27.7,35.8-41.7
				c1.9-2.2,3.4-2.3,6.1-1.6c12.5,3.5,25.2,6.7,37.8,10.1c1.4,0.4,3.5,1.8,3.7,3.1c4.2,21.2,8.1,42.4,12.1,63.7h104
				c1.1-5.6,2.1-11.1,3.1-16.5c2.9-15.5,5.9-30.9,8.7-46.4c0.5-2.6,1.6-3.4,4-4c12.8-3.2,25.5-6.5,38.2-10.2c2.8-0.8,4.2-0.3,6,1.8
				c13.5,15.9,27.1,31.7,40.7,47.4c0.9,1,1.8,2,2.8,3.1l88.9-51.1c-0.4-1.4-0.8-2.8-1.3-4.1c-7-19.6-13.9-39.2-20.9-58.7
				c-0.9-2.6-0.7-4.1,1.4-6.1c9.4-9,18.6-18.2,27.7-27.5c1.9-2,3.3-2.6,6.1-1.6c19.9,7.1,39.9,14.1,59.8,21.1
				c1.9,0.7,3.4,1.4,4.9-1.1c16.4-28.5,32.9-56.9,49.4-85.3c0.1-0.3,0.2-0.7,0.3-1.1c-3.8-3.2-7.7-6.6-11.6-9.9
				c-13.1-11.1-26.1-22.2-39.3-33.2c-2.1-1.7-2.4-3.1-1.6-5.7c3.6-12.6,7-25.2,10.2-37.9c0.6-2.4,1.6-3.4,4.1-3.9
				c21.1-3.8,42.2-7.8,63.2-11.7c1-0.2,2.1-0.5,3.1-0.8V865.1l-50.2-9.5c-5.5-1-11-2.2-16.5-3c-1.9-0.1-3.5-1.5-3.7-3.4
				c-3.4-13-6.8-26.1-10.5-39c-0.8-1.8-0.1-3.9,1.6-5c15.7-13.3,31.4-26.6,47.1-40l4.2-3.6l-51.4-88.5l-25.7,9
				c-12.7,4.4-25.4,8.9-37.9,13.4c-2.1,0.8-3.4,0.7-5.2-1.1c-9.5-9.7-19.1-19.2-28.8-28.6c-1.9-1.8-1.7-3.2-0.9-5.2
				c7.1-19.7,14-39.4,21.1-59c1.1-3,1-4.5-2.1-6.2c-27.4-15.5-54.7-31.2-82-46.9l-3.7-2l-23.2,26.9c-6.9,8-13.9,16-20.7,24.2
				c-1.5,1.8-2.8,2-5.1,1.4c-12.8-3.6-25.7-7-38.5-10.2c-2.1-0.3-3.7-2-3.9-4.1c-3.8-20.9-7.8-41.9-11.8-62.8c-0.2-1-0.5-2-0.8-3.1
				h-102.3l-10.3,53.7c-0.8,4-1.7,8-2.2,12.2c-0.3,2.4-1.4,3.5-3.9,4.1c-12.8,3.2-25.5,6.5-38.2,10.1c-2.9,0.8-4.4,0.3-6.3-1.9
				c-13.7-16.2-27.6-32.2-41.5-48.3c-0.5-0.6-1.1-1.2-1.9-2.1l-89,51.1l7.4,21c5,14.1,10,28.2,15.1,42.2c0.9,2.4,0.3,3.6-1.4,5.4
				c-9.4,9.2-18.8,18.4-27.9,27.8c-2,2.1-3.5,2.3-6.1,1.4c-19.7-7-39.4-13.8-59.1-20.8c-3-1.1-4.5-0.9-6.3,2.1
				c-15.7,27.3-31.6,54.6-47.4,81.8c-0.6,1-1.1,2-1.8,3.3l27.1,23c8,6.8,15.9,13.7,24.1,20.3c2.1,1.7,2.3,3.2,1.6,5.7
				c-3.6,12.6-6.9,25.2-10.2,37.9c-0.3,2.1-2,3.7-4.1,3.8c-21.1,3.8-42.1,7.8-63.2,11.7c-1,0.2-2.1,0.5-3.1,0.8v101.6l50.2,9.5
				C3381.9,977.4,3387.4,978.5,3392.9,979.4z M3726.2,684.3c128.8,0,233.3,104.1,233.2,232.2c-0.1,127.5-104.8,231.3-233.3,231.3
				c-128.9,0-233.4-103.9-233.4-232C3492.7,788,3597.4,684.2,3726.2,684.3L3726.2,684.3z"/>
			<path class="st8" d="M1020.9,2349.6c-0.5-1.5-2-2.8-2.4-4.3c-1.5-0.9-3.2-3.2-4.8-4.5c-1.6-1.5-3.3-2.9-5.1-4.1
				c-4.3-2.7-7.6-3.7-9.6-0.2c-3.2,5.6,3.8,12.2,8,17.4c1.4,1.7,2,3.2,3.5,4.6c3,2.9,3.6,0.8,5.1-1.2c2.2-2.9,5.1-5,5.8-9"/>
			<path class="st9" d="M3699.9,1109l-2645.3-3.3c-19.6,0-37.1,7.1-49.5,18.5h-0.2l-52.3,45.9l34.3,0.2l10.7,1525.4
				c0.3,32.3,30.9,58.4,68.6,58.5l2629.6,3.2l-31.8,28l43.7,0.2l53.1-46.2h-0.4c11.7-10.5,19.1-24.5,19-40.3l-10.7-1531.7
				C3768.2,1135.2,3737.5,1109.1,3699.9,1109z"/>
			<path class="st10" d="M3645.8,1156c37.7,0,68.4,26.2,68.6,58.5l10.7,1531.7c0.2,32.3-30.1,58.4-67.8,58.4l-2645.3-3.2
				c-37.7,0-68.4-26.2-68.6-58.5l-10.8-1531.7c-0.2-32.3,30.1-58.4,67.8-58.4L3645.8,1156z"/>
			
				<linearGradient id="SVGID_1_" gradientUnits="userSpaceOnUse" x1="988.4984" y1="3019.8875" x2="3671.5615" y2="3019.8875" gradientTransform="matrix(1 0 0 -1 0 5000)">
				<stop  offset="0" style="stop-color:#5471A9"/>
				<stop  offset="1" style="stop-color:#57B4E0"/>
			</linearGradient>
			<path class="st11" d="M3671.6,2665.7c0,50.6-41.3,91.7-92.3,91.7H1080.8c-51,0-92.3-41-92.3-91.7V1294.5
				c0-50.6,41.3-91.7,92.3-91.7h2498.4c51,0,92.3,41,92.3,91.7c0,0,0,0,0,0V2665.7z"/>
			<g class="st12">
				<path class="st13" d="M1526.5,1966.3V1775c-21.2-1.9-40.8-8-58.6-19.5c-17.6-11.2-32.1-26.6-42.3-44.8l-143.8,66.3
					c1.2,6.6,2.8,13,3.7,19.5c6.4,48.1-26.9,93.2-75.1,101.5c-50.1,9-98.1-24.1-107.1-73.9c-6.8-37.3,10.3-74.9,42.9-94.5
					c41.4-25.2,96.4-13.7,123.6,26.2c3.8,5.6,6.5,4.7,11.4,2.4c44.2-20.6,88.5-40.9,132.8-61.3c1.2-0.6,2.4-1.2,3.9-2
					c-15.5-46.6-8.1-89,23.6-127.4L1296,1419.9c-24.7,18.4-51.8,24.7-81.5,17.2c-22.7-5.8-40.4-18.8-53.6-37.9
					c-25.3-36.6-18.7-87.7,15.3-118.7c32.8-29.9,84.9-31.2,119.7-3.1c35.4,28.4,49,85.1,12.7,130.8c48.4,49.1,96.7,98.2,145.2,147.3
					c53.2-43.5,123.1-34.7,165.1,1.8l78.6-81.3c-16.7-21.8-23.3-48.3-16.3-77.6c4.9-21.3,17.5-40,35.6-52.5
					c38.6-27.5,90-22,122.3,12.7c30.4,32.7,31.8,85,3.8,118.8c-29.8,35.9-83.6,48.6-132.1,12.8l-77.9,80.7
					c4.5,7.6,10.6,16.6,15.5,26.2c13.1,26,15.5,53.5,9.2,81.7c-0.8,3.7-0.2,5.3,3.5,6.6c72.3,25,144.6,50.2,216.8,75.4l25.1,8.8
					c26.6-54.2,88.7-63.8,128.8-41.9c39,21.4,57.7,69.6,42.1,111.8c-15.6,42.2-61.2,67.3-104.9,58.5c-42.2-8.5-84.3-51.5-71.8-112.1
					l-246.3-85.7c-21.6,44.4-56.9,69.5-106.5,75.2v191.4c31.2,4.2,55.7,19.3,71.5,46.8c11.5,20,14.2,41.6,9.7,64.1
					c-8.6,43.1-50.2,74.4-95.9,72.1c-43.3-2.2-81.1-37.7-86-80C1437.8,2017.3,1475.3,1971.5,1526.5,1966.3z M1535.1,1756.3
					c57.5,0.8,105.8-46.2,106.8-103.9c1-58.3-46.3-106.8-104.9-107.5c-58.8-0.9-107.2,45.7-108.1,104.1c0,0.4,0,0.8,0,1.2
					C1428.7,1709,1476.8,1756.4,1535.1,1756.3L1535.1,1756.3z M1193.6,1885.6c43.4,0.1,78.6-34.2,78.8-76.8
					c0.1-43.7-34.5-78.7-78-78.8c-43.3-0.2-78.5,34.4-78.7,77.4C1115.4,1850.4,1150.3,1885.4,1193.6,1885.6L1193.6,1885.6z
					 M1986.8,1885.6c44.3-0.3,79-34.9,78.8-78.6c-0.2-42.5-35.8-77.3-78.8-77.1c-43,0.1-78.1,35.4-77.9,78.5
					C1909.2,1851,1944.4,1885.9,1986.8,1885.6L1986.8,1885.6z M1237.7,1426.3c43.4-0.1,78.7-34.9,78.6-77.8
					c-0.1-43-35.3-77.8-78.6-77.7c-43.3,0.1-78.4,35.1-78.3,78.1C1159.3,1391.4,1194.8,1426.4,1237.7,1426.3L1237.7,1426.3z
					 M1457,2057.7c-0.2,42.4,34.8,77.8,77.2,78.1c43.3,0.6,78.8-33.7,79.4-76.7c0.6-43-34-78.3-77.2-78.9
					c-43.3-0.6-78.8,33.7-79.4,76.7C1457,2057.2,1457,2057.5,1457,2057.7z M1771,1342.3c-43.2,1.3-77.2,37.2-75.9,80.1
					c1.2,40.7,33.9,73.6,74.9,75.4c43.1,0.3,78.9-34.5,79-76.8C1849.2,1377.2,1814.9,1342.5,1771,1342.3L1771,1342.3z"/>
				<path class="st13" d="M1194.2,1848.2c-12.6,0-25.1,0-37.7,0c-7.4,0-9.2-2.4-9.7-9.7c-1.2-17.7,7.1-25,22.9-30.1
					c17.7-5.8,35.5-3.9,52.9,1.6c15.2,4.9,21.2,16,18.7,31.7c-0.8,5.1-4.3,6.5-8.9,6.5L1194.2,1848.2z"/>
				<path class="st13" d="M1216.2,1777.6c-0.4,13-10.1,22.3-22.8,21.9c-12.2-0.4-21.7-10.5-21.3-22.6c0-0.1,0-0.2,0-0.4
					c0.4-12.1,10.7-21.1,23.4-20.8C1207.2,1756.3,1216.3,1766,1216.2,1777.6z"/>
				<path class="st13" d="M1987.6,1848.3c-12.4,0-24.8,0.1-37.1,0c-8.3,0-10.5-2.4-10.6-10.5c0-16.3,6.5-24.3,23.3-29.5
					c17.7-5.4,35.2-3.6,52.4,1.6c15.3,4.8,21.5,16.1,18.9,32.1c-0.8,4.9-4.2,6.2-8.6,6.2H1987.6z"/>
				<path class="st13" d="M1987.7,1755.7c12.2,0.3,21.8,10.3,21.5,22.4c-0.3,12.1-10.4,21.7-22.5,21.4
					c-12.1-0.3-21.7-10.2-21.5-22.2c0.2-12.1,10.2-21.7,22.4-21.5C1987.6,1755.7,1987.7,1755.7,1987.7,1755.7z"/>
				<path class="st13" d="M1237.6,1388.8c-12.4,0-24.8,0-37.1,0c-7.7,0-9.4-2.2-10-9.9c-1.4-17.9,8.7-25.3,23.1-30
					c17.6-5.7,35.2-3.6,52.4,1.5c14.9,4.4,21.4,16.1,19,31.6c-0.7,5-4,6.7-8.8,6.7C1263.4,1388.8,1250.5,1388.8,1237.6,1388.8
					L1237.6,1388.8z"/>
				<path class="st13" d="M1237.6,1340.2c-12-0.2-21.7-9.8-21.9-21.8c0.3-12.2,10.4-21.8,22.7-21.6c11.9,0.2,21.4,9.7,21.7,21.5
					C1259.9,1330.5,1249.9,1340.3,1237.6,1340.2z"/>
				<path class="st13" d="M1535.4,2098.3c-12.7,0-25.5,0-38.3,0c-6.4,0-8.6-2.7-9.2-9.2c-1.6-18.4,8.5-27.7,29.8-32.4
					c15.3-3.4,30.5-1.3,45.2,3c15.3,4.4,22.4,16.6,19.7,32.2c-0.8,4.6-4,6.4-8.6,6.4C1561.2,2098.3,1548.3,2098.4,1535.4,2098.3z"/>
				<path class="st13" d="M1535.6,2005.8c12.1,0,21.9,9.6,21.9,21.6c0,0,0,0.1,0,0.1c-0.1,12.1-10,21.8-22.2,21.7
					c-12.2-0.1-22-10-21.9-22.1c0.1-11.9,9.9-21.5,21.9-21.4C1535.4,2005.8,1535.5,2005.8,1535.6,2005.8z"/>
				<path class="st13" d="M1770.9,1460.1c-13.1,0-26.2-0.1-39.3,0c-4.8,0-7.3-2.3-8-6.8c-2.2-15.7,3.5-25.8,18.6-31.5
					c19.7-7.5,39.6-5.9,59,0.9c14.2,4.9,20.1,17.7,16.6,31.9c-1,4.1-4,5.5-8.1,5.5c-6.5-0.1-12.9,0-19.4,0L1770.9,1460.1
					L1770.9,1460.1z"/>
				<path class="st13" d="M1748.7,1389.3c0.4-12.1,10.5-21.7,22.7-21.3c11.8,0.3,21.3,9.9,21.5,21.6c-0.1,12.2-10.1,21.9-22.3,22
					c-12.2-0.1-22-10.1-21.9-22.2C1748.7,1389.4,1748.7,1389.4,1748.7,1389.3z"/>
			</g>
			<path class="st14" d="M2595.3,2886.9l-26-101.4h-406.9l-30.4,118.8l-1.7,6.6C2208,2885.1,2348.1,2864.2,2595.3,2886.9z"/>
			<path class="st15" d="M2615.5,2965.7l-15.7-61.3l-4.5-17.4c-247.3-22.8-387.3-1.8-465.1,24.1l-14,54.7l-63.5,248H2679
				L2615.5,2965.7z"/>
			<path class="st9" d="M2929.5,3213.7H1802.1c-27,0-49,21.8-49,48.6c0,26.9,21.9,48.6,49,48.6h1127.4c27,0,49-21.8,49-48.6
				C2978.5,3235.5,2956.6,3213.7,2929.5,3213.7z"/>
			<path class="st16" d="M2713.9,2252.6h789.6c7.2,0,13,5.8,13,12.9v315.3c0,7.1-5.8,12.9-13,12.9h-789.7c-7.2,0-13-5.8-13-12.9
				v-315.2C2700.8,2258.4,2706.6,2252.6,2713.9,2252.6C2713.8,2252.6,2713.8,2252.6,2713.9,2252.6z"/>
			<path class="st17" d="M3475.4,2298.6c-8.4,0-15.3,6.7-15.3,15c0,2.7,0.7,5.4,2.1,7.7l-124.7,139.8c-1.8-0.7-3.8-1.1-5.8-1.1
				c-2.2,0-4.3,0.5-6.3,1.3l-134.2-131c3.5-7.6,0.2-16.7-7.5-20.2s-16.8-0.2-20.3,7.5c-1.9,4.1-1.9,8.8,0.1,12.9l-172.6,185
				c-4.8-3.4-11.1-3.7-16.2-0.8l-94.4-122.1c5-6.8,3.5-16.3-3.4-21.3c-6.8-5-16.4-3.5-21.4,3.3c-3.6,4.9-3.9,11.3-0.9,16.5
				l-105.8,136.2c-1.7-0.7-3.5-1-5.3-1c-8.5,0-15.4,6.8-15.5,15.2c0,8.4,6.8,15.3,15.3,15.4c8.5,0,15.4-6.8,15.5-15.2
				c0-3-0.8-5.9-2.4-8.3l105.4-135.7c3.4,1.5,7.2,1.7,10.7,0.5l95.7,123.7c-0.8,1.9-1.2,4-1.2,6.1c0.3,8.4,7.5,14.9,15.9,14.6
				c8-0.3,14.4-6.7,14.7-14.6c0-1.5-0.3-3.1-0.8-4.5l173.5-186c2.2,1.2,4.6,1.8,7.1,1.8c2.6,0,5.1-0.7,7.3-1.9l133.7,130.5
				c-1.3,2.2-2,4.7-2,7.3c0.3,8.4,7.5,14.9,15.9,14.6c8-0.3,14.4-6.7,14.7-14.6c0-2.7-0.8-5.4-2.2-7.8l124.6-139.7
				c7.8,3.3,16.8-0.3,20.1-8.1c0.8-1.9,1.2-3.9,1.2-5.9C3490.7,2305.4,3483.9,2298.6,3475.4,2298.6z"/>
			<path class="st16" d="M1774.1,2235.8h797.7c7.3,0,13.2,5.9,13.2,13.1v318.5c0,7.2-5.9,13.1-13.2,13.1h-797.7
				c-7.3,0-13.2-5.9-13.2-13.1v-318.5C1761,2241.6,1766.9,2235.8,1774.1,2235.8z"/>
			<path class="st18" d="M1796.8,2261.8h685.6c3.2,0,5.7,2.5,5.7,5.7v17.7c0,3.1-2.6,5.7-5.7,5.7h-685.6c-3.2,0-5.7-2.5-5.7-5.7
				v-17.7C1791.1,2264.4,1793.7,2261.8,1796.8,2261.8z"/>
			<path class="st18" d="M1796.5,2313.8h616.1c3,0,5.4,2.4,5.4,5.4v18.3c0,3-2.4,5.4-5.4,5.4h-616.1c-3,0-5.4-2.4-5.4-5.4v-18.3
				C1791.1,2316.2,1793.5,2313.8,1796.5,2313.8z"/>
			<path class="st18" d="M2544.3,2394.9h-738.5c-8.1,0-14.7-6.5-14.7-14.6l0,0c0-8.1,6.6-14.6,14.7-14.6h738.5
				c8.1,0,14.7,6.5,14.7,14.6l0,0C2559,2388.3,2552.4,2394.9,2544.3,2394.9z"/>
			<path class="st18" d="M1796.2,2417.7h547.5c2.8,0,5.1,2.3,5.1,5.1v18.9c0,2.8-2.3,5.1-5.1,5.1h-547.5c-2.8,0-5.1-2.3-5.1-5.1
				v-18.9C1791.1,2420,1793.4,2417.7,1796.2,2417.7z"/>
			<path class="st18" d="M1796.9,2469.7h692.8c3.2,0,5.8,2.6,5.8,5.7v17.7c0,3.2-2.6,5.7-5.8,5.7h-692.8c-3.2,0-5.8-2.6-5.8-5.7
				v-17.7C1791.1,2472.3,1793.7,2469.7,1796.9,2469.7z"/>
			<path class="st18" d="M2544.3,2550.8h-738.5c-8.1,0-14.7-6.5-14.7-14.6l0,0c0-8.1,6.6-14.6,14.7-14.6h738.5
				c8.1,0,14.7,6.5,14.7,14.6l0,0C2559,2544.3,2552.4,2550.8,2544.3,2550.8z"/>
			<path class="st19" d="M2180.6,1407h1281.1c11.7,0,21.1,9.4,21.1,21v511.5c0,11.6-9.5,21-21.1,21H2180.6c-11.7,0-21.1-9.4-21.1-21
				V1428C2159.4,1416.4,2168.9,1407,2180.6,1407z"/>
			<g class="st12">
				<path class="st20" d="M3223.1,1598.7h80.9c2.9,0,5.3,2.4,5.3,5.3v299.6c0,2.9-2.4,5.3-5.3,5.3h-80.9c-2.9,0-5.3-2.4-5.3-5.3
					V1604C3217.8,1601,3220.2,1598.7,3223.1,1598.7z"/>
				<path class="st20" d="M3349.4,1522.6h79.7c3.3,0,5.9,2.6,5.9,5.9l0,0v371c0,3.2-2.6,5.9-5.9,5.9c0,0,0,0,0,0h-79.7
					c-3.3,0-5.9-2.6-5.9-5.9c0,0,0,0,0,0v-371C3343.5,1525.2,3346.2,1522.6,3349.4,1522.6
					C3349.4,1522.6,3349.4,1522.6,3349.4,1522.6z"/>
				<path class="st20" d="M2217.6,1522.6h79.8c3.3,0,5.9,2.6,5.9,5.9v371c0,3.2-2.6,5.9-5.9,5.9h-79.8c-3.3,0-5.9-2.6-5.9-5.9v-371
					C2211.7,1525.2,2214.4,1522.6,2217.6,1522.6z"/>
				<path class="st20" d="M2342.6,1613.3h81.2c2.8,0,5.2,2.3,5.2,5.1v281.8c0,2.8-2.3,5.1-5.2,5.1h-81.2c-2.9,0-5.2-2.3-5.2-5.1
					v-281.8C2337.5,1615.6,2339.8,1613.3,2342.6,1613.3z"/>
				<path class="st20" d="M2540.4,1905.3h-62.8c-7.9,0-14.4-5.4-14.4-12.1v-358.6c0-6.7,6.4-12.1,14.4-12.1h62.8
					c7.9,0,14.4,5.4,14.4,12.1v358.6C2554.8,1899.9,2548.3,1905.3,2540.4,1905.3z"/>
				<path class="st20" d="M2593.4,1697.5h82.8c2.4,0,4.4,2,4.4,4.4l0,0v202.6c0,2.4-2,4.4-4.4,4.4c0,0,0,0,0,0h-82.8
					c-2.4,0-4.4-1.9-4.4-4.4c0,0,0,0,0,0v-202.6C2589,1699.4,2591,1697.5,2593.4,1697.5L2593.4,1697.5z"/>
				<path class="st20" d="M2720.7,1526.1h79.7c3.3,0,5.9,2.6,5.9,5.9v371c0,3.2-2.6,5.9-5.9,5.9h-79.7c-3.3,0-5.9-2.6-5.9-5.9v-371
					C2714.8,1528.7,2717.4,1526.1,2720.7,1526.1z"/>
				<path class="st20" d="M2845.8,1598.7h80.9c2.9,0,5.3,2.4,5.3,5.3c0,0,0,0,0,0v299.6c0,2.9-2.4,5.3-5.3,5.3c0,0,0,0,0,0h-80.9
					c-2.9,0-5.3-2.4-5.3-5.3c0,0,0,0,0,0V1604C2840.6,1601.1,2842.9,1598.7,2845.8,1598.7z"/>
				<path class="st20" d="M2972.2,1526.1h79.8c3.3,0,5.9,2.6,5.9,5.9v371c0,3.2-2.6,5.9-5.9,5.9h-79.8c-3.3,0-5.9-2.6-5.9-5.9v-371
					C2966.3,1528.7,2968.9,1526.1,2972.2,1526.1z"/>
				<path class="st20" d="M3097.2,1616.8h81.2c2.9,0,5.2,2.3,5.2,5.1v281.8c0,2.8-2.3,5.1-5.2,5.1h-81.2c-2.8,0-5.2-2.3-5.2-5.1
					v-281.8C3092,1619.1,3094.3,1616.8,3097.2,1616.8C3097.2,1616.8,3097.2,1616.8,3097.2,1616.8z"/>
			</g>
			<g class="st21">
				<path class="st22" d="M734.6,2278.3l682,1.3c24.9,0,55.7-26.7,55.5-48.1l-7.2-668.9c-0.1-9.9-7.3-16-18.8-16.1l-682-1.3
					c-24.9,0-55.7,26.7-55.5,48.1l7.2,668.9C715.8,2272.1,723.1,2278.3,734.6,2278.3z"/>
				<path class="st20" d="M1265.3,1696.2c14.3-13.2,36.6-16.4,49.7-7.1c13.1,9.3,12.1,27.5-2.2,40.7c-14.4,13.2-36.6,16.4-49.7,7.1
					C1250,1727.7,1250.9,1709.4,1265.3,1696.2z M1252.7,1804.8l74.9,0.1c0,0-0.5-41.6-11.9-52.7c-11.3-10.9-38.3-6.1-49.7,7.1
					C1251.9,1775.7,1252.7,1804.8,1252.7,1804.8L1252.7,1804.8z"/>
				<path class="st20" d="M1174.2,1682.8c2.9-1.2,5.3-3.3,6.9-6c2.2-3.8,0.9-7-3-7l-158.1-0.8c-3.8,0-8.8,3.1-11,6.9s-0.9,7,3,7
					l158.2,0.8C1171.5,1683.7,1172.9,1683.4,1174.2,1682.8z M1170.4,1710.7l-158.2-0.8c-3.9,0-5.2-3.1-3-7c2.2-3.8,7.2-7,11-6.9
					l158.1,0.8c3.9,0,5.2,3.1,3,7c-1.6,2.7-4,4.7-6.9,6C1173.2,1710.3,1171.8,1710.7,1170.4,1710.7L1170.4,1710.7z M1170.7,1737.6
					l-158.2-0.8c-3.9,0-5.2-3.2-3-7c2.2-3.8,7.2-6.9,11-6.9l158.1,0.8c3.9,0,5.2,3.1,3,7c-1.6,2.7-4,4.7-6.9,6
					C1173.5,1737.3,1172.1,1737.6,1170.7,1737.6L1170.7,1737.6z M1171,1764.5l-158.2-0.8c-3.8,0-5.2-3.1-3-7c2.2-3.8,7.2-7,11-6.9
					l158.1,0.8c3.9,0,5.2,3.1,3,7c-1.6,2.7-4,4.7-6.9,6C1173.8,1764.2,1172.4,1764.5,1171,1764.5L1171,1764.5z M1171.3,1791.5
					l-158.2-0.8c-3.8,0-5.2-3.1-3-7c2.2-3.8,7.2-6.9,11-6.9l158.1,0.8c3.9,0,5.2,3.1,3,7c-1.6,2.7-4,4.7-6.9,6
					C1174.1,1791.1,1172.7,1791.5,1171.3,1791.5L1171.3,1791.5z"/>
				<path class="st20" d="M1334.8,2089.8c2.9-1.2,5.3-3.3,6.9-6c2.2-3.8,0.9-7-3-7l-276.5-1.8c-3.8,0-8.8,3.1-11,6.9
					c-2.2,3.8-0.9,7,3,7l276.5,1.8C1332.2,2090.8,1333.6,2090.4,1334.8,2089.8z M1331.1,2117.7l-276.5-1.8c-3.9,0-5.2-3.1-3-7
					c2.2-3.8,7.1-6.9,11-6.9l276.5,1.8c3.9,0,5.2,3.1,3,7c-1.6,2.7-4,4.7-6.9,6C1333.9,2117.3,1332.5,2117.7,1331.1,2117.7
					L1331.1,2117.7z M1331.4,2144.6l-276.5-1.8c-3.9,0-5.2-3.1-3-7c2.2-3.8,7.1-6.9,11-6.9l276.5,1.8c3.9,0,5.2,3.2,3,7
					c-1.6,2.6-4,4.7-6.9,6C1334.2,2144.3,1332.8,2144.5,1331.4,2144.6L1331.4,2144.6z M1331.7,2171.6l-276.5-1.8c-3.8,0-5.2-3.1-3-7
					c2.2-3.8,7.1-6.9,11-6.9l276.5,1.8c3.9,0,5.2,3.2,3,7c-1.6,2.6-4,4.7-6.9,6C1334.5,2171.2,1333.1,2171.5,1331.7,2171.6
					L1331.7,2171.6z M1331.9,2198.5l-276.5-1.8c-3.8,0-5.2-3.1-3-7c2.2-3.8,7.2-6.9,11-6.9l276.5,1.8c3.9,0,5.2,3.1,3,7
					c-1.6,2.7-4,4.7-6.9,6C1334.8,2198.1,1333.4,2198.4,1331.9,2198.5L1331.9,2198.5z"/>
				<path class="st20" d="M1332.3,2041.2h-30.3c-3.1,0-5-1.6-5.1-4.3l-1.1-98c0-5.7,8.1-12.8,14.8-12.8h30.3c3.1,0,5,1.6,5.1,4.3
					l1.1,98C1347.2,2034.1,1339,2041.2,1332.3,2041.2z M1219.6,2042.7h30.3c6.7,0,14.9-7.1,14.8-12.9l-1.6-149.2
					c0-2.7-2-4.3-5.1-4.3h-30.3c-6.6,0-14.8,7.1-14.8,12.8l1.6,149.2C1214.6,2041,1216.6,2042.7,1219.6,2042.7L1219.6,2042.7z
					 M1137.2,2044.1h30.3c6.6,0,14.8-7.1,14.8-12.8l-1-95c0-2.7-1.9-4.3-5.1-4.3h-30.3c-6.6,0-14.8,7.1-14.8,12.8l1,95
					C1132.2,2042.4,1134.1,2044.1,1137.2,2044.1L1137.2,2044.1z M1054.8,2045.6h30.3c6.6,0,14.8-7.1,14.8-12.8l-1.6-147.8
					c0-2.7-2-4.3-5-4.3h-30.3c-6.6,0-14.8,7.1-14.8,12.8l1.6,147.8C1049.8,2043.9,1051.7,2045.5,1054.8,2045.6L1054.8,2045.6z"/>
				<path class="st20" d="M806.9,2201.7h149.5c12,0,26.9-12.9,26.8-23.3l-5.4-500.6c0-4.9-3.5-7.8-9.1-7.8H819.1
					c-12,0-26.9,12.9-26.8,23.3l5.4,500.6C797.7,2198.7,801.3,2201.7,806.9,2201.7z"/>
			</g>
			<path class="st22" d="M3306,2197.3l415,0.8c31.6,0.1,70.8-33.9,70.5-61.1l-4.5-412.4c-0.1-12.6-9.3-20.4-23.9-20.4l-415-0.8
				c-31.7,0-70.9,33.9-70.6,61.1l4.5,412.5C3282.2,2189.5,3291.3,2197.2,3306,2197.3z"/>
			<path class="st23" d="M3715.5,1950.7c0,88.9-72.6,161.1-162.1,161.1c-89.6,0-162.2-72.1-162.2-161c0-88.9,72.6-161.1,162.1-161.1
				c0,0,0.1,0,0.1,0c12.6,0,25.2,1.4,37.5,4.4c68.4,16.1,118.5,74.2,124.1,143.8C3715.3,1942.2,3715.5,1946.4,3715.5,1950.7z"/>
			<path class="st20" d="M3715,1937.9l-161.6,12.8l37.5-156.6C3659.2,1810.2,3709.4,1868.3,3715,1937.9z"/>
			<path class="st24" d="M3284.1,3327c3.6-1.9,4.6-13.7,2.9-19.9l-1.1-4H1615.4c-146,0-199.4,56.4-218.6,91.8l-10.4,28l-4.7,14.2
				c-14.4,47.3-13.3,94.6,8.2,140.5c38.9,83,106.3,120.9,197.8,120.8c273.4-0.5,546.8-0.5,820.2-0.2c279.1,0,558.2,0,837.3,0
				c8.1,0,17,1.5,24-1.3c7.3-2.9,15.9-9.2,18.1-15.9c1.7-5.3-4.9-13.7-8.8-20.1c-5.4-8.9-14.9-16.4-17.1-25.8
				c-19-79.2-18.6-159.3-7.5-239.4C3257.3,3371,3255.1,3342.1,3284.1,3327z"/>
			<path class="st25" d="M3244.3,3340.2h-840c-273.4,0-546.7-0.5-820.2,0.7c-29.1,0.1-60.8,4.9-86.6,17.3
				c-71,34-104.1,108.8-85.7,180.9c19.1,74.8,82,122.4,162.2,122.4c191.7,0.1,383.3,0.1,575,0.1c355,0,710.1,0,1065.2,0h29.8
				C3218.3,3553.7,3217.9,3448.8,3244.3,3340.2z"/>
			<path class="st26" d="M1386.5,3422.8l10.4-28C1388.1,3411,1386.5,3422.8,1386.5,3422.8z"/>
			<path d="M1381.8,3437l4.7-14.2C1384.8,3427.6,1383.2,3432.3,1381.8,3437z"/>
			<line class="st27" x1="1523.7" y1="3394.2" x2="3155.9" y2="3394.2"/>
			<line class="st27" x1="1523.7" y1="3445.9" x2="3155.9" y2="3445.9"/>
			<line class="st27" x1="1523.7" y1="3497.7" x2="3155.9" y2="3497.7"/>
			<line class="st27" x1="1523.7" y1="3549.5" x2="3155.9" y2="3549.5"/>
			<line class="st27" x1="1523.7" y1="3601.2" x2="3155.9" y2="3601.2"/>
			<g class="st21">
				<path class="st22" d="M1260.2,2868.3l599.9,1.1c45.7,0.1,102.4-49,102-88.3l-6.4-596.1c-0.2-18.2-13.4-29.4-34.6-29.5
					l-599.8-1.2c-45.7-0.1-102.4,49-102,88.3l6.4,596.1C1225.9,2857,1239.1,2868.2,1260.2,2868.3z"/>
				<path class="st20" d="M1628.9,2489.5l-2.1-190.4c-0.2-16.3,23.3-36.6,42.3-36.6l190.2,0.4c8.8,0,14.2,4.7,14.3,12.2l2.1,190.4
					c0.2,16.3-23.3,36.6-42.3,36.6l-190.2-0.4C1634.5,2501.7,1629,2497,1628.9,2489.5z M1596.3,2291.1c5.3-2.3,9.7-6.1,12.7-10.9
					c4.1-7,1.6-12.8-5.5-12.8l-290.5-1.5c-7,0-16.1,5.6-20.1,12.7c-4.1,7.1-1.6,12.8,5.5,12.8l290.5,1.5
					C1591.5,2292.7,1594,2292.1,1596.3,2291.1L1596.3,2291.1z M1589.4,2342.3l-290.5-1.5c-7.1,0-9.6-5.8-5.5-12.8
					s13.1-12.7,20.1-12.7l290.5,1.4c7.1,0,9.5,5.8,5.5,12.8c-3,4.9-7.4,8.7-12.7,10.9C1594.5,2341.6,1592,2342.2,1589.4,2342.3
					L1589.4,2342.3z M1589.9,2391.7l-290.5-1.5c-7.1,0-9.6-5.8-5.5-12.8c4.1-7.1,13.1-12.7,20.1-12.7l290.5,1.4
					c7.1,0,9.5,5.8,5.5,12.8c-3,4.9-7.4,8.7-12.7,10.9C1595,2391,1592.5,2391.6,1589.9,2391.7L1589.9,2391.7z M1590.4,2441.2
					l-290.5-1.5c-7.1,0-9.6-5.8-5.5-12.8c4.1-7.1,13.1-12.8,20.1-12.7l290.5,1.4c7.1,0,9.5,5.8,5.5,12.8c-3,4.9-7.4,8.7-12.7,11
					C1595.6,2440.5,1593,2441.1,1590.4,2441.2L1590.4,2441.2z M1591,2490.6l-290.5-1.4c-7.1,0-9.6-5.8-5.5-12.8s13.1-12.7,20.1-12.7
					l290.5,1.4c7.1,0,9.5,5.8,5.5,12.9c-3,4.9-7.4,8.7-12.7,10.9C1596.1,2490,1593.5,2490.6,1591,2490.6L1591,2490.6z"/>
				<path class="st20" d="M1632.2,2786.2l-2-190.4c-0.2-16.3,23.3-36.6,42.3-36.6l190.2,0.4c8.8,0,14.2,4.7,14.3,12.2l2.1,190.4
					c0.2,16.3-23.3,36.6-42.2,36.6l-190.2-0.4C1637.7,2798.4,1632.2,2793.8,1632.2,2786.2z M1599.5,2587.9
					c5.3-2.3,9.7-6.1,12.7-10.9c4.1-7,1.6-12.8-5.5-12.8l-290.5-1.4c-7,0-16.1,5.6-20.1,12.7c-4.1,7.1-1.6,12.8,5.5,12.8l290.5,1.4
					C1594.6,2589.5,1597.2,2588.9,1599.5,2587.9z M1592.6,2639l-290.5-1.4c-7.1,0-9.6-5.8-5.5-12.8s13.1-12.7,20.1-12.7l290.5,1.4
					c7.1,0,9.5,5.8,5.5,12.8c-3,4.9-7.4,8.7-12.7,10.9C1597.7,2638.4,1595.2,2638.9,1592.6,2639L1592.6,2639z M1593.1,2688.5
					l-290.5-1.5c-7.1,0-9.6-5.8-5.5-12.8c4.1-7.1,13.1-12.7,20.1-12.7l290.5,1.4c7.1,0,9.5,5.8,5.5,12.8c-3,4.9-7.4,8.7-12.7,10.9
					C1598.3,2687.8,1595.7,2688.4,1593.1,2688.5L1593.1,2688.5z M1593.7,2738l-290.5-1.5c-7.1,0-9.6-5.8-5.5-12.8
					s13.1-12.8,20.1-12.7l290.5,1.4c7.1,0,9.5,5.8,5.5,12.8c-3,4.9-7.4,8.7-12.7,11C1598.8,2737.3,1596.3,2737.9,1593.7,2738
					L1593.7,2738z M1594.2,2787.4l-290.5-1.5c-7.1,0-9.6-5.8-5.5-12.8s13.1-12.7,20.1-12.7l290.5,1.4c7.1,0,9.5,5.8,5.5,12.8
					c-3,4.9-7.4,8.7-12.7,10.9C1599.3,2786.7,1596.8,2787.3,1594.2,2787.4L1594.2,2787.4z"/>
			</g>
			<path class="st8" d="M958.2,2723.7c0,0,8.8-38.5,9.7-40.8c0.9-2.2,4.5-32.2,2.3-38c-2.3-5.8-10.4-30.9-16.2-34.4
				c-5.9-3.6-14.9-3.6-22,1.8c-7.2,5.4-15.8,9.7-17.1,20.1c-1.4,10.3-2.3,11.2,0,21.1c2.3,9.8,3.7,16.6,6.3,26.8
				c2.6,10.3,3.2,7.6,4.9,18.8c1.7,11.2,2.6,13.4,2.7,20.6c0.2,3.3,0,6.6-0.5,9.8c0,0-1.2,39.4,9.8,33.1s13.7-6.3,17.3-17
				C957.4,2738.5,958.4,2731.1,958.2,2723.7z"/>
			<path class="st28" d="M1161.5,2746.7l-33.1-36.1c0,0-36.5,24.7-118.2,202.5c-15.3,28.8-25.2,61.1-25.2,61.1l-15.3-231.7
				l-48.6,4.2c0,0-42.3,290.1,16.2,334.9s169.4-147.6,198.2-220C1164.2,2789.1,1161.5,2746.7,1161.5,2746.7z"/>
			<g>
				<defs>
					<path id="SVGID_2_" d="M1161.5,2746.7l-33.1-36.1c0,0-36.5,24.7-118.2,202.5c-15.3,28.8-25.2,61.1-25.2,61.1l-15.3-231.7
						l-48.6,4.2c0,0-42.3,290.1,16.2,334.9s169.4-147.6,198.2-220C1164.2,2789.1,1161.5,2746.7,1161.5,2746.7z"/>
				</defs>
				<clipPath id="SVGID_3_">
					<use xlink:href="#SVGID_2_"  style="overflow:visible;"/>
				</clipPath>
				<g class="st29">
					<path class="st30" d="M897.3,2736.2c-1.8-11.9,18.5-18.5,28.4-17.4c15.6,1.6,12.1,12.3,13.5,25.9c2.4,23.5,3.8,48.9,4.1,73.4
						c0.5,52.8-0.4,105.2-3,157.8c-0.9,17.3,3,42.8,13.8,56.9c17.1,22.2,39-4,50.3-18.4c12.4-15.8,20.1-34.5,33.1-51.3
						c14-17.9,26.7-36.9,37.9-56.7c2.6-4.6,6-9.7,7.3-15.6c25-13.7,46.6-39,79-36.6c46.1,3.4,43,77.8,41,110.8
						c-2.4,41.8-35.3,84-57,118.7c-21.6,34.5-43.8,72.2-72.7,101.3c-33.8,34.2-63.7,33.3-110.7,32.9c-46.7-0.3-67.7-26.4-91.1-62.6
						c-24.5-38-34.1-89.8-37.5-133.6c-3.2-41.7-10.9-83.4-10.8-125.5c0.1-42.6,9.2-84.9,32.4-120.9c7.8-12.1,19.6-31.6,32.5-39.1
						c11.3-6.5,27.2-4,40.5-4"/>
					<path d="M1345.9,2775.1c26.2,0,54.3,7.6,72,23.9c7.3,6.8,13.1,17.2,18.5,25.8c5.2,8.2,7.7,25.5,15.9,31.1
						c2.4,10.6,9,21,13.5,30.9c4.9,10.9,11.4,29.6,19,36.2c1.8,11.3,11.4,19.3,17.1,28.2c6.1,9.6,9.4,22.9,12.8,31.9
						c7.2,19.2,20.9,41.3,24.3,63.1c7.6,47.9-5.5,93.7-17.6,135.5c-4,13.8-9.6,28.3-13.7,42.7c-12.9,8.7-19.4,46.6-24.3,62.9
						c-7.1,23.5-15.9,46.9-24,70.2c-3.1,9-6.1,24.2-12.2,30.8c-11,12-31.2,7.4-42.2-2.9c-31-29.2-25.4-82.1-25.4-122.1
						c0-56.4,8.8-108.4-5.4-164c-7.8-30.8-12-62.8-20.6-93c-5.4-18.9-11.7-38.3-14.6-58c-5.5-37.8-15.3-76.1-17.5-114.1
						c-1.9-32.5-3.8-66.5,33.8-73.6c23.5-4.4,29.5,27.1,47.3,37.2"/>
				</g>
			</g>
			
				<linearGradient id="SVGID_4_" gradientUnits="userSpaceOnUse" x1="6247.7964" y1="865.2458" x2="6316.9097" y2="865.2458" gradientTransform="matrix(-1 0 0 -1 7502 5000)">
				<stop  offset="0" style="stop-color:#F15A24"/>
				<stop  offset="1" style="stop-color:#F9A662"/>
			</linearGradient>
			<path class="st31" d="M1185.1,4156.6c11.6-17.1,10.7-40.7,10.7-40.7l50.3-7.6c0,0,4.2,17.3,8.2,39.2
				C1241.3,4154.8,1211.6,4168.5,1185.1,4156.6z"/>
			<path class="st32" d="M1067.5,4192.4c12.2-18.9,72.6-5.4,104.6-23.5c5.2-3,9.7-7.2,13-12.3c26.5,11.9,56.3-1.8,69.1-9.2
				c3.2,17.8,6.1,38.6,6.5,55.8c0.1,10.6-7.7,19.7-18.3,21.3c-101.7,15.7-180.5,5.2-180.5,5.2
				C1058.2,4217.1,1060.3,4203.4,1067.5,4192.4z"/>
			<path class="st32" d="M1553.7,4202.2c3.9,15.7,7.2,33.1,7.5,48c0.1,10.3-7.4,19.1-17.7,20.7c-98.6,15.2-168.4,17.2-168.4,17.2
				c-3.6-12.3-1.6-25.5,5.4-36.2c11.8-18.2,63.7-17.5,94.7-35c4.1-2.3,7.6-5.4,10.2-9.2C1508,4214.9,1537.2,4207.6,1553.7,4202.2z"
				/>
			
				<linearGradient id="SVGID_5_" gradientUnits="userSpaceOnUse" x1="5948.3057" y1="815.1686" x2="6016.501" y2="815.1686" gradientTransform="matrix(-1 0 0 -1 7502 5000)">
				<stop  offset="0" style="stop-color:#F15A24"/>
				<stop  offset="1" style="stop-color:#F9A662"/>
			</linearGradient>
			<path class="st33" d="M1492.5,4166.3l48.2-7.3c0,0,7.2,19.5,13,43.2c-16.5,5.5-45.7,12.8-68.2,5.3
				C1497.3,4191.1,1492.5,4166.3,1492.5,4166.3z"/>
			<path class="st34" d="M1129.9,3704l32.9-505.9l285-4.4c0,0,29.5,62.3,33.3,125.9c3.8,63.5-7,271-7,271.1l4.6,69.4l-1.2-6.6
				l75.3,518.8l-61.5,14.6l-130-505.7l-1.2-6.6l-42-280.2l-69.2,321.1l4.8,412.1l-62.6,5.6l-61.2-418.5l-0.3-2.4L1129.9,3704z"/>
			<path class="st35" d="M1373.4,3449.1c20.5,40.5,3.7,171.4,18.1,192.8c14.4,21.3,43.1,5.1,24,21.6
				c-19.2,16.5,39.6,382.2,39.6,382.2l0,0l-93.7-364.6l-1.2-6.6l-42-280.1C1318.1,3394.3,1352.9,3408.6,1373.4,3449.1z"/>
			<path class="st36" d="M1187.9,2497.7c4.1,1.2,8.2,2.1,12.4,2.8c19.4,3.5,37.9,2.4,46.5-1.2c24.3-10.3,23.9,27.2,23.9,27.2
				c-1.7,29.1,12.6,25.1,18.4,20.7s25.7-1.1,22.7,21.7c-3,22.8-23,25-23,25c-2.3,6.8-5.1,13.4-8.4,19.7l10.2,13.2
				c39-36.9,53.7-76.2,60.1-105.9c29.2-136.2-116.7-89.2-115.8-116.4s-75.2-54.7-95.1,20.2
				C1128.6,2467.2,1156.9,2488.8,1187.9,2497.7z"/>
			<path class="st37" d="M1248.3,2653.4c-1.2-12.5-3.4-25.5-7.7-31.3c-9.5-12.7,30.1-22.9,30.1-22.9l21.9,17.5
				c-1.7,12.9-2,25.9-0.8,38.9C1281.8,2652.6,1265.6,2649.5,1248.3,2653.4z"/>
			<path class="st8" d="M1291.8,2655.7c1,10.8,3.4,22.1,8.1,31.6c0,0-30.6,25.7-50.4-4.6c0,0,0.2-14.2-1.2-29.2
				C1265.6,2649.5,1281.8,2652.6,1291.8,2655.7z"/>
			<path class="st8" d="M1187.9,2497.7c-3.7,38.6-9,145.9,46,150.9c22.4,2,37.9-18.6,46.5-35.1c3.3-6.3,6.2-12.9,8.4-19.7
				c0,0,19.8-2.2,23-25c3.1-22.8-17-26.1-22.7-21.7s-20.1,8.4-18.4-20.7c0,0,0.4-37.5-23.9-27.2c-8.6,3.6-27.1,4.8-46.5,1.2
				C1196.2,2499.7,1192,2498.8,1187.9,2497.7z"/>
			
				<linearGradient id="SVGID_6_" gradientUnits="userSpaceOnUse" x1="6131.9233" y1="1382.8546" x2="6233.9346" y2="2295.5244" gradientTransform="matrix(-1 0 0 -1 7502 5000)">
				<stop  offset="0" style="stop-color:#48407C"/>
				<stop  offset="1" style="stop-color:#AA77B0"/>
			</linearGradient>
			<path class="st38" d="M1424.6,2697.4l-126.5-15.7c0,0-34.2,6.8-46.5,0c-12.3-6.8-123.2,28.8-123.2,28.8s-22,149.8,14.9,230.4
				c36.9,80.7,17,250.2,20.3,263.3c3.3,13.2,149.1,97.1,288.4,0c0,0-36.5-212.3-29.8-253.5
				C1428.8,2909.7,1453.6,2817.6,1424.6,2697.4z"/>
			<path class="st39" d="M537.5,2458.9c0,118.9,76.1,215.3,170,215.3c47.9,0,91.2-25.1,122-65.5c0.1-0.2,0.3-0.3,0.4-0.5
				c29.5-38.7,47.6-91.3,47.6-149.3c0-43.5-10.1-83.9-27.7-117.7c-1.3-2.6-2.7-5.1-4.1-7.5c-30.8-54.5-81.2-90.1-138.2-90.1
				C613.6,2243.6,537.5,2339.9,537.5,2458.9z"/>
			<path class="st40" d="M829.8,2608.2c26.4-11.5,60.4-28.1,87.8-47.8c5.4-3.8,10.6-7.8,15.3-11.9c3.6-3.1,7-6.2,10.1-9.4
				c11.5-11.7,19.5-24.1,21.8-36.7c3-16.7-4.5-36.9-17.4-57.9l0,0c-25.6-41.5-72.5-85.6-101.6-110.7c1.4,2.4,2.8,5,4.1,7.5
				c17.6,33.8,27.7,74.2,27.7,117.7C877.4,2516.9,859.3,2569.5,829.8,2608.2z"/>
			<path class="st41" d="M932.9,2548.4c9.2-0.1,18.3-1.8,26.9-5c5.3-2,10.4-4.7,15-8l44.5,3.5l8.1-68.4l-39.7-2.6
				c-8.9-11.7-23.3-20.4-40.3-23.6c13,21,20.5,41.2,17.4,57.9c-2.3,12.7-10.2,25-21.8,36.7C939.9,2542.2,936.5,2545.3,932.9,2548.4z
				"/>
			<path class="st42" d="M917.7,2560.3l8,130.7h34.1v-147.6c-8.6,3.3-17.7,5-26.9,5C928.2,2552.5,923,2556.5,917.7,2560.3z"/>
			<path class="st42" d="M850.2,2546.3c0,0,18.5-62.6,11-104l-26-1H720.7c13,1.8,21.2,19.5,18.4,40.1c-2.8,21-16,37.1-29.5,35.9
				L850.2,2546.3z"/>
			<path class="st43" d="M704.9,2516.2c1.5,0.7,3.1,1.1,4.7,1.2c13.5,1.2,26.6-14.9,29.5-35.9c2.8-20.7-5.4-38.3-18.4-40.1
				c-1.8-0.1-3.5,0-5.3,0.1c-11.7,2.3-22.4,17-25,35.7C688,2495.6,694.3,2511.7,704.9,2516.2z"/>
			<polygon class="st44" points="514.3,2289.6 336.9,2071.4 256.3,2143.5 			"/>
			<polygon class="st44" points="480,2395.7 72.8,2271.6 54.7,2395.7 			"/>
			<polygon class="st44" points="480,2496.4 183.7,2589.9 266.3,2691 			"/>
			<path class="st44" d="M499.2,2576.2c0,0-175.9,227.6-169.9,228.6c6,0.9,96.1,24.8,96.1,24.8L499.2,2576.2z"/>
			<path class="st8" d="M1462.4,3343.7c0,0-29.7,53.2-33.3,61.3s-8.6,51.9,4.9,78.7c13.5,26.8,53.9,21,45.4-17.5
				c-8.5-38.5,6.8-106.4,9.1-115.4S1462.4,3343.7,1462.4,3343.7z"/>
			<path class="st28" d="M1429.1,2697.4c0,0-65.7,71.5-21.6,131.6c44.1,60.1,100.5,218.4,102.5,222.3c2.1,4-58.9,302.2-58.9,302.2
				l40.9,11.1c0,0,108.2-268.3,100-321.7C1583.8,2989.6,1471.2,2740.7,1429.1,2697.4z"/>
			<g>
				<defs>
					<path id="SVGID_7_" d="M1429.1,2697.4c0,0-65.7,71.5-21.6,131.6c44.1,60.1,100.5,218.4,102.5,222.3
						c2.1,4-58.9,302.2-58.9,302.2l40.9,11.1c0,0,108.2-268.3,100-321.7C1583.8,2989.6,1471.2,2740.7,1429.1,2697.4z"/>
				</defs>
				<clipPath id="SVGID_8_">
					<use xlink:href="#SVGID_7_"  style="overflow:visible;"/>
				</clipPath>
				<g class="st45">
					<path class="st30" d="M1372.9,2761.7c7.2,16.9,20.7,34.5,32.8,49.3c6.9,8.5,13.9,28,22.4,32.7c2.4,9.3,13.3,17,19.2,24.2
						c7.7,9.5,12.2,23.4,21.3,30.8c1.7,10.1,9.8,18.5,14.7,26.9c4.9,8.4,8.7,17.5,12.8,26.5c9.2,20.4,12.9,39.9,19,60.1
						c6.7,21.6,10.6,43.9,11.6,66.4c1.2,24.8-8.6,45.1-15.6,68.1c-7.3,24.2-8.9,48.3-12.5,74.2c-2.9,20.8-9.8,40.9-13.6,61.3
						c-6.5,35.1-14.1,143.9-70.4,121.2c-35.2-14.2-60-31.5-76.4-66.9c-22.2-47.9-32.1-97.8-53.5-146.6
						c-21.3-48.5-22.2-96.9-27.9-148.8c-3.8-34-16.9-65.4-19-99.8c-1.2-18.9-2.7-37.6-2.7-56.6c0-30,12-55.2,23.1-82.9
						c3.2-7.8,4.7-25.5,12.2-29.5c6.9-3.6,28.3,0,35.1,3c6.1,2.7,12.2,9.5,18.7,11.9c9.2,3.4,20.1,2.2,30.1,2.6
						c10,0.4,41.7,2.5,43,13.4"/>
				</g>
			</g>
			<path class="st46" d="M3723.4,2572.5c0,0-14.2-7.6-14.6-3.6c-27.7,302.7,32.7,490.8,32.7,490.8s29.4,251.2,44.1,363.1
				c0,0,10.4,6,21.4,2.3c11-3.7-1.7-186.8,1.8-239c1.1-16.4,3.5-60.3-4.2-119.3c-15.9-121.8,2.3-292.1,2.3-292.1l36.9-113.7"/>
			<path class="st47" d="M3778.1,2546.4l110.9,30.4c0,0,58.6,147.6,19.8,294.8c-18.7,74.5-27.7,155.4-30.4,184
				c-0.6,6.7-0.6,13.4,0.3,20c3,24.5,10,92.4,1.2,146c-10.9,66.5-49.9,171.8-42.6,240.2c0,0-23.7,4.9-29.2-0.5
				c-5.2-5,8.6-349.3,10.3-390.9c0.1-2.7,0.1-5.5-0.1-8.2l-25.8-337.8l-83.6-155.5L3778.1,2546.4z"/>
			<path class="st48" d="M3482.3,2126.3l-50.7-55.9l-60.8-9.3c0,0-23,21.9,12.5,31.6c35.5,9.7,80.2,53.2,80.2,53.2L3482.3,2126.3z"
				/>
			<path class="st49" d="M3738.8,2143.8c-15.7-13-24.3-9.2-30.4-4.2c-29.8,25-104.8,119-114.7,105.8c-9.9-13.2-127-139-127-139
				l-23.8,22.8c0,0,124.3,197.2,146.9,203s152.4-114.9,159.1-133.3C3755.7,2180.7,3749.2,2152.3,3738.8,2143.8z"/>
			<g>
				<defs>
					<path id="SVGID_9_" d="M3738.8,2143.8c-15.7-13-24.3-9.2-30.4-4.2c-29.8,25-104.8,119-114.7,105.8c-9.9-13.2-127-139-127-139
						l-23.8,22.8c0,0,124.3,197.2,146.9,203s152.4-114.9,159.1-133.3C3755.7,2180.7,3749.2,2152.3,3738.8,2143.8z"/>
				</defs>
				<clipPath id="SVGID_10_">
					<use xlink:href="#SVGID_9_"  style="overflow:visible;"/>
				</clipPath>
				<g class="st50">
					<path class="st51" d="M3749.2,2169.6c0,0-124.8,149.8-150.4,129.8s-147.4-183.8-151.4-184c-3.9-0.3-39.9-12.7-8.9,69
						c31.1,81.7,6.7,77.7,61.2,130.7c54.5,53,24.2,98.1,86.9,87.3c62.7-10.7,40.9,26.8,116.7-53.9s71.4-61.3,75.6-103.6
						c4.2-42.3,14.9-63.1,11-69.8"/>
				</g>
			</g>
			<path class="st36" d="M3744.7,1982.9l-9.5,3.4c0,0-44.6-54.1,21.3-94.8s142.5-27,183.6,49.2c41.1,76.2,19.9,186.7,183.6,217.5
				c0,0-76.6,229.6-230.9,156.1L3744.7,1982.9z"/>
			
				<linearGradient id="SVGID_11_" gradientUnits="userSpaceOnUse" x1="1579.3975" y1="1763.5221" x2="1579.3975" y2="1681.7255" gradientTransform="matrix(0.9942 0.108 0.108 -0.9942 2029.5568 5002.3003)">
				<stop  offset="0" style="stop-color:#48407C"/>
				<stop  offset="1" style="stop-color:#AA77B0"/>
			</linearGradient>
			<path class="st52" d="M3808.8,3496c-23,14-44.3,4.2-53.6-1.7c1.5-6.5,7-13.4,9.7-18.2c3.1-5.5,11.7-28.7,17.7-45
				c0.7,1,1,2.1,0.8,3.3c-0.5,5.6-6.4,25.5-6.4,25.5s17.1-7.2,26.2,3.1l0.9-27.2c1-1.1,2.4-1.6,3.9-1.4
				C3807.8,3453.5,3807.9,3482.7,3808.8,3496z"/>
			<path class="st53" d="M3761.7,3507.8c-6.6-3.6-7.7-8.4-6.5-13.5c9.3,5.9,30.6,15.6,53.6,1.7c0.1,1.3,0.2,2.4,0.3,3.5
				C3810.7,3515.7,3776.7,3515.9,3761.7,3507.8z"/>
			<path class="st54" d="M3785.5,3422.8l-1.9,5.4c4.3,2.3,13.6,6.1,24.2,4.5v-7.7C3801.3,3425.7,3792.1,3424.2,3785.5,3422.8z"/>
			<path class="st48" d="M3783.6,3428.2c-0.3,0.9-0.7,1.9-1.1,2.9c0.7,1,1,2.1,0.8,3.3c-0.5,5.6-6.4,25.5-6.4,25.5
				s17.1-7.2,26.2,3.1l0.9-27.2c1-1.1,2.4-1.6,3.9-1.4v-1.7C3797.1,3434.4,3787.9,3430.5,3783.6,3428.2z"/>
			
				<linearGradient id="SVGID_12_" gradientUnits="userSpaceOnUse" x1="4647.1719" y1="1894.8374" x2="4647.1719" y2="1787.8419" gradientTransform="matrix(-1 0 0 -1 8479.71 5351.0698)">
				<stop  offset="0" style="stop-color:#48407C"/>
				<stop  offset="1" style="stop-color:#AA77B0"/>
			</linearGradient>
			<path class="st55" d="M3797.6,3553.3c28.2,21.6,57,12.1,69.9,5.9c-1.2-8.7-7.3-18.4-10.2-25.1c-3.3-7.6-11.5-39-17.1-61.1
				c-1,1.2-1.5,2.7-1.4,4.2c-0.1,7.4,5,34.1,5,34.1s-21.4-12-34.4,0.1l2.4-35.4c-1.1-1.5-2.9-2.4-4.8-2.4
				C3804.4,3498.2,3800.5,3536.2,3797.6,3553.3z"/>
			<path class="st53" d="M3857.3,3575.7c9-3.6,11.1-9.8,10.2-16.5c-12.9,6.2-41.7,15.7-69.9-5.9c-0.3,1.7-0.6,3.2-0.8,4.4
				C3792.5,3578.6,3836.7,3584.1,3857.3,3575.7z"/>
			<path class="st54" d="M3837.2,3461.8c0.6,2.2,1.2,4.7,1.8,7.3c-6,2.3-18.4,5.9-32,2.3c0.4-3.8,0.7-7.2,1-10.1
				C3816.3,3463.1,3828.5,3462.6,3837.2,3461.8z"/>
			<path class="st48" d="M3839.1,3469.1c0.3,1.2,0.6,2.6,1,3.9c-1,1.2-1.5,2.7-1.4,4.2c-0.1,7.4,5,34.1,5,34.1s-21.4-12-34.4,0.1
				l2.4-35.4c-1.1-1.5-2.9-2.4-4.8-2.4c0.1-0.7,0.1-1.4,0.2-2.2C3820.6,3475,3833.1,3471.4,3839.1,3469.1z"/>
			<path class="st56" d="M3689.3,2274.4c2.9,0.8,6.8,1.8,11.5,3l0.1-0.5C3696,2276,3692.1,2275.1,3689.3,2274.4z"/>
			<path class="st48" d="M3735.9,1962.8c0,0.3,0.2,2.2,0.4,14.5c0,2.9,0.1,6.1,0.2,9.4c1.2,50.8,9.6,140.8,53.4,121.6l0,0
				c5.8-2.5,12.1-7,19.2-13.6c7.4-7.2,14.2-14.9,20.3-23.1l0,0c0.3-0.3,0.6-0.7,0.8-1c1.3-1.6,2.6-3.2,4-4.9l0.6-0.8
				c0,0,0.4,0.1,1.2,0.3c0.1-0.1,0.2-0.2,0.2-0.2c4.3,0.9,15.7,2,16.4-12.3c0.8-17.6-6.7-31.9-15.1-23.5l-8.7,28l1.1-57.7
				c0,0-46.9-0.6-78.3-44.4C3751.5,1955,3740,1973.3,3735.9,1962.8z"/>
			<path class="st26" d="M3852.6,2052.7c-0.1,1.5-0.3,3-0.7,4.4l-22-3.5l7.6-24.3C3846,2020.8,3853.5,2035,3852.6,2052.7z"/>
			<polygon class="st57" points="3828.8,2057.1 3828.8,2053.3 3829.9,2053.5 			"/>
			<path class="st58" d="M3787.8,2124.6c1.2-5.4,1.8-10.8,2-16.3l0,0c5.8-2.5,12.1-7,19.2-13.6c7.4-7.2,14.2-14.9,20.3-23.1l0,0
				c0.3-0.3,0.6-0.7,0.8-1c1.3-1.6,2.6-3.2,4-4.9l0.6-0.8c0,0,0.4,0.1,1.2,0.3l0.6,0.1c0,0-1.2,2.2-3.9,7.7c0,0.1-0.1,0.1-0.1,0.2
				c-6.4,13.4-6.8,16.7-8.6,27.2C3816.9,2103.4,3796.3,2112.8,3787.8,2124.6z"/>
			<path class="st48" d="M3781.8,2153.3c20,7.5,30.5,4.2,35.9-0.8c0.3-0.3,0.6-0.6,0.9-0.9c0.3-0.3,0.5-0.6,0.8-0.9s0.5-0.6,0.7-0.9
				c0.2-0.3,0.4-0.6,0.6-0.9l0,0c0.9-1.4,1.6-3,2.1-4.6c0.1-0.4,0.2-0.7,0.3-1c0.1-0.3,0.1-0.5,0.2-0.7c0-0.2,0.1-0.3,0.1-0.5
				c-0.3-0.1-0.5-0.2-0.8-0.4c-1.2-1.1-2.3-17.8,0.1-33.7c0.5-2.9,1-5.3,1.3-7.5c-7.1,3-27.7,12.5-36.3,24.2
				c-0.8,3.9-1.7,7.8-2.6,13.1C3783.6,2146.6,3781.8,2153.3,3781.8,2153.3z"/>
			
				<linearGradient id="SVGID_13_" gradientUnits="userSpaceOnUse" x1="5072.7573" y1="2631.7812" x2="5084.52" y2="2631.7812" gradientTransform="matrix(-1 -7.000000e-02 7.000000e-02 -1 8581.0801 5262.5801)">
				<stop  offset="0" style="stop-color:#F15A24"/>
				<stop  offset="0.12" style="stop-color:#F36C33"/>
				<stop  offset="0.32" style="stop-color:#F68547"/>
				<stop  offset="0.53" style="stop-color:#F79856"/>
				<stop  offset="0.75" style="stop-color:#F9A25F"/>
				<stop  offset="1" style="stop-color:#F9A662"/>
			</linearGradient>
			<path class="st59" d="M3689.3,2274.4c2.9,0.8,6.8,1.8,11.5,3l0.1-0.5C3696,2276,3692.1,2275.1,3689.3,2274.4z"/>
			<path class="st60" d="M3689.3,2274.4c2.9,0.8,6.8,1.8,11.5,3l0.1-0.5C3696,2276,3692.1,2275.1,3689.3,2274.4z"/>
			<path class="st48" d="M3855.1,2674.6c0.6,3.8,5.9,25.9,5.9,25.9s5.7,11.8,18.4,2.8c12.7-9.1,2.6-25.4,7.5-38.3
				c4.4-11.7,19.7-22.2,21.9-39.2l-16.4-8.6l-3.3-1.8c-1.9,1.9-4.1,4.1-6.4,6.5c-8.9,9.1-19.7,20.7-22.9,26.2
				C3853.9,2657.9,3854.6,2670.8,3855.1,2674.6z"/>
			<path class="st61" d="M3882.4,2619.2l3.4,1.8l3.4,1.8l16.4,8.6l3.1,1.6c4.2-5.4,8.2-10.8,12-16c98.2-133.8,97-173,80.4-230.1
				c-13.3-45.7-44.1-116.5-60.5-167.8c-16.4-51.2-37.1-61.6-37.1-61.6l-10.2,9c-29.2,35-12,113.5,3.4,134.5
				c3.5,4.9,6.5,10.1,9.1,15.6c11,22.9,21.4,56.9,36.5,99.3c18.4,51.6-16.7,103.7-37.2,156.5c-3.1,8-6.8,14.9-9.8,21.1
				C3887.7,2609.3,3882.4,2619.2,3882.4,2619.2z"/>
			<g>
				<defs>
					<path id="SVGID_14_" d="M3882.4,2619.2l3.4,1.8l3.4,1.8l16.4,8.6l3.1,1.6c4.2-5.4,8.2-10.8,12-16c98.2-133.8,97-173,80.4-230.1
						c-13.3-45.7-44.1-116.5-60.5-167.8c-16.4-51.2-37.1-61.6-37.1-61.6l-10.2,9c-29.2,35-12,113.5,3.4,134.5
						c3.5,4.9,6.5,10.1,9.1,15.6c11,22.9,21.4,56.9,36.5,99.3c18.4,51.6-16.7,103.7-37.2,156.5c-3.1,8-6.8,14.9-9.8,21.1
						C3887.7,2609.3,3882.4,2619.2,3882.4,2619.2z"/>
				</defs>
				<clipPath id="SVGID_15_">
					<use xlink:href="#SVGID_14_"  style="overflow:visible;"/>
				</clipPath>
				<g class="st62">
					<path class="st51" d="M3856.2,2228.2c0,0,43.1,14.1,76.9,99.6s47.9,129.9,12.5,189.7c-27.9,47.2-61.5,122.6-61.5,122.6
						s-25.8-18.4-27.2-29"/>
				</g>
			</g>
			
				<linearGradient id="SVGID_16_" gradientUnits="userSpaceOnUse" x1="4854.4185" y1="2557.7656" x2="5086.0107" y2="2557.7656" gradientTransform="matrix(-1 -7.000000e-02 7.000000e-02 -1 8581.0801 5262.5801)">
				<stop  offset="0" style="stop-color:#F15A24"/>
				<stop  offset="0.12" style="stop-color:#F36C33"/>
				<stop  offset="0.32" style="stop-color:#F68547"/>
				<stop  offset="0.53" style="stop-color:#F79856"/>
				<stop  offset="0.75" style="stop-color:#F9A25F"/>
				<stop  offset="1" style="stop-color:#F9A662"/>
			</linearGradient>
			<path class="st63" d="M3688.2,2274.1l1.1,0.3c2.8,0.7,6.7,1.6,11.6,2.5c34.4,6.7,114.7,17.9,162.2,14.3c0,0-22.4,153.2-9.4,258.6
				c1.3,11.2,3.3,22.4,5.8,33.4c5.2-1.3,10.3-2.5,15.3-3.6l14.1-2.8c0,0,1.2-3.7-2.1-12.2c-0.7-1.4-1.2-2.9-1.5-4.5
				c-7.8-35.3-11.3-99.4-4.7-157.7c24-73.8,38.3-115.4,38.3-115.4c-19-32.7-33.5-80.2-30.6-98.2c0.1-0.7,0.2-1.3,0.4-2
				s0.2-1.1,0.4-1.6c0.1-0.3,0.1-0.6,0.2-0.9c0.2-1,0.5-1.9,0.8-2.8c0-0.2,0.1-0.4,0.2-0.6c0.2-0.6,0.3-1.1,0.5-1.6
				c0.2-0.5,0.4-1.2,0.6-1.7c1.3-3.4,10.8-21,12.7-19.7c-2.9-2.1-10.1-3.3-10.1-3.3l-24.6-4.4l-46.2-8.3c0,0.2,0,0.3-0.1,0.5
				c0,0.3-0.1,0.5-0.2,0.7c-0.1,0.3-0.1,0.6-0.3,1c-0.5,1.6-1.2,3.2-2.1,4.6l0,0c-0.2,0.3-0.4,0.6-0.6,0.9c-0.2,0.3-0.5,0.6-0.7,0.9
				c-0.2,0.3-0.5,0.6-0.8,0.9c-0.3,0.3-0.6,0.6-0.9,0.9c-5.4,5-15.9,8.3-35.9,0.8c0,0,1.8-6.7,3.3-15.6c-9.9-2.5-20.1-4.1-30.3-4.7
				c-11.9-0.4-23.7,0.3-35.5,1.9c7.1,38.6-29.7,124.5-29.7,124.5c-0.3,1-0.5,2-0.7,3C3688.2,2266.2,3687.9,2270.1,3688.2,2274.1z"/>
			<path class="st61" d="M3688.2,2274.1c0.3,4.4,1.1,8.8,2.4,13c5.8,19,20.6,35.9,31,48.6c11.1,82.1-12.5,230.8-12.9,233.2l0,0l0,0
				c39.6,35.6,109.2,24.2,151.3,14.4c-0.1-0.5-0.4,0.5-0.5,0c-2.5-11-4.5-22.2-5.8-33.4c-13-105.5,9.4-258.6,9.4-258.6
				c-47.5,3.6-127.8-7.6-162.2-14.3l-0.1,0.5c-4.7-1.2-8.6-2.2-11.5-3L3688.2,2274.1z"/>
			<path class="st64" d="M4951.1,3842.9v31.4c0,42.4-128.9,76.9-288,76.9s-288-34.4-288-76.9v-31.4H4951.1z"/>
			<path class="st65" d="M4809.6,3865.3H4781v79.1c9.9-1.2,19.4-2.6,28.6-4.1L4809.6,3865.3z"/>
			<path class="st65" d="M4517.2,3865.6h28.6v79c-9.9-1.2-19.4-2.6-28.6-4.1V3865.6z"/>
			<path class="st65" d="M4884.9,3923.3c21.8-7,38.8-15.1,50.2-23.9v-52.9h-50.2V3923.3z"/>
			<path class="st66" d="M4375.2,3842.9c0,42.5,128.9,76.9,288,76.9s288-34.5,288-76.9s-128.9-76.9-288-76.9
				S4375.2,3800.4,4375.2,3842.9z"/>
			<path class="st65" d="M4441.5,3841.9c0,31.9,99.2,57.8,221.7,57.8c122.5,0,221.7-25.9,221.7-57.8s-99.2-57.8-221.7-57.8
				C4540.7,3784.1,4441.5,3810.1,4441.5,3841.9z"/>
			<path class="st64" d="M4663.2,3792.2c117.3,0,213,23.8,220.9,53.8c0.4-1.3,0.7-2.6,0.8-4c0-31.9-99.2-57.8-221.7-57.8
				c-122.4,0-221.7,25.9-221.7,57.8c0.1,1.4,0.3,2.7,0.8,4C4450.2,3815.9,4546,3792.2,4663.2,3792.2z"/>
			<path class="st64" d="M4761.3,3818.5l20.3-5.8l-16-4.5l-20.3,5.8c-36.6-9.1-81.6-11.3-112.9-2.4c-39.3,11.2-13.1,23,6.8,32.6
				l-39.6,11.3c-5.9-3.3-4.6-6.5,4.8-9.7l-45.9-13c-31.2,9.6-24,21.7,7.3,32.3l-20.5,5.9l16.1,4.5l20.3-5.8
				c41.6,10.8,87.1,10.2,114.3,2.4c38.9-11.1,11.5-22.9-8-32.8l38.9-11.1c4.7,2.7,3.7,5.7-4.6,8.6l46.2,13.1
				C4797.7,3840.4,4793.2,3829.1,4761.3,3818.5z M4649.1,3859.9c-9.2,2.7-22.4,2.8-34.1,0.4l35.5-10.1
				C4656.6,3854,4658.1,3857.3,4649.1,3859.9L4649.1,3859.9z M4677.1,3833.4c-5.2-3.7-5.9-6.9,2.9-9.4c9.8-2.8,21.1-2.7,31.9-0.5
				L4677.1,3833.4z"/>
			<path class="st64" d="M4761.3,3815l20.3-5.8l-16-4.5l-20.3,5.8c-36.6-9.1-81.6-11.3-112.9-2.4c-39.3,11.2-13.1,23,6.8,32.6
				l-39.6,11.3c-5.9-3.3-4.6-6.5,4.8-9.7l-45.9-13c-31.2,9.6-24,21.7,7.3,32.3l-20.5,5.9l16.1,4.5l20.3-5.8
				c41.6,10.8,87.1,10.1,114.3,2.4c38.9-11.1,11.5-22.9-8-32.7l38.9-11.1c4.7,2.7,3.7,5.7-4.6,8.6l46.2,13.1
				C4797.7,3836.8,4793.2,3825.5,4761.3,3815z M4649.1,3856.3c-9.2,2.6-22.4,2.8-34.1,0.4l35.5-10.1
				C4656.6,3850.3,4658.1,3853.7,4649.1,3856.3L4649.1,3856.3z M4677.1,3829.9c-5.2-3.7-5.9-6.9,2.9-9.4c9.8-2.8,21.1-2.7,31.9-0.5
				L4677.1,3829.9z"/>
			<path class="st64" d="M4951.1,3796.6v31.4c0,42.5-128.9,76.9-288,76.9s-288-34.4-288-76.9v-31.4H4951.1z"/>
			<path class="st65" d="M4809.6,3819H4781v79c9.9-1.2,19.4-2.6,28.6-4.1L4809.6,3819z"/>
			<path class="st65" d="M4517.2,3819.3h28.6v79c-9.9-1.2-19.4-2.6-28.6-4.1V3819.3z"/>
			<path class="st65" d="M4884.9,3877c21.8-7,38.8-15.1,50.2-23.9v-52.9h-50.2V3877z"/>
			<path class="st66" d="M4375.2,3796.6c0,42.4,128.9,76.8,288,76.8s288-34.4,288-76.8c0-42.4-128.9-76.9-288-76.9
				S4375.2,3754.2,4375.2,3796.6z"/>
			<path class="st65" d="M4441.5,3795.6c0,31.9,99.2,57.8,221.7,57.8c122.5,0,221.7-25.9,221.7-57.8c0-31.9-99.2-57.8-221.7-57.8
				C4540.7,3737.8,4441.5,3763.7,4441.5,3795.6z"/>
			<path class="st64" d="M4663.2,3745.8c117.3,0,213,23.7,220.9,53.8c0.4-1.3,0.7-2.6,0.8-4c0-31.9-99.2-57.8-221.7-57.8
				c-122.4,0-221.7,25.9-221.7,57.8c0.1,1.4,0.3,2.7,0.8,4C4450.2,3769.6,4546,3745.8,4663.2,3745.8z"/>
			<path class="st64" d="M4761.3,3772.2l20.3-5.8l-16-4.5l-20.3,5.8c-36.6-9.1-81.6-11.3-112.9-2.4c-39.3,11.2-13.1,23,6.8,32.6
				l-39.6,11.3c-5.9-3.3-4.6-6.5,4.8-9.7l-45.9-13c-31.2,9.6-24,21.7,7.3,32.3l-20.6,5.9l16.1,4.5l20.3-5.8
				c41.6,10.8,87.1,10.1,114.3,2.4c38.9-11.1,11.5-22.9-8-32.8l38.9-11.1c4.7,2.7,3.7,5.7-4.6,8.7l46.2,13.1
				C4797.7,3794.1,4793.2,3782.8,4761.3,3772.2z M4649.1,3813.5c-9.2,2.7-22.4,2.8-34.1,0.4l35.5-10.1
				C4656.6,3807.7,4658.1,3811,4649.1,3813.5L4649.1,3813.5z M4677.1,3787.1c-5.2-3.7-5.9-6.9,2.9-9.4c9.8-2.8,21.1-2.7,31.9-0.5
				L4677.1,3787.1z"/>
			<path class="st64" d="M4761.3,3768.6l20.3-5.8l-16-4.5l-20.3,5.8c-36.6-9.1-81.6-11.3-112.9-2.4c-39.3,11.2-13.1,23,6.8,32.6
				l-39.6,11.3c-5.9-3.3-4.6-6.5,4.8-9.7l-45.9-13c-31.2,9.6-24,21.7,7.3,32.3l-20.6,5.9l16.1,4.5l20.3-5.8
				c41.6,10.8,87.1,10.2,114.3,2.4c38.9-11.1,11.5-22.9-8-32.7l38.9-11.1c4.7,2.7,3.7,5.7-4.6,8.6l46.2,13.1
				C4797.7,3790.5,4793.2,3779.2,4761.3,3768.6z M4649.1,3809.9c-9.2,2.6-22.4,2.8-34.1,0.4l35.5-10.1
				C4656.6,3804,4658.1,3807.3,4649.1,3809.9L4649.1,3809.9z M4677.1,3783.5c-5.2-3.7-5.9-6.9,2.9-9.4c9.8-2.8,21.1-2.7,31.9-0.5
				L4677.1,3783.5z"/>
			<path class="st64" d="M4951.1,3750.2v31.4c0,42.4-128.9,76.9-288,76.9s-288-34.4-288-76.9v-31.4H4951.1z"/>
			<path class="st65" d="M4809.6,3772.7H4781v79.1c9.9-1.2,19.4-2.6,28.6-4.1L4809.6,3772.7z"/>
			<path class="st65" d="M4517.2,3773h28.6v79.1c-9.9-1.2-19.4-2.6-28.6-4.1V3773z"/>
			<path class="st65" d="M4884.9,3830.7c21.8-7,38.8-15.1,50.2-23.9v-52.9h-50.2V3830.7z"/>
			<path class="st66" d="M4375.2,3750.2c0,42.4,128.9,76.9,288,76.9s288-34.4,288-76.9s-128.9-76.9-288-76.9
				S4375.2,3707.8,4375.2,3750.2z"/>
			<path class="st65" d="M4441.5,3749.3c0,31.9,99.2,57.8,221.7,57.8c122.5,0,221.7-25.9,221.7-57.8c0-31.9-99.2-57.8-221.7-57.8
				C4540.7,3691.5,4441.5,3717.4,4441.5,3749.3z"/>
			<path class="st64" d="M4663.2,3699.5c117.3,0,213,23.7,220.9,53.8c0.4-1.3,0.7-2.6,0.8-4c0-31.9-99.2-57.8-221.7-57.8
				c-122.4,0-221.7,25.9-221.7,57.8c0.1,1.4,0.3,2.7,0.8,4C4450.2,3723.3,4546,3699.5,4663.2,3699.5z"/>
			<path class="st64" d="M4761.3,3725.9l20.3-5.8l-16-4.5l-20.3,5.8c-36.6-9.1-81.6-11.3-112.9-2.4c-39.3,11.2-13.1,23,6.8,32.6
				l-39.6,11.3c-5.9-3.3-4.6-6.5,4.8-9.7l-45.9-13c-31.2,9.6-24,21.7,7.3,32.3l-20.5,5.9l16.1,4.5l20.3-5.8
				c41.6,10.8,87.1,10.1,114.3,2.4c38.9-11.1,11.5-22.9-8-32.7l38.9-11.1c4.7,2.7,3.7,5.7-4.6,8.6l46.2,13.1
				C4797.7,3747.8,4793.2,3736.5,4761.3,3725.9z M4649.1,3767.2c-9.2,2.6-22.4,2.8-34.1,0.4l35.5-10.1
				C4656.6,3761.3,4658.1,3764.6,4649.1,3767.2L4649.1,3767.2z M4677.1,3740.8c-5.2-3.7-5.9-6.9,2.9-9.4c9.8-2.8,21.1-2.7,31.9-0.5
				L4677.1,3740.8z"/>
			<path class="st64" d="M4761.3,3722.3l20.3-5.8l-16-4.5l-20.3,5.8c-36.6-9.1-81.6-11.3-112.9-2.4c-39.3,11.2-13.1,23,6.8,32.6
				l-39.6,11.3c-5.9-3.3-4.6-6.5,4.8-9.7l-45.9-13c-31.2,9.6-24,21.7,7.3,32.3l-20.5,5.9l16.1,4.5l20.3-5.8
				c41.6,10.8,87.1,10.2,114.3,2.4c38.9-11.1,11.5-22.9-8-32.7l38.9-11.1c4.7,2.7,3.7,5.7-4.6,8.7l46.2,13.1
				C4797.7,3744.1,4793.2,3732.8,4761.3,3722.3z M4649.1,3763.6c-9.2,2.6-22.4,2.8-34.1,0.4l35.5-10.1
				C4656.6,3757.7,4658.1,3761,4649.1,3763.6L4649.1,3763.6z M4677.1,3737.1c-5.2-3.7-5.9-6.9,2.9-9.4c9.8-2.8,21.1-2.7,31.9-0.5
				L4677.1,3737.1z"/>
			<path class="st64" d="M4951.1,3703.9v31.4c0,42.4-128.9,76.9-288,76.9s-288-34.4-288-76.9v-31.4H4951.1z"/>
			<path class="st65" d="M4809.6,3726.3H4781v79c9.9-1.2,19.4-2.6,28.6-4.1L4809.6,3726.3z"/>
			<path class="st65" d="M4517.2,3726.6h28.6v79.1c-9.9-1.2-19.4-2.6-28.6-4.1V3726.6z"/>
			<path class="st65" d="M4884.9,3784.4c21.8-7,38.8-15.1,50.2-23.9v-52.9h-50.2V3784.4z"/>
			<path class="st66" d="M4375.2,3703.9c0,42.4,128.9,76.9,288,76.9s288-34.4,288-76.9c0-42.4-128.9-76.9-288-76.9
				S4375.2,3661.5,4375.2,3703.9z"/>
			<path class="st65" d="M4441.5,3703c0,31.9,99.2,57.8,221.7,57.8c122.5,0,221.7-25.9,221.7-57.8c0-31.9-99.2-57.8-221.7-57.8
				C4540.7,3645.2,4441.5,3671.1,4441.5,3703z"/>
			<path class="st64" d="M4663.2,3653.3c117.3,0,213,23.7,220.9,53.8c0.4-1.3,0.7-2.6,0.8-4c0-31.9-99.2-57.8-221.7-57.8
				c-122.4,0-221.7,25.9-221.7,57.8c0.1,1.4,0.3,2.7,0.8,4C4450.2,3676.9,4546,3653.3,4663.2,3653.3z"/>
			<path class="st64" d="M4761.3,3679.6l20.3-5.8l-16-4.5l-20.3,5.8c-36.6-9.1-81.6-11.3-112.9-2.4c-39.3,11.2-13.1,23,6.8,32.6
				l-39.6,11.3c-5.9-3.3-4.6-6.5,4.8-9.7l-45.9-13c-31.2,9.6-24,21.7,7.3,32.3l-20.5,5.9l16.1,4.5l20.3-5.8
				c41.6,10.8,87.1,10.2,114.3,2.4c38.9-11.1,11.5-22.9-8-32.8l38.9-11.1c4.7,2.7,3.7,5.7-4.6,8.7l46.2,13.1
				C4797.7,3701.4,4793.2,3690.1,4761.3,3679.6z M4649.1,3720.9c-9.2,2.6-22.4,2.8-34.1,0.4l35.5-10.1
				C4656.6,3715,4658.1,3718.3,4649.1,3720.9L4649.1,3720.9z M4677.1,3694.5c-5.2-3.7-5.9-6.9,2.9-9.4c9.8-2.8,21.1-2.7,31.9-0.5
				L4677.1,3694.5z"/>
			<path class="st66" d="M4761.3,3675.9l20.3-5.8l-16-4.5l-20.3,5.8c-36.6-9.1-81.6-11.3-112.9-2.4c-39.3,11.2-13.1,23,6.8,32.6
				l-39.6,11.3c-5.9-3.3-4.6-6.5,4.8-9.7l-45.9-13c-31.2,9.6-24,21.7,7.3,32.3l-20.5,5.9l16.1,4.5l20.3-5.8
				c41.6,10.8,87.1,10.1,114.3,2.4c38.9-11.1,11.5-22.9-8-32.7l38.9-11.1c4.7,2.7,3.7,5.7-4.6,8.6l46.2,13.1
				C4797.7,3697.8,4793.2,3686.5,4761.3,3675.9z M4649.1,3717.3c-9.2,2.7-22.4,2.8-34.1,0.4l35.5-10.1
				C4656.6,3711.4,4658.1,3714.7,4649.1,3717.3L4649.1,3717.3z M4677.1,3690.8c-5.2-3.7-5.9-6.9,2.9-9.4c9.8-2.8,21.1-2.7,31.9-0.5
				L4677.1,3690.8z"/>
			<path class="st64" d="M4951.1,3656.7v31.4c0,42.4-128.9,76.9-288,76.9s-288-34.4-288-76.9v-31.4H4951.1z"/>
			<path class="st65" d="M4809.6,3679.1H4781v79.1c9.9-1.2,19.4-2.6,28.6-4.1L4809.6,3679.1z"/>
			<path class="st65" d="M4517.2,3679.4h28.6v79.1c-9.9-1.2-19.4-2.6-28.6-4.1V3679.4z"/>
			<path class="st65" d="M4884.9,3737.1c21.8-7,38.8-15.1,50.2-23.9v-52.9h-50.2V3737.1z"/>
			<path class="st66" d="M4375.2,3656.7c0,42.4,128.9,76.9,288,76.9s288-34.4,288-76.9c0-42.4-128.9-76.9-288-76.9
				S4375.2,3614.2,4375.2,3656.7z"/>
			<path class="st65" d="M4441.5,3655.7c0,31.9,99.2,57.8,221.7,57.8c122.5,0,221.7-25.9,221.7-57.8s-99.2-57.8-221.7-57.8
				C4540.7,3597.9,4441.5,3623.8,4441.5,3655.7z"/>
			<path class="st64" d="M4663.2,3605.9c117.3,0,213,23.7,220.9,53.8c0.4-1.3,0.7-2.6,0.8-4c0-31.9-99.2-57.8-221.7-57.8
				c-122.4,0-221.7,25.9-221.7,57.8c0.1,1.4,0.3,2.7,0.8,4C4450.2,3629.7,4546,3605.9,4663.2,3605.9z"/>
			<path class="st64" d="M4761.3,3632.3l20.3-5.8l-16-4.5l-20.3,5.8c-36.6-9.1-81.6-11.3-112.9-2.4c-39.3,11.2-13.1,23,6.8,32.6
				l-39.6,11.3c-5.9-3.3-4.6-6.5,4.8-9.7l-45.9-13c-31.2,9.6-24,21.7,7.3,32.3l-20.6,6l16.1,4.5l20.3-5.8
				c41.6,10.8,87.1,10.2,114.3,2.4c38.9-11.1,11.5-22.9-8-32.7l38.9-11.1c4.7,2.7,3.7,5.7-4.6,8.6l46.2,13.1
				C4797.7,3654.2,4793.2,3642.9,4761.3,3632.3z M4649.1,3673.7c-9.2,2.6-22.4,2.8-34.1,0.4l35.5-10.1
				C4656.6,3667.8,4658.1,3671.1,4649.1,3673.7L4649.1,3673.7z M4677.1,3647.2c-5.2-3.7-5.9-6.9,2.9-9.4c9.8-2.8,21.1-2.7,31.9-0.5
				L4677.1,3647.2z"/>
			<path class="st66" d="M4761.3,3628.7l20.3-5.8l-16-4.5l-20.3,5.8c-36.6-9.1-81.6-11.3-112.9-2.4c-39.3,11.2-13.1,23,6.8,32.6
				l-39.6,11.3c-5.9-3.3-4.6-6.5,4.8-9.7l-45.9-13c-31.2,9.6-24,21.7,7.3,32.4l-20.6,5.9l16.1,4.5l20.3-5.8
				c41.6,10.8,87.1,10.1,114.3,2.4c38.9-11.1,11.5-22.9-8-32.8l38.9-11.1c4.7,2.7,3.7,5.7-4.6,8.6l46.2,13.1
				C4797.7,3650.6,4793.2,3639.3,4761.3,3628.7z M4649.1,3670c-9.2,2.6-22.4,2.8-34.1,0.4l35.5-10.1
				C4656.6,3664.1,4658.1,3667.4,4649.1,3670L4649.1,3670z M4677.1,3643.6c-5.2-3.7-5.9-6.9,2.9-9.4c9.8-2.8,21.1-2.7,31.9-0.5
				L4677.1,3643.6z"/>
			<path class="st64" d="M4951.1,3609.4v31.4c0,42.4-128.9,76.9-288,76.9s-288-34.4-288-76.9v-31.4H4951.1z"/>
			<path class="st65" d="M4809.6,3631.8H4781v79c9.9-1.2,19.4-2.6,28.6-4.1L4809.6,3631.8z"/>
			<path class="st65" d="M4517.2,3632.2h28.6v79.1c-9.9-1.2-19.4-2.6-28.6-4.1V3632.2z"/>
			<path class="st65" d="M4884.9,3689.9c21.8-7,38.8-15.1,50.2-23.9v-52.9h-50.2V3689.9z"/>
			<path class="st66" d="M4375.2,3609.4c0,42.5,128.9,76.9,288,76.9s288-34.4,288-76.9c0-42.5-128.9-76.9-288-76.9
				S4375.2,3566.9,4375.2,3609.4z"/>
			<path class="st65" d="M4441.5,3608.5c0,31.9,99.2,57.8,221.7,57.8c122.5,0,221.7-25.9,221.7-57.8s-99.2-57.8-221.7-57.8
				C4540.7,3550.7,4441.5,3576.6,4441.5,3608.5z"/>
			<path class="st64" d="M4663.2,3558.7c117.3,0,213,23.8,220.9,53.8c0.4-1.3,0.7-2.6,0.8-4c0-31.9-99.2-57.8-221.7-57.8
				c-122.4,0-221.7,25.9-221.7,57.8c0.1,1.4,0.3,2.7,0.8,4C4450.2,3582.5,4546,3558.7,4663.2,3558.7z"/>
			<path class="st64" d="M4761.3,3585.1l20.3-5.8l-16-4.5l-20.3,5.8c-36.6-9.1-81.6-11.3-112.9-2.4c-39.3,11.2-13.1,23,6.8,32.6
				l-39.6,11.3c-5.9-3.3-4.6-6.5,4.8-9.7l-45.9-13c-31.2,9.6-24,21.7,7.3,32.3l-20.5,5.9l16.1,4.5l20.3-5.8
				c41.6,10.8,87.1,10.1,114.3,2.4c38.9-11.1,11.5-22.9-8-32.7l38.9-11.1c4.7,2.7,3.7,5.7-4.6,8.6l46.2,13.1
				C4797.7,3606.9,4793.2,3595.7,4761.3,3585.1z M4649.1,3626.4c-9.2,2.7-22.4,2.8-34.1,0.4l35.5-10.1
				C4656.6,3620.5,4658.1,3623.8,4649.1,3626.4L4649.1,3626.4z M4677.1,3600c-5.2-3.7-5.9-6.9,2.9-9.4c9.8-2.8,21.1-2.7,31.9-0.5
				L4677.1,3600z"/>
			<path class="st66" d="M4761.3,3581.5l20.3-5.8l-16-4.5l-20.3,5.8c-36.6-9.1-81.6-11.3-112.9-2.4c-39.3,11.2-13.1,23,6.8,32.6
				l-39.6,11.3c-5.9-3.3-4.6-6.5,4.8-9.7l-45.9-13c-31.2,9.6-24,21.7,7.3,32.3l-20.5,5.9l16.1,4.5l20.3-5.8
				c41.6,10.8,87.1,10.2,114.3,2.4c38.9-11.1,11.5-22.9-8-32.7l38.9-11.1c4.7,2.7,3.7,5.7-4.6,8.6l46.2,13.1
				C4797.7,3603.3,4793.2,3592,4761.3,3581.5z M4649.1,3622.8c-9.2,2.6-22.4,2.8-34.1,0.4l35.5-10.1
				C4656.6,3616.9,4658.1,3620.2,4649.1,3622.8L4649.1,3622.8z M4677.1,3596.3c-5.2-3.7-5.9-6.9,2.9-9.4c9.8-2.8,21.1-2.7,31.9-0.5
				L4677.1,3596.3z"/>
			<path class="st64" d="M4545.4,3956.9v31.4c0,42.4-128.9,76.9-288,76.9s-288-34.4-288-76.9v-31.4H4545.4z"/>
			<path class="st65" d="M4403.8,3979.3h-28.6v79.1c10-1.2,19.4-2.6,28.6-4.1V3979.3z"/>
			<path class="st65" d="M4111.4,3979.6h28.6v79.1c-10-1.2-19.4-2.6-28.6-4.1V3979.6z"/>
			<path class="st65" d="M4479.1,4037.4c21.8-7,38.8-15.1,50.2-23.9v-52.9h-50.2V4037.4z"/>
			<path class="st66" d="M3969.4,3956.9c0,42.4,128.9,76.9,288,76.9c159.1,0,288-34.4,288-76.9s-128.9-76.9-288-76.9
				C4098.3,3880,3969.4,3914.5,3969.4,3956.9z"/>
			<path class="st65" d="M4035.7,3956c0,31.9,99.3,57.8,221.7,57.8c122.4,0,221.7-25.9,221.7-57.8s-99.3-57.8-221.7-57.8
				C4134.9,3898.2,4035.7,3924.1,4035.7,3956z"/>
			<path class="st64" d="M4257.4,3906.2c117.3,0,213,23.7,220.9,53.8c0.4-1.3,0.7-2.6,0.8-4c0-31.9-99.3-57.8-221.7-57.8
				c-122.4,0-221.7,25.9-221.7,57.8c0.1,1.4,0.4,2.7,0.8,4C4044.4,3929.9,4140.1,3906.2,4257.4,3906.2z"/>
			<path class="st64" d="M4355.4,3932.6l20.3-5.8l-16-4.5l-20.3,5.8c-36.6-9.1-81.6-11.3-112.8-2.4c-39.4,11.2-13.2,23,6.8,32.6
				l-39.6,11.3c-5.9-3.3-4.6-6.5,4.8-9.7l-45.9-13c-31.2,9.6-24,21.7,7.3,32.3l-20.5,5.9l16.1,4.5l20.3-5.8
				c41.6,10.8,87.2,10.1,114.3,2.4c38.9-11.1,11.5-22.9-8-32.8l38.9-11.1c4.7,2.7,3.7,5.7-4.6,8.6l46.2,13.1
				C4391.9,3954.4,4387.4,3943.2,4355.4,3932.6z M4243.3,3973.9c-9.2,2.7-22.4,2.8-34.1,0.4l35.5-10.1
				C4250.8,3968,4252.3,3971.3,4243.3,3973.9L4243.3,3973.9z M4271.3,3947.5c-5.2-3.7-5.9-6.9,2.9-9.4c9.8-2.8,21.1-2.7,31.9-0.5
				L4271.3,3947.5z"/>
			<path class="st64" d="M4355.4,3928.9l20.3-5.8l-16-4.5l-20.3,5.8c-36.6-9.1-81.6-11.3-112.8-2.4c-39.4,11.2-13.2,23,6.8,32.6
				l-39.6,11.3c-5.9-3.3-4.6-6.5,4.8-9.7l-45.9-13c-31.2,9.6-24,21.7,7.3,32.3l-20.5,5.9l16.1,4.5l20.3-5.8
				c41.6,10.8,87.2,10.1,114.3,2.4c38.9-11.1,11.5-22.9-8-32.7l38.9-11.1c4.7,2.7,3.7,5.7-4.6,8.6l46.2,13.1
				C4391.9,3950.8,4387.4,3939.5,4355.4,3928.9z M4243.3,3970.3c-9.2,2.7-22.4,2.8-34.1,0.4l35.5-10.1
				C4250.8,3964.4,4252.3,3967.7,4243.3,3970.3L4243.3,3970.3z M4271.3,3943.8c-5.2-3.7-5.9-6.9,2.9-9.4c9.8-2.8,21.1-2.7,31.9-0.5
				L4271.3,3943.8z"/>
			<path class="st64" d="M4545.4,3910.6v31.4c0,42.5-128.9,76.9-288,76.9s-288-34.4-288-76.9v-31.4H4545.4z"/>
			<path class="st65" d="M4403.8,3933h-28.6v79.1c10-1.2,19.4-2.6,28.6-4.1V3933z"/>
			<path class="st65" d="M4111.4,3933.3h28.6v79.1c-10-1.2-19.4-2.6-28.6-4.1V3933.3z"/>
			<path class="st65" d="M4479.1,3991c21.8-7,38.8-15.1,50.2-23.9v-52.9h-50.2V3991z"/>
			<path class="st66" d="M3969.4,3910.6c0,42.5,128.9,76.9,288,76.9c159.1,0,288-34.4,288-76.9s-128.9-76.9-288-76.9
				C4098.3,3833.7,3969.4,3868.2,3969.4,3910.6z"/>
			<path class="st65" d="M4035.7,3909.6c0,31.9,99.3,57.8,221.7,57.8c122.4,0,221.7-25.9,221.7-57.8s-99.3-57.8-221.7-57.8
				C4134.9,3851.9,4035.7,3877.7,4035.7,3909.6z"/>
			<path class="st64" d="M4257.4,3859.9c117.3,0,213,23.8,220.9,53.8c0.4-1.3,0.7-2.6,0.8-4c0-31.9-99.3-57.8-221.7-57.8
				c-122.4,0-221.7,25.9-221.7,57.8c0.1,1.4,0.4,2.7,0.8,4C4044.4,3883.6,4140.1,3859.9,4257.4,3859.9z"/>
			<path class="st64" d="M4355.4,3886.2l20.3-5.8l-16-4.5l-20.3,5.8c-36.6-9.1-81.6-11.3-112.8-2.4c-39.4,11.2-13.2,23,6.8,32.6
				l-39.6,11.3c-5.9-3.3-4.6-6.5,4.8-9.7l-45.9-13c-31.2,9.6-24,21.7,7.3,32.3l-20.5,5.9l16.1,4.5l20.3-5.8
				c41.6,10.8,87.2,10.1,114.3,2.4c38.9-11.1,11.5-22.9-8-32.7l38.9-11.1c4.7,2.7,3.7,5.7-4.6,8.6l46.2,13.1
				C4391.9,3908.1,4387.4,3896.8,4355.4,3886.2z M4243.3,3927.6c-9.2,2.7-22.4,2.8-34.1,0.4l35.5-10.1
				C4250.8,3921.7,4252.3,3925,4243.3,3927.6L4243.3,3927.6z M4271.3,3901.1c-5.2-3.7-5.9-6.9,2.9-9.4c9.8-2.8,21.1-2.7,31.9-0.5
				L4271.3,3901.1z"/>
			<path class="st64" d="M4355.4,3882.6l20.3-5.8l-16-4.5l-20.3,5.8c-36.6-9.1-81.6-11.3-112.8-2.4c-39.4,11.2-13.2,23,6.8,32.6
				l-39.6,11.3c-5.9-3.3-4.6-6.5,4.8-9.7l-45.9-13c-31.2,9.6-24,21.7,7.3,32.4l-20.5,5.9l16.1,4.5l20.3-5.8
				c41.6,10.8,87.2,10.2,114.3,2.4c38.9-11.1,11.5-22.9-8-32.7l38.9-11.1c4.7,2.7,3.7,5.7-4.6,8.6l46.2,13.1
				C4391.9,3904.5,4387.4,3893.2,4355.4,3882.6z M4243.3,3923.9c-9.2,2.6-22.4,2.8-34.1,0.4l35.5-10.1
				C4250.8,3918,4252.3,3921.3,4243.3,3923.9L4243.3,3923.9z M4271.3,3897.5c-5.2-3.7-5.9-6.9,2.9-9.4c9.8-2.8,21.1-2.7,31.9-0.5
				L4271.3,3897.5z"/>
			<path class="st64" d="M4545.4,3864.3v31.4c0,42.4-128.9,76.9-288,76.9s-288-34.4-288-76.9v-31.4L4545.4,3864.3z"/>
			<path class="st65" d="M4403.8,3886.7h-28.6v79.1c10-1.2,19.4-2.6,28.6-4.1V3886.7z"/>
			<path class="st65" d="M4111.4,3887h28.6v79c-10-1.2-19.4-2.6-28.6-4.1V3887z"/>
			<path class="st65" d="M4479.1,3944.7c21.8-7,38.8-15.1,50.2-23.9v-52.9h-50.2V3944.7z"/>
			<path class="st66" d="M3969.4,3864.3c0,42.4,128.9,76.9,288,76.9c159.1,0,288-34.4,288-76.9c0-42.4-128.9-76.9-288-76.9
				C4098.3,3787.4,3969.4,3821.8,3969.4,3864.3z"/>
			<path class="st65" d="M4035.7,3863.3c0,31.9,99.3,57.8,221.7,57.8c122.4,0,221.7-25.9,221.7-57.8c0-31.9-99.3-57.8-221.7-57.8
				C4134.9,3805.5,4035.7,3831.4,4035.7,3863.3z"/>
			<path class="st64" d="M4257.4,3813.5c117.3,0,213,23.7,220.9,53.8c0.4-1.3,0.7-2.6,0.8-4c0-31.9-99.3-57.8-221.7-57.8
				c-122.4,0-221.7,25.9-221.7,57.8c0.1,1.4,0.4,2.7,0.8,4C4044.4,3837.3,4140.1,3813.5,4257.4,3813.5z"/>
			<path class="st64" d="M4355.4,3839.9l20.3-5.8l-16-4.5l-20.3,5.8c-36.6-9.1-81.6-11.3-112.8-2.4c-39.4,11.2-13.2,23,6.8,32.6
				l-39.6,11.3c-5.9-3.3-4.6-6.5,4.8-9.7l-45.9-13c-31.2,9.6-24,21.7,7.3,32.4l-20.5,5.9l16.1,4.5l20.3-5.8
				c41.6,10.8,87.2,10.2,114.3,2.4c38.9-11.1,11.5-22.9-8-32.7l38.9-11.1c4.7,2.7,3.7,5.7-4.6,8.7l46.2,13.1
				C4391.9,3861.8,4387.4,3850.5,4355.4,3839.9z M4243.3,3881.2c-9.2,2.6-22.4,2.8-34.1,0.4l35.5-10.1
				C4250.8,3875.4,4252.3,3878.6,4243.3,3881.2L4243.3,3881.2z M4271.3,3854.8c-5.2-3.7-5.9-6.9,2.9-9.4c9.8-2.8,21.1-2.7,31.9-0.5
				L4271.3,3854.8z"/>
			<path class="st64" d="M4355.4,3836.3l20.3-5.8l-16-4.5l-20.3,5.8c-36.6-9.1-81.6-11.3-112.8-2.4c-39.4,11.2-13.2,23,6.8,32.6
				l-39.6,11.3c-5.9-3.3-4.6-6.5,4.8-9.7l-45.9-13c-31.2,9.6-24,21.7,7.3,32.3l-20.5,5.9l16.1,4.5l20.3-5.8
				c41.6,10.8,87.2,10.2,114.3,2.4c38.9-11.1,11.5-22.9-8-32.7l38.9-11.1c4.7,2.7,3.7,5.7-4.6,8.6l46.2,13.1
				C4391.9,3858.2,4387.4,3846.9,4355.4,3836.3z M4243.3,3877.6c-9.2,2.7-22.4,2.8-34.1,0.4l35.5-10.1
				C4250.8,3871.7,4252.3,3875,4243.3,3877.6L4243.3,3877.6z M4271.3,3851.2c-5.2-3.7-5.9-6.9,2.9-9.4c9.8-2.8,21.1-2.7,31.9-0.5
				L4271.3,3851.2z"/>
			<path class="st64" d="M4545.4,3817.9v31.4c0,42.5-128.9,76.9-288,76.9s-288-34.4-288-76.9v-31.4H4545.4z"/>
			<path class="st65" d="M4403.8,3840.4h-28.6v79.2c10-1.2,19.4-2.6,28.6-4.1V3840.4z"/>
			<path class="st65" d="M4111.4,3840.7h28.6v79c-10-1.2-19.4-2.6-28.6-4.1V3840.7z"/>
			<path class="st65" d="M4479.1,3898.4c21.8-7,38.8-15.1,50.2-23.9v-52.9h-50.2V3898.4z"/>
			<path class="st66" d="M3969.4,3817.9c0,42.5,128.9,76.9,288,76.9c159.1,0,288-34.4,288-76.9s-128.9-76.8-288-76.8
				C4098.3,3741.1,3969.4,3775.5,3969.4,3817.9z"/>
			<path class="st65" d="M4035.7,3817c0,31.9,99.3,57.8,221.7,57.8c122.4,0,221.7-25.9,221.7-57.8s-99.3-57.8-221.7-57.8
				C4134.9,3759.2,4035.7,3785.1,4035.7,3817z"/>
			<path class="st64" d="M4257.4,3767.2c117.3,0,213,23.7,220.9,53.8c0.4-1.3,0.7-2.6,0.8-4c0-31.9-99.3-57.8-221.7-57.8
				c-122.4,0-221.7,25.9-221.7,57.8c0.1,1.4,0.4,2.7,0.8,4C4044.4,3791,4140.1,3767.2,4257.4,3767.2z"/>
			<path class="st64" d="M4355.4,3793.6l20.3-5.8l-16-4.5l-20.3,5.8c-36.6-9.1-81.6-11.3-112.8-2.4c-39.4,11.2-13.2,23,6.8,32.6
				l-39.6,11.3c-5.9-3.3-4.6-6.5,4.8-9.7l-45.9-13c-31.2,9.6-24,21.7,7.3,32.3l-20.5,5.9l16.1,4.5l20.3-5.8
				c41.6,10.8,87.2,10.2,114.3,2.4c38.9-11.1,11.5-22.9-8-32.7l38.9-11.1c4.7,2.7,3.7,5.7-4.6,8.7l46.2,13.1
				C4391.9,3815.5,4387.4,3804.2,4355.4,3793.6z M4243.3,3834.9c-9.2,2.6-22.4,2.8-34.1,0.4l35.5-10.1
				C4250.8,3829,4252.3,3832.3,4243.3,3834.9L4243.3,3834.9z M4271.3,3808.5c-5.2-3.7-5.9-6.9,2.9-9.4c9.8-2.8,21.1-2.7,31.9-0.5
				L4271.3,3808.5z"/>
			<path class="st66" d="M4355.4,3789.9l20.3-5.8l-16-4.5l-20.3,5.8c-36.6-9.1-81.6-11.3-112.8-2.4c-39.4,11.2-13.2,23,6.8,32.6
				l-39.6,11.3c-5.9-3.3-4.6-6.5,4.8-9.7l-45.9-13c-31.2,9.6-24,21.7,7.3,32.3l-20.5,5.9l16.1,4.5l20.3-5.8
				c41.6,10.8,87.2,10.1,114.3,2.4c38.9-11.1,11.5-22.9-8-32.8l38.9-11.1c4.7,2.7,3.7,5.7-4.6,8.7l46.2,13.1
				C4391.9,3811.8,4387.4,3800.5,4355.4,3789.9z M4243.3,3831.3c-9.2,2.6-22.4,2.8-34.1,0.4l35.5-10.1
				C4250.8,3825.4,4252.3,3828.7,4243.3,3831.3L4243.3,3831.3z M4271.3,3804.9c-5.2-3.7-5.9-6.9,2.9-9.4c9.8-2.8,21.1-2.7,31.9-0.5
				L4271.3,3804.9z"/>
			<path class="st48" d="M3769.7,3986.6c-8.3,8-17.8,16.6-24.6,20.4c-0.7,0.4-1.4,0.7-2.1,1.1c-3.7,29.8,52.3,10.8,78.3,0.4
				c-0.2-3.9,1-7.7,0.3-11.2c-0.2-1.3-0.5-2.6-0.7-3.8C3799.8,4002.6,3781.6,3995,3769.7,3986.6z"/>
			<path class="st54" d="M3813.2,3978.9l-26.8-9.4c0,0-7.5,8.2-16.7,17.1c12,8.5,30.1,16,51.3,7c-2.7-14.3-2.7-14.4-2.7-14.4
				L3813.2,3978.9z"/>
			
				<linearGradient id="SVGID_17_" gradientUnits="userSpaceOnUse" x1="3807.4338" y1="1034.8894" x2="3645.427" y2="814.2798" gradientTransform="matrix(1 0 0 -1 0 5000)">
				<stop  offset="0" style="stop-color:#48407C"/>
				<stop  offset="1" style="stop-color:#65C8D0"/>
			</linearGradient>
			<path class="st67" d="M3824,4052.2c-1.7,7-3.4,9.8-4.7,10.9s-2.2,0.3-2.2,0.3h-153.7c0,0-2-22.6,14.4-32.9
				c15.6-9.8,49.8-14.8,65.3-22.4c-3.7,29.8,52.3,10.8,78.3,0.4C3822.2,4023.9,3826.7,4040.8,3824,4052.2z"/>
			<path class="st68" d="M3819.9,4063.6v8.9h-156.7l0.1-9.1h153.7c0,0,0.9,0.8,2.2-0.3L3819.9,4063.6z"/>
			<path class="st69" d="M4182.1,3605.5c-1.3,5.3-2.7,10.3-4.2,15.2c-6.3,20.7-13.8,38-22.4,52.2c-10.1-2.6-20.3-5.2-30.7-7.7
				l-2.8,12.2l-42.7,1l-143.9,3.3l-31.5-28.6c-2.4,4.4-4.3,9-5.9,13.7c-44-29.8-71.2-55.4-59.4-38.2c1.2,1.6,2.2,3.3,2.9,5.2
				c11.7,39.6-14.7,295.4-20,345.7c-0.6,5.5-0.9,8.6-0.9,8.6l-47.1-5.1c2.1-5.6,3.1-11.6,2.8-17.5c-1.5-18.2-4.9-57.2-23.8-203.6
				c-21.9-170.7-1.5-221.5,11.4-236.4c4.9-5.7,8.7-6.2,8.7-6.2c25.9-2.1,56.1-0.5,88.2,3.5h0.1c6.3,0.8,12.7,1.7,19.2,2.6
				c7.6,1.1,15.3,2.4,23.1,3.8c3.4,0.6,6.8,1.2,10.1,1.8c11.6,2.2,23.3,4.5,34.9,7.1c0.5,0.1,1,0.2,1.5,0.3
				c10.7,2.3,21.4,4.8,32,7.3l8.1,2l0,0c37.1,9.2,72.5,19.3,102.6,28.4l0,0c7.5,2.3,14.7,4.5,21.5,6.7
				C4155.1,3595.7,4182.1,3605.5,4182.1,3605.5z"/>
			<g>
				<defs>
					<path id="SVGID_18_" d="M4182.1,3605.5c-1.3,5.3-2.7,10.3-4.2,15.2c-6.3,20.7-13.8,38-22.4,52.2c-10.1-2.6-20.3-5.2-30.7-7.7
						l-2.8,12.2l-42.7,1l-143.9,3.3l-31.5-28.6c-2.4,4.4-4.3,9-5.9,13.7c-44-29.8-71.2-55.4-59.4-38.2c1.2,1.6,2.2,3.3,2.9,5.2
						c11.7,39.6-14.7,295.4-20,345.7c-0.6,5.5-0.9,8.6-0.9,8.6l-47.1-5.1c2.1-5.6,3.1-11.6,2.8-17.5c-1.5-18.2-4.9-57.2-23.8-203.6
						c-21.9-170.7-1.5-221.5,11.4-236.4c4.9-5.7,8.7-6.2,8.7-6.2c25.9-2.1,56.1-0.5,88.2,3.5h0.1c6.3,0.8,12.7,1.7,19.2,2.6
						c7.6,1.1,15.3,2.4,23.1,3.8c3.4,0.6,6.8,1.2,10.1,1.8c11.6,2.2,23.3,4.5,34.9,7.1c0.5,0.1,1,0.2,1.5,0.3
						c10.7,2.3,21.4,4.8,32,7.3l8.1,2l0,0c37.1,9.2,72.5,19.3,102.6,28.4l0,0c7.5,2.3,14.7,4.5,21.5,6.7
						C4155.1,3595.7,4182.1,3605.5,4182.1,3605.5z"/>
				</defs>
				<clipPath id="SVGID_19_">
					<use xlink:href="#SVGID_18_"  style="overflow:visible;"/>
				</clipPath>
				<g class="st70">
					<path class="st51" d="M3795.3,3594.3c0,0,40.2,280.7,7.1,398.2s137.2,15.7,144.8-23.1c7.7-38.8,49.6-126.4,76-159
						s41.4-33.2,71.6-52s14.7-36.5,44.9-56.8s66.9-30.6,45.8-73.5c-21.2-42.9-25.9-58.3-49.2-61.3s-27.8-33.9-64-5.6
						s-28.8,33.5-58,50.6c-29.2,17.2-46.1,47.7-96.7,27.6c-50.6-20.1-72.8-23.3-78.2-27.6s-44.1-20.1-44.1-20.1"/>
				</g>
			</g>
			<path class="st48" d="M3920.9,4120.1c-3.8,13.8-9.1,27.2-16,39.8l-0.3,10.5c16.1-17.4,32.2,6.2,32.2,6.2
				c12.3-4.3,23.7-25.5,30-39.2l0,0c-2.4-6.6-4.3-12.2-5.7-16.9C3943.1,4129.5,3930.1,4126.8,3920.9,4120.1z"/>
			<path class="st54" d="M3961.1,4120.4c-1.5-5.1-2.4-9.1-3.1-12.3c-1.6-8.6-0.6-10.9-0.6-10.9l-6.6,3.8H3925c0,0-0.3,2.6-1.2,6.9
				c0,0,0,0.1,0,0.1v0.1c-0.6,3.2-1.6,7.3-2.9,12C3930.1,4126.8,3943.1,4129.5,3961.1,4120.4z"/>
			
				<linearGradient id="SVGID_20_" gradientUnits="userSpaceOnUse" x1="3989.1597" y1="902.2044" x2="3827.3606" y2="681.8945" gradientTransform="matrix(1 0 0 -1 0 5000)">
				<stop  offset="0" style="stop-color:#48407C"/>
				<stop  offset="1" style="stop-color:#65C8D0"/>
			</linearGradient>
			<path class="st71" d="M3976.8,4179.9c-5,6.8-11.4,12.5-18.7,16.8c-14.4,8.3-6.6,7.4-26.5,36.9c-15.3,22.7-58.9,3.4-78-6.6
				c-0.5-7.4,1.2-16.1,13.7-24.6c16.8-11.4,28.9-27,37.5-42.5l-0.3,10.5c16.1-17.4,32.2,6.2,32.2,6.2c12.3-4.3,23.7-25.5,30-39.2
				c0.7,1.8,1.4,3.6,2.1,5.6C3975,4158.7,3977.3,4170.7,3976.8,4179.9z"/>
			<path class="st68" d="M3976.8,4179.9c-0.7,13.2-7.1,20.9-16.1,26.3c-15.4,9.3-11,28.9-30.2,44.2c-19.2,15.3-75.2-4.9-75.8-13.6
				c-0.2-2.8-0.9-6.2-1.1-9.8c19.1,10,62.7,29.3,78,6.6c19.9-29.5,12.1-28.6,26.5-36.9C3965.4,4192.4,3971.8,4186.7,3976.8,4179.9z"
				/>
			<polygon class="st72" points="3749.4,3338.9 3784.5,3371.5 3744.1,3371.5 3740.7,3345.2 			"/>
			<path class="st73" d="M4318,3090.1l-25,63.7l-3.5,2.5l-7.7,5.6l-3.8,2.7c0,0-1.3-15.4-11.2-25.4l0.4-4c0,0,12.6,0.4,20-8.9
				c3.2-4.1,5.4-10,5.1-18.5c0-0.3,0-0.5,0-0.8c1.9-0.4,3.7-1.1,5.4-1.9C4305.1,3101.1,4311.9,3096,4318,3090.1z"/>
			<path class="st74" d="M4333.7,3697.3c-1.4,14-3.6,19.2-6.3,28.4c0,0-77.9-28.4-171.8-52.8c-10.1-2.6-20.3-5.2-30.7-7.7l-2.8,12.2
				l-42.7,1l4.3-12.2l3.4-9.5l6.7-18.6l4.3-12l15.2-42.6c0,0,0.2-0.3,0.6-0.9c41.4,13,68.4,22.9,68.4,22.9
				c-1.3,5.3-2.7,10.3-4.2,15.2c59.9-5.5,124.5-15.1,165.8-31.9C4335.2,3639.5,4335.4,3680.6,4333.7,3697.3z"/>
			<path class="st75" d="M4124.9,3665.2l-2.8,12.2l-42.7,1l-143.9,3.3l-31.5-28.6c0-0.1,0.1-0.2,0.2-0.3c1.7-3.1,3.7-5.9,6.1-8.5
				c4.3-4.4,7.5-4.9,7.5-4.9c1.7-0.1,3.4-0.3,5.2-0.4c3.2-0.2,6.4-0.3,9.7-0.4c3.3-0.1,7-0.1,10.5-0.1c15.4,0,32,1.1,49.1,2.9
				c31.8,3.5,63.5,8.7,94.8,15.5C4099.7,3659.3,4112.3,3662.2,4124.9,3665.2z"/>
			<path class="st74" d="M4388.2,3257.5c-27.7-4-53.6,7.1-63.6,30.6c-0.2,0.5-0.4,0.9-0.5,1.4c-0.2,0.4-0.3,0.7-0.4,1.1
				c-0.5,1.3-0.9,2.7-1.3,4.1c-7.6,28-17.9,233.8-34.3,235.6c-11.2,1.2-90.2,23.2-166.7,39.7c9.3-16.8,24.3-47.8,32-85.2
				c5.5-26.3,7.3-55.7,1.2-85.6c-19-92-45.4-147.6,7.3-224c8.4,20.8,22.6,34.4,46.5,24c1-0.4,2.1-0.9,3.1-1.4
				c11.9-7.1,21.2-13,28.5-18c3.1,19.3-4.2,29.7-4.2,29.7c27,40.4,65.6-2.3,65.6-2.3c-3.5-3.6-6.7-7.6-9.4-11.8
				c0.9-0.3,1.8-0.3,2.7-0.1C4294.7,3195.2,4360.8,3227.6,4388.2,3257.5z"/>
			<path class="st76" d="M4154.5,3399.2c6.1,29.9,4.3,59.3-1.2,85.6c-55,37.3-125.2,53.4-166.7,60l-5,0.8
				c-18.7,2.8-30.4,3.5-30.4,3.5l-2.9-10.5l-0.2-0.7l-3.3-11.9l-3.8-13.5l-1.6-5.9c73.4-23.9,149.2-49,175.7-72.6
				c12.2-10.9-1.7-199.3,5.8-227.2c5.2-19.5,20.3-31.9,39.2-36.2c0.6,1.6,1.1,3.1,1.8,4.7C4109,3251.5,4135.5,3307.1,4154.5,3399.2z
				"/>
			<g>
				<defs>
					<path id="SVGID_21_" d="M4154.5,3399.2c6.1,29.9,4.3,59.3-1.2,85.6c-55,37.3-125.2,53.4-166.7,60l-5,0.8
						c-18.7,2.8-30.4,3.5-30.4,3.5l-2.9-10.5l-0.2-0.7l-3.3-11.9l-3.8-13.5l-1.6-5.9c73.4-23.9,149.2-49,175.7-72.6
						c12.2-10.9-1.7-199.3,5.8-227.2c5.2-19.5,20.3-31.9,39.2-36.2c0.6,1.6,1.1,3.1,1.8,4.7
						C4109,3251.5,4135.5,3307.1,4154.5,3399.2z"/>
				</defs>
				<clipPath id="SVGID_22_">
					<use xlink:href="#SVGID_21_"  style="overflow:visible;"/>
				</clipPath>
				<g class="st77">
					<path class="st51" d="M3929.4,3537.9c0,0,200.3-19.1,212.6-78.9c12.4-59.9,5.2-99.2,5.2-99.2s35.4,0.1,47.5,24.8
						c12.1,24.7,29.4,34.7,29.4,34.7l-16.4,41.5c0,0-6,13.7-11.2,24.9c-5.2,11.1,0.6,18.7-19.6,32.5c-20.2,13.8-22.7,21-46.9,29.8
						c-24.2,8.9-21.6,8.9-45.8,17.4c-24.2,8.6-30.2,13-50.1,17.3c-19.9,4.2,12.1-10.1-37.9,0.9"/>
				</g>
			</g>
			<polygon class="st78" points="4124.8,3665.2 4122,3677.3 4079.3,3678.3 3935.3,3681.6 3903.8,3653 3769.6,3531.2 3770.2,3531.2 
				3770.2,3531.2 3786.5,3531.8 3772.5,3519.1 3860.7,3522.6 3860.8,3522.6 3882.4,3523.4 3902.2,3524.2 3912.1,3524.6 
				3944.8,3525.9 3965.9,3526.8 3975,3534.7 3986.6,3544.8 3989.7,3547.5 3989.7,3547.5 4033.5,3585.7 4047.6,3597.9 4065.4,3613.5 
				4080.7,3626.8 4093.7,3638.1 			"/>
			<polygon class="st79" points="3965.9,3526.8 3772.5,3519.1 3938.1,3669.4 4124.8,3665.2 			"/>
			<polyline class="st78" points="3802.4,3532.2 3926.2,3539.6 4048.2,3653 3936.8,3653 			"/>
			<path class="st48" d="M4035.5,3595.4c0,0-45.6-8.8-64.8,0c-19.2,8.8-29.5,24.3-32.2,39.2c-2.7,14.9,10.7,31.6,51.8,4.6
				c41-27,60.2-15.8,67.9-16.7c7.7-0.9-1.5-19.7-1.5-19.7L4035.5,3595.4z"/>
			<path class="st48" d="M3946.8,3512.4c0,0-46.4-1.1-63.9,10.7c-17.4,11.8-25,28.9-25.2,44c-0.1,15.1,15.9,29.4,51.8-4
				c35.9-33.5,56.7-25.5,64.1-27.7c7.4-2.1-4.8-19.2-4.8-19.2L3946.8,3512.4z"/>
			<polygon class="st80" points="3938.1,3669.5 3929.4,3675.7 3904,3652.6 3770.2,3531.2 3770.2,3531.2 3763.8,3525.3 
				3763.8,3525.3 3750.2,3419.3 3744.1,3371.5 3740.7,3345.2 3749.4,3338.9 3784.5,3371.5 3835.9,3419.3 3904.6,3483 3910.3,3514.6 
				3912.1,3524.6 3913.2,3530.8 3917.7,3555.9 3932.5,3638.4 			"/>
			<polygon class="st81" points="3929.4,3675.7 3904,3652.6 3770.2,3531.2 3770.2,3531.2 3763.8,3525.3 3763.8,3525.3 
				3750.2,3419.3 3744.1,3371.5 3740.7,3345.2 3769.1,3371.5 3820.5,3419.3 3895.9,3489.3 3900.8,3516.3 3902.2,3524.2 3903,3529 
				3909.2,3563.3 3922.8,3638.8 3926.4,3658.8 			"/>
			<path class="st76" d="M4400.6,3402.4c-17.3,143.2-47.4,182.2-47.4,182.2c-3,1.4-6.1,2.8-9.4,4.2l0,0
				c-41.3,16.8-105.9,26.4-165.8,31.9c-28.8,2.6-56.5,4.3-80,5.4c-6,0.3-11.8,0.5-17.2,0.7c-30.6,1.1-50.8,1.2-50.8,1.2l-0.8-4.9
				l-4.9-30.1l-1-6.2c3.3-0.3,6.8-0.7,10.3-1.1c17.6-2.2,37.8-5.6,58.8-9.7l0,0c9.5-1.9,19.3-3.9,29-6l0,0
				c76.6-16.5,155.5-38.6,166.7-39.7c16.4-1.7,26.8-207.6,34.3-235.6c0.4-1.4,0.8-2.8,1.3-4.1c0.1-0.4,0.3-0.7,0.4-1.1
				c0.2-0.5,0.4-0.9,0.5-1.4c9.9-23.5,35.9-34.5,63.6-30.6C4423.9,3278.2,4400.6,3402.4,4400.6,3402.4z"/>
			<g>
				<defs>
					<path id="SVGID_23_" d="M4400.6,3402.4c-17.3,143.2-47.4,182.2-47.4,182.2c-3,1.4-6.1,2.8-9.4,4.2l0,0
						c-41.3,16.8-105.9,26.4-165.8,31.9c-28.8,2.6-56.5,4.3-80,5.4c-6,0.3-11.8,0.5-17.2,0.7c-30.6,1.1-50.8,1.2-50.8,1.2l-0.8-4.9
						l-4.9-30.1l-1-6.2c3.3-0.3,6.8-0.7,10.3-1.1c17.6-2.2,37.8-5.6,58.8-9.7l0,0c9.5-1.9,19.3-3.9,29-6l0,0
						c76.6-16.5,155.5-38.6,166.7-39.7c16.4-1.7,26.8-207.6,34.3-235.6c0.4-1.4,0.8-2.8,1.3-4.1c0.1-0.4,0.3-0.7,0.4-1.1
						c0.2-0.5,0.4-0.9,0.5-1.4c9.9-23.5,35.9-34.5,63.6-30.6C4423.9,3278.2,4400.6,3402.4,4400.6,3402.4z"/>
				</defs>
				<clipPath id="SVGID_24_">
					<use xlink:href="#SVGID_23_"  style="overflow:visible;"/>
				</clipPath>
				<g class="st82">
					<path class="st30" d="M4341.4,3237.1c-3.6,3.5-5.3,39.9,2.3,57.5c11.3,26.2,5.7,234.7-51.3,254.4
						c-57,19.7-258.5,75.5-292.8,51.2"/>
				</g>
			</g>
			<path class="st30" d="M4148.6,3858c0,0-51.3,81.2-181.8,22.6l-4.4-135.9l14.4-5.1"/>
			<path class="st69" d="M4155.5,3672.9c-10.1-2.6-20.3-5.2-30.7-7.7l-2.8,12.2l-42.7,1l-143.9,3.3l-31.5-28.6
				c-2.4,4.4-4.3,9-5.9,13.7c-9.8,29.4-16.5,90-0.4,215.2c26.2,203.3,26.5,224,26.1,226.1c0-0.1,0-0.2,0.1-0.3l0,0l34.2,0.5h7.7
				c0,0,35.7-310.9,20.9-354.3c-1.2-3.7-2.4-2-0.6-2.1c12.5-0.7,12.2,4.3,54.9,33.5c30.6,21,69.9,44.5,109.8,56.8
				c61.9,19.2,125.6,11.8,162-72.6l0,0c6-14.2,10.9-28.8,14.6-43.8C4327.3,3725.7,4249.4,3697.3,4155.5,3672.9z"/>
			<g>
				<defs>
					<path id="SVGID_25_" d="M4155.5,3672.9c-10.1-2.6-20.3-5.2-30.7-7.7l-2.8,12.2l-42.7,1l-143.9,3.3l-31.5-28.6
						c-2.4,4.4-4.3,9-5.9,13.7c-9.8,29.4-16.5,90-0.4,215.2c26.2,203.3,26.5,224,26.1,226.1c0-0.1,0-0.2,0.1-0.3l0,0l34.2,0.5h7.7
						c0,0,35.7-310.9,20.9-354.3c-1.2-3.7-2.4-2-0.6-2.1c12.5-0.7,12.2,4.3,54.9,33.5c30.6,21,69.9,44.5,109.8,56.8
						c61.9,19.2,125.6,11.8,162-72.6l0,0c6-14.2,10.9-28.8,14.6-43.8C4327.3,3725.7,4249.4,3697.3,4155.5,3672.9z"/>
				</defs>
				<clipPath id="SVGID_26_">
					<use xlink:href="#SVGID_25_"  style="overflow:visible;"/>
				</clipPath>
				<g class="st83">
					<path class="st51" d="M4381.3,3707.7l-84.1-6.2c0,0,18,66.9-34,92c-52,25.1-140.8,4.3-165.3-2.9c-24.5-7.2-64-29.6-74.8-37.6
						s-38.3-8.3-38.3-8.3l-15.7,331.7c0,0,43,91.7,125.6,71.9s154-12.9,170.2-62.1s16.1-68.3,35.7-115.3
						c19.6-47.1,58.3-60.3,68.3-126.9c10-66.6,12.3-106.1,12.3-118.4"/>
				</g>
			</g>
			<path class="st48" d="M4283.2,3175.5c-23.1,2.1-36.2,10.4-42.6,15.9c-0.5,11.8-4.9,18-4.9,18c27,40.4,65.6-2.3,65.6-2.3
				c-3.5-3.6-6.7-7.6-9.4-11.8C4287.9,3189.2,4285,3182.5,4283.2,3175.5z"/>
			<path class="st54" d="M4281.8,3162l-3.8,2.7c0,0-1.3-15.4-11.2-25.4l-1.9,19.8c0,0-3,4.9-18.7,16.3c-1.9,1.3-3.9,2.8-6.1,4.4
				c0.6,3.8,0.9,7.7,0.7,11.6c6.4-5.5,19.5-13.8,42.6-15.9C4282.2,3171.1,4281.7,3166.5,4281.8,3162z"/>
			<path class="st48" d="M4302.8,3083.6c-8.5-24.3-2.2-18.4-16.6-33.4c-14.4-15-6.6-20.3-37.4-27.8c-30.8-7.5-28-19.6-52.8-2.4
				c-24.8,17.2-28.3,26.2-28.3,30.9l-16.3,8.4c1.2,3.3-1.7,3.5-1.8,5.6h-2.3l2.5,23.7c0,0-1.5,48.1,10.2,81.9
				c0.6,1.6,1.1,3.1,1.8,4.7c8.4,20.8,22.6,34.4,46.5,24c1-0.4,2.1-0.9,3.1-1.4c11.9-7.1,21.2-13,28.5-18c2.3-1.5,4.3-3,6.1-4.4
				c15.8-11.4,18.7-16.3,18.7-16.3l1.9-19.8l0.4-4c0,0,12.6,0.4,20-8.9c3.2-4.1,5.4-10,5.1-18.5c0-0.3,0-0.5,0-0.8
				c-0.1-1-0.1-2-0.2-2.9C4301.5,3095.4,4310.8,3106.5,4302.8,3083.6z"/>
			<path class="st73" d="M4254.8,3097.9c0,0-17-4.9-18.5-30.2s-4.4-26.2-17.3-12.6c-13,13.6-101.6,54.1-113.1-63
				c10.2,4,35.4-1,58.8-13.4c12.2-6.4,63.9-47.5,100.8,3.5c17.3-2.9,41.9,15.9,49.8,61.5s-4.4,108.1-18.2,114.4
				c-8.9,4-13.5-6.7-17.5-28.4c-1.8-11.3,22.9-32.1-4.6-61.1C4263.7,3059.5,4241.2,3074.4,4254.8,3097.9z"/>
		</g>
	</g>
</g>
</svg>
