<?xml version="1.0" encoding="utf-8"?>
<!-- Generator: Adobe Illustrator 24.1.0, SVG Export Plug-In . SVG Version: 6.00 Build 0)  -->
<svg version="1.1" id="Capa_1" xmlns="http://www.w3.org/2000/svg" xmlns:xlink="http://www.w3.org/1999/xlink" x="0px" y="0px"
	 viewBox="0 0 5000 5000" style="enable-background:new 0 0 5000 5000;" xml:space="preserve">
<style type="text/css">
	.st0{fill:#EBF1FD;}
	.st1{fill:#AA80AA;}
	.st2{fill:none;}
	.st3{fill:#718BC6;}
	.st4{fill:#CCDEFF;}
	.st5{fill:#6798D3;}
	.st6{fill:url(#SVGID_1_);}
	.st7{fill:url(#SVGID_2_);}
	.st8{fill:#4D6DAA;}
	.st9{fill:#90BDF4;}
	.st10{clip-path:url(#SVGID_4_);}
	.st11{opacity:0.15;}
	.st12{fill:#F2642C;}
	.st13{fill:#D15124;}
	.st14{fill:#F58446;}
	.st15{fill:#772815;}
	.st16{fill:url(#SVGID_5_);}
	.st17{fill:#293E81;}
	.st18{fill:#D3DFF4;}
	.st19{fill:url(#SVGID_6_);}
	.st20{fill:none;stroke:#F58446;stroke-width:6;stroke-linecap:round;stroke-miterlimit:10;}
	.st21{fill:none;stroke:#E6EFFF;stroke-width:15;stroke-miterlimit:10;}
	.st22{fill:url(#SVGID_7_);}
	.st23{fill:url(#SVGID_8_);}
	.st24{fill:url(#SVGID_9_);}
	.st25{fill:url(#SVGID_10_);}
	.st26{opacity:0.7;}
	.st27{fill-rule:evenodd;clip-rule:evenodd;fill:#F15A57;}
	.st28{fill-rule:evenodd;clip-rule:evenodd;fill:#AAE3FE;}
	.st29{fill-rule:evenodd;clip-rule:evenodd;fill:#FE8B8B;}
	.st30{fill-rule:evenodd;clip-rule:evenodd;fill:#4BA2CA;}
	.st31{fill-rule:evenodd;clip-rule:evenodd;fill:#91D2FB;}
	.st32{fill-rule:evenodd;clip-rule:evenodd;fill:#0668A4;}
	.st33{fill-rule:evenodd;clip-rule:evenodd;fill:#0184BD;}
	.st34{fill-rule:evenodd;clip-rule:evenodd;fill:#67BCE4;}
	.st35{fill-rule:evenodd;clip-rule:evenodd;fill:#69BCE5;}
	.st36{fill-rule:evenodd;clip-rule:evenodd;fill:#68BCE5;}
	.st37{fill-rule:evenodd;clip-rule:evenodd;fill:#68BCE4;}
	.st38{fill-rule:evenodd;clip-rule:evenodd;fill:#71BFD8;}
	.st39{fill-rule:evenodd;clip-rule:evenodd;fill:#5AA3C3;}
	.st40{fill-rule:evenodd;clip-rule:evenodd;fill:#FEEBE3;}
	.st41{fill-rule:evenodd;clip-rule:evenodd;fill:#58A7E1;}
	.st42{fill-rule:evenodd;clip-rule:evenodd;fill:#4FA1CA;}
	.st43{fill-rule:evenodd;clip-rule:evenodd;fill:#C7ECFE;}
	.st44{fill-rule:evenodd;clip-rule:evenodd;fill:#57A8E1;}
	.st45{fill-rule:evenodd;clip-rule:evenodd;fill:#58A7E2;}
	.st46{fill-rule:evenodd;clip-rule:evenodd;fill:#4DA3C8;}
	.st47{fill-rule:evenodd;clip-rule:evenodd;fill:#2F80B7;}
	.st48{fill-rule:evenodd;clip-rule:evenodd;fill:#C3ECFD;}
	.st49{fill-rule:evenodd;clip-rule:evenodd;fill:#C6EDFB;}
	.st50{fill-rule:evenodd;clip-rule:evenodd;fill:#C4ECFC;}
	.st51{fill-rule:evenodd;clip-rule:evenodd;fill:#E2F5F6;}
	.st52{fill-rule:evenodd;clip-rule:evenodd;fill:#F1734A;}
	.st53{fill-rule:evenodd;clip-rule:evenodd;fill:#FD984F;}
	.st54{fill-rule:evenodd;clip-rule:evenodd;fill:#72CDF0;}
	.st55{fill-rule:evenodd;clip-rule:evenodd;fill:#6ACBF0;}
	.st56{fill-rule:evenodd;clip-rule:evenodd;fill:#73C7EC;}
	.st57{fill-rule:evenodd;clip-rule:evenodd;fill:#9CADB4;}
	.st58{fill-rule:evenodd;clip-rule:evenodd;fill:#9FB6B2;}
	.st59{fill-rule:evenodd;clip-rule:evenodd;fill:#A9E3FD;}
	.st60{fill-rule:evenodd;clip-rule:evenodd;fill:#FC8B8B;}
	.st61{fill-rule:evenodd;clip-rule:evenodd;fill:#2E81B6;}
	.st62{fill-rule:evenodd;clip-rule:evenodd;fill:#5FCBF5;}
	.st63{fill-rule:evenodd;clip-rule:evenodd;fill:#5DCBF6;}
	.st64{fill-rule:evenodd;clip-rule:evenodd;fill:#FEE8E2;}
	.st65{fill:#D4EAFF;}
	.st66{fill-rule:evenodd;clip-rule:evenodd;fill:#FFFFFF;}
	.st67{fill:url(#SVGID_11_);}
	.st68{fill:url(#SVGID_12_);}
	.st69{fill:#95BAEF;}
	.st70{fill:url(#SVGID_13_);}
	.st71{fill:url(#SVGID_14_);}
	.st72{opacity:0.7;fill:#D4EAFF;enable-background:new    ;}
	.st73{fill:url(#SVGID_15_);}
	.st74{fill:url(#SVGID_16_);}
	.st75{fill:#FFFFFF;}
	.st76{fill:#FFD3C7;}
	.st77{fill:#2B092A;}
	.st78{fill:#B0CDF7;}
	.st79{fill-rule:evenodd;clip-rule:evenodd;fill:#F58446;}
	.st80{fill:#440D40;}
	.st81{clip-path:url(#SVGID_18_);}
	.st82{fill:url(#SVGID_19_);}
	.st83{clip-path:url(#SVGID_21_);}
	.st84{opacity:0.15;enable-background:new    ;}
	.st85{fill:#FFB7AB;}
	.st86{fill:#5B0E5B;}
	.st87{fill:#CEDDF4;}
	.st88{fill:#D9E4F4;}
	.st89{fill:#C6D2E5;}
	.st90{fill:#D3DEEF;}
	.st91{fill:#DFE7F4;}
	.st92{fill:#BACDF7;}
	.st93{fill:#9BB8EA;}
</style>
<g>
	<g id="Layer_2">
		<g id="Layer_1-2">
			<path class="st0" d="M4752.4,2282.2c-107.2-205.5-312.7-446.7-339.5-679c-26.8-259.1,169.7-491.4,8.9-741.5
				c-134.1-196.5-446.7-285.9-661.1-312.7c-259.1-26.8-455.7-89.3-634.3-294.8c-169.7-214.4-357.4-277-616.5-142.9
				c-241.2,116.1-277,375.2-446.7,553.9c-205.5,214.4-437.8,89.3-652.2-26.8c-74.7-37.4-159.2-57.3-240.6-55.8
				c-146-25.8-362.8,94.2-438.5,207.7c-125.1,187.6,0,384.2,116.1,545c214.4,321.6-17.9,705.8,80.4,1072.1
				c116.1,473.5,830.9,455.6,1179.3,643.3c125.1,71.5,214.4,142.9,250.2,277c35.7,134,8.9,241.2,89.3,366.3
				c134.1,205.5,491.4,134.1,679,35.7c232.3-125.1,330.6-375.2,571.8-473.5c241.2-107.2,419.9,89.4,661.1,98.3
				C4940,3381.1,4922.2,2639.6,4752.4,2282.2z"/>
			<path class="st1" d="M3662.1,3325.5c-41.7-24-119.5-18.1-176.7,13.5c-63.3,35-86,83-53.7,115.6c5.6,5.6,3.4,9.7-4.8,16.1
				c-94.5,74.5-188.6,149.2-283.3,223.6c-5.5,4.3-15,8.6-22.7,10.2c-51.4,10.7-102.9,20.7-154.4,30.9c-4.3,0.8-8.7,1.2-13.5,1.8
				c1-1.7,1.2-2.5,1.9-3.1c24-19.1,48-38.2,72-57.3c17.2-13.7,17.5-22.5,1.1-29.5l-76.6-29.5c-1.3-0.4-2.7-0.8-4-1.3
				c-6.2-2.5-12.5-4.9-18.8-7.4l-978.3-376.3c-17-6.3-32.6-3.4-49.2,9.7c-21.3,16.7-42.3,33.5-63.6,50.3c-4.3,3.3-8.9,6.6-14.5,10.7
				c-1.1-2.5-1.8-3.3-1.9-4.3c-0.5-32.3-1.2-64.5-0.9-96.9c0-3.9,4.6-9.4,9.4-13.2c93-74.1,186.6-148,279.6-222.1
				c9.8-7.9,17.1-11,31.5-9.8c59.8,4.8,130.9-21.3,168-60.6c37-39.3,30.2-81.2-16.6-99.1c-48.5-18.6-120.3-7.8-177,26.6
				c-52.3,31.7-71.3,77.8-42.7,107c6.4,6.5,4.9,10.9-5.1,18.7c-98.4,77.4-196.1,155.1-294.3,232.6c-10.3,8.1-15.1,15.5-14.9,24.2
				c1.1,46.1,1.9,92.2,1.7,138.5c0,5.2-4.5,12.5-10.7,17.4c-55.5,44.6-111.7,88.9-167.8,133.2c-4,3.1-8.5,6.1-13.7,9.8
				c-20.6-7.9-39.3-15.9-59.5-22.6c-11.6-3.8-16-9.8-17.7-18.2c-11-54.5-22.1-109-34.4-163.3c-2.5-10.7,0.1-17.3,19.3-27.1
				c58.9-29.8,82.9-75.7,60.1-108.8c-21.6-31.3-84.9-40.6-150.1-22.2c-63.1,17.8-112.8,60.6-114.9,99c-2.2,39.1,43,65,107.3,60.3
				c12.6-0.9,15.7,1.6,17,8.2c12.1,60.3,25,120.2,37,180.5c1.9,9.6,8,16,20.5,20.4c24.6,8.6,48.1,18.2,72.8,27.7
				c-43.3,34.3-85,67.3-127.3,100.8c-4.3-1.2-8.1-2.1-11.4-3.3c-108-41.5-215.9-83.1-323.7-124.8c-6.1-2.4-10.5-7.3-11.5-12.2
				c-12.5-57.7-24-115.6-36.4-173.3c-1.5-6.9,0.7-10.9,12.7-16.7c82.2-39.9,101.6-107,39.6-134.1c-40.3-17.6-101.4-13.1-156.3,11.5
				c-52.1,23.4-84.1,61.6-80.1,95.7c3.8,32.9,44.6,54,103.3,51.1c15.6-0.8,19.1,2.7,20.7,10.4c12,59.2,24.6,118.2,36.4,177.5
				c1.9,9.8,7.9,16.6,20.7,21.4c109.2,41.5,218.1,83.4,326.7,125.5l15.6,6l-127.8,101.2c-25.3-9.7-49.3-19.9-75.2-28.4
				c-11.4-3.4-23.4-4.4-35.3-3c-108.2,13.9-216.4,28.4-324.8,43.4c-11.5,1.6-15.7,0.1-18.4-5.9c-12-26.6-42.8-40.4-90.5-40.4
				c-70.3,0-145.1,36.3-170.5,81.7c-25.2,45,7.3,83.1,74.3,87.2c67,4.1,144.9-27.9,177-73.6c5.8-8.2,11.8-10.9,24-12.5
				c104.1-13.8,208.3-27.7,312.4-41.9c4-0.5,9-1.2,11.6-0.2c24.2,9,48,18.3,73.1,27.9l-13.7,10.9c-37.7,29.9-75.7,59.8-112.9,89.8
				l0,0l-36.4,29.1l-0.7,0.3c0.1,0,0.1,0.1,0.2,0.1l-17.8,14.3c-2.2,1-4.3,2.3-6.1,3.9c-1.6,1.2-3.3,2.4-5.1,3.3l-83.5,16.6
				c-0.9-0.1-1.8-0.1-2.6-0.2c-0.1,0.3-0.3,0.5-0.4,0.8l-161.1,32.1l0,0c-14.5,2.5-28.1,8.6-39.5,17.8
				c-98,77.6-195.9,155.1-293.8,232.7c-8.5,6.8-14.6,9.3-26.9,8.3c-91.9-7.2-196.7,53.4-194.3,111.9c1.2,32.4,36.3,55.1,87.1,56.6
				c54.5,1.6,110.9-17.2,150.7-50.3c37.7-31.3,46.7-67.4,22.4-92.7c-4.8-4.9-7.1-8.4,2.2-15.8c95-74.8,189.4-149.8,284.5-224.6
				c5.8-4.6,16.2-8.9,24.5-10.6c50.9-10.7,101.8-20.5,152.6-30.6c4.4-0.9,8.8-1.5,17.4-2.8c-26.4,20.9-49.8,39.5-73.3,58.1
				c-23.9,18.9-23.8,26.5,0.3,35.8l255.7,98.3c4.6,1.8,9.2,3.5,14.7,5.6c-4.3,3.8-7.4,6.9-11.1,9.8
				c-89.6,71-179.1,142.1-268.7,213.1c-7.8,6.2-13.9,8.1-24.6,7.3c-64.1-4.6-135.7,21.1-172.7,61.4c-36.4,39.7-28.4,80.8,19.1,98.5
				c49.6,18.4,121.3,7,178.4-28.5c50.6-31.4,68.2-77.4,39.6-106.1c-5.7-5.7-4.8-9.7,4.2-16.8c89.5-70.5,178.8-141.2,267.9-211.9
				c3.7-2.9,7.8-5.5,12.3-8.7l199.3,76.7c-2.8,2.5-4.7,4.6-7.1,6.5c-91.1,72.2-182.3,144.5-273.5,216.8c-7.1,5.6-12.3,6.8-21.4,6.1
				c-54.2-4.3-113.2,12.7-154.6,44.1c-50,37.9-56.4,85.7-14.7,109.4c42.8,24.3,119.2,18.4,178.1-13.7
				c61.6-33.6,85.4-81.8,54.8-113.9c-6.4-6.7-4.2-11.2,5.4-18.8c89.1-70.2,178-140.5,266.7-210.9c3.6-2.9,7.8-5.5,11.6-8.2
				l199.4,76.7c-0.8,1.2-1.7,2.2-2.6,3.2c-93,73.6-185.9,147.3-278.8,220.9c-6.9,5.5-12.3,6-20.1,5.2c-29.7-3-61.2,0.9-93.2,11.9
				c-76.8,26.2-122.5,83.2-98,121.3c26.1,40.6,107.8,47.1,183,14.6c72.6-31.3,105-87.8,70-123.3c-5.5-5.6-3.8-9.5,4.5-16
				c71.3-56.1,142.3-112.3,213-168.6c21.9-17.3,43.7-34.6,67.1-53.2l16.4,6.3c83.1,32,166.2,63.9,249.3,95.9
				c19.2,7.4,34.6,4.2,53.3-10.6c22.1-17.4,44-34.9,66.1-52.2c3-2.3,6.7-4.4,12.9-8.4c0.2,34.1,1,65.9,0.1,98
				c-0.2,5.8-5.1,13.9-11.9,19.4c-92.8,74.2-186.5,148-279.5,222.1c-9.2,7.3-15.9,8.6-27.3,7.7c-62.4-4.7-135.8,22.4-171.7,62.7
				c-35.9,40.4-27,80.6,21.5,97.8c49.5,17.7,121.6,5.8,177.4-29.2c50.2-31.5,67.6-77.4,38.9-106.1c-5.9-6-4-10,4.7-16.8
				c97.8-77.1,195.1-154.5,293-231.6c12.2-9.6,17.6-18.2,17.2-28.3c-1.2-45.3-1.8-90.8-1.6-136.5c0-4.9,3.7-11.8,9.4-16.3
				c56.8-45.5,114.3-90.8,171.7-136.1c3.1-2.5,7-4.7,11.7-7.8c23.5,9,46.4,17.6,68.8,26.7c3.1,1.3,5.3,4,6,7.2
				c12.4,58.7,24.4,117.6,36.9,176.3c1.4,6.7-0.1,10.8-12.5,16.8c-66.7,32.3-94.6,84.1-64.4,117.1c26.9,29.3,90.1,36.2,151.8,16.6
				c64-20.4,109.7-61.8,109.9-99.4c0.2-38.3-43.5-62.4-107.3-58.2c-12.4,0.8-15.6-1.6-16.9-8.3c-10.2-51.7-24-102.3-30.9-154.7
				c-3.8-29.2-20.1-49.2-60.6-59.5c-14.3-3.6-26-9.7-38.2-14.4c43.8-34.7,85.4-67.6,127.8-101.2l11.2,4.3
				c110.9,42.7,221.7,85.5,333.2,127.7c8.9,3.4,22.8,4.6,35.1,3c106.4-13.7,212.9-28.2,319.5-42.6c13.2-1.8,20.8-1.8,25.1,6.8
				c17.5,35.8,78.5,48.4,145.4,31.6c64.8-16.2,117.3-57.8,122.7-97.3s-37.3-67-100.3-64.7c-65.2,2.2-130.7,32.9-160.3,75.8
				c-5,7.4-10.9,8.7-20.5,10c-101.8,13.7-203.7,27.8-305.4,41.1c-11.2,1.5-23.9,0.4-32-2.7c-106.4-40.3-212.1-81.2-317.9-121.9
				c-4.4-1.7-8.3-3.8-12.1-5.6l127.3-100.9c23.5,9,46.5,17.1,67.8,26.4c14.2,6.1,30,7.4,50.9,4.5c104.3-14.5,208.4-28.1,312.6-42.4
				c12.8-1.8,19-1.2,22.1,6.5c14.6,35.5,80.7,49.7,146,32.3c71.7-19.1,124.1-63.7,123-104.7c-0.9-37.6-44.6-60.6-108-56.9
				c-60.2,3.6-122.5,33.3-151.2,72.3c-4.6,6.1-6.9,11.4-21.1,13.3c-104.1,13.5-208.3,27.7-312.4,41.7c-5.2,0.7-11.7,1.8-15,0.6
				c-24.3-8.8-48-18.2-71.9-27.4c1.7-1.9,3.6-3.8,5.5-5.5c59.3-47,118.4-94.1,178.2-140.9c4.7-3.7,13.5-6.9,20.4-8.3
				c77.5-15.7,155-31.3,232.5-46.2c18.8-3.6,32.1-9.8,45.1-20.2c96.7-77.1,194.1-153.9,290.9-230.9c8.8-7,15.2-9.3,27.1-8.2
				c50.9,4.4,110.2-12.9,150.1-42.9C3699,3397.3,3705.4,3350.5,3662.1,3325.5z M2143.1,2851.9c29.5-23.3,76.2-32.2,106.4-20.4
				c29.3,11.4,29.2,39.9-0.3,62.9c-29.2,22.8-77.8,32-107,20.4C2112.7,2902.9,2113.1,2875.6,2143.1,2851.9z M1354.2,3259.9
				c-29.7-11.5-29.5-39.3,0.2-62.7c29.3-23,77.2-32.3,106.7-20.7c29.2,11.5,29.1,39.9-0.3,62.9
				C1431.2,3262.5,1384.1,3271.6,1354.2,3259.9L1354.2,3259.9z M914.8,3292c-29.5-10.9-30.7-39.7-2.8-62.5
				c28.4-23.1,76.9-33.1,107-22.1c30.1,11,31.4,38.6,2.7,62.2C993.8,3292.6,944.5,3302.9,914.8,3292L914.8,3292z M694.1,3846.5
				c-28.4,22.8-77.6,32.7-107,21.6c-28.7-10.8-29.5-39.5-1.9-61.9c29.4-23.8,78.2-33.9,108.2-22.5
				C722.8,3794.9,723.1,3823.2,694.1,3846.5L694.1,3846.5z M379.8,4311.5c28.9,11,28.9,40.4,0.1,63c-29.1,22.8-78,32.5-107.1,21.1
				s-29.2-39.9,0-62.9 M819,4543.3c-29.2,23.1-77.7,32.7-107,21.3c-29.3-11.4-29.7-40-0.6-62.9s78.9-32.8,107.2-21.3
				C848.2,4492.4,848.3,4520.1,819,4543.3L819,4543.3z M1063.5,4637.4c-29,22.8-77.6,32.5-107,21.2c-29.4-11.3-29.3-39.8-0.1-62.8
				c28.7-22.6,76.8-32.5,105.5-21.6C1092.5,4585.7,1093.2,4614,1063.5,4637.4L1063.5,4637.4z M1309,4731.1
				c-28.2,22.8-77.7,32.9-107.3,21.9c-29.2-10.9-30.1-40.3-1.9-62.8c28.6-22.8,78.3-32.9,107.2-21.8
				C1336.7,4679.8,1337.6,4708,1309,4731.1L1309,4731.1z M1738.1,4896.6c-27.8,22.4-77.5,32.8-105.8,22.1
				c-30.6-11.6-31.6-40-2.4-63.4c28.6-22.8,78.5-33,107.2-21.7C1766.5,4845.1,1766.9,4873.3,1738.1,4896.6z M2526.7,4488.9
				c29,11.7,28.5,40-1,63.1c-29,22.7-78.4,32.1-107,20.5c-28.3-11.5-28.4-39.9-0.2-62.2C2448.3,4486.7,2497.4,4477,2526.7,4488.9
				L2526.7,4488.9z M3285.7,4141c29-22.5,79.7-32.5,107.5-21.2c28.7,11.7,28.6,40.5-0.2,63.3c-28.4,22.5-78.3,32.2-107.3,20.9
				C3256.6,4192.6,3256.5,4163.6,3285.7,4141L3285.7,4141z M3185.9,3902.6c29-23.1,77.3-32.9,106.8-21.7
				c29.8,11.4,30.3,39.2,1.2,62.5s-76.7,33-106.5,21.5C3157.3,3953.5,3156.6,3926,3185.9,3902.6L3185.9,3902.6z M2651.4,3922
				l-13.9-5.3l-192.4-74c-4.2-1.8-8.5-3.3-12.9-4.6c-13.3-3.6-30.7,0.4-41.8,9.4c-11.3,9.2-11.8,19.3,0.4,24.3
				c22.7,9.3,46.2,18,69.3,26.9l135.3,52.1l13,5l-127,100.6c-5.2-1.6-10.7-2.9-15.5-4.8c-65-24.9-130-49.9-195-74.9
				c-3.8-1.6-7.8-3-11.8-4c-13.5-2.9-29.3,1.3-40,10.4c-10,8.6-10.7,17.9-1.1,23.1c4,2,8.1,3.7,12.3,5.1
				c64.1,24.7,128.2,49.3,192.3,74l14.6,5.6l-127.8,101.2c-5-1.9-9.9-3.8-14.8-5.7c-65.4-25.1-130.7-50.3-196.1-75.5
				c-9.7-3.8-19.8-6.2-34.4-1.4c-20.7,6.8-30.2,22.7-18.2,30.7c3.7,2.5,8.5,4.2,13.1,5.9c65.4,25.2,130.7,50.3,196.2,75.4
				c3.7,1.4,6.9,3.2,10.8,5L1953,4474.8L915.2,4075.6l314.1-248.7l14.9,5.7c65.4,25.2,130.7,50.3,196.1,75.5c3,1.2,6.1,2.2,9.3,3
				c13.4,3.1,29.2-0.8,40.1-9.8c10-8.2,11.1-18.1,1.4-23.2c-7.5-3.9-16.1-7-24.6-10.3c-60.7-23.4-121.4-46.8-182.2-70.1l-12.3-4.7
				c42.5-33.7,84.2-66.7,127.8-101.2l13.2,5.1c64.1,24.7,128.2,49.3,192.4,74c3.4,1.2,6.6,2.7,10.2,3.9c14.5,4.9,31.9,1.6,44.3-8.2
				c12.4-9.9,12-20-1.9-25.7c-17.4-7.1-35.4-13.6-53.1-20.4c-47.7-18.3-95.3-36.6-143-55l-19.5-7.5l128.1-101.4l14.2,5.4
				c63.7,24.5,127.4,49,191.1,73.5c4.6,1.9,9.4,3.7,14.2,5.1c12.1,3.4,24.8,1.1,37.4-6.8c12-7.6,15.6-17.6,8.1-23.9
				c-3.4-2.9-8.6-4.9-13.6-6.9c-64.9-25.1-129.8-50.1-194.8-75l-13.6-5.2l313.4-248.2l1037.9,399.2L2651.4,3922z M3607.5,3415.9
				c-29.9,23.5-76.4,32.9-106.5,21.4c-29.5-11.3-30-39.8-1-62.7c29-22.9,77.4-32.6,106.8-21.1
				C3636.8,3365.2,3637.2,3392.5,3607.5,3415.9L3607.5,3415.9z"/>
			<line class="st2" x1="1176.6" y1="4324.2" x2="1176.6" y2="4297.4"/>
			<path class="st3" d="M2092,2891.9c39,15.6,104.2,3.2,143.4-27.3c39.5-30.7,39.7-68.9,0.4-84.3c-40.5-15.8-103-3.8-142.6,27.4
				C2052.9,2839.5,2052.4,2876.1,2092,2891.9z"/>
			<polygon class="st4" points="764.4,3209.7 764.4,3375.2 763.9,3375.8 147,3148.5 145.5,3148.8 145.5,2982.5 763.9,3210.3 			"/>
			<polygon class="st5" points="1171.4,2821.7 1171.4,2987.2 764.4,3375.2 764.4,3209.7 			"/>
			<polygon class="st4" points="1171.4,2821.7 764.4,3209.7 763.9,3210.3 145.5,2982.5 561,2616.5 			"/>
			
				<linearGradient id="SVGID_1_" gradientUnits="userSpaceOnUse" x1="145.4654" y1="2086.5942" x2="1171.4323" y2="2086.5942" gradientTransform="matrix(1 0 0 -1 0 5000)">
				<stop  offset="0" style="stop-color:#7FA6FD"/>
				<stop  offset="1" style="stop-color:#A6C7FF"/>
			</linearGradient>
			<polygon class="st6" points="1171.4,2821.7 764.4,3209.7 763.9,3210.3 145.5,2982.5 561,2616.5 			"/>
			<polygon class="st4" points="764.4,3037.3 764.4,3202.8 763.9,3203.4 147,2976.1 145.5,2976.4 145.5,2810.1 763.9,3037.9 			"/>
			<polygon class="st5" points="1171.4,2649.3 1171.4,2814.8 764.4,3202.8 764.4,3037.3 			"/>
			<polygon class="st4" points="1171.4,2649.3 764.4,3037.3 763.9,3037.9 145.5,2810.1 561,2444.1 			"/>
			
				<linearGradient id="SVGID_2_" gradientUnits="userSpaceOnUse" x1="145.4654" y1="2259.0112" x2="1171.4323" y2="2259.0112" gradientTransform="matrix(1 0 0 -1 0 5000)">
				<stop  offset="0" style="stop-color:#7FA6FD"/>
				<stop  offset="1" style="stop-color:#A6C7FF"/>
			</linearGradient>
			<polygon class="st7" points="1171.4,2649.3 764.4,3037.3 763.9,3037.9 145.5,2810.1 561,2444.1 			"/>
			<polygon class="st4" points="764.4,2864.9 764.4,3030.4 763.9,3030.9 147,2803.7 145.5,2803.9 145.5,2637.6 763.9,2865.5 			"/>
			<polygon class="st5" points="1171.4,2476.9 1171.4,2642.4 764.4,3030.4 764.4,2864.9 			"/>
			<polygon class="st8" points="1171.4,2476.9 764.4,2864.9 763.9,2865.5 145.5,2637.6 568.5,2263.3 			"/>
			<polygon class="st9" points="1171.4,2476.9 764.4,2864.9 763.9,2865.5 145.5,2637.6 568.5,2263.3 			"/>
			<g>
				<defs>
					<polygon id="SVGID_3_" points="1171.4,2476.9 764.4,2864.9 763.9,2865.5 145.5,2637.6 568.5,2263.3 					"/>
				</defs>
				<clipPath id="SVGID_4_">
					<use xlink:href="#SVGID_3_"  style="overflow:visible;"/>
				</clipPath>
				<g class="st10">
					<g class="st11">
						
							<image style="overflow:visible;enable-background:new    ;" width="482" height="376" xlink:href="B9D2C84F747CCD2E.png"  transform="matrix(1.23 0 0 1.23 447.8534 2212.8892)">
						</image>
					</g>
				</g>
			</g>
			<polygon class="st12" points="801,2416.7 512.1,2323.4 566.3,2275.9 855.3,2369.3 			"/>
			<polygon class="st13" points="855.3,2609.7 804.4,2657.5 801,2416.7 855.3,2369 			"/>
			<polygon class="st14" points="804.8,2657.5 515.9,2564.1 512.1,2323.4 801,2416.7 			"/>
			<path class="st15" d="M683.6,2445.2c1.1,23.4-11.6,43.6-28.3,45.3s-31.3-15.9-32.4-39.2s11.6-43.6,28.3-45.3
				C667.9,2404.3,682.5,2421.9,683.6,2445.2z"/>
			<polygon class="st15" points="634.7,2466.3 624.4,2571.4 678,2587.8 668.4,2462.9 			"/>
			
				<linearGradient id="SVGID_5_" gradientUnits="userSpaceOnUse" x1="564.4824" y1="2737.4644" x2="807.2568" y2="2737.4644" gradientTransform="matrix(1 0 0 -1 0 5000)">
				<stop  offset="0" style="stop-color:#FFFFFF"/>
				<stop  offset="3.000000e-02" style="stop-color:#F1F1F1"/>
				<stop  offset="8.000000e-02" style="stop-color:#E1E1E1"/>
				<stop  offset="0.15" style="stop-color:#D5D5D5"/>
				<stop  offset="0.24" style="stop-color:#CECECE"/>
				<stop  offset="0.49" style="stop-color:#CCCCCC"/>
				<stop  offset="0.75" style="stop-color:#CECECE"/>
				<stop  offset="0.85" style="stop-color:#D5D5D5"/>
				<stop  offset="0.92" style="stop-color:#E0E0E0"/>
				<stop  offset="0.97" style="stop-color:#F1F1F1"/>
				<stop  offset="1" style="stop-color:#FFFFFF"/>
			</linearGradient>
			<path class="st16" d="M807.3,2381.4c-15,11.9-28.8,6.5-37.1,0.7c-0.1-24.3-3.8-180.9-87.2-205.8
				c-90.5-27.1-84.5,134.5-84.5,134.5c-17.1,15.3-33.8-0.2-33.8-0.2l0,0c-0.5-14.2-4.7-206.3,118.9-169.4
				C806.5,2178,807.4,2365.8,807.3,2381.4z"/>
			<path class="st2" d="M807.3,2382.4v-1"/>
			<path class="st2" d="M564.7,2311.4c0,0,0-0.3,0-0.8"/>
			<path class="st17" d="M3621,938.9l-1145.7-419c-32.4-11.8-62.1-10-85,2.6v-0.1l-161.8,93.5l1.2,1c-26.1,16-42.6,46.5-42.6,86.9
				v2053.1c0,76.5,58.8,160.7,130.7,187l1145.6,419c32.5,11.9,62.2,10,85.1-2.7l1.4,2.2l150.1-89.7l-0.8-1.6
				c31.8-13.8,52.4-46.7,52.4-92.1v-2053C3751.7,1049.3,3692.9,965.2,3621,938.9z"/>
			<path class="st18" d="M3594.2,1218.5c0-76.5-58.8-160.7-130.7-187l-1145.7-419c-71.9-26.3-130.7,14.8-130.7,91.3v73.6
				L3594.2,1318L3594.2,1218.5z"/>
			
				<linearGradient id="SVGID_6_" gradientUnits="userSpaceOnUse" x1="2298.7944" y1="2100.3022" x2="3409.5305" y2="3707.3313" gradientTransform="matrix(1 0 0 -1 0 5000)">
				<stop  offset="0" style="stop-color:#5471A9"/>
				<stop  offset="1" style="stop-color:#57B4E0"/>
			</linearGradient>
			<path class="st19" d="M2187.2,777.5v1979.4c0,76.5,58.8,160.7,130.7,187l1145.7,419c71.9,26.3,130.7-14.8,130.7-91.4V1318
				L2187.2,777.5z"/>
			
				<image style="overflow:visible;opacity:0.5;enable-background:new    ;" width="1457" height="472" xlink:href="B9D2C84F747CCD32.png"  transform="matrix(1.23 0 0 1.23 2076.3333 1900.4768)">
			</image>
			<path class="st20" d="M2087.3,1989.8c0,0,286.4-212.7,438.4,104.7s260.5,305.4,451.9,198.5c191.5-106.9,325.1-97.1,501.6,72.9
				s324.7,52.7,354.3,9.3"/>
			<polygon class="st21" points="3443.4,3125 3104.5,3012.2 3104.6,2588.4 3443.5,2701.2 			"/>
			
				<linearGradient id="SVGID_7_" gradientUnits="userSpaceOnUse" x1="2004.5546" y1="1185.5665" x2="2792.6084" y2="1185.5665" gradientTransform="matrix(0.95 0.28 1.000000e-02 -1.05 329.14 3012.8599)">
				<stop  offset="0" style="stop-color:#CDDCFD"/>
				<stop  offset="1" style="stop-color:#E7F0FF"/>
			</linearGradient>
			<polygon class="st22" points="3016.6,2610.5 2265.8,2323.9 2266.8,2281.7 3017.6,2568.4 			"/>
			
				<linearGradient id="SVGID_8_" gradientUnits="userSpaceOnUse" x1="2002.7096" y1="1074.1029" x2="2790.7634" y2="1074.1029" gradientTransform="matrix(0.95 0.28 1.000000e-02 -1.05 329.14 3012.8599)">
				<stop  offset="0" style="stop-color:#CDDCFD"/>
				<stop  offset="1" style="stop-color:#E7F0FF"/>
			</linearGradient>
			<polygon class="st23" points="3014,2727.1 2263.2,2440.5 2264.2,2398.3 3014.9,2685 			"/>
			
				<linearGradient id="SVGID_9_" gradientUnits="userSpaceOnUse" x1="2000.8523" y1="962.6334" x2="2788.906" y2="962.6334" gradientTransform="matrix(0.95 0.28 1.000000e-02 -1.05 329.14 3012.8599)">
				<stop  offset="0" style="stop-color:#CDDCFD"/>
				<stop  offset="1" style="stop-color:#E7F0FF"/>
			</linearGradient>
			<polygon class="st24" points="3011.4,2843.7 2260.6,2557.1 2261.6,2514.9 3012.3,2801.6 			"/>
			
				<linearGradient id="SVGID_10_" gradientUnits="userSpaceOnUse" x1="1998.9951" y1="851.1716" x2="2787.061" y2="851.1716" gradientTransform="matrix(0.95 0.28 1.000000e-02 -1.05 329.14 3012.8599)">
				<stop  offset="0" style="stop-color:#CDDCFD"/>
				<stop  offset="1" style="stop-color:#E7F0FF"/>
			</linearGradient>
			<polygon class="st25" points="3008.8,2960.3 2258,2673.7 2258.9,2631.5 3009.7,2918.2 			"/>
			<g class="st26">
				<path class="st27" d="M2823.8,1271.2c22.9-0.6,45.7,2.7,67.5,9.7c94.2,30.3,162.1,101.3,202.8,213.1
					c19.7,53.9,27.1,111.1,25,170.2c-1,26.7-4.4,53.3-9.9,79.5c-0.5,2.5-1.4,4.8-2.2,7.2c-2.2,2.3-4.3,0.5-6.3-0.3
					c-4.4-1.7-8.9-3.2-13.3-4.8c-12.4-5.2-25.1-9.1-37.6-14c-6.8-2.7-7.6-4-5.8-12.6c5.2-25.8,8.3-52,7.6-78.5
					c-1.9-72.6-21.3-136.4-60.4-190.2c-33.2-45.9-74-74.9-122-87.7c-12.8-3.4-25.7-5.7-38.9-5.4c-7.4,0.1-8.3-1.2-8.3-10.7
					c-0.1-16.8,0-33.5-0.1-50.3c-0.2-6-0.1-12.1,0-18.1C2822.1,1275.7,2822.1,1273.1,2823.8,1271.2z"/>
				<path class="st28" d="M2554,1491.7c-0.7-3.6-2.6-6.2-4.3-8.9c-9.8-15-12.1-32.3-9.8-51c2.7-21.3,12.8-35.9,27.9-44.3
					c11.3-6.6,25.2-7.1,36.9-1.4c1.4,0.7,2.8,1.2,4.2,1.9c3.4,0.5,6.3,2.8,8.7,5.6c3,3.5,6.4,6.7,10,9.5c1.2,5.5,3.8,10.2,5.6,15.4
					c11.6,33.4-1.5,73-30.2,85.5c-10,4.3-20.1,3.8-30.3,1.1C2566,1501.4,2559.7,1496.9,2554,1491.7z"/>
				<path class="st29" d="M2657.6,1336c-2.3-20.4,1.1-38.6,12-54.5c15.6-22.8,44.6-27.1,63.8-8.6c3.8,3.7,7.3,7.9,10.9,11.9
					c5,7.1,9.1,14.8,9.8,24.5c6.1,27.8-8.1,60.4-28.5,71.6c-18.1,10-46.1,5.8-60.5-20.2c-2.2-5.4-5.5-10-7-15.9
					C2657.6,1341.9,2656.4,1339.1,2657.6,1336z"/>
				<path class="st30" d="M2837.7,1226.1c72.3,4.6,137,35,193.8,92.2c8.3,8.4,16.1,17.5,23.8,26.8c2.5,3,3.1,4.9,0.3,8.5
					c-9.3,11.8-9.1,11.8-18.9,0.5c-49.6-57.4-107.6-92.1-174.4-102.5c-11-1.9-22.2-2.8-33.4-2.8c-3.7,0.1-5.3-0.8-5.3-6.1
					C2823.6,1225.8,2823.4,1225.8,2837.7,1226.1z"/>
				<path class="st31" d="M2543.6,1703c0,5.6,0.1,11.1,0.1,16.7c0,11.2,0.9,10.1-7.9,10.1c-13.2-1.9-26.2-4.3-36.8-15.9
					c-3.3-3.7-4.6-8.1-4.6-13.7c0.2-19.1,0-38.2,0-57.3c0-10.1,0.6-20.2-0.1-30.2c-0.9-12.9,4.5-19.7,12.7-24.5
					c6.1-3.6,12.7-6,19.7-7.2c3.1-0.6,5.7-1.6,6.7-5.9c5.6,4.6,11.7,1.9,17.6,1.7c1.1,0,2.1-0.9,3.2-0.5c3.5,1.4,7.1,2.5,10.8,3.1
					c5.2,1.2,10.2,3.1,14.9,5.6c12.5,6.7,15.8,12.3,15.5,29.4c-0.1,8.1,1.2,16.4-1.1,24.4c-0.4,0.5-1.2,0.7-1.7,0.3c0,0,0,0,0,0
					c-2.6-7.7-1-15.7-1.1-23.1c-3.1,4.5-7.4,8-12.3,10.4c-8.4,4.4-17.7,6.9-27.2,7.3c-4.7,0.3-6,3-5.9,8.5
					c0.1,5.5,0.8,10.9-0.9,16.1c-1.8,2.8-4.3,2.5-6.7,2.5c-14.9-0.4-29-4.5-41.4-16.5c0.7,4.3,3.7,6.1,4.9,9.7
					c1.5,4.8,0.2,9.7,0.4,14.6c0.3,6.6,4.6,12.5,9.8,13c3.3,0.3,2.7-2.9,3-5.3c0.6-4.7-1.4-9.9,2-13.9c9.4,0.8,18.7,1.9,27.8,5.3
					c2.4,8.4,1.5,16.9,0.6,25.3c-0.5,1.8-2.1,3.1-4,3.1c-16.2,0-31.7-3-44.5-16.9c0.1,5.7,5.4,7.2,6.5,12.2
					c-0.9,3.6-1.3,7.3-1.2,11.1c0.1,9,0.5,9.8,7.3,13.5c4.9,2.6,5.2,2.4,5.5-4.2c0.3-4.7-1.1-9.8,2.3-13.8
					C2526.4,1699.1,2535.2,1699.5,2543.6,1703z"/>
				<path class="st32" d="M3068.1,1905.7c-4.6,7.4-10.1,13.6-15.4,20.1c-3.6,4.4-7.7,4.1-11.4-0.2c-3.7-4.3-6.9-8.5-10.4-12.7
					c-6.9-4.9-11.7-13.1-17.3-19.9c-3.7-3.7-6.6-8.3-9.8-12.7c-2.1-2.9-3.6-6.2-4.4-9.8c-2.6-13.5-1.5-27.1-0.8-40.7
					c0.1-2,1.1-3.9,2.8-5.1c0.9-0.6,2.1-0.4,2.7,0.5c0.1,0.1,0.2,0.3,0.2,0.5c1.8,3.7,4.5,6.1,6.9,9.1c-0.1,1.2-0.5,2.2-0.7,3.4
					c-0.9,5.9,0.8,8,5.3,6.6c0.9-0.4,1.7-0.7,2.7-0.9c3.9,1.1,5.2,5.8,7.7,8.9C3040.2,1870.3,3054.2,1888,3068.1,1905.7z"/>
				<path class="st33" d="M3068.1,1905.7c-2.1,0-3.3-1.9-4.6-3.5c-13.4-16.9-26.7-33.8-40.1-50.8c-1.7-2.1-3.1-4.5-4.7-6.8
					c-0.1-6.6-3.3-9.4-8-10.4c-5.4,0.1-5.9-5.8-7.9-10c0.6-4.2,3.3-4.1,5.6-4.2c8.2-0.2,16.4-0.4,24.6,0c8.8,0.5,14.6,7.6,20,15.2
					c4.6,7.3,11.1,12.3,14.7,20.7c4.3,5.7,8.7,11.4,13,17.2s4.5,11.1-0.1,17C3076.6,1895.6,3072.3,1900.6,3068.1,1905.7z"/>
				<path class="st34" d="M3067.9,1856.1c-5.4-5.7-10.3-11.9-14.6-18.4c-0.7-2.9,0.8-5,1.9-7.1c12.6-25.3,22.4-51.9,29.3-79.3
					c0.7-2.6,0.8-5.8,3.6-6.6c6.6,0.9,12.5,4.8,19,6.4c-5,25.7-13.7,49.6-23.4,72.8C3079.2,1834.9,3073.9,1845.7,3067.9,1856.1z"/>
				<path class="st35" d="M2753,1308.7c-0.9-9.2-6.4-15.6-8.6-23.9c18.9-7,38.8-11.3,59-12.7c6.8-0.4,13.6-2.4,20.5-0.8l-0.4,25.8
					c-1.4,2.5-3.5,2.5-5.5,2.5c-20.1,0-39.9,3.7-59.4,9.4C2756.6,1309.4,2754.8,1309.9,2753,1308.7z"/>
				<path class="st36" d="M2553.8,1576.7c-2.3,2.3-17.2,4.1-19.2,2.1c-0.7-0.7-0.8-2.5-1.1-3.7c3.3-25.9,9.7-50.7,17.6-75
					c0.9-2.8,1.9-5.6,2.9-8.4c3.1-2.2,4.4,1.9,6,3.3c3.9,3.4,9,4.2,11.9,9.4c0.6,2,0.4,4.2-0.5,6.1c-6.4,19.6-11.5,39.6-15.3,59.9
					C2555.6,1572.6,2555.4,1575.1,2553.8,1576.7z"/>
				<path class="st37" d="M2657.6,1336c1.2,8.7,5.4,15.8,8.3,23.6c-0.3,2.6-1.8,4-3.3,5.4c-11.6,10.7-22.4,22.2-32.3,34.4
					c-1.1,1.2-2.1,2.7-3.7,3c-1.6,1.2-3,1.4-4.4-0.7c-3.7-5.7-8.7-9.5-13.5-13.5c13.8-17.9,28.3-34.7,44.6-48.8
					C2654.8,1338.2,2656.2,1337.2,2657.6,1336z"/>
				<path class="st38" d="M2990.1,1661.9c-15.5,0-31,0-46.5-0.2c-3.6,0-5.3,1.5-6.3,5.9c-5.5,25.2-13.5,49.8-23.9,73.4
					c-8.3,18.4-12.8,39.2-13.8,61.1c-1.1,24.6,3.8,47.3,10.4,69.9c0.8,2.9,2.5,2.5,4.1,2.5c7.5,0.1,14.9,0,22.4,0.1
					c2,0,4.1-0.8,5.8,1.4l-191.9-0.2c-14.8,0-29.5,0-44.2,0c1.7-2.1,3.9-1.2,5.9-1.2c18.7-0.1,37.3,0,56-0.1c1.5,0,3.6,1.4,4.5-1.2
					c0.8-2.4-0.5-4.4-1.5-6.5c-4.5-9.3-12.2-8.6-19-8.9c-11-0.4-21.9-1.6-32.8-3.4c-9.1-1.4-17.5-5.7-24.2-12.1
					c-5.5-5.4-5.3-13.5-4.2-21.5c0.7-5.5,1.9-10.8,1.1-16.7c-0.6-4.4-1.6-8.3-4-11.3c-3.1-4-2-6.4,1.4-8.6c1-0.7,2.9-0.8,2.5-3.1
					c-0.3-1.6-1.7-1.5-2.8-1.8c-3.8-1-4.6-4.3-3.9-8.6c0.3-2.3,0.8-4.6,1.5-6.8c3.8-13.1,0-20.9-11.3-22.8c-2.1-0.3-4.1-1-5.9-2.1
					c-9.1-5.3-10.5-13.5-4.2-23.4c8.5-13.4,16.9-26.9,25.2-40.4c6.1-10,6.1-19,0.7-29.4c-3.2-6.2-2.5-13.5-1.3-20
					c3.5-20.6,6.4-41.5,12.1-61.5c3.8-12.6,9.5-24.6,16.9-35.6c19.1-29.4,43.9-46.9,72.9-54.8c13.5-3.7,27.5-5.2,41.6-2.8
					c8.3,1.4,16.6,2.1,24.8,4.5c3.4,1,5.2-0.3,5.1-5.3c-0.2-9.9,0.1-19.8,0.2-29.8c2.5,1,1.9,3.7,1.9,5.9c0.1,38.2,0.1,76.5,0,114.7
					c0,7-1.1,8.2-7.2,8.3c-28,0-56,0-83.9,0c-1.8,0-3.6-0.4-4.8,0c27.4-0.1,55.3,0,83.2,0c14.4,0,12.8,2,12.8-16.3
					c0-22.1,0-44.4,0-66.6c0-2.7-0.7-5.7,1.2-8c19.2,5.9,35.4,18.4,49,36.4c6.8,9,12.8,18.9,16.1,30.9c0.7,2.3,1.3,5.1,4,5
					c-2.3,6.9-7.2,11-11.3,15.8c-10.8,12.7-21.4,25.6-31.6,39c-4.6,6-9.5,8.6-16.2,8.6c-36.7-0.4-73.5-0.1-110.2,0
					c3.4,0.6,6.7,0.1,10.1,0.1c34.3,0,68.6,0,103,0.1c4.1,0.3,8-1.7,10.4-5c13.1-17.1,26.9-33.3,40.6-49.8c1.5-1.9,2.6-4.8,5.4-4.3
					c1.7,11.3,3.4,22.6,5.1,33.9c2.8,18.7,2,37.5,0.1,56.2c-0.4,4-0.5,8-0.6,12c-2.5,2.2-5.2,1.9-8,1.7c-10-0.7-20.1-0.1-25.2,0
					c24-0.2,52.9-0.4,81.8-0.1c0.7,0.1,1.3,0.4,1.7,0.9C2991,1660.9,2990.8,1661.5,2990.1,1661.9z"/>
				<path class="st39" d="M2583,1471.2c3.1-12.3-5.2-20.5-10.3-30.3c-3.4-6.4-7-12.8-10.4-19.2c-0.9-1.8-2.5-4.9,1.2-4.6
					c14.9,1.3,29.8,0.1,44.7,0.6c1.8,0,4.2-1.1,5.2,1c1.1,2.5-1.4,4-2.3,5.8c-5.2,9.2-10.2,18.6-15.9,27.3
					c-4.1,6.3-4.3,13.2-4.2,20.6c0.2,2.8,0.2,5.7-0.2,8.5c-0.8,3.9-4,6.8-6.4,6.8c-2.6,0.1-1.1-4.5-1.4-7.1S2583,1475.5,2583,1471.2
					z"/>
				<path class="st40" d="M2678.6,1356.2c3.2-7,7.9-12.2,12.4-17.5c3.9-4.6,5.5-8.3,2.5-15.5c-5.1-12.2,0.5-27.5,10.9-33.3
					s22.1,0,26.8,13c4.7,13,0.7,27.9-8.8,34.1c-6.9,4.5-13.7,4.4-20.3-0.4c-2.7-1.9-4.2-1.5-6.1,1.2c-3.7,4.9-7.6,9.7-11.4,14.5
					C2682.9,1354.2,2681.4,1356.2,2678.6,1356.2z"/>
				<path class="st41" d="M2593.2,1707.2c-3.5,10.9-11.5,13.9-19,17.5c-4.9,2.4-10.2,3.7-15.7,3.9c-13.7,3.5-13.7,3.5-13.7-14.3
					c0-3.7,0-7.5,0-11.2c0.2-0.3,0.4-0.6,0.6-0.9c7.2-2.2,14.8-2,21.9-4.4c7.9-2.7,15.8-5.4,21.9-13c1-1.2,2.7-4,4.3-0.5
					C2593.4,1692,2593.9,1699.6,2593.2,1707.2z"/>
				<path class="st42" d="M2543.6,1703c-9.1,0.3-18-1.9-26.9-4.2c-5.3,0-10-1.6-13.4-7.2c-4.1-4.5-9.5-8-7.6-16.9
					c13.5,17.4,30.8,19.9,48.9,19.4l0.5,0.7c0.4,2.7,1.5,5.4-0.4,8v0.2L2543.6,1703z"/>
				<path class="st43" d="M2544.2,1627.7c-13.1,0.5-24.8-2.2-35.4-10.6c-10.2-8-6-18.2,0.9-23.8c8-6.6,17.3-8.5,26.5-9.4
					c12.5-1.2,24.9-0.5,36.7,5.8c5.1,2.7,10.7,5.2,12.2,13.2c1.3,7.2-1.8,12.4-8.2,16.3C2567.2,1625.5,2555.7,1628.4,2544.2,1627.7z
					"/>
				<path class="st44" d="M2544.7,1658.6c0-7,0.1-14.1,0-21.2c0-3.7,0.7-5.4,4-5.6c9.8-0.5,19.5-2,28.7-6.7c5.9-3,11.2-6.6,15.5-14
					v27.6c-0.2,5.7-3.8,8.1-6.9,10.3c-12.4,8.9-25.8,12.8-40.1,11.1C2545.4,1659.9,2545,1659.3,2544.7,1658.6z"/>
				<path class="st45" d="M2544.7,1694.1v-26.3l0.5-0.9c8.1-2.9,16.5-2.5,24.7-5.3c6.6-2.1,12.6-5.6,17.5-10.4
					c1.7-1.7,3.5-4.9,6.1-1.4c0.1,7.4,0,14.9,0,22.3c-0.4,4.1-1.5,7.6-4.4,10c-12.3,10.4-26.1,14.1-40.7,14.2
					c-1.4,0.1-2.7-0.5-3.6-1.6L2544.7,1694.1z"/>
				<path class="st46" d="M2544.7,1667.8c-9.5,0.1-18.7-2.5-27.9-4.5c-6.4,0.5-11.2-3.4-15.6-8.6c-2.1-4.6-7.4-7.2-5.3-14.5
					c14.1,15.5,30.9,19.4,48.9,18.3l0.1,0.5c1,2.7,1.7,5.4,0,8.2L2544.7,1667.8z"/>
				<path class="st47" d="M2544.9,1667.3c0.4-2.7-1.2-5.4,0-8.2c12.4-0.1,24.6-1.7,36.1-8.5c4.9-2.9,9.1-6.9,12.1-11.8
					c0.2,0.2,0.5,0.4,0.8,0.4c0,1.4,0,2.8,0,4.2c-0.9,1.7,0.4,4-1,5.6c-3,0.3-4.1,3.7-6.1,5.6c-7.7,7.1-16.8,9.5-25.8,11.3
					C2555.6,1666.9,2550.3,1668.3,2544.9,1667.3z"/>
				<path class="st48" d="M2516.8,1638.4c0,14-0.1,14.1-9.7,8c-2.5-1.5-5.6-2.6-5.8-6.8c-0.2-5.8,0-11.7,0.3-17.5
					c0.1-1.6,1.8-1.2,2.8-0.7c3.4,1.7,7,3.1,10.2,5.4C2518.8,1629.6,2515.9,1634.9,2516.8,1638.4z"/>
				<path class="st49" d="M2503.4,1691.5l13.4,7.2c0,6,0.1,12.1,0,18.1c-0.1,3.7-1.4,5.4-4.3,2.7c-0.7-0.7-1.5-1.3-2.5-1.7
					c-3.3-1.5-7.6-2.6-8.5-6.9c-1-6-1-12.1,0-18.1C2501.7,1692.3,2502.8,1692,2503.4,1691.5z"/>
				<path class="st50" d="M2501.2,1654.7l15.6,8.6c0,5.7,0,11.3,0,17c0,1.9-0.1,3.7-2.2,4.1c-5.3,0.9-13.2-8.1-13.5-15
					C2500.8,1664.4,2502.5,1659.6,2501.2,1654.7z"/>
				<path class="st51" d="M3010.7,1834.3c7.1-1.6,9.6,1.6,8,10.4c-2.8,2.7-5.8,4.8-8.7,0.7
					C3007.2,1841.6,3008.2,1837.7,3010.7,1834.3z"/>
				<path class="st52" d="M2958.2,1520.3c-13.9-24-31.1-43.3-51.4-58c-3.3-2.4-3.4-4.3-1.8-8.1c5.8-13.5,11.6-26.9,17.1-40.6
					c1.9-4.8,3.6-5.2,7.1-2.5c22.8,17,42.4,37.9,58,61.6c20.9,31.7,35.2,67.6,43.1,107.6c2.2,11.1,2.7,8.3-5.2,10.7
					c-11.1,3.3-22.3,5.9-33.3,9.2c-3.4,1-5.1,0.6-5.9-4.2c-4.5-24.5-12.8-48.2-24.5-70.2c2.2-7.9,6.6-12.9,12.7-15.7
					c1.4-0.6,2.9-0.4,4.1-1.7c0.4-0.4,0.8-0.8,1.2-1.1c2.3-2,2.2-4.8,1.1-7.5c-0.9-2.2-2.5-3.5-4.6-3.1c-2.5,0.5-3.5,2.9-3.8,5.4
					c-0.9,8.1-6.1,12-10,17.1C2961.1,1520.5,2959.8,1521.4,2958.2,1520.3z"/>
				<path class="st53" d="M2990.7,1656c0-12.3-0.1-24.6-1.2-36.7c-0.4-3.7,0-5.4,3.4-6c12-2,23.9-4.4,35.9-6.8
					c4.4-0.9,6.2,0.8,6.7,6.8c2.9,33.3,1,66.8-5.4,99.6c-1.8,8.7-1.6,8.7-8.2,6.2c-10.9-4-21.8-8.2-32.7-11.9
					c-3.6-1.2-5-2.9-3.9-7.8c2.7-12.3,4.4-24.9,5.1-37.5l0.5-0.1c5.8-2.8,11.5-3.7,16.7,1.6c2.7,2.7,5,2.8,7.4-0.2
					c1.6-2,1.6-4.9,0-6.9c-2.2-3-5.1-3.7-7.4-0.8c-4.3,5.5-9.4,3-14.2,3.1C2991.9,1658.6,2991.1,1657.4,2990.7,1656z"/>
				<path class="st27" d="M2863,1440c-11.1-3.6-22.6-5.5-34.3-5.7c-3.5,0-5.2-1.3-5.1-6.4c0.3-15.6,0.2-31.2,0-46.7
					c0-4.4,1-5.7,4.5-5.5c27.3,1.2,54.1,8.3,78.4,21c3.7,1.9,4.8,3.7,2.8,8.8c-5.3,13.8-10.2,27.8-14.9,41.9
					c-1.5,4.3-2.9,4.9-6.3,3.2c-7.1-3.6-14.4-6.5-21.6-9.7c-2.2-8.2-2.2-16.9,0.1-25.1c0.2-0.4,0.4-0.8,0.6-1.2
					c1.2-2.4,1.8-4.7-0.2-6.9c-1.2-1.4-2.7-1.8-4-0.5c-1.9,1.8-2.2,4.7-0.7,6.9c3.9,6.1,2.7,13.4,2.8,20.3
					C2865.2,1436.6,2865.4,1439.2,2863,1440z"/>
				<path class="st54" d="M2935.6,1555.4c-15.3,18.7-30.6,37.2-45.7,56.1c-2.9,3.7-5.8,5-9.8,5c-34.3-0.2-68.6-0.1-103,0
					c-3.7,0-7.4-0.8-11.1,0.9c-1.8,0.9-3.5-0.1-3.7-2.8c-0.2-2.6,1.2-4,3.2-3.6c12,2.6,24.2,0.9,36.2,1.1
					c25.2,0.3,50.4-0.2,75.5,0.3c6.1,0.1,10.2-2.5,14.1-7.4c5-6.3,10-12.7,15.1-19c9.7-11.8,19.4-23.4,29.1-35.1
					c7.4-10.1,15.4-19.2,23.5-28.3c1,0.3,1.6,1.4,1.3,2.5c0,0.1-0.1,0.2-0.1,0.3L2935.6,1555.4z"/>
				<path class="st55" d="M2863,1440c0.7-8.4,3.3-16.8-2.3-24.5c-2-2.9-1.9-6.8,0.1-9.7c2-2.9,4.6-3,7.1-0.9c2.4,2,4.1,5.7,2.1,8.4
					c-5.6,7.2-3.1,15.9-3.7,24c0,1.2,0.1,2.3,0.2,3.5c0,12.6,0,25.3,0,37.9c0,28.3-0.2,56.6,0,84.9c0,5.9-1.2,7.6-5.9,7.6
					c-28.2-0.2-56.3-0.1-84.4,0c-3.1,0-6.3-1-9.3,1.5c-1.4,1.2-2.8-0.1-3.9-1.5c-0.6-0.8-0.6-1.8-0.2-2.6c0.5-1.4,2-2.1,3.4-1.6
					c0,0,0.1,0,0.1,0c7.1,2.5,14.4,1.1,21.6,1.2c23.5,0.2,47,0,70.5,0.2c4,0,5.7-1.3,5.7-6.8c-0.1-38.7,0-77.4,0-116.1
					c0-1.6,0.3-3.3-0.8-4.7L2863,1440z"/>
				<path class="st56" d="M2990.4,1660.4h-93.9c0-0.9,0-1.7-0.1-2.6l43.7-0.4l49.2,0.2C2990.4,1658.3,2991.2,1658.9,2990.4,1660.4z"
					/>
				<path class="st57" d="M2960.2,1525.4l-1.1-2.8c-0.3-0.8-0.6-1.6-0.9-2.4c5.8-4.6,11.4-9.3,12.6-19c0.5-3.5,2.4-6.6,5.7-6.7
					c3.3-0.1,5.3,2.6,6.1,6c0.8,3.4,0.8,7.2-3.1,8.2c-0.7-1.3,0-2.7,0-4c0.1-2.5-0.7-4.1-2.7-4.4c-1.2-0.2-2,1-2.3,2.5
					c-0.4,2.2,0.4,3.6,2.1,4.1c1.2,0.2,2.2,0.9,2.9,1.8c-0.5,0.7-0.9,2-1.4,2c-8.3,0.1-11.8,8.8-16.7,15L2960.2,1525.4z"/>
				<path class="st58" d="M2990.4,1660.4l-1-2.7c0.4-0.6,0.8-1.2,1.2-1.8c5.5,0,11.2,4.4,16.3-3c2.2-3.2,6.4-2.2,8.9,1.6
					c2.5,3.8,2.5,7.4-0.5,10.6c-3,3.2-6.3,3.9-8.8-0.3c-2.3-4-5.3-2.7-8.1-2.9c-2.6-0.2-5.2-0.2-7.8-0.2
					C2990.5,1661.3,2990.5,1660.9,2990.4,1660.4z"/>
				<path class="st31" d="M2592.9,1649c0.3-1.9-0.2-4,1-5.6c0.1,20.4,0.1,40.9,0.2,61.4c-0.1,0.9-0.4,1.7-0.8,2.5
					c-0.1-8.1-0.2-16.1-0.4-24.2c-2.1-3.2-0.2-6.5,0-9.8L2592.9,1649z"/>
				<path class="st56" d="M2890.7,1657.5c-2.7,3.2-4.3,3.8-6,3.7c-36.9-1.8-73.8-0.3-110.7-0.8c-2.7,0-5.1,1.2-7.6,2.1
					c-1.7,0.6-3-0.3-3.8-2c-0.4-1.1-0.3-2.2,0.1-3.3c0.7-1.2,2.3-1.7,3.5-1c0,0,0.1,0,0.1,0.1c4.4,2,8.9,1.1,13.3,1.2
					c34.5,0.1,69,0.1,103.5,0L2890.7,1657.5z"/>
				<path class="st59" d="M2609.8,1421.2c-5.7,9.8-10.7,18.9-16,27.7c-3.4,5.6-6.1,11.1-5.2,18.6c0.2,2.8,0.2,5.6,0,8.5
					c0,2.1,0.1,5.2-1.8,5.2c-2.5,0-1.6-3.5-1.3-5.1c2.8-16.7-5-28-12.2-39.7c-3.1-4.8-5.7-9.9-8-15.1L2609.8,1421.2z"/>
				<path class="st60" d="M2711.8,1335.9c-9.7-0.1-17-9.8-16.9-22.1s7.7-22.1,17.8-22c10,0.1,17.3,9.8,17.1,23.4
					C2729.6,1327.4,2722.1,1336,2711.8,1335.9z"/>
				<path class="st61" d="M2592.9,1673.3c0,3.3,0,6.6,0,9.8c-13.3,17-30.5,19.1-48,19.8c0.4-2.7-1.2-5.5,0-8.2
					c13.5-0.2,26.8-2.3,39-10.6C2587.6,1681.4,2591.2,1678.7,2592.9,1673.3z"/>
				<path class="st62" d="M2979.5,1508.7c-2.2-1.1-5.9,2.2-6.8-3.3c-0.4-2.9,0.1-5.6,2.3-7.4c2.1-1.8,3.3,0.1,4.8,1.6
					C2983.1,1503,2980.7,1505.7,2979.5,1508.7L2979.5,1508.7z"/>
				<path class="st63" d="M3015.3,1658.9c-0.3,3.2-1.7,5.4-4.2,5.6c-2.8,0.1-5.1-2.1-5.2-4.9c0,0,0-0.1,0-0.1
					c-0.2-2.9,1.7-5.8,4.5-5.9S3014.8,1655.5,3015.3,1658.9z"/>
				<path class="st64" d="M2726.4,1316.8c-1.4-4.5-2.2-7.6-3.4-10.4c-1.9-4.7-5-7.5-9.3-7.7c-1.3,0-2.4-0.9-2.5-2.2
					c-0.1-2,1.4-1.8,2.5-1.8C2721.8,1294.3,2728.5,1304.9,2726.4,1316.8z"/>
			</g>
			<g class="st26">
				<path class="st65" d="M2611.4,1823.6l-528-202.2c-5.7-2.2-9.4-7.6-9.5-13.7V962.2c0-8.2,6.7-14.7,14.8-14.7c1.8,0,3.5,0.3,5.1,1
					l528,202.2c5.7,2.2,9.4,7.6,9.4,13.7v645.4c0,8.2-6.7,14.7-14.8,14.7C2614.8,1824.6,2613.1,1824.2,2611.4,1823.6z"/>
			</g>
			<path class="st66" d="M2288.2,1306.5c21.3-21.1,65.6-18.4,102.8,23.1c38.7,43.2,52.9,107.9,32.9,148.3
				c-20.3,41.1-67,44.7-108.5,7.8c-42.5-37.8-60.2-100.8-49.1-142.7c3.7,9.8,8.4,17.9,15.5,23.7s14.2,8.3,21,6.6
				c10.7-2.8,16.1-14.4,13.9-29.4C2314.4,1327.2,2305.6,1315.7,2288.2,1306.5z M2327.2,1371.6c-6.5,0.7-9.6,8.2-7.1,17
				c2.5,8.8,9.8,15.5,16.2,14.9c6.3-0.6,9.5-8.3,7.1-17.1C2340.9,1377.7,2333.6,1370.9,2327.2,1371.6z"/>
			<path class="st66" d="M2304.2,1230.1c19.9-1.4,45.1,5.3,70.9,21.9c8.3,5.3,12.9,15.6,11.2,24.2c-1.7,8.3-8.3,10.4-16.3,6.1
				c-9.1-4.7-18.2-10.1-27.3-13c-75.6-24.4-123.5,52.5-92.9,148.8c23.8,75,88.7,130.2,142.4,120.9c72.3-12.6,85.2-125.5,24.2-211.7
				c-4.8-6.9-7.4-13.6-5.9-20.7c2.4-10.6,13.5-10.9,21.3-0.5c21,28.1,35.9,60.3,43.7,94.4c3.3,14.3,5.4,28.9,6.3,43.6
				c1.3,19.8-0.9,39.8-6.6,58.8c-5.3,17.4-13.2,31.9-23.7,43.5c-16.3,17.9-36.6,28.1-61.3,27.8c-52.5-0.7-99.5-31.6-138.1-94.1
				c-35.9-58.1-46.5-116.6-33.5-172C2229.5,1262.5,2259.9,1234.2,2304.2,1230.1z"/>
			<path class="st66" d="M2423,1712c-80.7,2-165.6-47.6-239.1-156.8c-51.1-76-75.8-158.2-77.2-243c-0.3-20.3,1.4-40.7,5-60.7
				c1.6-8.9,8.2-12.7,14.8-8.5c9.2,5.8,13.5,14.9,11.7,25c-9.1,51.4-4.6,106.2,13.7,164.6c10.6,34.3,25.7,67,45,97.3
				c55.2,85.9,120.9,135.3,195.5,145.5c59.6,8.2,105.8-14.8,138.1-65.7c10.4-16.6,18-34.7,22.7-53.7c2.1-8.2,10-10.3,17.2-4.9
				c7.5,6,10.8,15.8,8.5,25.1c-9.8,36.1-25.9,65.8-48.1,88.8C2504.5,1692.2,2472.6,1707.2,2423,1712z"/>
			<path class="st66" d="M2280.8,1164.5c22.5-1.9,45.1,1.5,66,10c8.7,3.4,17.4,7.6,26.1,12c8.5,4.5,13.6,13.5,13,23.1
				c-0.7,9.6-7.4,13.3-15.9,8.5c-29.2-16.5-57.4-22.1-84.5-18.6c-65,8.2-105.2,77.9-95.2,167.1c8.2,73.5,39.1,136.2,91.4,187.3
				c4.6,4.6,8.5,9.4,9.5,16.4c1,6.6-0.3,11.5-4.3,14.1s-8.7,2.3-13.4-2.2c-7.7-7.4-15.4-15.1-22.6-23.5
				c-8.3-9.6-16.2-19.8-23.8-30.2c-14.9-20.6-27.4-42.9-37.1-66.4c-27.4-65.8-35.7-128.4-22.1-185.7
				c15.7-66.4,52.6-103.5,109.1-111.5C2278.2,1164.7,2279.5,1164.7,2280.8,1164.5z"/>
			<path class="st66" d="M2571.3,1377c7.4,24.8,12.6,50.2,15.5,75.9c1.3,12.1-4.2,18.5-12.9,15.4c-7.2-2.6-12.6-10.5-13.7-20.6
				c-2.7-24.7-7.8-49.1-15.3-72.7c-25.1-79.3-67-143.3-125.5-191.9c-41.4-34.3-83.6-52-126.1-55.2c-7-0.3-14-0.2-21,0.4
				c-8.7,0.5-16.1-5.7-19-16.2c-2.9-10.5,0.8-17.6,9.5-18.2c45.1-3.3,91.1,10,138.1,41.3c60.2,40,108.2,97.9,144.2,173
				C2555.6,1330.3,2564.4,1353.4,2571.3,1377z"/>
			<path class="st66" d="M2521.4,1386.9c30,106.5,4.9,204.7-61.6,240.2c-3.2,1.7-6.4,3.3-9.7,4.6c-7,2.9-15.1-1.6-19.3-10.8
				c-4.6-10-3-19.1,4.3-22.2c32.7-14.3,55.5-41.7,65.5-84.4c15.5-65.9,2.1-134.6-39.4-205c-6-10.2-6.5-20.2-0.9-24.9
				c5.6-4.7,13.8-1,20,9C2498.3,1322.6,2512.1,1354,2521.4,1386.9z"/>
			<g class="st26">
				<path class="st65" d="M3535.1,2478.9l-528-202.2c-5.7-2.2-9.4-7.6-9.4-13.7v-645.4c0-8.2,6.7-14.7,14.8-14.7
					c1.8,0,3.5,0.3,5.1,1l528,202.2c5.7,2.2,9.4,7.6,9.5,13.7v645.4c0,8.2-6.7,14.7-14.8,14.7
					C3538.5,2479.9,3536.7,2479.5,3535.1,2478.9z"/>
			</g>
			<g class="st26">
				<path class="st65" d="M4212.3,2158.6l-926.5-349c-5.7-2.2-9.5-7.6-9.5-13.8v-307c0-8.2,6.7-14.7,14.8-14.7
					c1.7,0,3.4,0.3,5.1,0.9l926.5,349c5.7,2.2,9.5,7.7,9.5,13.8v307c-0.1,8.2-6.7,14.7-14.8,14.7
					C4215.6,2159.5,4213.9,2159.2,4212.3,2158.6z"/>
			</g>
			
				<linearGradient id="SVGID_11_" gradientUnits="userSpaceOnUse" x1="1336.1975" y1="821.2136" x2="1336.1975" y2="1444.1316" gradientTransform="matrix(1 0 0 -1 0 5000)">
				<stop  offset="0" style="stop-color:#5471A9"/>
				<stop  offset="1" style="stop-color:#57B4E0"/>
			</linearGradient>
			<path class="st67" d="M1425.4,3962.3v216.5c-0.9-0.8-1.7-1.6-2.5-2.5c-122.8-144.2-181.4-290.1-175.7-437.5l-0.2-182.9
				c3.8,136,62.5,270.7,175.9,404C1423.8,3960.7,1424.6,3961.5,1425.4,3962.3z"/>
			
				<linearGradient id="SVGID_12_" gradientUnits="userSpaceOnUse" x1="1425.495" y1="1219.7704" x2="2765.3772" y2="1219.7704" gradientTransform="matrix(1 0 0 -1 0 5000)">
				<stop  offset="0" style="stop-color:#5471A9"/>
				<stop  offset="1" style="stop-color:#57B4E0"/>
			</linearGradient>
			<path class="st68" d="M2751.9,3601.9c-47.6,47.7-95.2,95.5-142.9,143.2l0.4,0.2c-49.3,48.6-96.7,98.1-148.4,145.6
				c-138.1,127.1-321.7,214.2-547.8,262.8c-150.7,32.4-307.3,42.2-468.9,31.4c-4.4-0.1-8.8-0.9-13-2.5l0,0l0,0
				c-2.1-0.9-4.1-2.2-5.9-3.7v-216.5c4.9,4.4,10.7,5.6,18.9,6.1c161.6,10.8,318.2,1,468.9-31.4c226.1-48.6,409.7-135.7,547.8-262.8
				c51.7-47.4,99-97,148.4-145.6l-0.4-0.2c47.6-47.7,95.3-95.4,142.9-143.2c6.4-6.4,10.6-10.7,12.4-14.2V3581
				C2767.6,3586,2763,3590.8,2751.9,3601.9z"/>
			<path d="M2668.8,3378.7c-84.4,83.9-165.7,169.3-253.2,251.6c-2.5,2.3-4.9,4.6-7.4,6.9c-2.5,2.3-4.9,4.4-7.3,6.6s-4.8,4.3-7.3,6.5
				l-0.4,0.3c-65.6,57.9-139.7,106.5-222.2,146l-3.9,1.9c-4.7,2.2-9.4,4.4-14.1,6.6l-6.2,2.8c-4.3,1.9-8.7,3.9-13.1,5.8
				c-2.6,1.1-5.3,2.3-7.9,3.4c-4,1.7-8,3.4-12.1,5.1c-3.3,1.4-6.7,2.7-10.1,4.1s-6.9,2.8-10.4,4.1c-6.9,2.7-13.9,5.3-20.9,7.9
				c-3.7,1.3-7.4,2.7-11,4c-3.6,1.3-7.4,2.6-11.1,3.9s-7.5,2.5-11.2,3.8c-3.7,1.2-7.2,2.4-10.9,3.6c-0.6,0.2-1.2,0.4-1.8,0.6
				c-3.3,1-6.6,2.1-9.8,3.1c-11.4,3.6-22.9,7-34.6,10.2c-3.9,1.1-7.8,2.2-11.7,3.2c-3.9,1-7.8,2.1-11.8,3.1s-7.9,2-11.8,3.1
				c-3.5,0.9-6.9,1.7-10.4,2.6c-1.1,0.3-2.2,0.6-3.3,0.8c-3.4,0.8-6.8,1.6-10.2,2.5c-4,0.9-8.1,1.9-12.1,2.8
				c-4,0.9-8.1,1.8-12.2,2.7c-8.2,1.8-16.4,3.5-24.6,5.1c-2.3,0.5-4.5,0.9-6.8,1.3c-2.7,0.5-5.4,1-8.1,1.5
				c-3.4,0.6-6.8,1.3-10.3,1.9l-12.3,2.2c-4.2,0.7-8.5,1.4-12.7,2.1c-4.1,0.7-8.2,1.3-12.3,1.9c-3.5,0.6-7.1,1.1-10.7,1.6
				c-2.5,0.4-4.9,0.7-7.4,1.1l-8.2,1.1c-8.6,1.2-17.3,2.3-26.1,3.4c-3,0.4-6,0.7-9.1,1.1l-5,0.6c-4.1,0.4-8.3,0.9-12.4,1.3
				c-3.9,0.4-7.7,0.8-11.6,1.2c-3.4,0.4-6.7,0.7-10.1,1c-2.8,0.3-5.5,0.6-8.3,0.8c-3.1,0.3-6.1,0.6-9.3,0.8l-2.9,0.3
				c-3.2,0.3-6.3,0.5-9.5,0.8c-4.3,0.3-8.5,0.7-12.8,0.9c-5.1,0.4-10.2,0.7-15.4,1c-5.1,0.3-10.3,0.6-15.4,0.9
				c-50.1,2.8-100.5,2.2-151.1,0.2c-1.4,0-2.7-0.1-3.9-0.3l-1.8-0.2c-2.5-0.3-5-1-7.4-2.1h-0.1l-1.1-0.6l-1.1-0.6
				c-0.3-0.2-0.7-0.5-1-0.7c-0.3-0.3-0.7-0.5-1-0.8c-1.4-1.1-2.6-2.4-3.7-3.8c-148.4-187.2-182.4-378.5-102.1-573.8
				c2.1-5.1,4.4-10.2,6.7-15.3c0.7-1.6,1.5-3.1,2.2-4.7c0.6-1.4,1.2-2.7,2-4.1c19.6-40.1,45.6-78,74.7-114.9l6.5-8.2
				c4.4-5.4,8.8-10.8,13.2-16.2c2.2-2.7,4.5-5.4,6.7-8.1c0.5-0.6,1-1.2,1.5-1.7c3.4-4,6.9-8.1,10.3-12.2
				c5.2-6.1,10.5-12.1,15.7-18.2c17.5-20.1,36.1-39.7,54.2-59.6c-1.1-0.5-2.3-0.9-3.4-1.4c36.8-43.9,73.7-87.8,110.1-131.8
				c4.9-5.9,8.9-7.2,19.3-4.1c38.9,11.6,78,22.4,117.4,32.3c0.1-1.3,0.2-2.6,0.2-3.9c1.1-15.7,8.9-29.5,21.6-41.8
				c156,39.1,315.4,63.1,476,71.8c12.3,0.7,19.2,3.3,25.6,10.9c38.8,46.3,80.8,89.8,125.6,130.2c-14.4,11.1-31.1,23.4-49.1,35.2
				c78.1,69.7,166.4,134,264.6,193C2670.9,3370.4,2674.6,3372.9,2668.8,3378.7z"/>
			<path class="st69" d="M2668.8,3378.7c-84.4,83.9-165.7,169.3-253.2,251.6c-2.5,2.3-4.9,4.6-7.4,6.9c-2.5,2.3-4.9,4.4-7.3,6.6
				s-4.8,4.3-7.3,6.5l-0.4,0.3c-65.6,57.9-139.7,106.5-222.2,146l-3.9,1.9c-4.7,2.2-9.4,4.4-14.1,6.6l-6.2,2.8
				c-4.3,1.9-8.7,3.9-13.1,5.8c-2.6,1.1-5.3,2.3-7.9,3.4c-4,1.7-8,3.4-12.1,5.1c-3.3,1.4-6.7,2.7-10.1,4.1s-6.9,2.8-10.4,4.1
				c-6.9,2.7-13.9,5.3-20.9,7.9c-3.7,1.3-7.4,2.7-11,4c-3.6,1.3-7.4,2.6-11.1,3.9s-7.5,2.5-11.2,3.8c-3.7,1.2-7.2,2.4-10.9,3.6
				c-0.6,0.2-1.2,0.4-1.8,0.6c-3.3,1-6.6,2.1-9.8,3.1c-11.4,3.6-22.9,7-34.6,10.2c-3.9,1.1-7.8,2.2-11.7,3.2
				c-3.9,1-7.8,2.1-11.8,3.1s-7.9,2-11.8,3.1c-3.5,0.9-6.9,1.7-10.4,2.6c-1.1,0.3-2.2,0.6-3.3,0.8c-3.4,0.8-6.8,1.6-10.2,2.5
				c-4,0.9-8.1,1.9-12.1,2.8c-4,0.9-8.1,1.8-12.2,2.7c-8.2,1.8-16.4,3.5-24.6,5.1c-2.3,0.5-4.5,0.9-6.8,1.3c-2.7,0.5-5.4,1-8.1,1.5
				c-3.4,0.6-6.8,1.3-10.3,1.9l-12.3,2.2c-4.2,0.7-8.5,1.4-12.7,2.1c-4.1,0.7-8.2,1.3-12.3,1.9c-3.5,0.6-7.1,1.1-10.7,1.6
				c-2.5,0.4-4.9,0.7-7.4,1.1l-8.2,1.1c-8.6,1.2-17.3,2.3-26.1,3.4c-3,0.4-6,0.7-9.1,1.1l-5,0.6c-4.1,0.4-8.3,0.9-12.4,1.3
				c-3.9,0.4-7.7,0.8-11.6,1.2c-3.4,0.4-6.7,0.7-10.1,1c-2.8,0.3-5.5,0.6-8.3,0.8c-3.1,0.3-6.1,0.6-9.3,0.8l-2.9,0.3
				c-3.2,0.3-6.3,0.5-9.5,0.8c-4.3,0.3-8.5,0.7-12.8,0.9c-5.1,0.4-10.2,0.7-15.4,1c-5.1,0.3-10.3,0.6-15.4,0.9
				c-50.1,2.8-100.5,2.2-151.1,0.2c-1.4,0-2.7-0.1-3.9-0.3l-1.8-0.2c-2.5-0.3-5-1-7.4-2.1h-0.1l-1.1-0.6l-1.1-0.6
				c-0.3-0.2-0.7-0.5-1-0.7c-0.3-0.3-0.7-0.5-1-0.8c-1.4-1.1-2.6-2.4-3.7-3.8c-148.4-187.2-182.4-378.5-102.1-573.8
				c2.1-5.1,4.4-10.2,6.7-15.3c0.7-1.6,1.5-3.1,2.2-4.7c0.6-1.4,1.2-2.7,2-4.1c19.6-40.1,45.6-78,74.7-114.9l6.5-8.2
				c4.4-5.4,8.8-10.8,13.2-16.2c2.2-2.7,4.5-5.4,6.7-8.1c0.5-0.6,1-1.2,1.5-1.7c3.4-4,6.9-8.1,10.3-12.2
				c5.2-6.1,10.5-12.1,15.7-18.2c17.5-20.1,36.1-39.7,54.2-59.6c-1.1-0.5-2.3-0.9-3.4-1.4c36.8-43.9,73.7-87.8,110.1-131.8
				c4.9-5.9,8.9-7.2,19.3-4.1c38.9,11.6,78,22.4,117.4,32.3c149.1,37.3,301.1,61.5,454.4,72.2c2.5,0.2,4.6,0.4,6.7,0.7
				c1.2,0.2,2.4,0.4,3.4,0.7c0.6,0.1,1.2,0.3,1.8,0.5c0.5,0.2,1.1,0.3,1.6,0.5c0.5,0.2,1.1,0.4,1.6,0.6c1.1,0.4,2.3,0.9,3.3,1.5
				c0.5,0.3,1.1,0.6,1.6,0.9c0.5,0.3,0.9,0.6,1.3,0.9c2.2,1.6,4.1,3.4,5.9,5.4c37,41.8,76.5,81.4,118.2,118.5
				c78.1,69.7,166.4,134,264.6,193C2670.9,3370.4,2674.6,3372.9,2668.8,3378.7z"/>
			<path class="st2" d="M2668.8,3378.7c-84.4,83.9-165.7,169.3-253.2,251.6c-2.5,2.3-4.9,4.6-7.4,6.9c-2.5,2.3-4.9,4.4-7.3,6.6
				s-4.8,4.3-7.3,6.5l-0.4,0.3c-65.6,57.9-139.7,106.5-222.2,146l-3.9,1.9c-4.7,2.2-9.4,4.4-14.1,6.6l-6.2,2.8
				c-4.3,1.9-8.7,3.9-13.1,5.8c-2.6,1.1-5.3,2.3-7.9,3.4c-4,1.7-8,3.4-12.1,5.1c-3.3,1.4-6.7,2.7-10.1,4.1s-6.9,2.8-10.4,4.1
				c-6.9,2.7-13.9,5.3-20.9,7.9c-3.7,1.3-7.4,2.7-11,4c-3.6,1.3-7.4,2.6-11.1,3.9s-7.5,2.5-11.2,3.8c-3.7,1.2-7.2,2.4-10.9,3.6
				c-0.6,0.2-1.2,0.4-1.8,0.6c-3.3,1-6.6,2.1-9.8,3.1c-11.4,3.6-22.9,7-34.6,10.2c-3.9,1.1-7.8,2.2-11.7,3.2
				c-3.9,1-7.8,2.1-11.8,3.1s-7.9,2-11.8,3.1c-3.5,0.9-6.9,1.7-10.4,2.6c-1.1,0.3-2.2,0.6-3.3,0.8c-3.4,0.8-6.8,1.6-10.2,2.5
				c-4,0.9-8.1,1.9-12.1,2.8c-4,0.9-8.1,1.8-12.2,2.7c-8.2,1.8-16.4,3.5-24.6,5.1c-2.3,0.5-4.5,0.9-6.8,1.3c-2.7,0.5-5.4,1-8.1,1.5
				c-3.4,0.6-6.8,1.3-10.3,1.9l-12.3,2.2c-4.2,0.7-8.5,1.4-12.7,2.1c-4.1,0.7-8.2,1.3-12.3,1.9c-3.5,0.6-7.1,1.1-10.7,1.6
				c-2.5,0.4-4.9,0.7-7.4,1.1l-8.2,1.1c-8.6,1.2-17.3,2.3-26.1,3.4c-3,0.4-6,0.7-9.1,1.1l-5,0.6c-4.1,0.4-8.3,0.9-12.4,1.3
				c-3.9,0.4-7.7,0.8-11.6,1.2c-3.4,0.4-6.7,0.7-10.1,1c-2.8,0.3-5.5,0.6-8.3,0.8c-3.1,0.3-6.1,0.6-9.3,0.8l-2.9,0.3
				c-3.2,0.3-6.3,0.5-9.5,0.8c-4.3,0.3-8.5,0.7-12.8,0.9c-5.1,0.4-10.2,0.7-15.4,1c-5.1,0.3-10.3,0.6-15.4,0.9
				c-50.1,2.8-100.5,2.2-151.1,0.2c-1.4,0-2.7-0.1-3.9-0.3l-1.8-0.2c-2.5-0.3-5-1-7.4-2.1h-0.1l-1.1-0.6l-1.1-0.6
				c-0.3-0.2-0.7-0.5-1-0.7c-0.3-0.3-0.7-0.5-1-0.8c-1.4-1.1-2.6-2.4-3.7-3.8c-148.4-187.2-182.4-378.5-102.1-573.8
				c2.1-5.1,4.4-10.2,6.7-15.3c0.7-1.6,1.5-3.1,2.2-4.7c0.6-1.4,1.2-2.7,2-4.1c19.6-40.1,45.6-78,74.7-114.9l6.5-8.2
				c4.4-5.4,8.8-10.8,13.2-16.2c2.2-2.7,4.5-5.4,6.7-8.1c0.5-0.6,1-1.2,1.5-1.7c3.4-4,6.9-8.1,10.3-12.2
				c5.2-6.1,10.5-12.1,15.7-18.2c17.5-20.1,36.1-39.7,54.2-59.6c-1.1-0.5-2.3-0.9-3.4-1.4c36.8-43.9,73.7-87.8,110.1-131.8
				c4.9-5.9,8.9-7.2,19.3-4.1c38.9,11.6,78,22.4,117.4,32.3c0.1-1.3,0.2-2.6,0.2-3.9c1.1-15.7,8.9-29.5,21.6-41.8
				c156,39.1,315.4,63.1,476,71.8c12.3,0.7,19.2,3.3,25.6,10.9c38.8,46.3,80.8,89.8,125.6,130.2c-14.4,11.1-31.1,23.4-49.1,35.2
				c78.1,69.7,166.4,134,264.6,193C2670.9,3370.4,2674.6,3372.9,2668.8,3378.7z"/>
			<path class="st2" d="M2668.8,3378.7c-84.4,83.9-165.7,169.3-253.2,251.6c-2.5,2.3-4.9,4.6-7.4,6.9c-2.5,2.3-4.9,4.4-7.3,6.6
				s-4.8,4.3-7.3,6.5l-0.4,0.3c-65.6,57.9-139.7,106.5-222.2,146l-3.9,1.9c-4.7,2.2-9.4,4.4-14.1,6.6l-6.2,2.8
				c-4.3,1.9-8.7,3.9-13.1,5.8c-2.6,1.1-5.3,2.3-7.9,3.4c-4,1.7-8,3.4-12.1,5.1c-3.3,1.4-6.7,2.7-10.1,4.1s-6.9,2.8-10.4,4.1
				c-6.9,2.7-13.9,5.3-20.9,7.9c-3.7,1.3-7.4,2.7-11,4c-3.6,1.3-7.4,2.6-11.1,3.9s-7.5,2.5-11.2,3.8c-3.7,1.2-7.2,2.4-10.9,3.6
				c-0.6,0.2-1.2,0.4-1.8,0.6c-3.3,1-6.6,2.1-9.8,3.1c-11.4,3.6-22.9,7-34.6,10.2c-3.9,1.1-7.8,2.2-11.7,3.2
				c-3.9,1-7.8,2.1-11.8,3.1s-7.9,2-11.8,3.1c-3.5,0.9-6.9,1.7-10.4,2.6c-1.1,0.3-2.2,0.6-3.3,0.8c-3.4,0.8-6.8,1.6-10.2,2.5
				c-4,0.9-8.1,1.9-12.1,2.8c-4,0.9-8.1,1.8-12.2,2.7c-8.2,1.8-16.4,3.5-24.6,5.1c-2.3,0.5-4.5,0.9-6.8,1.3c-2.7,0.5-5.4,1-8.1,1.5
				c-3.4,0.6-6.8,1.3-10.3,1.9l-12.3,2.2c-4.2,0.7-8.5,1.4-12.7,2.1c-4.1,0.7-8.2,1.3-12.3,1.9c-3.5,0.6-7.1,1.1-10.7,1.6
				c-2.5,0.4-4.9,0.7-7.4,1.1l-8.2,1.1c-8.6,1.2-17.3,2.3-26.1,3.4c-3,0.4-6,0.7-9.1,1.1l-5,0.6c-4.1,0.4-8.3,0.9-12.4,1.3
				c-3.9,0.4-7.7,0.8-11.6,1.2c-3.4,0.4-6.7,0.7-10.1,1c-2.8,0.3-5.5,0.6-8.3,0.8c-3.1,0.3-6.1,0.6-9.3,0.8l-2.9,0.3
				c-3.2,0.3-6.3,0.5-9.5,0.8c-4.3,0.3-8.5,0.7-12.8,0.9c-5.1,0.4-10.2,0.7-15.4,1c-5.1,0.3-10.3,0.6-15.4,0.9
				c-50.1,2.8-100.5,2.2-151.1,0.2c-1.4,0-2.7-0.1-3.9-0.3l-1.8-0.2c-2.5-0.3-5-1-7.4-2.1h-0.1l-1.1-0.6l-1.1-0.6
				c-0.3-0.2-0.7-0.5-1-0.7c-0.3-0.3-0.7-0.5-1-0.8c-1.4-1.1-2.6-2.4-3.7-3.8c-148.4-187.2-182.4-378.5-102.1-573.8
				c2.1-5.1,4.4-10.2,6.7-15.3c0.7-1.6,1.5-3.1,2.2-4.7c0.6-1.4,1.2-2.7,2-4.1c19.6-40.1,45.6-78,74.7-114.9l6.5-8.2
				c4.4-5.4,8.8-10.8,13.2-16.2c2.2-2.7,4.5-5.4,6.7-8.1c0.5-0.6,1-1.2,1.5-1.7c3.4-4,6.9-8.1,10.3-12.2
				c5.2-6.1,10.5-12.1,15.7-18.2c17.5-20.1,36.1-39.7,54.2-59.6c-1.1-0.5-2.3-0.9-3.4-1.4c36.8-43.9,73.7-87.8,110.1-131.8
				c4.9-5.9,8.9-7.2,19.3-4.1c38.9,11.6,78,22.4,117.4,32.3c0.1-1.3,0.2-2.6,0.2-3.9c1.1-15.7,8.9-29.5,21.6-41.8
				c156,39.1,315.4,63.1,476,71.8c12.3,0.7,19.2,3.3,25.6,10.9c38.8,46.3,80.8,89.8,125.6,130.2c-14.4,11.1-31.1,23.4-49.1,35.2
				c78.1,69.7,166.4,134,264.6,193C2670.9,3370.4,2674.6,3372.9,2668.8,3378.7z"/>
			<path class="st2" d="M2668.8,3378.7c-84.4,83.9-165.7,169.3-253.2,251.6c-2.5,2.3-4.9,4.6-7.4,6.9c-2.5,2.3-4.9,4.4-7.3,6.6
				s-4.8,4.3-7.3,6.5l-0.4,0.3c-65.6,57.9-139.7,106.5-222.2,146l-3.9,1.9c-4.7,2.2-9.4,4.4-14.1,6.6l-6.2,2.8
				c-4.3,1.9-8.7,3.9-13.1,5.8c-2.6,1.1-5.3,2.3-7.9,3.4c-4,1.7-8,3.4-12.1,5.1c-3.3,1.4-6.7,2.7-10.1,4.1s-6.9,2.8-10.4,4.1
				c-6.9,2.7-13.9,5.3-20.9,7.9c-3.7,1.3-7.4,2.7-11,4c-3.6,1.3-7.4,2.6-11.1,3.9s-7.5,2.5-11.2,3.8c-3.7,1.2-7.2,2.4-10.9,3.6
				c-0.6,0.2-1.2,0.4-1.8,0.6c-3.3,1-6.6,2.1-9.8,3.1c-11.4,3.6-22.9,7-34.6,10.2c-3.9,1.1-7.8,2.2-11.7,3.2
				c-3.9,1-7.8,2.1-11.8,3.1s-7.9,2-11.8,3.1c-3.5,0.9-6.9,1.7-10.4,2.6c-1.1,0.3-2.2,0.6-3.3,0.8c-3.4,0.8-6.8,1.6-10.2,2.5
				c-4,0.9-8.1,1.9-12.1,2.8c-4,0.9-8.1,1.8-12.2,2.7c-8.2,1.8-16.4,3.5-24.6,5.1c-2.3,0.5-4.5,0.9-6.8,1.3c-2.7,0.5-5.4,1-8.1,1.5
				c-3.4,0.6-6.8,1.3-10.3,1.9l-12.3,2.2c-4.2,0.7-8.5,1.4-12.7,2.1c-4.1,0.7-8.2,1.3-12.3,1.9c-3.5,0.6-7.1,1.1-10.7,1.6
				c-2.5,0.4-4.9,0.7-7.4,1.1l-8.2,1.1c-8.6,1.2-17.3,2.3-26.1,3.4c-3,0.4-6,0.7-9.1,1.1l-5,0.6c-4.1,0.4-8.3,0.9-12.4,1.3
				c-3.9,0.4-7.7,0.8-11.6,1.2c-3.4,0.4-6.7,0.7-10.1,1c-2.8,0.3-5.5,0.6-8.3,0.8c-3.1,0.3-6.1,0.6-9.3,0.8l-2.9,0.3
				c-3.2,0.3-6.3,0.5-9.5,0.8c-4.3,0.3-8.5,0.7-12.8,0.9c-5.1,0.4-10.2,0.7-15.4,1c-5.1,0.3-10.3,0.6-15.4,0.9
				c-50.1,2.8-100.5,2.2-151.1,0.2c-1.4,0-2.7-0.1-3.9-0.3l-1.8-0.2c-2.5-0.3-5-1-7.4-2.1h-0.1l-1.1-0.6l-1.1-0.6
				c-0.3-0.2-0.7-0.5-1-0.7c-0.3-0.3-0.7-0.5-1-0.8c-1.4-1.1-2.6-2.4-3.7-3.8c-148.4-187.2-182.4-378.5-102.1-573.8
				c2.1-5.1,4.4-10.2,6.7-15.3c0.7-1.6,1.5-3.1,2.2-4.7c0.6-1.4,1.2-2.7,2-4.1c19.6-40.1,45.6-78,74.7-114.9l6.5-8.2
				c4.4-5.4,8.8-10.8,13.2-16.2c2.2-2.7,4.5-5.4,6.7-8.1c0.5-0.6,1-1.2,1.5-1.7c3.4-4,6.9-8.1,10.3-12.2
				c5.2-6.1,10.5-12.1,15.7-18.2c17.5-20.1,36.1-39.7,54.2-59.6c-1.1-0.5-2.3-0.9-3.4-1.4c36.8-43.9,73.7-87.8,110.1-131.8
				c4.9-5.9,8.9-7.2,19.3-4.1c38.9,11.6,78,22.4,117.4,32.3c0.1-1.3,0.2-2.6,0.2-3.9c1.1-15.7,8.9-29.5,21.6-41.8
				c156,39.1,315.4,63.1,476,71.8c12.3,0.7,19.2,3.3,25.6,10.9c38.8,46.3,80.8,89.8,125.6,130.2c-14.4,11.1-31.1,23.4-49.1,35.2
				c78.1,69.7,166.4,134,264.6,193C2670.9,3370.4,2674.6,3372.9,2668.8,3378.7z"/>
			<path class="st2" d="M2668.8,3378.7c-84.4,83.9-165.7,169.3-253.2,251.6c-2.5,2.3-4.9,4.6-7.4,6.9c-2.5,2.3-4.9,4.4-7.3,6.6
				s-4.8,4.3-7.3,6.5l-0.4,0.3c-65.6,57.9-139.7,106.5-222.2,146l-3.9,1.9c-4.7,2.2-9.4,4.4-14.1,6.6l-6.2,2.8
				c-4.3,1.9-8.7,3.9-13.1,5.8c-2.6,1.1-5.3,2.3-7.9,3.4c-4,1.7-8,3.4-12.1,5.1c-3.3,1.4-6.7,2.7-10.1,4.1s-6.9,2.8-10.4,4.1
				c-6.9,2.7-13.9,5.3-20.9,7.9c-3.7,1.3-7.4,2.7-11,4c-3.6,1.3-7.4,2.6-11.1,3.9s-7.5,2.5-11.2,3.8c-3.7,1.2-7.2,2.4-10.9,3.6
				c-0.6,0.2-1.2,0.4-1.8,0.6c-3.3,1-6.6,2.1-9.8,3.1c-11.4,3.6-22.9,7-34.6,10.2c-3.9,1.1-7.8,2.2-11.7,3.2
				c-3.9,1-7.8,2.1-11.8,3.1s-7.9,2-11.8,3.1c-3.5,0.9-6.9,1.7-10.4,2.6c-1.1,0.3-2.2,0.6-3.3,0.8c-3.4,0.8-6.8,1.6-10.2,2.5
				c-4,0.9-8.1,1.9-12.1,2.8c-4,0.9-8.1,1.8-12.2,2.7c-8.2,1.8-16.4,3.5-24.6,5.1c-2.3,0.5-4.5,0.9-6.8,1.3c-2.7,0.5-5.4,1-8.1,1.5
				c-3.4,0.6-6.8,1.3-10.3,1.9l-12.3,2.2c-4.2,0.7-8.5,1.4-12.7,2.1c-4.1,0.7-8.2,1.3-12.3,1.9c-3.5,0.6-7.1,1.1-10.7,1.6
				c-2.5,0.4-4.9,0.7-7.4,1.1l-8.2,1.1c-8.6,1.2-17.3,2.3-26.1,3.4c-3,0.4-6,0.7-9.1,1.1l-5,0.6c-4.1,0.4-8.3,0.9-12.4,1.3
				c-3.9,0.4-7.7,0.8-11.6,1.2c-3.4,0.4-6.7,0.7-10.1,1c-2.8,0.3-5.5,0.6-8.3,0.8c-3.1,0.3-6.1,0.6-9.3,0.8l-2.9,0.3
				c-3.2,0.3-6.3,0.5-9.5,0.8c-4.3,0.3-8.5,0.7-12.8,0.9c-5.1,0.4-10.2,0.7-15.4,1c-5.1,0.3-10.3,0.6-15.4,0.9
				c-50.1,2.8-100.5,2.2-151.1,0.2c-1.4,0-2.7-0.1-3.9-0.3l-1.8-0.2c-2.5-0.3-5-1-7.4-2.1h-0.1l-1.1-0.6l-1.1-0.6
				c-0.3-0.2-0.7-0.5-1-0.7c-0.3-0.3-0.7-0.5-1-0.8c-1.4-1.1-2.6-2.4-3.7-3.8c-148.4-187.2-182.4-378.5-102.1-573.8
				c2.1-5.1,4.4-10.2,6.7-15.3c0.7-1.6,1.5-3.1,2.2-4.7c0.6-1.4,1.2-2.7,2-4.1c19.6-40.1,45.6-78,74.7-114.9l6.5-8.2
				c4.4-5.4,8.8-10.8,13.2-16.2c2.2-2.7,4.5-5.4,6.7-8.1c0.5-0.6,1-1.2,1.5-1.7c3.4-4,6.9-8.1,10.3-12.2
				c5.2-6.1,10.5-12.1,15.7-18.2c17.5-20.1,36.1-39.7,54.2-59.6c-1.1-0.5-2.3-0.9-3.4-1.4c36.8-43.9,73.7-87.8,110.1-131.8
				c4.9-5.9,8.9-7.2,19.3-4.1c38.9,11.6,78,22.4,117.4,32.3c0.1-1.3,0.2-2.6,0.2-3.9c1.1-15.7,8.9-29.5,21.6-41.8
				c156,39.1,315.4,63.1,476,71.8c12.3,0.7,19.2,3.3,25.6,10.9c38.8,46.3,80.8,89.8,125.6,130.2c-14.4,11.1-31.1,23.4-49.1,35.2
				c78.1,69.7,166.4,134,264.6,193C2670.9,3370.4,2674.6,3372.9,2668.8,3378.7z"/>
			<path class="st2" d="M2668.8,3378.7c-84.4,83.9-165.7,169.3-253.2,251.6c-2.5,2.3-4.9,4.6-7.4,6.9c-2.5,2.3-4.9,4.4-7.3,6.6
				s-4.8,4.3-7.3,6.5l-0.4,0.3c-65.6,57.9-139.7,106.5-222.2,146l-3.9,1.9c-4.7,2.2-9.4,4.4-14.1,6.6l-6.2,2.8
				c-4.3,1.9-8.7,3.9-13.1,5.8c-2.6,1.1-5.3,2.3-7.9,3.4c-4,1.7-8,3.4-12.1,5.1c-3.3,1.4-6.7,2.7-10.1,4.1s-6.9,2.8-10.4,4.1
				c-6.9,2.7-13.9,5.3-20.9,7.9c-3.7,1.3-7.4,2.7-11,4c-3.6,1.3-7.4,2.6-11.1,3.9s-7.5,2.5-11.2,3.8c-3.7,1.2-7.2,2.4-10.9,3.6
				c-0.6,0.2-1.2,0.4-1.8,0.6c-3.3,1-6.6,2.1-9.8,3.1c-11.4,3.6-22.9,7-34.6,10.2c-3.9,1.1-7.8,2.2-11.7,3.2
				c-3.9,1-7.8,2.1-11.8,3.1s-7.9,2-11.8,3.1c-3.5,0.9-6.9,1.7-10.4,2.6c-1.1,0.3-2.2,0.6-3.3,0.8c-3.4,0.8-6.8,1.6-10.2,2.5
				c-4,0.9-8.1,1.9-12.1,2.8c-4,0.9-8.1,1.8-12.2,2.7c-8.2,1.8-16.4,3.5-24.6,5.1c-2.3,0.5-4.5,0.9-6.8,1.3c-2.7,0.5-5.4,1-8.1,1.5
				c-3.4,0.6-6.8,1.3-10.3,1.9l-12.3,2.2c-4.2,0.7-8.5,1.4-12.7,2.1c-4.1,0.7-8.2,1.3-12.3,1.9c-3.5,0.6-7.1,1.1-10.7,1.6
				c-2.5,0.4-4.9,0.7-7.4,1.1l-8.2,1.1c-8.6,1.2-17.3,2.3-26.1,3.4c-3,0.4-6,0.7-9.1,1.1l-5,0.6c-4.1,0.4-8.3,0.9-12.4,1.3
				c-3.9,0.4-7.7,0.8-11.6,1.2c-3.4,0.4-6.7,0.7-10.1,1c-2.8,0.3-5.5,0.6-8.3,0.8c-3.1,0.3-6.1,0.6-9.3,0.8l-2.9,0.3
				c-3.2,0.3-6.3,0.5-9.5,0.8c-4.3,0.3-8.5,0.7-12.8,0.9c-5.1,0.4-10.2,0.7-15.4,1c-5.1,0.3-10.3,0.6-15.4,0.9
				c-50.1,2.8-100.5,2.2-151.1,0.2c-1.4,0-2.7-0.1-3.9-0.3l-1.8-0.2c-2.5-0.3-5-1-7.4-2.1h-0.1l-1.1-0.6l-1.1-0.6
				c-0.3-0.2-0.7-0.5-1-0.7c-0.3-0.3-0.7-0.5-1-0.8c-1.4-1.1-2.6-2.4-3.7-3.8c-148.4-187.2-182.4-378.5-102.1-573.8
				c2.1-5.1,4.4-10.2,6.7-15.3c0.7-1.6,1.5-3.1,2.2-4.7c0.6-1.4,1.2-2.7,2-4.1c19.6-40.1,45.6-78,74.7-114.9l6.5-8.2
				c4.4-5.4,8.8-10.8,13.2-16.2c2.2-2.7,4.5-5.4,6.7-8.1c0.5-0.6,1-1.2,1.5-1.7c3.4-4,6.9-8.1,10.3-12.2
				c5.2-6.1,10.5-12.1,15.7-18.2c17.5-20.1,36.1-39.7,54.2-59.6c-1.1-0.5-2.3-0.9-3.4-1.4c36.8-43.9,73.7-87.8,110.1-131.8
				c4.9-5.9,8.9-7.2,19.3-4.1c38.9,11.6,78,22.4,117.4,32.3c149.1,37.3,301.1,61.5,454.4,72.2c2.5,0.2,4.6,0.4,6.7,0.7
				c1.2,0.2,2.4,0.4,3.4,0.7c0.6,0.1,1.2,0.3,1.8,0.5c0.5,0.2,1.1,0.3,1.6,0.5c0.5,0.2,1.1,0.4,1.6,0.6c1.1,0.4,2.3,0.9,3.3,1.5
				c0.5,0.3,1.1,0.6,1.6,0.9c0.5,0.3,0.9,0.6,1.3,0.9c2.2,1.6,4.1,3.4,5.9,5.4c37,41.8,76.5,81.4,118.2,118.5
				c78.1,69.7,166.4,134,264.6,193C2670.9,3370.4,2674.6,3372.9,2668.8,3378.7z"/>
			<path class="st2" d="M2570.4,3385.8c-39,38.1-77.1,76.5-126.9,126c-37.8,35.2-80.2,85.1-134.6,129.1
				c-134,108.4-304.7,179.8-512.1,214.3c-87.3,14.5-177.1,20.5-268.6,19.1c-9.9-0.1-14.8-2.3-19.2-8.4
				c-135.1-188.6-151.9-376.4-48.2-563.4c29.3-52.9,73.2-100.4,113.7-149.1c40.7-49.1,82.1-97.9,122.6-147.1
				c5.5-6.8,10.7-7.7,21.6-4.8c161.4,44.5,327.3,74,497.8,88.5c9,0.8,15.1,2.1,20.5,8c92.3,100.5,202.6,191.5,330.7,273.2
				C2576,3376.4,2576.6,3379.7,2570.4,3385.8z"/>
			
				<linearGradient id="SVGID_13_" gradientUnits="userSpaceOnUse" x1="1246.8972" y1="1576.2781" x2="2765.3391" y2="1576.2781" gradientTransform="matrix(1 0 0 -1 0 5000)">
				<stop  offset="0" style="stop-color:#CCCCCC"/>
				<stop  offset="1" style="stop-color:#FFFFFF"/>
			</linearGradient>
			<path class="st70" d="M2764.3,3371.2c-1.8,3.4-6,7.7-12.4,14.2c-47.6,47.8-95.2,95.5-142.9,143.2l0.4,0.2
				c-49.3,48.6-96.7,98.1-148.4,145.6c-138.1,127.1-321.7,214.2-547.8,262.8c-150.7,32.4-307.3,42.2-468.9,31.4
				c-8.2-0.6-14-1.8-18.9-6.1c-0.9-0.8-1.7-1.6-2.5-2.5c-113.5-133.3-172.2-267.9-175.9-404c-2.6-93.1,20.3-186.8,68.9-281.2
				c25.4-49.4,62.7-94.7,100.6-139.8c70.7-84.1,141.1-168.4,211.1-252.8c7.2-8.6,12.9-8.9,26.3-4.6c55.3,17.9,111.3,33.9,167.9,48.1
				c-12.7,12.2-20.5,26.1-21.6,41.8c-0.1,1.3-0.1,2.6-0.2,3.9c-39.4-9.8-78.6-20.6-117.4-32.3c-10.4-3.1-14.4-1.8-19.3,4.1
				c-36.4,44-73.3,87.9-110.1,131.8c1.1,0.5,2.3,1,3.4,1.4c-18.1,19.9-36.7,39.5-54.2,59.6c-5.3,6-10.5,12.1-15.7,18.2
				c-3.5,4-6.9,8.1-10.3,12.2c-0.5,0.6-1,1.2-1.5,1.7c-2.3,2.7-4.5,5.4-6.7,8.1c-4.5,5.4-8.9,10.8-13.2,16.2
				c-2.2,2.7-4.4,5.4-6.5,8.2c-29.1,36.9-55.1,74.8-74.7,114.9c-0.7,1.4-1.3,2.7-2,4.1c-0.8,1.6-1.5,3.1-2.2,4.7
				c-2.3,5-4.6,10.1-6.7,15.3c-80.6,195.4-46.6,386.6,102.1,573.8c1.1,1.4,2.3,2.6,3.7,3.8c0.3,0.3,0.6,0.5,1,0.8
				c0.3,0.3,0.7,0.5,1,0.7c0.3,0.2,0.7,0.4,1.1,0.6c2.7,1.4,5.6,2.3,8.6,2.7c0.6,0.1,1.2,0.2,1.8,0.2c1.2,0.1,2.5,0.2,3.9,0.3
				c50.5,2,101,2.6,151.1-0.2c5.2-0.3,10.3-0.6,15.4-0.9c5.1-0.3,10.3-0.7,15.4-1c4.3-0.3,8.5-0.6,12.8-0.9c3.2-0.2,6.3-0.5,9.5-0.8
				l2.9-0.3c3.1-0.2,6.1-0.5,9.3-0.8c2.8-0.2,5.5-0.5,8.3-0.8c3.4-0.3,6.7-0.6,10.1-1c3.9-0.4,7.7-0.8,11.6-1.2
				c4.2-0.4,8.3-0.9,12.4-1.3l5-0.6c3-0.3,6-0.7,9.1-1.1c8.8-1,17.5-2.2,26.1-3.4l8.2-1.1c2.5-0.4,4.9-0.7,7.4-1.1
				c3.6-0.5,7.1-1,10.7-1.6c4.1-0.6,8.2-1.2,12.3-1.9c4.3-0.7,8.5-1.4,12.7-2.1c4.2-0.7,8.3-1.4,12.3-2.2c3.4-0.6,6.8-1.2,10.3-1.9
				c2.7-0.5,5.4-1,8.1-1.5c2.3-0.4,4.6-0.9,6.8-1.3c8.3-1.6,16.5-3.3,24.6-5.1c4.1-0.8,8.2-1.7,12.2-2.7c4-0.9,8.1-1.8,12.1-2.8
				c3.4-0.8,6.9-1.6,10.2-2.5c1.1-0.3,2.2-0.5,3.3-0.8c3.5-0.8,6.9-1.7,10.4-2.6c4-1,7.9-2,11.8-3.1s7.9-2.1,11.8-3.1
				c3.9-1,7.8-2.1,11.7-3.2c11.7-3.2,23.2-6.6,34.6-10.2c3.3-1,6.6-2.1,9.8-3.1c0.6-0.2,1.2-0.4,1.8-0.6c3.7-1.2,7.3-2.3,10.9-3.6
				s7.5-2.5,11.2-3.8c3.7-1.3,7.4-2.5,11.1-3.9c3.7-1.3,7.4-2.6,11-4c123-45,230-107.5,320.9-187.6l0.4-0.3c2.5-2.1,4.9-4.3,7.3-6.5
				s4.9-4.4,7.3-6.6c2.4-2.2,4.9-4.6,7.4-6.9c87.5-82.3,168.8-167.7,253.2-251.6c5.8-5.7,2.1-8.2-4.2-12.1
				c-98.1-59-186.3-123.4-264.6-193c18-11.8,34.7-24,49.1-35.2c11.8,10.7,23.8,21.3,36.1,31.7c44.4,37.6,90.9,72.8,139.1,105.4
				c37.7,25.6,77.1,50.3,118.2,74c6.9,4,12.1,7,15.8,9.5c1.1,0.7,2,1.4,2.8,2.1C2765.4,3364.6,2766.3,3367.4,2764.3,3371.2z"/>
			
				<linearGradient id="SVGID_14_" gradientUnits="userSpaceOnUse" x1="1996.2498" y1="1069.5077" x2="1996.2498" y2="2058.9321" gradientTransform="matrix(1 0 0 -1 0 5000)">
				<stop  offset="0" style="stop-color:#B3B3B3"/>
				<stop  offset="0.48" style="stop-color:#FFFFFF"/>
				<stop  offset="1" style="stop-color:#B3B3B3"/>
			</linearGradient>
			<path class="st71" d="M2668.8,3378.7c-84.4,83.9-165.7,169.3-253.2,251.6c-2.5,2.3-4.9,4.6-7.4,6.9c-2.5,2.3-4.9,4.4-7.3,6.6
				s-4.8,4.3-7.3,6.5l-0.4,0.3c-65.6,57.9-139.7,106.5-222.2,146l-3.9,1.9c-4.7,2.2-9.4,4.4-14.1,6.6l-6.2,2.8
				c-4.3,1.9-8.7,3.9-13.1,5.8c-2.6,1.1-5.3,2.3-7.9,3.4c-4,1.7-8,3.4-12.1,5.1c-3.3,1.4-6.7,2.7-10.1,4.1s-6.9,2.8-10.4,4.1
				c-6.9,2.7-13.9,5.3-20.9,7.9c-3.7,1.3-7.4,2.7-11,4c-3.6,1.3-7.4,2.6-11.1,3.9s-7.5,2.5-11.2,3.8c-3.7,1.2-7.2,2.4-10.9,3.6
				c-0.6,0.2-1.2,0.4-1.8,0.6c-3.3,1-6.6,2.1-9.8,3.1c-11.4,3.6-22.9,7-34.6,10.2c-3.9,1.1-7.8,2.2-11.7,3.2
				c-3.9,1-7.8,2.1-11.8,3.1s-7.9,2-11.8,3.1c-3.5,0.9-6.9,1.7-10.4,2.6c-1.1,0.3-2.2,0.6-3.3,0.8c-3.4,0.8-6.8,1.6-10.2,2.5
				c-4,0.9-8.1,1.9-12.1,2.8c-4,0.9-8.1,1.8-12.2,2.7c-8.2,1.8-16.4,3.5-24.6,5.1c-2.3,0.5-4.5,0.9-6.8,1.3c-2.7,0.5-5.4,1-8.1,1.5
				c-3.4,0.6-6.8,1.3-10.3,1.9l-12.3,2.2c-4.2,0.7-8.5,1.4-12.7,2.1c-4.1,0.7-8.2,1.3-12.3,1.9c-3.5,0.6-7.1,1.1-10.7,1.6
				c-2.5,0.4-4.9,0.7-7.4,1.1l-8.2,1.1c-8.6,1.2-17.3,2.3-26.1,3.4c-3,0.4-6,0.7-9.1,1.1l-5,0.6c-4.1,0.4-8.3,0.9-12.4,1.3
				c-3.9,0.4-7.7,0.8-11.6,1.2c-3.4,0.4-6.7,0.7-10.1,1c-2.8,0.3-5.5,0.6-8.3,0.8c-3.1,0.3-6.1,0.6-9.3,0.8l-2.9,0.3
				c-3.2,0.3-6.3,0.5-9.5,0.8c-4.3,0.3-8.5,0.7-12.8,0.9c-5.1,0.4-10.2,0.7-15.4,1c-5.1,0.3-10.3,0.6-15.4,0.9
				c-50.1,2.8-100.5,2.2-151.1,0.2c-1.4,0-2.7-0.1-3.9-0.3l-1.8-0.2c-2.5-0.3-5-1-7.4-2.1h-0.1l-1.1-0.6l-1.1-0.6
				c-0.3-0.2-0.7-0.5-1-0.7c-0.3-0.3-0.7-0.5-1-0.8c-1.4-1.1-2.6-2.4-3.7-3.8c-148.4-187.2-182.4-378.5-102.1-573.8
				c2.1-5.1,4.4-10.2,6.7-15.3c0.7-1.6,1.5-3.1,2.2-4.7c0.6-1.4,1.2-2.7,2-4.1c19.6-40.1,45.6-78,74.7-114.9l6.5-8.2
				c4.4-5.4,8.8-10.8,13.2-16.2c2.2-2.7,4.5-5.4,6.7-8.1c0.5-0.6,1-1.2,1.5-1.7c3.4-4,6.9-8.1,10.3-12.2
				c5.2-6.1,10.5-12.1,15.7-18.2c17.5-20.1,36.1-39.7,54.2-59.6c-1.1-0.5-2.3-0.9-3.4-1.4c36.8-43.9,73.7-87.8,110.1-131.8
				c4.9-5.9,8.9-7.2,19.3-4.1c38.9,11.6,78,22.4,117.4,32.3c0.1-1.3,0.2-2.6,0.2-3.9c1.1-15.7,8.9-29.5,21.6-41.8
				c156,39.1,315.4,63.1,476,71.8c12.3,0.7,19.2,3.3,25.6,10.9c38.8,46.3,80.8,89.8,125.6,130.2c-14.4,11.1-31.1,23.4-49.1,35.2
				c78.1,69.7,166.4,134,264.6,193C2670.9,3370.4,2674.6,3372.9,2668.8,3378.7z"/>
			<path class="st72" d="M2668.8,3378.7c-84.4,83.9-165.7,169.3-253.2,251.6c-2.5,2.3-4.9,4.6-7.4,6.9c-2.5,2.3-4.9,4.4-7.3,6.6
				s-4.8,4.3-7.3,6.5l-0.4,0.3c-12.5,10.9-25.3,21.6-38.4,31.9l-63.7-27.7l-412.7-179.7l219-240l130.6-143.1l41.6-45.5
				c1.1,0.4,2.2,0.9,3.3,1.5c0.5,0.3,1.1,0.6,1.6,0.9c0.5,0.3,0.9,0.6,1.3,0.9c2.2,1.6,4.1,3.4,5.9,5.4
				c37,41.8,76.5,81.4,118.2,118.5c78.1,69.7,166.4,134,264.6,193C2670.9,3370.4,2674.6,3372.9,2668.8,3378.7z"/>
			
				<linearGradient id="SVGID_15_" gradientUnits="userSpaceOnUse" x1="1400.8462" y1="1793.8429" x2="2269.6475" y2="1793.8429" gradientTransform="matrix(1 0 0 -1 0 5000)">
				<stop  offset="0" style="stop-color:#3E619E"/>
				<stop  offset="1" style="stop-color:#718BC6"/>
			</linearGradient>
			<path class="st73" d="M2269.6,3046.4l-41.6,45.5L2097.5,3235l-219,240L1465,3295l-64.2-28c14.7-23,30.6-45.3,47.6-66.7l6.5-8.2
				c4.4-5.4,8.8-10.8,13.2-16.2c2.2-2.7,4.5-5.4,6.7-8.1c0.5-0.6,1-1.2,1.5-1.7c3.4-4,6.9-8.1,10.3-12.2
				c5.2-6.1,10.5-12.1,15.7-18.2c17.5-20.1,36.1-39.7,54.2-59.6c-1.1-0.5-2.3-0.9-3.4-1.4c36.8-43.9,73.7-87.8,110.1-131.8
				c4.9-5.9,8.9-7.2,19.3-4.1c38.9,11.6,78,22.4,117.4,32.3c149.1,37.3,301.1,61.5,454.4,72.2c2.5,0.2,4.6,0.4,6.7,0.7
				c1.2,0.2,2.3,0.4,3.4,0.7c0.6,0.1,1.2,0.3,1.8,0.5c0.5,0.2,1.1,0.3,1.6,0.5C2268.6,3046,2269.1,3046.2,2269.6,3046.4z"/>
			
				<linearGradient id="SVGID_16_" gradientUnits="userSpaceOnUse" x1="1473.1069" y1="1300.4867" x2="2354.8596" y2="1300.4867" gradientTransform="matrix(1 0 0 -1 0 5000)">
				<stop  offset="0" style="stop-color:#3E619E"/>
				<stop  offset="1" style="stop-color:#718BC6"/>
			</linearGradient>
			<path class="st74" d="M2354.9,3682.5c-82.2,65-176.4,116.9-282.5,155.7c-3.7,1.3-7.4,2.7-11,4c-3.6,1.3-7.4,2.6-11.1,3.9
				c-3.7,1.3-7.5,2.5-11.2,3.8c-3.7,1.2-7.2,2.4-10.9,3.6c-0.6,0.2-1.2,0.4-1.8,0.6c-3.3,1-6.6,2.1-9.8,3.1
				c-11.4,3.5-22.9,6.9-34.6,10.2c-3.9,1.1-7.8,2.2-11.7,3.2c-3.9,1-7.8,2.1-11.8,3.1s-7.9,2-11.8,3.1c-3.5,0.9-6.9,1.7-10.4,2.6
				c-1.1,0.3-2.2,0.6-3.3,0.8c-3.4,0.8-6.8,1.6-10.2,2.5c-4,0.9-8.1,1.9-12.1,2.8c-4,0.9-8.1,1.8-12.2,2.7
				c-8.2,1.8-16.4,3.5-24.6,5.1c-2.3,0.5-4.5,0.9-6.8,1.3c-2.7,0.5-5.4,1-8.1,1.5c-3.4,0.6-6.8,1.3-10.3,1.9l-12.3,2.2
				c-4.2,0.7-8.5,1.4-12.7,2.1c-4.1,0.7-8.2,1.3-12.3,1.9c-3.5,0.6-7.1,1.1-10.7,1.6c-2.5,0.4-4.9,0.7-7.4,1.1l-8.2,1.1
				c-8.6,1.2-17.3,2.3-26.1,3.4c-3,0.4-6,0.7-9.1,1.1l-5,0.6c-4.1,0.4-8.3,0.9-12.4,1.3c-3.9,0.4-7.7,0.8-11.6,1.2
				c-3.4,0.4-6.7,0.7-10.1,1c-2.8,0.3-5.5,0.6-8.3,0.8c-3.1,0.3-6.1,0.6-9.3,0.8l-2.9,0.3c-3.2,0.3-6.3,0.5-9.5,0.8
				c-4.3,0.3-8.5,0.7-12.8,0.9c-5.1,0.4-10.2,0.7-15.4,1c-5.1,0.3-10.3,0.6-15.4,0.9c-50.1,2.8-100.5,2.2-151.1,0.2
				c-1.4,0-2.7-0.1-3.9-0.3l-1.8-0.2c-2.5-0.3-5-1.1-7.4-2.1l43.2-47.4l362.3-397l412.7,179.7L2354.9,3682.5z"/>
			<path class="st72" d="M1878.4,3475.1l-362.3,397l-43.2,47.4l-1.1-0.6l-1.1-0.6c-0.3-0.2-0.7-0.5-1-0.7c-0.3-0.3-0.7-0.5-1-0.8
				c-1.4-1.1-2.6-2.4-3.7-3.8c-148.4-187.2-182.4-378.5-102.1-573.8c2.1-5.1,4.4-10.2,6.7-15.3c0.7-1.6,1.5-3.1,2.2-4.7
				c0.6-1.4,1.2-2.7,2-4.1c8.2-16.5,17.2-32.6,27.1-48.2l64.2,28L1878.4,3475.1z"/>
			<path class="st75" d="M3330.6,2306.1c-9.7,0.3-19.3-0.1-28.9-1.2c-44.1-5.2-86.6-23.9-126.1-55.7c-53.6-43-92.5-99.5-115.4-167.9
				c-1.4-4.1-2.7-8.3-3.9-12.3c-0.6-1.8-1.1-3.7-1.7-5.5l-0.2-0.5l-6.2-27.2l-0.1-0.8l-0.1-1.2c0-0.6-0.1-1.2-0.2-1.6
				c-0.3-2.1-0.6-4.1-0.9-6.1c-0.6-4.2-1.3-8.5-1.8-12.8c-6.7-60.8,3.4-113.7,30.1-157.2c25.7-41.8,62.4-67.6,109.3-76.5
				c3.4-0.7,6.9-1.2,10.2-1.7l4.6-0.7l0.4-0.1l19.8-0.8l0.7,0.1l1,0.2c0.5,0.1,0.9,0.2,1.2,0.2c2.4,0.2,4.9,0.4,7.3,0.6
				c5.2,0.4,10.7,0.7,16.2,1.6c50.9,8.2,98.7,33.5,141.9,75.3c42,40.6,72.9,90.1,91.8,147.2c1.4,4.1,2.6,8.2,3.9,12.2
				c0.6,1.8,1.1,3.7,1.7,5.5l0.2,0.5l6.2,27.2l0.1,0.8c0,0.5,0,0.9,0.1,1.4c0,0.4,0.1,0.9,0.1,1.1c2.9,16,4.5,32.3,4.8,48.6
				c0.5,29.2-3.2,56.8-11.2,82.2c-7.2,23.6-18.8,45.6-34.1,64.8C3422.1,2282.6,3377.9,2304.8,3330.6,2306.1L3330.6,2306.1z
				 M3071.1,2061.4c0.5,1.7,1.1,3.4,1.6,5.1c1.2,4,2.5,7.8,3.7,11.6c21.2,63.1,57.1,115.2,106.6,155c36.4,29.2,75.5,46.5,116.2,51.3
				c8.8,1.1,17.8,1.4,26.7,1.1c92.1-3.5,155.1-82.1,153-191.2c-0.3-15-1.8-30-4.4-44.8c-0.2-1.2-0.3-2.4-0.4-3.6c0,0,0-0.1,0-0.1
				l-5.6-24.4l-1.6-5.1c-1.2-3.9-2.5-7.9-3.7-11.7c-17.5-52.7-46-98.4-84.7-135.7c-39.9-38.5-84-61.9-130.9-69.4
				c-4.8-0.8-9.7-1.1-14.8-1.5c-2.5-0.2-5-0.3-7.6-0.6c-0.9-0.1-1.8-0.2-2.5-0.4l0,0l-17.5,0.7l-4.3,0.7c-3.2,0.5-6.6,1-9.8,1.6
				c-43.2,8.2-77.1,31.9-100.8,70.5c-24.6,40.1-33.9,88.9-27.7,145c0.4,3.8,1,7.7,1.6,11.8c0.3,2.1,0.7,4.3,1,6.5
				c0.2,1.1,0.2,2.2,0.3,3.1c0,0.1,0,0.1,0,0.2L3071.1,2061.4z M3297.9,2203.6c-4.8,0.2-9.6-0.3-14.2-1.4c-19-4.7-34.9-24.5-37.8-47
				c-1.5-11.5-1.8-22.9-2.2-33.8l-0.1-2.5c-0.4-12.2-0.8-24.5-1.1-36.4c-0.3-12.7-0.7-25.8-1.1-38.7c-0.2-3-0.5-5.9-1.1-8.8
				c-3.7,0.8-7.3,1.7-11.1,2.7l-1.4,0.4c-2,0.6-4,1.3-5.9,2.2l-0.6,0.3c-1.1,0.5-2.3,0.8-3.5,0.8c-3.4,0-6.6-1.5-8.7-4.1
				c-2.7-3.1-4.3-7.1-4.3-11.2c0-1.4-0.1-2.7-0.2-4.1c-0.3-6.6-0.5-13.5-0.6-20.2c0-4.6,2-9,5.1-11.1c12.5-8.6,23.1-13.6,34.2-16
				c7.5-1.6,15.2-1.2,22.5,1.2c8.6,2.8,16.4,8.6,22.5,17c6,8.2,10.2,18.4,12.6,30.2c1.8,8.5,1.9,18,2.1,28.1c0,2.7,0.1,5.5,0.1,8.3
				c0.2,7.7,0.4,15.4,0.6,23.1c0.4,17.5,0.8,35.7,1.4,53.5c0.2,2.6,0.5,5.1,1.1,7.6c4.2-0.1,8.3-1.1,12-2.9c1.4-0.6,2.8-1.4,4.3-2.3
				c1.1-0.6,2.3-1.3,3.6-2c1.3-0.7,2.6-1.1,4.1-1.1c3.2,0,6.3,1.5,8.4,4c2.7,3.1,4.2,7.1,4.3,11.3l0.2,4.3c0.3,6.9,0.6,14,0.6,21
				c0,4-1.2,9.5-5.1,11.9l-0.9,0.6c-10.3,6.3-21,12.8-34.2,14.8C3301.7,2203.3,3299.8,2203.5,3297.9,2203.6L3297.9,2203.6z
				 M3240.3,2013.3c3.8-0.1,7.4,1.4,10.1,4c3.3,3.3,5.4,7.5,6.1,12.1v0.2c1.3,5.9,2.1,12,2.5,18.1c0.5,13,0.8,26.2,1.2,39
				c0.3,11.9,0.6,24.1,1.1,36.2l0.1,2.5c0.3,10.4,0.7,21.2,2,31.6c1.5,12,9.8,22.5,19.8,24.9c4.6,1.1,9.4,1.3,14,0.6
				c10.4-1.6,19.3-6.9,28.8-12.7c0-2.9-0.1-5.8-0.2-8.7c-4.5,1.8-9.3,2.9-14.1,3.1c-2.3,0.1-4.6,0-6.9-0.4c-7.1-1-13-7-14.6-15
				c-0.2-1.1-0.4-2.2-0.7-3.3c-1.1-4.5-1.7-9.1-2-13.7c-0.6-17.9-1-36.1-1.4-53.7c-0.2-7.7-0.4-15.4-0.6-23
				c-0.1-2.9-0.1-5.8-0.1-8.6c-0.1-8.9-0.2-17.3-1.5-23.4v-0.2c-2.1-10.4-7-23.7-18.6-27.4c-4.8-1.6-9.9-1.8-14.8-0.8
				c-9.1,2-17.9,6.1-28.6,13.3c0,3,0.1,6.1,0.2,9.1c5.4-1.5,10.9-2.7,16.5-3.7C3239.1,2013.4,3239.7,2013.4,3240.3,2013.3
				L3240.3,2013.3z M3274.2,1967.1c-9.3,0.4-19.2-4-27.9-12.2c-8.6-8.2-14.6-18.7-17.3-30.3c-2.8-12-1.5-23.9,3.6-32.7
				c4.8-8.3,12.4-13,21.4-13.4l2.4,10.3l-2.3-10.3c9.5-0.4,19.5,3.7,28,11.5c8.7,8,14.7,18.4,17.4,29.9c3,12.7,1.7,24.7-3.4,33.7
				C3291.7,1961.6,3283.4,1966.7,3274.2,1967.1L3274.2,1967.1z M3256.4,1888.9l2.4,10.3c-4.5,0.2-8.6,2.8-10.7,6.9
				c-2.8,4.8-3.5,11.3-2,17.8c2.9,12.6,13.6,22.9,23.4,22.5c4.6-0.2,8.8-2.8,11-6.9c2.8-4.9,3.5-11.7,1.8-18.8
				c-2.9-12.4-13.2-21.9-23.6-21.5L3256.4,1888.9z"/>
			<path class="st66" d="M3292.5,2023c2,9.4,1.6,21.7,1.9,34.2c0.7,25.5,1.2,51.1,2,76.7c0.2,4.8,1.5,10,2.5,15
				c0.3,2.5,2.4,4.5,4.9,4.7c6.6,0.9,13.4-0.2,19.4-3.2c2.8-1.2,5.4-2.9,8.1-4.3c2-1,2.7-0.4,2.9,2.5c0.3,8.3,0.7,16.7,0.8,24.9
				c0,1.8-0.6,4.1-1.7,4.7c-10.2,6.2-20.5,12.7-32.8,14.6c-5.6,0.8-11.4,0.6-16.9-0.8c-14.4-3.5-26.6-18.7-28.8-36
				c-1.5-11.8-1.8-23.6-2.2-35.2c-0.9-25.1-1.3-50.1-2.2-75.1c-0.4-5.5-1.1-11-2.3-16.4c-0.8-4.3-2.7-6.1-6.1-5.6
				c-6,0.9-11.8,2.5-17.6,4c-2.5,0.8-5,1.7-7.4,2.8c-2.1,0.9-2.9-0.3-3-2.7c-0.3-8-0.7-16-0.7-24c0-1.6,0.7-3.2,2-4.3
				c9.8-6.8,20.1-12.5,32-15c6.2-1.3,12.6-1,18.6,1C3278.5,1989.8,3288.5,2002.8,3292.5,2023z"/>
			<path class="st66" d="M3272,1956.8c-14.4,0.6-30.1-14.3-34.4-32.5c-4.3-18.7,4.3-34.8,18.8-35.4c15-0.6,30.3,13.4,34.4,31.4
				C3295.4,1939.9,3287,1956.1,3272,1956.8z"/>
			<path class="st66" d="M3371.2,1741.9c-23.7-75.8,12-150.3,78.9-164.8c66.9-14.5,140.7,35.3,164.3,111.1
				c23.8,76.3-11.7,150-79.5,164.8C3468.8,1867.6,3394.7,1817.3,3371.2,1741.9z M3595.3,1791.7c-10-4.6-18.8-8.3-27.3-12.8
				c-13.3-7-26.9-13.5-39.5-22.1c-15.9-10.8-16.8-19.9-4.9-31.7c6.1-6.1,11.4-12.8,13.2-22.1c2.8-14.3,1.9-29-2.7-42.9
				c-6.8-20.7-23-35.6-41.8-38.7c-18.8-3.1-35.9,5.9-42.2,24.5c-8.2,24.3-7,48.8,12.9,71.8c13.4,15.5,8.3,23.1-3,29.5
				c-0.6,0.4-1.3,0.7-2,0.9c-16.5,4.5-33.1,8.9-49.6,13.4c-4.6,1.2-9.3,2.1-14.9,3.3c24.9,43,57.6,69.6,100.6,75.8
				C3538.3,1846.9,3571.1,1829.1,3595.3,1791.7z"/>
			<path class="st66" d="M3678.6,1672.6c5.1,1.8,7.9,2.8,10.7,3.9c161.1,60.8,322.1,121.5,483.2,182.2c12.7,4.8,14.6,7.7,14.6,23.2
				c0,18.1,0,36.3,0,54.4c0,12.7-2.6,14.9-13.1,11.1c-107.9-40.5-215.8-81.1-323.7-121.6l-161.8-60.8c-12.1-4.6-14.3-7.9-14.3-22.6
				c0-19.4-0.3-38.8,0.2-57.9C3674.5,1679.6,3677.3,1676,3678.6,1672.6z"/>
			<path class="st66" d="M4186.5,2013.4c0,3.4,0.1,8,0.1,12.6c0,16.6,0,33.2-0.1,49.7c0,13.9-2.3,15.7-14.1,11.3l-332-125.3
				c-50.8-19.2-101.7-38.4-152.5-57.6c-12.3-4.6-14.3-7.8-14.3-22.5c0-18.4,0.1-36.8,0.2-55.2c0.1-12.7,2.5-14.6,13.3-10.6
				l381.3,143.7c35.4,13.3,70.9,26.8,106.3,40.1C4180.1,2001.7,4184.4,2004.7,4186.5,2013.4z"/>
			<path class="st76" d="M2945.4,1776.7l64-164.2l127.8-77.4c0,0,70.9,23.4,0,77.4s-132.4,187.2-132.4,187.2L2945.4,1776.7z"/>
			<path class="st77" d="M2189.5,2652.1c0,0,136.5-91.9,165.4-65.6c28.9,26.3,63.8,65.2,39.8,196.7c-24,131.5-110.9,92.1-110.9,92.1
				s-89-76.1-94.3-84C2184.2,2783.4,2189.5,2652.1,2189.5,2652.1z"/>
			<path class="st17" d="M3430,1111c4.4,36.6-16.6,69.3-47,73c-30.4,3.7-58.6-23.1-63-59.7s16.6-69.3,47-73S3425.6,1074.4,3430,1111
				z"/>
			<path class="st17" d="M3044.3,1014.7c-2,0.3-4,0.1-5.9-0.7l-386.8-145.5c-9-3.4-15.1-16.4-13.7-29.1c1.4-12.7,9.8-20.2,18.8-16.9
				l386.8,145.5c9,3.4,15.1,16.4,13.7,29.1C3056.1,1006.9,3050.8,1013.7,3044.3,1014.7z"/>
			<line class="st2" x1="1176.6" y1="4038.9" x2="1176.6" y2="4026.3"/>
			<path class="st3" d="M4054.6,3479.9c-39.4-15.4-104.1-2.5-143.1,28.3c-39,30.8-38.2,68.9,1.4,84c40.3,15.4,102.6,2.9,142.7-28.7
				C4095.4,3532.2,4095,3495.6,4054.6,3479.9z"/>
			<polygon class="st78" points="3980.6,3746.1 3433.4,3537.7 3822.6,3035.3 4356.8,3242.9 			"/>
			<polygon class="st4" points="3955.5,4408.8 3409.1,4179.5 3433.4,3537.7 3980.6,3746.1 			"/>
			<polygon class="st5" points="4324.6,4093.3 3955.5,4408.8 3980.6,3746.1 4356.8,3243.1 			"/>
			<path class="st79" d="M3924.8,3434.2c-9,13.1-21.5,30.7-36.2,47.1c-31.7,35.3-69.4,64.7-111.3,86.8
				c-20.1,10.6-41.1,19.5-62.7,26.5c-2.5,0.8-4.9,1.5-6.6-0.4c-2.5-2.7-0.5-6.5,4.1-8.2c10.3-3.8,20.8-7.2,31-11.5
				c52.5-22.1,98.1-54,136-96.1c10.2-11.3,19.4-23.4,28.3-35.4c11.1-15,21.3-30.5,32.1-45.6c17.1-23.8,10.9-52.7-14.4-61.7
				c-20.6-7.4-49.4,2.5-64,22.4c-10.9,15-21.4,30.2-31.9,45.4c-16.4,23.7-36.7,44.4-60,61.3c-0.9,0.7-1.9,1.4-2.9,2
				c-3.2,2.1-6.3,2.1-7.8-0.1c-1.5-2.2-0.3-4.7,2.8-7c3.6-2.7,7.2-5.3,10.7-8c18.9-14.9,35.5-32.6,49.1-52.5
				c9.8-14.3,19.8-28.4,29.8-42.7c16-22.8,43.9-35.7,69.6-32.1c24.8,3.4,40.7,22.7,38.5,47.2c-0.9,10.2-4.7,20-11.3,29.5
				C3941.2,3410.6,3934.7,3420.2,3924.8,3434.2z"/>
			<path class="st79" d="M3973.7,3449c-11.7,15.5-23,31.2-35.1,46.4c-15.6,19.6-33.7,37.4-53,54.2c-3.2,2.8-6.3,3.2-8.2,1.2
				s-1.1-4.7,2.1-7.5c27.8-24,52.6-51.4,73.6-81.5c10.6-15.2,21.3-30.2,31.7-45.4c29.3-42.5,24.2-92.6-11.9-117.7
				c-41.5-28.8-108.6-15.4-148.5,30.1c-7.6,8.6-13.6,18.2-20.3,27.4c-3.6,4.9-7,10.1-10.6,15c-1.9,2.6-5,3.6-7.4,2.5s-2.9-3.6-1-6.1
				c10.2-14.2,19.2-29.2,30.9-42.4c31.1-35.5,69.8-52.7,113.6-50.7c70.4,3.2,105.4,68.4,71.4,132.4c-5.8,10.9-13.7,21.1-20.7,31.6
				c-2.3,3.5-4.8,6.9-7.2,10.3L3973.7,3449z"/>
			<path class="st79" d="M3902.2,3424.9c-10.5,15.8-22.2,30.9-34.9,45.1c-3.7,4-6.6,5.3-9.1,3.7c-2.5-1.6-1.9-4.3,1.7-8.7
				c8.6-10.6,17.4-21.1,25.4-32c11.3-15.4,22.1-31.1,32.8-46.7c7.1-10.5,4.2-21.9-5.9-26.2c-9.8-4.2-23.1,0.4-30.4,10.7
				c-11.1,15.7-21.7,31.5-33,47.1c-38.2,52.7-88.8,89-151.8,108.6c-10.5,3.3-21.2,5.2-31.9,7.7c-0.8,0.2-1.5,0.3-2.3,0.4
				c-3.3,0.3-5.4-1.1-5.4-3.7s2.3-4.9,5.8-5.6c9.5-2.1,19.1-3.8,28.6-6.6c49-13.8,93.1-41.1,127.4-78.7c9-9.8,17-20.5,24.8-31.1
				c10.2-13.8,19.7-28,29.5-42c9-12.8,24.8-19.6,38.9-17c13.7,2.5,21.7,13.8,19.4,27.5c-0.9,5.5-3.6,10.7-7.1,15.6
				C3918,3402.3,3911.2,3412,3902.2,3424.9z"/>
			<path class="st79" d="M3780.2,3347.8c-10.1,14.4-16.9,25.7-25.4,36c-27.1,32.8-61.6,50.4-102.4,53.7c-3.5,0.3-5.5-1.5-5.1-4.2
				c0.4-3,2.9-4.9,6.9-5.2c28-2.1,53.6-12.6,76.4-31.8c9.2-7.9,17.3-17,24.1-27c11.6-16.5,22.8-33.2,35-49.5
				c38.8-51.8,110.5-80.6,167.8-67.8c30.8,6.9,54,22.4,69.3,46.7c1.1,1.8,1.8,3.6,0.3,5.9c-1.5,2.7-4.9,3.6-7.5,2.1
				c-0.6-0.4-1.2-0.8-1.6-1.4c-4.9-6.3-9.4-13.2-15.2-18.7c-48.4-46.4-141.6-33.6-196.2,27.1
				C3795.8,3325.4,3787.2,3338.6,3780.2,3347.8z"/>
			<path class="st79" d="M4030.7,3191.7c50.6,24.2,81.1,63.1,90.4,117.4c0.4,2.2,0.1,4.4-2.2,5.9c-1.4,0.9-3.9,1.6-4.9,1.1
				c-1.6-0.9-2.7-2.5-3.1-4.3c-3.9-22.8-12.1-43.5-25.2-61.8c-46.6-65.2-142.7-84.9-234.8-48c-25.9,10.3-50,24.4-71.8,41.8
				c-0.8,0.6-1.5,1.2-2.2,1.7c-2.5,1.7-5.3,1.8-6.8,0c-1.5-1.8-1.3-3.9,0.7-6.1c0.9-0.9,1.9-1.7,2.9-2.5
				c69.4-53.2,142.2-72.5,218.3-57.9C4005.4,3181.6,4018.4,3185.9,4030.7,3191.7z"/>
			<path class="st79" d="M4008.3,3211.8c1.5,0.7,3.1,1.4,4.6,2.1c2.5,1.2,3,3.7,1.4,6c-1.6,2.5-4.6,3.5-7.4,2.5
				c-5.2-1.9-10.2-4.1-15.5-5.8c-38.8-12.3-80.1-10.9-124,4.2c-36.9,12.5-70.1,33.9-96.7,62.3c-8.3,9-16,18.6-23.1,28.6
				c-10.6,14.4-20.4,29.2-30.7,43.7c-11.6,16.3-27.4,26.5-46.9,30.9c-2.9,0.7-5.3,0.5-6.4-2c-1.2-2.9,1.2-6.1,5.5-7
				c9.9-2.1,19.3-6,27.1-12.9c5-4.4,9.6-9.3,13.5-14.7c12.3-17,23.7-34.6,36.4-51.4c34.7-45.6,80.4-76,135.8-91.3
				c38.8-10.7,75.5-10.7,110-0.8c5.6,1.6,10.9,3.7,16.4,5.5C4008.3,3211.7,4008.3,3211.7,4008.3,3211.8z"/>
			<path class="st79" d="M3984.8,3458.1c7.1-10.1,14.3-20.2,21.2-30.4c23.1-33.7,30.1-67.3,21.4-100.7c-0.9-3.4,0.3-6,3.6-7.3
				c3-1.2,5.5,0,6.4,3.1c7.9,28.9,4.2,58.9-11.5,89.7c-3.5,6.7-7.5,13.2-11.9,19.5c-13.6,19.7-27,39.4-41.4,58.7
				c-37.7,50.3-84.3,92.2-139.9,125.9c-5.9,3.6-12,7-18,10.4c-4,2.3-7,2.1-8.2-0.3c-1.3-2.5,0.2-5.2,4.2-7.4
				c40.4-22.2,77.5-50.1,110.2-82.6c20.3-20.2,38.7-42.2,55-65.7C3978.9,3466.6,3981.9,3462.3,3984.8,3458.1
				C3984.8,3458.1,3984.8,3458.1,3984.8,3458.1z"/>
			<path class="st79" d="M4038.1,3482.4c-13.3,17.4-26.6,34.8-39.9,52.2c-0.7,0.9-1.4,1.8-2.3,2.6c-2.3,2.3-5.1,2.9-7.2,1.5
				c-2.1-1.4-2.2-3.9-0.2-6.4c3.5-4.5,7.4-8.8,10.8-13.4c6.4-8.4,12.9-16.9,19-25.5c11.4-16,23.1-31.9,33.7-48.2
				c41.9-65.2,45.1-124.9,9.4-179c-7.8-11.8-18.1-21.5-30-29.9c-2.1-1.2-2.9-3.9-1.7-6c0.3-0.5,0.6-0.9,1-1.2
				c2.4-2.5,5.3-2.7,8.2-0.6c56.8,41.2,72.6,113,40.8,186c-5.4,12.3-12,24.1-19.7,35.1c-7.5,10.8-15.1,21.6-22.6,32.3
				C4037.7,3482.2,4037.9,3482.3,4038.1,3482.4z"/>
			<path class="st79" d="M3990.1,3233.5c69.3,31.8,93.9,97.6,68.9,165.6c-0.3,0.9-0.7,1.8-1,2.7c-1,2.8-3.7,4.5-6.6,4.3
				c-2.8-0.4-4-2.5-3-5.5c2-6.4,4.5-12.7,5.9-19.1c11.8-53.4-2.2-95.7-43.5-124.8c-36.1-25.5-80.5-29.7-131.2-15.2
				c-0.7,0.2-1.3,0.4-2,0.6c-3.3,0.9-5.6-0.2-6-2.8c-0.4-2.6,1.5-5.1,4.7-6.1c4.4-1.4,8.8-2.6,13.3-3.7
				C3929.7,3220,3966,3222.8,3990.1,3233.5z"/>
			<path class="st79" d="M3922.4,3305.5c-1.8,2.6-4.3,2.9-6.9,2.9c-18.2,0.1-35.5,5.6-52,16.4c-9.9,6.4-18.4,14.7-25.3,24.3
				c-10.8,15.3-21.2,30.7-32.2,45.9c-38.5,53-89.7,83.6-153.6,91.7c-5.3,0.7-7.6-0.6-7.4-3.8c0.2-3.2,2.8-5,8.4-5.6
				c36.3-4,69.9-17.6,100.7-40.8c16.1-12,30.2-26.5,41.8-42.9c11.2-15.7,22-31.6,33.2-47.3c17.8-24.7,41.7-40.1,71.4-45.8
				c6.1-1,12.3-1.5,18.4-1.5C3923.1,3299,3924.6,3302.4,3922.4,3305.5z"/>
			<path class="st79" d="M3882.4,3411.4c-11.2,16.5-22.9,32.7-36.9,47.7c-31.6,34.2-70.2,61.2-113,79.2
				c-17.8,7.5-36.3,13.4-55.2,17.6c-0.8,0.2-1.5,0.4-2.3,0.5c-3.2,0.5-5.5-0.9-5.5-3.4c-0.1-2.5,2.1-4.9,5.3-5.7
				c1.8-0.5,3.6-0.8,5.3-1.2c60-14.2,111.9-44,155.5-89.2c10.9-11.5,20.9-23.8,29.8-36.9c9.3-13.5,18.8-26.9,28.2-40.4
				c0.4-0.6,0.8-1.1,1.2-1.7c2.5-3.4,5.4-4.7,8-3.6c2.6,1.1,2.8,3.9,0.5,7.3c-3.1,4.5-6.1,8.9-9.3,13.4
				C3890.1,3400.5,3886.2,3406,3882.4,3411.4z"/>
			<path class="st79" d="M4014.9,3472.6c-13.9,20.3-28.5,40.2-45,59c-29.5,33.5-63.1,63.2-100,88.4c-2,1.4-4.1,2.8-6.1,4.1
				c-3.5,2.3-6.3,2.3-7.8,0.2c-1.5-2.1-0.6-5,3-7.4c20.3-13.5,39.7-28.4,58-44.6c30.3-26.8,57.2-57.1,80.3-90.2
				c10.9-15.7,21.9-31.4,32.9-47.1c1.7-2.5,3.2-4.9,4.7-7.4c2.1-3.4,4.9-4.9,7.8-4c2.8,0.9,3.4,3.7,1.2,7.1
				c-6.3,9.5-12.9,18.9-19.3,28.3C4021.3,3463.5,4018,3468.1,4014.9,3472.6z"/>
			<path class="st79" d="M3853.7,3250.5c-1.9,1.2-3.1,2.3-4.4,2.9c-32.2,15.6-59.8,39.3-80.1,68.9c-10,14.6-20,29.1-30.5,43.5
				c-19.9,27.2-46.5,42.6-79.2,46.6c-3,0.4-5.5,0-6.1-2.9c-0.4-2.3,0.8-4.3,3.3-5.5c1.3-0.6,2.8-0.9,4.2-0.9
				c16.5-1.8,32.3-7.8,45.8-17.5c10-7,18.6-15.8,25.5-25.8c11.8-16.9,23.4-34,35.7-50.6c20.3-27.2,46.6-48.2,77.9-63.6
				c2.7-1.3,5.3-1.9,6.8,0.1C3853.6,3246.7,3853.4,3248.7,3853.7,3250.5z"/>
			<path class="st79" d="M3928.7,3470c-40.4,52.6-92.4,95.1-152,124.4c-11,5.4-22.4,10-33.6,15c-1.1,0.5-2.2,0.9-3.3,1.2
				c-3.1,1-5.8,0.1-6.4-2.3c-0.6-2.3,1.2-4.9,4.3-6.3c7.4-3.1,14.9-6,22.2-9.4c51.1-23.2,95.9-54.8,133.8-95.5
				c9.9-10.6,18.8-22,28.1-33.1c2.8-3.3,5.8-4.7,8.3-3.4s2.3,4-0.2,7.4C3929.5,3468.8,3929,3469.6,3928.7,3470z"/>
			<path class="st79" d="M4068.5,3479.5c-7,9.9-13.9,19.9-20.9,29.8c-1.4,2-3.3,3.6-5.7,3.1c-1.5-0.3-3.3-1.4-3.6-2.7
				c-0.3-1.4,0.6-3.6,1.7-5.1c11.1-15.9,22.3-31.8,33.2-47.7c24.8-36,38-73.4,39.5-112.1c0.1-2.1,0.2-4.2,0.2-6.3
				c-0.2-3.1,2-5.8,5.1-6.4c3.1-0.6,5.1,1.2,5.2,4.5c0,16.5-2.1,33-6.4,49c-7.2,26.9-19.1,52.3-35.1,75
				C4077.3,3466.8,4072.9,3473.1,4068.5,3479.5L4068.5,3479.5z"/>
			<path class="st79" d="M3961.7,3423.3c-4.5,6.4-8.9,12.8-13.5,19.2c-2.4,3.3-5.4,4.6-8,3.3c-2.5-1.3-2.6-3.9-0.4-7.1
				c7.6-10.9,15.3-21.7,22.8-32.6c21.9-31.8,17.2-70.1-10.8-87.5c-3.5-2-7.1-3.9-10.7-5.5c-2.9-1.4-3.7-3.6-2-6.3
				c1.5-2.7,4.8-3.7,7.5-2.5c27.9,11.7,41.3,32.9,39.7,63.3c-0.8,16-7.3,31.3-17.9,46C3966.3,3416.8,3964,3420.1,3961.7,3423.3
				C3961.8,3423.3,3961.7,3423.3,3961.7,3423.3z"/>
			<path class="st79" d="M3845.2,3492.3c-0.8,0.8-1.8,1.8-2.9,2.7c-43.6,39.1-93,66.2-148.3,81.3l-0.7,0.2c-4.7,1.2-7.2,0.4-7.5-2.6
				c-0.3-3,2.1-5.2,6.6-6.4c53-14.3,101.9-41,142.7-77.8c1.1-1.1,2.2-2.1,3.5-3c2.3-1.5,4.5-1.8,6.3-0.3
				C3846.7,3487.8,3846.6,3489.8,3845.2,3492.3z"/>
			<path class="st79" d="M3771.6,3400.7c-9,10.3-19.1,19.5-30.2,27.4c-28.2,20.1-58.6,31.7-91.1,34.1c-1.4,0.2-2.7,0-4-0.4
				c-2-1-2.5-2.9-1.5-5.1c1-2.2,3.1-3.4,5.7-3.8c8-1.1,16-1.6,23.9-3.5c34.2-8.1,63.6-25.3,87.8-51.7c0.6-0.7,1.2-1.4,1.9-2
				c2.4-2.5,5.3-3.3,7.4-2.1S3773.8,3397.7,3771.6,3400.7z"/>
			<path class="st79" d="M3706.5,3311.5c10.8-13.9,21.5-27.8,32.4-41.6c3.1-3.7,6.4-7.3,10-10.7c2.7-2.8,5.7-3.2,7.9-1.5
				c2,1.6,1.6,4.4-1,7c-11.4,11.6-21.8,24.2-31.1,37.6c-9.7,13.9-19.4,27.8-29.2,41.8c-2,2.9-4.6,4.1-7.1,3.5
				c-2.9-0.7-3.6-3.7-1.4-6.9c6.7-9.7,13.5-19.3,20.2-29L3706.5,3311.5z"/>
			<path class="st79" d="M3862.9,3567.7c-0.9,0.7-2,1.8-3.2,2.7c-24.5,18.4-50.8,34.3-78.5,47.5c-2.6,1.2-5.2,2.6-7.9,3.8
				c-3.4,1.5-6.1,0.8-7-1.5s0.7-5.2,4.2-6.8c30-13.8,58.5-30.8,84.9-50.6c2.5-1.9,4.9-2.7,7.2-1.1
				C3864.4,3563.1,3864.3,3565.1,3862.9,3567.7z"/>
			<path class="st79" d="M3650.5,3511.1c-0.3-1.8-1.2-3.4-0.8-5.1c0.6-2.5,2.8-3.8,5.6-4.3c7.8-1.3,15.5-2.5,23.3-4.3
				c19.1-4.5,37.6-11.3,54.9-20.5c0.3-0.2,0.6-0.3,0.9-0.5c3.8-2,6.6-1.7,7.8,0.8c1.2,2.5-0.4,5.4-4.4,7.3
				c-8.2,3.9-16.5,8-24.9,11.4c-18.2,7.4-37.2,12.4-56.6,15C3654.8,3511,3653,3510.9,3650.5,3511.1z"/>
			<path class="st79" d="M3975.1,3560.7c-4.9,4.9-10.7,11-17,16.8c-10.3,9.6-20.9,18.9-31.5,28.3c-3,2.6-6.1,2.8-7.9,0.9
				c-1.8-1.9-1-4.6,1.8-7c16.8-14,32.8-29,47.9-44.8c2.5-2.6,5.4-3.1,7.4-1.7C3977.9,3554.4,3978,3556.9,3975.1,3560.7z"/>
			<line class="st2" x1="1588.2" y1="2553.1" x2="1588.2" y2="2539.2"/>
			<path class="st80" d="M2764.5,2870c-18.7,128.4-118.4,356.7-140.2,405.5c-48.2-32.6-94.6-67.8-139.1-105.4l14.5-74.3
				c0,0-20,18.9-50.6,42.6c-14.4,11.1-31.1,23.4-49.1,35.2c-17.3,11.5-35.3,21.9-53.8,31.2c-31.5,15.6-64,26.8-93.6,27.5
				c-45.6,1.1-101.6,3.7-155,2.7c-69.7-1.4-135.2-9-167.9-34.2c-48.4-37.4-112.4-89.4-126.9-177.8c-2.8-17.1-3.7-34.5-2.7-51.9
				c0.1-1.3,0.2-2.6,0.2-3.9c1.1-15.7,8.9-29.5,21.6-41.8c87.5-84.2,409.7-92.2,409.7-92.2l66.6-10.9c0,0,180.2-75.8,224.9-83.6
				c44.6-7.9,128.7-18.4,154.9-13.1C2704.1,2730.8,2785.5,2725.6,2764.5,2870z"/>
			<g>
				<defs>
					<path id="SVGID_17_" d="M2764.5,2870c-18.7,128.4-118.4,356.7-140.2,405.5c-48.2-32.6-94.6-67.8-139.1-105.4l14.5-74.3
						c0,0-20,18.9-50.6,42.6c-14.4,11.1-31.1,23.4-49.1,35.2c-17.3,11.5-35.3,21.9-53.8,31.2c-31.5,15.6-64,26.8-93.6,27.5
						c-45.6,1.1-101.6,3.7-155,2.7c-69.7-1.4-135.2-9-167.9-34.2c-48.4-37.4-112.4-89.4-126.9-177.8c-2.8-17.1-3.7-34.5-2.7-51.9
						c0.1-1.3,0.2-2.6,0.2-3.9c1.1-15.7,8.9-29.5,21.6-41.8c87.5-84.2,409.7-92.2,409.7-92.2l66.6-10.9c0,0,180.2-75.8,224.9-83.6
						c44.6-7.9,128.7-18.4,154.9-13.1C2704.1,2730.8,2785.5,2725.6,2764.5,2870z"/>
				</defs>
				<clipPath id="SVGID_18_">
					<use xlink:href="#SVGID_17_"  style="overflow:visible;"/>
				</clipPath>
				<g class="st81">
					<path class="st77" d="M1731.6,3165.8c1.1-35.5,46.5-70.8,77-78c17.9-4.2,37.1-8.7,54.7-12.3c23.8-4.9,33.5,1.3,52.9,13.8
						c50.9,32.7,120.2,45,183.7,51.4c38.4,3.9,87.1,6.9,120.4,1.9c33.7-5.1,65.2-7.4,97.7-12.5c26.7-4.3,62.9-9.9,88.7-20.7
						c24.6-10.2,49.1-30.4,77.7-30.2c7.7-9.5,29.6-13.1,41.5-7c14.9,7.7,16.5,20.8,17.7,36.8c2.7,34.1-20.1,63.4-29.6,89.6
						c-11.5,31.5-30.2,68.5-50.8,96.2c-31.1,41.6-98.6,65.9-147.6,75.4c-64.1,12.5-129.4,19.8-196.3,17.3
						c-69.8-2.6-138-25.3-204.9-43.5c-50.4-13.7-87.2-30.3-104.8-79.6c-11.9-33.3-21.4-86.1-11.4-122.2
						c6.4-23.1,29.7-41.7,45.2-60.7"/>
				</g>
			</g>
			
				<linearGradient id="SVGID_19_" gradientUnits="userSpaceOnUse" x1="1886.4916" y1="1875.6652" x2="2201.5483" y2="2816.8994" gradientTransform="matrix(1 0 0 -1 0 5000)">
				<stop  offset="0" style="stop-color:#F15A24"/>
				<stop  offset="0.12" style="stop-color:#F36C33"/>
				<stop  offset="0.32" style="stop-color:#F68547"/>
				<stop  offset="0.53" style="stop-color:#F79856"/>
				<stop  offset="0.75" style="stop-color:#F9A25F"/>
				<stop  offset="1" style="stop-color:#F9A662"/>
			</linearGradient>
			<path class="st82" d="M1895.4,1974.7l162.1,9.2l111.6,20.3l272.4,55.8c0,0,51.7,146.6-86.6,403.9
				c-85.8,155.8-124.2,285.4-5.3,448.1c0,0-93.2,183.8-311.8,166.3s-234.3-89.3-234.3-89.3s-50.8-320.3-26.2-476.1
				C1801.8,2357.1,1800,2105.1,1895.4,1974.7z"/>
			<path class="st12" d="M2370.7,2096.3c23.6-42,64.2-37.7,64.2-37.7s340.1,146.2,350.6,109.5c10.5-36.7,161-409.6,161-409.6
				l73.5,24.5c0,0-103.3,527.6-148.8,561.3c-45.5,33.8-442.8-92.2-474.4-123.7C2365.3,2189.2,2355.1,2124,2370.7,2096.3z"/>
			<g>
				<defs>
					<path id="SVGID_20_" d="M2370.7,2096.3c23.6-42,64.2-37.7,64.2-37.7s340.1,146.2,350.6,109.5c10.5-36.7,161-409.6,161-409.6
						l73.5,24.5c0,0-103.3,527.6-148.8,561.3c-45.5,33.8-442.8-92.2-474.4-123.7C2365.3,2189.2,2355.1,2124,2370.7,2096.3z"/>
				</defs>
				<clipPath id="SVGID_21_">
					<use xlink:href="#SVGID_20_"  style="overflow:visible;"/>
				</clipPath>
				<g class="st83">
					<path class="st84" d="M2370.3,2160c0,0,412,190.9,451.7,124.9c39.6-66,167-522,175.6-526.4c8.6-4.4,78.1-64.5,81,134.5
						s53.9,167.5-21.1,329.3s32.8,226.4-116.9,264.2c-149.7,37.7-67.8,94.7-309.1,0s-214.2-58.7-261.1-142.2s-89.4-116.4-86.5-134.1
						"/>
				</g>
			</g>
			<path class="st85" d="M2172.4,1869.7c8.5-6.6-68.6-63.7-68.6-63.7l-46.9,24.9l3.5,22.7c0,0,10.2,28.5,9.2,60.6
				c26.5,1.2,65.2,5.8,99.1,20.7C2168.2,1903.7,2168.2,1872.9,2172.4,1869.7z"/>
			<path class="st76" d="M2069.6,1914.3c-0.8,24.6-8.1,51.3-31.8,68.9c0,0,5.2,44.6,46.6,46.6c41.4,2,81.4-19,84.7-25.6
				c1.7-3.3,0.3-36.6-0.4-69.3C2134.8,1920,2096.1,1915.5,2069.6,1914.3z"/>
			<path class="st86" d="M2252.7,1609.3c-7.4,3.2-14.9,5.9-22.5,8.3c-35.3,11.3-70.1,13.7-87.1,8.8c-47.8-13.5-37.9,56.8-37.9,56.8
				c10.2,54.2-17.5,50.2-29.3,43.2c-11.8-7-48.3,4.2-37,46.2c11.2,42,48.8,41.4,48.8,41.4c5.9,12.2,12.7,23.9,20.5,35
				c-9.5,16.3-42.8,22.7-42.8,22.7c-81.6-59.9-116.7-96.6-135.8-150.9c-87.3-248.6,221.1-224.4,212.8-275.3
				c-8.4-50.9,127.1-120.6,182.3,15.1C2356,1537.9,2308.4,1585.3,2252.7,1609.3z"/>
			<path class="st76" d="M2252.7,1609.3c16.2,71.5,52,271.8-49.3,294.4c-41.3,9.2-75-25.7-95.3-54.7c-7.7-11.1-14.6-22.8-20.5-35
				c0,0-37.5,0.6-48.8-41.4c-11.3-42,25.3-53.1,37-46.2c11.8,7,39.5,11,29.3-43.2c0,0-9.8-70.4,37.9-56.8
				c16.9,4.8,51.7,2.5,87.1-8.8C2237.8,1615.2,2245.3,1612.4,2252.7,1609.3z"/>
			<ellipse class="st87" cx="1221.9" cy="2224.1" rx="165.1" ry="56.4"/>
			<path class="st88" d="M1112.9,1495.2c-17.7-59.2-4.6-126.7,33.9-175.1c10-12.5,21.7-24.2,26.6-39.4
				c13.3-41.4-29.7-80.1-33.2-123.4c-3.6-44.8,34.6-80.6,69.4-109c17.6-14.3,37-29.4,59.7-29.6c28.2-0.3,51.6,22.9,64.1,48.2
				s17.6,53.7,29.6,79.2c12.3,26,31.4,48.1,45.9,72.9c14.5,24.8,24.3,54.9,15.4,82.2c-11.6,35.9-51.5,56.4-65,91.7
				c-20.7,53.9,28,117,5.8,170.3c-9.7,23.3-31.7,39.7-55.3,48.4C1221,1644.2,1138.7,1581.4,1112.9,1495.2z"/>
			<polygon class="st89" points="1249.1,1602.7 1232.1,1810.9 1249.1,1810.9 1259.8,1602.7 			"/>
			<path class="st89" d="M1263.9,1055.5c-5.7,85.2-11.1,170.4-14,255.7c-3,87.2-12.7,183.7,5.6,269.7c0.6,3,5.7,2.5,5.4-0.7
				c-11.8-174.8-0.3-350,9.1-524.7C1270.2,1051.6,1264.1,1051.7,1263.9,1055.5L1263.9,1055.5z"/>
			<path class="st90" d="M1209.2,1551.7c5.1,0,5.1-7.9,0-7.9S1204.1,1551.7,1209.2,1551.7z"/>
			<path class="st90" d="M1159.6,1517.7c2,0.7,4.2,0.2,5.6-1.4c2.8-2.5-0.9-7.4-4.1-5.3l-0.7,0.4c-1.7,0.1-3.1,1.7-2.9,3.4
				C1157.6,1516.2,1158.4,1517.3,1159.6,1517.7L1159.6,1517.7z"/>
			<path class="st90" d="M1194.8,1474.1c4.9,0,4.9-7.7,0-7.7C1189.9,1466.4,1189.9,1474.1,1194.8,1474.1z"/>
			<path class="st90" d="M1160,1432.6l0.8-0.6c1-1,1-2.7,0-3.8l-0.8-0.7c-2.3-1.9-6.1-0.8-6.1,2.5
				C1153.9,1433.4,1157.7,1434.5,1160,1432.6z"/>
			<path class="st90" d="M1308.5,1542.1l1-0.7c1.3-0.8,1.7-2.4,0.9-3.7c-0.2-0.4-0.5-0.7-0.9-0.9l-1-0.7
				C1302.1,1532.1,1302.1,1546.1,1308.5,1542.1z"/>
			<path class="st90" d="M1335.8,1530.7c1.4-0.7,2.7-1.8,3.5-3.2c1.3-1.9-0.5-4.3-2.5-4.3c-1.7-0.1-3.3,0.3-4.7,1.1
				C1327.8,1526.3,1331.6,1533,1335.8,1530.7L1335.8,1530.7z"/>
			<path class="st90" d="M1188.4,1130.2c0,0.5-0.1,1-0.1,1.4c-0.4,4.8,7.8,4.8,7.4,0c0-0.5-0.1-1-0.1-1.4c-0.1-2-1.8-3.5-3.8-3.4
				C1189.9,1126.9,1188.4,1128.3,1188.4,1130.2L1188.4,1130.2z"/>
			<path class="st90" d="M1204.9,1202.9c5,0,5-7.8,0-7.8C1199.8,1195.2,1199.8,1202.9,1204.9,1202.9z"/>
			<path class="st90" d="M1236.9,1142.5l0.9,0.1c1.8,0.4,3.5-0.7,3.9-2.4c0.1-0.5,0.1-1,0-1.5c0-0.3-0.1-0.6-0.1-0.9
				c-0.4-3-4.6-3.5-6.4-1.7S1233.9,1142,1236.9,1142.5z"/>
			<path class="st90" d="M1363.5,1261.4l1.1,0.6c2.3,1.3,5.2,0.6,6.6-1.7c1.3-2.3,0.6-5.2-1.7-6.6c-1.5-0.9-3.4-0.9-4.9,0l-1.1,0.6
				c-2,1.2-2.6,3.7-1.4,5.7C1362.4,1260.6,1362.9,1261.1,1363.5,1261.4z"/>
			<path class="st90" d="M1336.9,1327.5c2.8,0,5.3-1.5,5.7-4.5c0.8-5.4-6.5-7.7-8.4-2.3c-0.1,0.4-0.3,0.9-0.5,1.2
				C1332.1,1324.3,1334.3,1327.5,1336.9,1327.5L1336.9,1327.5z"/>
			<path class="st90" d="M1322.5,1249.9c6.3,0,6.4-9.8,0-9.8C1316.2,1240.1,1316.2,1249.9,1322.5,1249.9z"/>
			<path class="st90" d="M1344.1,1207.1c4.8,0,4.8-7.5,0-7.5S1339.2,1207.1,1344.1,1207.1z"/>
			<path class="st91" d="M1457.7,1544.7c21.8-13,48.1-15.1,72.5-22.3c31.6-9.3,60-27.3,81.9-51.9c23.4-26.3,40.8-61,73.5-73.9
				c35-13.8,74,2.6,111.6,2.2c33.2-0.4,65.2-14.1,98.5-15.3c19.3-0.7,44.3,9.6,42,28.8c-1.4,11.7-12.7,19.3-22.9,25.3l-48.3,28.4
				c-18,10.5-36.2,21.3-50.4,36.5c-23.7,25.2-34.7,60.4-59,85.2c-34.8,35.5-89.6,42.2-139.1,37.9c-26.8-2.3-56.7-6.3-77.9,10.3
				c-31,24.3-78.6,92-121.8,38.4C1386.9,1635.3,1420.8,1566.8,1457.7,1544.7z"/>
			<path class="st90" d="M1435.6,1646.9l-9.7-4.3c0,0-87.2,92-92,176.8h19.4C1353.2,1819.4,1343.6,1746.8,1435.6,1646.9z"/>
			<path class="st90" d="M1442.5,1639.2c74.8-38.4,147-81.9,221.6-120.7s151.3-73.4,226.3-111.2c3.4-1.7,1-7.7-2.6-6.2
				c-75.5,30.9-148.7,68.9-221.1,106.3c-76.6,39.7-154.7,79.8-226.5,127.8c-1.1,0.6-1.5,2.1-0.8,3.2
				C1439.9,1639.5,1441.3,1639.8,1442.5,1639.2L1442.5,1639.2z"/>
			<path class="st90" d="M1460.3,1581c5.8,0,5.8-9,0-9C1454.5,1571.9,1454.5,1581,1460.3,1581z"/>
			<path class="st90" d="M1510.3,1571.9l0.6-0.8c0.9-1,0.9-2.6,0-3.7c-0.2-0.3-0.4-0.5-0.6-0.8c-2.2-2.6-6.4-0.4-6.4,2.7
				C1503.9,1572.3,1508.2,1574.6,1510.3,1571.9L1510.3,1571.9z"/>
			<path class="st90" d="M1483.9,1554.5l1.3-0.5c1-0.3,1.6-1.4,1.3-2.5c-0.2-0.6-0.7-1.1-1.3-1.3l-1.3-0.5
				C1479.9,1548,1479.9,1556.1,1483.9,1554.5z"/>
			<path class="st90" d="M1644.3,1492.7v-0.5c0.4-2.9-1.7-6.1-5.1-5.1c-1.4,0.3-2.6,1.4-2.9,2.9c-1,3.3,2.1,5.5,5.1,5.1l0.5-0.1
				C1643,1494.7,1643.9,1493.8,1644.3,1492.7L1644.3,1492.7z"/>
			<path class="st90" d="M1673.8,1437.8c1.3,1.9,3.2,3.3,5.4,4c1.4,0.4,3,0,4-1.1c0.5-0.5,0.8-1.1,1.1-1.8c0.5-1.8-0.3-3.7-1.9-4.6
				c-1.6-1.2-3.5-1.9-5.5-1.9c-2,0.1-3.6,1.8-3.5,3.8C1673.4,1436.7,1673.5,1437.3,1673.8,1437.8L1673.8,1437.8z"/>
			<path class="st90" d="M1709.1,1461.2c1.1,1.3,2.6,2.1,4.3,2.3c3,0.5,5.6-2.9,3.1-5.4c-1.1-1.3-2.6-2.1-4.3-2.3
				C1709.2,1455.3,1706.5,1458.8,1709.1,1461.2z"/>
			<path class="st90" d="M1743.3,1440.3c1.2-0.5,2.3-1.4,3.1-2.5c1.4-1.7,0.7-4.8-1.9-4.7c-1.6,0-3.2,0.4-4.6,1.2
				C1736,1436.4,1739.5,1442.2,1743.3,1440.3L1743.3,1440.3z"/>
			<path class="st90" d="M1651.5,1589.1c1.5,0.6,3.2,0.7,4.7,0.1c1.5-0.4,2.4-2,2-3.5c-0.5-1.8-1.8-3.4-3.5-4.3
				C1650,1578,1645.2,1587.2,1651.5,1589.1L1651.5,1589.1z"/>
			<path class="st90" d="M1710,1595.8c2.5,0.1,3.7-0.3,5-2.3c0.4-0.8,0.4-1.7,0-2.5c-1.4-2-2.6-2.5-5-2.3c-2,0-3.6,1.6-3.6,3.6
				C1706.4,1594.3,1708,1595.9,1710,1595.8L1710,1595.8z"/>
			<path class="st90" d="M1703.5,1558.5l0.8-0.6c5.8-3.9-1.9-11.8-5.9-5.9l-0.6,0.8C1695.5,1556.3,1700.1,1560.8,1703.5,1558.5
				L1703.5,1558.5z"/>
			<path class="st90" d="M1743,1544.9c3.8,0,3.8-5.9,0-5.9C1739.2,1539.1,1739.2,1544.9,1743,1544.9z"/>
			<path class="st90" d="M1885,1427.6c4.2,0,4.3-6.6,0-6.6C1880.8,1421,1880.8,1427.6,1885,1427.6z"/>
			<path class="st90" d="M1464.5,1662.2l-0.4,0.6c-0.4,0.7-0.4,1.6,0,2.3l0.4,0.6c1.9,2.6,6.4,1.9,6.4-1.7
				C1470.9,1660.3,1466.4,1659.6,1464.5,1662.2L1464.5,1662.2z"/>
			<path class="st90" d="M1497.4,1648l0.7-0.8c1-1.1,1-2.8,0-3.9l-0.7-0.8c-2.3-2.5-6.5-0.5-6.5,2.7S1495.2,1650.5,1497.4,1648
				L1497.4,1648z"/>
			<path class="st90" d="M1208.8,1313.4l-0.4,0.6c-0.5,0.8-0.5,1.8,0,2.6l0.4,0.6c2,3,7,2,7-1.9S1210.8,1310.3,1208.8,1313.4
				L1208.8,1313.4z"/>
			<path class="st90" d="M1285.2,1398.5c5.6,0,5.6-8.7,0-8.7S1279.6,1398.5,1285.2,1398.5z"/>
			<path class="st91" d="M1061.9,1509.7c-19.8-42.1-51.6-77.4-91.4-101.4c-25.4-15.3-54-25.8-76.5-45.3
				c-37.5-32.4-55.3-87.1-100.4-107.6c-15.6-7.1-33-9.2-50.1-9.8c-28.1-1.1-59.5,3-77.4,24.7c-16.5,20-15.8,50.7-2.3,72.8
				c18.1,29.4,53.7,43.4,75,70.5c37.3,47.4,22.7,122.8,63.6,167.3c24,26.1,61.3,34.6,92,52.5c25.3,14.8,46.7,36.3,73.9,47
				C1073.6,1721.5,1091.8,1573.8,1061.9,1509.7z"/>
			<path class="st90" d="M1036,1634.2l-8.2,5.8c94.4,119.3,105.1,187.9,105.1,187.9h21.8C1130.4,1738.3,1036,1634.2,1036,1634.2z"/>
			<path class="st90" d="M713.2,1293.8c62.9,38.8,112.8,113.9,158.9,169.9c46.1,55.9,88.5,124.2,142.9,172.3c1,1,2.7,1,3.7,0
				c1-1,1-2.7,0-3.7c-48-61.3-98.7-121.1-148.3-181.1c-44.2-53.5-92.8-126.6-155.7-160.1c-0.7-0.4-1.7-0.2-2.1,0.6
				C712.2,1292.4,712.5,1293.4,713.2,1293.8L713.2,1293.8L713.2,1293.8z"/>
			<path class="st90" d="M861.8,1571.3c-0.7-0.4-1.5-0.7-2.2-1c-1-0.3-2.1,0.3-2.3,1.4c-0.1,0.3-0.1,0.7,0,1c0.3,0.8,0.6,1.5,1,2.2
				C860.3,1578.6,865.6,1573.4,861.8,1571.3z"/>
			<path class="st90" d="M917.2,1610.2l0.6-0.8c0.7-0.8,0.7-2,0-2.7l-0.6-0.8c-1.7-2.2-5.3-0.2-5.3,2.2S915.5,1612.4,917.2,1610.2z"
				/>
			<path class="st90" d="M895.3,1557.3c-0.2-0.4-0.4-0.7-0.6-1.1c-0.9-1.5-2.9-2-4.4-1.1c-0.4,0.3-0.8,0.6-1.1,1.1
				c-0.2,0.4-0.4,0.7-0.6,1.1C885,1564.5,899.1,1564.5,895.3,1557.3z"/>
			<path class="st90" d="M963.6,1632.2l0.7-0.7c1.1-1.1,1.1-2.9,0-4l-0.7-0.7c-1.5-1.5-3.9-1.5-5.4,0c-1.5,1.5-1.5,3.9,0,5.4
				C959.7,1633.8,962.1,1633.8,963.6,1632.2C963.6,1632.3,963.6,1632.2,963.6,1632.2L963.6,1632.2z"/>
			<path class="st90" d="M836.1,1513.1c5.3,0,5.3-8.2,0-8.2C830.8,1504.9,830.8,1513.1,836.1,1513.1z"/>
			<path class="st90" d="M802.2,1450.7l-0.8,0.7c-0.9,0.9-0.9,2.4,0,3.3l0.8,0.7c1.3,1.3,3.3,1.3,4.6,0c1.3-1.3,1.3-3.3,0-4.6
				C805.5,1449.4,803.5,1449.4,802.2,1450.7C802.2,1450.7,802.2,1450.7,802.2,1450.7L802.2,1450.7z"/>
			<path class="st90" d="M933.7,1426.4c4.5,0,4.5-6.9,0-6.9S929.2,1426.4,933.7,1426.4z"/>
			<path class="st90" d="M957.1,1484.9l1.1-0.6c1.4-0.9,1.9-2.7,1-4.1c-0.3-0.4-0.6-0.8-1-1l-1.1-0.6
				C950.2,1474.9,950.2,1488.5,957.1,1484.9L957.1,1484.9z"/>
			<path class="st90" d="M1009.7,1486.6c4.4,0,4.4-6.8,0-6.8S1005.3,1486.6,1009.7,1486.6z"/>
			<path class="st90" d="M1035.5,1550.9c4,0,4-6.2,0-6.2C1031.5,1544.6,1031.5,1550.9,1035.5,1550.9z"/>
			<path class="st90" d="M696.6,1320.9c2.5,1.1,4.2,2.1,6.9,1.1c1.5-0.5,2.4-2.1,2-3.6c-0.1-0.2-0.1-0.4-0.2-0.6
				c-1.5-2.5-3-2.8-5.8-3.5C695.7,1313.5,692.7,1319.3,696.6,1320.9z"/>
			<path class="st90" d="M734.1,1345.8c0.2,0.3,0.4,0.5,0.6,0.8c3.3,4.8,9.8-1.6,4.9-4.9l-0.8-0.6
				C736,1339.2,732.2,1343,734.1,1345.8L734.1,1345.8z"/>
			<path class="st90" d="M758.2,1272l-1.4,0.7c-1.2,0.7-1.9,1.9-1.8,3.2c-0.1,1,0.3,2,1.1,2.6c1.2,1.1,3,1.4,4.5,0.6l1.4-0.7
				C766.3,1276.3,762.5,1269.7,758.2,1272L758.2,1272z"/>
			<path class="st90" d="M690.2,1275.5c3,0.8,5.5,2.1,8-0.2c0.5-0.5,0.7-1.3,0.5-2c-1-3.3-3.8-3.4-6.8-4.2
				C687.9,1268,686.1,1274.4,690.2,1275.5L690.2,1275.5z"/>
			<path class="st92" d="M1043.2,1791.8l381.7,0.4c0,0-6.3,416.4-183.6,427C973.7,2235.2,1043.2,1791.8,1043.2,1791.8z"/>
			<path class="st93" d="M1017.3,1791.8h148.8c0,0-81,268,41.9,427.1l0,0C1208.1,2218.9,978.9,2231.9,1017.3,1791.8"/>
		</g>
	</g>
</g>
</svg>
