<?xml version="1.0" encoding="utf-8"?>
<!-- Generator: Adobe Illustrator 24.1.0, SVG Export Plug-In . SVG Version: 6.00 Build 0)  -->
<svg version="1.1" id="Capa_1" xmlns="http://www.w3.org/2000/svg" xmlns:xlink="http://www.w3.org/1999/xlink" x="0px" y="0px"
	 viewBox="0 0 5000 5000" style="enable-background:new 0 0 5000 5000;" xml:space="preserve">
<style type="text/css">
	.st0{fill:#E5ECFF;}
	.st1{fill:#365E9E;}
	.st2{fill:url(#SVGID_1_);}
	.st3{fill:url(#SVGID_2_);}
	.st4{fill:url(#SVGID_3_);}
	.st5{fill:url(#SVGID_4_);}
	.st6{fill:url(#SVGID_5_);}
	.st7{fill:#7098DE;}
	.st8{fill:#A9C4F3;}
	.st9{fill:#CEDFFD;}
	.st10{fill:#7199D3;}
	.st11{fill:#88ADE5;}
	.st12{fill:url(#SVGID_6_);}
	.st13{fill:#F2CB7E;}
	.st14{fill:url(#SVGID_7_);}
	.st15{opacity:0.7;}
	.st16{fill:#D4EAFF;}
	.st17{fill:none;stroke:#000000;stroke-width:4;stroke-miterlimit:10;}
	.st18{fill:url(#SVGID_8_);}
	.st19{fill:url(#SVGID_9_);}
	.st20{fill:url(#SVGID_10_);}
	.st21{fill:url(#SVGID_11_);}
	.st22{fill:#FFD3C7;}
	.st23{clip-path:url(#SVGID_13_);}
	.st24{fill:#F4BDB0;}
	.st25{fill:#2A3068;}
	.st26{clip-path:url(#SVGID_15_);}
	.st27{fill:#F25F28;}
	.st28{clip-path:url(#SVGID_17_);}
	.st29{fill:#5A3760;}
	.st30{clip-path:url(#SVGID_19_);}
	.st31{opacity:0.2;enable-background:new    ;}
	.st32{fill:#AA77B0;}
	.st33{fill:#142656;}
	.st34{fill:#363A83;}
	.st35{clip-path:url(#SVGID_21_);}
	.st36{opacity:0.1;enable-background:new    ;}
	.st37{clip-path:url(#SVGID_23_);}
	.st38{fill:#FFC166;}
	.st39{clip-path:url(#SVGID_25_);}
	.st40{opacity:5.000000e-02;enable-background:new    ;}
	.st41{fill:#79507F;}
	.st42{clip-path:url(#SVGID_27_);}
	.st43{clip-path:url(#SVGID_29_);}
	.st44{opacity:0.1;fill:#FFFFFF;enable-background:new    ;}
	.st45{fill:#FDA819;}
	.st46{clip-path:url(#SVGID_31_);}
	.st47{fill:#B7B7B7;}
	.st48{fill:#FFFFFF;}
	.st49{fill:#E5E3F0;}
	.st50{fill:none;stroke:#E5E3F0;stroke-width:2;stroke-linecap:round;stroke-linejoin:round;}
	.st51{fill:#F89957;}
	.st52{fill:none;}
	.st53{fill:#9BB4C9;}
	.st54{fill:#4143C5;}
	.st55{fill:#859AD0;}
	.st56{fill-rule:evenodd;clip-rule:evenodd;fill:#FFFFFF;}
	.st57{fill:none;stroke:#A9C4F3;stroke-width:18;stroke-miterlimit:10;}
	.st58{fill:#CEDDF4;}
	.st59{fill:#9BB8EA;}
	.st60{fill:#CDDEFC;}
	.st61{fill:#B9CEED;}
	.st62{fill:#D3DEEF;}
	.st63{fill:#E4EDFE;}
	.st64{fill:#BACDF7;}
</style>
<g id="Layer_2">
	<g id="Layer_1-2">
		<path class="st0" d="M4629.5,3127.3c-93.3-133.3-240-319.9-253.3-480c-13.3-213.3,160-346.6,146.6-546.6
			c-26.7-373.3-439.9-519.9-746.6-599.9c-186.6-53.3-386.6-93.3-480-280c-66.7-173.3-13.3-306.6-133.3-466.6
			c-226.6-306.6-626.6-319.9-959.8-173.3c-346.6,173.3-386.6,639.9-773.2,746.6c-216.4,49.2-561.6-110.2-709.5,55l-10.4,11.6
			c-213.3,213.3-173.3,480,0,679.9c93.3,106.7,133.3,40,160,200c13.3,66.7-26.7,133.3-40,186.6c-26.7,186.6-53.3,333.3-13.3,506.6
			c80,373.3,333.3,573.2,706.6,599.9c186.6,13.3,360,0,546.6,66.7c200,80,200,293.3,373.3,373.3c266.6,120,759.9-146.7,1053.2-173.3
			c346.6-26.7,653.2,306.6,999.8,200C4976.1,3887.1,4842.8,3420.5,4629.5,3127.3z"/>
		<path class="st1" d="M4650.4,2477.3c1.9,54.5-40.9,93.9-95.1,87.6l-3001.1-349.8c-54.2-6.3-100-56.1-101.9-110.6l-54.7-1589.8
			c-1.9-54.5,41.1-95.6,95.4-91.2l2996.2,238c54.4,4.3,100.4,52.5,102.3,106.9L4650.4,2477.3z"/>
		
			<linearGradient id="SVGID_1_" gradientUnits="userSpaceOnUse" x1="1345.5305" y1="3453.5117" x2="4598.4043" y2="3453.5117" gradientTransform="matrix(1 0 0 -1 0 5000)">
			<stop  offset="0" style="stop-color:#5471A9"/>
			<stop  offset="1" style="stop-color:#57B4E0"/>
		</linearGradient>
		<path class="st2" d="M4598.3,2529.4c1.9,54.5-40.9,93.9-95.1,87.6l-3001-349.8c-54.2-6.3-100-56.1-101.9-110.6l-54.8-1589.8
			c-1.9-54.5,41.1-95.6,95.4-91.2l2996.2,238.1c54.4,4.3,100.4,52.4,102.2,106.9L4598.3,2529.4z"/>
		
			<linearGradient id="SVGID_2_" gradientUnits="userSpaceOnUse" x1="-33.635" y1="3592.8538" x2="749.5216" y2="3592.8538" gradientTransform="matrix(0.82 0 0 -1 1577.6901 5019.9902)">
			<stop  offset="0" style="stop-color:#CDDCFD"/>
			<stop  offset="1" style="stop-color:#E7F0FF"/>
		</linearGradient>
		<polygon class="st3" points="2183,1477.5 1542.8,1417 1543.4,1376.8 2183.6,1437.3 		"/>
		
			<linearGradient id="SVGID_3_" gradientUnits="userSpaceOnUse" x1="-35.4782" y1="3481.5759" x2="747.6661" y2="3481.5759" gradientTransform="matrix(0.82 0 0 -1 1577.6901 5019.9902)">
			<stop  offset="0" style="stop-color:#CDDCFD"/>
			<stop  offset="1" style="stop-color:#E7F0FF"/>
		</linearGradient>
		<polygon class="st4" points="2181.1,1588.8 1540.9,1528.3 1541.6,1488.1 2181.8,1548.6 		"/>
		
			<linearGradient id="SVGID_4_" gradientUnits="userSpaceOnUse" x1="-37.3214" y1="3370.292" x2="745.8353" y2="3370.292" gradientTransform="matrix(0.82 0 0 -1 1577.6901 5019.9902)">
			<stop  offset="0" style="stop-color:#CDDCFD"/>
			<stop  offset="1" style="stop-color:#E7F0FF"/>
		</linearGradient>
		<polygon class="st5" points="2179.3,1700 1539.1,1639.6 1539.8,1599.4 2180,1659.8 		"/>
		
			<linearGradient id="SVGID_5_" gradientUnits="userSpaceOnUse" x1="-39.1646" y1="3259.0081" x2="743.9797" y2="3259.0081" gradientTransform="matrix(0.82 0 0 -1 1577.6901 5019.9902)">
			<stop  offset="0" style="stop-color:#CDDCFD"/>
			<stop  offset="1" style="stop-color:#E7F0FF"/>
		</linearGradient>
		<polygon class="st6" points="2177.4,1811.3 1537.2,1750.9 1537.9,1710.6 2178.1,1771.1 		"/>
		<rect x="3043.9" y="3224.9" class="st7" width="77.4" height="1234.5"/>
		<rect x="1243.1" y="3030.4" class="st7" width="77.4" height="1234.5"/>
		<rect x="3727.1" y="2898" class="st7" width="77.4" height="1234.5"/>
		<polygon class="st8" points="1918.9,2596.3 1191.1,2975 1194.9,3053.6 1194.9,3053.6 1191.1,3055.6 3097.9,3285.2 3825.7,2906.5 
			3825.7,2825.9 		"/>
		<polygon class="st9" points="3097.9,3204.6 1191.1,2975 1918.9,2596.3 3825.7,2825.9 		"/>
		<polygon class="st10" points="1938.1,2669.8 1713.9,2796.5 1713.9,2827.4 2304.6,2907.7 2511,2773.7 2511,2742.8 		"/>
		<polygon class="st8" points="1938.1,2669.8 2511,2742.8 2304.6,2876.9 1713.9,2796.5 		"/>
		<polygon class="st11" points="1942.5,2686.4 2455.8,2752.9 2290.6,2860.2 1763.1,2787.9 		"/>
		
			<linearGradient id="SVGID_6_" gradientUnits="userSpaceOnUse" x1="2619.0933" y1="1660.5151" x2="2619.0933" y2="2637.1445" gradientTransform="matrix(0.99 0.16 0 -1.01 63.55 3581.1899)">
			<stop  offset="0" style="stop-color:#CCCCCC"/>
			<stop  offset="1" style="stop-color:#FFFFFF"/>
		</linearGradient>
		<path class="st12" d="M3034.1,1474.2c-130.3-38.2-253.4-95.6-368.1-174.4c-6.7-4.6-11.4-5.1-17.9-2.7
			c-118.2,44-245.2,62.4-379.6,58.3c-8.8-0.3-11.5,1.3-11.1,10c3.6,84.9,6.9,169.9,9.8,254.7c1.6,45.5,3.7,91,13.6,137
			c46.6,216.1,169.6,391.7,369,526.9c5.7,3.8,9.6,3.7,14.7,1.9c86.4-30.1,160.8-75.8,221.9-138.2c91.6-93.6,144.1-208.1,155.3-343.8
			c4.2-50.7,5.3-102.1,7.8-153.1h-0.3c2.1-49.9,4.1-99.9,6.2-149.9C3056.2,1480.4,3056,1480.6,3034.1,1474.2z"/>
		<path class="st13" d="M3002.8,1506.7c-118.9-37.2-232.1-90.7-336.2-159.2c-7.2-4.7-12.1-5.2-19.1-2.8
			c-105.8,36.2-218.1,53.5-336.3,53.3c-6.6,0-8.1,2-7.8,7.9c1.9,44.3,3.5,88.5,5.1,132.8c0.8,0.1,1.6,0.2,2.4,0.3
			c0,20.4-0.3,40.7,0.1,61.1c1.2,65.6,4.7,131.1,23.2,197.6c49.2,177,154.3,323,315.2,438.2c5.4,3.8,9.3,4.4,14.7,2.3
			c26.4-10.6,52.1-22.3,76.1-36.5c158.3-94.3,245-235.2,258.3-422.5c6.3-87.5,8-175.9,12-263.9
			C3010.7,1509.4,3007.7,1508.3,3002.8,1506.7z"/>
		
			<linearGradient id="SVGID_7_" gradientUnits="userSpaceOnUse" x1="2297.3591" y1="2187.8511" x2="2915.7917" y2="2187.8511" gradientTransform="matrix(0.99 0.16 0 -1.01 63.55 3581.1899)">
			<stop  offset="0" style="stop-color:#F15A24"/>
			<stop  offset="1" style="stop-color:#F9A662"/>
		</linearGradient>
		<path class="st14" d="M2956,1533.7c-102.6-35.4-200.7-82.6-292.3-140.8c-5.5-3.5-9.2-3.1-14-1.5c-92.7,29.1-189.8,45.4-291.6,48.4
			c-6.8,0.2-9,2.2-8.7,9c2.2,49.5,3.8,98.8,5.8,148.2c2,49,1.7,97.9,11.3,147.6c33.8,175.9,128.2,323.5,283.3,442.9
			c5,3.9,8.5,4.5,13.5,2.2c46.8-20.8,89.3-47.3,126.6-80c88.6-77.7,141.8-176.4,159.6-296.1c7.2-48.6,5.6-99,8.5-136.5
			c2.3-52,3.9-92.1,6-132.2C2964.4,1538.5,2962.6,1536,2956,1533.7z"/>
		<g class="st15">
			<path class="st16" d="M1916.6,1328.5l-708.8-73.8c-6.5-0.7-11.5-6-11.7-12.5L1178,717.4c-0.2-7.2,5.4-13.3,12.6-13.5
				c0.6,0,1.2,0,1.8,0.1l708.8,73.8c6.5,0.7,11.5,6,11.7,12.5l18.1,524.8c0.3,7.2-5.4,13.2-12.6,13.5
				C1917.8,1328.6,1917.2,1328.5,1916.6,1328.5z"/>
		</g>
		<g class="st15">
			<path class="st16" d="M3998.7,2504.9l-709.8-87.4c-6.6-0.8-11.5-6.4-11.5-13v-598.5c0-7.2,5.8-13.1,13-13.1c0.5,0,1.1,0,1.6,0.1
				l696,87.4c6.4,0.8,11.3,6.2,11.4,12.6l13.8,598.5c0.2,7.2-5.5,13.2-12.7,13.4C3999.9,2505,3999.3,2505,3998.7,2504.9z"/>
		</g>
		<g class="st15">
			<path class="st16" d="M1860.5,2149.2l-624.4-79.7c-6.2-0.8-11-5.9-11.4-12.2l-21.7-395.4c-0.4-7.2,5.2-13.3,12.4-13.7
				c0.7,0,1.4,0,2.1,0.1l626.9,72.8c6.4,0.7,11.2,6,11.5,12.4l19.1,402.4c0.3,7.2-5.3,13.3-12.5,13.6
				C1862,2149.3,1861.2,2149.3,1860.5,2149.2z"/>
		</g>
		<g class="st15">
			<path class="st16" d="M3705,1249.7L3078,1173c-6.5-0.8-11.5-6.3-11.5-12.9V757c0-7.2,5.8-13.1,13-13.1c0.4,0,0.9,0,1.3,0.1
				l627.2,62.9c6.7,0.7,11.8,6.3,11.8,13l-0.3,416.9c0,7.2-5.9,13-13.1,13C3706,1249.8,3705.5,1249.8,3705,1249.7z"/>
		</g>
		<g class="st15">
			<path class="st16" d="M3440.2,1680.6l-279.2-29.9c-6.6-0.7-11.7-6.3-11.7-13v-269.5c0-7.2,5.8-13,13-13.1c0.5,0,0.9,0,1.4,0.1
				l279.2,29.9c6.6,0.7,11.7,6.3,11.7,13v269.5c0,7.2-5.8,13.1-13.1,13.1C3441.2,1680.6,3440.7,1680.6,3440.2,1680.6z"/>
		</g>
		<g class="st15">
			<path class="st16" d="M4948.8,2407.1l-804.2-102.6c-6.4-0.8-11.2-6.2-11.4-12.6l-23.8-933.4c-0.2-7.2,5.5-13.2,12.7-13.4
				c0.7,0,1.3,0,2,0.1l811.7,103.2c6.4,0.8,11.3,6.2,11.4,12.7l16.3,932.8c0.1,7.2-5.6,13.2-12.8,13.3
				C4950,2407.2,4949.4,2407.2,4948.8,2407.1z"/>
		</g>
		<path class="st17" d="M4075.1,3271.5c-1.2-3.4-1.8-7-1.8-10.6L4075.1,3271.5z"/>
		
			<linearGradient id="SVGID_8_" gradientUnits="userSpaceOnUse" x1="2201.3115" y1="4126.896" x2="2984.4185" y2="4126.896" gradientTransform="matrix(1 0 0 -1 0 5000)">
			<stop  offset="0" style="stop-color:#CDDCFD"/>
			<stop  offset="1" style="stop-color:#E7F0FF"/>
		</linearGradient>
		<polygon class="st18" points="2983.8,924.6 2201.3,861.8 2202,821.6 2984.4,884.4 		"/>
		
			<linearGradient id="SVGID_9_" gradientUnits="userSpaceOnUse" x1="2199.4683" y1="4015.6121" x2="2982.5752" y2="4015.6121" gradientTransform="matrix(1 0 0 -1 0 5000)">
			<stop  offset="0" style="stop-color:#CDDCFD"/>
			<stop  offset="1" style="stop-color:#E7F0FF"/>
		</linearGradient>
		<polygon class="st19" points="2981.9,1035.9 2199.5,973.1 2200.1,932.9 2982.6,995.7 		"/>
		
			<linearGradient id="SVGID_10_" gradientUnits="userSpaceOnUse" x1="2197.6248" y1="3904.322" x2="2980.7319" y2="3904.322" gradientTransform="matrix(1 0 0 -1 0 5000)">
			<stop  offset="0" style="stop-color:#CDDCFD"/>
			<stop  offset="1" style="stop-color:#E7F0FF"/>
		</linearGradient>
		<polygon class="st20" points="2980.1,1147.2 2197.6,1084.4 2198.3,1044.2 2980.7,1107 		"/>
		
			<linearGradient id="SVGID_11_" gradientUnits="userSpaceOnUse" x1="2195.7815" y1="3793.0442" x2="2978.8889" y2="3793.0442" gradientTransform="matrix(1 0 0 -1 0 5000)">
			<stop  offset="0" style="stop-color:#CDDCFD"/>
			<stop  offset="1" style="stop-color:#E7F0FF"/>
		</linearGradient>
		<polygon class="st21" points="2978.2,1258.5 2195.8,1195.6 2196.4,1155.4 2978.9,1218.3 		"/>
		<path class="st22" d="M1956.8,2547.9c-24.5,5.8-43.9,5.9-59.1,3.1c-35-6.3-48.3-27.9-51.8-31.4c-4,2.3-8.5,3.6-13.1,3.7
			c-3,0-5.9-0.5-8.6-1.7c-5.5-2.4-11.1-7.6-15.8-18c-13.8-31.2-5.3-45.5,7.4-46.6c0,0,52-34.1,61.9-68.7c0,0,45.2-14.1,57.9-43.8
			c0,0,4.9,9,11.9,23.4C1971.7,2418.2,2019.4,2533.1,1956.8,2547.9z"/>
		<path class="st22" d="M1896.9,2656.7c0,0-25.4,26-67.8,4.8c-2.1-1-4-2.1-5.9-3c0,0,0-0.1,0-0.1c14.8-30.7,24.4-71.5,20.7-92.2
			l-11.1-42.8c4.6-0.1,9.1-1.4,13.1-3.7c3.4,3.4,16.8,25,51.8,31.4C1893.9,2576.3,1887.3,2631.1,1896.9,2656.7z"/>
		<g>
			<defs>
				<path id="SVGID_12_" d="M1896.9,2656.7c0,0-25.4,26-67.8,4.8c-2.1-1-4-2.1-5.9-3c0,0,0-0.1,0-0.1c14.8-30.7,24.4-71.5,20.7-92.2
					l-11.1-42.8c4.6-0.1,9.1-1.4,13.1-3.7c3.4,3.4,16.8,25,51.8,31.4C1893.9,2576.3,1887.3,2631.1,1896.9,2656.7z"/>
			</defs>
			<clipPath id="SVGID_13_">
				<use xlink:href="#SVGID_12_"  style="overflow:visible;"/>
			</clipPath>
			<g class="st23">
				<path class="st24" d="M1795.1,2543.1c0,0,89.4,10.4,112.7,59c23.3,48.6,84.7-74,53.3-111.2c-31.3-37.2-41.8-58.7-80.2-54.1
					c-38.5,4.6-82.2,20.2-85.8,43c-3.6,22.8-4.3,35.9,0,47"/>
			</g>
		</g>
		<path class="st25" d="M1911.6,3382.6c0,0,135.4-56.5,210.3-63.6c74.9-7.1,141.3,9.9,159.7,63.6s8.5,757.1,26.8,774
			c18.4,16.9-18.4,28.3-60.7,19.8c0,0-102.2-219-80.7-343.2c21.4-124.3-71.7-354.5-71.7-354.5L1911.6,3382.6z"/>
		<path class="st22" d="M1923.6,4183.4l-18.5,9.9c0,0-55.7,49.5-33.8,133.5c21.9,84,23.6,86.9,23.6,86.9h6.1l1.4-98.2l42.4,98.2
			c0,0,108.7,16.9,148.3-26.8l-108-63.6c0,0-20.7-78.4-27-119.3C1951.8,4163,1923.6,4183.4,1923.6,4183.4z"/>
		<g>
			<defs>
				<path id="SVGID_14_" d="M1923.6,4183.4l-18.5,9.9c0,0-55.7,49.5-33.8,133.5c21.9,84,23.6,86.9,23.6,86.9h6.1l1.4-98.2l42.4,98.2
					c0,0,108.7,16.9,148.3-26.8l-108-63.6c0,0-20.7-78.4-27-119.3C1951.8,4163,1923.6,4183.4,1923.6,4183.4z"/>
			</defs>
			<clipPath id="SVGID_15_">
				<use xlink:href="#SVGID_14_"  style="overflow:visible;"/>
			</clipPath>
			<g class="st26">
				<path class="st27" d="M1851.7,4215c0,0,73,126.3,157.3,106.3c84.3-20,152.2,10.4,147.9,66.1c-4.3,55.7,13.8,96.1-44.4,114.6
					c-58.2,18.5-44.3,41.1-153,9.8c-108.7-31.3-100.4-5.5-126.3-61c-25.9-55.5-60.6-53.7-34.6-117.2c26-63.6,30.4-93.9,44.4-97.4
					c13.9-3.5,28.5-6,28.5-6"/>
			</g>
		</g>
		<path class="st22" d="M2280.4,4158.1l-18.5,9.9c0,0-55.7,49.5-33.8,133.5s23.6,86.9,23.6,86.9h6.1l1.4-98.2l42.4,98.2
			c0,0,108.8,16.9,148.3-26.8l-108.1-63.6c0,0-20.7-78.4-26.9-119.3C2308.7,4137.7,2280.4,4158.1,2280.4,4158.1z"/>
		<g>
			<defs>
				<path id="SVGID_16_" d="M2280.4,4158.1l-18.5,9.9c0,0-55.7,49.5-33.8,133.5s23.6,86.9,23.6,86.9h6.1l1.4-98.2l42.4,98.2
					c0,0,108.8,16.9,148.3-26.8l-108.1-63.6c0,0-20.7-78.4-26.9-119.3C2308.7,4137.7,2280.4,4158.1,2280.4,4158.1z"/>
			</defs>
			<clipPath id="SVGID_17_">
				<use xlink:href="#SVGID_16_"  style="overflow:visible;"/>
			</clipPath>
			<g class="st28">
				<path class="st27" d="M2223.1,4203.2c0,0,0.7,1.1,2,3c13.2,20.1,91.1,131.7,160.1,81.8c75.7-54.8,160.5-21.9,172.9,9.6
					c12.4,31.5,62.6,57.6,26.1,107.2s-50.9,75-122,87.4c-71.1,12.4-131.8,28.1-198.3-10.4c-66.5-38.5-103.1-13.8-119.4-88.1
					c-16.3-74.3-26.7-129.8,2-146.7c28.7-17,40.4-24.7,51.5-29.4c11.1-4.6,22.2-9.8,22.2-9.8"/>
			</g>
		</g>
		<path class="st29" d="M1738.1,3929.5v202.7h71.9v-182.4C1784.8,3932,1758.3,3928.6,1738.1,3929.5z"/>
		<g>
			<defs>
				<path id="SVGID_18_" d="M1738.1,3929.5v202.7h71.9v-182.4C1784.8,3932,1758.3,3928.6,1738.1,3929.5z"/>
			</defs>
			<clipPath id="SVGID_19_">
				<use xlink:href="#SVGID_18_"  style="overflow:visible;"/>
			</clipPath>
			<g class="st30">
				<path class="st31" d="M1721.4,3967.7c0,0,62,10.1,97.5,71.4c35.6,61.3,64.9-7.2,58.1-35.2c-6.9-28-3.3-56.8-21.5-78.3
					c-18.3-21.5-53.2-52.2-100.8-40.4c-47.6,11.8-53.8,5.2-51.2,31.6c2.6,26.4,7.2,54.8,7.2,54.8"/>
			</g>
		</g>
		<ellipse class="st29" cx="1512.1" cy="4450.7" rx="55.6" ry="57.1"/>
		<path class="st29" d="M1833.1,4502c0,31.5-24.9,57.1-55.7,57.1s-55.7-25.6-55.7-57.1c0-31.5,24.9-57.1,55.7-57.1
			S1833.1,4470.5,1833.1,4502z"/>
		<path class="st29" d="M2095.7,4450.7c0,31.5-24.9,57.1-55.7,57.1s-55.7-25.5-55.7-57.1s24.9-57.1,55.7-57.1
			S2095.7,4419.2,2095.7,4450.7z"/>
		<path class="st32" d="M1724.9,4131.1c0,0,48.5-18.4,100.1,0l1.4,64.5l252.5,193.5v46h-74.5l-1-35.3L1810,4259.4l1.2,175.7
			l-9.6,41.3h-50.3l-9.3-40.8l-2.1-171.2l-192.4,134l-0.8,34.3l-69.1,0.4v-48.6l247.7-187.9v-38.7L1724.9,4131.1z"/>
		<path class="st33" d="M2343.1,2972.5c0,0-2.8-45.7,38.5-55.9c41.3-10.3,69.9-4.5,90.7,12.5c0,0,12,11.8-22.6,25.6
			S2349.8,2992.8,2343.1,2972.5z"/>
		<path class="st22" d="M2291.5,2939.1l1.7-9.9c0,0,62.6-55.4,72.1-60.6s49.8-1.4,85.8,8.5c36,9.9,43.1,43.8-40.9,49.5
			s-83.7,36-85.5,44.8C2322.9,2980.3,2291.5,2939.1,2291.5,2939.1z"/>
		<path class="st34" d="M2240.8,3771.2c-111.8,196.4-255.6,436.7-280.5,447.6c-40.3,17.7-60.7-36.7-60.7-36.7
			c17.3-55.1,50.7-144.9,83.2-229.4c14.8-6.6,29.1-14.2,42.8-22.7c104.9-64.6,192.8-136.6,192.8-136.6S2230.4,3786.3,2240.8,3771.2z
			"/>
		<path class="st34" d="M2375.6,3521.7c-8.6,22.7-61.9,121-127.7,237.1c6.1-13.4,8.7-28.1,7.6-42.8c-3.2-54-7.4-68.9-7.4-68.9
			l-58.6-11.9l12.4-10.4l-21.4,8.5l-24.6,9.8c-265.5,232.3-539.5,141.2-593.9,86.9c-27.2-27.3-29.7-75-25.3-115.8
			c2.8-25.2,8-50,15.4-74.2l9.9-7.1l489.4-124.7c0,0,76.8-28.9,210.4-48.2C2347.3,3347.6,2398.8,3460.3,2375.6,3521.7z"/>
		<g>
			<defs>
				<path id="SVGID_20_" d="M2375.6,3521.7c-8.6,22.7-61.9,121-127.7,237.1c6.1-13.4,8.7-28.1,7.6-42.8c-3.2-54-7.4-68.9-7.4-68.9
					l-58.6-11.9l12.4-10.4l-21.4,8.5l-24.6,9.8c-265.5,232.3-539.5,141.2-593.9,86.9c-27.2-27.3-29.7-75-25.3-115.8
					c2.8-25.2,8-50,15.4-74.2l9.9-7.1l489.4-124.7c0,0,76.8-28.9,210.4-48.2C2347.3,3347.6,2398.8,3460.3,2375.6,3521.7z"/>
			</defs>
			<clipPath id="SVGID_21_">
				<use xlink:href="#SVGID_20_"  style="overflow:visible;"/>
			</clipPath>
			<g class="st35">
				<path class="st36" d="M1945.5,3499.4c0,0,412.3-100.5,606.7,32.6c194.4,133.1,100.4-28.7-36.5-142.2
					c-137-113.5-204.8-186.2-284.4-164.9c-79.6,21.4-140.6,42.7-193.1,73.6"/>
				<path class="st36" d="M1703.8,3575.4c0.4,0-40.8,126.7-20.5,182.3c20.3,55.6,43.6,174.8-20.6,163.1
					c-64.2-11.8-57.7,8.7-155.5-85.7c-97.8-94.3-267.4-179.2-170.9-279.6c96.5-100.4,117.4-142.3,182.6-117.4s113.3,56.5,129.2,71.7
					c15.8,15.2,53.8,46.6,54.8,56.1s11,10.5,11,10.5"/>
			</g>
		</g>
		<path class="st32" d="M2247.8,3758.8c-2.3,4.1-4.7,8.2-7.1,12.4c-10.4,15.1-22.4,22.1-22.4,22.1s-87.9,72-192.8,136.6
			c-13.7,8.5-28.1,16.1-42.8,22.7c-79.6,35.1-127.7,16.5-127.7,16.5s-280.7-32.8-367.9-50.9c-87.2-18-131.4-51.2-131.4-144.4
			s72.7-105.2,72.7-105.2l86.5-49.6l21.7-4.8c-4.4,40.8-2,88.5,25.3,115.8c54.4,54.4,328.4,145.5,593.9-86.9l24.6-9.8l9,1.8
			l58.6,11.9c0,0,4.2,14.8,7.4,68.9C2256.5,3730.6,2253.9,3745.4,2247.8,3758.8z"/>
		<g>
			<defs>
				<path id="SVGID_22_" d="M2247.8,3758.8c-2.3,4.1-4.7,8.2-7.1,12.4c-10.4,15.1-22.4,22.1-22.4,22.1s-87.9,72-192.8,136.6
					c-13.7,8.5-28.1,16.1-42.8,22.7c-79.6,35.1-127.7,16.5-127.7,16.5s-280.7-32.8-367.9-50.9c-87.2-18-131.4-51.2-131.4-144.4
					s72.7-105.2,72.7-105.2l86.5-49.6l21.7-4.8c-4.4,40.8-2,88.5,25.3,115.8c54.4,54.4,328.4,145.5,593.9-86.9l24.6-9.8l9,1.8
					l58.6,11.9c0,0,4.2,14.8,7.4,68.9C2256.5,3730.6,2253.9,3745.4,2247.8,3758.8z"/>
			</defs>
			<clipPath id="SVGID_23_">
				<use xlink:href="#SVGID_22_"  style="overflow:visible;"/>
			</clipPath>
			<g class="st37">
				<path class="st31" d="M1411.9,3560.7c0,0-221.8,176.1,131.8,227c353.6,50.9,319.6,82.2,463.1,0s257-148.7,257-148.7
					s5.9-83.5-8.2-107c-14-23.5-146.4,47-176.7,32.6c-30.4-14.4-416.3-114.8-416.3-114.8s-12,1.3-13.3,5.2
					c-1.3,3.9-216.6,90-220.5,90"/>
			</g>
		</g>
		<path class="st38" d="M1860.4,2647.5c0,0,147.7,51.6,149.9,52.3c2.2,0.7,64.3,148.3-4.8,361.6c-27.5,113-38.2,177.6-30.3,223.8
			c11.1,65.5,56.4,173.8,56.4,173.8s-72.6,117.3-225.9,120.9s-253.6-39.7-253.6-39.7s34.8-174.4,34.8-178s80.3-250,80.3-250
			l28.9-211.9l25.4-230.5L1860.4,2647.5z"/>
		<g>
			<defs>
				<path id="SVGID_24_" d="M1860.4,2647.5c0,0,147.7,51.6,149.9,52.3c2.2,0.7,64.3,148.3-4.8,361.6
					c-27.5,113-38.2,177.6-30.3,223.8c11.1,65.5,56.4,173.8,56.4,173.8s-72.6,117.3-225.9,120.9s-253.6-39.7-253.6-39.7
					s34.8-174.4,34.8-178s80.3-250,80.3-250l28.9-211.9l25.4-230.5L1860.4,2647.5z"/>
			</defs>
			<clipPath id="SVGID_25_">
				<use xlink:href="#SVGID_24_"  style="overflow:visible;"/>
			</clipPath>
			<g class="st39">
				<path class="st40" d="M1715.6,2537.2c39.8-4.3,87.8,21.7,123.7,34.5c30,10.7,44.7,13.8,55.9,44.8c17.1,47.7-22.4,77.7-35.4,119
					c-26.6,84.8,12.8,164.8,25.6,242.7c14.2,86,20.7,175.3,20.7,266.1c0,44.9,0.4,90.7,4.6,133.6c4.4,43.7-9,78.2-27.5,114.8
					c-40.8,80.8-116.7,163.6-217.2,182c-66.2,12.1-141.2,5.8-196.2-33.2c-70-49.6-114.2-183.9-125.9-266
					c-14.5-101.4-6.8-205.9,7-305.6c12.4-89.8,25.5-182.8,41.2-271c12.4-69.9,35-127.1,97.2-167.2c41.2-26.6,100.5-46,146.1-50.2
					c43.1-4,89.1-0.5,132.5,0c31.2,0.4,108.4-6,130.5,15.6"/>
			</g>
		</g>
		<path class="st33" d="M1947.5,2367.9L1947.5,2367.9c-6.9-14.3-11.9-23.4-11.9-23.4c-12.7,29.7-57.9,43.8-57.9,43.8
			c-9.9,34.6-61.9,68.7-61.9,68.7c-12.7,1.1-21.2,15.4-7.4,46.6c4.6,10.4,10.3,15.6,15.8,18c2.7,1.2,5.6,1.8,8.6,1.7l11.1,42.8
			c3.7,20.7-5.8,61.4-20.7,92.2c0,0,0,0.1,0,0.1c-14.8,30.6-14.8,47.1-12.7,95.3c2.1,48.2,35.4,37.9,31.8,107.4
			c-3.6,69.6-85.8,53-100.6,71c-14.8,18-5.3,72-5.3,77.3c0,5.3-47.7,71-56.1,79.4c-8.5,8.5-201.3-42.4-282.8-75.2
			c-81.6-32.8-37.1-210.8-18-211.9c19.1-1.1,120.8-63.5,68.9-111.2c-51.9-47.7,44-122.3,57.7-124.9c13.8-2.6,33.9-22.3-4.2-60.9
			c-38.1-38.6,26.5-94.3,45.5-93.2s49.3-23.3,30.2-43.4c-19.1-20.1-15.9-97.5,38.1-111.8c54-14.3,32.5-11.7,112.6-72
			c80.2-60.4,144.1,1.8,163.5,22.6c19.4,20.8,56.9,27.2,77.7,75.9C1990.3,2331.4,1947.5,2367.9,1947.5,2367.9z"/>
		<path class="st29" d="M1513.5,3482.4l92.2,15.9v232c0,0,7.2,80.5,87.9,104.9l-125-16.9c0,0-55.1-3.2-55.1-81.6L1513.5,3482.4z"/>
		<path class="st41" d="M1487.5,3478.4l92.2,15.9v232c0,0,7.2,80.5,87.9,104.9l-124.9-17c0,0-55.1-3.2-55.1-81.6L1487.5,3478.4z"/>
		<g>
			<defs>
				<path id="SVGID_26_" d="M1487.5,3478.4l92.2,15.9v232c0,0,7.2,80.5,87.9,104.9l-124.9-17c0,0-55.1-3.2-55.1-81.6L1487.5,3478.4z
					"/>
			</defs>
			<clipPath id="SVGID_27_">
				<use xlink:href="#SVGID_26_"  style="overflow:visible;"/>
			</clipPath>
			<g class="st42">
				<polygon class="st36" points="1485.3,3548.3 1584.8,3564.9 1584.8,3571.8 1485.3,3554.5 				"/>
				<polygon class="st36" points="1485.3,3521.8 1584.8,3538.4 1584.8,3545.3 1485.3,3528 				"/>
				<polygon class="st36" points="1485.3,3600.5 1584.8,3617.1 1584.8,3624 1485.3,3606.7 				"/>
				<polygon class="st36" points="1485.3,3574 1584.8,3590.6 1584.8,3597.5 1485.3,3580.2 				"/>
				<polygon class="st36" points="1485.3,3652.7 1584.8,3669.3 1584.8,3676.2 1485.3,3658.9 				"/>
				<polygon class="st36" points="1485.3,3626.2 1584.8,3642.8 1584.8,3649.6 1485.3,3632.3 				"/>
				<polygon class="st36" points="1485.3,3704.9 1584.8,3721.5 1584.8,3728.4 1485.3,3711.1 				"/>
				<polygon class="st36" points="1485.3,3678.3 1584.8,3695 1584.8,3701.8 1485.3,3684.5 				"/>
			</g>
		</g>
		<path class="st32" d="M1286.2,3094.2v256.7c0,0-3.2,69.9,64.6,103.1c67.8,33.2,165.2,79.8,423.7,70.6c47.3-2.8,113-52.3,113-123.6
			v-245.4c0,0-24-112.3-115-148.3c-91-36-270.1-98.5-420.6-15.9C1320.1,3011.5,1286.2,3045.4,1286.2,3094.2z"/>
		<g>
			<defs>
				<path id="SVGID_28_" d="M1286.2,3094.2v256.7c0,0-3.2,69.9,64.6,103.1c67.8,33.2,165.2,79.8,423.7,70.6
					c47.3-2.8,113-52.3,113-123.6v-245.4c0,0-24-112.3-115-148.3c-91-36-270.1-98.5-420.6-15.9
					C1320.1,3011.5,1286.2,3045.4,1286.2,3094.2z"/>
			</defs>
			<clipPath id="SVGID_29_">
				<use xlink:href="#SVGID_28_"  style="overflow:visible;"/>
			</clipPath>
			<g class="st43">
				<path class="st44" d="M1243.1,3081.9c0,0,97.2-86.6,316.2-40.9c174.8,36.5,232.2,83.9,229.6,252.2
					c-2.6,168.3,1.6,232.2-14.8,238.7c-16.4,6.5,53,30.3,77.5,33.9s164.4,225.7,180-27.4s96.5-255.1,15-419.7
					c-81.5-164.6,21.8-166-159.1-258.6c-180.8-92.7-239.5-189.3-445.7-150.1c-206.1,39.2-311.8-31.9-294.8,78.7
					c17,110.5,44.4,165.3,61.3,205.8c17,40.5,15.6,53.5,30,74.4"/>
			</g>
		</g>
		<path class="st45" d="M1943,2691.6c0,0,39.9,0.5,67.3,13.2c27.5,12.7,66.1,158.9,79.9,197.6c13.8,38.7,69.9,156.8,69.9,156.8
			l128.7-132.9l50.8,34.4c0,0-108.6,255.8-183.8,272.8c-75.2,16.9-247.2-385.4-251.4-459.5S1936.2,2691.3,1943,2691.6z"/>
		<g>
			<defs>
				<path id="SVGID_30_" d="M1943,2691.6c0,0,39.9,0.5,67.3,13.2c27.5,12.7,66.1,158.9,79.9,197.6c13.8,38.7,69.9,156.8,69.9,156.8
					l128.7-132.9l50.8,34.4c0,0-108.6,255.8-183.8,272.8c-75.2,16.9-247.2-385.4-251.4-459.5S1936.2,2691.3,1943,2691.6z"/>
			</defs>
			<clipPath id="SVGID_31_">
				<use xlink:href="#SVGID_30_"  style="overflow:visible;"/>
			</clipPath>
			<g class="st46">
				<path class="st40" d="M1887.6,2698.3c0,0,48.4,139.4,77.9,196.7c29.6,57.3,120.7,260,156.4,265.2s78.4,3.5,114.9-53.1
					c36.5-56.5,98.3-166.4,98.3-166.4s39-4,46,22.1c7,26.1,34.8,25-12.1,127c-46.9,102-7,215.6-160,205.2
					c-153.1-10.4-171.2,61.1-251-53.9c-79.8-115.1-119.6-137-122.2-233.3c-2.6-96.3-1.7-138.1,0-179.8"/>
			</g>
		</g>
		<polygon class="st47" points="2873.5,3079.7 2561.2,2940.6 2976.2,2784.8 3289.8,2911.4 		"/>
		<polygon class="st48" points="2864.6,3096.7 2552.3,2957.6 2967.3,2801.8 3280.9,2928.4 		"/>
		<polygon class="st49" points="3016,2985.3 2902.1,2939.2 3055.1,2883.5 3164.6,2929.5 		"/>
		<line class="st50" x1="2770.8" y1="2914.2" x2="2973.6" y2="2998.9"/>
		<line class="st50" x1="2807.6" y1="2895" x2="2899.9" y2="2933.5"/>
		<line class="st50" x1="2845.1" y1="2878.9" x2="2937.4" y2="2917.4"/>
		<line class="st50" x1="2884.9" y1="2864.2" x2="2977.2" y2="2902.7"/>
		<line class="st50" x1="2922.9" y1="2849.6" x2="3015.2" y2="2888.1"/>
		<line class="st50" x1="2953.4" y1="2839.2" x2="3045.7" y2="2877.7"/>
		<line class="st50" x1="2731.1" y1="2929.5" x2="2934" y2="3014.1"/>
		<line class="st50" x1="2693.8" y1="2948.1" x2="2896.6" y2="3032.8"/>
		<line class="st50" x1="2656.5" y1="2965.4" x2="2859.3" y2="3050.1"/>
		<polygon class="st51" points="2870.9,3079.7 2558.6,2940.6 2973.6,2784.8 3287.2,2911.4 		"/>
		<polygon class="st47" points="2864.6,3096.7 2552.3,2957.6 2967.3,2801.8 3280.9,2928.4 		"/>
		<polygon class="st47" points="3016,2985.3 2902.1,2939.2 3055.1,2883.5 3164.6,2929.5 		"/>
		<line class="st52" x1="2770.8" y1="2914.2" x2="2973.6" y2="2998.9"/>
		<line class="st52" x1="2807.6" y1="2895" x2="2899.9" y2="2933.5"/>
		<line class="st52" x1="2845.1" y1="2878.9" x2="2937.4" y2="2917.4"/>
		<line class="st52" x1="2884.9" y1="2864.2" x2="2977.2" y2="2902.7"/>
		<line class="st52" x1="2922.9" y1="2849.6" x2="3015.2" y2="2888.1"/>
		<line class="st52" x1="2953.4" y1="2839.2" x2="3045.7" y2="2877.7"/>
		<line class="st52" x1="2731.1" y1="2929.5" x2="2934" y2="3014.1"/>
		<line class="st52" x1="2693.8" y1="2948.1" x2="2896.6" y2="3032.8"/>
		<line class="st52" x1="2656.5" y1="2965.4" x2="2859.3" y2="3050.1"/>
		<polygon class="st48" points="2861.1,3096.7 2548.8,2957.6 2963.8,2801.8 3277.4,2928.4 		"/>
		<polygon class="st49" points="3012.5,2985.3 2898.6,2939.2 3051.6,2883.5 3161.1,2929.5 		"/>
		<line class="st50" x1="2767.3" y1="2914.2" x2="2970.1" y2="2998.9"/>
		<line class="st50" x1="2804.1" y1="2895" x2="2896.4" y2="2933.5"/>
		<line class="st50" x1="2841.6" y1="2878.9" x2="2933.9" y2="2917.4"/>
		<line class="st50" x1="2881.4" y1="2864.2" x2="2973.7" y2="2902.7"/>
		<line class="st50" x1="2919.4" y1="2849.6" x2="3011.7" y2="2888.1"/>
		<line class="st50" x1="2949.9" y1="2839.2" x2="3042.2" y2="2877.7"/>
		<line class="st50" x1="2727.6" y1="2929.5" x2="2930.5" y2="3014.1"/>
		<line class="st50" x1="2690.3" y1="2948.1" x2="2893.1" y2="3032.8"/>
		<line class="st50" x1="2653" y1="2965.4" x2="2855.8" y2="3050.1"/>
		<path class="st53" d="M3062.5,2247.4l-25.5,34.6c-11.6-24.7-36-35.8-51.4-40.5l35.1-26.7c4.6,0,9.2,0.7,13.6,2.2
			c9.5,3.1,21.4,10.5,27.3,27.9C3061.9,2245.9,3062.2,2246.7,3062.5,2247.4z"/>
		<path class="st54" d="M3410.4,2541.7c0,16-11,29.8-26.6,33.4c-2.5,0.6-5.1,0.9-7.7,0.9c-2.2,0-4.5-0.2-6.7-0.7
			c-18.6-3.7-30.6-21.7-27-40.3c3.7-18.6,21.7-30.6,40.3-27C3398.8,2511.3,3410.4,2525.3,3410.4,2541.7L3410.4,2541.7z"/>
		<path class="st54" d="M3102.5,2211.4c0,18.9-15.4,34.3-34.3,34.3c-2.2,0-4.4-0.2-6.5-0.6c-5.9-17.4-17.8-24.7-27.3-27.9
			c-3.3-18.6,9.2-36.4,27.8-39.7c18.6-3.3,36.4,9.2,39.7,27.8C3102.2,2207.3,3102.4,2209.4,3102.5,2211.4L3102.5,2211.4z"/>
		<path class="st53" d="M3355.7,2514.1c-3.8,2.8-7,6.4-9.4,10.6l-147.2-162.1l-30.8-33.8l-45.4-49.9l-35.6-39.1
			c3.9-2.7,7.3-6.1,9.8-10.1l42.6,46.8l30,33l31.5,34.6L3355.7,2514.1z"/>
		<path class="st54" d="M3428.2,2919.2v-0.7c-113.8-42.1-210.1-3.5-217.9-0.2C3233.4,2924.4,3318.4,2943.1,3428.2,2919.2z"/>
		<path class="st55" d="M3210.4,2918.3l-0.5,0.2v25.1c0,0,90.9,29.8,218.4,0v-24.5C3318.4,2943.1,3233.4,2924.4,3210.4,2918.3z"/>
		<path class="st53" d="M3383.8,2575.1l-51.2,293.3l-6.8,39.1l-0.7,4.1l-13.8-2.5l0.3-1.6l7-40l51-292.1c2.2,0.4,4.4,0.7,6.7,0.7
			C3378.7,2576,3381.3,2575.7,3383.8,2575.1z"/>
		<path class="st54" d="M3041.9,2299.6l-34.7,77.9l-6,13.5l-52.5-44.5l-47.3-43.8l-28.5-26.3l9.6-8.4l0,0l0.3-0.1l0.3-0.1l87.4-37.1
			c4.6,0.7,9.2,1.8,13.6,3.2c15.4,4.7,39.8,15.7,51.4,40.5c1.3,2.8,2.5,5.8,3.4,8.8C3040.6,2288.4,3041.6,2293.9,3041.9,2299.6z"/>
		<path class="st55" d="M2909.6,2362.6c-34.7-32.6-50-72.8-34-89.7c15.9-16.9,56.9-4.2,91.7,28.5c34.7,32.6,49.9,72.8,34,89.7
			C2985.3,2408,2944.3,2395.2,2909.6,2362.6z"/>
		<path class="st56" d="M2631.8,1817.6c7.1-7.3,13.9-14.2,20.5-21.2c31.8-33.1,63.6-66.1,95.4-99.2c9.4-9.7,18.6-19.8,28.5-28.9
			c17.3-15.7,43.5-17.2,63.3-4.5c18.9,12.1,27.7,35.7,22,57.8c-2.7,10.6-8.5,19.1-15.9,26.8c-33.5,34.8-66.9,69.5-100.4,104.3
			c-27.8,28.9-55.6,57.9-83.3,86.9c-20.3,21.2-48.7,24.7-71.3,8.9c-7-5.1-12.8-11.7-17-19.3c-24.2-41.4-48.3-82.9-72.3-124.4
			c-11.7-20.2-11.8-40.2,1.2-59.9c14.2-21.5,46.5-28.6,68.8-15.7c11.4,6.6,18.6,16.5,24.9,27.4
			C2607.9,1776.7,2619.6,1796.8,2631.8,1817.6z"/>
		<path class="st48" d="M3360.4,1476.6c-5.3-11.4-12.5-21.9-21.3-30.9c-1.1-1.1-1.8-1.6-2.7,0.3c-2.8,5.9-5.9,11.5-8.7,17.3
			c-1,2-1.7,2.1-3.3,0.6c-8.7-8.1-18.2-12.7-28.2-13.5c-22.1-1.8-38.1,9.8-47.9,34.3c-1.7,4.3-1.6,4.3-5.2,2.1
			c-1.5-0.9-1.7-1.8-1.1-3.4c1.9-5.7,4.5-11.1,7.6-16.2c9.2-14.7,21.3-22.9,36.2-24.7c11-1.3,21.8,1.5,32.3,8.1
			c0.9,0.6,1.8,1.5,2.3-0.5c1.4-4.8,2.9-9.5,4.4-14.3c0.3-1,0.4-1.8-0.7-2.4c-3.7-2-7.3-4.6-11.1-5.7c-0.4-0.6-0.9-0.5-1.4-0.6
			c-11-4.8-23.3-6-35-3.3c-16.1,3.6-29.1,13.6-39.1,29.7c-9.1,14.5-13.9,31.7-14.8,51.4c-0.1,1.7,0.2,2.3,1.6,2.6
			c5.8,1,11.6,2.3,17.3,3.3c1.3,0.2,1.9,0.7,1.9,2.7c0,6.7,0.7,13.3,2.1,19.8c7,34,31.5,59.9,57.4,60.5c4,0.1,3.9,0.1,4.8,5.4
			c0.3,1.9-0.1,2.5-1.5,2.5c-12.1,0.1-23.8-4-33.2-11.6c-18.8-14.7-30.5-35.9-34.5-63.5c-0.3-1.9-0.8-2.5-2.1-2.4
			c-3.7,0.3-7.4,0.5-11.2,0.6c-1.2,0-1.7,0.5-1.4,2.3c1.1,8.9,3.1,17.6,6,26.1c0.1,1.1,0.5,2.2,1.1,3.2
			c13.8,35.2,34.9,56.6,63.5,63.5c12.5,3,25.6,1.5,37.1-4.3c1.6-0.7,1.8-1.6,1-3.7c-2.7-6.9-5.3-13.9-8-20.8
			c-0.7-1.9-0.5-2.7,0.7-3.4c2.9-1.6,5.5-3.6,7.7-6c4.9-4.6,8.9-10.1,11.6-16.3c0.1-0.2,0.3-0.5,0.4-0.7c10.6-24.7,9.6-50.5-3-77.4
			c-2.3-4.8-2.3-4.7,0.9-7.6c1.1-1,1.6-0.7,2.4,0.7c6.7,12.5,10.9,26.3,12.3,40.4c1.6,14.6-0.1,29.5-5.2,43.3c-1,2.3-2,4.5-3,6.8
			c-0.7,1.2-1.3,2.5-2,3.7c-1.9,3.3-4.1,6.4-6.4,9.3c-1,1.1-1.9,2.1-2.9,3.2c-0.6,0.6-1.2,1.2-1.8,1.6c-0.8,0.7-0.8,1.2-0.1,2.5
			c2.6,4.6,5.2,9.3,7.7,14c0.6,1.1,1,1.4,1.8,0.5c1.4-1.7,3.1-2.8,4.3-4.7l0,0c2.9-3.1,5.8-6.2,7.7-10.6c1.5-1.2,2.3-3.1,3.2-4.9
			c0.5-1,1.1-2,1.6-3.1c0.7-1.7,1.5-3.3,2.2-4.9l0,0c6.9-15.8,9.3-33.4,8-52.5C3371.8,1508.2,3367.6,1491.8,3360.4,1476.6z
			 M3303.1,1574.9c-22.6,0.1-42.3-23.4-45.1-53.9c-2.6-28.7,13.4-52.4,35.5-52.5c21.4-0.1,41.6,24,44.3,52.8
			C3340.6,1551,3325.1,1574.8,3303.1,1574.9z"/>
		<path class="st48" d="M3328.3,1514.1c0-1.1-0.3-2.2-0.7-3.3l0,0c-2.9-10.1-7.9-18-14.9-23.9c-13.6-11.4-30.6-9.2-39.6,4.9
			c-9.7,15.3-9.5,35.9,1,53.8c5.6,9.6,13,15.5,21.8,17.5c0.3,0.4,0.9,0.6,1.4,0.5c3.1,0.6,6.3,0.6,9.4,0c12.4-2.2,22.6-17,23.2-33.6
			C3330,1524.7,3329.5,1519.3,3328.3,1514.1z M3303.8,1519.8c-0.8,1.3-1.1,2.8-0.8,4.3c0.4,3.9,0.8,7.8,1.2,11.7
			c0.3,3.9-1.4,6.9-4,7s-4.9-2.8-5.5-6.7c-0.3-2.2-0.4-4.3-0.7-6.4l0,0c-0.1-1.1-0.3-2.3-0.3-3.4c0-2.6-0.9-5.1-2.5-7.1
			c-3.4-4.6-3.5-10.9-0.3-15.6c2.8-3.6,8.2-3.2,11.4,0.9C3305.9,1508.8,3306.6,1515.5,3303.8,1519.8z"/>
		<path class="st56" d="M1743.8,1074.7c-0.5-0.8-1-1.4-1.4-2.1c-17.7-25.3-35.3-50.6-53-76c-7.4-10.7-12.7-22.7-15.8-35.3
			c-6.2-25.3-3.9-48.5,7.5-68.9c12.5-22.4,31.7-35.6,57.4-38.8c47.2-5.8,95.1,28.4,110.9,78.7c6.1,19.3,6.6,38.1,1.6,56.1
			c-1.6,5.5-3.7,10.9-6.2,16.1c-19.8,43.5-39.6,87.1-59.5,130.5c-0.3,0.6-0.6,1.2-1,2c-0.5-0.7-0.9-1.2-1.2-1.7
			c-6.9-10-13.8-20.1-20.6-30.1c-0.4-0.8-1.3-1.3-2.2-1.2c-11.7,0.8-23.4,2.9-34.6,6.3c-5.3,1.6-10.5,3.8-15.2,6.8
			c-1.3,1-2.6,2-3.8,3.1c3.2,3,6.9,5.3,10.9,7c10.1,4.5,20.8,7.7,31.7,9.5c17,3.1,34.2,4.3,51.4,3.4c15.5-0.7,30.6-2.8,44.7-8.3
			c3-1.2,5.9-2.7,8.8-4.3c1.6-1.1,3.1-2.2,4.5-3.5c-1.6-1.1-2.8-2.2-4.1-3c-6.6-3.9-13.6-6.9-20.9-9.1c-4.9-1.5-9.8-2.7-14.7-4
			l-1.5-0.4c0.8-1.7,1.6-3.3,2.3-4.9l9.9-20.7c0.3-0.6,0.4-1.3,1.5-1c11.5,3.1,22.8,7,33.5,13.5c6.6,3.8,12.3,8.9,16.8,15.1
			c8.1,11.6,8.2,25.2,0.4,35.4c-4.4,5.8-10.3,9.7-16.7,12.9c-10.3,5.1-21.4,8-33,9.9c-19.2,3.1-38.7,3.8-58.1,2.1
			c-18.2-1.4-36.4-4.4-54.4-10.9c-10.1-3.7-19.8-8.3-28.5-15.8c-5.7-5-10.1-10.9-12.2-18.3c-2.8-9.9-0.7-18,4.7-25
			c5.4-7,12.4-11.4,20.2-15c11.7-5.2,24.2-8.5,37-9.7C1741.8,1075,1742.7,1074.8,1743.8,1074.7z M1756.3,897.6
			c-21.4-0.6-36.7,17.5-34.1,40.2c2.6,22.7,22.3,41.7,43.7,42.3c21.5,0.6,36.8-17.3,34.2-40.1
			C1797.4,917.1,1777.9,898.2,1756.3,897.6L1756.3,897.6z"/>
		<polygon class="st56" points="1619.4,835.1 1238.9,795.3 1238.9,767.9 1619.4,807.7 		"/>
		<polygon class="st56" points="1619.4,906.7 1238.9,866.9 1238.9,839.5 1619.4,879.3 		"/>
		<polygon class="st56" points="1619.4,978.3 1238.9,938.5 1238.9,911.1 1619.4,950.9 		"/>
		<polygon class="st56" points="1619.4,1049.8 1238.9,1010 1238.9,982.6 1619.4,1022.4 		"/>
		<polygon class="st56" points="1414.6,1217.1 1259,1200.7 1256.5,1044.2 1412.1,1060.6 		"/>
		<polygon class="st56" points="1594.2,1235.8 1438.6,1219.4 1436.1,1062.8 1591.7,1079.3 		"/>
		<path class="st48" d="M1551.6,2095.8c-7.3,0.3-14.6,0-21.9-0.8c-33.2-3.7-64.5-17.5-93-41c-38.7-31.9-65.6-73.8-80-124.7
			c-0.9-3.1-1.6-6.2-2.4-9.1c-0.3-1.4-0.7-2.7-1.1-4.1l-0.1-0.4l-3.5-20.2v-0.6c0-0.3,0-0.6,0-0.9c0-0.3,0-0.9,0-1.2
			c-0.1-1.5-0.3-3.1-0.4-4.6c-0.3-3.1-0.6-6.3-0.8-9.6c-2.4-45.3,7.6-84.8,29.8-117.3c21.3-31.3,50.3-50.6,86.1-57.4
			c2.6-0.5,5.3-0.9,7.8-1.3l3.5-0.6h0.3l15-0.6l0.6,0.1l0.8,0.1l0.9,0.1c1.8,0.1,3.7,0.3,5.5,0.4c3.9,0.2,8,0.5,12.2,1.2
			c38.2,5.9,73.2,24.6,104.1,55.6c30,30.1,51.2,66.8,63,109.3c0.9,3.1,1.6,6.2,2.5,9.1c0.3,1.4,0.7,2.7,1.1,4.1l0.1,0.4l3.5,20.2
			v0.6c0,0.3,0,0.7,0,1s0,0.7,0,0.8c1.4,12,1.9,24.1,1.5,36.2c-0.7,20.9-4.8,41.6-12.1,61.3c-6.6,17.7-16.3,34.2-28.7,48.5
			c-11.7,13.5-26,24.5-42.1,32.4C1587.5,2090.7,1569.7,2095.1,1551.6,2095.8z M1366,1914.4c0.3,1.2,0.7,2.5,1,3.8
			c0.8,3,1.5,5.8,2.3,8.7c13.2,47,38.1,85.7,73.8,115c26.3,21.7,55.1,34.4,85.8,37.8c6.7,0.8,13.4,1,20.2,0.7
			c69.9-3,121.1-61.9,124.4-143.1c0.4-11.2,0-22.3-1.3-33.4c-0.1-0.9-0.1-1.8-0.1-2.7c0,0,0-0.1,0-0.1l-3.1-18.2
			c-0.3-1.2-0.7-2.5-1-3.7c-0.7-2.9-1.5-5.9-2.3-8.7c-10.9-39.2-30.5-73.1-58.1-100.8c-28.5-28.6-60.8-45.8-96.1-51.3
			c-3.6-0.6-7.3-0.8-11.1-1c-1.9-0.1-3.8-0.2-5.7-0.4c-0.7,0-1.3-0.2-1.9-0.3l0,0l-13.3,0.6l-3.3,0.5c-2.5,0.4-5,0.8-7.5,1.2
			c-33.1,6.3-59.8,24.1-79.4,52.9c-20.4,30-29.7,66.4-27.4,108.2c0.1,2.9,0.4,5.7,0.7,8.8c0.1,1.6,0.3,3.2,0.4,4.8
			c0.1,0.8,0.1,1.6,0.1,2.3c0,0,0,0.1,0,0.1L1366,1914.4z M1531.5,2019.5c-3.6,0.2-7.2-0.2-10.7-1c-14.2-3.4-25.4-18.1-26.5-34.9
			c-0.6-8.6-0.4-17-0.2-25.2v-1.9c0.2-9.1,0.5-18.2,0.8-27.1c0.3-9.5,0.6-19.2,0.9-28.9c0-2.2-0.1-4.4-0.4-6.6
			c-2.8,0.6-5.6,1.2-8.5,2.1l-1.1,0.3c-1.6,0.5-3.1,1-4.6,1.7l-0.5,0.2c-0.8,0.4-1.8,0.6-2.7,0.6c-2.5,0-4.8-1.1-6.4-3
			c-1.9-2.3-2.9-5.3-2.8-8.3c0-1,0-2,0-3.1c0.1-4.9,0.2-10,0.5-15.1c0.1-3.3,1.7-6.4,4.3-8.3c9.9-6.5,18.1-10.2,26.6-12
			c5.6-1.2,11.5-0.9,17,0.9c6.7,2.2,12.4,6.7,16.3,12.6c4.4,6.8,7.2,14.5,8.2,22.5c1,6.3,0.7,13.4,0.3,21c-0.1,2-0.2,4.1-0.3,6.2
			c-0.2,5.8-0.4,11.5-0.6,17.2c-0.5,13.1-0.9,26.6-1.2,39.9c0,1.9,0.2,3.8,0.5,5.7c3.2-0.1,6.3-0.9,9.3-2.2c1.1-0.5,2.2-1.1,3.3-1.7
			c0.9-0.5,1.8-1,2.8-1.5c1-0.5,2-0.8,3.1-0.9c2.4,0,4.7,1.1,6.2,2.9c1.9,2.3,2.9,5.3,2.7,8.4l-0.1,3.2c-0.1,5.1-0.2,10.4-0.5,15.6
			c-0.1,3-1.4,7.1-4.4,8.9l-0.7,0.4c-8.1,4.7-16.5,9.6-26.6,11.1C1534.3,2019.3,1532.9,2019.4,1531.5,2019.5L1531.5,2019.5z
			 M1496.3,1878c2.8-0.1,5.5,1,7.4,3c2.3,2.4,3.8,5.6,4.1,9v0.1c0.7,4.5,1.1,9,1.1,13.5c-0.2,9.7-0.5,19.5-0.9,29
			c-0.3,8.8-0.6,18-0.8,27v1.9c-0.2,7.8-0.4,15.8,0.1,23.5c0.6,8.9,6.4,16.7,13.9,18.6c3.5,0.8,7.1,0.9,10.6,0.4
			c7.9-1.2,15-5.2,22.4-9.6c0.1-2.2,0.2-4.3,0.2-6.5c-3.4,1.4-7.1,2.2-10.8,2.4c-1.8,0.1-3.5,0-5.2-0.2c-5.4-0.7-9.5-5.2-10.4-11.1
			c-0.1-0.8-0.2-1.6-0.4-2.5c-0.6-3.4-0.9-6.8-0.9-10.2c0.3-13.4,0.8-26.9,1.2-40c0.2-5.7,0.4-11.4,0.6-17.2
			c0.1-2.2,0.2-4.3,0.3-6.4c0.3-6.6,0.6-12.9-0.1-17.4v-0.1c-1.1-7.8-4.2-17.6-12.9-20.3c-3.6-1.2-7.4-1.3-11.1-0.5
			c-7,1.5-13.9,4.6-22.3,10c-0.1,2.2-0.2,4.5-0.2,6.8c4.1-1.1,8.3-2.1,12.7-2.8C1495.3,1878,1495.8,1877.9,1496.3,1878L1496.3,1878z
			 M1524,1843.3c-7.1,0.3-14.4-2.9-20.6-9c-6.2-6.1-10.3-14-11.8-22.5c-1.6-8.9,0-17.8,4.2-24.4c3.6-5.9,9.9-9.7,16.8-10.1l1.3,7.7
			l-1.3-7.7c7.2-0.3,14.6,2.7,20.7,8.5c6.2,6,10.4,13.8,11.8,22.3c1.7,9.5,0.2,18.4-4.1,25.1C1537.4,1839.2,1531.1,1843,1524,1843.3
			L1524,1843.3z M1514,1785.1l1.3,7.7c-3.5,0.2-6.6,2.2-8.4,5.2c-2.4,4-3.2,8.7-2.3,13.3c1.6,9.4,9.3,17,16.7,16.7
			c3.6-0.2,6.8-2.1,8.7-5.2c2.5-4.2,3.2-9.2,2.2-14c-1.6-9.3-9.1-16.3-16.9-15.9L1514,1785.1z"/>
		<path class="st56" d="M1535.3,1885c1.1,7,0.2,16.2,0,25.5c-0.6,19.1-1.4,38.1-1.9,57.1c0.1,3.7,0.5,7.5,1.2,11.1
			c0.1,1.9,1.6,3.4,3.5,3.5c5.1,0.6,10.2-0.3,14.8-2.5c2.2-0.9,4.2-2.2,6.3-3.3c1.6-0.8,2.1-0.3,2.1,1.8c-0.1,6.2-0.2,12.4-0.5,18.6
			c0,1.3-0.5,2.6-1.5,3.6c-8,4.7-16.1,9.5-25.5,11c-4.3,0.7-8.6,0.5-12.8-0.5c-10.7-2.6-19.3-13.8-20.2-26.7
			c-0.6-8.8-0.3-17.6-0.1-26.3c0.5-18.7,1.2-37.3,1.7-56c0-4.1-0.4-8.1-1-12.2c-0.4-3.2-1.8-4.6-4.4-4.1c-4.6,0.7-9.1,1.9-13.5,3.1
			c-2,0.6-3.9,1.3-5.7,2.1c-1.6,0.7-2.2-0.2-2.2-2c0.1-6,0.2-12,0.5-17.9c0.1-1.3,0.7-2.4,1.7-3.2c7.7-5.1,15.8-9.4,24.9-11.3
			c4.7-1,9.5-0.8,14,0.7C1526.2,1860.3,1533.2,1869.8,1535.3,1885z"/>
		<path class="st56" d="M1522.7,1835.6c-11,0.5-22.3-10.5-24.6-24.1c-2.5-13.9,4.8-26,15.8-26.4c11.4-0.5,22.3,9.9,24.7,23.3
			C1541.2,1823,1534.1,1835.1,1522.7,1835.6z"/>
		<path class="st56" d="M3385.6,834.6l125.2,12.1c20.3,2,40.6,3.9,60.9,5.8c15.5,1.4,28.1,13.1,31.3,28.8c0.4,2.2,0.2,3.5-1.8,4.7
			c-54.8,34.4-109.6,68.8-164.4,103.3c-6.2,3.9-12.7,7.4-18.9,11.3c-14,8.7-29.4,9.2-45.6,4.8c-8.5-2.3-16.5-6.5-23.3-12.1
			c-27.2-22.4-54.7-44.6-81.8-67.2c-32.3-27-64.4-54.4-96.7-81.5c-1.6-1-2.3-3-1.7-4.8c3.4-14.7,16.4-24.4,31.3-23
			c34.2,3.2,68.4,6.5,102.7,9.9C3330.4,829.3,3358,832,3385.6,834.6L3385.6,834.6z"/>
		<path class="st56" d="M3372.3,1146.7c-38.2-3.7-85.1-8.1-132-12.7c-15.1-1.4-30.2-3-45.2-4.5c-15.1-1.5-27.6-13.4-30.6-29
			c-0.3-1.9-0.2-3.1,1.5-4.2c52.9-33.2,105.7-66.5,158.5-99.8c1.8-1.2,3-1,4.9,0.4c7.9,6,15.5,12.8,24.1,17.3
			c21.5,11.2,43.5,13.6,64.9,4.4c6.9-3,13.2-7.2,19.8-11.1c1.2-1,3-0.8,4.1,0.4c51.7,43.5,103.5,86.9,155.3,130.3
			c1.1,0.8,1.7,2.2,1.2,3.6c-2.8,15-16.7,25.3-31.9,23.7c-35.2-3.4-70.3-6.8-105.5-10.2L3372.3,1146.7z"/>
		<path class="st56" d="M3603.3,904.3c-1.2,72-2.5,143.7-3.7,215.7L3454.5,998L3603.3,904.3z"/>
		<path class="st56" d="M3167.9,862.3c48.6,40.8,97,81.4,145.1,121.9l-148.8,93.8C3165.5,1006,3166.7,934.3,3167.9,862.3z"/>
		<g class="st15">
			<path class="st16" d="M4049.2,1535.2l-634.7-83.5c-6.5-0.9-11.3-6.4-11.3-12.9v-402.7c0-7.2,5.9-13,13.1-13c0.6,0,1.1,0,1.7,0.1
				l627.4,83.5c6.4,0.9,11.2,6.3,11.3,12.7l7.2,402.6c0.1,7.2-5.6,13.1-12.8,13.3C4050.5,1535.3,4049.8,1535.3,4049.2,1535.2z"/>
		</g>
		<path class="st56" d="M3625.3,1268.8c35.9-7.8,71.8-15.6,107.7-23.4c2.6-0.6,4-1.5,4.8-4.3c2.7-9.5,9.1-15.3,18.6-17.9
			c1.5-0.5,2.7-1.5,3.5-2.9c15.2-34.3,40.9-55.3,77.9-61.6c43.4-7.3,87.4,15.9,106.3,55.5c21.7,45.5,7.9,99.1-33.7,127
			c-35.1,23.6-71.7,24.2-108.6,3.5c-6.3-3.6-11.7-8.8-17.7-13.1c-1.2-0.9-2.8-1.4-4.4-1.3c-10,1.7-18.4-1.2-24.9-9
			c-1.2-1.7-3.3-2.3-5.2-1.6c-17.6,3.9-35.3,7.7-53,11.5c-5.4,1.2-7.6-0.2-8.8-5.5c-0.2-1.3-0.5-2.6-1-3.8c-0.5-1.3-1.4-2.5-2.5-3.3
			c-3.2-2-12.4,1-14,4.4c-0.2,0.4-0.4,0.9-0.6,1.3c-1.7,11.7-11.1,11.8-19.7,13.2c-1.3,0-2.5-0.5-3.5-1.4c-1.3-1.1-2.4-2.4-3.4-3.7
			c-4.3-5.2-7.8-6-13.8-3c-1.2,0.7-2.2,1.7-2.9,3c-0.9,2-1.7,4-2.2,6.1c-2.2,6.7-8.4,8.7-14.4,4.9c-2.7-1.7-4.8-4.2-8.9-3.7
			c-6.2,0.6-9.7,3.7-12.1,9.1c-2.6,6-10.3,9.9-16.7,8.9c-1.4-0.3-2.7-1-3.7-2c-3-2.7-5.8-5.8-8.9-8.5c-4.3-3.8-12.8-1.5-14.3,3.9
			c-0.9,3.2-2.8,4.5-5.9,5.5c-7.7,2.5-14.5,1.6-21.8-2.1c-8.8-4.5-18.1-7.9-27.1-11.8c-5.8-2.5-6.7-5.3-3.1-10.6
			c8.5-12.6,16.9-25.2,25.6-37.6c1.1-1.2,2.5-2,4.1-2.3C3553.3,1284.5,3589.3,1276.6,3625.3,1268.8z M3904.1,1274.6
			c14.5-3.1,23.7-17.4,20.6-31.9c-3-14-17.9-23.7-31.7-20.7c-14.7,3.3-24.5,17.8-20.9,32.5c3.2,14.3,17.5,23.3,31.8,20.1
			C3904,1274.7,3904,1274.7,3904.1,1274.6z"/>
		<path class="st56" d="M3696.4,2160.5c1.3,17.2,2.7,40.4,1.2,63.7c-3.1,50-15.7,96.5-37.7,139.4c-10.3,20.2-22.8,39.3-37.1,56.9
			c-1.6,2-3.3,3.9-6.2,2.9c-4.1-1.4-5.1-6-2.2-9.9c6.5-8.8,13.4-17.3,19.5-26.6c31.1-47.6,49.2-101.1,53.1-160.7
			c0.9-16.1,0.9-32.3,0.1-48.4c-0.8-20.1-2.8-40.1-3.8-60.2c-1.6-31.5-27.8-56.5-56.9-52.8c-23.7,3-42.4,26.9-41.2,53.5
			c1,20,2.5,39.9,3.9,59.9c2.4,30.1-1,60.4-9.9,89.3c-0.4,1.1-0.7,2.3-1.1,3.4c-1.3,3.7-4.2,5.2-7,3.8c-2.8-1.4-3.7-4.4-2.5-8.2
			c1.2-4.4,2.7-8.7,3.9-13.1c6.4-24.6,8.6-50,6.5-75.3c-1.4-18.7-2.6-37.5-3.8-56.2c-2-30.1,13.8-56.4,39.4-65.7
			c24.6-9,52.6,1.9,68.2,26.6c6.5,10.3,10.2,22.1,10.9,34.2C3694.3,2129.5,3695.2,2142,3696.4,2160.5z"/>
		<path class="st56" d="M3750.6,2150.5c0.6,20.8,1.7,41.6,1.7,62.4c0,26.7-3.4,53-8.7,78.9c-0.9,4.3-3.4,6.2-6.5,5.3s-4.4-4-3.5-8.3
			c7.9-38,10.4-76.9,7.6-115.6c-1.4-19.9-2.6-39.9-4-59.8c-4.1-55.8-44.5-101.8-94.7-108.2c-57.7-7.4-108.1,38.9-111.3,102.9
			c-0.6,12.1,0.8,24.5,1.4,36.7c0.3,6.6,0.9,13.2,1.2,19.8c0.2,3.5-1.9,6-4.8,6.1c-2.9,0.1-5.1-2-5.3-5.5
			c-1.1-18.8-3.6-37.9-2.7-56.5c2.5-49.8,24.8-85.7,65.4-105.5c65.3-31.9,143.1,14.1,158.4,93c2.6,13.4,2.8,27.3,4.1,41
			c0.4,4.5,0.6,9.1,0.9,13.6L3750.6,2150.5z"/>
		<path class="st56" d="M3669.4,2162.6c1.4,17.6,2.6,39.3,1,61.1c-0.4,5.7-2.2,8.4-5.5,8.1c-3.6-0.3-4.8-3.2-4.7-9.3
			c0.1-14.5,0.5-29.1-0.1-43.6c-0.9-20.6-2.4-41.1-4.1-61.7c-1.2-13.7-11.8-23.3-24-22.5c-11.8,0.8-20.4,11.8-19.6,25.4
			c1.2,20.7,3,41.4,4,62c3.4,70-15.8,130.5-58.3,180.7c-7.1,8.4-15.3,15.5-23,23.3c-0.6,0.6-1.2,1.1-1.8,1.5c-2.7,2-5.6,1.6-7.4-0.9
			c-1.9-2.5-1.4-5.9,1.2-8.4c7-6.8,14.4-13.2,20.9-20.5c34.1-38.4,53.6-85,57.7-139.6c1.1-14,0.5-28.3,0-42.5
			c-0.8-18.5-2.5-37-3.6-55.4c-1.1-16.8,8.2-31.3,22.7-35.9c14-4.4,29.3,2.6,37,17c2.9,5.8,4.6,12.2,4.8,18.7
			C3667.4,2132.9,3668.3,2145.7,3669.4,2162.6z"/>
		<path class="st56" d="M3505.2,2148.5c1.2,18.9,3.3,33.3,3,47.6c-0.9,45.3-19.2,79.4-53.3,102.9c-2.9,2-6,1.2-7.6-1.5
			c-1.8-3.1-0.9-6.2,2.5-8.5c23.6-15.9,38.9-38.8,45.6-68.8c2.6-12.5,3.4-25.4,2.3-38.2c-1.5-21.8-3.4-43.6-4.1-65.4
			c-2.3-69.6,41.3-133.1,101.7-149.1c32.5-8.7,64.3-5.1,95.4,10.9c2.3,1.2,4.1,2.6,4.5,5.5c0.5,4.5-3.4,7-7.7,5.3
			c-9-3.7-17.8-8.1-27-10.6c-76.4-21-150.7,37.6-156.3,123.6C3503.2,2118.9,3504.9,2136,3505.2,2148.5z"/>
		<path class="st56" d="M3617.9,1872.6c62.6-1.7,117.6,21,164.7,69c1.9,2,3.2,4.2,2.2,6.8c-0.6,1.5-2.3,3.5-3.6,3.5
			c-2.2-0.2-4.2-1.1-5.8-2.6c-19.8-20.2-41.9-36.2-66.7-47.5c-88.3-40.2-188.3-11.5-244.4,69.9c-15.9,23.2-27.5,49-34.3,76.2
			c-0.2,0.9-0.4,1.9-0.8,2.8c-1,2.9-3.5,4.3-6.1,3.4c-2.6-0.9-4-3.2-3.7-6.2c0.1-1.3,0.4-2.6,0.8-3.9
			c24.1-86.1,75.5-140.9,154-164.5C3588.5,1875.3,3603.1,1873,3617.9,1872.6z"/>
		<path class="st56" d="M3612.2,1903.2c1.9-0.1,3.7-0.2,5.6-0.2c2.9-0.1,5.4,2.2,5.6,5.2c0.4,2.9-1.6,5.6-4.5,6c-0.1,0-0.2,0-0.3,0
			c-6,0.7-12.1,1.1-18,2.1c-43.5,7.3-79.5,29.3-108,65.6c-24.2,30.9-38.3,67.1-42.1,108.4c-0.9,13-1,26.1-0.3,39.2
			c0.8,19.2,2.6,38.4,3.7,57.6c1.2,21.5-5.6,39.3-19.9,53.3c-2.1,2.1-4.4,3.1-7.2,1.2c-3.2-2.2-3.3-6.5-0.1-9.6
			c7.4-7,13-15.4,15.1-26c1.4-6.9,2-13.9,1.7-21c-1.1-22.7-3.5-45.3-4.1-67.9c-1.5-61.5,17.7-113.6,56.3-156
			c27.1-29.7,59.9-47.8,97.8-55.4c6.2-1.2,12.4-1.9,18.6-2.8C3612.2,1903.1,3612.2,1903.2,3612.2,1903.2z"/>
		<path class="st56" d="M3767.1,2153.8c-0.9-13.3-1.7-26.7-2.7-40c-3.4-44.2-21.1-80.2-52.8-108.3c-3.3-2.9-4-5.9-2-8.8
			c1.8-2.6,4.9-2.8,7.9-0.2c27.7,24.1,45.8,55,53.7,92.8c1.6,8.2,2.7,16.4,3.3,24.7c1.8,25.8,4,51.6,4.8,77.5
			c2.2,67.5-9.6,131.3-35.3,191.6c-2.7,6.4-5.7,12.7-8.7,19c-2,4.2-4.7,5.5-7.6,3.7c-2.9-1.8-3.5-5.1-1.5-9.3
			c20.5-42.5,33.9-88,39.6-134.8c3.8-30.2,4.5-60.7,2.3-91.1C3767.8,2165.1,3767.4,2159.5,3767.1,2153.8L3767.1,2153.8z"/>
		<path class="st56" d="M3832.2,2151c0.5,23.5,1.1,47,1.6,70.5c0,1.2,0,2.5-0.2,3.7c-0.4,3.4-2.5,5.3-5.3,5
			c-2.9-0.3-4.8-2.7-4.8-6.1c0-6.1,0.3-12.2,0.1-18.3c-0.2-11.4-0.5-22.8-1.1-34.2c-1.2-21.2-2.1-42.4-4.3-63.5
			c-9.1-84.1-48.9-143.6-119.4-178.4c-15.2-7.3-31.4-12.1-48.2-14.1c-3.9-0.5-6.2-3.2-5.8-6.7c0.4-3.4,2.8-5.2,6.9-4.6
			c80.2,11.8,145.6,73.7,169.4,160.2c3.9,14.3,6.4,29,7.4,43.8c1,14.2,1.9,28.4,2.8,42.6L3832.2,2151z"/>
		<path class="st56" d="M3611.4,1933.4c84.7-3.6,153.7,48.1,179.9,126.5c0.3,1,0.7,2.1,1,3.1c1,3.4-0.2,6.5-2.9,7.4
			c-2.7,0.9-5.3-0.4-6.6-3.9c-2.8-7.2-5.1-14.6-8.4-21.5c-27.6-57.6-70.3-91.8-128-99.6c-50.5-6.8-93.3,11.1-128.2,50.4
			c-0.5,0.5-0.9,1.1-1.3,1.6c-2.4,2.5-5.2,2.6-7.4,0.3c-2.2-2.3-2.2-5.9-0.1-8.2c3-3.5,6-6.9,9.2-10.2
			C3547.7,1950.2,3582.2,1934.9,3611.4,1933.4z"/>
		<path class="st56" d="M3602.3,2036.8c0.2,3.4-1.7,4.9-4.1,6.2c-16.2,9.1-27.9,23-34.8,41.7c-4.3,11.5-6.1,23.8-5.3,36.1
			c1.2,20.2,3,40.4,3.9,60.6c3.4,70.5-20.7,125.6-71.9,165.2c-4.2,3.3-7.2,3.2-9.3,0c-2.1-3.2-1.1-6.2,3.5-9.6
			c29.6-21.9,50-51.7,60.9-89.6c5.8-20.2,8.1-41.3,6.8-62.3c-1.2-20.8-2.9-41.6-4-62.4c-1.8-32.8,8.7-59.6,31.3-79.8
			c4.7-4.2,10.1-7.4,15.5-10.6C3598.2,2030.1,3602,2032.6,3602.3,2036.8z"/>
		<path class="st56" d="M3642.1,2159.4c1.7,21.5,2.8,43.1,1.1,64.5c-4,49.1-18.9,93.5-44.6,132.9c-10.6,16.2-22.9,31.1-36.9,44.5
			c-0.6,0.6-1.1,1.1-1.7,1.6c-2.5,2.1-5.5,1.9-7.4-0.6c-1.9-2.5-1.6-6,0.7-8.2c1.2-1.3,2.6-2.5,3.9-3.8
			c43.5-43.6,68.9-98.1,75.5-163.7c1.6-16.8,1.7-33.7,0.3-50.5c-1.2-17.7-2.4-35.5-3.6-53.2c0-0.7-0.1-1.5-0.1-2.2
			c-0.2-4.5,1.5-7.2,4.6-7.4c3.1-0.2,5.3,2.5,5.7,6.8c0.4,5.9,0.8,11.7,1.2,17.6C3641.1,2145,3641.6,2152.2,3642.1,2159.4z"/>
		<path class="st56" d="M3804.4,2153c2.1,26.6,3.2,53.1,1.9,79.7c-2.3,46.2-11.1,91.8-26.4,135.4c-0.8,2.4-1.6,4.7-2.5,7.1
			c-1.5,3.9-4,5.3-6.9,4c-3.1-1.4-4.1-4.6-2.6-8.7c8.6-23.4,15.3-47.5,20.1-72c8-42,10.5-84.8,7.4-127.4
			c-1.4-20.7-2.8-41.4-4.2-62.1c-0.2-3.2-0.7-6.3-1.1-9.5c-0.6-4.4,0.9-7.2,4.1-7.8c3-0.5,5.7,1.9,6.1,6.3c1.1,12.4,2,24.7,2.9,37.1
			C3803.6,2141.1,3803.9,2147.1,3804.4,2153z"/>
		<path class="st56" d="M3501.6,2017.5c-0.5,1.7-1.2,3.3-1.9,4.9c-18,32.4-25.3,67.9-22.4,106.6c1.4,19.1,2.9,38.2,3.7,57.3
			c1.6,36.3-11.1,64.4-37.7,84.5c-2.5,1.8-4.9,2.7-7.5,0.2c-2-1.8-2.4-4.7-1-7c0.8-1.2,1.9-2.3,3.1-3c13.3-9.8,22.8-23,28.5-39.7
			c4.1-12.1,5.2-24.7,4.3-37.7c-1.5-22.3-3.4-44.5-4.2-66.8c-1.4-35.1,7-69.8,24.2-100.4c1.4-2.6,3.4-4.5,6.2-3.3
			C3498.7,2013.9,3500.1,2015.9,3501.6,2017.5z"/>
		<path class="st56" d="M3725.4,2193.2c1.2,71.5-14.3,136.7-47.2,196.1c-6,10.7-12.9,20.8-19.3,31.2c-0.6,1-1.3,1.9-2,2.8
			c-2.1,2.6-5.2,2.9-7.3,0.9c-2.2-2.2-2.5-5.7-0.7-8.2c4.4-6.7,9-13.3,13.2-20.1c29.2-47.8,46.7-100.8,51.5-159.1
			c1.2-15.3,1.1-30.7,1.5-46.1c0.1-4.6,1.8-7.4,4.9-7.4s4.9,2.7,5.2,7.3C3725.3,2191.7,3725.4,2192.8,3725.4,2193.2z"/>
		<path class="st56" d="M3857.2,2133c0.9,13.1,1.7,26.2,2.6,39.3c0.2,2.7-0.4,5.2-2.8,5.8c-1.6,0.4-4,0.3-5.1-0.8
			c-1.3-1.7-2.1-3.7-2.2-5.8c-1.5-20.9-2.8-41.9-4.3-62.8c-3.5-47.3-18.4-90-44.7-128.3c-1.4-2.1-2.8-4.2-4.3-6.2
			c-2.3-3.1-2.4-6.7-0.1-8.7c2.3-2.1,5.4-1.4,7.8,1.8c11.7,15.7,21.5,32.8,29.3,50.7c12.5,28.6,20,59.1,22.1,90.2
			C3856.1,2116.4,3856.7,2124.7,3857.2,2133L3857.2,2133z"/>
		<path class="st56" d="M3721.6,2131.5c0.6,8.4,1.2,16.9,1.7,25.3c0.3,4.4-1.6,7.1-4.8,7.1c-3.2,0-5.1-2.5-5.4-6.7
			c-1-14.3-1.9-28.6-2.9-42.9c-3.1-41.7-34.6-76.5-72.2-79.6c-4.5-0.4-9-0.1-13.5,0c-3.6,0-5.9-1.7-6.2-5.1
			c-0.4-3.4,1.4-5.9,4.9-6.2c33.4-2.5,60.4,11.4,80.8,41.7c10.7,15.9,15.9,34,16.8,53.5C3720.9,2123,3721.3,2127.3,3721.6,2131.5
			L3721.6,2131.5z"/>
		<path class="st56" d="M3666.5,2256.3c-0.2,1.2-0.4,2.6-0.7,4c-11.1,59.6-36,110.4-74.7,152.5l-0.5,0.5c-3.3,3.5-6.2,3.9-8.6,1.2
			c-2.4-2.8-1.8-6.1,1.3-9.5c37.2-40.4,61.4-89.1,72.2-146.3c0.2-1.6,0.5-3.1,1-4.6c1-2.6,2.8-4,5.4-3.4
			C3664.7,2251.2,3666.1,2253.2,3666.5,2256.3z"/>
		<path class="st56" d="M3535.3,2204c-0.6,14.1-3.1,28.1-7.4,41.5c-10.9,33.5-29.8,59.8-57.1,78.3c-1.1,0.9-2.5,1.4-3.9,1.6
			c-2.5,0-4.2-1.5-4.9-4.2c-0.7-2.5,0.2-5.1,2.4-6.5c6.3-4.9,13.1-9.5,18.9-15.2c24.9-24.8,38.8-56,41.7-93.7c0.1-1,0.2-1.9,0.3-2.9
			c0.3-3.6,2.4-5.9,5.2-5.7C3533.1,2197.4,3535.2,2200,3535.3,2204z"/>
		<path class="st56" d="M3413.4,2149.8c-0.2-18.8-0.6-37.6-0.6-56.4c0.1-5.1,0.6-10.2,1.3-15.3c0.5-4.1,2.8-6,6-5.4
			c2.9,0.6,4.6,3.4,4.1,7.3c-2,17.2-2.3,34.6-1,52c1.2,18.3,2.5,36.7,3.7,55c0.2,3.8-1.2,6.3-3.9,6.9c-3.1,0.7-5.8-1.8-6.2-6
			c-0.9-12.7-1.7-25.4-2.6-38.2L3413.4,2149.8z"/>
		<path class="st56" d="M3736.2,2320.7c-0.3,1.2-0.5,2.7-1,4.2c-8.7,29.7-20.9,58.3-36.3,85.1c-1.5,2.5-2.8,5.1-4.3,7.6
			c-1.9,3.1-4.9,3.9-7.4,2.1c-2.5-1.8-3.1-5.4-1.1-8.7c17.1-28.6,30.5-59.2,39.7-91.2c0.9-3.1,2.5-5.1,5.7-4.6
			C3734.3,2315.5,3735.6,2317.5,3736.2,2320.7z"/>
		<path class="st56" d="M3505.8,2371.2c-1.6-1.6-3.5-2.8-4.4-4.6c-1.3-2.7-0.2-5.1,2-7c6-5.2,12.1-10.1,17.8-15.7
			c13.9-13.8,25.5-29.7,34.5-47.2c0.2-0.3,0.3-0.6,0.5-0.9c2-3.8,4.8-4.9,7.6-3.1s3.5,5.4,1.2,9.3c-4.6,7.9-9,15.9-14.1,23.4
			c-11,16.2-24.5,30.5-39.9,42.6C3509.5,2369,3508,2369.8,3505.8,2371.2z"/>
		<path class="st56" d="M3831.7,2258.2c-0.9,7.2-1.8,16-3.2,24.7c-2.5,14.4-5.2,28.7-7.9,43c-0.8,4-3.4,5.7-6.4,4.8
			c-2.8-0.9-4.3-4-3.4-7.7c5.1-22.2,8.7-44.6,10.8-67.3c0.3-3.7,2.5-5.7,5.4-5.3C3829.8,2250.8,3831.6,2253.1,3831.7,2258.2z"/>
		<path class="st56" d="M4323.5,1783.6c-38.7-124.2,19.7-246.2,129.3-269.8c109.6-23.7,230.4,57.8,269,181.8
			c39,124.9-19.2,245.6-130.1,269.9C4483.3,1989.3,4362,1907,4323.5,1783.6z M4690.4,1865.1c-16.4-7.6-30.7-13.6-44.7-20.9
			c-21.8-11.5-44-22.3-64.7-36.2c-26-17.6-27.5-32.5-8.1-52c10-10,18.6-20.9,21.6-36.3c4.6-23.4,3.1-47.6-4.5-70.2
			c-11.1-33.9-37.7-58.3-68.5-63.4s-58.8,9.7-69.2,40.1c-13.5,39.8-11.6,79.9,21,117.5c22,25.3,13.6,37.8-4.8,48.2
			c-1,0.6-2.1,1.1-3.2,1.5c-27.1,7.3-54.2,14.7-81.3,21.9c-7.5,2-15.3,3.4-24.4,5.5c40.7,70.6,94.3,113.9,164.7,124.1
			C4597,1955.4,4650.8,1926.3,4690.4,1865.1L4690.4,1865.1z"/>
		<path class="st56" d="M4228,1986.4c6,0.7,9.4,1.1,12.8,1.6c192.6,25.6,385.1,51.3,577.7,76.9c15.2,2,17.5,4.8,18,21.4
			c0.5,19.6,1,39.2,1.5,58.8c0.3,13.8-2.7,16.8-15.2,15.2c-129-17-258-34-387-51l-193.4-25.6c-14.5-1.9-17.1-4.9-17.6-20.9
			c-0.6-20.9-1.4-41.9-1.3-62.7C4223.4,1995,4226.5,1990.5,4228,1986.4z"/>
		<path class="st56" d="M4839.4,2228.8c0.1,3.7,0.3,8.7,0.4,13.6c0.4,17.9,0.9,35.9,1.2,53.8c0.3,15.1-2.3,17.5-16.3,15.7
			l-396.9-52.9c-60.8-8.1-121.6-16.2-182.4-24.3c-14.7-2-17.2-4.9-17.6-20.8c-0.5-19.9-0.9-39.8-1.2-59.8
			c-0.3-13.7,2.6-16.4,15.4-14.7c152,20.2,304,40.3,455.9,60.5c42.4,5.6,84.7,11.4,127.1,16.9
			C4831.6,2217.6,4836.7,2219.8,4839.4,2228.8z"/>
		<path class="st57" d="M1058.2,1789.7l-677.9-65.2c-6.7-0.6-11.8-6.3-11.8-13V842.2c0-7.2,5.9-13.1,13.1-13c0.4,0,0.8,0,1.2,0.1
			l677.9,65.2c6.7,0.6,11.8,6.3,11.8,13v869.3c0,7.2-5.8,13.1-13,13.1C1059,1789.8,1058.6,1789.8,1058.2,1789.7z"/>
		<path class="st58" d="M4599.7,4002.6c0,52-126,94.2-281.5,94.2c-155.5,0-281.5-42.2-281.5-94.2s126-94.2,281.5-94.2
			S4599.7,3950.6,4599.7,4002.6z"/>
		<path class="st48" d="M4468.7,3983.8l26.9-147.1c0,0-54.4-67.6-128.5-39.9c0,0-11.9-71.7-61.9-75.2s-75.9,28.6-75.9,28.6
			s1.5-58.7-58.6-54c-60,4.6-54.2,79.2-54.2,79.2l47.3,207.6L4468.7,3983.8z"/>
		<path class="st59" d="M4049.3,3478.1c11.4,2.7,23.2,3.9,34.9,3.6c149.5-6.9,299.9-2.8,449.6-2.1c14,0.1,28.9-0.1,40.6-7.7
			c72-46.8-91-50-106.1-50h-173.4c-78.8,0-143.5,3.1-235.8,6.1c-11.4,0.4-32.7,1-37.8,11C4009.7,3461.7,4028.4,3473,4049.3,3478.1z"
			/>
		<path class="st59" d="M4153,3999.7c35.4,7.9,98.8,6.1,106.4,6.1c66.3,0,132.6,0.2,198.9,0.6c8.5,0,17.3,0,25.3-2.9
			s15.2-9.6,16.1-17.9c2.6-23.7-330-38-360.5-14.3C4119.8,3986.2,4131.1,3994.8,4153,3999.7z"/>
		<polygon class="st59" points="4474.4,3984.8 4572.3,3450.4 4560.7,3448.4 4462.9,3982.7 		"/>
		<polygon class="st59" points="4149,3984.8 4160.5,3982.7 4062.6,3448.4 4051.1,3450.4 		"/>
		<polygon class="st59" points="4547.6,3546.7 4550.6,3541.7 4392.7,3449.4 4389.7,3454.3 		"/>
		<polygon class="st59" points="4534.2,3620.2 4537.1,3615.3 4275.6,3463.1 4272.6,3468 		"/>
		<polygon class="st59" points="4516,3719 4519.1,3714.1 4141.3,3476.6 4138.1,3481.4 		"/>
		<polygon class="st59" points="4498.1,3816.9 4501.2,3812 4077.7,3552.1 4074.6,3557 		"/>
		<polygon class="st59" points="4482.2,3904.5 4485,3899.4 4103.4,3693.4 4100.6,3698.5 		"/>
		<polygon class="st59" points="4403.4,3985.2 4406.4,3980.2 4125.8,3815.1 4122.8,3820 		"/>
		<polygon class="st59" points="4263.2,3985.2 4266,3980.2 4143.8,3914.1 4141,3919.1 		"/>
		<polygon class="st59" points="4078.6,3556.1 4152.5,3439.1 4147.5,3436.1 4073.7,3553.1 		"/>
		<polygon class="st59" points="4092.9,3634.8 4224.8,3453.5 4220,3450.1 4088.1,3631.4 		"/>
		<polygon class="st59" points="4110.3,3729.9 4307.6,3453.5 4302.7,3450.2 4105.5,3726.6 		"/>
		<polygon class="st59" points="4126.6,3819.3 4407.2,3461.6 4402.5,3458.1 4122,3815.8 		"/>
		<polygon class="st59" points="4139.5,3889.7 4486.5,3467.3 4481.9,3463.7 4134.9,3886.1 		"/>
		<polygon class="st59" points="4156.8,3967.5 4563.6,3479.1 4559.1,3475.5 4152.2,3963.9 		"/>
		<polygon class="st59" points="4252.1,3967.6 4530.5,3660 4526.1,3656.2 4247.7,3963.8 		"/>
		<polygon class="st59" points="4345.3,3984.4 4510.1,3771.5 4505.5,3768 4340.6,3981 		"/>
		<polygon class="st59" points="4419.3,3984.5 4485.9,3903.8 4481.3,3900.1 4414.8,3980.9 		"/>
		<ellipse class="st58" cx="555.8" cy="3664.1" rx="157.1" ry="53.6"/>
		<path class="st60" d="M452.1,2970.7c-16.8-56.3-4.4-120.6,32.2-166.5c9.5-11.9,20.7-23.1,25.3-37.5
			c12.7-39.4-28.3-76.2-31.5-117.4c-3.4-42.6,32.9-76.7,66-103.7c16.7-13.6,35.2-28,56.8-28.2c26.8-0.3,49.1,21.8,60.9,45.9
			c11.9,24.1,16.7,51.1,28.2,75.3c11.7,24.7,29.9,45.7,43.7,69.3c13.8,23.6,23.1,52.2,14.6,78.2c-11.1,34.2-49,53.7-61.9,87.2
			c-19.8,51.3,26.6,111.3,5.5,162c-9.2,22.2-30.2,37.7-52.7,46C555,3112.4,476.6,3052.8,452.1,2970.7z"/>
		<polygon class="st61" points="581.7,3073 565.5,3271.1 581.7,3271.1 591.9,3073 		"/>
		<path class="st61" d="M595.7,2552.5c-5.4,81.1-10.5,162.1-13.3,243.3c-2.9,82.9-12,174.7,5.3,256.6c0.6,2.9,5.4,2.3,5.2-0.7
			c-11.2-166.3-0.3-332.9,8.7-499.1C601.8,2548.8,596,2548.8,595.7,2552.5L595.7,2552.5z"/>
		<path class="st62" d="M543.7,3024.5c4.8,0,4.9-7.6,0-7.6C538.8,3016.9,538.8,3024.5,543.7,3024.5z"/>
		<path class="st62" d="M496.5,2992.1c1.9,0.7,4,0.2,5.3-1.2c2.6-2.4-0.8-7-3.9-5l-0.6,0.4c-1.7,0.1-2.9,1.5-2.8,3.2
			C494.6,2990.7,495.4,2991.7,496.5,2992.1z"/>
		<path class="st62" d="M530,2950.7c4.7,0,4.7-7.3,0-7.3S525.3,2950.7,530,2950.7z"/>
		<path class="st62" d="M497,2911.2l0.7-0.6c1-1,1-2.6,0-3.6l-0.7-0.6c-2.2-1.8-5.8-0.8-5.8,2.5c0,3.2,3.6,4.2,5.8,2.5V2911.2z"/>
		<path class="st62" d="M638.2,3015.3l1-0.6c1.2-0.7,1.6-2.3,0.8-3.5c-0.2-0.3-0.5-0.6-0.8-0.8l-1-0.6
			C632.1,3005.9,632.1,3019.2,638.2,3015.3z"/>
		<path class="st62" d="M664.2,3004.5c1.4-0.7,2.5-1.7,3.3-3c1.2-1.8-0.4-4.1-2.4-4.1c-1.6-0.1-3.1,0.3-4.5,1.1
			C656.6,3000.3,660.1,3006.7,664.2,3004.5L664.2,3004.5z"/>
		<path class="st62" d="M523.9,2623.5l-0.1,1.4c-0.4,4.6,7.4,4.6,7.1,0c0-0.5-0.1-0.9-0.1-1.4c-0.1-1.9-1.7-3.3-3.6-3.2
			C525.4,2620.4,524,2621.8,523.9,2623.5L523.9,2623.5z"/>
		<path class="st62" d="M539.6,2692.8c4.8,0,4.8-7.4,0-7.4C534.8,2685.4,534.8,2692.8,539.6,2692.8z"/>
		<path class="st62" d="M570,2635.2l0.8,0.1c1.7,0.4,3.3-0.7,3.7-2.3c0.1-0.4,0.1-0.9,0-1.4l-0.1-0.8c-0.4-2.8-4.3-3.4-6.1-1.6
			C566.7,2630.9,567.2,2634.9,570,2635.2L570,2635.2z"/>
		<path class="st62" d="M690.5,2748.4l1,0.5c2.2,1.3,5,0.5,6.3-1.6c1.3-2.2,0.5-5-1.6-6.3c-1.4-0.8-3.2-0.8-4.6,0l-1,0.6
			c-1.9,1.1-2.5,3.6-1.4,5.5C689.5,2747.6,689.9,2748.1,690.5,2748.4z"/>
		<path class="st62" d="M665.2,2811.3c2.7,0,4.9-1.4,5.4-4.3c0.7-5.1-6.2-7.3-7.9-2.2c-0.1,0.4-0.3,0.8-0.4,1.2
			C660.7,2808.2,662.7,2811.3,665.2,2811.3L665.2,2811.3z"/>
		<path class="st62" d="M651.5,2737.4c6,0,6-9.4,0-9.4S645.5,2737.4,651.5,2737.4z"/>
		<path class="st62" d="M672,2696.7c4.6,0,4.6-7.1,0-7.1S667.4,2696.7,672,2696.7z"/>
		<path class="st61" d="M780,3017.8c20.7-12.4,45.8-14.4,68.9-21.2c30.1-8.9,57-26,77.9-49.3c22.3-25,38.8-58,69.9-70.3
			c33.3-13.1,70.4,2.5,106.1,2.1c31.7-0.3,62-13.4,93.7-14.5c18.4-0.7,42.1,9.1,39.9,27.4c-1.4,11.1-12.1,18.4-21.8,24.1l-45.9,27
			c-17.1,10-34.4,20.3-48,34.6c-22.6,23.9-33,57.5-56.1,81c-33.1,33.7-85.2,40.1-132.3,36c-25.5-2.2-54-6-74.1,9.8
			c-29.5,23.1-74.8,87.5-115.8,36.5C712.8,3104,744.9,3038.8,780,3017.8z"/>
		<path class="st60" d="M759.1,3115.1l-9.2-4.1c0,0-82.9,87.5-87.5,168.2h18.4C680.7,3279.1,671.5,3210.1,759.1,3115.1z"/>
		<path class="st60" d="M765.7,3107.7c71.1-36.5,139.8-77.9,210.8-114.9s143.9-69.8,215.3-105.8c3.2-1.6,0.9-7.4-2.5-6
			c-71.8,29.4-141.4,65.5-210.3,101.2c-72.9,37.8-147.2,75.9-215.5,121.6c-1.1,0.6-1.4,2-0.8,3
			C763.3,3108,764.7,3108.3,765.7,3107.7L765.7,3107.7L765.7,3107.7z"/>
		<path class="st62" d="M782.6,3052.3c5.5,0,5.5-8.6,0-8.6C777,3043.7,777,3052.3,782.6,3052.3z"/>
		<path class="st62" d="M830.1,3043.7l0.6-0.8c0.9-1,0.9-2.6,0-3.6l-0.6-0.7c-2.1-2.5-6.2-0.4-6.2,2.5S828,3046.2,830.1,3043.7
			L830.1,3043.7z"/>
		<path class="st62" d="M805,3027.1l1.2-0.5c1-0.3,1.5-1.4,1.2-2.4c-0.2-0.6-0.6-1-1.2-1.2l-1.2-0.5
			C801.2,3021,801.2,3028.7,805,3027.1L805,3027.1z"/>
		<path class="st62" d="M957.6,2968.3v-0.5c0.4-2.8-1.7-5.8-4.8-4.8c-1.4,0.3-2.4,1.4-2.7,2.7c-0.9,3.2,2,5.2,4.8,4.8h0.5
			C956.4,2970.3,957.2,2969.5,957.6,2968.3L957.6,2968.3z"/>
		<path class="st62" d="M985.6,2916.1c1.2,1.8,3,3.2,5.1,3.8c1.4,0.4,2.8,0,3.8-1c0.4-0.5,0.8-1.1,1-1.7c0.4-1.7-0.3-3.5-1.8-4.4
			c-1.5-1.2-3.3-1.8-5.2-1.8c-1.9,0-3.4,1.6-3.4,3.5C985.2,2915,985.4,2915.6,985.6,2916.1L985.6,2916.1z"/>
		<path class="st62" d="M1019.2,2938.4c1,1.2,2.5,2,4.1,2.1c2.8,0.5,5.3-2.8,3-5.1c-1-1.2-2.5-2-4.1-2.2
			C1019.4,2932.8,1016.8,2936.1,1019.2,2938.4L1019.2,2938.4z"/>
		<path class="st62" d="M1051.8,2918.5c1.2-0.5,2.2-1.3,2.9-2.3c1.2-1.6,0.6-4.6-1.8-4.4c-1.5,0-3,0.5-4.3,1.2
			C1044.8,2914.9,1048.1,2920.4,1051.8,2918.5L1051.8,2918.5z"/>
		<path class="st62" d="M964.4,3060.1c1.4,0.6,3.1,0.6,4.5,0.1c1.4-0.4,2.3-1.9,1.9-3.3c-0.5-1.8-1.7-3.2-3.3-4.1
			C963,3049.5,958.4,3058.3,964.4,3060.1L964.4,3060.1z"/>
		<path class="st62" d="M1020.1,3066.5c2.3,0.1,3.5-0.3,4.8-2.2c0.4-0.7,0.4-1.6,0-2.4c-1.2-1.9-2.5-2.4-4.8-2.2
			c-1.9,0.1-3.3,1.7-3.2,3.6C1017,3065,1018.3,3066.3,1020.1,3066.5z"/>
		<path class="st62" d="M1013.9,3030.9l0.8-0.5c5.5-3.8-1.9-11.2-5.6-5.6l-0.5,0.8C1006.3,3028.8,1010.6,3033.1,1013.9,3030.9
			L1013.9,3030.9z"/>
		<path class="st62" d="M1051.5,3018c3.6,0,3.6-5.6,0-5.6S1047.9,3018,1051.5,3018z"/>
		<path class="st62" d="M1186.6,2906.5c4,0,4-6.3,0-6.3S1182.5,2906.5,1186.6,2906.5z"/>
		<path class="st62" d="M786.6,3129.6l-0.4,0.6c-0.4,0.7-0.4,1.5,0,2.2l0.4,0.6c1.8,2.5,6.1,1.8,6.1-1.7
			C792.7,3127.8,788.4,3127.1,786.6,3129.6L786.6,3129.6z"/>
		<path class="st62" d="M817.9,3116.1c0.2-0.2,0.4-0.5,0.6-0.7c1-1,1-2.7,0-3.7l-0.6-0.7c-2.2-2.4-6.2-0.5-6.2,2.6
			S815.8,3118.5,817.9,3116.1L817.9,3116.1z"/>
		<path class="st62" d="M543.3,2797.8c-0.1,0.2-0.3,0.4-0.4,0.6c-0.4,0.8-0.4,1.7,0,2.5c0.1,0.2,0.3,0.4,0.4,0.6
			c1.9,2.8,6.7,1.9,6.7-1.8C550,2795.9,545.3,2794.9,543.3,2797.8L543.3,2797.8z"/>
		<path class="st62" d="M616,2878.8c5.3,0,5.3-8.3,0-8.3C610.7,2870.5,610.7,2878.8,616,2878.8z"/>
		<path class="st63" d="M403.6,2984.5c-18.8-40-49-73.6-86.9-96.5c-24.2-14.5-51.4-24.6-72.8-43.1c-35.6-30.8-52.6-82.9-95.5-102.4
			c-14.8-6.7-31.4-8.8-47.7-9.4c-26.7-1.1-56.6,2.9-73.6,23.5c-15.7,19-15.1,48.2-2.2,69.3c17.2,27.9,51.1,41.3,71.3,67
			c35.5,45.1,21.6,116.8,60.5,159.1c22.9,24.9,58.3,32.9,87.5,49.9c24.1,14,44.4,34.6,70.3,44.7
			C414.7,3186,432.1,3045.5,403.6,2984.5z"/>
		<path class="st60" d="M379,3102.9l-7.8,5.5c89.8,113.5,100,178.7,100,178.7h20.7C468.8,3202,379,3102.9,379,3102.9z"/>
		<path class="st60" d="M72,2779.2c62.3,37.2,111.8,109.4,157.6,163.1c45.8,53.7,87.7,119.2,141.8,165.4c1.1,0.9,2.7,0.8,3.6-0.2
			c0.8-0.9,0.9-2.4,0.1-3.3c-47.6-58.9-97.8-116.3-147.1-173.9c-43.9-51.3-92.1-121.5-154.4-153.6c-0.7-0.4-1.6-0.2-2.1,0.5
			C71,2777.9,71.3,2778.8,72,2779.2L72,2779.2L72,2779.2z"/>
		<path class="st62" d="M213.3,3043.1c-0.7-0.4-1.4-0.7-2.1-1c-1-0.3-2,0.3-2.2,1.3c-0.1,0.3-0.1,0.6,0,0.9c0.3,0.7,0.6,1.5,1,2.1
			C211.9,3050.1,216.9,3045.2,213.3,3043.1z"/>
		<path class="st62" d="M266,3080.1l0.6-0.8c0.7-0.7,0.7-1.9,0-2.6l-0.6-0.8c-1.6-2.1-4.9-0.2-4.9,2.1
			C261,3080.4,264.4,3082.2,266,3080.1L266,3080.1z"/>
		<path class="st62" d="M245.2,3029.8l-0.5-1c-0.9-1.4-2.7-1.9-4.1-1c-0.4,0.3-0.8,0.6-1,1c-0.2,0.3-0.4,0.7-0.5,1
			C235.3,3036.6,248.8,3036.6,245.2,3029.8z"/>
		<path class="st62" d="M310.2,3101.1l0.7-0.7c1.1-1.1,1.1-2.8,0-3.8l-0.7-0.7c-1.4-1.5-3.8-1.5-5.2-0.1c-1.5,1.4-1.5,3.8-0.1,5.2
			C306.3,3102.6,308.6,3102.6,310.2,3101.1C310.1,3101.2,310.1,3101.1,310.2,3101.1L310.2,3101.1z"/>
		<path class="st62" d="M188.8,2987.8c5,0,5-7.8,0-7.8C183.8,2979.9,183.8,2987.8,188.8,2987.8z"/>
		<path class="st62" d="M156.6,2928.4l-0.7,0.6c-0.9,0.9-0.9,2.3,0,3.1l0.7,0.6c1.2,1.2,3.2,1.2,4.4,0c1.2-1.2,1.2-3.2,0-4.4
			S157.8,2927.2,156.6,2928.4C156.6,2928.4,156.6,2928.4,156.6,2928.4z"/>
		<path class="st62" d="M281.6,2905.3c4.3,0,4.3-6.6,0-6.6S277.4,2905.3,281.6,2905.3z"/>
		<path class="st62" d="M303.9,2960.9l1-0.6c1.4-0.8,1.8-2.5,1-3.9c-0.3-0.4-0.6-0.8-1-1l-1-0.6
			C297.3,2951.4,297.3,2964.4,303.9,2960.9L303.9,2960.9z"/>
		<path class="st62" d="M354,2962.5c4.2,0,4.2-6.5,0-6.5S349.8,2962.5,354,2962.5z"/>
		<path class="st62" d="M378.5,3023.7c3.8,0,3.8-6,0-6S374.7,3023.7,378.5,3023.7z"/>
		<path class="st62" d="M56.2,2805c2.3,1,4,2,6.5,1c1.5-0.4,2.3-2,1.9-3.4c-0.1-0.2-0.1-0.4-0.2-0.6c-1.4-2.3-2.9-2.7-5.5-3.3
			C55.2,2797.9,52.4,2803.3,56.2,2805L56.2,2805z"/>
		<path class="st62" d="M91.8,2828.5l0.5,0.8c3.2,4.6,9.4-1.5,4.7-4.7l-0.8-0.5C93.6,2822.3,90,2825.9,91.8,2828.5z"/>
		<path class="st62" d="M114.7,2758.4l-1.3,0.7c-1.1,0.6-1.8,1.8-1.8,3.1c-0.1,0.9,0.3,1.9,1,2.5c1.2,1.1,2.9,1.3,4.3,0.6l1.4-0.7
			C122.4,2762.5,118.8,2756.3,114.7,2758.4L114.7,2758.4z"/>
		<path class="st62" d="M50.1,2761.8c2.9,0.8,5.2,2,7.7-0.2c0.5-0.5,0.7-1.2,0.5-1.9c-1-3.1-3.6-3.2-6.5-4
			C47.8,2754.6,46.2,2760.7,50.1,2761.8z"/>
		<path class="st64" d="M385.9,3252.9l363,0.4c0,0-6,396.1-174.7,406.2C319.7,3674.6,385.9,3252.9,385.9,3252.9z"/>
		<path class="st59" d="M361.3,3252.9h141.5c0,0-77.1,254.9,39.9,406.3l0,0C542.6,3659.1,324.6,3671.5,361.3,3252.9"/>
	</g>
</g>
</svg>
