<?xml version="1.0" encoding="utf-8"?>
<!-- Generator: Adobe Illustrator 24.1.0, SVG Export Plug-In . SVG Version: 6.00 Build 0)  -->
<svg version="1.1" id="Capa_1" xmlns="http://www.w3.org/2000/svg" xmlns:xlink="http://www.w3.org/1999/xlink" x="0px" y="0px"
	 viewBox="0 0 5000 5000" style="enable-background:new 0 0 5000 5000;" xml:space="preserve">
<style type="text/css">
	.st0{fill:#EAF2F9;}
	.st1{opacity:0.58;}
	.st2{fill:#CEE4F4;}
	.st3{fill:#BDD6E5;}
	.st4{opacity:0.56;}
	.st5{fill:#D3DDEF;}
	.st6{fill:#D4E0F4;}
	.st7{opacity:0.71;fill:#C6D2EB;}
	.st8{fill:#FAC2AE;}
	.st9{fill:#F1A080;}
	.st10{fill:#214A81;}
	.st11{fill:#FFFFFF;}
	.st12{fill:#84B4FE;}
	.st13{fill:#C2E2EF;}
	.st14{fill:#D7EEF4;}
	.st15{fill:#3F6E82;}
	.st16{fill:#8DB0DC;}
	.st17{fill:#BADCEC;}
	.st18{fill:#232F63;}
	.st19{fill:#669DBC;}
	.st20{fill:#3D7D99;}
	.st21{opacity:0.25;fill:#0B65AE;}
	.st22{fill:#161F60;}
	.st23{fill:#2D2E75;}
	.st24{fill:#121038;}
	.st25{fill:#C31900;}
	.st26{fill:none;stroke:#2D2E75;stroke-miterlimit:10;}
	.st27{fill:#B03E45;}
	.st28{fill:#566199;}
	.st29{fill:#323E7C;}
	.st30{fill:#171645;}
	.st31{fill:#D6EAF8;}
	.st32{fill:#A7C7D2;}
	.st33{fill:#92A9B6;}
	.st34{fill:#DEF2FC;}
	.st35{fill:#1D2024;}
	.st36{fill:#C3E1EA;}
</style>
<g>
	<path class="st0" d="M446.5,3922.8h4260.4c0,0,625.7-1727.3-53.5-2089.2c-607.1-323.5-384.8-1282.2-1239-1171.4
		s-906.4,435-1765.5,367.3C371.7,928.9-413.3,1819.9,332.5,3050.8C520.8,3361.8,535.7,3677.1,446.5,3922.8z"/>
	<g class="st1">
		<g>
			<g>
				<path class="st2" d="M3072.3,3305.6l45.3,585c0,0,400.5,3.6,399.6-2.5c-0.9-6.2,12.4-597.6,12.4-597.6L3072.3,3305.6z"/>
			</g>
			<g>
				<polyline class="st3" points="3072.3,3339.7 3533.5,3339.7 3529.6,3389.4 3072.3,3339.7 				"/>
			</g>
			<g>
				<polygon class="st2" points="2961.1,3237.3 4998.9,3237.3 4998.9,3299.2 2961.1,3339.7 				"/>
			</g>
			<g>
				<g>
					<g>
						<g>
							<g>
								<polygon class="st2" points="4707.9,3300.8 4683.7,3894.8 4650.4,3895.6 4638.2,3300.8 								"/>
							</g>
						</g>
					</g>
				</g>
			</g>
		</g>
		<g>
			<path class="st3" d="M3086.7,3514.1c0,0.5,435.7,23.4,435.7,23.4l-0.5,18.8l-433.7-21.1L3086.7,3514.1z"/>
		</g>
		<g>
			<polygon class="st3" points="3101.4,3728.1 3517.2,3718.4 3516.7,3739.1 3102.2,3739.1 			"/>
		</g>
		<g>
			<path class="st3" d="M3349.3,3445.3h-79.9c-5,0-9.1-4.1-9.1-9.1l0,0c0-5,4.1-9.1,9.1-9.1h79.9c5,0,9.1,4.1,9.1,9.1l0,0
				C3358.3,3441.2,3354.3,3445.3,3349.3,3445.3z"/>
		</g>
		<g>
			<path class="st3" d="M3355.3,3644.6h-79.9c-5,0-9.1-4.1-9.1-9.1l0,0c0-5,4.1-9.1,9.1-9.1h79.9c5,0,9.1,4.1,9.1,9.1l0,0
				C3364.3,3640.5,3360.2,3644.6,3355.3,3644.6z"/>
		</g>
		<g>
			<path class="st3" d="M3355.3,3849h-79.9c-5,0-9.1-4.1-9.1-9.1l0,0c0-5,4.1-9.1,9.1-9.1h79.9c5,0,9.1,4.1,9.1,9.1l0,0
				C3364.3,3844.9,3360.2,3849,3355.3,3849z"/>
		</g>
	</g>
	<g>
		<g>
			<g>
				<path class="st2" d="M3962.1,3753.2c7.6,1.9,15.6,2.4,20.2,2.1c86.4-4.1,173.2-1.6,259.7-1.2c8.1,0,16.7-0.1,23.4-4.5
					c41.6-27.5-52.5-29.5-61.3-29.5c-33.4,0-66.8,0-100.2,0c-45.5,0-82.9,1.8-136.2,3.6c-6.6,0.2-18.9,0.6-21.8,6.5
					C3939.2,3743.5,3950,3750.2,3962.1,3753.2z"/>
			</g>
		</g>
		<g>
			<g>
				<path class="st2" d="M4022,4060.5c20.5,4.6,57,3.6,61.4,3.6c38.3,0,76.6,0.1,114.8,0.3c4.9,0,10,0,14.6-1.7
					c4.6-1.7,8.8-5.7,9.3-10.6c1.5-14-190.6-22.4-208.2-8.4C4002.8,4052.6,4009.3,4057.6,4022,4060.5z"/>
			</g>
		</g>
		<g>
			<g>
				
					<rect x="4072.6" y="3890.3" transform="matrix(0.1767 -0.9843 0.9843 0.1767 -347.7985 7371.6074)" class="st2" width="319.9" height="6.8"/>
			</g>
		</g>
		<g>
			<g>
				
					<rect x="3991.4" y="3733.8" transform="matrix(0.9844 -0.1758 0.1758 0.9844 -622.1893 762.7543)" class="st2" width="6.8" height="319.9"/>
			</g>
		</g>
		<g>
			<g>
				
					<rect x="4203.5" y="3711.8" transform="matrix(0.5116 -0.8592 0.8592 0.5116 -1181.0996 5452.082)" class="st2" width="3.4" height="106.2"/>
			</g>
		</g>
		<g>
			<g>
				
					<rect x="4165.8" y="3702.8" transform="matrix(0.5102 -0.86 0.86 0.5102 -1219.0134 5440.7075)" class="st2" width="3.4" height="175.7"/>
			</g>
		</g>
		<g>
			<g>
				
					<rect x="4121.7" y="3694.1" transform="matrix(0.5394 -0.8421 0.8421 0.5394 -1320.4744 5233.5146)" class="st2" width="3.4" height="259.3"/>
			</g>
		</g>
		<g>
			<g>
				
					<rect x="4098.2" y="3730.5" transform="matrix(0.5311 -0.8473 0.8473 0.5311 -1360.776 5290.6313)" class="st2" width="3.4" height="288.6"/>
			</g>
		</g>
		<g>
			<g>
				
					<rect x="4101.1" y="3816.4" transform="matrix(0.4828 -0.8757 0.8757 0.4828 -1330.4656 5631.6211)" class="st2" width="3.4" height="251.6"/>
			</g>
		</g>
		<g>
			<g>
				<polygon class="st2" points="4166.6,4051.9 4168.3,4049 4006.3,3951.8 4004.5,3954.7 				"/>
			</g>
		</g>
		<g>
			<g>
				
					<rect x="4049.5" y="3990.7" transform="matrix(0.4836 -0.8753 0.8753 0.4836 -1436.2356 5627.7163)" class="st2" width="3.4" height="80.6"/>
			</g>
		</g>
		<g>
			<g>
				<polygon class="st2" points="3979,3799.2 4021.7,3730.3 4018.8,3728.5 3976.2,3797.4 				"/>
			</g>
		</g>
		<g>
			<g>
				
					<rect x="3958.4" y="3789.4" transform="matrix(0.5806 -0.8142 0.8142 0.5806 -1398.9951 4866.5444)" class="st2" width="131.2" height="3.4"/>
			</g>
		</g>
		<g>
			<g>
				
					<rect x="3953.6" y="3817.5" transform="matrix(0.5732 -0.8194 0.8194 0.5732 -1399.6573 4951.2036)" class="st2" width="198.7" height="3.4"/>
			</g>
		</g>
		<g>
			<g>
				
					<rect x="3953.5" y="3846.1" transform="matrix(0.6095 -0.7928 0.7928 0.6095 -1454.754 4742.2529)" class="st2" width="265.9" height="3.4"/>
			</g>
		</g>
		<g>
			<g>
				
					<rect x="3953.3" y="3868.5" transform="matrix(0.6273 -0.7788 0.7788 0.6273 -1481.1371 4645.3784)" class="st2" width="319.5" height="3.4"/>
			</g>
		</g>
		<g>
			<g>
				
					<rect x="3954.6" y="3894.9" transform="matrix(0.6326 -0.7745 0.7745 0.6326 -1496.6917 4638.0903)" class="st2" width="371.5" height="3.4"/>
			</g>
		</g>
		<g>
			<g>
				
					<rect x="4037.2" y="3948.2" transform="matrix(0.6637 -0.748 0.748 0.6637 -1556.021 4438.9863)" class="st2" width="242.2" height="3.4"/>
			</g>
		</g>
		<g>
			<g>
				
					<rect x="4100.6" y="3986.1" transform="matrix(0.6046 -0.7965 0.7965 0.6046 -1523.8617 4905.7954)" class="st2" width="157.5" height="3.4"/>
			</g>
		</g>
		<g>
			<g>
				
					<rect x="4163.1" y="4025" transform="matrix(0.6286 -0.7777 0.7777 0.6286 -1574.1373 4757.1011)" class="st2" width="61.2" height="3.4"/>
			</g>
		</g>
	</g>
	<g class="st4">
		<g>
			<path class="st5" d="M653.9,3626.6c0,5.2-19.6,9.4-43.7,9.4c-24.1,0-43.7-4.2-43.7-9.4c0-5.2,19.6-9.4,43.7-9.4
				C634.3,3617.2,653.9,3621.4,653.9,3626.6z"/>
			<path class="st5" d="M653.9,3893.6c0,5.2-19.6,9.4-43.7,9.4c-24.1,0-43.7-4.2-43.7-9.4c0-5.2,19.6-9.4,43.7-9.4
				C634.3,3884.3,653.9,3888.5,653.9,3893.6z"/>
			<rect x="566.4" y="3626.6" class="st5" width="87.4" height="267"/>
		</g>
		<g>
			<path class="st5" d="M610.7,3653.1l-2.8-0.1c0-1.3,0.9-132.2-28.9-212.6l2.6-1.6C611.6,3520,610.7,3651.7,610.7,3653.1z"/>
		</g>
		<path class="st5" d="M569.7,3370l15.3-13.5c-5.3-17.5-13.1-36.4-24.4-56.1h-7.6l3.3-7.1c-7.8-12.8-17.1-25.9-28.2-39.3
			c0,0,1.4,32.9,7.5,73.4h12l-11,6.6c1.4,8.7,3.1,17.7,4.9,26.7l14.2-3.5l-12.1,13.2c9.1,39.5,23.3,78.2,45.2,96.4
			c0,0,13.6-40.3-0.9-99L569.7,3370z"/>
		<g>
			<path class="st5" d="M610.4,3663.8c0-1.6-1.1-160.5,35.2-258.4l2.6,1.6c-36,97.1-34.9,255.1-34.9,256.7L610.4,3663.8z"/>
		</g>
		<path class="st5" d="M659.6,3322.1l-18.4-16.3c6.3-21.1,15.8-43.9,29.5-67.7h9.1l-4-8.6c9.5-15.5,20.7-31.3,34.1-47.4
			c0,0-1.6,39.7-9.1,88.6h-14.5l13.3,7.9c-1.7,10.5-3.7,21.4-6,32.3l-17.2-4.2l14.6,16c-11,47.7-28.1,94.4-54.6,116.3
			c0,0-16.5-48.7,1.1-119.5L659.6,3322.1z"/>
	</g>
	<g class="st1">
		<polygon class="st2" points="4272,3117 4319.6,3117 4326,3269.2 4280,3269.2 		"/>
	</g>
	<g class="st1">
		<g>
			<path class="st2" d="M4185.6,3063.8c0,0,88,0,90.4,0c2.4,0,3.2,206.2,3.2,206.2h-84.1L4185.6,3063.8z"/>
		</g>
		<g>
			<path class="st0" d="M4264.1,3191.3c0,14.5-11.7,26.2-26.2,26.2c-14.5,0-26.2-11.7-26.2-26.2c0-14.5,9.3-24.4,23.8-24.4
				S4264.1,3176.8,4264.1,3191.3z"/>
		</g>
	</g>
	<g class="st1">
		<g>
			<polygon class="st2" points="4116.6,3272.1 4112.6,3046.4 4195.1,3049.6 4195.1,3270 			"/>
		</g>
		<g>
			<path class="st0" d="M4170.5,3094c0,9.2-7.5,16.7-16.7,16.7c-9.2,0-16.7-7.5-16.7-16.7c0-9.2,6-16.6,15.2-16.6
				C4161.7,3077.4,4170.5,3084.8,4170.5,3094z"/>
		</g>
	</g>
	<rect x="298.2" y="3894.6" class="st6" width="4645.2" height="34"/>
</g>
<ellipse transform="matrix(1.034072e-03 -1 1 1.034072e-03 -3036.5869 5327.9976)" class="st7" cx="1148.5" cy="4183.9" rx="148.3" ry="681.8"/>
<path class="st8" d="M795.8,2947.5c0,0-9.6,99.5-17.1,108.6c-7.5,9,23.1,117.2,103.2,230.5c80.1,113.3,51.7-190.9,51.7-190.9
	l-37.1-139.6L795.8,2947.5z"/>
<path class="st9" d="M831.3,2979.4c0,0-19.9,79.3-8.7,112s65.5,167.2,65.5,167.2l-26.7-304.2L831.3,2979.4z"/>
<path class="st8" d="M969,2633.4c0,0,55.6-1.7,15.5-181.8c-40.1-180.1,169.3-287.4,201.6-244.7c32.3,42.7,18.1,130.5,18.1,130.5
	s14.2,41.4,42.7,43.9c28.4,2.6-29.7,27.1-29.7,27.1s15.5,95.6-128,109.9c0,0,4,120.2,22.7,147.3
	C1130.6,2692.9,969,2633.4,969,2633.4z"/>
<g>
	<path class="st9" d="M1025.5,2261.6c-13.4,19,85.8,127.5,85.8,127.5s-26.8-82.3,25.4-103c52.2-20.7,61.7-74.8,61.7-74.8
		S1038.8,2242.6,1025.5,2261.6z"/>
	<path class="st9" d="M1020.7,2585.6c-7.7-20.2-11.2-63.8-12.6-88.7c-0.6-10.4,20.8-37.5,22.1-53.5c1.3-15.9,20-29.4,20-29.4
		c-6.3-26-110.9-4.6-110.9-4.6s29.3,41.3,49.6,67.4c0.8,5.6,1.9,12.2,3.3,20.1c16.8,90.5-6.9,121.5-6.9,121.5s-13.8,9.5-2.6,16.4
		c11.2,6.9,124.1,21.5,124.1,21.5l-12-62.1C1089.7,2607.8,1033.2,2618.2,1020.7,2585.6z"/>
</g>
<g>
	<g>
		<path class="st10" d="M2645,1123.8H1510.5c-106.8,0-193.4,65.8-193.4,147v1853.6c0,81.2,86.6,147,193.4,147H2645
			c106.8,0,193.4-65.8,193.4-147V1270.8C2838.4,1189.6,2751.8,1123.8,2645,1123.8z"/>
		<path class="st11" d="M2041.8,3188.9c-52.8,0-95.7-40-95.7-89.2s42.9-89.2,95.7-89.2s95.7,40,95.7,89.2
			S2094.5,3188.9,2041.8,3188.9z"/>
		<g>
			<path class="st12" d="M2217.2,1209.2h-270c-7,0-12.7,4.3-12.7,9.6c0,5.3,5.7,9.6,12.7,9.6h270c7,0,12.7-4.3,12.7-9.6
				C2229.9,1213.5,2224.2,1209.2,2217.2,1209.2z"/>
			<path class="st12" d="M1885.3,1231.7c-4.5,0-8.7-1.3-11.9-3.8c-0.8-0.6-1.5-1.3-2.1-2c-0.6-0.6-1.2-1.4-1.6-2.2
				c-0.4-0.8-0.7-1.5-0.9-2.4c-0.2-0.8-0.3-1.7-0.3-2.5c0-0.9,0.2-1.7,0.3-2.6c0.3-0.8,0.6-1.6,1-2.4c0.4-0.8,0.9-1.5,1.5-2.3
				c0.6-0.7,1.3-1.3,2.1-1.9c0.8-0.6,1.6-1.2,2.5-1.6c0.9-0.4,1.9-0.8,3-1.2c1-0.3,2-0.6,3.1-0.8c2.2-0.3,4.5-0.3,6.6,0
				c1.1,0.2,2.2,0.5,3.2,0.8c1,0.3,1.9,0.7,2.9,1.2c0.9,0.5,1.8,1,2.6,1.6c0.8,0.6,1.4,1.2,2.1,1.9c0.6,0.7,1.1,1.5,1.5,2.3
				c0.4,0.8,0.8,1.6,0.9,2.4c0.3,0.8,0.3,1.7,0.3,2.6c0,0.8-0.1,1.7-0.2,2.5c-0.3,0.8-0.6,1.6-1,2.4c-0.4,0.8-0.9,1.5-1.5,2.2
				c-0.6,0.7-1.3,1.3-2.1,2c-0.8,0.6-1.7,1.2-2.6,1.6c-0.9,0.5-1.9,0.8-2.9,1.2c-1,0.3-2.1,0.6-3.2,0.8
				C1887.6,1231.6,1886.4,1231.7,1885.3,1231.7z"/>
		</g>
		<rect x="1429.4" y="1312.1" class="st13" width="1280.4" height="1617.2"/>
		<polygon class="st14" points="1793,2929.3 2452.9,1312.1 2709.8,1312.1 2709.8,2929.3 		"/>
		<g>
			<rect x="1429.4" y="1312.1" class="st15" width="1280.4" height="141.4"/>
			<ellipse class="st16" cx="1537.3" cy="1395.8" rx="22" ry="21.8"/>
			<ellipse class="st17" cx="1602.8" cy="1395.8" rx="22" ry="21.8"/>
			<g>
				<path class="st18" d="M1668.2,1385.2c5.9,0,10.8,4.7,10.8,10.6c0,5.8-4.8,10.6-10.8,10.6c-5.9,0-10.8-4.7-10.8-10.6
					C1657.5,1390,1662.3,1385.2,1668.2,1385.2 M1668.2,1374c-12.1,0-22,9.8-22,21.8c0,12,9.8,21.8,22,21.8s22-9.8,22-21.8
					C1690.2,1383.7,1680.4,1374,1668.2,1374L1668.2,1374z"/>
			</g>
		</g>
	</g>
	<g>
		<rect x="1593.3" y="1613.6" class="st16" width="896.9" height="120.1"/>
		<rect x="1593.3" y="1774.3" class="st19" width="120.9" height="120.9"/>
		<rect x="1742.8" y="1774.3" class="st20" width="120.9" height="120.9"/>
		<rect x="1892.3" y="1774.3" class="st15" width="120.9" height="120.9"/>
		
			<rect x="1580.8" y="2474.3" transform="matrix(-1 -1.224647e-16 1.224647e-16 -1 3585.9744 4964.4746)" class="st21" width="424.4" height="16"/>
		
			<rect x="1580.8" y="2434.2" transform="matrix(-1 -1.224647e-16 1.224647e-16 -1 3956.4954 4884.4224)" class="st21" width="794.9" height="16"/>
		
			<rect x="1580.8" y="2565.3" transform="matrix(-1 -1.224647e-16 1.224647e-16 -1 3585.9744 5146.5591)" class="st21" width="424.4" height="16"/>
		
			<rect x="1580.8" y="2525.3" transform="matrix(-1 -1.224647e-16 1.224647e-16 -1 3956.4954 5066.5068)" class="st21" width="794.9" height="16"/>
		
			<rect x="1580.8" y="2656.3" transform="matrix(-1 -1.224647e-16 1.224647e-16 -1 3585.9744 5328.644)" class="st21" width="424.4" height="16"/>
		
			<rect x="1580.8" y="2616.3" transform="matrix(-1 -1.224647e-16 1.224647e-16 -1 3956.4954 5248.5918)" class="st21" width="794.9" height="16"/>
	</g>
</g>
<g>
	<path class="st8" d="M861.3,4028.5c0,0,22.3,38.1,53.9,18.5l0-0.1c-5.2,20.5-5.6,35.2-4.3,45.2c-27.8,6.5-71.2-24.4-71.2-24.4l0,0
		l26.1-47.4c0.1,0.1,0.1,0.1,0.2,0.2L861.3,4028.5z"/>
	<path class="st9" d="M915.2,4047c-31.6,19.7-53.9-18.5-53.9-18.5l4.7-8.1c14.5,12.4,37.5,15.8,52.3,16.7L915.2,4047L915.2,4047z"/>
	<path class="st22" d="M910.9,4092.1L910.9,4092.1c0,0,0.1,0.2,0.3,0.4c4.2,5.6,56.9,74.5,87.1,75.4c31.4,0.9,30.2,63.3,30.2,63.3
		L795.1,4162c0,0-24.4,0.1,18.5-60.3c6.9-9.7,15.4-20.9,26.2-34l0,0C839.7,4067.7,883.1,4098.6,910.9,4092.1z"/>
</g>
<g>
	<path class="st8" d="M1303.4,4096.4L1303.4,4096.4l4.6,25.8c-18.4,6.8-45.7,2.3-59.8-0.9l-1.5-15.5l0,0.2
		C1246.8,4106.1,1289.8,4112.2,1303.4,4096.4z"/>
	<path class="st9" d="M1303.4,4096.4c-13.6,15.8-56.7,9.7-56.7,9.7l0-0.2l-1.5-15.2l-0.5-4.8c20.5,1.5,42.8-4,55.7-7.9l2.8,17.5
		L1303.4,4096.4L1303.4,4096.4z"/>
	<path class="st22" d="M1308.1,4122.2c2.3-0.9,4.5-1.9,6.5-3.2c0,0,78.1,52.6,108,43.3c29.9-9.3,49.9,50,49.9,50l-243.6,10.2
		c0,0-31,10.8,10.3-103.4c0,0,3.5,1,9.1,2.3C1262.3,4124.5,1289.6,4129,1308.1,4122.2z"/>
</g>
<g>
	<path class="st23" d="M891.5,3440c-6.8-68-13.2-138.8-16.3-194.7c0,0,112.9-10.8,227.2-55.9c70.1-27.7,103.2-55.3,118.3-72.6
		l8.2-1.5c0,0,44.4,197,74.5,357.1c2.9,15.5,5.7,30.7,8.3,45.3c0.2,1.2,0.4,2.5,0.7,3.7c0.9,5,1.7,9.9,2.6,14.7
		c0.7,3.8,1.3,7.5,1.9,11.2c0.7,4.2,1.4,8.4,2.1,12.4c1.1,6.9,2.2,13.5,3.2,19.9c1.1,6.9,2,13.6,2.9,19.9c4.1,29.3,6.3,52,5.5,64.4
		c-0.6,9.7-1.3,23.7-1.9,40.6c-0.1,2-0.2,4.1-0.2,6.2c-0.3,8.9-0.7,18.5-1.1,28.6c-1.3,38-2.7,83.9-4,129.5
		c-3,106.4-5.4,211.3-5.4,211.3s-4.2,1.5-10.8,3.5c-12.9,3.7-35.2,8.9-55.7,7.5c-7.9-0.5-15.6-2.1-22.4-5
		c-17.8-7.9-32.5-118-42.3-218.7c-4.9-50.3-8.5-98.2-10.8-129.9c-0.6-7.9-1-14.8-1.4-20.5c-0.3-5.2-0.6-9.3-0.8-12.3
		c-0.2-3.5-0.3-5.4-0.3-5.4s-0.6-5.6-2.5-16.4c-0.2-1.1-0.4-2.2-0.6-3.4c-0.4-2.4-0.9-5.1-1.5-8c-1.3-6.7-3-14.6-5.2-23.7
		c-6.5-27.7-17.2-66.2-34.4-115l0.2,0.6c14.7-67.3-10-229.3-10-229.3l-11.1,173.1c0,0-0.3,8-1,20.8c-2.1,42.7-7.6,139.4-14.9,177.8
		c-4.5,23.8-42.4,108-80.9,189.8c-42.5,90.4-85.8,177.9-85.8,177.9s-5.8,0.3-14.2-0.1c-14.8-0.8-37.8-4-52.3-15.8
		c-0.1,0-0.1-0.1-0.2-0.1c-1.7-1.4-3.3-2.9-4.7-4.5c0,0,14.1-76.2,29.2-158.7c14-76.7,29-158.7,34.3-189.9
		C917.7,3674.4,903.8,3561.9,891.5,3440z"/>
	<path class="st22" d="M932,3177.7c117.5-58.8,231-50.9,290.4-62.9c-0.6,0.7-1.2,1.4-1.8,2.1c-15.1,17.3-48.1,44.9-118.3,72.6
		c-114.3,45.1-227.1,55.9-227.2,55.9l0,0l-5.8-78.7C895.8,3176.5,932,3177.7,932,3177.7z"/>
</g>
<path class="st22" d="M1108.2,3469.2l11.1-182.7c0,0,24.7,171,10,242l-0.2-0.6l-9.3-26.2L1108.2,3469.2z"/>
<path class="st16" d="M1165.4,1670.5H539c-6,0-10.9,7.4-10.9,16.6v289.8c0,3.3,0.6,6.3,1.7,8.9c1,2.4,2.4,4.4,4.1,5.8
	c1.5,1.2,3.2,2,5.1,2h427.7c4.8,22.4,16,49.5,41.3,71.1c0,0-13.5-36.8-13.1-71.1h12.8h14.5h143.2c6,0,10.9-7.4,10.9-16.6v-289.8
	C1176.3,1677.9,1171.4,1670.5,1165.4,1670.5z"/>
<path class="st8" d="M1399,2653.7c0,0,127.5-17.2,145.6-44.8c18.1-27.6,17.2-87,153.4-256.8c0,0-0.9-75.8-48.3-75.8
	c0,0-5.2-18.1,24.1-10.8c29.3,7.3,52.1,49.1,75,24.1c22.8-25,4.7-67.6,4.7-67.6s-19.8-52.6,13.4-68.1c0,0,7.8,2.6,2.6,18.1
	c-5.2,15.5,26.7,77.1,26.7,77.1s4.3,5.6,12.1-0.9c7.8-6.5,43.9,28,39.2,40.9s-14.2,52.6-96.5,89.6c0,0-136.6,302.5-155.5,314.5
	c-19,12.1-169.8,56-169.8,56L1399,2653.7z"/>
<path class="st9" d="M1473.5,2639.6c0,0,21.6,78.4,109.7,59.4l-152.7,50.3l28.9-106.4L1473.5,2639.6z"/>
<g>
	<polygon class="st11" points="806,1922.9 815.9,1922.9 815.9,1921.1 861.8,1921.1 861.8,1922.9 872.8,1922.9 872.8,1889.5 
		806,1889.5 	"/>
	<path class="st23" d="M839.8,1722c-38.3,0-69.4,31.1-69.4,69.4c0,29.9,19,55.3,45.5,65.1v33.1h49.7v-33.8
		c25.5-10.2,43.6-35.2,43.6-64.4C909.2,1753,878.1,1722,839.8,1722z M872.8,1828.5c31.7-68.4-33-91.8-33-91.8
		C924.8,1748.8,872.8,1828.5,872.8,1828.5z"/>
	<polygon class="st13" points="806,1942.9 815.9,1942.9 815.9,1941.6 861.8,1941.6 861.8,1942.9 872.8,1942.9 872.8,1917.9 
		806,1917.9 	"/>
	<polygon class="st24" points="815.9,1941.6 815.9,1942.9 815.9,1957 861.8,1957 861.8,1942.9 861.8,1941.6 	"/>
	<path class="st11" d="M839.8,1736.7c0,0,64.7,23.4,33,91.8C872.8,1828.5,924.8,1748.8,839.8,1736.7z"/>
	
		<rect x="922.3" y="1735.2" transform="matrix(0.8354 -0.5496 0.5496 0.8354 -798.6644 810.6531)" class="st23" width="64" height="7.6"/>
	
		<rect x="955.5" y="1761.6" transform="matrix(0.1837 -0.983 0.983 0.1837 -979.9712 2407.271)" class="st23" width="7.6" height="64"/>
	
		<rect x="722.7" y="1701.1" transform="matrix(0.5385 -0.8426 0.8426 0.5385 -1125.0205 1411.9153)" class="st23" width="7.6" height="64"/>
	
		<rect x="691.9" y="1791.3" transform="matrix(0.9589 -0.2837 0.2837 0.9589 -479.5259 279.1409)" class="st23" width="64" height="7.6"/>
</g>
<path class="st25" d="M869.4,3004.4c0,0-4.6,63.3-9.6,138.3c0,0-64.8,128.6,364.4-14c28.5-9.5,44.2-40.4,42.1-70.4l-12.3-37.5
	c-20.7-63.2-23.7-130.8-8.9-195.6l3.6-15.8c0,0,129.6-39.5,231.1-59.2l-14.1-124c0,0-135.3,28.2-214.2,16.9
	c-78.9-11.3-143.7-28.2-143.7-28.2s-64.8,33.8-129.6,0c0,0-31,14.1-95.8,25.4s-103.6,332.6-103.6,332.6L869.4,3004.4z"/>
<path class="st26" d="M788.9,3050"/>
<path class="st23" d="M1120.3,2146.1c0,0,147.6,45.2,37.6,108.6c-110,63.3-51.8,134.4-51.8,134.4s-36.2-53-63.3-7.8
	c0,0,2.6,27.1,22,40.1c0,0-47.2-29.1-48.5,0s-10.3,89.8-33.6,86.6c-23.3-3.2-212.8-123.2-88.5-279.2
	C1001.8,2093.6,1120.3,2146.1,1120.3,2146.1z"/>
<path class="st27" d="M869.4,3004.4c0,0-8.3-200.4-15.2-211.3S838,2991.8,838,2991.8L869.4,3004.4z"/>
<path class="st27" d="M1249.7,2809.1l-18.1,6.4c-7.9,2.3-16.3,3.1-24.5,2.3l-17.6-1.8l46.9,109.9
	C1236.4,2926,1235.4,2863.3,1249.7,2809.1z"/>
<path class="st22" d="M628.3,2661.9h-215c-12.9,0-23.4-10.5-23.4-23.4v-215c0-12.9,10.5-23.4,23.4-23.4h215
	c12.9,0,23.4,10.5,23.4,23.4v215C651.7,2651.4,641.2,2661.9,628.3,2661.9z"/>
<path class="st28" d="M2155.1,2267h-215c-12.9,0-23.4-10.5-23.4-23.4v-215c0-12.9,10.5-23.4,23.4-23.4h215
	c12.9,0,23.4,10.5,23.4,23.4v215C2178.5,2256.5,2168,2267,2155.1,2267z"/>
<path class="st22" d="M2496.4,2267h-215c-12.9,0-23.4-10.5-23.4-23.4v-215c0-12.9,10.5-23.4,23.4-23.4h215
	c12.9,0,23.4,10.5,23.4,23.4v215C2519.7,2256.5,2509.3,2267,2496.4,2267z"/>
<path class="st29" d="M1574.9,2302.8l-139.7-163.4c-8.4-9.8-7.2-24.6,2.6-33l163.4-139.7c9.8-8.4,24.6-7.2,33,2.6l139.7,163.4
	c8.4,9.8,7.2,24.6-2.6,33l-163.4,139.7C1598,2313.8,1583.3,2312.6,1574.9,2302.8z"/>
<rect x="3079.4" y="1200.4" class="st17" width="920.3" height="584.2"/>
<g>
	<rect x="3081.7" y="1200.4" class="st15" width="920.9" height="60.1"/>
	<circle class="st16" cx="3152.8" cy="1236" r="9.3"/>
	<circle class="st17" cx="3180.3" cy="1236" r="9.3"/>
	<g>
		<path class="st18" d="M3207.9,1226.7c-5.1,0-9.3,4.1-9.3,9.3c0,5.1,4.1,9.3,9.3,9.3c5.1,0,9.3-4.1,9.3-9.3
			C3217.2,1230.9,3213,1226.7,3207.9,1226.7L3207.9,1226.7z"/>
	</g>
</g>
<g>
	<path class="st18" d="M4010.5,1190.7L4010.5,1190.7v604.3h-939.8v-604.3H4010.5 M4010.5,1179.4h-939.8c-6.2,0-11.2,5-11.2,11.2
		v604.3c0,6.2,5,11.2,11.2,11.2h939.8c6.2,0,11.2-5,11.2-11.2v-604.3C4021.8,1184.5,4016.7,1179.4,4010.5,1179.4L4010.5,1179.4z"/>
</g>
<rect x="3390.3" y="1806.1" class="st30" width="325" height="66.9"/>
<path class="st18" d="M3816.4,1912.9h-531.8l0,0c0-22,19.7-39.8,44-39.8h443.9C3796.7,1873.1,3816.4,1890.9,3816.4,1912.9
	L3816.4,1912.9z"/>
<g>
	<rect x="3093.9" y="2111.5" class="st31" width="905.6" height="506.3"/>
	<g>
		<rect x="3092.4" y="2119.9" class="st15" width="920.9" height="60.1"/>
		<circle class="st16" cx="3163.5" cy="2155.4" r="9.3"/>
		<circle class="st17" cx="3191" cy="2155.4" r="9.3"/>
		<g>
			<path class="st18" d="M3218.6,2146.2c-5.1,0-9.3,4.1-9.3,9.3c0,5.1,4.1,9.3,9.3,9.3s9.3-4.1,9.3-9.3
				C3227.9,2150.3,3223.7,2146.2,3218.6,2146.2L3218.6,2146.2z"/>
		</g>
	</g>
	<path class="st18" d="M3962.9,2130.1c3.7,0,6.6,3,6.6,6.6v446.1c0,3.7-3,6.6-6.6,6.6h-840.1c-3.7,0-6.6-3-6.6-6.6v-446.1
		c0-3.7,3-6.6,6.6-6.6H3962.9 M3962.9,2076.4h-840.1c-33.4,0-60.4,27-60.4,60.4v446.1c0,33.4,27,60.4,60.4,60.4h840.1
		c33.4,0,60.4-27,60.4-60.4v-446.1C4023.3,2103.4,3996.3,2076.4,3962.9,2076.4L3962.9,2076.4z"/>
	<polygon class="st32" points="2928.9,2789.5 3083.1,2636.1 4012.9,2636.1 4160.9,2789.5 	"/>
	<polygon class="st18" points="4160.9,2789.5 2928.9,2789.5 2954.6,2813.3 4144.9,2813.3 4160.9,2789.5 	"/>
	<polygon class="st33" points="3379.4,2765.7 3684.7,2765.7 3649.7,2716.5 3433.4,2716.5 	"/>
	<circle class="st34" cx="3462" cy="2102.6" r="10.1"/>
	<rect x="3491.6" y="2095.6" class="st35" width="95.9" height="14.1"/>
</g>
<g>
	<rect x="3199.9" y="1318.2" class="st16" width="690.2" height="92.4"/>
	<rect x="3199.9" y="1441.9" class="st19" width="93.1" height="93.1"/>
	<rect x="3314.9" y="1441.9" class="st20" width="93.1" height="93.1"/>
	<rect x="3430" y="1441.9" class="st15" width="93.1" height="93.1"/>
	
		<rect x="3204.7" y="1611" transform="matrix(-1 -1.224647e-16 1.224647e-16 -1 6736.0015 3234.3145)" class="st21" width="326.6" height="12.3"/>
	
		<rect x="3204.7" y="1580.2" transform="matrix(-1 -1.224647e-16 1.224647e-16 -1 7021.1226 3172.7131)" class="st21" width="611.7" height="12.3"/>
</g>
<g>
	<rect x="3353" y="2251.9" class="st16" width="549.2" height="73.6"/>
	<rect x="3353" y="2350.3" class="st19" width="74" height="74"/>
	<rect x="3444.6" y="2350.3" class="st20" width="74" height="74"/>
	<rect x="3536.1" y="2350.3" class="st15" width="74" height="74"/>
	
		<rect x="3356.9" y="2484.9" transform="matrix(-1 -1.224647e-16 1.224647e-16 -1 6973.6182 4979.5454)" class="st21" width="259.9" height="9.8"/>
	
		<rect x="3356.9" y="2460.4" transform="matrix(-1 -1.224647e-16 1.224647e-16 -1 7200.4712 4930.5327)" class="st21" width="486.7" height="9.8"/>
</g>
<rect x="3133.8" y="2200.8" class="st19" width="156.4" height="368.4"/>
<circle class="st17" cx="3209.4" cy="2302" r="35.9"/>
<polygon class="st36" points="3126.5,2667.4 3961.3,2667.4 3982.8,2676.3 3111.9,2676.3 "/>
<polygon class="st36" points="3095.1,2684.5 3990.2,2684.5 4013.3,2693.4 3079.4,2693.4 "/>
<path class="st9" d="M1749.5,2206.8c0,0,21.5,92.9-46,75.3c0,0,61.3,53,55.9-38.5C1759.4,2243.7,1757.2,2222.9,1749.5,2206.8z"/>
<polygon class="st14" points="2013.2,2068.6 2013.2,2197.6 2100,2136.1 "/>
<g>
	<circle class="st14" cx="2324.8" cy="2143" r="22.3"/>
	<circle class="st14" cx="2385.1" cy="2143" r="22.3"/>
	<circle class="st14" cx="2445.5" cy="2143" r="22.3"/>
</g>
<circle class="st25" cx="2483.9" cy="2011.6" r="33.5"/>
</svg>
