<?xml version="1.0" encoding="utf-8"?>
<!-- Generator: Adobe Illustrator 24.1.0, SVG Export Plug-In . SVG Version: 6.00 Build 0)  -->
<svg version="1.1" id="Capa_1" xmlns="http://www.w3.org/2000/svg" xmlns:xlink="http://www.w3.org/1999/xlink" x="0px" y="0px"
	 viewBox="0 0 5000 3575.6" style="enable-background:new 0 0 5000 3575.6;" xml:space="preserve">
<style type="text/css">
	.st0{opacity:0.42;fill:#FE7101;enable-background:new    ;}
	.st1{opacity:0.8;fill:#F32735;enable-background:new    ;}
	.st2{fill:#514F4F;}
	.st3{fill:#3F3F3F;}
	.st4{fill:#353535;}
	.st5{fill:#C23825;}
	.st6{fill:#7C7C7C;}
	.st7{fill:#E01B07;}
	.st8{fill:#C12000;}
	.st9{fill:#771704;}
	.st10{fill:#EAF2F9;}
	.st11{fill:#232F63;}
	.st12{fill:#7BADC9;}
	.st13{fill:#6197AA;}
	.st14{fill:#FFFFFF;}
	.st15{fill:#9E2632;}
	.st16{fill:#C1DEE8;}
	.st17{fill:#660E17;}
	.st18{fill:#A3CFE2;}
	.st19{fill:#E3F6FF;}
	.st20{fill:#C8E3ED;}
	.st21{fill:#053C52;}
	.st22{fill:#0F1A42;}
	.st23{fill:#BAD4E8;}
	.st24{fill:#01567A;}
	.st25{fill:none;}
	.st26{fill:#FCCDD3;}
	.st27{fill:#FC9FA8;}
	.st28{fill:#4D7A8E;}
	.st29{fill:#FAC2AE;}
	.st30{fill:#F1A080;}
	.st31{fill:#EDEDED;}
	.st32{fill:#132147;}
	.st33{fill:#192654;}
	.st34{fill:#364777;}
	.st35{fill:#1E2B59;}
	.st36{fill:#0F1B42;}
	.st37{opacity:0.26;fill:#EAA48F;enable-background:new    ;}
	.st38{fill:#78ADC4;}
	.st39{fill:#669EB2;}
	.st40{fill:#E6515B;}
	.st41{fill:#8CBDD3;}
	.st42{fill:#83B6CC;}
	.st43{fill:#D3404E;}
	.st44{opacity:0.33;}
	.st45{fill:#C6D2EB;}
	.st46{fill:#F4737F;}
	.st47{fill:#B03E45;}
	.st48{fill:#2D2E75;}
	.st49{fill:#F27B8F;}
</style>
<path class="st0" d="M209.6-69.2H60.1c-3.7,0-6.6-3-6.6-6.6v-149.5c0-3.7,3-6.6,6.6-6.6h149.5c3.7,0,6.6,3,6.6,6.6v149.5
	C216.3-72.2,213.3-69.2,209.6-69.2z"/>
<path class="st1" d="M460.9-69.2H311.4c-3.7,0-6.6-3-6.6-6.6v-149.5c0-3.7,3-6.6,6.6-6.6h149.5c3.7,0,6.6,3,6.6,6.6v149.5
	C467.5-72.2,464.5-69.2,460.9-69.2z"/>
<path class="st2" d="M724-69.2H574.6c-3.7,0-6.6-3-6.6-6.6v-149.5c0-3.7,3-6.6,6.6-6.6H724c3.7,0,6.6,3,6.6,6.6v149.5
	C730.7-72.2,727.7-69.2,724-69.2z"/>
<path class="st3" d="M988.1-69.2H838.7c-3.7,0-6.6-3-6.6-6.6v-149.5c0-3.7,3-6.6,6.6-6.6h149.5c3.7,0,6.6,3,6.6,6.6v149.5
	C994.8-72.2,991.8-69.2,988.1-69.2z"/>
<path class="st4" d="M1231.7-69.2h-149.5c-3.7,0-6.6-3-6.6-6.6v-149.5c0-3.7,3-6.6,6.6-6.6h149.5c3.7,0,6.6,3,6.6,6.6v149.5
	C1238.3-72.2,1235.3-69.2,1231.7-69.2z"/>
<rect x="3754.5" y="-232" class="st5" width="162.8" height="162.8"/>
<rect x="4005.7" y="-232" class="st2" width="162.8" height="162.8"/>
<rect x="4268.9" y="-232" class="st3" width="162.8" height="162.8"/>
<rect x="2981.9" y="-232" class="st0" width="162.8" height="162.8"/>
<rect x="3233.2" y="-232" class="st6" width="162.8" height="162.8"/>
<rect x="3496.3" y="-232" class="st6" width="162.8" height="162.8"/>
<rect x="4533" y="-232" class="st4" width="162.8" height="162.8"/>
<rect x="4776.5" y="-232" class="st4" width="162.8" height="162.8"/>
<rect x="3747.2" y="-485.5" class="st5" width="162.8" height="162.8"/>
<rect x="3998.5" y="-485.5" class="st2" width="162.8" height="162.8"/>
<rect x="4261.7" y="-485.5" class="st3" width="162.8" height="162.8"/>
<rect x="2974.7" y="-485.5" class="st0" width="162.8" height="162.8"/>
<rect x="3225.9" y="-485.5" class="st6" width="162.8" height="162.8"/>
<rect x="3489.1" y="-485.5" class="st6" width="162.8" height="162.8"/>
<rect x="4525.8" y="-485.5" class="st4" width="162.8" height="162.8"/>
<rect x="4769.3" y="-485.5" class="st4" width="162.8" height="162.8"/>
<path class="st0" d="M209.6-322.7H60.1c-3.7,0-6.6-3-6.6-6.6v-149.5c0-3.7,3-6.6,6.6-6.6h149.5c3.7,0,6.6,3,6.6,6.6v149.5
	C216.3-325.7,213.3-322.7,209.6-322.7z"/>
<path class="st5" d="M460.9-322.7H311.4c-3.7,0-6.6-3-6.6-6.6v-149.5c0-3.7,3-6.6,6.6-6.6h149.5c3.7,0,6.6,3,6.6,6.6v149.5
	C467.5-325.7,464.5-322.7,460.9-322.7z"/>
<path class="st7" d="M724-322.7H574.6c-3.7,0-6.6-3-6.6-6.6v-149.5c0-3.7,3-6.6,6.6-6.6H724c3.7,0,6.6,3,6.6,6.6v149.5
	C730.7-325.7,727.7-322.7,724-322.7z"/>
<path class="st8" d="M988.1-322.7H838.7c-3.7,0-6.6-3-6.6-6.6v-149.5c0-3.7,3-6.6,6.6-6.6h149.5c3.7,0,6.6,3,6.6,6.6v149.5
	C994.8-325.7,991.8-322.7,988.1-322.7z"/>
<path class="st9" d="M1231.7-322.7h-149.5c-3.7,0-6.6-3-6.6-6.6v-149.5c0-3.7,3-6.6,6.6-6.6h149.5c3.7,0,6.6,3,6.6,6.6v149.5
	C1238.3-325.7,1235.3-322.7,1231.7-322.7z"/>
<g id="Layer_2">
	<g id="Layer_1-2">
		<path class="st10" d="M981.3,3526.6"/>
		<path class="st10" d="M2680.4,3510.2"/>
		<path class="st10" d="M3353.8,73"/>
	</g>
</g>
<g id="Layer_2_1_">
	<g id="Layer_1-2_1_">
		<path class="st10" d="M657.5,3494.9h3638.3c0,0,534.3-1661.6-45.7-2009.7C3731.7,1174,3921.5,251.8,3192.1,358.4
			S2418,776.8,1684.4,711.7C593.6,615-76.8,1472,560.1,2656.1C721,2955.3,733.7,3258.6,657.5,3494.9z"/>
		<rect x="2100" y="1331.7" class="st11" width="1024" height="1445.2"/>
		<rect x="2075.5" y="1307.2" class="st12" width="1024" height="1445.2"/>
		<polygon class="st13" points="2075.5,1307.2 3099.6,1307.2 2672.2,2752.4 2075.5,2752.4 		"/>
		<rect x="2220.2" y="1398.6" class="st14" width="742.4" height="1138.4"/>
		<rect x="2323" y="1285.4" class="st15" width="517.8" height="161"/>
		<path class="st15" d="M2587.5,1149.2c-52.6,0-95.2,42.6-95.2,95.2s42.6,95.2,95.2,95.2s95.2-42.6,95.2-95.2
			C2682.7,1191.8,2640.1,1149.2,2587.5,1149.2L2587.5,1149.2z M2587.5,1299.6c-30.5,0-55.2-24.7-55.2-55.2
			c0-30.5,24.7-55.2,55.2-55.2c30.5,0,55.2,24.7,55.2,55.2l0,0C2642.7,1274.8,2618,1299.6,2587.5,1299.6z"/>
		<rect x="2294.4" y="1585.1" class="st12" width="443.6" height="34.3"/>
		<rect x="2294.4" y="1683.3" class="st16" width="587" height="34.3"/>
		<rect x="2294.4" y="1743.1" class="st16" width="587" height="34.3"/>
		<rect x="2294.4" y="1803" class="st16" width="587" height="34.3"/>
		<rect x="2294.4" y="1862.8" class="st16" width="587" height="34.3"/>
		<rect x="2294.4" y="1922.6" class="st16" width="587" height="34.3"/>
		<rect x="2294.4" y="2025.9" class="st16" width="587" height="34.3"/>
		<rect x="2294.4" y="2089.6" class="st16" width="587" height="34.3"/>
		<rect x="2656.2" y="2256.6" class="st12" width="221.5" height="34.3"/>
		<rect x="2323" y="1378.9" class="st17" width="517.8" height="67.5"/>
		<polygon class="st14" points="811.7,351.4 811.7,2725.1 1888.6,2626.9 1888.6,429.2 		"/>
		<path class="st18" d="M787.3,551.9L1911,644.1V465.7c0,0,48.2-75.1-185.1-100.8S787.2,320,787.2,320L787.3,551.9z"/>
		<polygon class="st19" points="827.9,1923 1904.9,860.6 1904.9,2563.6 827.9,2725.1 		"/>
		<polygon class="st20" points="827.9,2413.7 1904.9,1868.8 1904.9,2563.6 827.9,2725.1 		"/>
		<rect x="1816" y="429.2" class="st21" width="73.2" height="2225.3"/>
		<rect x="88.5" y="3488.5" class="st12" width="4656" height="21.7"/>
		<ellipse class="st22" cx="711.9" cy="880.1" rx="24.4" ry="41.8"/>
		<ellipse class="st23" cx="787.3" cy="845" rx="24.4" ry="41.8"/>
		<ellipse class="st14" cx="864.2" cy="812.9" rx="24.4" ry="41.8"/>
		<path class="st21" d="M674.6,2589.5c1.5,76.4,5.7,152.8,3.9,229.1c-1.8,78.7,26.8,137.7,96.1,176l29,5.7l11.6-0.1
			c242.2-26.3,483.1-64,726.2-82.9c78.2-10,156.3-21.5,234.7-29.5c93.8-9.5,133.1-41.4,145-137.1c7-56,2-113.5,2.4-170.4l-54.8-16.3
			c-9.5,2.1-955.6,85-987.6,87.9c-31.4,9.2-48.3,1.3-47.2-35.5c1.2-41.7-0.9-83.6-1.6-125.4c-49.4,15.9-62.3-3.6-62.1-52.9
			c1.6-307.8,0.3-615.6,0.2-923.4c-0.1-370.6,1.8-741.2-1.6-1111.7c-0.7-82.5,28.9-136.8,100.4-172
			c-114.1-21.2-181.8,29.4-189.2,144.2c-14.7,227-1.3,454.2-6.9,681.3 M1348.8,2820.2c-84.6,4.9-98.2-1.9-101.8-40.7
			c-4-43.7,19.5-63.9,78-68.4c36.5-2.8,73-6.7,109.4-10.2c35-3.4,63.4,2.6,64.4,46.2c0.9,39.8-17.7,61.1-58.6,63.8
			C1403.8,2813.3,1367.4,2818.3,1348.8,2820.2z M710,1839.8H699v-352.3H710V1839.8z"/>
		<path class="st10" d="M1380,2841.1c-84.6,4.9-98.2-1.9-101.8-40.7c-4-43.7,19.5-63.9,78-68.4c36.5-2.8,72.9-6.7,109.4-10.2
			c35-3.4,63.4,2.6,64.4,46.2c0.9,39.9-17.7,61.1-58.6,63.8C1435,2834.2,1398.6,2839.2,1380,2841.1z"/>
		<path class="st24" d="M1929,2468.4l0.9-468.5l0.9,0.2l-0.5-154.8c0.2-91.5,0.4-182.9,0.5-274.4l-1.5-0.5l-1.2-352.1l0,0
			c0.2-178.7,0.4-357.3,0.5-536c-0.3-53-0.4-106.1-0.8-159.1c-0.9-127.6-52.8-182.4-180.4-193.2c-80-6.8-159.8-15.5-239.6-24
			c-10.7-1.2-21-6.1-31.3-9.3c-147.2-8.8-292.9-31.6-439.1-49.2c-55.9-6.7-112-11-168-16.5c-71.4,35.2-101.1,89.5-100.4,172
			c3.4,370.6,1.4,741.2,1.6,1111.7c0.1,307.8,1.4,615.6-0.2,923.4c0,5.6,0.1,10.8,0.5,15.7v471.3c0,0-12,93.7,125.1,65.9
			l915.5-108.4c0,0,100.1-6.5,109.3-127.2l4-183.2c1.5-12.5,2.9-25.1,4.4-37.6c-1.4-2.9-2.5-5.9-3.4-9l0.9-42.8
			C1927.5,2478,1928.3,2473.2,1929,2468.4z M1801.1,2570.5l-919.9,81.4c0,0-46.8,14.2-46.8-23.4l-0.8-285.3
			c1.4-165.9,2.7-331.8,4.1-497.7c0.2-6.4,0.3-12.9,0.5-19.4l-1.1-210l0.3-13.4l0.2-523.3c-0.2-99.3-0.4-198.7-0.6-298
			c-0.1-111.7,0.1-223.5-0.7-335.2c-0.2-32.1,6.3-55.3,45.7-49.5c9.2,0.1,18.4-0.6,27.5,0.3c187.5,18.4,374.9,36.9,562.4,55.6
			c107.4,10.7,214.7,22.3,322.1,32.8c45.5,4.4,74,18.1,70.7,73.8c-3.8,63.7,1.3,128,3.9,192.1c4.6,109.8,7.4,219.6-0.9,329.3
			c5.6,94.7,4.9,189.3,1.1,284c0.3,3.8,0.6,7.6,0.9,11.3c0.3,0.3,0.5,0.7,0.8,1l-3.3,611.9l0,0c-0.8,52.7-1.6,105.5-2.3,158.2
			c0.2,37.8,10.3,75.7-0.8,113.5c4.7,13.2,4.7,27.7,0,40.9c4.7,40.3,6.9,80.9,6.4,121.6l-3,66.2c-0.9,11.7-2,23.4-3.3,35.2
			c0.4,3.5,0.8,7,1.3,10.5l0,0c0,0.5,0.1,1,0.2,1.6C1865.8,2542.5,1862.7,2564.9,1801.1,2570.5z"/>
		<path class="st10" d="M1365.1,2820.2c-84.6,4.9-98.2-1.9-101.8-40.7c-4-43.7,19.5-63.9,78-68.4c36.5-2.8,72.9-6.7,109.4-10.2
			c35-3.4,63.4,2.6,64.4,46.2c1,39.8-17.6,61.1-58.6,63.8C1420,2813.3,1383.7,2818.3,1365.1,2820.2z"/>
		<ellipse class="st11" cx="941.8" cy="489.3" rx="30.4" ry="37.8"/>
		<ellipse class="st24" cx="1034.4" cy="499.2" rx="30.4" ry="37.8"/>
		<ellipse class="st14" cx="1125" cy="509.2" rx="30.4" ry="37.8"/>
		<path class="st25" d="M4458.6,388.2c0.2,4.9,0.3,10,0.2,15.1c-0.8,92.6-1.4,185.3-1.7,277.9c0.3-92.6,0.9-185.3,1.7-277.9
			C4458.9,398.2,4458.8,393.1,4458.6,388.2z"/>
		<path class="st25" d="M4429.2,289.2c-1.8-2.6-3.7-5.2-5.7-7.7C4425.5,284.1,4427.4,286.6,4429.2,289.2z"/>
		<path class="st25" d="M4456.9,876.3L4456.9,876.3c-0.1,120.2,0,240.5,0.2,360.7C4456.9,1116.7,4456.9,996.5,4456.9,876.3z"/>
		<path class="st25" d="M4457.4,2438.5c0,2.8,0,5.5-0.1,8.1C4457.4,2444,4457.5,2441.3,4457.4,2438.5z"/>
		<path class="st25" d="M4443.9,316.1c-1.2-2.9-2.5-5.7-3.9-8.4C4441.4,310.5,4442.7,313.3,4443.9,316.1z"/>
		<path class="st25" d="M4457.2,1515.1c0,115.4-0.1,230.9-0.4,346.3C4457,1745.9,4457.1,1630.5,4457.2,1515.1z"/>
		<path class="st25" d="M4450.3,334c-1.2-4.1-2.6-8.1-4-12C4447.7,325.8,4449.1,329.9,4450.3,334z"/>
		<path class="st25" d="M4458.6,388.2c-0.2-4.9-0.5-9.8-0.9-14.5C4458.1,378.4,4458.4,383.3,4458.6,388.2z"/>
		<path class="st25" d="M4456.6,2092.2c0-38.5,0-76.9,0-115.4C4456.6,2015.3,4456.6,2053.7,4456.6,2092.2z"/>
		<path class="st25" d="M4517.8,1840.1h10.9v-352.3h-10.9V1840.1z"/>
		<path class="st25" d="M4457,2454.1c0.2-2.4,0.3-4.9,0.4-7.5C4457.3,2449.3,4457.2,2451.8,4457,2454.1z"/>
		<path class="st25" d="M4454.8,353.1c-0.8-4.4-1.8-8.7-2.9-12.9C4453.1,344.4,4454,348.7,4454.8,353.1z"/>
		<path class="st25" d="M4457.7,373.7c-0.4-4.7-1-9.3-1.7-13.9C4456.6,364.3,4457.2,369,4457.7,373.7z"/>
		<path class="st14" d="M3428,948.6l962.5,949.6c-0.1-17.4-0.3-34.9-0.4-52.4c-0.2-6.4-0.3-12.9-0.5-19.4l1.1-210l-0.3-13.4
			l-0.2-523.3c0.2-99.3,0.4-198.7,0.6-298c0.1-75.1,0-150.3,0.2-225.4l-963.1,79V948.6z"/>
		<path class="st18" d="M4345.8,396.9c-9.2,0.1-18.4-0.6-27.5,0.3c-187.5,18.4-374.9,36.9-562.4,55.6
			c-107.4,10.7-214.7,22.4-322.1,32.8c-2,0.2-3.9,0.4-5.8,0.7v149l963.1-79c0.1-36.6,0.2-73.2,0.5-109.8
			C4391.8,414.3,4385.2,391.1,4345.8,396.9z M4102.8,547.3c-16.8,0-30.4-16.9-30.4-37.8s13.6-37.8,30.4-37.8s30.4,16.9,30.4,37.8
			S4119.5,547.3,4102.8,547.3L4102.8,547.3z M4193.4,537.4c-16.8,0-30.4-16.9-30.4-37.8s13.6-37.8,30.4-37.8s30.4,16.9,30.4,37.8
			S4210.1,537.4,4193.4,537.4L4193.4,537.4z M4285.9,527.4c-16.8,0-30.4-16.9-30.4-37.8s13.6-37.8,30.4-37.8
			c16.8,0,30.4,16.9,30.4,37.8S4302.7,527.4,4285.9,527.4L4285.9,527.4z"/>
		<path class="st26" d="M3428,1914l966,488.8l0.2-59.4c-1.2-148.4-2.4-296.9-3.6-445.3L3428,948.6V1914z"/>
		<path class="st27" d="M3428,2570.9l918.5,81.3c0.7,0.2,1.4,0.4,2.2,0.6c6.6,1.6,26.8,5.4,37.6-4.7c3.8-4.4,6.2-10.7,7.1-19.4
			l0.1-27.5c-0.1-9.9-0.1-19.8,0.1-29.7l0.5-168.7L3428,1914V2570.9z"/>
		<path class="st28" d="M3428,948.6V486.2c-42.1,5.1-68.1,19.9-64.9,73.2c3.8,63.7-1.3,128-3.9,192.1
			c-4.6,109.8-7.4,219.6,0.9,329.3c-5.6,94.7-4.9,189.3-1.1,284c-0.3,3.8-0.6,7.6-0.9,11.3c-0.3,0.3-0.5,0.7-0.8,1l3.4,612
			c0.8,52.7,1.6,105.5,2.3,158.2c-0.2,37.8-10.3,75.7,0.8,113.5c-4.7,13.2-4.7,27.7,0,40.9c-4.7,40.3-6.9,80.9-6.4,121.6l3,66.2
			c0.9,11.7,2,23.4,3.3,35.2l-1.3,10.5l-0.2,1.6c-0.3,6.1,2.8,28.5,64.4,34.1l1.4,0.1L3428,948.6L3428,948.6z"/>
		<path class="st23" d="M4456.9,820.2c0,18.7,0,37.3,0,56l0,0C4456.9,857.6,4456.9,838.9,4456.9,820.2z"/>
		<path class="st28" d="M4394.3,253.2c5.2,3.9,10.1,8.1,14.8,12.6c3,2.9,6,5.9,8.7,9c2,2.2,3.9,4.5,5.7,6.8c2,2.5,3.9,5,5.7,7.7
			c2.3,3.4,4.5,6.8,6.5,10.3c1.5,2.6,2.9,5.4,4.3,8.1s2.7,5.6,3.9,8.4c0.8,1.9,1.6,3.8,2.3,5.8c1.5,3.9,2.8,7.9,4,12
			c0.6,2,1.2,4.1,1.7,6.2c1.1,4.2,2,8.5,2.9,12.9c0.4,2.2,0.8,4.4,1.2,6.7c0.7,4.5,1.3,9.1,1.7,13.9c0.4,4.7,0.8,9.6,0.9,14.5
			c0.2,4.9,0.3,10,0.2,15.1c-0.8,92.6-1.4,185.3-1.7,277.9c-0.1,46.3-0.2,92.6-0.3,139c0,18.7,0,37.3,0,56
			c-0.1,120.2,0,240.5,0.2,360.7c0.1,92.7,0.2,185.4,0.2,278.1l0,0c0,115.4-0.1,230.9-0.4,346.3c-0.1,38.5-0.1,76.9-0.1,115.4
			c0,38.5,0,77,0,115.4c0,115.4,0.3,230.9,0.8,346.3l0,0c0,2.8,0,5.5-0.1,8.1c0,0,0,0.1,0,0.1c-0.1,2.6-0.2,5.1-0.4,7.5l0,0v471.3
			c0,0,9.2,71.7-80.3,71c11.9,1.3,23.8,2.7,35.8,4l11.6,0.1l29-5.7c69.4-38.3,97.9-97.3,96.1-176c-1.7-76.3,2.4-152.7,3.9-229.1
			l1.4-1533c-5.6-227.1,7.8-454.4-6.9-681.3c-7.4-114.8-75.1-165.4-189.2-144.2c10.6,5.2,20.8,11.2,30.5,17.9
			C4390.8,250.5,4392.6,251.8,4394.3,253.2z M4528.8,1840.1h-10.9v-352.3h10.9V1840.1z"/>
		<path class="st21" d="M3416.4,2882.9c10.8,2.2,22.4,3.9,35.1,5.2c78.4,8,156.5,19.5,234.7,29.5c28.7,2.2,57.4,4.7,86,7.4
			L3416.4,2882.9z"/>
		<path class="st21" d="M3329.6,2828.7c8.3,14,19.8,25.8,33.6,34.4C3349.7,2854.1,3338.2,2842.4,3329.6,2828.7z"/>
		<path class="st21" d="M3306.5,2751.1c0.2,1.6,0.4,3,0.6,4.6l-3.2-146.9C3303.2,2656.4,3300.7,2704.3,3306.5,2751.1z"/>
		<path class="st21" d="M4325,2990.5l-6.6-0.8L4325,2990.5z"/>
		<path class="st21" d="M4393.4,2601.2l0.1-29.7C4393.4,2581.4,4393.3,2591.3,4393.4,2601.2z"/>
		<path class="st21" d="M4348.7,2652.8c-0.7-0.2-1.4-0.3-2.2-0.6C4346.5,2652.2,4347.3,2652.4,4348.7,2652.8z"/>
		<path class="st21" d="M4393.4,2628.8v-0.1c-0.9,8.7-3.3,15-7.1,19.4C4390.5,2644.1,4393.4,2638,4393.4,2628.8z"/>
		<path class="st12" d="M3297.9,2000.2l0.9,468.5c0.6,4.8,1.5,9.6,2.3,14.5l0.9,42.8c-0.9,3.1-2,6.1-3.4,9c1.5,12.5,3,25.1,4.4,37.6
			l0.8,36.3l3.2,146.9l0,0c2.4,31.5,11.1,55.2,22.4,73c8.7,13.7,20.1,25.4,33.6,34.4c26.9,18,53.3,19.8,53.3,19.8l0,0l355.8,42.1
			l546.2,64.7l6.6,0.8l6.9,0.8c14.7,3.2,29.7,4.9,44.8,5.2c89.5,0.7,80.3-71,80.3-71v-471.4l0,0c0.2-2.4,0.3-4.9,0.4-7.5
			c0,0,0-0.1,0-0.1c0.1-2.6,0.1-5.3,0.1-8.1l0,0c-0.6-115.4-0.9-230.9-0.8-346.3c0-38.5,0-76.9,0-115.4c0-38.5,0-77,0.1-115.4
			c0.2-115.4,0.3-230.9,0.4-346.3l0,0c0-92.7,0-185.4-0.2-278.1c-0.1-120.3-0.2-240.5-0.2-360.7c0-18.7,0-37.4,0-56
			c0.1-46.3,0.2-92.7,0.3-139c0.3-92.6,0.9-185.3,1.7-277.9c0-5.2,0-10.2-0.2-15.1c-0.2-4.9-0.5-9.8-0.9-14.5
			c-0.4-4.7-1-9.3-1.7-13.9c-0.3-2.3-0.7-4.5-1.2-6.7c-0.8-4.4-1.8-8.7-2.9-12.9c-0.5-2.1-1.1-4.2-1.7-6.2c-1.2-4.1-2.6-8.1-4-12
			c-0.7-2-1.5-3.9-2.3-5.8c-1.2-2.9-2.5-5.7-3.9-8.4s-2.8-5.5-4.3-8.1c-2-3.5-4.2-7-6.5-10.3c-1.8-2.6-3.7-5.2-5.7-7.7
			c-1.8-2.3-3.7-4.7-5.7-6.8c-2.7-3.1-5.6-6.1-8.7-9c-4.7-4.5-9.6-8.7-14.8-12.6c-1.8-1.3-3.5-2.7-5.4-3.9
			c-9.7-6.8-19.9-12.8-30.5-17.9l0,0c-56,5.4-112.1,9.8-168,16.5c-146.2,17.6-291.9,40.3-439.1,49.1c-10.5,3.2-20.7,8.2-31.3,9.3
			c-79.8,8.5-159.6,17.2-239.6,24c-127.6,10.8-179.6,65.7-180.4,193.3c-0.4,53-0.5,106.1-0.8,159.1c0.2,178.7,0.3,357.3,0.5,536l0,0
			l-1.2,352.1l-1.5,0.5c0.2,91.5,0.4,182.9,0.5,274.4l-0.5,154.8L3297.9,2000.2z M3879,2820.5c-18.6-1.9-55-6.9-91.5-9.3
			c-40.9-2.7-59.5-23.9-58.6-63.8c1-43.6,29.4-49.6,64.4-46.2c36.5,3.5,72.9,7.3,109.4,10.1c58.6,4.5,82.1,24.7,78,68.4
			C3977.2,2818.6,3963.6,2825.4,3879,2820.5L3879,2820.5z M4391.5,446.4c-0.3,36.6-0.4,73.2-0.5,109.8
			c-0.2,75.1-0.1,150.3-0.2,225.4c-0.2,99.3-0.4,198.7-0.6,298l0.2,523.3l0.3,13.4l-1.1,210c0.2,6.5,0.3,12.9,0.5,19.4
			c0.2,17.4,0.3,34.9,0.4,52.4c1.2,148.4,2.4,296.9,3.6,445.3l-0.2,59.4l-0.5,168.7l-0.1,29.7l-0.1,27.5v0.1
			c0,9.2-2.8,15.3-7.1,19.3c-10.9,10.1-31,6.3-37.6,4.7c-1.4-0.3-2.2-0.6-2.2-0.6l-918.5-81.3l-1.4-0.1
			c-61.6-5.6-64.7-27.9-64.4-34.1l0.2-1.6l1.3-10.5c-1.3-11.7-2.4-23.4-3.3-35.2l-3-66.2c-0.5-40.6,1.6-81.2,6.4-121.6
			c-4.7-13.2-4.7-27.7,0-40.9c-11.1-37.7-1-75.7-0.8-113.5c-0.8-52.8-1.6-105.5-2.3-158.2l-3.4-612c0.3-0.3,0.5-0.7,0.8-1
			c0.3-3.8,0.6-7.6,0.9-11.3c-3.9-94.7-4.5-189.4,1.1-284c-8.3-109.8-5.5-219.5-0.9-329.3c2.7-64,7.7-128.3,3.9-192.1
			c-3.2-53.2,22.8-68.1,64.9-73.2c1.9-0.2,3.9-0.5,5.8-0.7c107.4-10.5,214.7-22.1,322.1-32.8c187.4-18.7,374.9-37.3,562.4-55.6
			c9.1-0.9,18.3-0.2,27.5-0.3C4385.2,391.1,4391.8,414.3,4391.5,446.4L4391.5,446.4z"/>
		<path class="st10" d="M3980.8,2779.8c4-43.7-19.5-63.9-78-68.4c-36.5-2.8-73-6.6-109.4-10.1c-35-3.4-63.4,2.6-64.4,46.2
			c-0.9,39.8,17.7,61.1,58.6,63.8c36.5,2.3,72.9,7.3,91.5,9.3C3963.6,2825.4,3977.2,2818.6,3980.8,2779.8z"/>
		<path class="st11" d="M3687.1,499.5c-16.8,0-30.4,16.9-30.4,37.8c0,20.9,13.6,37.8,30.4,37.8s30.4-16.9,30.4-37.8
			C3717.5,516.5,3703.9,499.5,3687.1,499.5z"/>
		<path class="st24" d="M3594.5,509.5c-16.8,0-30.4,16.9-30.4,37.8c0,20.9,13.6,37.8,30.4,37.8s30.4-16.9,30.4-37.8
			C3624.9,526.4,3611.3,509.5,3594.5,509.5z"/>
		<path class="st14" d="M3503.9,519.4c-16.8,0-30.4,16.9-30.4,37.8c0,20.9,13.6,37.8,30.4,37.8c16.8,0,30.4-16.9,30.4-37.8
			C3534.3,536.4,3520.7,519.4,3503.9,519.4z"/>
		<path class="st29" d="M2680.9,1823.8c0,0,57.7-30.4,95.1-27.9s130.4,22.9,130.4,22.9l-9,98.1c0,0-57.7-1.5-110,8
			c-52.3,9.5-176.2-31.9-168.8-54.3C2626.1,1848.2,2680.9,1823.8,2680.9,1823.8z"/>
		<path class="st30" d="M2729,1867.5c0,0,45.3-0.6,55-6.5c0,0,15.7-0.6,14.9,14.3c-0.7,14.9,82.6,20.2,82.6,20.2l-2.7,21.3
			c0,0-95.9,4.4-103.4,7.4C2768,1927.2,2729,1867.5,2729,1867.5z"/>
		<path class="st14" d="M2854,1787.6h-16.9c0,0,39.6,103.2,23.5,136.7l27.6,4.8l-6.6-115.5L2854,1787.6z"/>
		<path class="st31" d="M3473.4,1456l-39.8,46.8l103.2,213.5l80-220l-95.6-33.4C3521.1,1462.9,3477.2,1471.3,3473.4,1456z"/>
		<path class="st32" d="M3669.6,2180.7l26.2,413.9l323.6,28.6c0,0,14.6-205.9,34.8-293.2c20.1-87.4-13.4-212.8-13.4-212.8
			L3669.6,2180.7z"/>
		<path class="st33" d="M3764.8,2222.5l21.7,380.1l330.8,29.3c0,0,11.8-172.7,32-260c20.2-87.4-13.4-212.8-13.4-212.8L3764.8,2222.5
			z"/>
		<path class="st32" d="M3773.5,2333.1l2.3,49.3c0,0,304.7,5.9,379.9-79.7c0,0-1.4-74.1-8.4-86.6
			C4140.4,2203.6,3773.5,2333.1,3773.5,2333.1z"/>
		<path class="st29" d="M3960.3,2376.3c0,0-10.1,44.8,9.3,69.7c0,0,5,15.9,13.4,15.9c8.5,0,60.7,0.5,71.7-14.4
			c10.9-14.9,12-78.6,12-78.6L3960.3,2376.3z"/>
		<path class="st30" d="M3969,2391.6c0,0,12.1,50.9,0.6,54.4c0,0,4.4,16,13.4,15.9c9.1,0-7-85.3-7-85.3L3969,2391.6z"/>
		<path class="st29" d="M3184.7,923.3c0,0-38.8,71.7-28.4,134.4c0,0,6,16.4-44.8,70.9c0,0-20.2,20.2,56,25.4c0,0,22.4,9,17.2,72.4
			c-5.2,63.5,92.6,89.6,214.3,49.3c0,0,41.8-23.2,70.9,123.9c0,0,5.5,46.3-8.5,62.2c-13.9,15.9,110.5,3,148.3-116.5
			c0,0-115.5-80.6-86.6-218s-175.2-266.8-175.2-266.8L3184.7,923.3z"/>
		<path class="st30" d="M3438.8,1060.1c0,0,32.6,49.9,27.3,94c-5.3,44.1,108.9,182.2,108.9,182.2l6-20.2c0,0-69-48.8-62.5-152.1
			S3438.8,1060.1,3438.8,1060.1z"/>
		<path class="st34" d="M3186.7,954.2c0,0-128.4-39.8-28.9-102.5c99.6-62.7,150.3-17.9,150.3-17.9S3240.4,945.2,3186.7,954.2z"/>
		<path class="st11" d="M3223.5,954.2c0,0-145.3-95.6,24.9-170.2c170.2-74.7,253.9,41.8,272.8,114.5
			C3540.1,971.1,3357.9,847.7,3223.5,954.2z"/>
		<path class="st35" d="M3295.2,933.3c0,0-155.3-145.3,114.5-124.4c269.8,20.9,128.4,374.3,128.4,374.3l-64.4-209.3L3295.2,933.3z"
			/>
		<path class="st36" d="M3325,957.7c0,0-47.3-78.7,89.1-46.1c136.4,32.6,162.2,236.2,106.8,290.1c0,0-49.9-148.5-108.1-152.6
			c-13.5-1-24.9,10-25.6,23.5c-0.9,19.3-4.5,51.4-18.2,65.1C3369.1,1137.6,3373.5,1036.2,3325,957.7z"/>
		<path class="st11" d="M3437,1462.9c0,0-51.3,87.6-69.2,142.4c-17.9,54.8-54.7,77.7-54.7,77.7s-46.8,17.5-184.7,66.7
			c-137.9,49.2-264.8,18.4-273.3,32.3s34.3,86.6,25.4,131.9c0,0,3,10.5-6,10.5c-9,0-3,12.9,38.8,9.5c41.8-3.5,319.1,5,429.6-54.7
			c0,0,76.2-43.3,128.4-147.8c0,0,124.5,313.6,138.4,436.1c13.9,122.5,24.4,191.2,24.4,191.2h74.7l-9-334.5L3437,1462.9z"/>
		<path class="st33" d="M3477,1475.7l229.4,609.9l-3.2,63.7l-270.5-637.6C3432.7,1511.7,3452.7,1462.1,3477,1475.7z"/>
		<path class="st11" d="M3609.8,1323.2c0,0-72.6,300.9-73,352.6s167.6,363,185.5,464.6c17.9,101.5,35.8,207.6,35.8,207.6
			s359.9,29.9,418.1-125.4c0,0-46.3-176.2-94.1-268.8c0,0-83.6-210.6-170.2-358.4s-125.4-219.5-171.7-226.2
			C3693.8,1362.4,3612.3,1356.5,3609.8,1323.2z"/>
		<path class="st33" d="M4042.8,1900l23.9,16.1l15.5,37.6l27,342.2c0,0-32.5,32.1-75.3,32.1S4042.8,1900,4042.8,1900z"/>
		<path class="st33" d="M3728.2,1666.2c0,0-53.8-117.4,7.5-80.5c61.2,36.9,240.2,344,224.7,424.4c-15.5,80.3,18.8,324.1,18.8,324.1
			s-28.4,11.9-59.7,11.6c0,0-36.2-419.7-62.9-453.8C3829.9,1857.9,3728.2,1666.2,3728.2,1666.2z"/>
		<path class="st29" d="M2479.1,1849.2c0,0,60.1,4.5,90-6.7c29.9-11.2,41.1-23,57.1-21c16.1,2,59.4-8.8,63.5-14.1
			c4.1-5.2,18.3,10,3,21.4c-15.3,11.4-63.5,30.1-50.8,39.4c12.7,9.3,15.6,12.3,57.7-1.6c42.1-13.9,108.8,54.3,108.8,54.3
			s1,24-31.4,17.7c0,0-7.5,14.6-33.3,12.1c0,0,1,17.9-64.2,8.5c0,0-5.9,16.9-21.9,16.9c-20.5,0-20.7-7.7-48.9-11.2
			c-60.1-7.5-140.5-40-145.2-51.9C2456.3,1895.1,2479.1,1849.2,2479.1,1849.2z"/>
		<path class="st37" d="M2610.8,1965.3c0,0,67.7-85.6,121.5-96.5c0,0,37.2,11.5,76,52.1c0,0-1.5,24.5-31.4,17.7
			c0,0-6.5,14.4-33.3,12.1c0,0,3.7,17.9-64.2,8.5c0,0-10.1,26.1-40.5,13.8C2638.9,1973,2615.2,1965.8,2610.8,1965.3z"/>
		<path class="st30" d="M2514.9,1850c0,0-26.5,70.4,26,100.1l-83.5-32.6l40.9-67.5H2514.9z"/>
		<path class="st30" d="M2729,1867.5c0,0-21.5-6.6-50.6,5.6c-29.1,12.2-38.5-9.3-38.5-9.3s-3.7,4.6,3.7,11.5c7.5,7,24.1,7.3,49-1.5
			c24.9-8.8,51.1-0.7,51.1-0.7L2729,1867.5z"/>
		<path class="st30" d="M2693.8,1888l83.3,50.6l4.4,0.7C2781.5,1939.3,2690.4,1867.4,2693.8,1888z"/>
		<path class="st30" d="M2743.6,1950.5c0,0-55.8-45.5-72.6-46.7c-16.8-1.2,70.7,50.9,70.7,50.9L2743.6,1950.5z"/>
		<path class="st30" d="M2679.4,1959.8c0,0-39.4-25.9-43.9-23.6c-4.5,2.3,41.8,26.4,41.8,26.4L2679.4,1959.8z"/>
		<path class="st11" d="M3700.4,1580.5c0,0,195.9,274.4,198.1,330.2c2.2,55.8,42.6,480.9,42.6,480.9s88.8,31.7,144.6,0
			c0,0,8.5-480.8-34.9-554.9S3883.1,1546,3883.1,1546"/>
		<path class="st14" d="M3470.3,1404.2l16,63.2c0,0-22.9,19.4-34.8,35.3c-11.9,15.9-34.8,62.7-34.8,62.7
			S3416.5,1409.2,3470.3,1404.2z"/>
		<path class="st14" d="M3575.1,1313.1c0,0-14.1,75.7-88.8,154.3c0,0,50.8,2.5,109,72.7c0,0,29.4-137.9,29.4-203.6
			C3624.7,1336.5,3574.3,1287.7,3575.1,1313.1z"/>
		<polygon class="st38" points="1666.3,1824.3 1529.1,2285.2 1471.3,2096.1 1568.8,1875.1 		"/>
		<path class="st39" d="M1644.8,1896.5c0,0-150.6,54.8-99.5,334.2l-19,61.3c0,0-92.6-312.1,55.3-433l75.3-3.2L1644.8,1896.5z"/>
		<path class="st22" d="M1559.9,1119c0,0,23.9,23.9-79.2,165.8c-103,141.9-91.4,412.5-91.4,412.5l245.2-293l109-277.8L1559.9,1119z"
			/>
		<path class="st29" d="M1909.4,848.7c0,0,171.7,34.3,122.5,197.1c0,0,7.7,71.5,39.6,107.1c4,4.4,3.8,11.2-0.6,15.2
			c-0.3,0.3-0.6,0.5-0.9,0.7c-11.4,8.3-24.3,14.4-37.9,17.9l2.1,44.4c0.8,13.2-0.9,26.4-4.9,39c-20.1,61.3-79.5,44.9-178.1,47.6
			c0,0-118-13.4-109,113.5c9,126.9-0.5,125.4-0.5,125.4l-154.8-140.4c0,0,125.4-121,92.6-312.1
			C1646.6,912.9,1909.4,848.7,1909.4,848.7z"/>
		<path class="st30" d="M1636.4,1348.7c0,0,102.8,184,108.3,119l20.3,63.4l-80.3-60.5l-59.7-105.7L1636.4,1348.7z"/>
		<path class="st30" d="M2021.6,921.9c0,0-73.5-7.5-118.3,106c-44.8,113.5-122.7,214.8-221.4,185.1l4.9-161.2
			C1686.9,1051.8,1954.7,741.2,2021.6,921.9z"/>
		<path class="st12" d="M1609.2,1389.9c0,0-52.4,25.4-89.6,53.8C1459.8,1489.3,1312,1897,1312,1897s120.3,100.1,234.1,70.2
			c0,0,42.1-73.2,133.2-122.5s193.4-250.9,126.9-354.7c-18.5-28.8-69.4-97.2-64.4-82c50.1,151.6-57.3,88.7-57.3,88.7L1609.2,1389.9z
			"/>
		<path class="st39" d="M1345,1809.3c0,0,19.8,146.8,229.4,120l-15.3,17.4c0,0-153.1,30.8-235.9-93.3L1345,1809.3z"/>
		<path class="st39" d="M1586.8,1401.6c0,0,115.5,186.3,120.5,190.3c5,4,43.3-71.7,43.3-71.7s6.8-17.2,57.7,47.3
			c0,0,27.9,22.9,0-41.3l-57.7-42.1c0,0,20.7,34.1-50.3,6.3c-92.7-36.4-102.5-94.1-102.5-94.1L1586.8,1401.6z"/>
		<path class="st39" d="M1554.9,1710.8c0,0,95.1,88,171.4,96.4c0,0,42.7-48.4,44.9-58.1C1773.5,1739.4,1554.9,1710.8,1554.9,1710.8z
			"/>
		<path class="st40" d="M1334.1,1838.3c0,0,44.5,121.5,234.7,97.6c0,0-83.5,77.6-50.7,221C1551,2300.2,1586,2591,1586,2591
			l-520.6,46.1c0,0-81.8-432.4,37.6-595.2S1259,1948.3,1334.1,1838.3z"/>
		<path class="st41" d="M1630.2,1359.2c0,0,48.9,102.1,115.5,140.7l-36.5,76l-122.5-189.7C1586.8,1386.3,1634.7,1332,1630.2,1359.2z
			"/>
		<path class="st41" d="M1745.7,1499.9c0,0,50.2,34.9,70.3,64.8c0,0,0.9-61-18.2-87.6c-19.1-26.6-55.5-73.7-55.5-73.7L1745.7,1499.9
			z"/>
		<path class="st42" d="M1599.7,1514.7c0,0,236.9,98.6,339.5,160.3s148.3,72.7,148.3,72.7s47.8,14,88.6,15.9
			c40.8,2,270.8,74.7,270.8,74.7l-8,82.6c0,0-346.5-17.9-465.9-61.7c-119.5-43.8-418.1-148.3-418.1-148.3
			S1507.2,1495.8,1599.7,1514.7z"/>
		<path class="st39" d="M2403,1824.6c0,0-0.6,90-97.7,86.8l126.7,9.2l-9.5-90.3L2403,1824.6z"/>
		<path class="st41" d="M2414.9,1828.8c0,0,8.6,23.8-3,59.6c-11.6,35.8-8.9,30.3-8.9,30.3s-10.5,8.5-0.3,13s65.9,10.8,76,3.7
			s22.8-87.4,19.8-93.7C2495.5,1835.4,2398.8,1808.8,2414.9,1828.8z"/>
		<path class="st11" d="M2012.7,909.4c0,0-60.8-56.2-143.7,152.1c-82.9,208.3-321.7,110.4-321.7,110.4s-33.8-323.2,251.4-356.1
			C2017.1,790.7,2012.7,909.4,2012.7,909.4z"/>
		<path class="st43" d="M1377.5,1894c0,0-174.5,129.9-123.7,282.3s-72.4,450.7-72.4,450.7l404.6-36c0,0-44.5-358.2-74.1-471.8
			c0,0-13.9-106.6,56.9-183.3C1568.8,1935.8,1459.4,1957.7,1377.5,1894z"/>
		<path class="st36" d="M3459.4,1080.9c0,0,26.8,35.1,39.6,88.1c12.7,53,49.2,66.5,49.2,66.5s-15.6-30.9-4-81.5
			C3555.8,1103.3,3459.4,1080.9,3459.4,1080.9z"/>
		<path class="st12" d="M1376.7,967.2c-13.4-5.9-29.2-21.1-40.8-33.9v-65.7c0-17.3-18.9-31.3-42-31.3H509.6
			c-23.1,0-41.9,14.1-41.9,31.3v151.1c0,17.2,18.9,31.3,41.9,31.3H1294c23.1,0,42-14.1,42-31.3v-53.5L1376.7,967.2z"/>
		<path class="st14" d="M525.3,895.3h677.8c1.3,0,2.3,1,2.3,2.3v15.7c0,1.3-1,2.3-2.3,2.3H525.3c-1.3,0-2.3-1-2.3-2.3v-15.7
			C523,896.3,524,895.3,525.3,895.3z"/>
		<path class="st14" d="M525.3,934.2h677.8c1.3,0,2.3,1,2.3,2.3v15.7c0,1.3-1,2.3-2.3,2.3H525.3c-1.3,0-2.3-1-2.3-2.3v-15.7
			C523,935.2,524,934.2,525.3,934.2z"/>
		<path class="st14" d="M525.3,973.1h414.6c1.3,0,2.3,1,2.3,2.3v15.7c0,1.3-1,2.3-2.3,2.3H525.3c-1.3,0-2.3-1-2.3-2.3v-15.7
			C523,974.2,524,973.1,525.3,973.1z"/>
		<path class="st11" d="M3801,945.9c13.4-5.9,29.2-21.1,40.8-33.9v-65.7c0-17.3,18.9-31.3,41.9-31.3h784.4c23.1,0,42,14.1,42,31.3
			v151.1c0,17.2-18.9,31.3-42,31.3h-784.3c-23.1,0-41.9-14.1-41.9-31.3v-53.5L3801,945.9z"/>
		<path class="st14" d="M4652.5,894.3h-677.8c-1.3,0-2.3-1-2.3-2.3v-15.7c0-1.3,1-2.3,2.3-2.3h677.8c1.3,0,2.3,1,2.3,2.3V892
			C4654.8,893.3,4653.8,894.3,4652.5,894.3z"/>
		<path class="st14" d="M4652.5,933.3h-677.8c-1.3,0-2.3-1-2.3-2.3v-15.7c0-1.3,1-2.3,2.3-2.3h677.8c1.3,0,2.3,1,2.3,2.3V931
			C4654.8,932.2,4653.8,933.3,4652.5,933.3z"/>
		<path class="st14" d="M4389.3,972.2h-414.6c-1.3,0-2.3-1-2.3-2.3v-15.7c0-1.3,1-2.3,2.3-2.3h414.6c1.3,0,2.3,1,2.3,2.3v15.7
			C4391.6,971.2,4390.6,972.2,4389.3,972.2z"/>
		<g class="st44">
			<path class="st45" d="M2155.9,922.7h940.4c0,0-55.5-145.4-99.5-127.1c-44,18.3-86.1-36.7-122.5-139.3
				c-36.4-102.6-67.8-12.2-83.9,39.1s-61.6,136.9-101.8,26.9s-71.5-241.8-121.2-92.9s-88-22-88-22s-26.8-254.8-159.8,7.3
				c-84.2,165.9-94.7-274.9-94.7-274.9s5.8-254.8-68.9-194.3L2155.9,922.7z"/>
			<rect x="2254.4" y="388.1" class="st46" width="59.8" height="528.6"/>
			<rect x="2445.2" y="604.5" class="st47" width="59.8" height="312.2"/>
			<rect x="2626.1" y="388.1" class="st46" width="59.8" height="528.6"/>
			<rect x="2816.9" y="604.5" class="st40" width="59.8" height="312.2"/>
			<polygon class="st48" points="3077.6,979.9 2082.5,979.9 2082.5,323.1 2095,323.1 2095,967.4 3077.6,967.4 			"/>
			<polygon class="st48" points="2058.2,357 2120.9,357 2089.5,295.4 			"/>
			<polygon class="st48" points="3063.7,941.3 3063.7,1003.9 3125.3,972.6 			"/>
			<polygon class="st48" points="3000.2,222.5 3049.1,261.6 3063.1,194 			"/>
			<polygon class="st48" points="2510.4,397.3 2272.1,218.7 2170,274.1 2165.8,266.4 2272.9,208.3 2509,385.2 2634,235.4 
				2875.8,385.6 3039.5,218.3 3045.8,224.4 2877.2,396.8 2635.9,246.9 			"/>
			<circle class="st46" cx="2271.8" cy="216.7" r="21.4"/>
			<circle class="st46" cx="2634.3" cy="244.4" r="21.4"/>
			<circle class="st46" cx="2874.6" cy="391.2" r="21.4"/>
		</g>
		<path class="st49" d="M1280.4,1198.7c-2.1,55.8-48.1,99.3-102.8,97.1c-54.7-2.1-97.3-49-95.2-104.8c2.1-55.7,48.1-99.3,102.7-97.1
			C1239.8,1096,1282.4,1142.9,1280.4,1198.7z"/>
		<path class="st14" d="M1175.2,1242.1c-1.1,0-2.2-0.5-2.9-1.3l-37.6-40.1c-1.6-1.7-1.5-4.2,0.1-5.8c1.6-1.5,4.1-1.5,5.6,0
			c0,0,0.1,0.1,0.1,0.1l34.4,36.7l51.8-66c1.4-1.7,3.9-2.1,5.6-0.7c0,0,0.1,0,0.1,0.1c1.8,1.5,2,4,0.6,5.8l-54.7,69.7
			c-0.7,0.9-1.8,1.5-3,1.5L1175.2,1242.1z"/>
		<path class="st11" d="M4111.2,1179.8c-2.1,55.8-48.1,99.3-102.8,97.1c-54.7-2.1-97.3-49-95.2-104.8s48.1-99.3,102.7-97.1
			S4113.3,1124,4111.2,1179.8z"/>
		<path class="st14" d="M4006,1223.2c-1.1,0-2.2-0.5-2.9-1.3l-37.6-40c-1.5-1.7-1.5-4.2,0.1-5.8c1.6-1.5,4.1-1.5,5.6,0.1
			c0,0,0,0.1,0.1,0.1l34.4,36.7l51.8-66c1.4-1.7,3.9-2.1,5.6-0.7c0,0,0.1,0,0.1,0.1c1.8,1.4,2,4,0.6,5.8l-54.7,69.7
			c-0.7,0.9-1.8,1.5-3,1.5L4006,1223.2z"/>
	</g>
</g>
</svg>
