<?xml version="1.0" encoding="utf-8"?>
<!-- Generator: Adobe Illustrator 24.1.0, SVG Export Plug-In . SVG Version: 6.00 Build 0)  -->
<svg version="1.1" id="Capa_1" xmlns="http://www.w3.org/2000/svg" xmlns:xlink="http://www.w3.org/1999/xlink" x="0px" y="0px"
	 viewBox="0 0 5000 3575.6" style="enable-background:new 0 0 5000 3575.6;" xml:space="preserve">
<style type="text/css">
	.st0{opacity:0.42;fill:#FE7101;enable-background:new    ;}
	.st1{opacity:0.8;fill:#F32735;enable-background:new    ;}
	.st2{fill:#514F4F;}
	.st3{fill:#3F3F3F;}
	.st4{fill:#353535;}
	.st5{fill:#C23825;}
	.st6{fill:#7C7C7C;}
	.st7{fill:#E01B07;}
	.st8{fill:#C12000;}
	.st9{fill:#771704;}
	.st10{fill:#EAF2F9;}
	.st11{opacity:0.58;}
	.st12{fill:#CEE4F4;}
	.st13{fill:#BDD6E5;}
	.st14{fill:#7BADC9;}
	.st15{fill:#222563;}
	.st16{fill:#FAC2AE;}
	.st17{fill:#F1A080;}
	.st18{fill:#2D2E75;}
	.st19{fill:#759CC6;}
	.st20{fill:#A8CAEF;}
	.st21{fill:#8DB0DC;}
	.st22{fill:#6DA4BC;}
	.st23{fill:#427B8E;}
	.st24{fill:#232F63;}
	.st25{fill:#111D49;}
	.st26{fill:#FFFFFF;}
	.st27{fill:#478393;}
	.st28{fill:#88BFD3;}
	.st29{fill:#528CA0;}
	.st30{opacity:0.4;fill:#478393;enable-background:new    ;}
	.st31{fill:none;}
	.st32{fill:#FABC9D;}
	.st33{fill:#E6515B;}
	.st34{fill:#B03E45;}
	.st35{fill:#344B56;}
	.st36{fill:#3F6A84;}
	.st37{fill:#9EB7C6;}
	.st38{fill:#A7C7D2;}
	.st39{opacity:0.71;fill:#C6D2EB;enable-background:new    ;}
	.st40{fill:#121038;}
	.st41{opacity:0.58;fill:#C2DDF9;enable-background:new    ;}
	.st42{opacity:0.47;fill:#E6515B;enable-background:new    ;}
	.st43{fill:#3D4D89;}
	.st44{fill:#0D193A;}
	.st45{fill:#364777;}
	.st46{fill:#1E2B59;}
	.st47{fill:#0F1B42;}
	.st48{fill:#6FA4BC;}
	.st49{fill:#5590A0;}
	.st50{fill:#77ACBF;}
	.st51{fill:#5E9AAA;}
	.st52{fill:#87BAC6;}
	.st53{opacity:0.56;}
	.st54{fill:#D3DDEF;}
	.st55{opacity:0.85;fill:#C1D3E8;enable-background:new    ;}
	.st56{opacity:0.27;fill:#E6515B;enable-background:new    ;}
</style>
<path class="st0" d="M209.6-69.2H60.1c-3.7,0-6.6-3-6.6-6.6v-149.5c0-3.7,3-6.6,6.6-6.6h149.5c3.7,0,6.6,3,6.6,6.6v149.5
	C216.3-72.2,213.3-69.2,209.6-69.2z"/>
<path class="st1" d="M460.9-69.2H311.4c-3.7,0-6.6-3-6.6-6.6v-149.5c0-3.7,3-6.6,6.6-6.6h149.5c3.7,0,6.6,3,6.6,6.6v149.5
	C467.5-72.2,464.5-69.2,460.9-69.2z"/>
<path class="st2" d="M724-69.2H574.6c-3.7,0-6.6-3-6.6-6.6v-149.5c0-3.7,3-6.6,6.6-6.6H724c3.7,0,6.6,3,6.6,6.6v149.5
	C730.7-72.2,727.7-69.2,724-69.2z"/>
<path class="st3" d="M988.1-69.2H838.7c-3.7,0-6.6-3-6.6-6.6v-149.5c0-3.7,3-6.6,6.6-6.6h149.5c3.7,0,6.6,3,6.6,6.6v149.5
	C994.8-72.2,991.8-69.2,988.1-69.2z"/>
<path class="st4" d="M1231.7-69.2h-149.5c-3.7,0-6.6-3-6.6-6.6v-149.5c0-3.7,3-6.6,6.6-6.6h149.5c3.7,0,6.6,3,6.6,6.6v149.5
	C1238.3-72.2,1235.3-69.2,1231.7-69.2z"/>
<rect x="3754.5" y="-232" class="st5" width="162.8" height="162.8"/>
<rect x="4005.7" y="-232" class="st2" width="162.8" height="162.8"/>
<rect x="4268.9" y="-232" class="st3" width="162.8" height="162.8"/>
<rect x="2981.9" y="-232" class="st0" width="162.8" height="162.8"/>
<rect x="3233.2" y="-232" class="st6" width="162.8" height="162.8"/>
<rect x="3496.3" y="-232" class="st6" width="162.8" height="162.8"/>
<rect x="4533" y="-232" class="st4" width="162.8" height="162.8"/>
<rect x="4776.5" y="-232" class="st4" width="162.8" height="162.8"/>
<rect x="3747.2" y="-485.5" class="st5" width="162.8" height="162.8"/>
<rect x="3998.5" y="-485.5" class="st2" width="162.8" height="162.8"/>
<rect x="4261.7" y="-485.5" class="st3" width="162.8" height="162.8"/>
<rect x="2974.7" y="-485.5" class="st0" width="162.8" height="162.8"/>
<rect x="3225.9" y="-485.5" class="st6" width="162.8" height="162.8"/>
<rect x="3489.1" y="-485.5" class="st6" width="162.8" height="162.8"/>
<rect x="4525.8" y="-485.5" class="st4" width="162.8" height="162.8"/>
<rect x="4769.3" y="-485.5" class="st4" width="162.8" height="162.8"/>
<path class="st0" d="M209.6-322.7H60.1c-3.7,0-6.6-3-6.6-6.6v-149.5c0-3.7,3-6.6,6.6-6.6h149.5c3.7,0,6.6,3,6.6,6.6v149.5
	C216.3-325.7,213.3-322.7,209.6-322.7z"/>
<path class="st5" d="M460.9-322.7H311.4c-3.7,0-6.6-3-6.6-6.6v-149.5c0-3.7,3-6.6,6.6-6.6h149.5c3.7,0,6.6,3,6.6,6.6v149.5
	C467.5-325.7,464.5-322.7,460.9-322.7z"/>
<path class="st7" d="M724-322.7H574.6c-3.7,0-6.6-3-6.6-6.6v-149.5c0-3.7,3-6.6,6.6-6.6H724c3.7,0,6.6,3,6.6,6.6v149.5
	C730.7-325.7,727.7-322.7,724-322.7z"/>
<path class="st8" d="M988.1-322.7H838.7c-3.7,0-6.6-3-6.6-6.6v-149.5c0-3.7,3-6.6,6.6-6.6h149.5c3.7,0,6.6,3,6.6,6.6v149.5
	C994.8-325.7,991.8-322.7,988.1-322.7z"/>
<path class="st9" d="M1231.7-322.7h-149.5c-3.7,0-6.6-3-6.6-6.6v-149.5c0-3.7,3-6.6,6.6-6.6h149.5c3.7,0,6.6,3,6.6,6.6v149.5
	C1238.3-325.7,1235.3-322.7,1231.7-322.7z"/>
<g id="Layer_2">
	<g id="Layer_1-2">
		<ellipse class="st10" cx="981.3" cy="3331.5" rx="593.4" ry="195.1"/>
		<ellipse class="st10" cx="2680.4" cy="3268" rx="720.4" ry="242.2"/>
		<ellipse class="st10" cx="3690.4" cy="3304.1" rx="318.5" ry="164.5"/>
		<path class="st10" d="M1077.3,2890.2h3267.9c0,0,479.9-1492.4-41-1805.1C3838.5,805.5,4009-22.7,3353.8,73
			s-695.3,375.9-1354.2,317.4c-979.7-86.9-1581.8,682.9-1009.8,1746.4C1134.3,2405.4,1145.7,2677.9,1077.3,2890.2z"/>
		<g class="st11">
			<path class="st12" d="M4135.1,2325.7l-27.9,564.6c0,0-246.5,3.5-246-2.4c0.5-6-7.6-576.9-7.6-576.9L4135.1,2325.7z"/>
			<polyline class="st13" points="4135.1,2358.6 3851.2,2358.6 3853.6,2406.6 4135.1,2358.6 			"/>
			<polygon class="st12" points="4203.5,2259.7 2949.2,2259.7 2949.2,2319.4 4203.5,2358.6 			"/>
			<polygon class="st12" points="3128.4,2321 3143.3,2894.3 3163.8,2895.1 3171.3,2321 			"/>
			<path class="st13" d="M4126.2,2526.9c0,0.5-268.2,22.6-268.2,22.6l0.3,18.1l267-20.4L4126.2,2526.9z"/>
			<polygon class="st13" points="4117.2,2733.4 3861.2,2724.1 3861.6,2744 4116.7,2744 			"/>
			<path class="st13" d="M3964.6,2460.5h49.2c3.1,0,5.6-3.9,5.6-8.7l0,0c0-4.8-2.5-8.7-5.6-8.7h-49.2c-3.1,0-5.6,3.9-5.6,8.7l0,0
				C3959,2456.5,3961.5,2460.5,3964.6,2460.5z"/>
			<path class="st13" d="M3960.9,2652.8h49.2c3.1,0,5.6-3.9,5.6-8.7l0,0c0-4.8-2.5-8.7-5.6-8.7h-49.2c-3.1,0-5.6,3.9-5.6,8.7l0,0
				C3955.4,2648.9,3957.9,2652.8,3960.9,2652.8z"/>
			<path class="st13" d="M3960.9,2850.1h49.2c3.1,0,5.6-3.9,5.6-8.7l0,0c0-4.8-2.5-8.7-5.6-8.7h-49.2c-3.1,0-5.6,3.9-5.6,8.7l0,0
				C3955.4,2846.2,3957.9,2850.1,3960.9,2850.1z"/>
		</g>
		<g class="st11">
			<polygon class="st12" points="3902.6,2110.1 3939.9,2110.1 3944.9,2257.2 3908.8,2257.2 			"/>
		</g>
		<g class="st11">
			<path class="st12" d="M3834.8,2058.7h70.9c1.9,0,2.5,199.3,2.5,199.3h-66L3834.8,2058.7z"/>
			<path class="st10" d="M3896.4,2181.9c0,14-9.2,25.3-20.5,25.3c-11.3,0-20.5-11.3-20.5-25.3s7.3-23.5,18.7-23.5
				C3885.4,2158.3,3896.4,2167.9,3896.4,2181.9z"/>
		</g>
		<g class="st11">
			<polygon class="st12" points="3780.7,2260 3777.5,2041.9 3842.2,2044.9 3842.2,2258 			"/>
			<path class="st10" d="M3823,2087.8c0,8.9-5.9,16.1-13.1,16.1s-13.1-7.2-13.1-16.1c0-8.9,4.8-16,12-16
				C3816,2071.8,3823,2078.9,3823,2087.8z"/>
		</g>
		<rect x="888.6" y="2888" class="st14" width="3650.4" height="17"/>
		<path class="st15" d="M2835.1,1611.4c0,0-39,73.4-30.8,97.5l-19.8,4.1c0,0,19.7-95.4,36.4-99.2S2835.1,1611.4,2835.1,1611.4z"/>
		<path class="st16" d="M2542.4,1381.1c0,0-27.7,235.5,66.9,317.9c17.2,15,51.3,12.1,78.7,15.7c0,0,30.3,116.4-22.6,125.9
			c-52.9,9.5,125.4,76.7,158.6-0.4c0,0-61.5-83-23.2-182.2c14.3-36.9,28.5-43.6,34.6-67.3c19.2-74.8-8.7-146.4-60.2-195.3
			c-1.7-1.6-9.1-16.8-10.8-18.3C2694,1315.3,2542.4,1381.1,2542.4,1381.1z"/>
		<path class="st17" d="M2598.7,1438.7c0,0-54.7,21.1-55.5,102.5C2543.1,1541.2,2529.9,1375.5,2598.7,1438.7z"/>
		<path class="st17" d="M2598.7,1438.7c0,0,65.4-29.1,76.9,30.6s133.3,73.4,159.6,60.8c26.3-12.6-141.7-156.5-141.7-156.5
			S2589.8,1377.6,2598.7,1438.7z"/>
		<path class="st15" d="M2598.7,1438.7c0,0-35.5-9.4-53,56l4.3-81C2550,1413.7,2594.9,1426.8,2598.7,1438.7z"/>
		<path class="st15" d="M2598.7,1438.7c0,0,51.4-52.5,81.5-6.3c30.1,46.1,0-53.3,0-53.3l-47.5,1.4L2598.7,1438.7z"/>
		<path class="st16" d="M2850.4,1549.3c0,0,24-12.7,14.5,23.3c-5.4,20.9-21.2,37.6-41.8,44.1v-63.3L2850.4,1549.3z"/>
		<path class="st17" d="M2694.4,1805.9c0,0,14,34.1,59.4,8.5l45.4-25.6l32.4,55.5c0,0-47.7,70.2-98.7,53.4
			C2681.9,1880.8,2660.3,1846.1,2694.4,1805.9z"/>
		<path class="st18" d="M2626.1,1621.6l-72.5,3c-16.3,0.6-29.9-12.1-30.6-28.4l-0.7-17.1c-0.7-16.3,11.9-30,28.1-30.8l72.5-3
			c16.3-0.6,29.9,12.1,30.6,28.4l0.7,17.1C2655,1607,2642.4,1620.8,2626.1,1621.6z M2550.8,1556.3c-11.9,0.5-21.1,10.6-20.6,22.5
			l0.7,17.1c0.4,11.9,10.4,21.2,22.3,20.8l72.5-3c11.9-0.5,21.1-10.6,20.5-22.5l-0.7-17.1c-0.5-11.9-10.4-21.2-22.3-20.7
			L2550.8,1556.3z"/>
		<path class="st18" d="M2784,1617.5l-72.5,3c-16.3,0.6-29.9-12.1-30.6-28.4l-0.7-17.1c-0.7-16.3,11.9-30,28.1-30.8l72.5-3
			c16.3-0.6,29.9,12.1,30.6,28.4l0.7,17.1C2812.9,1603,2800.3,1616.8,2784,1617.5z M2708.7,1552.2c-11.9,0.5-21.1,10.6-20.5,22.5
			l0.7,17.1c0.4,11.9,10.4,21.2,22.3,20.8l72.5-3c11.9-0.5,21.1-10.6,20.5-22.5l-0.7-17.1c-0.5-11.9-10.4-21.2-22.3-20.7
			L2708.7,1552.2z"/>
		<path class="st18" d="M2681,1577.3c-3.5-4.7-7.5-7.3-11.9-7.6c-8.6-0.7-16.6,7-16.8,7.1l-5.5-5.7c0.4-0.4,10.6-10.3,22.9-9.4
			c6.8,0.5,12.7,4.2,17.7,10.8L2681,1577.3z"/>
		<path class="st17" d="M2675.6,1712.6c0,0,30.2,7.3,83.5-9.5c0,0-20.1,29.1-67.1,30.6l-2.1-17.7L2675.6,1712.6z"/>
		<path class="st19" d="M3052.4,3142.5c-136.7,0-247.6-41.9-247.6-93.5v73.4c0,0-10.4,85,247.6,93.5c0,0,232.9,5.1,247.6-93.5V3049
			C3300,3100.6,3189.2,3142.5,3052.4,3142.5z"/>
		<path class="st20" d="M3052.4,3127.3c-209.6-6.9-242-64.3-246.8-85.6c-0.5,2.4-0.7,4.8-0.7,7.3c0,51.6,110.8,93.5,247.6,93.5
			c136.7,0,247.6-41.9,247.6-93.5c0-3.1-0.4-6.2-1.2-9.3C3275.8,3132.2,3052.4,3127.3,3052.4,3127.3z"/>
		<path class="st19" d="M3052.4,3053.9c-136.7,0-247.6-41.9-247.6-93.5v73.4c-0.2,2.7,0.1,5.3,0.7,7.9
			c4.8,21.3,37.2,78.7,246.8,85.6c0,0,223.4,4.9,246.4-87.6c0.5-1.9,0.9-3.9,1.2-5.9v-73.4C3300,3012,3189.2,3053.9,3052.4,3053.9z"
			/>
		<path class="st20" d="M3052.4,3036.4c-206-6.8-240.9-62.3-246.6-84.4c-0.7,2.8-1,5.6-1,8.5c0,51.6,110.8,93.5,247.6,93.5
			c136.7,0,247.6-41.9,247.6-93.5c0-3.5-0.5-7-1.5-10.4C3273.9,3041.2,3052.4,3036.4,3052.4,3036.4z"/>
		<path class="st19" d="M3052.4,2963c-136.7,0-247.6-41.9-247.6-93.5v73.4c-0.2,3.1,0.2,6.1,1,9.1c5.7,22.1,40.5,77.6,246.6,84.4
			c0,0,221.5,4.9,246.1-86.4c0.6-2.3,1.2-4.7,1.5-7.1v-73.4C3300,2921.1,3189.2,2963,3052.4,2963z"/>
		<path class="st20" d="M3052.4,2947.6c-209.3-6.9-241.9-64.1-246.8-85.5c-0.5,2.4-0.8,4.9-0.8,7.4c0,51.6,110.8,93.5,247.6,93.5
			c136.7,0,247.6-41.9,247.6-93.5c0-3.2-0.4-6.3-1.2-9.4C3275.7,2952.5,3052.4,2947.6,3052.4,2947.6z"/>
		<path class="st19" d="M3052.4,2874.2c-136.7,0-247.6-41.9-247.6-93.5v73.4c-0.2,2.7,0.1,5.4,0.8,8c4.9,21.4,37.5,78.6,246.8,85.5
			c0,0,223.2,4.9,246.4-87.5c0.5-2,0.9-4,1.2-6v-73.4C3300,2832.3,3189.2,2874.2,3052.4,2874.2z"/>
		<path class="st20" d="M3052.4,2858.8c-209.3-6.9-241.9-64.1-246.8-85.5c-0.5,2.4-0.8,4.9-0.8,7.4c0,51.6,110.8,93.5,247.6,93.5
			c136.7,0,247.6-41.9,247.6-93.5c0-3.2-0.4-6.3-1.2-9.4C3275.7,2863.7,3052.4,2858.8,3052.4,2858.8z"/>
		<path class="st19" d="M3052.4,2785.4c-136.7,0-247.6-41.9-247.6-93.5v73.4c-0.2,2.7,0.1,5.4,0.8,8c4.9,21.4,37.5,78.6,246.8,85.5
			c0,0,223.2,4.9,246.4-87.5c0.5-2,0.9-4,1.2-6v-73.4C3300,2743.5,3189.2,2785.4,3052.4,2785.4z"/>
		<path class="st20" d="M3052.4,2770c-209.3-6.9-241.9-64.1-246.8-85.5c-0.5,2.4-0.8,4.9-0.8,7.4c0,51.6,110.8,93.5,247.6,93.5
			c136.7,0,247.6-41.9,247.6-93.5c0-3.2-0.4-6.3-1.2-9.4C3275.7,2774.9,3052.4,2770,3052.4,2770z"/>
		<path class="st19" d="M3052.4,2696.6c-136.7,0-247.6-41.9-247.6-93.5v73.4c-0.2,2.7,0.1,5.4,0.8,8c4.9,21.4,37.5,78.6,246.8,85.5
			c0,0,223.2,4.9,246.4-87.5c0.5-2,0.9-4,1.2-6v-73.4C3300,2654.7,3189.2,2696.6,3052.4,2696.6z"/>
		<path class="st20" d="M3052.4,2681.2c-209.3-6.9-241.9-64.1-246.8-85.5c-0.5,2.4-0.8,4.9-0.8,7.4c0,51.6,110.8,93.5,247.6,93.5
			c136.7,0,247.6-41.9,247.6-93.5c0-3.2-0.4-6.3-1.2-9.4C3275.7,2686.1,3052.4,2681.2,3052.4,2681.2z"/>
		<path class="st19" d="M3052.4,2607.8c-136.7,0-247.6-41.9-247.6-93.5v73.4c-0.2,2.7,0.1,5.4,0.8,8c4.9,21.4,37.5,78.6,246.8,85.5
			c0,0,223.2,4.9,246.4-87.5c0.5-2,0.9-4,1.2-6v-73.4C3300,2565.9,3189.2,2607.8,3052.4,2607.8z"/>
		<path class="st20" d="M3052.4,2607.8c136.7,0,247.6-41.9,247.6-93.5s-110.8-93.5-247.6-93.5c-68.6,0-130.8,10.6-175.6,27.6
			c-44.5,16.9-71.9,40.2-71.9,65.9C2804.8,2565.9,2915.7,2607.8,3052.4,2607.8z M3052.4,2450c94,0,170.2,28.8,170.2,64.3
			s-76.2,64.3-170.2,64.3s-170.2-28.7-170.2-64.3S2958.4,2450,3052.4,2450L3052.4,2450z"/>
		<path class="st19" d="M3052.4,2578.5c94,0,170.2-28.8,170.2-64.3s-76.2-64.3-170.2-64.3s-170.2,28.8-170.2,64.3
			S2958.4,2578.5,3052.4,2578.5z"/>
		<path class="st19" d="M2580.1,3215.3c-136.7,0-247.6-41.9-247.6-93.5v73.4c0,0-10.4,85,247.6,93.5c0,0,232.9,5.1,247.6-93.5v-73.4
			C2827.7,3173.5,2716.9,3215.3,2580.1,3215.3z"/>
		<path class="st20" d="M2580.1,3200.1c-209.6-6.9-242.1-64.3-246.9-85.6c-0.5,2.4-0.7,4.8-0.7,7.3c0,51.6,110.8,93.5,247.6,93.5
			c136.7,0,247.6-41.9,247.6-93.5c0-3.1-0.4-6.2-1.2-9.3C2803.5,3205.1,2580.1,3200.1,2580.1,3200.1z"/>
		<path class="st19" d="M2580.1,3126.7c-136.7,0-247.6-41.9-247.6-93.5v73.4c-0.2,2.7,0.1,5.3,0.7,7.9
			c4.8,21.3,37.2,78.7,246.9,85.6c0,0,223.4,4.9,246.4-87.6c0.5-1.9,0.9-3.9,1.2-5.9v-73.4
			C2827.7,3084.9,2716.9,3126.7,2580.1,3126.7z"/>
		<path class="st20" d="M2580.1,3109.2c-206-6.8-240.9-62.3-246.6-84.4c-0.7,2.8-1,5.6-1,8.4c0,51.6,110.8,93.5,247.6,93.5
			s247.6-41.9,247.6-93.5c0-3.5-0.5-7-1.5-10.4C2801.6,3114.1,2580.1,3109.2,2580.1,3109.2z"/>
		<path class="st19" d="M2580.1,3035.8c-136.7,0-247.6-41.9-247.6-93.5v73.4c-0.2,3.1,0.2,6.1,1,9.1c5.7,22.1,40.5,77.6,246.6,84.4
			c0,0,221.5,4.9,246.1-86.4c0.7-2.3,1.2-4.7,1.5-7.1v-73.4C2827.7,2993.9,2716.9,3035.8,2580.1,3035.8z"/>
		<path class="st20" d="M2580.1,3020.4c-209.3-6.9-242-64.1-246.8-85.5c-0.5,2.4-0.8,4.9-0.8,7.4c0,51.6,110.8,93.5,247.6,93.5
			c136.7,0,247.6-41.9,247.6-93.5c0-3.2-0.4-6.3-1.2-9.4C2803.4,3025.3,2580.1,3020.4,2580.1,3020.4z"/>
		<path class="st19" d="M2580.1,2947c-136.7,0-247.6-41.9-247.6-93.5v73.4c-0.2,2.7,0.1,5.4,0.8,8c4.9,21.4,37.5,78.6,246.8,85.5
			c0,0,223.2,4.9,246.4-87.5c0.5-2,0.9-4,1.2-6v-73.4C2827.7,2905.1,2716.9,2947,2580.1,2947z"/>
		<path class="st20" d="M2580.1,2931.6c-209.3-6.9-242-64.1-246.8-85.5c-0.5,2.4-0.8,4.9-0.8,7.4c0,51.6,110.8,93.5,247.6,93.5
			c136.7,0,247.6-41.9,247.6-93.5c0-3.2-0.4-6.3-1.2-9.4C2803.4,2936.6,2580.1,2931.6,2580.1,2931.6z"/>
		<path class="st19" d="M2580.1,2858.2c-136.7,0-247.6-41.9-247.6-93.5v73.4c-0.2,2.7,0.1,5.4,0.8,8c4.9,21.4,37.5,78.6,246.8,85.5
			c0,0,223.2,4.9,246.4-87.5c0.5-2,0.9-4,1.2-6v-73.4C2827.7,2816.3,2716.9,2858.2,2580.1,2858.2z"/>
		<path class="st20" d="M2580.1,2842.8c-209.3-6.9-242-64.1-246.8-85.5c-0.5,2.4-0.8,4.9-0.8,7.4c0,51.6,110.8,93.5,247.6,93.5
			c136.7,0,247.6-41.9,247.6-93.5c0-3.2-0.4-6.3-1.2-9.4C2803.4,2847.7,2580.1,2842.8,2580.1,2842.8z"/>
		<path class="st19" d="M2580.1,2769.4c-136.7,0-247.6-41.9-247.6-93.5v73.4c-0.2,2.7,0.1,5.4,0.8,8c4.9,21.4,37.5,78.6,246.8,85.5
			c0,0,223.2,4.9,246.4-87.5c0.5-2,0.9-4,1.2-6v-73.4C2827.7,2727.6,2716.9,2769.4,2580.1,2769.4z"/>
		<path class="st20" d="M2580.1,2754c-209.3-6.9-242-64.1-246.8-85.5c-0.5,2.4-0.8,4.9-0.8,7.4c0,51.6,110.8,93.5,247.6,93.5
			c136.7,0,247.6-41.9,247.6-93.5c0-3.2-0.4-6.3-1.2-9.4C2803.4,2758.9,2580.1,2754,2580.1,2754z"/>
		<path class="st19" d="M2580.1,2680.6c-136.7,0-247.6-41.9-247.6-93.5v73.4c-0.2,2.7,0.1,5.4,0.8,8c4.9,21.4,37.5,78.6,246.8,85.5
			c0,0,223.2,4.9,246.4-87.5c0.5-2,0.9-4,1.2-6v-73.4C2827.7,2638.7,2716.9,2680.6,2580.1,2680.6z"/>
		<path class="st20" d="M2580.1,2680.6c136.7,0,247.6-41.9,247.6-93.5c0-51.6-110.8-93.5-247.6-93.5c-68.6,0-130.8,10.6-175.6,27.6
			c-44.5,16.9-71.9,40.2-71.9,65.9C2332.5,2638.7,2443.4,2680.6,2580.1,2680.6z M2580.1,2522.8c94,0,170.2,28.8,170.2,64.3
			c0,35.5-76.2,64.3-170.2,64.3c-94,0-170.2-28.8-170.2-64.3C2409.9,2551.6,2486.1,2522.8,2580.1,2522.8z"/>
		<path class="st19" d="M2580.1,2651.4c94,0,170.2-28.8,170.2-64.3c0-35.5-76.2-64.3-170.2-64.3c-94,0-170.2,28.8-170.2,64.3
			C2409.9,2622.6,2486.1,2651.4,2580.1,2651.4z M2545.5,2563.8c14.4-12.2,59.9-13.4,74-1.7c2.1,1.7,6.2,4.1,3.3,7.2
			c-4.7,4.8-10.5,6.1-16.6,1.4c-4-3.1-9.2-6.6-12.2,0c-2.8,6.2,0.6,10.1,7.8,11.2c6,1,11.8,3.4,17.6,5.6c6,2.3,11.1,5.8,10.5,13.5
			c-0.1,4-2.2,6.9-4.9,9.6c-13.2,13.6-69.9,14.1-83.6,0.8c-1.9-1.8-3.9-4-1.5-5.9c2.8-2.2,6.9-4.9,9.7-4.2c4.4,1.1,8,5.2,12.4,7.3
			c5.6,2.7,12.3,5.9,15.3-2.8c2.2-6.5,0.6-12.1-7.6-13.9c-6.6-1.5-13.1-3.4-19.5-5.7C2536,2581,2534.5,2573.2,2545.5,2563.8z"/>
		<path class="st20" d="M2550.3,2586.2c6.4,2.3,12.8,4.2,19.5,5.7c8.2,1.8,9.9,7.4,7.6,13.9c-3,8.7-9.7,5.5-15.3,2.8
			c-4.3-2.1-7.9-6.2-12.4-7.3c-2.8-0.7-6.9,2-9.7,4.2c-2.5,1.9-0.4,4.1,1.5,5.9c13.6,13.3,70.3,12.8,83.6-0.8
			c2.7-2.7,4.8-5.6,4.9-9.6c0.6-7.7-4.5-11.1-10.5-13.5c-5.7-2.2-11.6-4.6-17.6-5.6c-7.2-1.2-10.6-5-7.8-11.2c3-6.6,8.2-3.1,12.2,0
			c6.1,4.8,11.9,3.4,16.6-1.4c3-3.1-1.2-5.4-3.3-7.2c-14.1-11.6-59.6-10.5-74,1.7C2534.5,2573.2,2536,2581,2550.3,2586.2z"/>
		<path class="st21" d="M2202.9,3263.7c-136.7,0-247.6-41.9-247.6-93.5v73.4c0,0-10.4,85,247.6,93.5c0,0,232.9,5.1,247.6-93.5v-73.4
			C2450.5,3221.8,2339.7,3263.7,2202.9,3263.7z"/>
		<path class="st20" d="M2202.9,3248.5c-209.6-6.9-242.1-64.3-246.9-85.6c-0.5,2.4-0.7,4.8-0.7,7.3c0,51.6,110.9,93.5,247.6,93.5
			c136.7,0,247.6-41.9,247.6-93.5c0-3.1-0.4-6.2-1.2-9.3C2426.3,3253.4,2202.9,3248.5,2202.9,3248.5z"/>
		<path class="st21" d="M2202.9,3175.1c-136.7,0-247.6-41.9-247.6-93.5v73.4c-0.2,2.7,0.1,5.3,0.7,7.9
			c4.8,21.3,37.2,78.7,246.9,85.6c0,0,223.4,4.9,246.4-87.6c0.5-1.9,0.9-3.9,1.2-5.9v-73.4
			C2450.5,3133.2,2339.7,3175.1,2202.9,3175.1z"/>
		<path class="st20" d="M2202.9,3157.6c-206-6.8-240.9-62.3-246.6-84.4c-0.7,2.8-1,5.6-1,8.5c0,51.6,110.9,93.5,247.6,93.5
			c136.7,0,247.6-41.9,247.6-93.5c0-3.5-0.5-7-1.5-10.4C2424.4,3162.4,2202.9,3157.6,2202.9,3157.6z"/>
		<path class="st21" d="M2202.9,3084.1c-136.7,0-247.6-41.9-247.6-93.5v73.4c-0.2,3.1,0.2,6.1,1,9.1c5.7,22.1,40.5,77.6,246.6,84.4
			c0,0,221.5,4.9,246.1-86.4c0.6-2.3,1.2-4.7,1.5-7.1v-73.4C2450.5,3042.3,2339.7,3084.1,2202.9,3084.1z"/>
		<path class="st20" d="M2202.9,3068.7c-209.3-6.9-242-64.1-246.8-85.5c-0.5,2.4-0.8,4.9-0.8,7.4c0,51.6,110.9,93.5,247.6,93.5
			c136.7,0,247.6-41.9,247.6-93.5c0-3.2-0.4-6.3-1.2-9.4C2426.2,3073.6,2202.9,3068.7,2202.9,3068.7z"/>
		<path class="st21" d="M2202.9,2995.3c-136.7,0-247.6-41.9-247.6-93.5v73.4c-0.2,2.7,0.1,5.4,0.8,8c4.9,21.4,37.5,78.6,246.8,85.5
			c0,0,223.2,4.9,246.4-87.5c0.5-2,0.9-4,1.2-6v-73.4C2450.5,2953.5,2339.7,2995.3,2202.9,2995.3z"/>
		<path class="st20" d="M2202.9,2979.9c-209.3-6.9-242-64.1-246.8-85.5c-0.5,2.4-0.8,4.9-0.8,7.4c0,51.6,110.9,93.5,247.6,93.5
			c136.7,0,247.6-41.9,247.6-93.5c0-3.2-0.4-6.3-1.2-9.4C2426.2,2984.8,2202.9,2979.9,2202.9,2979.9z"/>
		<path class="st21" d="M2202.9,2906.5c-136.7,0-247.6-41.9-247.6-93.5v73.4c-0.2,2.7,0.1,5.4,0.8,8c4.9,21.4,37.5,78.6,246.8,85.5
			c0,0,223.2,4.9,246.4-87.5c0.5-2,0.9-4,1.2-6V2813C2450.5,2864.7,2339.7,2906.5,2202.9,2906.5z"/>
		<path class="st20" d="M2202.9,2891.1c-209.3-6.9-242-64.1-246.8-85.5c-0.5,2.4-0.8,4.9-0.8,7.4c0,51.6,110.9,93.5,247.6,93.5
			c136.7,0,247.6-41.9,247.6-93.5c0-3.2-0.4-6.3-1.2-9.4C2426.2,2896,2202.9,2891.1,2202.9,2891.1z"/>
		<path class="st21" d="M2202.9,2817.7c-136.7,0-247.6-41.9-247.6-93.5v73.4c-0.2,2.7,0.1,5.4,0.8,8c4.9,21.4,37.5,78.6,246.8,85.5
			c0,0,223.2,4.9,246.4-87.5c0.5-2,0.9-4,1.2-6v-73.4C2450.5,2775.9,2339.7,2817.7,2202.9,2817.7z"/>
		<path class="st20" d="M2202.9,2802.3c-209.3-6.9-242-64.1-246.8-85.5c-0.5,2.4-0.8,4.9-0.8,7.4c0,51.6,110.9,93.5,247.6,93.5
			c136.7,0,247.6-41.9,247.6-93.5c0-3.2-0.4-6.3-1.2-9.4C2426.2,2807.2,2202.9,2802.3,2202.9,2802.3z"/>
		<path class="st21" d="M2202.9,2728.9c-136.7,0-247.6-41.9-247.6-93.5v73.4c-0.2,2.7,0.1,5.4,0.8,8c4.9,21.4,37.5,78.6,246.8,85.5
			c0,0,223.2,4.9,246.4-87.5c0.5-2,0.9-4,1.2-6v-73.4C2450.5,2687,2339.7,2728.9,2202.9,2728.9z"/>
		<path class="st20" d="M2202.9,2728.9c136.7,0,247.6-41.9,247.6-93.5s-110.8-93.5-247.6-93.5c-68.6,0-130.8,10.6-175.6,27.6
			c-44.5,16.9-71.9,40.2-71.9,65.9C1955.3,2687,2066.2,2728.9,2202.9,2728.9z M2202.9,2571.1c94,0,170.2,28.8,170.2,64.3
			s-76.2,64.3-170.2,64.3c-94,0-170.2-28.8-170.2-64.3S2108.9,2571.1,2202.9,2571.1z"/>
		<path class="st21" d="M2202.9,2699.7c94,0,170.2-28.8,170.2-64.3s-76.2-64.3-170.2-64.3c-94,0-170.2,28.8-170.2,64.3
			S2108.9,2699.7,2202.9,2699.7z M2168.3,2612.2c14.4-12.2,59.9-13.4,74-1.7c2.1,1.7,6.2,4.1,3.3,7.2c-4.7,4.8-10.5,6.1-16.6,1.4
			c-4-3.1-9.2-6.6-12.2,0c-2.8,6.2,0.6,10.1,7.8,11.2c6,1,11.8,3.4,17.6,5.6c6,2.3,11.1,5.8,10.5,13.5c-0.1,4-2.2,6.9-4.9,9.6
			c-13.2,13.5-69.9,14.1-83.6,0.8c-1.9-1.9-4-4-1.5-5.9c2.8-2.2,6.9-4.9,9.7-4.2c4.4,1.1,8,5.2,12.4,7.3c5.6,2.7,12.3,5.9,15.3-2.8
			c2.2-6.5,0.6-12.1-7.6-13.9c-6.6-1.4-13.1-3.3-19.4-5.7C2158.8,2629.3,2157.3,2621.5,2168.3,2612.2L2168.3,2612.2z"/>
		<path class="st20" d="M2173.1,2634.5c6.3,2.3,12.8,4.2,19.4,5.7c8.2,1.8,9.9,7.4,7.6,13.9c-3,8.7-9.7,5.5-15.3,2.8
			c-4.3-2.1-7.9-6.2-12.4-7.3c-2.8-0.7-6.9,2-9.7,4.2c-2.5,1.9-0.4,4.1,1.5,5.9c13.6,13.3,70.3,12.8,83.6-0.8
			c2.7-2.7,4.8-5.6,4.9-9.6c0.6-7.7-4.5-11.1-10.5-13.5c-5.7-2.2-11.6-4.6-17.6-5.6c-7.2-1.2-10.6-5-7.8-11.2c3-6.6,8.2-3.1,12.2,0
			c6.1,4.8,11.9,3.4,16.6-1.4c3-3.1-1.2-5.4-3.3-7.2c-14.1-11.6-59.6-10.5-74,1.7C2157.3,2621.5,2158.8,2629.3,2173.1,2634.5z"/>
		<path class="st21" d="M2925.6,3304.1c-136.7,0-247.6-41.9-247.6-93.5v73.4c0,0-10.4,85,247.6,93.5c0,0,232.9,5.1,247.6-93.5v-73.4
			C3173.2,3262.3,3062.3,3304.1,2925.6,3304.1z"/>
		<path class="st20" d="M2925.6,3289c-209.6-6.9-242-64.3-246.8-85.6c-0.5,2.4-0.7,4.8-0.7,7.3c0,51.6,110.8,93.5,247.6,93.5
			c136.7,0,247.6-41.9,247.6-93.5c0-3.1-0.4-6.2-1.2-9.3C3149,3293.9,2925.6,3289,2925.6,3289z"/>
		<path class="st21" d="M2925.6,3215.5c-136.7,0-247.6-41.9-247.6-93.5v73.4c-0.2,2.7,0.1,5.3,0.7,7.9
			c4.8,21.3,37.2,78.7,246.8,85.6c0,0,223.4,4.9,246.4-87.6c0.5-1.9,0.9-3.9,1.2-5.9V3122
			C3173.2,3173.7,3062.3,3215.5,2925.6,3215.5z"/>
		<path class="st20" d="M2925.6,3198c-206-6.8-240.9-62.3-246.6-84.4c-0.7,2.8-1,5.6-1,8.5c0,51.6,110.8,93.5,247.6,93.5
			c136.7,0,247.6-41.9,247.6-93.5c0-3.5-0.5-7-1.5-10.4C3147,3202.9,2925.6,3198,2925.6,3198z"/>
		<path class="st21" d="M2925.6,3124.6c-136.7,0-247.6-41.9-247.6-93.5v73.4c-0.2,3.1,0.2,6.1,1,9c5.7,22.1,40.5,77.6,246.6,84.4
			c0,0,221.5,4.9,246.1-86.4c0.6-2.3,1.2-4.7,1.5-7.1v-73.4C3173.2,3082.7,3062.3,3124.6,2925.6,3124.6z"/>
		<path class="st20" d="M2925.6,3109.2c-209.3-6.9-242-64.1-246.8-85.5c-0.5,2.4-0.8,4.9-0.8,7.4c0,51.6,110.8,93.5,247.6,93.5
			c136.7,0,247.6-41.9,247.6-93.5c0-3.2-0.4-6.3-1.2-9.4C3148.8,3114.1,2925.6,3109.2,2925.6,3109.2z"/>
		<path class="st21" d="M2925.6,3035.8c-136.7,0-247.6-41.9-247.6-93.5v73.4c-0.2,2.7,0.1,5.4,0.8,8c4.9,21.4,37.5,78.6,246.8,85.5
			c0,0,223.2,4.9,246.4-87.5c0.5-2,0.9-4,1.2-6v-73.4C3173.2,2993.9,3062.3,3035.8,2925.6,3035.8z"/>
		<path class="st20" d="M2925.6,3020.4c-209.3-6.9-242-64.1-246.8-85.5c-0.5,2.4-0.8,4.9-0.8,7.4c0,51.6,110.8,93.5,247.6,93.5
			c136.7,0,247.6-41.9,247.6-93.5c0-3.2-0.4-6.3-1.2-9.4C3148.8,3025.3,2925.6,3020.4,2925.6,3020.4z"/>
		<path class="st21" d="M2925.6,2947c-136.7,0-247.6-41.9-247.6-93.5v73.4c-0.2,2.7,0.1,5.4,0.8,8c4.9,21.4,37.5,78.6,246.8,85.5
			c0,0,223.2,4.9,246.4-87.5c0.5-2,0.9-4,1.2-6v-73.4C3173.2,2905.1,3062.3,2947,2925.6,2947z"/>
		<path class="st20" d="M2925.6,2931.6c-209.3-6.9-242-64.1-246.8-85.5c-0.5,2.4-0.8,4.9-0.8,7.4c0,51.6,110.8,93.5,247.6,93.5
			c136.7,0,247.6-41.9,247.6-93.5c0-3.2-0.4-6.3-1.2-9.4C3148.8,2936.6,2925.6,2931.6,2925.6,2931.6z"/>
		<path class="st21" d="M2925.6,2858.2c-136.7,0-247.6-41.9-247.6-93.5v73.4c-0.2,2.7,0.1,5.4,0.8,8c4.9,21.4,37.5,78.6,246.8,85.5
			c0,0,223.2,4.9,246.4-87.5c0.5-2,0.9-4,1.2-6v-73.4C3173.2,2816.3,3062.3,2858.2,2925.6,2858.2z"/>
		<path class="st20" d="M2925.6,2842.8c-209.3-6.9-242-64.1-246.8-85.5c-0.5,2.4-0.8,4.9-0.8,7.4c0,51.6,110.8,93.5,247.6,93.5
			c136.7,0,247.6-41.9,247.6-93.5c0-3.2-0.4-6.3-1.2-9.4C3148.8,2847.7,2925.6,2842.8,2925.6,2842.8z"/>
		<path class="st21" d="M2925.6,2769.4c-136.7,0-247.6-41.9-247.6-93.5v73.4c-0.2,2.7,0.1,5.4,0.8,8c4.9,21.4,37.5,78.6,246.8,85.5
			c0,0,223.2,4.9,246.4-87.5c0.5-2,0.9-4,1.2-6v-73.4C3173.2,2727.6,3062.3,2769.4,2925.6,2769.4z"/>
		<path class="st20" d="M2925.6,2769.4c136.7,0,247.6-41.9,247.6-93.5c0-51.6-110.9-93.5-247.6-93.5c-68.6,0-130.8,10.6-175.6,27.6
			c-44.5,16.9-71.9,40.2-71.9,65.9C2678,2727.6,2788.9,2769.4,2925.6,2769.4z M2925.6,2611.6c94,0,170.2,28.8,170.2,64.3
			c0,35.5-76.2,64.3-170.2,64.3s-170.2-28.8-170.2-64.3C2755.4,2640.4,2831.6,2611.6,2925.6,2611.6z"/>
		<path class="st21" d="M2925.6,2740.2c94,0,170.2-28.8,170.2-64.3c0-35.5-76.2-64.3-170.2-64.3s-170.2,28.8-170.2,64.3
			C2755.4,2711.4,2831.6,2740.2,2925.6,2740.2z"/>
		<path class="st21" d="M3686.4,3323.2c-136.7,0-247.6-41.9-247.6-93.5v73.4c-0.2,2.7,0.1,5.4,0.8,8c4.9,21.4,37.5,78.6,246.8,85.5
			c0,0,223.3,4.9,246.4-87.5c0.5-2,0.9-4,1.2-6v-73.4C3933.9,3281.4,3823.1,3323.2,3686.4,3323.2z"/>
		<path class="st20" d="M3686.4,3323.2c136.7,0,247.6-41.9,247.6-93.5c0-51.6-110.9-93.5-247.6-93.5c-68.6,0-130.8,10.6-175.6,27.6
			c-44.5,16.9-71.9,40.2-71.9,65.9C3438.8,3281.4,3549.6,3323.2,3686.4,3323.2z M3686.4,3165.5c94,0,170.2,28.8,170.2,64.3
			s-76.2,64.3-170.2,64.3s-170.2-28.8-170.2-64.3C3516.2,3194.2,3592.4,3165.5,3686.4,3165.5z"/>
		<path class="st21" d="M3686.4,3294c94,0,170.2-28.8,170.2-64.3c0-35.5-76.2-64.3-170.2-64.3s-170.2,28.8-170.2,64.3
			S3592.4,3294,3686.4,3294z M3651.7,3206.5c14.4-12.2,59.9-13.4,74-1.7c2.1,1.7,6.2,4.1,3.3,7.2c-4.7,4.8-10.5,6.1-16.6,1.4
			c-4-3.1-9.2-6.6-12.2,0c-2.8,6.2,0.6,10.1,7.8,11.2c6,1,11.8,3.4,17.6,5.6c6,2.3,11.1,5.8,10.5,13.5c0,4-2.2,6.9-4.9,9.6
			c-13.2,13.5-69.9,14.1-83.6,0.8c-1.9-1.8-3.9-4-1.5-5.9c2.8-2.2,6.9-4.9,9.7-4.2c4.4,1.1,8,5.2,12.3,7.3
			c5.6,2.7,12.3,5.9,15.3-2.8c2.2-6.5,0.6-12.1-7.6-13.9c-6.6-1.4-13.1-3.3-19.5-5.7C3642.3,3223.7,3640.7,3215.8,3651.7,3206.5
			L3651.7,3206.5z"/>
		<path class="st20" d="M3656.5,3228.9c6.3,2.3,12.8,4.2,19.5,5.7c8.2,1.8,9.9,7.4,7.6,13.9c-3,8.7-9.7,5.5-15.3,2.8
			c-4.3-2.1-7.9-6.2-12.3-7.3c-2.8-0.7-6.9,2-9.7,4.2c-2.5,1.9-0.4,4.1,1.5,5.9c13.6,13.3,70.3,12.8,83.6-0.8
			c2.7-2.7,4.8-5.6,4.9-9.6c0.6-7.7-4.5-11.1-10.5-13.5c-5.7-2.2-11.6-4.6-17.6-5.6c-7.2-1.2-10.6-5-7.8-11.2c3-6.6,8.2-3.1,12.2,0
			c6.1,4.8,11.9,3.4,16.6-1.4c3-3.1-1.2-5.4-3.3-7.2c-14.1-11.6-59.6-10.5-74,1.7C3640.7,3215.8,3642.3,3223.7,3656.5,3228.9z"/>
		<path class="st21" d="M3657.7,3222.2c-136.7,0-247.6-41.9-247.6-93.5v73.4c-0.2,2.7,0.1,5.4,0.8,8c4.9,21.4,37.5,78.6,246.8,85.5
			c0,0,223.2,4.9,246.4-87.5c0.5-2,0.9-4,1.2-6v-73.4C3905.3,3180.4,3794.4,3222.2,3657.7,3222.2z"/>
		<path class="st20" d="M3657.7,3222.2c136.7,0,247.6-41.9,247.6-93.5c0-51.6-110.8-93.5-247.6-93.5c-68.6,0-130.8,10.6-175.6,27.6
			c-44.5,16.9-71.9,40.2-71.9,65.9C3410.1,3180.4,3521,3222.2,3657.7,3222.2z M3657.7,3064.5c94,0,170.2,28.8,170.2,64.3
			c0,35.5-76.2,64.3-170.2,64.3s-170.2-28.8-170.2-64.3C3487.5,3093.2,3563.7,3064.4,3657.7,3064.5L3657.7,3064.5z"/>
		<path class="st21" d="M3657.7,3193c94,0,170.2-28.8,170.2-64.3c0-35.5-76.2-64.3-170.2-64.3s-170.2,28.8-170.2,64.3
			C3487.5,3164.2,3563.7,3193,3657.7,3193z"/>
		<path class="st16" d="M2380.2,3140.8c0,0,32.7,47,32,123.7s71.4-52.5,71.4-52.5l-36-129.8L2380.2,3140.8z"/>
		<polygon class="st17" points="2386.1,3148.6 2395.8,3172.3 2469.8,3162.1 2462.8,3131.4 		"/>
		<path class="st16" d="M2678.9,3167.1c0,0,32.7,47,32,123.7c-0.7,76.7,71.4-52.5,71.4-52.5l-35.9-129.8L2678.9,3167.1z"/>
		<polygon class="st17" points="2684.8,3174.9 2694.5,3198.6 2768.4,3188.4 2761.5,3157.7 		"/>
		<path class="st22" d="M2412.3,2499.5c-28.2,2-56.5,3.5-84.9,3.8c-73.8,0.7-207,14.6-190.1,107.6
			c25.3,139.2,228.6,553.2,228.6,553.2l102.8-14.2c0,0-41.1-325.7-89.4-446c0,0,127.3,0.2,158.1-27.3
			c30.8-27.4,14.3-122.7,14.3-122.7S2521.4,2491.7,2412.3,2499.5z"/>
		<path class="st23" d="M2478.4,2654.3c0,0-84.7,17.7-125-7.7c0,0,17.2,33.1,26,57.2c0,0,99.5-2.3,124.9-12.4
			C2529.7,2681.3,2478.4,2654.3,2478.4,2654.3z"/>
		<path class="st14" d="M2726.2,2513.8c-28.2,2-56.5,3.5-84.9,3.8c-73.8,0.7-207,14.6-190.1,107.6
			c25.3,139.2,228.6,553.2,228.6,553.2l102.8-14.2c0,0-41.1-325.7-89.4-446c0,0,138.1-19.5,172-42.9
			c120.2-83.2,94.1-223.2,94.1-223.2S2835.2,2506,2726.2,2513.8z"/>
		<path class="st24" d="M2409.2,3224.6c0,0,39.3,18.1,73.8-16.1c0,0,26.4-16.9,33,158.2c0,0-227.5,41.6-293.2,40.4
			c0,0-33.4-66.1,44.5-93.8C2345.2,3285.6,2409.2,3224.6,2409.2,3224.6z"/>
		<path class="st25" d="M2217.2,3361.3c0,0,291.6-51.9,292.5-81.5l2.8,61.7l-296.4,44C2216.2,3385.4,2215.2,3368.2,2217.2,3361.3z"
			/>
		<path class="st26" d="M2222.9,3407c0,0-8.1-17.5-7.1-30.5l298.4-47.9l1.6,42.6C2515.8,3371.2,2239.9,3412,2222.9,3407z"/>
		<path class="st24" d="M2703.7,3247.3c0,0,39.3,18.1,73.9-16.1c0,0,26.4-16.9,33,158.2c0,0-227.5,41.6-293.2,40.4
			c0,0-33.4-66.1,44.5-93.8C2639.8,3308.3,2703.7,3247.3,2703.7,3247.3z"/>
		<path class="st25" d="M2512.1,3385c0,0,291.6-51.9,292.5-81.5l2.9,61.7l-296.4,44C2511,3409.2,2510,3392,2512.1,3385z"/>
		<path class="st26" d="M2517.4,3429.7c0,0-8.1-17.5-7.1-30.4l298.4-47.9l1.6,42.6C2810.3,3394,2534.5,3434.8,2517.4,3429.7z"/>
		<path class="st27" d="M2693.2,2718.2c0,0-11.8-38.1-20.2-48c0,0,253.4-57.4,279.9-118.2c0,0-32,102.6-84.8,124.4
			C2849,2684.2,2824.2,2715.1,2693.2,2718.2z"/>
		<path class="st28" d="M2579.1,2521.8c0,0-170,23.1-23.9,387.6c0,0-113.1-245.9-105.3-304.9
			C2457.7,2545.5,2517,2525.9,2579.1,2521.8z"/>
		<path class="st28" d="M2267.1,2506.9c0,0-151.3,28.5-75.2,270c0,0-60.4-147.9-56-184.6C2140.3,2555.6,2150.5,2521.1,2267.1,2506.9
			z"/>
		<path class="st29" d="M2386.8,2724.1c0,0,70.7,384.6,7.3,436.1l74.7-10.3C2468.8,3149.9,2423,2808.6,2386.8,2724.1z"/>
		<path class="st29" d="M2700.3,2738.5c0,0,70.7,384.6,7.3,436.1l74.7-10.3C2782.3,3164.3,2736.6,2823,2700.3,2738.5z"/>
		<path class="st30" d="M2961,2504.2c0,0-275.6,68.2-342.8,66.9c-67.2-1.3-148.1-9.4-148.1-9.4s-35.7,25.3-12.6,95.9
			c0,0-118.1,24.8-175-79.1c-32.9-60-123.9-36.6-123.9-36.6s46.5-33.5,133.5-43.1C2379.1,2489.2,2985.7,2407.8,2961,2504.2z"/>
		<polygon class="st31" points="2623.2,2444.1 2623.2,2444.1 2653,2509.3 		"/>
		<polygon class="st32" points="2476.3,2248.2 2525.9,2252.5 2532.4,2141.8 2480.5,2136.8 2466.9,2247.4 2476.3,2248.2 		"/>
		<polygon class="st17" points="2536.2,2253.3 2546.5,2276 2536.2,2142.2 2532.4,2141.8 2525.9,2252.5 		"/>
		<path class="st33" d="M2882.9,1828.6l-12.7-6.1l0,0L2882.9,1828.6z"/>
		<path class="st33" d="M3004.9,1889.4c-25.9-14.4-87.6-44.3-121.9-60.8c15.4,29.2-105.9,148.5-105.9,148.5s-1.1-5.3-3.3-13.5
			c-7.8,8.4-12.8,13.5-12.8,13.5c-3-39.1-37-81.2-52.5-98.5c-39.2,2-75.2,48.9-75.2,48.9v-17.8c-2.8,3.5-5.1,7.3-6.9,11.4
			c0,0-0.8-53.4,6.1-86.2c-31.3,13.4-100.9,44.2-120.5,60.8c-25.4,21.6-41.9,240.1-41.9,240.1l10.4,1l51.9,5l3.8,0.4l-20.1-1.9
			l12.2-146.1l7.9,148l10.3,133.8l76.7,168.1l0,0l-4-8.7l0,0l-1-2.2l1,2.2l48.3,2.8c7.4-11.6,13.8-23.4,15.3-31
			c0.9-5,7.2-8.7,16.1-11.4c-15.7-9.5-20.6-29.7-4.9-17.5c14,11,31,11.9,39.4,11.6c1.8-0.2,3.5-0.3,5.3-0.4l0,0
			c20.5-1.5,38.8-1.3,38.8-1.3s93.7-74.2,144.2-97.2l-8.2,2.3l2.9-81.7h-29.1c0,0,0-96.7,11-197.2l-2.9,193.4l28.1-1.9h111.8
			C3035.3,2205.8,3045.4,1911.8,3004.9,1889.4z"/>
		<path class="st33" d="M2974.9,2262.2l26,171.4c3.6,23.6-12.3,45.8-35.8,50l-211.8,38.1l-64.9-287.8L2974.9,2262.2z"/>
		<path class="st33" d="M2700.8,1870.3c0,0-0.9,0.2-2.4,0.7c1,0,2,0,3-0.1L2700.8,1870.3z"/>
		<path class="st33" d="M2700,1868.2c0.2,0.7,0.5,1.5,0.7,2.2c0.8-0.2,1.7-0.6,2.5-0.9L2700,1868.2z"/>
		<path class="st34" d="M2773.7,1963.6c2.2,8.1,3.3,13.5,3.3,13.5s121.3-119.3,105.9-148.5l0,0h-0.1l-12.7-6.1
			C2859.4,1867.4,2800.2,1935,2773.7,1963.6z"/>
		<path class="st34" d="M2698.4,1871c-9.7,2.8-46.8,15-65.1,38.7v17.8c0,0,36-46.9,75.2-48.9c-3.5-3.9-6.1-6.6-7.1-7.7
			C2700.4,1871,2699.4,1871,2698.4,1871z"/>
		<polygon class="st35" points="2619.3,2435.3 2619.3,2435.3 2618.2,2433.1 		"/>
		<path class="st35" d="M2764,2450.5c-5.6,1.5-11.4,2.4-17.2,2.6c-2.8,0.2-5.6,0.3-8.7,0.4l-6.5-1.3c0,0-27,33.3-64.6,34.3
			l-15.1-5.8l0,0l-11.5-4.4c0,0,15-19,27.3-38.2l-48.3-2.8l4,8.7l29.8,65.3l305.5-54.6l-178.4-10.2
			C2775,2447.1,2769.6,2449.1,2764,2450.5z"/>
		<path class="st16" d="M2923.6,2205.7l-1.9,85.1c-50.5,22.9-144.2,97.2-144.2,97.2s-18.3-0.2-38.8,1.3c0,0-0.5,12.7-26.2,10.8
			c-4.8-0.4-9.5-1.9-13.6-4.5c-8.9,2.7-15.1,6.4-16.1,11.4c-1.4,7.7-7.8,19.4-15.3,31c-12.3,19.2-27.3,38.2-27.3,38.2l11.5,4.4
			c0,0,1.6-1.5,4-4c11.8-13.2,36.2-48.9,36.2-48.9c-6.5,17.5-27.4,39.9-36.2,48.9c-1.2,1.5-2.6,2.8-4,4l15.1,5.8
			c0,0,40.3-22.1,58.9-44.9s26.9,8.6,74.4-21.9c47.5-30.5,209.6-76.9,215.8-105.8l4.4-51.5l-83-56.5L2923.6,2205.7z M2660.5,2484
			c0,0,32.1-23.1,40.7-33.3c0.8-1.1,1.5-2.4,2.1-3.6c0,0.8-0.8,2.1-2.1,3.6C2697.1,2456.6,2686.4,2469.2,2660.5,2484z"/>
		<path class="st16" d="M3015.1,2326.4l0.1-0.8c-1.1,3.6-2.9,7-5.2,10C3014.7,2329.9,3015.1,2326.4,3015.1,2326.4z"/>
		<path class="st16" d="M2933.8,2377.2c30.2-10.2,49.1-20.1,61.1-28.3c-8.5,4.9-49,21.6-91.2,39
			C2913.3,2384.3,2923.3,2380.8,2933.8,2377.2z"/>
		<path class="st16" d="M2797.8,2433.1c-4.5,3.1-9.1,6.6-14.8,9.8C2788.3,2440.2,2793.3,2436.9,2797.8,2433.1z"/>
		<path class="st16" d="M2813,2425.7c-7.9,3.5-13.4,6.1-15.2,7.4C2797.8,2433.1,2803.3,2430.3,2813,2425.7z"/>
		<path class="st16" d="M2733.4,2389.7c3.3-0.1,5.3-0.4,5.3-0.4C2737,2389.4,2735.2,2389.6,2733.4,2389.7z"/>
		<path class="st16" d="M2746.8,2453.1c5.8-0.2,11.6-1.1,17.2-2.6C2758.3,2451.8,2752.6,2452.7,2746.8,2453.1z"/>
		<polygon class="st36" points="2653,2553.8 2958.5,2491.5 2958.5,2454.7 2653,2509.3 		"/>
		<path class="st26" d="M2703.2,1869.5c-0.8,0.2-1.7,0.6-2.5,0.9l0.6,0.6c1,1,3.6,3.8,7.1,7.7c15.5,17.3,49.5,59.3,52.5,98.5
			c0,0,5-5,12.8-13.5c26.5-28.6,85.7-96.2,96.5-141.1l0,0c0.5-2.2,1-4.5,1.3-6.7c0,0-51.7-16.6-61-26.9l-6.4,8.4
			C2804.1,1797.2,2749.8,1854.9,2703.2,1869.5z"/>
		<path class="st26" d="M2626.4,1921.2c1.8-4.1,4.1-7.9,6.9-11.4c18.4-23.7,55.4-35.9,65.1-38.7c1.5-0.4,2.4-0.7,2.4-0.7
			c-0.3-0.7-0.5-1.4-0.7-2.2c-6.4-18-4.6-47-5.6-62.3c-0.2-3.6,0.3-7.1,1.6-10.5l-56.9,20.3c-2.7,4.5-4.9,11.2-6.6,19.2
			C2625.5,1867.8,2626.4,1921.2,2626.4,1921.2z"/>
		<polygon class="st24" points="2212.2,2464.9 2216.1,2509.3 2653,2553.8 2653,2509.3 		"/>
		<polygon class="st37" points="2623.2,2444.1 2546.5,2276 2536.2,2253.3 2525.9,2252.5 2476.3,2248.2 2280,2471.2 2212.2,2464.9 
			2653,2509.3 		"/>
		<polygon class="st34" points="2528.2,1994.2 2516,2140.3 2536.2,2142.2 		"/>
		<path class="st34" d="M2895.5,2207.6l2.9-193.4c-10.9,100.5-10.9,197.2-10.9,197.2h29.1l-2.9,81.7l8.2-2.3l1.9-85.1L2895.5,2207.6
			z"/>
		<polygon class="st17" points="3020.6,2262.2 3020.6,2262.2 3025.4,2205.7 2937.6,2205.7 		"/>
		<path class="st17" d="M2800.4,2419.6c-47.5,30.5-55.9-1-74.4,21.9s-58.9,44.9-58.9,44.9c37.6-1,64.6-34.3,64.6-34.3l6.5,1.3
			c3.1,0,5.9-0.2,8.7-0.4c5.8-0.4,11.6-1.2,17.2-2.6c5.6-1.4,11-3.4,16.1-6c1-0.5,2-1,2.9-1.6c5.7-3.2,10.3-6.8,14.8-9.8
			c1.9-1.3,7.3-3.9,15.2-7.4c20-8.8,55.8-23.5,90.6-37.8c42.2-17.3,82.7-34.1,91.2-39l0.2-0.1c5.8-3.3,10.9-7.8,15-13.2
			c2.3-3,4.1-6.4,5.2-10l0,0l1-11.8l0,0C3009.9,2342.7,2847.9,2389.1,2800.4,2419.6z"/>
		<path class="st33" d="M2738.7,2389.3L2738.7,2389.3c0,0-2.1,0.3-5.3,0.4c-8.4,0.3-25.4-0.6-39.4-11.6c-15.6-12.2-10.8,8,4.9,17.5
			L2738.7,2389.3z"/>
		<path class="st17" d="M2701.1,2450.7c1.3-1.5,2.1-2.8,2.1-3.6C2702.7,2448.3,2702,2449.6,2701.1,2450.7z"/>
		<path class="st17" d="M2660.5,2484c25.9-14.7,36.7-27.3,40.7-33.3C2692.5,2460.9,2660.5,2484,2660.5,2484z"/>
		<path class="st17" d="M2651.9,2480.7c1.5-1.2,2.8-2.6,4-4C2653.4,2479.2,2651.9,2480.7,2651.9,2480.7z"/>
		<path class="st17" d="M2692.1,2427.7c0,0-24.4,35.7-36.2,48.9C2664.7,2467.6,2685.6,2445.2,2692.1,2427.7z"/>
		<polygon class="st38" points="2476.3,2248.2 2476.3,2248.2 2466.9,2247.4 2049,2211.4 2212.2,2464.9 2280,2471.2 		"/>
		<path class="st17" d="M2680.9,2413.5c0,0-32.9,8.7-35.6,15.9s8.2,29.7,8.2,29.7l13.7-20.3c0.4-0.7,8.8-14.6,9.1-15.4
			L2680.9,2413.5z"/>
		<path class="st16" d="M2698.9,2395.6c0,0,31.2-5.4,39.8-6.3c8.6-0.9,0,15.4,0,15.4l-29.8,8L2698.9,2395.6z"/>
		<path class="st18" d="M2598.7,1438.7c0,0-53.6-55.5-55.5,102.5c0,0-72.3-149.2,30.2-198c71.4-34.1,59.5,37.3,59.5,37.3
			L2598.7,1438.7z"/>
		<path class="st15" d="M2633,1351.8c0,0-3.3-22.1-38.3-15.1c-25.5,5.1,4,102,4,102S2642.4,1368.4,2633,1351.8z"/>
		<path class="st18" d="M2598.7,1438.7c0,0,42.1-87.6,76.9-15.8c34.9,71.8,42.5,100.8,108.4,100.8s50.4,74.7,50.4,74.7
			s76.5-163.7-6.3-241.9c-27.9-26.3-101.4-50.9-152.4-32.7C2675.6,1323.7,2594.6,1354.3,2598.7,1438.7z"/>
		<path class="st15" d="M2596.1,1429.7c0,0-2.9-11.3-11.8-18.4c-8.8-7.1-4-63.7,4-69.9s10.2,49.3,10.2,49.3L2596.1,1429.7z"/>
		<path class="st15" d="M2777.9,1523.6c0,0,92.6,1.1,88.7-61.5c0,0,1.8,75.3-32.2,136.2C2834.4,1598.3,2841.9,1520.9,2777.9,1523.6z
			"/>
		<path class="st18" d="M2542.2,1085.4v35.9h54v-36.7c38.7-15.5,57.5-59.4,42-98c-15.5-38.7-59.4-57.5-98-42
			c-38.7,15.5-57.5,59.4-42,98C2506.1,1062.4,2522.1,1078,2542.2,1085.4z M2604,1055c34.4-74.2-35.8-99.7-35.8-99.7
			C2660.5,968.4,2603.9,1055,2604,1055L2604,1055z"/>
		<polygon class="st21" points="2531.4,1121.3 2531.4,1152.2 2603.9,1152.2 2603.9,1121.3 2596.2,1121.3 2542.2,1121.3 		"/>
		<polygon class="st39" points="2531.4,1179.4 2542.2,1179.4 2542.2,1177.9 2592,1177.9 2592,1179.4 2603.9,1179.4 2603.9,1152.2 
			2531.4,1152.2 		"/>
		<polygon class="st40" points="2542.2,1177.9 2542.2,1179.4 2542.2,1194.6 2592,1194.6 2592,1179.4 2592,1177.9 		"/>
		<path class="st26" d="M2603.9,1055c0,0,56.5-86.6-35.8-99.7C2568.1,955.3,2638.4,980.8,2603.9,1055z"/>
		
			<rect x="2657.7" y="953.6" transform="matrix(0.8353 -0.5498 0.5498 0.8353 -83.1061 1637.921)" class="st21" width="69.6" height="8.3"/>
		
			<rect x="2693.8" y="982.3" transform="matrix(0.1836 -0.983 0.983 0.1836 1202.7476 3482.376)" class="st21" width="8.3" height="69.6"/>
		
			<rect x="2440.9" y="916.5" transform="matrix(0.5385 -0.8426 0.8426 0.5385 326.8654 2499.3013)" class="st21" width="8.3" height="69.6"/>
		
			<rect x="2407.5" y="1014.6" transform="matrix(0.9589 -0.2837 0.2837 0.9589 -188.649 734.6682)" class="st21" width="69.6" height="8.3"/>
		<path class="st21" d="M3300.6,1034.8h-528.2c-4.9-0.1-9.1,3.7-9.2,8.7v151.2c0.1,4.9,4.3,8.8,9.2,8.7h143.8
			c0.4,17.9-11,37.1-11,37.1c21.3-11.3,30.8-25.4,34.8-37.1h360.6c4.9,0.1,9.1-3.7,9.2-8.7v-151.2
			C3309.7,1038.5,3305.5,1034.7,3300.6,1034.8z"/>
		<path class="st41" d="M3382.3,1291.8h-417.4c-3.9-0.1-7.2,3-7.3,6.9v119.4c0.1,3.9,3.4,7,7.3,6.9c0,0,0,0,0,0h113.6
			c0.3,14.1-8.7,29.3-8.7,29.3c16.9-8.9,24.3-20.1,27.5-29.3h285c3.9,0.1,7.2-3,7.3-6.9c0,0,0,0,0,0v-119.4
			C3389.5,1294.8,3386.2,1291.7,3382.3,1291.8z"/>
		<rect x="2820.5" y="1078.9" class="st10" width="410.4" height="14.2"/>
		<rect x="2820.5" y="1107.5" class="st10" width="410.4" height="14.2"/>
		<rect x="2820.5" y="1136.1" class="st10" width="300.8" height="14.2"/>
		<path class="st42" d="M2037,669.7h-528.2c-4.9-0.1-9.1,3.7-9.2,8.7v151.2c0.1,4.9,4.3,8.8,9.2,8.7c0,0,0,0,0,0h143.8
			c0.4,17.9-11,37.1-11,37.1c21.3-11.2,30.8-25.4,34.8-37.1H2037c4.9,0.1,9.1-3.7,9.2-8.7V678.4C2046.1,673.4,2042,669.6,2037,669.7
			z"/>
		<rect x="1557" y="713.8" class="st26" width="410.4" height="14.2"/>
		<rect x="1557" y="742.4" class="st26" width="410.4" height="14.2"/>
		<rect x="1557" y="771" class="st26" width="300.8" height="14.2"/>
		<polygon class="st43" points="1143.7,3041.1 1143.7,3204 1059.8,3211.3 1044.2,3007 		"/>
		<polygon class="st43" points="774.1,3045.9 710.8,3217.4 636.7,3190.6 670.7,3007 		"/>
		<path class="st44" d="M838.9,1853.1c0,0-11.9,138.5,53.8,443.4s104.4,755.6,104.4,755.6s60.2,37.5,186.7,14l6.6-469.1
			l-160.2-738.2L838.9,1853.1z"/>
		<path class="st25" d="M736.6,1847.2c0,0-38.9,115.3-43.3,427.2c-4.3,311.9-66.4,759.7-66.4,759.7s49,50.1,174.5,55.6L910.6,2634
			l44-777.5L736.6,1847.2z"/>
		<polygon class="st25" points="1042.2,1804.4 1036.5,1877.6 731.6,1865.1 741.2,1732.5 		"/>
		<line class="st31" x1="485.9" y1="2578.3" x2="519.9" y2="2578.3"/>
		<line class="st31" x1="1461.1" y1="2510.9" x2="1493.9" y2="2510.9"/>
		<path class="st24" d="M650.2,2449.3v62.4c0,21.8,17.7,39.5,39.5,39.5h644.2c21.8,0,39.5-17.7,39.5-39.5v-62.4H650.2z"/>
		<path class="st24" d="M926.4,2036.6h194.1c12.1,0,22,9.9,22,22v82.9c0,12.1-9.9,22-22,22h-34.3c12.1,0,22-9.9,22-22v-43.8
			c0-12.1-9.9-22-22-22H962c-12.1,0-22,9.9-22,22v43.8c0,12.1,9.9,22,22,22h-35.6c-12.1,0-22-9.9-22-22v-82.9
			C904.4,2046.5,914.3,2036.7,926.4,2036.6z"/>
		<path class="st43" d="M650.2,2159.4v290h723.1v-290c0-21.8-17.7-39.5-39.5-39.5l0,0H689.7C667.9,2119.9,650.2,2137.6,650.2,2159.4
			z"/>
		<path class="st16" d="M1340.6,864.7c6.4,14.6,25.3,62.5,17.1,104.7c-0.1,0.7-0.3,1.4-0.6,2.1c-2.5,6.5-16.2,47.7,14.4,88.3
			c4.1,5.3,3.2,13-2.2,17.1c-1.3,1-2.7,1.7-4.2,2.1c-7.7,2.1-20.5,2.4-41.7-1.7c-5.6-1.1-11.2,1.8-13.5,7c-2.8,6.2-7,15.5-12.5,26.8
			c-25.4,52-70.4,65.2-144.3,29.3c0,0-33.2-20.1-61.5,98.1c-0.1,0.4-0.2,0.7-0.2,1.1c-0.7,4.8-5,37.9,5,50.3
			c10.5,13-84.1-0.2-114.5-90.9c-1.6-4.9,0.1-10.2,4.2-13.4c21.6-16.6,86.7-75.4,70.6-169.8c-17.1-100.6,116.4-190.1,145.5-208.3
			c3.4-2.1,7.6-2.4,11.2-0.9l120.8,51.8C1337.1,859.7,1339.4,861.9,1340.6,864.7z"/>
		<path class="st17" d="M1127.5,963.6c0,0-28.1,39.6-25.2,75.6c2.9,36-94.4,144.8-94.4,144.8l-4.3-16.6c0,0,57.7-37.5,55.6-121.8
			S1127.5,963.6,1127.5,963.6z"/>
		<path class="st45" d="M1336,885.4c0,0,105.7-28.4,26.7-82.5c-79-54.2-121.8-19.3-121.8-19.3S1292.6,876.4,1336,885.4z"/>
		<path class="st24" d="M1306.1,884.2c0,0,121.3-73.2-14.9-139.3s-207.9,26.1-225.5,84.6C1047.9,888,1200,793.3,1306.1,884.2z"/>
		<path class="st46" d="M1248.4,865c0,0,130.9-113.4-89.3-104.8s-116.2,300.5-116.2,300.5l59-168.3L1248.4,865z"/>
		<path class="st47" d="M1223.3,883.9c0,0,40.9-62.6-71.1-40.3c-112,22.3-139.4,187.1-96,232.7c0,0,45.3-119.3,92.7-120.8
			c11-0.3,20,8.9,20.1,19.9c0.1,15.8,2.1,42,12.7,53.5C1181.8,1028.9,1181.5,946.3,1223.3,883.9z"/>
		<path class="st47" d="M1110.1,979.9c0,0-22.9,27.7-34.9,70.5c-12,42.7-42.1,52.5-42.1,52.5s13.6-24.7,5.8-66.2
			C1031,995.1,1110.1,979.9,1110.1,979.9z"/>
		<path class="st48" d="M996,1172.3c0,0-50.9,5.8-94.1,83.5S792.1,1628,744.2,1702.1c-47.9,74.1,60.5,58.7,253,128.5
			c0,0,91.9,50.7,104.7-11.9s-14.1-469.3,16.7-565.8l-13.4-23.8C1105.3,1229,1071.1,1255.5,996,1172.3z"/>
		<path class="st49" d="M917,1456.9l-33.5,339l68.5,18.1C951.9,1813.9,967.3,1416.4,917,1456.9z"/>
		<path class="st49" d="M969.1,1182.5c0,0,26.1,71.5,101.9,118l17.8-59.3l16.6-12.2c0,0-9.6,36.5,2.9,81.4l7.4-73.8l-11.8-14
			l-25.2,13l-99.4-58.1L969.1,1182.5z"/>
		<path class="st16" d="M1059.1,1992.1c0,0,25.8,29.2,19.8,39.3c0,0-34.4-0.8-36.1,29.2s25.6,22.7,25.6,22.7s-2.3,28-53.9,21.9
			c-51.6-6.1-55.2-21.9-55.2-21.9s-21.5-27.6-10.9-81.7C958.9,1947.5,1059.1,1992.1,1059.1,1992.1z"/>
		<path class="st17" d="M1051.3,1974.8c0,0,9.7,47.3-48,49.1s-57.9-3-57.9-3l8.6-56.4L1051.3,1974.8z"/>
		<path class="st24" d="M732.2,3175.1c0,0-46.2,21.3-86.9-19c0,0-31-19.9-38.8,186.2c0,0,267.8,49,345.1,47.5
			c0,0,39.3-77.8-52.3-110.3S732.2,3175.1,732.2,3175.1z"/>
		<path class="st25" d="M954,3364.6c0,0-343.2-61.1-344.3-95.9l-3.4,72.6l348.8,51.8C955.2,3393,956.4,3372.7,954,3364.6z"/>
		<path class="st24" d="M1148.1,3150.7c0,0-41.3,27.3-86.5-5.4c0,0-32.8-14.6-9.8,184.9c0,0,264.9,7.4,339-5.5
			c0,0,26.3-80.7-66.7-98.4C1231.2,3208.6,1148.1,3150.7,1148.1,3150.7z"/>
		<path class="st25" d="M1389.7,3300.1c0,0-339.3-7.9-345.4-41.2l7.5,70.3l343.3-1.9C1395,3327.3,1393.2,3307.6,1389.7,3300.1z"/>
		<path class="st50" d="M1038,1291.8c0,0,28.8,11.7,25,118c-3.8,106.3-12.6,573.6-12.6,573.6s-10.2,41.7-115.8-15.5
			c0,0-4.4-270.1-12.5-296.8c-8.1-26.6,13.7-209.6-16.3-242L1038,1291.8z"/>
		<path class="st51" d="M1038.3,1914.3c0,0-79.2,10.2-105.7-38.5l-0.1,70.5l109.6-9.4C1042.2,1937,1056.2,1916.7,1038.3,1914.3z"/>
		<path class="st52" d="M1046.8,1919.6c0,0-57.3,24-114.2,6.9c0,0-12.9-9.5-3.5,27.9s11.2,45,11.2,45s122.8,39.2,126.8-21.6
			C1067.1,1977.7,1053.5,1903.4,1046.8,1919.6z"/>
		<path class="st50" d="M1000.8,1154c0,0,62,62.5,104.5,75c0,0-24.7,28.7-24.2,60.2c0.5,31.6-8.6-2.3-8.6-2.3s-90.8-63-98.8-114.2
			L1000.8,1154z"/>
		<path class="st50" d="M1095.3,1225.4c0,0,9.7,1.3,14.6,74.9l16.6-59.3l-26.9-31.6L1095.3,1225.4z"/>
		<g class="st53">
			<path class="st54" d="M1835.4,2667.9c0,4.3-16.3,7.8-36.5,7.8s-36.5-3.5-36.5-7.8c0-4.3,16.3-7.8,36.5-7.8
				S1835.4,2663.6,1835.4,2667.9z"/>
			<path class="st54" d="M1835.4,2890.6c0,4.3-16.3,7.8-36.5,7.8s-36.5-3.5-36.5-7.8c0-4.3,16.3-7.8,36.5-7.8
				S1835.4,2886.3,1835.4,2890.6z"/>
			<rect x="1762.4" y="2667.9" class="st54" width="72.9" height="222.7"/>
			<path class="st54" d="M1799.4,2689.9h-2.4c0-1.1,0.8-110.3-24.1-177.3l2.1-1.4C1800.1,2579,1799.4,2688.8,1799.4,2689.9z"/>
			<path class="st54" d="M1765.2,2453.8l12.7-11.3c-5-16.3-11.8-32-20.4-46.8h-6.3l2.8-6c-7-11.5-14.9-22.4-23.5-32.7
				c0,0,1.1,27.4,6.2,61.2h10l-9.2,5.5c1.2,7.3,2.5,14.8,4.2,22.3l11.9-2.9l-10.1,11c7.6,32.9,19.4,65.2,37.7,80.4
				c0,0,11.4-33.7-0.7-82.6L1765.2,2453.8z"/>
			<path class="st54" d="M1799.1,2698.9c0-1.3-0.9-133.9,29.3-215.5l2.1,1.3c-30,81-29.1,212.8-29.1,214.2H1799.1z"/>
			<path class="st54" d="M1840.1,2413.9l-15.3-13.6c6-19.7,14.3-38.7,24.6-56.5h7.6l-3.4-7.2c8.5-13.8,18-27,28.4-39.5
				c0,0-1.4,33.1-7.6,73.9h-12.1l11.1,6.6c-1.4,8.8-3.1,17.8-5,26.9l-14.3-3.5l12.2,13.3c-9.1,39.7-23.4,78.7-45.6,97
				c0,0-13.7-40.6,0.9-99.6L1840.1,2413.9z"/>
		</g>
		<rect x="3198.7" y="1895.9" class="st55" width="31.2" height="222"/>
		<rect x="3300.5" y="1725.3" class="st55" width="31.2" height="392.6"/>
		<rect x="3402.3" y="1746.8" class="st55" width="31.2" height="371.1"/>
		<rect x="3504.2" y="1757" class="st55" width="31.2" height="360.9"/>
		<rect x="3606" y="1576.1" class="st55" width="31.2" height="541.8"/>
		<polygon class="st56" points="3619.4,1450.3 3468.6,1708.5 3367.6,1553.8 3203.8,1754.6 3213.1,1762.1 3366.5,1573.9 
			3469.1,1731.1 3623.8,1466.4 3673.1,1494.2 3737.9,1442.1 4033.3,1204.9 4049.7,1223.9 4087.9,1160.5 4010.8,1178.9 
			4025.5,1195.9 3727.9,1434.9 3726.1,1436.3 3718.9,1442.1 3671.9,1479.9 		"/>
		<polygon class="st56" points="3156.8,1579.6 3156.8,2172.2 3715.5,2172.2 3715.5,2185.7 3749.1,2170.1 3715.5,2154.4 
			3715.5,2167.6 3161.4,2167.6 3161.4,1579.6 3175.2,1579.6 3159.5,1546 3143.8,1579.6 		"/>
	</g>
</g>
</svg>
