<?xml version="1.0" encoding="utf-8"?>
<!-- Generator: Adobe Illustrator 24.1.0, SVG Export Plug-In . SVG Version: 6.00 Build 0)  -->
<svg version="1.1" id="Capa_1" xmlns="http://www.w3.org/2000/svg" xmlns:xlink="http://www.w3.org/1999/xlink" x="0px" y="0px"
	 viewBox="0 0 5000 3575.6" style="enable-background:new 0 0 5000 3575.6;" xml:space="preserve">
<style type="text/css">
	.st0{opacity:0.42;fill:#FE7101;enable-background:new    ;}
	.st1{opacity:0.8;fill:#F32735;enable-background:new    ;}
	.st2{fill:#514F4F;}
	.st3{fill:#3F3F3F;}
	.st4{fill:#353535;}
	.st5{fill:#C23825;}
	.st6{fill:#7C7C7C;}
	.st7{fill:#E01B07;}
	.st8{fill:#C12000;}
	.st9{fill:#771704;}
	.st10{fill:#EAF2F9;}
	.st11{fill:#B5CCE2;}
	.st12{fill:#232F63;}
	.st13{fill:#7BADC9;}
	.st14{fill:#6197AA;}
	.st15{fill:#FFFFFF;}
	.st16{fill:#9E2632;}
	.st17{fill:#C1DEE8;}
	.st18{fill:#660E17;}
	.st19{fill:#A3CFE2;}
	.st20{fill:#E3F6FF;}
	.st21{fill:#C8E3ED;}
	.st22{fill:#053C52;}
	.st23{fill:#0F1A42;}
	.st24{fill:#BAD4E8;}
	.st25{fill:#01567A;}
	.st26{fill:none;}
	.st27{fill:#FCCDD3;}
	.st28{fill:#FC9FA8;}
	.st29{fill:#4D7A8E;}
	.st30{fill:#FAC2AE;}
	.st31{fill:#F1A080;}
	.st32{fill:#EDEDED;}
	.st33{fill:#132147;}
	.st34{fill:#192654;}
	.st35{fill:#364777;}
	.st36{fill:#1E2B59;}
	.st37{fill:#0F1B42;}
	.st38{opacity:0.26;fill:#EAA48F;enable-background:new    ;}
	.st39{fill:#78ADC4;}
	.st40{fill:#669EB2;}
	.st41{fill:#E6515B;}
	.st42{fill:#8CBDD3;}
	.st43{fill:#83B6CC;}
	.st44{fill:#D3404E;}
	.st45{opacity:0.33;}
	.st46{fill:#C6D2EB;}
	.st47{fill:#F4737F;}
	.st48{fill:#B03E45;}
	.st49{fill:#2D2E75;}
	.st50{fill:#F27B8F;}
</style>
<path class="st0" d="M209.6-69.2H60.1c-3.7,0-6.6-3-6.6-6.6v-149.5c0-3.7,3-6.6,6.6-6.6h149.5c3.7,0,6.6,3,6.6,6.6v149.5
	C216.3-72.2,213.3-69.2,209.6-69.2z"/>
<path class="st1" d="M460.9-69.2H311.4c-3.7,0-6.6-3-6.6-6.6v-149.5c0-3.7,3-6.6,6.6-6.6h149.5c3.7,0,6.6,3,6.6,6.6v149.5
	C467.5-72.2,464.5-69.2,460.9-69.2z"/>
<path class="st2" d="M724-69.2H574.6c-3.7,0-6.6-3-6.6-6.6v-149.5c0-3.7,3-6.6,6.6-6.6H724c3.7,0,6.6,3,6.6,6.6v149.5
	C730.7-72.2,727.7-69.2,724-69.2z"/>
<path class="st3" d="M988.1-69.2H838.7c-3.7,0-6.6-3-6.6-6.6v-149.5c0-3.7,3-6.6,6.6-6.6h149.5c3.7,0,6.6,3,6.6,6.6v149.5
	C994.8-72.2,991.8-69.2,988.1-69.2z"/>
<path class="st4" d="M1231.7-69.2h-149.5c-3.7,0-6.6-3-6.6-6.6v-149.5c0-3.7,3-6.6,6.6-6.6h149.5c3.7,0,6.6,3,6.6,6.6v149.5
	C1238.3-72.2,1235.3-69.2,1231.7-69.2z"/>
<rect x="3754.5" y="-232" class="st5" width="162.8" height="162.8"/>
<rect x="4005.7" y="-232" class="st2" width="162.8" height="162.8"/>
<rect x="4268.9" y="-232" class="st3" width="162.8" height="162.8"/>
<rect x="2981.9" y="-232" class="st0" width="162.8" height="162.8"/>
<rect x="3233.2" y="-232" class="st6" width="162.8" height="162.8"/>
<rect x="3496.3" y="-232" class="st6" width="162.8" height="162.8"/>
<rect x="4533" y="-232" class="st4" width="162.8" height="162.8"/>
<rect x="4776.5" y="-232" class="st4" width="162.8" height="162.8"/>
<rect x="3747.2" y="-485.5" class="st5" width="162.8" height="162.8"/>
<rect x="3998.5" y="-485.5" class="st2" width="162.8" height="162.8"/>
<rect x="4261.7" y="-485.5" class="st3" width="162.8" height="162.8"/>
<rect x="2974.7" y="-485.5" class="st0" width="162.8" height="162.8"/>
<rect x="3225.9" y="-485.5" class="st6" width="162.8" height="162.8"/>
<rect x="3489.1" y="-485.5" class="st6" width="162.8" height="162.8"/>
<rect x="4525.8" y="-485.5" class="st4" width="162.8" height="162.8"/>
<rect x="4769.3" y="-485.5" class="st4" width="162.8" height="162.8"/>
<path class="st0" d="M209.6-322.7H60.1c-3.7,0-6.6-3-6.6-6.6v-149.5c0-3.7,3-6.6,6.6-6.6h149.5c3.7,0,6.6,3,6.6,6.6v149.5
	C216.3-325.7,213.3-322.7,209.6-322.7z"/>
<path class="st5" d="M460.9-322.7H311.4c-3.7,0-6.6-3-6.6-6.6v-149.5c0-3.7,3-6.6,6.6-6.6h149.5c3.7,0,6.6,3,6.6,6.6v149.5
	C467.5-325.7,464.5-322.7,460.9-322.7z"/>
<path class="st7" d="M724-322.7H574.6c-3.7,0-6.6-3-6.6-6.6v-149.5c0-3.7,3-6.6,6.6-6.6H724c3.7,0,6.6,3,6.6,6.6v149.5
	C730.7-325.7,727.7-322.7,724-322.7z"/>
<path class="st8" d="M988.1-322.7H838.7c-3.7,0-6.6-3-6.6-6.6v-149.5c0-3.7,3-6.6,6.6-6.6h149.5c3.7,0,6.6,3,6.6,6.6v149.5
	C994.8-325.7,991.8-322.7,988.1-322.7z"/>
<path class="st9" d="M1231.7-322.7h-149.5c-3.7,0-6.6-3-6.6-6.6v-149.5c0-3.7,3-6.6,6.6-6.6h149.5c3.7,0,6.6,3,6.6,6.6v149.5
	C1238.3-325.7,1235.3-322.7,1231.7-322.7z"/>
<g id="Layer_2">
	<g id="Layer_1-2">
		<path class="st10" d="M1194.1,2583.8"/>
		<path class="st10" d="M2646.2,2569.7"/>
		<path class="st10" d="M3195.7,78.2"/>
	</g>
</g>
<g id="Layer_2_1_">
	<g id="Layer_1-2_1_">
		<polygon class="st11" points="301.6,3181.5 4741.3,3194.6 4741.3,3168.3 301.6,3168.3 		"/>
		<path class="st10" d="M932.7,3161.5H4402c0,0,509.5-1584.4-43.5-1916.4C3864.1,948.4,4045.1,69,3349.6,170.7
			s-738.1,399-1437.7,337c-1040.1-92.2-1679.3,725-1072,1854.1C993.3,2646.9,1005.4,2936.1,932.7,3161.5z"/>
		<rect x="2219.7" y="1857.9" class="st12" width="976.5" height="1378.1"/>
		<rect x="2196.3" y="1834.5" class="st13" width="976.5" height="1378.1"/>
		<polygon class="st14" points="2196.3,1834.5 3172.8,1834.5 2765.3,3212.6 2196.3,3212.6 		"/>
		<rect x="2334.3" y="1921.6" class="st15" width="708" height="1085.5"/>
		<rect x="2432.3" y="1813.7" class="st16" width="493.8" height="153.5"/>
		<path class="st16" d="M2684.6,1683.8c-50.1,0-90.8,40.6-90.8,90.8s40.6,90.8,90.8,90.8s90.8-40.6,90.8-90.8
			C2775.3,1724.5,2734.7,1683.8,2684.6,1683.8L2684.6,1683.8z M2684.6,1827.2c-29.1,0-52.6-23.6-52.6-52.6
			c0-29.1,23.6-52.6,52.6-52.6c29.1,0,52.6,23.6,52.6,52.6l0,0C2737.2,1803.7,2713.6,1827.2,2684.6,1827.2z"/>
		<rect x="2405.1" y="2099.5" class="st13" width="423" height="32.7"/>
		<rect x="2405.1" y="2193.1" class="st17" width="559.7" height="32.7"/>
		<rect x="2405.1" y="2250.2" class="st17" width="559.7" height="32.7"/>
		<rect x="2405.1" y="2307.3" class="st17" width="559.7" height="32.7"/>
		<rect x="2405.1" y="2364.3" class="st17" width="559.7" height="32.7"/>
		<rect x="2405.1" y="2421.4" class="st17" width="559.7" height="32.7"/>
		<rect x="2405.1" y="2519.8" class="st17" width="559.7" height="32.7"/>
		<rect x="2405.1" y="2580.6" class="st17" width="559.7" height="32.7"/>
		<rect x="2750" y="2739.8" class="st13" width="211.2" height="32.7"/>
		<rect x="2432.3" y="1902.9" class="st18" width="493.8" height="64.4"/>
		<polygon class="st15" points="991.2,923.1 991.2,3186.5 2018.1,3093 2018.1,997.3 		"/>
		<path class="st19" d="M967.9,1114.3l1071.5,88v-170.2c0,0,46-71.6-176.5-96.2c-222.4-24.6-895.1-42.7-895.1-42.7L967.9,1114.3z"/>
		<polygon class="st20" points="1006.7,2421.7 2033.6,1408.7 2033.6,3032.5 1006.7,3186.5 		"/>
		<polygon class="st21" points="1006.7,2889.6 2033.6,2370 2033.6,3032.5 1006.7,3186.5 		"/>
		<rect x="1948.9" y="997.3" class="st22" width="69.8" height="2121.9"/>
		<ellipse class="st23" cx="896" cy="1427.2" rx="23.3" ry="39.9"/>
		<ellipse class="st24" cx="967.9" cy="1393.8" rx="23.3" ry="39.9"/>
		<ellipse class="st15" cx="1041.3" cy="1363.1" rx="23.3" ry="39.9"/>
		<path class="st22" d="M860.5,3057.3c1.5,72.8,5.4,145.7,3.8,218.5c-1.7,75,25.5,131.3,91.7,167.8l27.7,5.4l11.1-0.1
			c231-25.1,460.7-61,692.5-79c74.6-9.5,149-20.5,223.8-28.1c89.5-9.1,126.9-39.5,138.3-130.7c6.7-53.4,1.9-108.3,2.3-162.5
			l-52.3-15.5c-9,2-911.2,81.1-941.8,83.8c-30,8.7-46.1,1.2-45-33.8c1.2-39.8-0.9-79.7-1.5-119.5c-47.1,15.2-59.4-3.4-59.2-50.4
			c1.5-293.5,0.3-587,0.2-880.5c-0.1-353.4,1.7-706.7-1.5-1060.1c-0.7-78.7,27.6-130.4,95.7-164c-108.8-20.2-173.3,28.1-180.4,137.5
			c-14,216.4-1.2,433.1-6.5,649.7 M1503.4,3277.3c-80.6,4.7-93.6-1.8-97.1-38.8c-3.8-41.6,18.5-60.9,74.4-65.2
			c34.8-2.7,69.6-6.3,104.3-9.7c33.4-3.2,60.4,2.5,61.4,44.1c0.9,38-16.8,58.3-55.9,60.8C1555.8,3270.7,1521.1,3275.4,1503.4,3277.3
			z M894.2,2342.3h-10.4v-335.9h10.4V2342.3z"/>
		<path class="st10" d="M1533.1,3297.2c-80.6,4.7-93.6-1.8-97.1-38.8c-3.8-41.6,18.5-60.9,74.4-65.2c34.8-2.7,69.6-6.3,104.3-9.7
			c33.4-3.2,60.4,2.5,61.4,44.1c0.9,38-16.8,58.3-55.9,60.8C1585.6,3290.6,1550.9,3295.3,1533.1,3297.2z"/>
		<path class="st25" d="M2056.6,2941.8l0.9-446.7l0.8,0.1l-0.5-147.6c0.2-87.2,0.3-174.4,0.5-261.6l-1.5-0.4l-1.2-335.8l0,0
			c0.2-170.4,0.4-340.7,0.5-511.1c-0.3-50.6-0.4-101.1-0.8-151.7c-0.8-121.6-50.3-174-172-184.2c-76.3-6.5-152.4-14.8-228.5-22.8
			c-10.2-1.1-20-5.9-29.9-8.9c-140.4-8.4-279.3-30.1-418.7-46.9c-53.3-6.4-106.8-10.5-160.2-15.7c-68.1,33.6-96.4,85.4-95.7,164
			c3.2,353.3,1.4,706.7,1.5,1060.1c0.1,293.5,1.3,587-0.2,880.5c0,5.4,0.1,10.3,0.5,15v449.4c0,0-11.4,89.4,119.3,62.8l872.9-103.4
			c0,0,95.5-6.2,104.2-121.3l3.8-174.7c1.4-12,2.8-23.9,4.2-35.9c-1.3-2.7-2.4-5.6-3.2-8.5l0.9-40.8
			C2055.2,2951,2056,2946.4,2056.6,2941.8z M1934.7,3039.2l-877.2,77.6c0,0-44.6,13.5-44.7-22.3l-0.8-272.1
			c1.3-158.2,2.6-316.4,3.9-474.5c0.2-6.1,0.3-12.3,0.5-18.5l-1-200.3l0.3-12.8l0.2-499c-0.2-94.7-0.4-189.4-0.6-284.1
			c-0.1-106.6,0.1-213.1-0.6-319.7c-0.2-30.6,6-52.7,43.6-47.2c8.7,0.1,17.5-0.6,26.2,0.3c178.8,17.6,357.5,35.2,536.3,53
			c102.4,10.2,204.7,21.3,307.1,31.3c43.4,4.2,70.6,17.3,67.4,70.4c-3.6,60.8,1.2,122.1,3.7,183.1c4.4,104.7,7.1,209.4-0.8,314
			c5.3,90.3,4.7,180.6,1,270.8c0.3,3.6,0.6,7.2,0.8,10.8c0.2,0.3,0.5,0.6,0.8,1l-3.1,583.5l0,0c-0.7,50.3-1.5,100.6-2.2,150.8
			c0.2,36.1,9.9,72.2-0.7,108.2c4.5,12.6,4.5,26.4,0,39c4.5,38.5,6.5,77.2,6.1,115.9l-2.9,63.2c-0.9,11.2-1.9,22.4-3.2,33.5
			c0.4,3.3,0.8,6.7,1.2,10l0,0c0,0.5,0.1,1,0.2,1.5C1996.4,3012.5,1993.4,3033.8,1934.7,3039.2z"/>
		<path class="st10" d="M1518.9,3277.3c-80.6,4.7-93.6-1.8-97.1-38.8c-3.8-41.6,18.5-60.9,74.4-65.2c34.8-2.7,69.6-6.3,104.3-9.7
			c33.4-3.2,60.4,2.5,61.4,44.1c0.9,38-16.8,58.3-55.9,60.8C1571.3,3270.7,1536.6,3275.4,1518.9,3277.3z"/>
		<ellipse class="st12" cx="1115.3" cy="1054.6" rx="29" ry="36.1"/>
		<ellipse class="st25" cx="1203.6" cy="1064.1" rx="29" ry="36.1"/>
		<ellipse class="st15" cx="1290" cy="1073.6" rx="29" ry="36.1"/>
		<path class="st26" d="M4468.7,958.2c0.2,4.7,0.3,9.5,0.2,14.4c-0.8,88.3-1.3,176.7-1.6,265c0.3-88.3,0.8-176.7,1.6-265
			C4469,967.7,4468.9,962.9,4468.7,958.2z"/>
		<path class="st26" d="M4440.7,863.9c-1.7-2.5-3.6-4.9-5.4-7.3C4437.1,858.9,4439,861.4,4440.7,863.9z"/>
		<path class="st26" d="M4467.1,1423.6L4467.1,1423.6c-0.1,114.6,0,229.3,0.2,344C4467.1,1652.9,4467.1,1538.2,4467.1,1423.6z"/>
		<path class="st26" d="M4467.6,2913.3c0,2.7,0,5.2-0.1,7.7C4467.6,2918.5,4467.6,2915.9,4467.6,2913.3z"/>
		<path class="st26" d="M4454.7,889.5c-1.2-2.7-2.4-5.4-3.7-8C4452.3,884.1,4453.5,886.8,4454.7,889.5z"/>
		<path class="st26" d="M4467.4,2032.7c0,110.1-0.1,220.1-0.4,330.2C4467.2,2252.9,4467.3,2142.8,4467.4,2032.7z"/>
		<path class="st26" d="M4460.8,906.5c-1.2-3.9-2.4-7.7-3.9-11.5C4458.3,898.8,4459.6,902.6,4460.8,906.5z"/>
		<path class="st26" d="M4468.7,958.2c-0.2-4.7-0.5-9.3-0.9-13.8C4468.2,948.9,4468.5,953.5,4468.7,958.2z"/>
		<path class="st26" d="M4466.8,2583.1c0-36.7,0-73.4,0-110.1C4466.9,2509.7,4466.9,2546.4,4466.8,2583.1z"/>
		<path class="st26" d="M4525.2,2342.6h10.4v-335.9h-10.4V2342.6z"/>
		<path class="st26" d="M4467.2,2928.2c0.2-2.3,0.3-4.7,0.4-7.2C4467.5,2923.5,4467.3,2925.9,4467.2,2928.2z"/>
		<path class="st26" d="M4465.1,924.8c-0.8-4.2-1.7-8.3-2.7-12.3C4463.4,916.4,4464.3,920.6,4465.1,924.8z"/>
		<path class="st26" d="M4467.8,944.4c-0.4-4.5-1-8.9-1.6-13.2C4466.9,935.5,4467.4,939.9,4467.8,944.4z"/>
		<path class="st15" d="M3486,1492.6l917.8,905.4c-0.1-16.6-0.3-33.3-0.4-49.9c-0.2-6.1-0.3-12.3-0.5-18.5l1-200.3l-0.3-12.8
			l-0.2-499c0.2-94.7,0.4-189.4,0.6-284.1c0.1-71.7,0-143.3,0.2-215l-918.3,75.4V1492.6z"/>
		<path class="st19" d="M4361.2,966.5c-8.7,0.1-17.5-0.6-26.2,0.3c-178.8,17.6-357.5,35.2-536.3,53
			c-102.4,10.2-204.7,21.3-307.1,31.3c-1.9,0.2-3.7,0.4-5.5,0.6v142.1l918.3-75.3c0.1-34.9,0.2-69.8,0.4-104.7
			C4405,983.1,4398.7,961,4361.2,966.5z M4129.4,1109.9c-16,0-29-16.1-29-36.1s13-36.1,29-36.1s28.9,16.1,28.9,36.1
			S4145.4,1109.9,4129.4,1109.9L4129.4,1109.9z M4215.8,1100.4c-16,0-29-16.1-29-36.1s13-36.1,29-36.1s29,16.1,29,36.1
			S4231.8,1100.4,4215.8,1100.4L4215.8,1100.4z M4304.1,1091c-16,0-28.9-16.1-28.9-36.1s13-36.1,28.9-36.1s29,16.2,29,36.1
			S4320.1,1091,4304.1,1091L4304.1,1091z"/>
		<path class="st27" d="M3486,2413.2l921.1,466.1l0.2-56.6c-1.1-141.6-2.3-283.1-3.5-424.6L3486,1492.6V2413.2z"/>
		<path class="st28" d="M3486,3039.5l875.8,77.5c0.7,0.2,1.4,0.4,2.1,0.5c6.3,1.5,25.5,5.2,35.8-4.4c3.6-4.2,5.9-10.2,6.8-18.5
			l0.1-26.2c-0.1-9.4-0.1-18.9,0.1-28.3l0.5-160.9L3486,2413.2V3039.5z"/>
		<path class="st29" d="M3486,1492.6v-440.9c-40.1,4.8-64.9,19-61.9,69.8c3.6,60.8-1.2,122.1-3.7,183.1
			c-4.4,104.7-7.1,209.4,0.8,314c-5.3,90.3-4.7,180.6-1,270.8c-0.3,3.6-0.6,7.2-0.8,10.8c-0.2,0.3-0.5,0.6-0.8,1l3.2,583.6
			c0.7,50.3,1.5,100.6,2.2,150.8c-0.2,36.1-9.9,72.1,0.7,108.2c-4.5,12.6-4.5,26.4,0,39c-4.5,38.5-6.5,77.2-6.1,115.9l2.9,63.2
			c0.9,11.2,1.9,22.4,3.2,33.5l-1.2,10l-0.2,1.5c-0.3,5.8,2.6,27.2,61.4,32.5l1.3,0.1L3486,1492.6L3486,1492.6z"/>
		<path class="st24" d="M4467.1,1370.2c0,17.8,0,35.6,0,53.4l0,0C4467.1,1405.8,4467.1,1388,4467.1,1370.2z"/>
		<path class="st29" d="M4407.4,829.5c4.9,3.7,9.6,7.7,14.1,12c2.9,2.8,5.7,5.6,8.3,8.6c1.9,2.1,3.7,4.3,5.4,6.5
			c1.9,2.4,3.7,4.8,5.4,7.3c2.2,3.2,4.3,6.5,6.2,9.9c1.5,2.5,2.8,5.1,4.1,7.8c1.3,2.7,2.6,5.3,3.7,8c0.8,1.8,1.5,3.7,2.2,5.5
			c1.4,3.7,2.7,7.5,3.9,11.5c0.6,2,1.1,3.9,1.6,5.9c1,4,1.9,8.1,2.7,12.3c0.4,2.1,0.8,4.2,1.1,6.4c0.7,4.3,1.2,8.7,1.6,13.2
			c0.4,4.5,0.7,9.1,0.9,13.8c0.2,4.7,0.3,9.5,0.2,14.4c-0.8,88.3-1.3,176.7-1.6,265c-0.1,44.2-0.2,88.3-0.3,132.5
			c0,17.8,0,35.6,0,53.4c-0.1,114.6,0,229.3,0.2,344c0.1,88.4,0.2,176.8,0.1,265.2l0,0c0,110.1-0.1,220.1-0.4,330.2
			c-0.1,36.7-0.1,73.4-0.1,110.1c0,36.7,0,73.4,0,110.1c0,110.1,0.3,220.1,0.8,330.2l0,0c0,2.7,0,5.2-0.1,7.7c0,0,0,0.1,0,0.1
			c-0.1,2.5-0.2,4.9-0.4,7.2l0,0v449.4c0,0,8.8,68.4-76.6,67.7c11.4,1.3,22.7,2.6,34.1,3.8l11.1,0.1l27.7-5.4
			c66.1-36.5,93.4-92.8,91.7-167.8c-1.6-72.8,2.3-145.6,3.8-218.5l1.3-1461.8c-5.3-216.5,7.4-433.3-6.5-649.7
			c-7.1-109.4-71.6-157.7-180.4-137.5c10.1,4.9,19.8,10.7,29,17.1C4404.1,826.9,4405.7,828.2,4407.4,829.5z M4535.6,2342.6h-10.4
			v-335.9h10.4V2342.6z"/>
		<path class="st22" d="M3475,3337c10.3,2.1,21.4,3.7,33.5,5c74.8,7.6,149.2,18.6,223.8,28.1c27.4,2.1,54.7,4.5,82,7.1L3475,3337z"
			/>
		<path class="st22" d="M3392.1,3285.4c7.9,13.4,18.9,24.6,32,32.8C3411.3,3309.6,3400.4,3298.4,3392.1,3285.4z"/>
		<path class="st22" d="M3370.1,3211.3c0.2,1.5,0.4,2.9,0.6,4.4l-3.1-140.1C3367,3121.1,3364.6,3166.7,3370.1,3211.3z"/>
		<path class="st22" d="M4341.4,3439.7l-6.3-0.8L4341.4,3439.7z"/>
		<path class="st22" d="M4406.6,3068.4l0.1-28.3C4406.5,3049.5,4406.5,3058.9,4406.6,3068.4z"/>
		<path class="st22" d="M4364,3117.6c-0.7-0.2-1.4-0.3-2.1-0.5C4361.9,3117,4362.6,3117.3,4364,3117.6z"/>
		<path class="st22" d="M4406.5,3094.7v-0.1c-0.9,8.3-3.2,14.3-6.8,18.5C4403.8,3109.3,4406.5,3103.5,4406.5,3094.7z"/>
		<path class="st13" d="M3361.9,2495.3l0.9,446.7c0.6,4.6,1.4,9.2,2.2,13.8l0.9,40.8c-0.8,2.9-1.9,5.8-3.2,8.5
			c1.4,12,2.8,23.9,4.2,35.9l0.8,34.6l3.1,140.1l0,0c2.3,30,10.5,52.6,21.4,69.6c8.3,13.1,19.2,24.2,32,32.8
			c25.7,17.2,50.8,18.9,50.8,18.9l0,0l339.3,40.2l520.8,61.7l6.3,0.8l6.6,0.8c14,3,28.3,4.7,42.7,5c85.3,0.6,76.6-67.7,76.6-67.7
			v-449.5l0,0c0.2-2.3,0.3-4.7,0.4-7.2c0,0,0-0.1,0-0.1c0.1-2.5,0.1-5,0.1-7.7l0,0c-0.6-110.1-0.8-220.1-0.8-330.2
			c0-36.7,0-73.4,0-110.1c0-36.7,0-73.4,0.1-110.1c0.2-110.1,0.3-220.1,0.4-330.2l0,0c0-88.4,0-176.8-0.1-265.2
			c-0.1-114.7-0.2-229.3-0.2-344c0-17.8,0-35.6,0-53.4c0.1-44.2,0.2-88.3,0.3-132.5c0.3-88.3,0.8-176.7,1.6-265
			c0-4.9,0-9.7-0.2-14.4c-0.2-4.7-0.5-9.3-0.9-13.8c-0.4-4.5-1-8.9-1.6-13.2c-0.3-2.2-0.7-4.3-1.1-6.4c-0.8-4.2-1.7-8.3-2.7-12.3
			c-0.5-2-1.1-4-1.6-5.9c-1.2-3.9-2.4-7.7-3.9-11.5c-0.7-1.9-1.4-3.7-2.2-5.5c-1.2-2.7-2.4-5.4-3.7-8c-1.3-2.6-2.6-5.2-4.1-7.8
			c-1.9-3.4-4-6.7-6.2-9.9c-1.7-2.5-3.6-4.9-5.4-7.3c-1.7-2.2-3.5-4.4-5.4-6.5c-2.6-3-5.4-5.8-8.3-8.6c-4.5-4.3-9.2-8.3-14.1-12
			c-1.7-1.3-3.4-2.5-5.1-3.8c-9.2-6.5-18.9-12.2-29-17.1l0,0c-53.4,5.2-106.9,9.3-160.2,15.7c-139.4,16.7-278.3,38.4-418.7,46.9
			c-10,3.1-19.7,7.8-29.9,8.9c-76.1,8.1-152.2,16.4-228.5,22.8c-121.7,10.3-171.2,62.7-172,184.3c-0.3,50.6-0.5,101.1-0.8,151.7
			c0.2,170.4,0.3,340.7,0.5,511.1l0,0l-1.2,335.8l-1.5,0.4c0.2,87.2,0.4,174.4,0.5,261.6l-0.5,147.6L3361.9,2495.3z M3916,3277.5
			c-17.8-1.9-52.4-6.6-87.3-8.9c-39-2.5-56.8-22.8-55.9-60.8c1-41.6,28.1-47.3,61.4-44.1c34.8,3.3,69.5,7,104.3,9.7
			c55.9,4.3,78.2,23.6,74.4,65.2C4009.7,3275.8,3996.7,3282.2,3916,3277.5L3916,3277.5z M4404.8,1013.7
			c-0.2,34.9-0.4,69.8-0.4,104.7c-0.2,71.7-0.1,143.3-0.2,215c-0.2,94.7-0.4,189.4-0.6,284.1l0.2,499l0.3,12.8l-1,200.3
			c0.2,6.2,0.3,12.3,0.5,18.5c0.1,16.6,0.3,33.3,0.4,49.9c1.2,141.5,2.3,283.1,3.5,424.6l-0.2,56.6l-0.5,160.9l-0.1,28.3l-0.1,26.2
			v0.1c0,8.8-2.7,14.6-6.8,18.4c-10.4,9.6-29.6,6-35.8,4.4c-1.3-0.3-2.1-0.5-2.1-0.5l-875.8-77.5l-1.3-0.1
			c-58.8-5.3-61.7-26.6-61.4-32.5l0.2-1.5l1.2-10c-1.3-11.2-2.3-22.4-3.2-33.5l-2.9-63.2c-0.5-38.7,1.6-77.4,6.1-115.9
			c-4.5-12.6-4.5-26.4,0-39c-10.6-36-1-72.1-0.7-108.2c-0.7-50.3-1.5-100.6-2.2-150.8l-3.2-583.6c0.3-0.3,0.5-0.6,0.8-1
			c0.3-3.6,0.6-7.2,0.8-10.8c-3.7-90.3-4.3-180.6,1-270.8c-7.9-104.7-5.2-209.3-0.8-314c2.5-61,7.4-122.4,3.7-183.1
			c-3-50.8,21.7-64.9,61.9-69.8c1.8-0.2,3.7-0.4,5.5-0.6c102.4-10,204.7-21.1,307.1-31.3c178.7-17.9,357.5-35.5,536.3-53
			c8.7-0.9,17.5-0.2,26.2-0.3C4398.7,961,4405,983.1,4404.8,1013.7L4404.8,1013.7z"/>
		<path class="st10" d="M4013.1,3238.7c3.8-41.6-18.5-60.9-74.4-65.2c-34.8-2.7-69.6-6.3-104.3-9.7c-33.4-3.2-60.4,2.5-61.4,44.1
			c-0.9,38,16.8,58.3,55.9,60.8c34.8,2.2,69.5,7,87.3,8.9C3996.7,3282.2,4009.7,3275.8,4013.1,3238.7z"/>
		<path class="st12" d="M3733.1,1064.4c-16,0-28.9,16.1-28.9,36.1s13,36.1,28.9,36.1c16,0,29-16.1,29-36.1
			S3749.1,1064.4,3733.1,1064.4z"/>
		<path class="st25" d="M3644.8,1073.9c-16,0-28.9,16.1-28.9,36.1s13,36.1,28.9,36.1c16,0,29-16.1,29-36.1
			S3660.8,1073.9,3644.8,1073.9z"/>
		<path class="st15" d="M3558.4,1083.4c-16,0-28.9,16.2-28.9,36.1c0,19.9,13,36.1,28.9,36.1s29-16.1,29-36.1
			C3587.4,1099.5,3574.4,1083.4,3558.4,1083.4z"/>
		<path class="st30" d="M2773.6,2327.1c0,0,55.1-28.9,90.7-26.6c35.6,2.4,124.4,21.8,124.4,21.8l-8.5,93.5c0,0-55.1-1.4-104.9,7.6
			c-49.8,9-168-30.4-160.9-51.7C2721.3,2350.4,2773.6,2327.1,2773.6,2327.1z"/>
		<path class="st31" d="M2819.5,2368.8c0,0,43.2-0.6,52.5-6.2c0,0,15-0.6,14.2,13.7s78.8,19.3,78.8,19.3l-2.6,20.3
			c0,0-91.5,4.2-98.6,7S2819.5,2368.8,2819.5,2368.8z"/>
		<path class="st15" d="M2938.7,2292.6h-16.1c0,0,37.7,98.4,22.4,130.4l26.3,4.6l-6.3-110.2L2938.7,2292.6z"/>
		<path class="st32" d="M3529.3,1976.4l-38,44.6l98.4,203.6l76.3-209.8l-91.2-31.8C3574.8,1983,3532.9,1991,3529.3,1976.4z"/>
		<path class="st33" d="M3716.4,2667.4l25,394.7l308.6,27.3c0,0,13.9-196.3,33.1-279.6c19.2-83.3-12.8-202.9-12.8-202.9
			L3716.4,2667.4z"/>
		<path class="st34" d="M3807.2,2707.3l20.7,362.5l315.5,27.9c0,0,11.3-164.7,30.5-248c19.2-83.3-12.8-202.9-12.8-202.9
			L3807.2,2707.3z"/>
		<path class="st33" d="M3815.5,2812.7l2.2,47c0,0,290.5,5.6,362.3-76c0,0-1.4-70.7-8-82.6S3815.5,2812.7,3815.5,2812.7z"/>
		<path class="st30" d="M3993.6,2854c0,0-9.6,42.7,8.9,66.5c0,0,4.7,15.2,12.8,15.2c8.1,0,57.9,0.5,68.3-13.8
			c10.4-14.2,11.4-75,11.4-75L3993.6,2854z"/>
		<path class="st31" d="M4001.9,2868.6c0,0,11.5,48.6,0.6,51.9c0,0,4.2,15.2,12.8,15.2s-6.7-81.3-6.7-81.3L4001.9,2868.6z"/>
		<path class="st30" d="M3254,1468.5c0,0-37,68.3-27,128.2c0,0,5.7,15.7-42.7,67.6c0,0-19.2,19.2,53.4,24.2c0,0,21.4,8.5,16.4,69.1
			c-5,60.5,88.3,85.5,204.3,47c0,0,39.9-22.1,67.6,118.2c0,0,5.2,44.1-8.1,59.3s105.4,2.8,141.4-111.1c0,0-110.1-76.9-82.6-207.9
			c27.5-131-167.1-254.4-167.1-254.4L3254,1468.5z"/>
		<path class="st31" d="M3496.3,1598.9c0,0,31.1,47.6,26.1,89.6c-5,42,103.9,173.7,103.9,173.7l5.8-19.2c0,0-65.8-46.5-59.6-145
			C3578.6,1599.5,3496.3,1598.9,3496.3,1598.9z"/>
		<path class="st35" d="M3255.9,1497.9c0,0-122.5-38-27.5-97.8c94.9-59.8,143.4-17.1,143.4-17.1S3307.1,1489.4,3255.9,1497.9z"/>
		<path class="st12" d="M3291,1497.9c0,0-138.6-91.1,23.7-162.3c162.3-71.2,242.1,39.9,260.1,109.2
			C3592.9,1514,3419.1,1396.3,3291,1497.9z"/>
		<path class="st36" d="M3359.3,1478c0,0-148.1-138.6,109.2-118.7c257.3,19.9,122.5,356.9,122.5,356.9l-61.4-199.6L3359.3,1478z"/>
		<path class="st37" d="M3387.8,1501.2c0,0-45.1-75.1,85-43.9c130,31.1,154.7,225.2,101.8,276.6c0,0-47.6-141.6-103.1-145.5
			c-12.9-0.9-23.8,9.5-24.4,22.4c-0.9,18.4-4.3,49-17.3,62C3429.8,1672.8,3434,1576.1,3387.8,1501.2z"/>
		<path class="st12" d="M3494.6,1983c0,0-48.9,83.5-66,135.8c-17.1,52.2-52.2,74-52.2,74s-44.6,16.6-176.1,63.6
			c-131.5,47-252.5,17.6-260.6,30.8c-8.1,13.3,32.8,82.6,24.2,125.8c0,0,2.9,10-5.7,10s-2.9,12.3,37,9s304.3,4.8,409.6-52.2
			c0,0,72.6-41.3,122.5-141c0,0,118.7,299,132,415.8c13.3,116.8,23.3,182.3,23.3,182.3h71.2l-8.5-319L3494.6,1983z"/>
		<path class="st34" d="M3532.7,1995.2l218.8,581.6l-3,60.7l-258-608C3490.5,2029.5,3509.6,1982.3,3532.7,1995.2z"/>
		<path class="st12" d="M3659.3,1849.8c0,0-69.2,287-69.6,336.2s159.8,346.2,176.9,443s34.2,197.9,34.2,197.9
			s343.2,28.5,398.7-119.6c0,0-44.1-168-89.7-256.3c0,0-79.7-200.8-162.3-341.7c-82.6-141-119.6-209.3-163.8-215.7
			S3661.7,1881.5,3659.3,1849.8z"/>
		<path class="st34" d="M4072.3,2399.8l22.8,15.4l14.7,35.9l25.8,326.3c0,0-31,30.7-71.8,30.7S4072.3,2399.8,4072.3,2399.8z"/>
		<path class="st34" d="M3772.3,2176.9c0,0-51.3-112,7.1-76.8c58.4,35.2,229,328.1,214.2,404.6c-14.8,76.6,17.9,309,17.9,309
			s-27,11.4-57,11.1c0,0-34.5-400.2-59.9-432.7S3772.3,2176.9,3772.3,2176.9z"/>
		<path class="st30" d="M2581.1,2351.3c0,0,57.3,4.3,85.8-6.4c28.5-10.7,39.2-22,54.5-20.1c15.3,1.9,56.6-8.4,60.5-13.4
			c3.9-5,17.4,9.5,2.8,20.4c-14.6,10.9-60.5,28.7-48.4,37.6c12.1,8.9,14.9,11.8,55-1.5s103.7,51.7,103.7,51.7s1,22.9-29.9,16.9
			c0,0-7.1,13.9-31.8,11.6c0,0,0.9,17.1-61.2,8.1c0,0-5.7,16.1-20.9,16.1c-19.6,0-19.8-7.3-46.6-10.7c-57.3-7.1-134-38.1-138.5-49.5
			C2559.4,2395.1,2581.1,2351.3,2581.1,2351.3z"/>
		<path class="st38" d="M2706.7,2462c0,0,64.5-81.6,115.9-92c0,0,35.5,11,72.5,49.7c0,0-1.4,23.4-29.9,16.9c0,0-6.2,13.7-31.8,11.6
			c0,0,3.6,17.1-61.2,8.1c0,0-9.6,24.8-38.6,13.1C2733.6,2469.4,2710.9,2462.5,2706.7,2462z"/>
		<path class="st31" d="M2615.3,2352.1c0,0-25.2,67.1,24.8,95.5l-79.6-31.1l39-64.4H2615.3z"/>
		<path class="st31" d="M2819.5,2368.8c0,0-20.5-6.3-48.3,5.3c-27.7,11.6-36.7-8.9-36.7-8.9s-3.6,4.4,3.5,11s23,6.9,46.8-1.4
			c23.7-8.4,48.7-0.6,48.7-0.6L2819.5,2368.8z"/>
		<path class="st31" d="M2785.9,2388.3l79.4,48.3l4.2,0.6C2869.6,2437.3,2782.6,2368.7,2785.9,2388.3z"/>
		<path class="st31" d="M2833.4,2447.9c0,0-53.2-43.4-69.2-44.6c-16-1.1,67.4,48.5,67.4,48.5L2833.4,2447.9z"/>
		<path class="st31" d="M2772.2,2456.8c0,0-37.6-24.7-41.9-22.5c-4.3,2.2,39.9,25.2,39.9,25.2L2772.2,2456.8z"/>
		<path class="st12" d="M3745.7,2095.1c0,0,186.8,261.7,188.9,314.8c2.1,53.2,40.6,458.6,40.6,458.6s84.7,30.2,137.9,0
			c0,0,8.1-458.5-33.2-529.1S3920,2062.3,3920,2062.3"/>
		<path class="st15" d="M3526.3,1927l15.3,60.3c0,0-21.8,18.5-33.2,33.7c-11.4,15.2-33.2,59.8-33.2,59.8S3475,1931.8,3526.3,1927z"
			/>
		<path class="st15" d="M3626.3,1840.1c0,0-13.5,72.1-84.7,147.2c0,0,48.4,2.4,104,69.3c0,0,28-131.5,28-194.1
			C3673.6,1862.4,3625.5,1815.9,3626.3,1840.1z"/>
		<polygon class="st39" points="1806.1,2327.6 1675.3,2767.1 1620.2,2586.8 1713.1,2376 		"/>
		<path class="st40" d="M1785.6,2396.4c0,0-143.6,52.3-94.8,318.7l-18.1,58.5c0,0-88.3-297.6,52.7-412.9l71.8-3.1L1785.6,2396.4z"/>
		<path class="st23" d="M1704.7,1655c0,0,22.8,22.8-75.5,158.1s-87.1,393.3-87.1,393.3l233.8-279.4l104-264.9L1704.7,1655z"/>
		<path class="st30" d="M2037.9,1397.3c0,0,163.8,32.8,116.8,188c0,0,7.3,68.2,37.7,102.1c3.9,4.1,3.6,10.6-0.5,14.5
			c-0.3,0.3-0.6,0.5-0.9,0.7c-10.9,7.9-23.1,13.7-36.2,17l2,42.3c0.7,12.6-0.9,25.2-4.7,37.1c-19.2,58.4-75.8,42.8-169.8,45.4
			c0,0-112.5-12.8-103.9,108.2c8.5,121-0.5,119.6-0.5,119.6l-147.6-133.9c0,0,119.6-115.3,88.3-297.6S2037.9,1397.3,2037.9,1397.3z"
			/>
		<path class="st31" d="M1777.6,1874.1c0,0,98,175.4,103.2,113.5l19.4,60.5l-76.6-57.7l-57-100.7L1777.6,1874.1z"/>
		<path class="st31" d="M2145,1467.1c0,0-70-7.1-112.8,101.1c-42.7,108.2-117,204.8-211.1,176.5l4.6-153.8
			C1825.7,1590.9,2081.1,1294.8,2145,1467.1z"/>
		<path class="st13" d="M1751.7,1913.4c0,0-49.9,24.2-85.5,51.3c-57,43.4-197.9,432.2-197.9,432.2s114.7,95.5,223.2,66.9
			c0,0,40.2-69.8,127.1-116.8c86.9-47,184.4-239.2,121-338.2c-17.6-27.5-66.2-92.7-61.4-78.2c47.7,144.5-54.6,84.6-54.6,84.6
			L1751.7,1913.4z"/>
		<path class="st40" d="M1499.7,2313.3c0,0,18.9,140,218.7,114.4l-14.6,16.5c0,0-145.9,29.4-224.9-88.9L1499.7,2313.3z"/>
		<path class="st40" d="M1730.3,1924.5c0,0,110.1,177.6,114.9,181.4s41.3-68.3,41.3-68.3s6.5-16.4,55.1,45.1c0,0,26.6,21.8,0-39.4
			l-55.1-40.1c0,0,19.7,32.6-47.9,6c-88.4-34.8-97.8-89.7-97.8-89.7L1730.3,1924.5z"/>
		<path class="st40" d="M1699.9,2219.4c0,0,90.6,84,163.4,91.9c0,0,40.7-46.1,42.8-55.4S1699.9,2219.4,1699.9,2219.4z"/>
		<path class="st41" d="M1489.3,2340.9c0,0,42.4,115.8,223.8,93c0,0-79.6,74-48.3,210.7c31.3,136.7,64.7,414,64.7,414l-496.5,43.9
			c0,0-78-412.3,35.9-567.5C1382.9,2379.9,1417.8,2445.9,1489.3,2340.9z"/>
		<path class="st42" d="M1771.7,1884.1c0,0,46.6,97.3,110.2,134.2l-34.8,72.5l-116.8-180.9C1730.3,1909.9,1776,1858.2,1771.7,1884.1
			z"/>
		<path class="st42" d="M1881.9,2018.3c0,0,47.8,33.3,67.1,61.8c0,0,0.8-58.2-17.4-83.6c-18.2-25.4-53-70.3-53-70.3L1881.9,2018.3z"
			/>
		<path class="st43" d="M1742.7,2032.4c0,0,225.9,94,323.7,152.8c97.8,58.9,141.4,69.3,141.4,69.3s45.6,13.3,84.5,15.2
			s258.2,71.2,258.2,71.2l-7.6,78.8c0,0-330.4-17.1-444.3-58.8c-113.9-41.7-398.7-141.4-398.7-141.4S1654.4,2014.3,1742.7,2032.4z"
			/>
		<path class="st40" d="M2508.6,2327.9c0,0-0.6,85.9-93.1,82.8l120.8,8.8l-9-86.2L2508.6,2327.9z"/>
		<path class="st42" d="M2519.9,2331.9c0,0,8.2,22.7-2.9,56.8s-8.5,28.9-8.5,28.9s-10.1,8.1-0.3,12.4c9.8,4.3,62.8,10.3,72.5,3.6
			c9.6-6.8,21.7-83.3,18.9-89.3C2596.8,2338.2,2504.6,2312.8,2519.9,2331.9z"/>
		<path class="st12" d="M2136.4,1455.2c0,0-58-53.6-137,145c-79,198.6-306.7,105.3-306.7,105.3s-32.2-308.2,239.7-339.5
			C2140.7,1342,2136.4,1455.2,2136.4,1455.2z"/>
		<path class="st44" d="M1530.7,2394c0,0-166.4,123.9-118,269.2c48.4,145.2-69.1,429.8-69.1,429.8l385.8-34.3
			c0,0-42.5-341.6-70.7-449.9c0,0-13.2-101.6,54.3-174.8C1713.1,2434,1608.8,2454.8,1530.7,2394z"/>
		<path class="st37" d="M3516,1618.7c0,0,25.6,33.5,37.7,84s46.9,63.4,46.9,63.4s-14.8-29.5-3.8-77.8
			C3607.8,1640.1,3516,1618.7,3516,1618.7z"/>
		<path class="st13" d="M1530,1510.3c-12.8-5.6-27.8-20.1-38.9-32.3v-62.7c0-16.4-18-29.9-40-29.9H703.2c-22,0-40,13.4-40,29.9v144
			c0,16.4,18,29.9,40,29.9h747.9c22,0,40-13.5,40-29.9v-51.1L1530,1510.3z"/>
		<path class="st15" d="M718.1,1441.7h646.3c1.2,0,2.2,1,2.2,2.2v15c0,1.2-1,2.2-2.2,2.2H718.1c-1.2,0-2.2-1-2.2-2.2v-15
			C715.9,1442.7,716.9,1441.7,718.1,1441.7z"/>
		<path class="st15" d="M718.1,1478.8h646.3c1.2,0,2.2,1,2.2,2.2v15c0,1.2-1,2.2-2.2,2.2H718.1c-1.2,0-2.2-1-2.2-2.2v-15
			C715.9,1479.8,716.9,1478.8,718.1,1478.8z"/>
		<path class="st15" d="M718.1,1516h395.3c1.2,0,2.2,1,2.2,2.2v15c0,1.2-1,2.2-2.2,2.2H718.1c-1.2,0-2.2-1-2.2-2.2v-15
			C715.9,1517,716.9,1516,718.1,1516z"/>
		<path class="st12" d="M3841.7,1490c12.8-5.6,27.8-20.1,38.9-32.3v-62.6c0-16.4,18-29.9,40-29.9h747.9c22,0,40,13.4,40,29.9v144
			c0,16.4-18,29.9-40,29.9h-747.9c-22,0-40-13.5-40-29.9v-51.1L3841.7,1490z"/>
		<path class="st15" d="M4653.6,1440.8h-646.3c-1.2,0-2.2-1-2.2-2.2v-15c0-1.2,1-2.2,2.2-2.2h646.3c1.2,0,2.2,1,2.2,2.2v15
			C4655.8,1439.8,4654.8,1440.8,4653.6,1440.8z"/>
		<path class="st15" d="M4653.6,1478h-646.3c-1.2,0-2.2-1-2.2-2.2v-15c0-1.2,1-2.2,2.2-2.2h646.3c1.2,0,2.2,1,2.2,2.2v15
			C4655.8,1477,4654.8,1478,4653.6,1478z"/>
		<path class="st15" d="M4402.6,1515.1h-395.3c-1.2,0-2.2-1-2.2-2.2v-15c0-1.2,1-2.2,2.2-2.2h395.3c1.2,0,2.2,1,2.2,2.2v15
			C4404.8,1514.1,4403.8,1515.1,4402.6,1515.1z"/>
		<g class="st45">
			<path class="st46" d="M2273,1467.8h896.7c0,0-52.9-138.6-94.9-121.2c-42,17.5-82.1-35-116.8-132.8c-34.7-97.9-64.7-11.7-80,37.3
				c-15.3,48.9-58.7,130.5-97,25.6c-38.3-104.9-68.1-230.6-115.6-88.5s-84-21-84-21s-25.5-242.9-152.4,7
				c-80.3,158.2-90.3-262.1-90.3-262.1s5.5-242.9-65.7-185.2L2273,1467.8z"/>
			<rect x="2366.9" y="958.1" class="st47" width="57" height="504"/>
			<rect x="2548.8" y="1164.5" class="st48" width="57" height="297.7"/>
			<rect x="2721.4" y="958.1" class="st47" width="57" height="504"/>
			<rect x="2903.2" y="1164.5" class="st41" width="57" height="297.7"/>
			<polygon class="st49" points="3151.8,1522.5 2203,1522.5 2203,896.1 2214.9,896.1 2214.9,1510.5 3151.8,1510.5 			"/>
			<polygon class="st49" points="2179.9,928.5 2239.6,928.5 2209.7,869.7 			"/>
			<polygon class="st49" points="3138.6,1485.6 3138.6,1545.3 3197.4,1515.5 			"/>
			<polygon class="st49" points="3078.1,800.2 3124.7,837.5 3138.1,773 			"/>
			<polygon class="st49" points="2611,966.9 2383.8,796.6 2286.4,849.4 2282.4,842 2384.6,786.6 2609.7,955.4 2728.9,812.5 
				2959.5,955.8 3115.5,796.2 3121.5,802.1 2960.8,966.5 2730.7,823.5 			"/>
			<circle class="st47" cx="2383.5" cy="794.7" r="20.4"/>
			<circle class="st47" cx="2729.1" cy="821.1" r="20.4"/>
			<circle class="st47" cx="2958.3" cy="961.1" r="20.4"/>
		</g>
		<path class="st50" d="M1438.1,1731.1c-2,53.2-45.8,94.6-98,92.6s-92.8-46.8-90.8-99.9c2-53.1,45.8-94.6,98-92.6
			S1440.1,1677.9,1438.1,1731.1z"/>
		<path class="st15" d="M1337.8,1772.4c-1.1,0-2.1-0.4-2.8-1.2l-35.8-38.2c-1.5-1.6-1.4-4,0.1-5.5c1.5-1.5,3.9-1.5,5.4,0
			c0,0,0.1,0.1,0.1,0.1l32.8,35l49.4-62.9c1.3-1.7,3.7-2,5.3-0.7c0,0,0,0,0.1,0.1c1.7,1.4,1.9,3.8,0.6,5.5l-52.2,66.4
			c-0.7,0.9-1.7,1.4-2.8,1.5L1337.8,1772.4z"/>
		<path class="st12" d="M4137.5,1713c-2,53.2-45.8,94.7-98,92.6s-92.8-46.8-90.8-99.9c2-53.1,45.8-94.7,98-92.6
			C4098.8,1615.2,4139.5,1659.9,4137.5,1713z"/>
		<path class="st15" d="M4037.2,1754.4c-1.1,0-2.1-0.4-2.8-1.2l-35.8-38.2c-1.5-1.6-1.4-4,0.1-5.5c1.5-1.5,3.9-1.4,5.4,0.1
			c0,0,0,0,0.1,0.1l32.8,35l49.4-62.9c1.3-1.7,3.7-2,5.3-0.7c0,0,0,0,0.1,0.1c1.7,1.4,2,3.8,0.6,5.5l-52.2,66.4
			c-0.7,0.9-1.7,1.4-2.8,1.5L4037.2,1754.4z"/>
	</g>
</g>
</svg>
