<?xml version="1.0" encoding="utf-8"?>
<!-- Generator: Adobe Illustrator 24.1.0, SVG Export Plug-In . SVG Version: 6.00 Build 0)  -->
<svg version="1.1" id="Capa_1" xmlns="http://www.w3.org/2000/svg" xmlns:xlink="http://www.w3.org/1999/xlink" x="0px" y="0px"
	 viewBox="0 0 5000 3575.6" style="enable-background:new 0 0 5000 3575.6;" xml:space="preserve">
<style type="text/css">
	.st0{fill:#C23825;enable-background:new    ;}
	.st1{opacity:0.93;}
	.st2{opacity:0.15;fill:#FFFFFF;enable-background:new    ;}
	.st3{opacity:0.15;}
	.st4{fill:#FFFFFF;}
	.st5{opacity:0.57;fill:#FFFFFF;enable-background:new    ;}
	.st6{opacity:0.47;fill:#FFFFFF;enable-background:new    ;}
	.st7{opacity:0.14;fill:#FFFFFF;enable-background:new    ;}
	.st8{opacity:0.14;}
	.st9{opacity:0.1;}
	.st10{opacity:0.21;fill:#FFFFFF;enable-background:new    ;}
	.st11{opacity:0.1;fill:#FFFFFF;enable-background:new    ;}
	.st12{fill:#7C7C7C;}
	.st13{opacity:0.91;fill:#FFFFFF;enable-background:new    ;}
	.st14{opacity:0.65;fill:#FFFFFF;enable-background:new    ;}
	.st15{opacity:0.79;fill:#FFFFFF;enable-background:new    ;}
	.st16{opacity:0.53;fill:#FFFFFF;enable-background:new    ;}
	.st17{fill:#4F2C3E;}
	.st18{opacity:0.32;fill:#020E49;enable-background:new    ;}
	.st19{opacity:0.71;fill:#020E49;enable-background:new    ;}
	.st20{fill:#F8BBC2;}
	.st21{opacity:0.3;fill:#FE8796;enable-background:new    ;}
	.st22{opacity:0.3;fill:#E8635D;enable-background:new    ;}
	.st23{opacity:0.65;fill:#FE7101;enable-background:new    ;}
	.st24{fill:#514F4F;}
	.st25{fill:#FE7101;}
	.st26{opacity:0.18;fill:#03157A;enable-background:new    ;}
	.st27{fill:#3F3F3F;}
	.st28{fill:#353535;}
	.st29{opacity:0.3;}
	.st30{fill:#E8635D;}
	.st31{fill:#010A2B;}
	.st32{fill:#020E49;}
	.st33{opacity:0.75;fill:#E8635D;enable-background:new    ;}
	.st34{opacity:0.67;}
	.st35{opacity:0.1;fill:#000060;enable-background:new    ;}
	.st36{fill:#DD4400;}
	.st37{opacity:0.9;fill:#FE7101;enable-background:new    ;}
	.st38{fill:#350D1F;}
	.st39{fill:#FB4A44;}
	.st40{fill:#FE241B;}
	.st41{fill:#232323;}
	.st42{opacity:0.5;fill:#350D1F;enable-background:new    ;}
	.st43{fill:#D85B05;}
	.st44{fill:#843804;}
	.st45{opacity:0.7;}
	.st46{fill:url(#SVGID_1_);}
	.st47{fill:url(#SVGID_2_);}
	.st48{opacity:0.17;fill:#FFFFFF;enable-background:new    ;}
	.st49{opacity:0.9;fill:#FFFFFF;enable-background:new    ;}
	.st50{opacity:0.17;fill:#03157A;enable-background:new    ;}
	.st51{fill:none;stroke:#000000;stroke-miterlimit:10;}
	.st52{opacity:0.42;fill:#FE7101;enable-background:new    ;}
	.st53{clip-path:url(#SVGID_4_);}
	.st54{opacity:0.68;}
	.st55{opacity:0.11;fill:#FFFFFF;enable-background:new    ;}
	.st56{fill:#28007A;}
	.st57{fill:#2D1D2C;}
	.st58{fill:none;stroke:#2D1D2C;stroke-miterlimit:9.9999;}
	.st59{opacity:0.75;fill:url(#SVGID_5_);enable-background:new    ;}
	.st60{opacity:0.49;}
	.st61{fill:url(#SVGID_6_);}
	.st62{fill:url(#SVGID_7_);}
	.st63{opacity:0.35;fill:#FFB600;enable-background:new    ;}
	.st64{opacity:0.72;fill:#FFB600;enable-background:new    ;}
	.st65{opacity:0.54;fill:#FFB600;enable-background:new    ;}
	.st66{opacity:0.54;fill:#FFFFFF;enable-background:new    ;}
	.st67{opacity:0.78;}
	.st68{opacity:0.69;fill:#FE7101;enable-background:new    ;}
	.st69{opacity:0.44;fill:#FE7101;enable-background:new    ;}
	.st70{opacity:0.43;fill:#FE7101;enable-background:new    ;}
	.st71{opacity:0.45;fill:#FE7101;enable-background:new    ;}
	.st72{opacity:0.78;fill:#FE7101;enable-background:new    ;}
	.st73{fill:none;stroke:#FFB600;stroke-miterlimit:10;}
	.st74{opacity:0.61;}
	.st75{opacity:0.42;}
	.st76{opacity:0.56;fill:#FFFFFF;enable-background:new    ;}
	.st77{fill:#FFB600;}
	.st78{opacity:0.5;fill:#FE7101;enable-background:new    ;}
	.st79{opacity:0.17;fill:#FE7101;enable-background:new    ;}
	.st80{opacity:0.67;fill:#FFB600;enable-background:new    ;}
	.st81{opacity:0.29;fill:#FFB600;enable-background:new    ;}
	.st82{opacity:0.8;fill:#F32735;enable-background:new    ;}
	.st83{fill:#E01B07;}
	.st84{fill:#C12000;}
	.st85{fill:#771704;}
</style>
<g>
	<g>
		<path class="st0" d="M4445.6,2748.7c0,2.6-0.1,5.2-0.2,7.8c-0.1,4-0.3,8-0.6,12c-0.1,2.3-0.3,4.6-0.5,6.9
			c-0.1,1.1-0.2,2.3-0.3,3.4c-0.4,5.2-1,10.3-1.6,15.5c-0.4,3.2-0.8,6.4-1.3,9.6l0,0c-0.4,2.9-0.9,5.7-1.4,8.6
			c-0.6,3.6-1.2,7.1-2,10.7c-0.4,2.2-0.9,4.4-1.3,6.6c-0.6,2.8-1.2,5.7-1.9,8.5v0.1c0,0.2-0.1,0.4-0.1,0.6c-0.6,2.6-1.3,5.2-2,7.8
			c-2.2,8.4-4.6,16.7-7.4,25.1c-0.9,2.8-1.9,5.5-2.9,8.3c-2.9,8.3-6.2,16.6-9.8,24.8c-1.3,2.9-2.6,5.8-3.9,8.7s-2.7,5.7-4.1,8.5
			s-2.8,5.6-4.3,8.3c-1.3,2.4-2.5,4.7-3.8,7.1c-0.8,1.5-1.7,3-2.5,4.4c0,0,0,0.1-0.1,0.1c0,0.1,0,0.1-0.1,0.1
			c-1.4,2.4-2.8,4.7-4.2,7.1c-0.1,0.2-0.2,0.3-0.3,0.5c-1.3,2.2-2.6,4.3-4,6.4c-0.3,0.5-0.6,1-1,1.5c-1.2,1.9-2.5,3.8-3.7,5.6
			c-1.9,2.8-3.9,5.6-5.9,8.3c-1.3,1.9-2.7,3.7-4.1,5.6c-6.7,8.8-13.7,17.3-21,25.3c-1.8,2-3.7,4-5.6,6c-1.4,1.5-2.8,2.9-4.3,4.4
			c-0.8,0.8-1.6,1.7-2.4,2.4c-1.3,1.3-2.7,2.6-4,3.9c-0.4,0.4-0.8,0.8-1.1,1.1c-1.4,1.3-2.8,2.7-4.2,3.9c-1.1,1.1-2.2,2.1-3.4,3.1
			c-0.8,0.8-1.6,1.5-2.4,2.2c-1,0.9-1.9,1.7-2.9,2.5c-1.6,1.4-3.2,2.7-4.8,4.1c-0.1,0.1-0.2,0.2-0.3,0.3c-2,1.7-4.1,3.3-6.1,5
			c-0.8,0.7-1.7,1.4-2.5,2l0,0l0,0c-1.7,1.3-3.5,2.7-5.2,4c-6.1,4.6-12.3,9-18.7,13.2c-2,1.3-4,2.6-6,3.9c-0.5,0.3-1,0.6-1.5,0.9
			c-2,1.3-4.1,2.5-6.1,3.8c-2.6,1.6-5.2,3.1-7.8,4.6l0,0c-2.6,1.5-5.3,3-7.9,4.5c-1.7,0.9-3.4,1.8-5,2.7c-3.8,2-7.5,3.9-11.4,5.8
			c-1.3,0.6-2.5,1.2-3.8,1.8c-2.1,1-4.2,2-6.4,3c-0.2,0.1-0.4,0.2-0.5,0.3c-0.3,0.2-0.6,0.3-1,0.4c-1.8,0.8-3.6,1.7-5.4,2.5
			c-1,0.5-2.1,1-3.2,1.4c-1.9,0.8-3.8,1.7-5.7,2.5c-2.8,1.2-5.6,2.4-8.5,3.5c-2.5,1-5,2-7.6,3c-1,0.4-2,0.8-3,1.1
			c-1.7,0.6-3.5,1.3-5.2,1.9c-1.3,0.5-2.6,1-3.9,1.4c-1.5,0.6-3.1,1.1-4.7,1.7c-1.2,0.4-2.5,0.9-3.7,1.3c-1.5,0.5-3.1,1-4.6,1.5
			c-2.3,0.8-4.6,1.5-6.9,2.2c-0.1,0-0.2,0.1-0.2,0.1c-2.1,0.7-4.1,1.3-6.2,1.9c-1.6,0.5-3.2,1-4.8,1.4c-2.1,0.6-4.3,1.3-6.5,1.8
			c-2.3,0.6-4.6,1.3-6.9,1.9c-1.6,0.4-3.2,0.9-4.9,1.3c-1.1,0.3-2.1,0.6-3.2,0.8c-1.9,0.5-3.9,1-5.8,1.5c-4.1,1-8.3,2-12.5,2.9
			c-1.8,0.4-3.6,0.8-5.4,1.2c-1.5,0.3-2.9,0.6-4.4,0.9c-2.9,0.6-5.8,1.2-8.7,1.8c-1.9,0.4-3.8,0.7-5.7,1.1c-1.2,0.2-2.4,0.4-3.5,0.6
			c-2.8,0.5-5.5,1-8.3,1.5c-3.1,0.5-6.2,1.1-9.4,1.5h-0.1c-2.7,0.4-5.5,0.9-8.2,1.3c-2.2,0.3-4.5,0.6-6.7,1c-5,0.7-10,1.3-15,1.9
			c-2.5,0.3-5,0.6-7.6,0.9c-2.3,0.3-4.5,0.5-6.8,0.7c-2,0.2-3.9,0.4-5.9,0.6c-3.2,0.3-6.3,0.6-9.5,0.9c-0.2,0-0.4,0-0.6,0.1
			c-3,0.3-6,0.5-9,0.7c-5.4,0.4-10.7,0.8-16.1,1.1c-1.8,0.1-3.6,0.2-5.5,0.3c-6.9,0.4-13.9,0.6-20.8,0.9c-1.9,0.1-3.8,0.1-5.6,0.2
			c-1.4,0.1-2.8,0.1-4.3,0.1c-2.7,0.1-5.5,0.1-8.2,0.1c-1.8,0.1-3.6,0.1-5.4,0.1c-7.9,0.1-15.9,0.1-23.8,0c-2.8,0-5.6-0.1-8.3-0.1
			c-2.9-0.1-5.9-0.1-8.8-0.2c-0.1,0-0.1,0-0.1,0c-2.8-0.1-5.6-0.2-8.3-0.3h-0.5c-3.1-0.1-6.1-0.2-9.2-0.3c-3.8-0.2-7.5-0.3-11.2-0.5
			c-6.3-0.3-12.6-0.7-18.9-1.1c-2.1-0.1-4.1-0.3-6.2-0.4h-0.1c-2.3-0.1-4.6-0.3-7-0.5c-3.6-0.3-7.3-0.5-10.9-0.8
			c-0.3,0-0.6-0.1-1-0.1c-2.8-0.2-5.7-0.5-8.5-0.7l-6.4-0.6c-3-0.3-6-0.6-9.1-0.9c-7.9-0.8-15.8-1.7-23.6-2.6
			c-2.5-0.3-5-0.6-7.6-0.9c-3-0.4-6-0.8-9-1.1c-0.5-0.1-1.1-0.1-1.6-0.2c-0.1,0-0.3,0-0.4,0c-0.4-0.1-0.8-0.1-1.3-0.2
			c-3.8-0.5-7.5-1-11.3-1.5c-3.1-0.4-6.1-0.9-9.2-1.3c-3.3-0.5-6.6-1-9.8-1.5c-2.3-0.3-4.6-0.7-6.9-1.1c-3.3-0.5-6.6-1-9.9-1.6
			c-37.2-6.1-72.7-13.3-105.5-21c-0.4-0.1-0.9-0.2-1.3-0.3l0,0c-5.6-1.3-11.1-2.7-16.5-4c-148.1-37-287.8-101.4-433.6-146.6
			c-531.7-165.3-1098.2-70.7-1638.7-9.7c-68,7.7-138.4,12.2-209.7,12.7c-31.9,0.2-63.9-0.3-96-1.8h-0.3c-0.1,0-0.1,0-0.2,0
			c-11.5-0.5-23.1-1.2-34.7-1.9c-31.1-2-62.1-4.9-93-8.8c-24.7-3.1-49.4-6.7-73.8-11c-27.8-4.9-55.3-10.6-82.6-17.1
			c-3.9-1-7.8-1.9-11.7-2.9c-43.8-10.9-86.9-24.2-128.7-39.9c-4.6-1.7-9-3.4-13.5-5.2l0,0c-38.4-15-75.7-32.2-111.7-51.8
			c-17.9-9.7-35.5-20.5-52.4-32.2l0,0c-2-1.4-4-2.8-6-4.2c-40.1-28.5-76.5-62.4-106.3-100.8l0,0c-23.1-29.8-42.2-62.3-55.8-97
			c-4.9-12.6-9.1-25.4-12.5-38.6c-0.9-3.5-1.8-7.1-2.6-10.6c-1.1-5-2.2-10-3.1-15.1c-0.5-3-1-6-1.4-9c-2.2-15-3.4-30.1-3.6-45.2
			c-0.1-3-0.1-6,0-9l0,0c0.5-52.9,12.5-105.7,32.1-155.6c0.9-2.4,1.9-4.7,2.8-7.1c8.6-21.1,18.6-41.7,29.6-61.5
			c64.6-117.8,167.1-222.4,252.1-326.4c69.6-85.1,135.9-171.6,152.5-273c7.1-42.9,5.2-88.4-8.9-137.6
			c-29.4-102.2-122.1-188.4-125.3-294.4c-6.9-229.7,109.1-483.6,314.6-598.3c255.4-142.7,550.6-8.6,811.8,26.4
			c287.4,38.6,573.7-29.6,839.3-137.2c131.5-53.3,259-116,384.9-181.2c108.1-55.9,229.3-98.4,350.4-59.2
			c178.6,57.9,272.7,262.8,269.2,440.3c-2.3,118-30.5,232.2,48,333.6c45.6,58.9,109.4,100.8,174.5,137.2
			c138.4,77.3,280.4,148.5,365.4,289.1c80.6,133.2,78.3,284.2-2,416.8c-20.8,34.3-45.1,66.7-62.5,102.9
			c-46.4,96.5,0,168.8,41.5,255.7c50.1,104.9,112.4,223.7,146.1,345.4l0,0c0.6,2.2,1.2,4.5,1.8,6.7
			C4438,2637.4,4446.8,2693.3,4445.6,2748.7z"/>
		<g class="st1">
			<path class="st2" d="M3213.5,814.6l-97.6-39.5c-1.8-0.7-2.6-2.7-1.9-4.5l182.8-451.1c0.7-1.8,2.7-2.6,4.5-1.9l97.6,39.5
				c1.8,0.7,2.6,2.7,1.9,4.5L3218,812.7C3217.3,814.5,3215.3,815.3,3213.5,814.6z"/>
			<g class="st3">
				<path class="st4" d="M2647.3,994.9v-64.3c0-1.3-1.1-2.4-2.4-2.4h-377.7c-1.3,0-2.4,1.1-2.4,2.4v64.3c0,1.3,1.1,2.4,2.4,2.4
					h377.7C2646.2,997.3,2647.3,996.2,2647.3,994.9z"/>
				<path class="st5" d="M2267.6,1153.9V997.4c0-1.6,1.3-3,3-3h321.9c1.6,0,3,1.3,3,3V1154c0,1.6-1.3,3-3,3h-321.9
					C2269,1156.9,2267.6,1155.6,2267.6,1153.9z"/>
				<path class="st4" d="M2256.1,1284.8v-133.6c0-1.6,1.3-3,3-3h435.5c1.6,0,3,1.3,3,3v133.6c0,1.6-1.3,3-3,3h-435.5
					C2257.5,1287.7,2256.1,1286.4,2256.1,1284.8z"/>
				<path class="st4" d="M2244.9,809V675.4c0-1.6,1.3-3,3-3h435.5c1.6,0,3,1.3,3,3V809c0,1.6-1.3,3-3,3h-435.5
					C2246.3,811.9,2244.9,810.6,2244.9,809z"/>
				<path class="st4" d="M2540.7,1111.1c5.6-26.2,0.7-56.9-0.3-83.6c-0.2-4.9-7.5-4.9-7.6,0c-1,26.6-5.9,57.4-0.3,83.6
					C2533.4,1115.4,2539.7,1115.4,2540.7,1111.1z"/>
				<path class="st4" d="M2502.3,1111.1c5.6-26.2,0.7-56.9-0.3-83.6c-0.2-4.9-7.5-4.9-7.6,0c-1,26.6-5.9,57.4-0.3,83.6
					C2495,1115.4,2501.4,1115.4,2502.3,1111.1z"/>
				<path class="st4" d="M2464,1111.1c5.6-26.2,0.7-56.9-0.3-83.6c-0.2-4.9-7.5-4.9-7.6,0c-1,26.6-5.9,57.4-0.3,83.6
					C2456.7,1115.4,2463,1115.4,2464,1111.1z"/>
			</g>
			<path class="st6" d="M3456.3,1296.1V240.9h-50.4v571H2241.5V630h-50.4v181.9H1998v36.4h193.1v447.8h-201.5v36.4h201.5v436.6H1998
				v36.4h193.1v126h50.4v-126h1164.4v126h50.4v-599h417.1v-36.4L3456.3,1296.1L3456.3,1296.1z M3405.9,1769.2H2241.5v-436.6h1164.4
				V1769.2z M3405.9,1296.1H2241.5V848.3h1164.4V1296.1z"/>
			<path class="st2" d="M3221.9,494.1l-51.3-37.3c-1.2-0.9-3-0.6-3.9,0.6l-221.6,304.9c-0.9,1.2-0.6,3,0.6,3.9l51.3,37.3
				c1.2,0.9,3,0.6,3.9-0.6L3222.5,498C3223.4,496.8,3223.1,495,3221.9,494.1z"/>
			<path class="st7" d="M2632.5,1749.8l-44,18.3c-1.5,0.6-3.2-0.1-3.9-1.6l-130.1-312.3c-0.6-1.5,0.1-3.2,1.6-3.9l44-18.3
				c1.5-0.6,3.2,0.1,3.9,1.6l130.1,312.3C2634.7,1747.4,2634,1749.1,2632.5,1749.8z"/>
			<g class="st8">
				<path class="st4" d="M2398.8,1753l-95.6,15.9c-1.9,0.3-3.7-1-4-2.9l-62.8-378.4c-0.3-1.9,1-3.7,2.9-4l95.6-15.9
					c1.9-0.3,3.7,1,4,2.9l62.8,378.4C2402,1751,2400.7,1752.7,2398.8,1753z"/>
				<path class="st4" d="M2320.7,1409.9c-17.4-2.9-36,3.9-52.9,6.7c-4,0.7-5.3,5.2-4.6,9.4c0.7,4.2,3.4,8.1,7.4,7.4
					c16.9-2.8,36.7-2.4,52.3-10.7C2327.2,1420.3,2325.6,1410.7,2320.7,1409.9z"/>
				<path class="st4" d="M2344.4,1552.8c-17.4-2.9-36,3.9-52.9,6.7c-4,0.7-5.3,5.2-4.6,9.4c0.7,4.2,3.4,8.1,7.4,7.4
					c16.9-2.8,36.7-2.4,52.3-10.7C2350.9,1563.2,2349.4,1553.6,2344.4,1552.8z"/>
				
					<ellipse transform="matrix(0.9865 -0.1637 0.1637 0.9865 -213.0358 397.6113)" class="st4" cx="2306" cy="1491.4" rx="12.8" ry="17.3"/>
			</g>
			<g class="st9">
				<path class="st4" d="M2515.8,1744.9l-83.6,19.6c-1.9,0.4-3.7-0.7-4.2-2.6l-72.1-307.8c-0.4-1.9,0.7-3.7,2.6-4.2l83.6-19.6
					c1.9-0.4,3.7,0.7,4.2,2.6l72.1,307.8C2518.8,1742.6,2517.6,1744.5,2515.8,1744.9z"/>
				<path class="st4" d="M2411.8,1482.5c-6.1,1.4-8.8,13-5.9,25.5c2.9,12.5,10.5,21.7,16.6,20.2s8.8-13,5.9-25.5
					C2425.5,1490.3,2417.9,1481.1,2411.8,1482.5z"/>
				<path class="st4" d="M2452.3,1572.9c-8.2,1.2-16.3,3.3-24.4,5.1c-7.3,1.6-15,2-21.3,7.1c-3.1,2.5-0.5,13.6,3.4,14.4
					c7.9,1.8,15-1.3,22.2-3.1c8-2,16.2-3.7,24.1-6.3c2.9-0.4,3.2-5.1,2-9.5C2457.4,1576.1,2455,1572,2452.3,1572.9z"/>
			</g>
			<path class="st10" d="M3602.7,1131.1l-22.2,0.1l-25.8,0.1c-88.4-118.8-3.2-252.2-3.2-252.2c34.1,35.7,52.1,73.7,60.3,110.1
				C3624.5,1045.5,3613.6,1097.9,3602.7,1131.1z"/>
			<path class="st11" d="M3658.1,1130.8l-55.3,0.3c10.9-33.2,21.8-85.5,9.1-141.9c28.5-45.6,64.7-71.4,64.7-71.4
				C3711.9,1006.6,3687.9,1080.9,3658.1,1130.8z"/>
			<polygon class="st11" points="3727.4,1130.5 3697.4,1293 3532.2,1293.7 3506.3,1131.5 3554.7,1131.3 3580.5,1131.2 
				3602.7,1131.1 3658.1,1130.8 			"/>
		</g>
		<g>
			<path class="st12" d="M3917.5,1036.9c26.8,7.5,58.1,6.9,79.2-11.2c21.1-18.1,23.6-57.2-0.3-71.4c-18.4-11-42-3.4-63.3-6.3
				c-56-7.5-89.7-162.4-133.5-87.1C3762.1,925.6,3863.7,1021.9,3917.5,1036.9z"/>
			<path class="st12" d="M2432,523.5c20.2-13.6,26.5-27.5-0.7-38.1c-68.7-26.9-143.3,14.2-207.5,35.4c-79.6,26.4-133.1,0-213.6,2.6
				c-61.7,2-67.9,30.1-16.5,51.8c39.6,16.7,100.8,16.6,143.7,16.9c55.2,0.2,112.8-10.1,166.8-20.3
				C2326.3,567.6,2398.4,546,2432,523.5z"/>
			<path class="st12" d="M675.7,1460.2c-26.9,26.2-24.2,76.9,6.4,98.7c30.6,21.8,80.9,5.9,91.8-30.1s-24.7-77.7-61.7-71
				c-12.9,2.3-24.4,9.3-35.6,16.1"/>
			<circle class="st13" cx="1436.4" cy="1217.7" r="155.2"/>
			<g>
				<circle class="st13" cx="2697.4" cy="1636.6" r="146.7"/>
				
					<ellipse transform="matrix(0.1294 -0.9916 0.9916 0.1294 1076.2836 4144.646)" class="st14" cx="2898.5" cy="1459.4" rx="32.9" ry="32.9"/>
			</g>
			<g>
				
					<ellipse transform="matrix(0.2298 -0.9732 0.9732 0.2298 1521.1068 3291.1848)" class="st13" cx="2840" cy="684.5" rx="43.1" ry="43.1"/>
				
					<ellipse transform="matrix(0.7071 -0.7071 0.7071 0.7071 227.515 2088.239)" class="st15" cx="2634.5" cy="769.5" rx="10.8" ry="10.8"/>
				<circle class="st4" cx="3675.3" cy="1518.2" r="21.5"/>
				<circle class="st15" cx="813" cy="2183.1" r="10.8"/>
				<g>
					
						<ellipse transform="matrix(0.7071 -0.7071 0.7071 0.7071 -1172.123 1265.4556)" class="st16" cx="941.5" cy="2047.6" rx="100.5" ry="100.5"/>
				</g>
			</g>
		</g>
		<g>
			<path class="st17" d="M2225.9,1798.6c-13.5,2.8-839.5,176.3-839.5,176.3c-4.5,1-18.2,23.2-22.4,27.1
				c-19.4,17.9-43.5,29.4-69.8,32.7c-137.7,17.5-305.7-159.5-297.9-292.5c8.1-137.7,164-250.1,258.4-332.7
				c154.6-135.2,114.8-376.8,245.6-531.3c51.3-60.6,121.7-111.1,197.4-135.6c-2.5,0.4-4.9,0.9-7.4,1.4c-12.6,2.5-25.2,5.5-37.7,8.8
				c-6.2,1.7-12.5,3.4-18.4,5.3c-1.2,0.4-2.8,1.1-4.3,1.7l-4.5,1.8c-3,1.2-6,2.3-8.9,3.7c-23.4,10.4-45.7,23.5-66.2,39
				c-20.7,15.3-39.6,33-57,52c-17.5,19-33.3,39.6-47.9,61c-14.5,21.5-27.7,43.9-39.7,66.9c-24,46-43.6,94.4-59.8,143.9
				c-8.2,24.7-15.6,49.8-24.5,74.5c-8.8,24.7-19.8,48.9-34.3,70.9c-14.8,21.9-33.3,41.2-54,57.3c-20.7,16.1-42.6,30.6-64.8,44.4
				c-11.1,6.9-22.3,13.6-33.6,20.3c-5.6,3.3-11.1,6.9-16.6,10.3c-2.7,1.8-5.5,3.4-8.2,5.2l-8,5.6c-21.3,14.9-41.3,31.9-58.3,51.6
				s-31,42.2-39.5,66.8c-4.1,12.4-6.9,25.1-8.4,38.1c-1.2,13-1.1,26.1,0.3,39.1c-1.5-13-1.8-26.1-0.7-39.1c1.3-13,4-25.9,8-38.3
				c8.3-24.9,22.1-47.6,39-67.6s36.9-37.3,58.1-52.6l8-5.8c2.7-1.9,5.5-3.6,8.2-5.4c5.5-3.5,11-7.1,16.6-10.5
				c11.2-6.8,22.3-13.6,33.3-20.6c22-14,43.6-28.7,63.9-44.8c20.3-16.2,38.1-35.2,52.3-56.8c14-21.7,24.5-45.5,32.9-70.1
				c8.6-24.5,15.7-49.6,23.6-74.6c15.7-50,34.9-98.9,58.7-145.8c11.9-23.4,25.1-46.2,39.5-68.2c14.6-21.9,30.4-43,48.1-62.6
				c17.6-19.6,36.8-38,58-54c21-16.2,43.9-30,68-41.1c3-1.5,6.1-2.7,9.2-4l4.6-1.9c1.6-0.6,2.9-1.3,4.8-1.9c6.5-2.2,12.7-4,19.1-5.8
				c12.7-3.5,25.5-6.7,38.5-9.4s26-5,39.5-6.2c6.8-0.5,13.6-0.8,20.9-0.1c3.6,0.4,7.4,1.1,11.5,2.8c0.6,0.3,1.2,0.6,1.8,0.9
				c65.2-7.5,131.5,6.4,190.7,51.1c3.6,2.7,7,5.4,10.3,8.2c104,87.8,98.6,236,82,358.6c-21.5,159-12.4,318.6,57.2,465.5
				C2110.8,1631.2,2195.9,1804.2,2225.9,1798.6z"/>
			<path class="st18" d="M1592.2,1206.3c-8.2,2.9-15.5,7-21.3,12.8c-27.4,27.2-42.4,83-64,116.3c-25.3,38.9-54,75.6-85.8,109.4
				c-116.4,123.9-266.6,195.2-301.7,377.9c-5.9,30.8-8.1,63.7,4.2,92.6c12.3,28.9,42.6,51.9,73.5,47.1c18.5-2.9,34.3-14.9,47.9-27.8
				c26.3-24.9,47.8-54.9,63-87.7c23.6-50.9,35.8-90.7,95.9-80.3c69,12,137,5.5,207.1-1.2c156.6-14.8,368.9-60.7,524.1-85.8
				c0,0-193.1-246.3-137.2-403.1c39.6-110.7-208.4-57.4-278.6-66.1C1685.1,1206.2,1629.1,1193.3,1592.2,1206.3z"/>
			<path class="st19" d="M1701.5,1174.4c-1.7,0-42.4,112.3-45,121.8c-25.2,89.2-50.7,161.8-94.1,224.8c-29,42-84.7,128.8-72,202
				c13.6,78.4,524.4-77,524.4-77s-95.6-153.9-61.6-310.7C1987.2,1178.7,1701.7,1174.4,1701.5,1174.4z"/>
			<path class="st20" d="M2030.5,1247.9c-40.9,98.2-100.2,147.3-131.5,167.7c-7.4,4.8-15.7,8.3-24.2,10.1c-0.3,0.1-0.6,0.1-0.9,0.2
				c-5.6,1.1-11.4,1.5-17.2,1.2c-80.2-4.2-135.1-32.5-171.7-63.5c-2.5-2.2-5-4.3-7.3-6.5l0,0c-0.2-0.2-0.3-0.3-0.5-0.5
				c-3.1-2.9-6-5.7-8.9-8.6c-35.8-36.4-48.1-71.6-48.1-71.6c-1,0-1.9,0-2.9-0.1c-16.3-0.9-31.3-9.6-40.2-23.5l-24.3-38.2
				c-4.6-7.2-6.8-15.3-6.8-23.4c0-3.6,0.4-7.1,1.3-10.6c2-7.9,6.2-15.4,12.5-21.2c8.5-7.9,21.9-7.2,29.4,1.6l10.2,11.9
				c0.5,0.5,1,1.1,1.5,1.7l6.6,7.7l1.5,1.8l-0.1-0.4l-1.2-4.7c0,0,0,0,0-0.1l-15.5-62l246.3-285.5l91,110.6
				c0,0,117.6,30.8,103.6,100.8c-9.7,48.5-1.9,114.5,3.8,150.4C2039.7,1211.7,2037.6,1230.7,2030.5,1247.9z"/>
			<path class="st20" d="M1912.6,1605.4l-7.5,16.1l-31.7,67.8l-207.1-28c0,0-67.6-53.1-72.2-91c-1.3-10.3,2.2-19.5,12.9-26.1
				c1.8-1.2,3.9-2.2,6.1-3.2c1.1-0.5,2.3-1.1,3.4-1.7c18-9.9,30.9-34,40.2-63.1c3.8-12,7-24.8,9.7-37.8c4.6-22,7.6-44.6,9.7-64.7
				c0.1-0.3,0.1-0.7,0.1-1c0.1-1.3,0.3-2.6,0.4-3.9v-0.1c0.1-1.6,0.3-3.2,0.4-4.7c0.2-2.4,0.4-4.7,0.6-6.9
				c0.7-8.5,1.2-16.2,1.6-22.8c0.9-15.7,1.1-25.6,1.1-25.6s223.9-95.2,198.7,22.4c-3.7,17.2-5.6,35.1-6.1,53.3
				c-0.4,13.8,0,27.7,0.9,41.5c0,0.4,0.1,0.8,0.1,1.2c0.1,1.6,0.2,3.2,0.4,4.8c0.2,2.4,0.4,4.8,0.6,7.1c0.2,2.2,0.4,4.5,0.7,6.7
				c0.5,4.8,1.1,9.6,1.7,14.4l0,0c4.1,31.2,10.5,60.5,16.8,84.6c0.4,1.6,0.8,3.2,1.3,4.8c0.8,2.8,1.5,5.5,2.2,8.1
				c1.8,6.6,3.6,12.7,5.3,18.1c0.3,0.8,0.5,1.7,0.8,2.5c0.6,2,1.2,3.8,1.7,5.6C1909.6,1597.4,1912.6,1605.4,1912.6,1605.4z"/>
			<path class="st21" d="M1877.2,1460.1c-71.6,18-163,35.5-220.5,16.2c3.8-12,7-24.8,9.7-37.8c4.6-22,7.6-44.6,9.7-64.7
				c0.1-0.3,0.1-0.7,0.1-1c0.1-1.3,0.3-2.6,0.4-3.9v-0.3c0.1-1.5,0.3-3.1,0.4-4.5c0.2-2.4,0.4-4.7,0.6-6.9l0,0
				c36.4,33.4,93.3,65.4,179,69.9c5.8,0.3,11.6-0.1,17.2-1.2c0,0.4,0.1,0.8,0.1,1.2c0.1,1.6,0.2,3.2,0.4,4.8
				c0.1,0.9,0.2,1.8,0.3,2.8c0.1,1.5,0.2,2.9,0.4,4.4c0.2,2.2,0.4,4.5,0.7,6.7C1876,1450.5,1876.6,1455.4,1877.2,1460.1z"/>
			<path class="st22" d="M1874.5,1434.7c-4.9,0.8-10,1.1-15.1,0.8c-89.1-4.7-147.2-23.5-183.3-58.2c0.2-1.7,0.3-4.8,0.5-8.4v-0.3
				c0.2-3.8,0.4-8,0.5-12c0.2,0.2,0.3,0.3,0.5,0.5l0,0c36.4,33.4,93.3,65.4,179,69.9c5.8,0.3,11.6-0.1,17.2-1.2
				C1874,1428.8,1874.2,1431.8,1874.5,1434.7z"/>
			<path class="st4" d="M1923.8,1988.9L1823,2414.4l-117.6-33.6L1585,1588.7l9-18.2l12.9-26.1l5-10.2l4.5,5.3l42.6,49.7
				c15.1,17.6,34.1,31.2,55.3,39.7c9,3.6,18.3,6.3,27.9,8.1c0,0,0,0,0.1,0c4.3,0.8,8.6,1.4,12.9,1.8s8.5,0.6,12.8,0.6
				c54.5,0,104.9-31.1,129-80.8l0.4-0.9l5.3,18.1l0.2,3.2l0.4,7.2l1.8,35.5L1923.8,1988.9z"/>
			<path class="st23" d="M1932.2,2062.4l-100.8,425.5l-117.6-33.6l-120.4-792.1l9-18.2l12.9-26.1l5-10.2l4.5,5.3l42.6,49.7
				c15.1,17.6,34.1,31.2,55.3,39.7c9,3.6,18.3,6.3,27.9,8.1c0,0,0,0,0.1,0c4.3,0.8,8.6,1.4,12.9,1.8s8.5,0.6,12.8,0.6
				c54.5,0,104.9-31.1,129-80.8l0.4-0.9l5.3,18.1l0.2,3.2l0.4,7.2l1.8,35.5L1932.2,2062.4z"/>
			<path class="st24" d="M2479.4,2620.1l-218.4-10.9l-509.4-28.7l7-36l4-20.7l5.8-29.5l20.3-104.1l1.9-9.5l-1.1-5.1l-0.3-1.2
				l-0.6-3.1l-6.9-32.9l-7.7-29l9.2,1.8l4.8-32.6l36-231.3l48.9-295.3l-11.1,51.7l39.5-254.2l238.6,61.7
				c98.6,25.5,173.3,106,191.5,206.2l51.3,282.8L2479.4,2620.1z"/>
			<polygon class="st25" points="1790.6,2380.7 1788.8,2390.2 1762.7,2523.8 1758.7,2544.5 1747.5,2601.9 1740.8,2601 
				1779.1,2339.9 1780.3,2331.6 1781.7,2338.4 1788.7,2371.3 1789.3,2374.4 1789.6,2375.6 			"/>
			<path class="st26" d="M2473.8,2603.3l-212.8,5.9l-509.4-28.7l-25.2-1.4l42-84.8l11.2-22.6l391.9-33.5l-30.8-179.1
				c2.8-16.8,0-243.5,0-243.5l79.1,282.2c17.7,63.3,108.7,61,122.6-3.2c0.1-0.5,0.2-1.1,0.3-1.6l40.1-192.7L2473.8,2603.3z"/>
			<polygon class="st27" points="2224.7,2600.5 2140.7,2259 2160.3,2496.9 			"/>
			<polygon class="st25" points="1872.9,1752 1824,2047.3 1861.9,1803.7 			"/>
			<path class="st28" d="M2106.5,1700.6l-6.2,33.2l-16.2,87.8c-1.9,10.2-12.1,16.5-22.1,13.7l-40.2-11.5l25.5,191.1
				c1.6,11.9-2.3,23.9-10.7,32.6l-177.1,184.4l-79.8,83.1l3-18.1L1873,1752l33.6-202.5l192.7,133.4
				C2104.9,1686.9,2107.7,1693.8,2106.5,1700.6z"/>
			<path class="st20" d="M2315.7,2515.1c0,0-2.5,6.5-8.7,15c-0.2,0.3-0.4,0.5-0.6,0.7c-1.9,2.6-4.2,5.3-6.9,8.2
				c-2,2.2-4.3,4.3-6.8,6.5c-0.3,0.3-0.6,0.5-0.9,0.8c-3.8,3.2-8.1,6.3-13,9.2c-0.4,0.3-0.8,0.5-1.3,0.8c-6.5,3.7-14.1,6.9-22.7,9.3
				c-18.2,5.1-41.5,6.3-70.7,0c-24.5-5.3-44.1-9.5-59.5-12.8c-37.4-8-76.4-2.8-110.4,14.7l-6,3.1c-18.2,9.4-39.3,11.2-58.9,5.1
				l-99.4-28.7l-12.1-3.5l-0.8-0.2l0.9-2.9l20.1-67.1l12.6-42l5.6,1.6l16.2,4.6l15.1,4.3l23.8,6.8c11.5,3.3,23.8,3.2,35.3-0.1
				l102.5-29.9c9.2-2.7,19.1-2,27.9,1.8L2315.7,2515.1z"/>
			<g>
				<g class="st29">
					<path class="st30" d="M2315.3,2527.3c-0.2,0.3-0.4,0.5-0.6,0.7c-10.4-4.1-20.7-8.4-31-12.6c-14.8-6.1-29.5-12.4-44.2-18.6
						c-14.6-6.4-29.3-12.7-43.9-19.2l-21.9-9.8c-7.2-3.4-14.6-6.6-21.8-10.1c7.5,2.9,14.9,5.9,22.3,8.8l22.2,9.1
						c14.8,6.1,29.5,12.4,44.2,18.6c14.6,6.4,29.3,12.7,43.9,19.2C2294.9,2518,2305.1,2522.6,2315.3,2527.3z"/>
				</g>
				<g class="st29">
					<path class="st30" d="M2301.1,2542.7c-0.3,0.3-0.6,0.5-0.9,0.8c-9.2-3.7-18.4-7.5-27.6-11.3c-14.8-6.1-29.5-12.4-44.2-18.6
						c-14.6-6.4-29.3-12.7-43.9-19.2l-21.9-9.8c-7.2-3.4-14.6-6.6-21.8-10.1c7.5,2.9,14.9,5.9,22.3,8.8l22.2,9.1
						c14.8,6.1,29.5,12.4,44.2,18.6c14.6,6.4,29.3,12.7,43.9,19.2C2282.6,2534.3,2291.9,2538.5,2301.1,2542.7z"/>
				</g>
				<g class="st29">
					<path class="st30" d="M2287.1,2552.6c-0.4,0.3-0.8,0.5-1.3,0.8c-8.2-3.3-16.3-6.6-24.5-10c-14.8-6.1-29.5-12.4-44.2-18.6
						c-14.6-6.4-29.3-12.7-43.9-19.2l-21.9-9.8c-7.2-3.4-14.6-6.6-21.8-10.1c7.5,2.9,14.9,5.9,22.3,8.8l22.2,9.1
						c14.8,6.1,29.5,12.4,44.2,18.6c14.6,6.4,29.3,12.7,43.9,19.2C2270.5,2545.1,2278.9,2548.8,2287.1,2552.6z"/>
				</g>
			</g>
			<path class="st31" d="M1859.8,895.4c-2.1,0.6-4.1,1.5-6.3,2.5C1855.7,896.9,1857.8,896.1,1859.8,895.4z"/>
			<path class="st31" d="M1946.2,986.2v6.3c0,0,0-0.1-0.1-0.1c-0.5-1.8-6.3-21-16.5-41.9l12.4,12.7L1946.2,986.2z"/>
			<path class="st20" d="M1792.3,1294.7c0,0,114.8,22.4,134.4,19.6"/>
			<path class="st4" d="M1893.6,2432.7c-0.2,1.7-0.6,3.5-1.3,5.2l-42.3,109l-7.3,18.7l-49.6-12.4l-64-16l-43.2-10.8l58.8-145.5
				l29.8,6.4l33.8,7.2c0.1,0,0.1,0,0.1,0l68.4,14.6C1887.9,2411.4,1894.9,2421.9,1893.6,2432.7z"/>
			<path class="st32" d="M1859.8,895.4c-2.1,0.6-4.1,1.5-6.3,2.5C1855.7,896.9,1857.8,896.1,1859.8,895.4z"/>
			<path class="st22" d="M1980.8,994.8c15.3,7.4,24.5,23.7,28.8,40.1c7.8,30,5.7,62.6,10.2,93.2c3.8,26,11,52,25.8,73.8
				c2.3-32-0.7-64.2-3.6-96.2c-1.8-19.7-2.6-38.7-3-58.4c-0.4-18.7-1.1-38.4-11.1-54.1c-13.6-21.1-44.1-29.2-66.3-17.5
				c-5.8,3-12,7.8-12.5,14.3C1960,990.7,1970.5,989.8,1980.8,994.8z"/>
			<path class="st21" d="M2003.8,977.4c-13.5-8.7-28.6-8.8-44-8.6c-17.8,0.2-12.2-2.8-18.3-18.5c-4.7-12-15.7-18-28.3-20.1
				c-14.4-2.4-29.1,0.8-43.2,4.3c-79.7,19.8-157.7,53.4-217.6,109.5c-19.4,18.1-37,39-46.4,63.9c-9.3,24.9-9.4,54.2,4.7,76.7
				c13-28.1,16.8-48.5,46.3-64.4c25.6-13.8,55.2-17.4,83.7-22.6c28.6-5.3,58.2-13.2,79.1-33.4c10-9.6,17.4-21.6,26.7-31.9
				c11.4-12.8,25.7-23.1,41.5-29.9c-1.7,0.9-0.9,0.5-2.6,1.4c11.7-9.2,28.6-11.2,42-4.9c4.8,2.2,6.4,6.2,11.4,4.8
				c13.8,4.3,21-9.5,35.5,3.5c9.4,8.3,13.5,21,15.9,33.3c5.5,28.2,4.1,57.5,10.3,85.6c6.2,28.1,22.6,56.7,50,65.4
				c-2.5-40.2-0.8-80.8,5-120.7c2.4-16.9,5.3-35.5-3.4-50.2c-6.8-11.4-19.2-17.9-29.2-26.6C2016.5,988.5,2010.9,982,2003.8,977.4z"
				/>
			<path class="st32" d="M1947.2,991.9c-0.3,0.2-0.7,0.4-1,0.6c0,0,0-0.1-0.1-0.1c-0.5-1.8-6.3-21-16.5-41.9l12.4,12.7l4.2,23.1
				L1947.2,991.9z"/>
			<path class="st24" d="M1790.6,2380.7l-1.9,9.5l-24.9,127.7l-1.1,5.9l-4,20.7l-3.5,17.7l-7.7,39.6l-6.7-0.9l-38.2-4.9l-572.8-74.1
				c-56.5-7.3-98-53.7-101.5-108.2c-0.2-2.5-0.3-5-0.3-7.4c0-5.8,0.4-11.8,1.3-17.8c10-87.4,40.4-205,75.7-320.7
				c41.4-135.5,89.4-268.4,119-347.4c17.2-46,54.7-81.6,101.6-96.3l286.3-90.2l88.6,419.7l-8-28.5l63,288.9l21,99.5l3.8,17.8
				l1.5,6.8l6.9,32.9l0.6,3.1l0.3,1.2L1790.6,2380.7z"/>
			<polygon class="st25" points="1755.5,2214.2 1692.5,1925.3 1700.6,1953.8 			"/>
			<path class="st28" d="M1777.4,2314.5l-40.7-36.9l-37.4-33.9l-167.8-152.3c-5.1-4.6-7.7-11.3-7.1-18.1l18.6-213.1l-45.4,27.2
				c-12.7,7.6-29.1,1.6-33.9-12.4l-56.8-166l-0.5-1.6c-3.7-10.7,0-22.6,9.1-29.3l169.1-125.7l0,0l2.1-1.5l20.7-15.3l85,389.7
				l0.1,0.2L1777.4,2314.5z"/>
			<path class="st27" d="M1788.1,2390.6l-112.2-104.9l-167.8-152.3c-5.1-4.6-7.7-11.3-7.1-18.1l18.6-213.1l-45.4,27.2
				c-12.7,7.6-29.1,1.6-33.9-12.4l-57.3-167.6c-3.7-10.7,0-22.6,9.1-29.3l14.9-11.1l56.8,166c4.8,14,21.2,20,33.9,12.4l45.4-27.2
				l-18.6,213.1c-0.6,6.8,2,13.5,7.1,18.1l167.8,152.3l85.9,68.5L1788.1,2390.6z"/>
			<path class="st33" d="M1931.1,1303l-4.3,8.9c-1.6,3.4-3.3,6.3-5.3,9.3c-1.9,3-4.1,5.9-6.4,8.7c-4.7,5.5-10.3,10.6-16.9,14.9
				c-6.5,4.2-14.2,7.7-22.5,9.3c-8.3,1.7-17.4,1.3-25.3-1.3l0.2-0.9c2,0,4,0,5.9-0.1l0,0c5.9-0.4,11.4-1.6,16.5-3.5
				c6.7-2.5,12.6-6.2,17.9-10.4c3.3-2.7,6.4-5.5,9.3-8.5c1.7-1.8,3.4-3.6,5.1-5.5c0.2-0.2,0.4-0.5,0.6-0.7c2-2.3,3.9-4.6,5.7-7
				c0.2-0.2,0.4-0.4,0.5-0.7c-1.7,0.1-3.5,0.2-5.2,0.2c-5.5,0.2-11,0.1-16.4-0.2c-10.8-0.4-21.6-1.4-32.4-2.6
				c-10.7-1.1-21.4-2.6-32.1-4.2c-2-0.3-3.9-0.6-5.9-0.9c-8.7-1.3-17.3-2.8-25.9-4.4l0.1-0.9c10.7,1.1,21.3,2.1,32,3
				s21.3,1.6,32,2.2c10.6,0.6,21.3,0.9,31.8,0.9c5.3,0,10.5-0.2,15.6-0.6s10.2-1,14.6-2.2L1931.1,1303z"/>
			<g>
				<g class="st34">
					<path class="st30" d="M1579.6,1184.6c4.6,2.5,8.4,6.4,11.5,10.6s6,8.7,7.8,13.7c3.6,10,3.5,21.3-0.7,30.9
						c1.3-5,1.7-10.2,1.4-15.2c-0.3-5-1.4-10-3.2-14.7c-1.7-4.7-4.6-8.9-7.4-13.2C1586.1,1192.4,1583.2,1188.3,1579.6,1184.6z"/>
				</g>
				<g class="st34">
					<path class="st30" d="M1599.9,1224.5c-8.8,2.9-18.5,1.6-26-3.1c7.9,3.9,17.3,3.9,25,0.5c0.7-0.3,1.5,0,1.9,0.7s0,1.5-0.7,1.9
						C1600,1224.4,1599.9,1224.5,1599.9,1224.5z"/>
				</g>
			</g>
			<path class="st21" d="M1589.2,1161.1l10.2,11.9c-20.4-23.1-41-5.8-52.1,7.7c2-7.9,6.2-15.4,12.5-21.2
				C1568.2,1151.6,1581.6,1152.3,1589.2,1161.1z"/>
			<path class="st32" d="M1600.8,1174.8l6.6,7.7C1606,1180.9,1603.8,1178.4,1600.8,1174.8z"/>
			<path class="st32" d="M1608.8,1183.8l-1.2-4.7C1610,1183.3,1610.7,1185.4,1608.8,1183.8z"/>
			<path class="st22" d="M1685,1363.7c-2.5-2.2-5-4.3-7.3-6.5l0,0c-0.2-0.2-0.3-0.3-0.5-0.5c-3.1-2.9-6-5.7-8.9-8.6
				c-35.8-36.4-48.1-71.6-48.1-71.6c-1,0-1.9,0-2.9-0.1l2.8-1.1c6-2.4,12.8,0.7,15,6.8c7,19.4,23.1,59,43.8,75.6
				C1681.8,1360.1,1683.8,1362,1685,1363.7z"/>
			<path class="st21" d="M1895.3,1549.5c0.8,2.8,1.5,5.5,2.2,8.1l-0.4,0.9c-24.2,49.7-74.5,80.8-129,80.8c-4.3,0-8.5-0.2-12.8-0.6
				s-8.6-1-12.9-1.8c0,0,0,0-0.1,0c-9.6-1.8-18.9-4.5-27.9-8.1c5.5-0.2,14.5-0.1,27.9,0.4c0,0,0,0,0.1,0
				c104.3,4.3,144.4-69.1,151.7-84.6C1894.4,1546.3,1894.9,1547.9,1895.3,1549.5z"/>
			<path class="st32" d="M1903.5,1578.1l-0.2,0.3l-0.4,0.4l-0.2-3.2C1903,1576.5,1903.3,1577.3,1903.5,1578.1z"/>
			<path class="st27" d="M1789.6,2375.6l-392.1-97.4c-17.7-4.4-28.5-22.3-24.2-40l23-93.9l3.6,45.5c2.9,36.8,27.8,68.3,63,79.6
				l326.6,105L1789.6,2375.6z"/>
			<path class="st35" d="M1808.4,2394.4l-15.4,158.7l-34.3-8.6l4-20.7l26.1-133.6L1808.4,2394.4L1808.4,2394.4z"/>
			<polygon class="st36" points="1585.1,1544.6 1586.9,1550.8 1584.8,1552.3 			"/>
			<path class="st37" d="M1824,2047.3l-44.4,267.7l3.6-3.8l-0.3,2.3c-0.5,3.6-5.7,3.8-6.4,0.2l0,0l0.9,0.8l-21.9-100.3l-63-288.9
				l8,28.5l69.9,247.8c0.9,3.3,5.6,3.1,6.3-0.2l85.1-397.7l11.1-51.7L1824,2047.3z"/>
			<path class="st27" d="M1747.9,2552.7l-7.1,48.3l-611-79c-56.5-7.3-98-53.7-101.5-108.2
				C1048.5,2425.5,1268.8,2545.5,1747.9,2552.7z"/>
			<path class="st21" d="M2254.8,2565.5c-18.2,5.1-41.5,6.3-70.7,0c-4.1-0.9-8.1-1.8-12-2.6c-19-4.1-34.7-7.5-47.5-10.2
				c-25.5-5.5-51.7-4.8-76.6,1.7c-11.7,3-23,7.4-33.9,13l-6,3.1c-18.2,9.4-39.3,11.2-58.9,5.1l-85.7-24.8l-13.7-3.9l42.3-109
				c0.1-0.2,0.1-0.3,0.2-0.5l0.7,0.2l14.4,4.1l-9.3,69.2c-2.2,16.3,7.4,31.9,23,37.3l39.8,13.7c14.7,5.1,30.8,4.1,44.8-2.7
				l50.2-24.4c16.8-8.1,35.9-10.1,53.9-5.6L2254.8,2565.5z"/>
			<path class="st22" d="M1893.1,2437.6l-29.5,113.2l-13.7-3.9l42.3-109c0.1-0.2,0.1-0.3,0.2-0.5L1893.1,2437.6z"/>
			<path class="st22" d="M2172.1,2562.9c-19-4.1-34.7-7.5-47.5-10.2c-25.5-5.5-51.7-4.8-76.6,1.7c8.4-5,17.2-9.8,26.4-13
				c11.7-4,23.2-2.2,35-0.2c16.3,2.8,31.8,7.7,47,14.2C2161.3,2557.4,2167,2561.8,2172.1,2562.9z"/>
			<path class="st17" d="M2063.8,1222c0,0-25.6-6.7-33.4-64.9c-2-14.5-2.8-32.1-1.9-53.6c4.5-106.6-41.6-132.6-80.5-111.9
				c-0.2,0.1-0.4,0.3-0.7,0.4l-1-5.7l-2.4-13l-1.8-10l-12.4-12.7c5.2,10.7,9.2,20.9,12,28.5c2.7,7.4,4.2,12.5,4.5,13.4
				c-0.4-0.7-2.5-4.7-6.2-10c-12.2-17.9-41.2-50.9-75-23.5c-44.8,36.4-61.2,69.7-111.8,95l0,0c-6.4,5.5-13.8,10.3-22.6,14.2
				c-27.9,12.3-53.5,20.5-73.9,31.2l0,0c-12.5,6.5-23.1,13.9-31,23.7c-11.6,14.3-17.4,33.6-15.5,62.7l-42-89.6L1823,832.9l44.8-44.8
				c0,0,156.7-58.8,195.9,134.4S2047,1174.4,2063.8,1222z"/>
			<path class="st22" d="M1947.6,993.8c-9.3-8.6-20-16.4-31.5-21.7c-41.1-18.8-67.5,33.5-93.8,55.7c-14.6,12.3-31.6,19-48.2,28
				c-36.8,19.9-76.3,34.9-117.2,43.4c20.4-10.6,46.1-18.9,73.9-31.2c8.8-3.9,16.2-8.6,22.6-14.2c50.5-25.3,67-58.6,111.8-95
				c43.7-35.5,79.4,30.2,81.1,33.4"/>
			<path class="st19" d="M1946.1,992.3c-1.8-3.3-37.5-68.9-81.1-33.4c-44.8,36.4-61.2,69.7-111.8,95c26.7-23.1,35.1-58.8,49.3-92.1
				c9.4-22.2,21.4-43.3,42.9-58.9c0.6-0.4,1.1-0.8,1.7-1.1c1.1-0.8,2.2-1.5,3.2-2.1c1.1-0.6,2.2-1.2,3.2-1.7
				c2.1-1.1,4.2-1.9,6.3-2.5c0.5-0.2,1-0.3,1.6-0.4c1-0.3,2-0.5,3.1-0.7c1-0.2,2-0.3,3-0.4c1-0.1,2-0.1,3-0.1c0.8,0,1.5,0,2.3,0.1
				c0.6,0,1.2,0.1,1.8,0.2l0,0c0.7,0.1,1.4,0.2,2.1,0.3c0,0,0.1,0,0.2,0.1c0.7,0.1,1.4,0.3,2.1,0.5c0.6,0.1,1.2,0.3,1.8,0.5
				c0.6,0.2,1.2,0.4,1.8,0.6c0.4,0.1,0.9,0.3,1.3,0.5c0.6,0.2,1.2,0.5,1.8,0.8c0.5,0.3,1.1,0.5,1.6,0.8c0.1,0,0.1,0.1,0.2,0.1
				c0.6,0.3,1.2,0.6,1.8,1c0.1,0,0.2,0.1,0.3,0.1c0.6,0.3,1.2,0.7,1.8,1.1c0.7,0.4,1.3,0.9,2,1.3c0.5,0.4,1,0.8,1.6,1.1
				c0.7,0.5,1.4,1.1,2,1.6c4.5,3.7,8.8,8.3,12.7,13.3c0.5,0.6,1,1.3,1.5,1.9c7.1,9.4,13.3,20.2,18.3,30.6
				C1939.8,971.3,1945.6,990.5,1946.1,992.3z"/>
			<path class="st19" d="M2043.3,1081c-2.5,25.6-8.6,50.7-13,76c-2-14.5-2.8-32.1-1.9-53.6c4.5-106.6-41.6-132.6-80.5-111.9
				c1.8-7.2,8.3-13.9,14.1-18.7c7.7-6.4,16.8-12.4,26.8-12.1c9,0.3,17,5.5,23.6,11.6C2040.8,999.1,2047.1,1042.2,2043.3,1081z"/>
			<path class="st18" d="M1943.8,973.1c-0.6,2-1.3,3.9-2.2,5.8c-0.5,1.1-1.1,2.3-1.7,3.4c-12.2-17.9-41.2-50.9-75-23.5
				c-44.8,36.4-61.2,69.7-111.8,95l0,0c-6.4,5.5-13.8,10.3-22.6,14.2c-27.9,12.3-53.5,20.5-73.9,31.2l0,0
				c-12.5,6.5-23.1,13.9-31,23.7c-2.4-0.6-4.7-1.3-7.1-2.2c62.7-35.9,115-89.8,148.7-153.8c10.4-19.8,19.2-40.6,32.4-58.7
				c13.2-18.1,31.8-33.6,53.9-37.1c27.2-4.3,55,10.9,71.3,33.1C1945.4,931.9,1949.7,954.4,1943.8,973.1z"/>
			<path class="st26" d="M1606.1,1536.9l-215,119c-44.6,24.7-70.3,73.3-65.5,124c5.5,58.7,71.5,140.5,79,218.8
				c11.9,124.8-34.9,240.7-33.6,240.7c2.8,0,403.5,147.7,403.5,147.7L1606.1,1536.9z"/>
			<path class="st26" d="M1808.4,2528l-53.2,34.2l-52.6,33.8l-572.8-74.1c-56.5-7.3-98-53.7-101.5-108.2c-0.2-2.5-0.3-5-0.3-7.4
				c0-5.8,0.4-11.8,1.3-17.8c10-87.4,40.4-205,75.7-320.7l5.9,158.3c3.2,85.3,63.3,157.8,146.5,176.7l506.4,114.9L1808.4,2528z"/>
			<path class="st26" d="M2227.5,2513.7l-459-19.4l-19.6-162.5l33.8-34.9l-3,18.1l79.8-83.1l177.1-184.4
				c8.3-8.7,12.3-20.7,10.7-32.6l-25.5-191.1l40.2,11.5c9.9,2.8,20.2-3.5,22.1-13.7c0,0,23-133,23.1-133.6
				c-1.8,10.4,6.7,34.8,9.2,45.8c9.6,41.5,9.3,84.6-8.6,123.8c-17.3,37.9-14.8,88.9-14.8,130.4l0.3,6c3.6,85.7-14.2,171-51.7,248.1
				c-7.5,15.3-11,31.6-11,47.6c0,39.3,21.4,77.2,58.6,96.5c13.4,7,26.1,15.1,38,24.2c12,9.2,23.1,19.3,33.3,30.4L2227.5,2513.7z"/>
		</g>
		<g>
			<path class="st38" d="M3383.8,956.8c0,0-4.4,224-28.6,260.2c-24.1,36.2-66.1-250.3-66.1-250.3L3383.8,956.8z"/>
			<path class="st20" d="M3346.9,1276.2c-29,70.1-62.9,142.6-126.1,187.1c-40.6,28.6-99.2,4.6-140.3-9.4
				c-29.8-10.2-59.4-22-85.8-38.7c0-0.1-0.1-0.1-0.1-0.1c-13.7-8.7-26.6-18.7-38.3-30.6c-38.6-39.2-51.9-77.2-51.9-77.2
				c-0.6,0-1.1,0-1.7,0c-18.2-0.5-35-10-44.8-25.4l-26.3-41.2c-2.2-3.4-3.8-6.9-5-10.6c-0.7-2.2-1.3-4.5-1.7-6.8
				c-0.5-2.6-0.7-5.2-0.7-7.8c0-12.7,5.1-25.2,14.9-34.3c9.1-8.6,23.6-7.8,31.7,1.7l4.4,5.1l15,17.4l2,2.3l-0.5-2.2l-17.6-70.2
				L2955,952l48.8,32.7c0,0,103.8,50.5,209.4,50.1h0.1c42.7-0.2,85.7-8.7,122.2-32.2c11.5,14.4,18,31.9,13.9,52.5
				c-8.7,43.8-4.3,100.9,1.1,141.1c1,7.8,2.1,14.9,3.1,21.2C3356.9,1237.1,3354.7,1257.5,3346.9,1276.2z"/>
			<path class="st20" d="M3319.3,1017.6c-117.7,75.8-307.6-16.7-307.6-16.7L3137.6,855l91,110.6
				C3228.6,965.5,3290.8,981.8,3319.3,1017.6z"/>
			<path class="st17" d="M3391.4,945.3c-15.5,25-34.5,43.7-55.7,57.3c-22.2,14.3-46.9,23.1-72.3,27.7c-29.9,5.5-61,5.4-90.9,2.2
				c-65.1-7-124.3-29-152-40.6c-3.4-1.4-6.4-2.7-8.8-3.8c-5-2.2-7.8-3.6-7.8-3.6c-2.2-0.9-4.3-1.3-6.3-1.4
				c-13.3-0.5-22.1,16-27.9,41c-0.6,2.4-1.1,4.8-1.6,7.3c-0.3,1.2-0.5,2.5-0.8,3.8c-3.7,18-6.8,38.2-9.5,58.7
				c-0.5,3.9-1,7.9-1.5,11.9c-0.6,4.7-1.1,9.4-1.6,14.1c-0.4,3.9-0.8,7.7-1.2,11.5c-0.1,1.4-0.3,2.8-0.4,4.2
				c-0.2,2.3-0.4,4.5-0.7,6.8c0,0,0,0,0,0.1c-1.4,14.6-2.5,28.3-3.4,40.4c-2.1,28.2-3,47.7-3,47.7c-19.8-37.1-2.5-1.5-27.2-3
				c-0.5,0-28.2-22.3-28.7-22.3l-19.3-22.5c-8.1-9.5-22.6-10.3-31.7-1.8c-9.8,9.2-14.9,21.7-14.9,34.3c0,2.6,0.2,5.2,0.7,7.8
				c-0.1,0-0.1,0-0.1,0s-70.5-135.9-1.1-310.9c0.2-0.6,0.4-1.1,0.7-1.7c69.4-173.2,165.9-146.2,334.4-137.2
				c169,9.1,150.9-57.4,150.9-57.4S3500.1,770.3,3391.4,945.3z"/>
			<path class="st20" d="M3275.7,1633.4L3175,1809.8c0,0-417.1-176.3-296.7-190.3c25.7-3,46.1-16.7,62.4-36.4
				c8.5-10.2,15.8-22,22.1-34.8c16.8-33.8,26.8-74.4,32.8-109.4c1.2-6.9,2.2-13.7,3.1-20.1c4.9-36.1,5.5-62.4,5.5-62.4l215.5,25.2
				c-9.7,34.1-13.6,64.5-13.5,91.2c0,3.3,0.1,6.5,0.2,9.6c0.4,10.3,1.4,20.1,2.9,29.3C3222.8,1595.8,3275.7,1633.4,3275.7,1633.4z"
				/>
			<g>
				<path class="st4" d="M2994.4,1682.4c-11.2,8.4-103.1,86.8-103.1,86.8l251.5,797.7l263.1-109.2l-94-762.8l-171.9,37.8
					L2994.4,1682.4z"/>
			</g>
			<polygon class="st39" points="3107.8,1798.6 3018.2,2313.6 3320.5,2313.6 3169.4,1809.8 			"/>
			<polygon class="st40" points="3065.8,1776.2 3135.8,1876.9 3212,1776.2 3138.6,1734.2 3085.4,1734.2 			"/>
			<g>
				<path class="st4" d="M3353.1,1650.4l-14.3,15.5l-133,143.9l-75.6-75.6l-4.7,5.5l-0.1,0.1l-59.6,70L2838.7,1668l-22.4-14
					l122.7-70.5l0.8-0.5l153.6,110.1c8.3,5.9,19.6,5.2,27-1.9l95.6-91.3l20.6-15.3l1.3,0.8L3353.1,1650.4z"/>
			</g>
			<polygon class="st35" points="3355.9,1675.6 3208.6,1835 3133,1759.4 3068.6,1835 2819.1,1679.2 2838.7,1668 3065.8,1809.8 
				3130.2,1734.2 3205.8,1809.8 3338.8,1665.9 			"/>
			<path class="st24" d="M3149.8,2496.9l-215-907c-1.1-4.6-5.6-7.5-10.3-6.6l-220.8,42.5c-102.3,20.3-179,105.6-188.4,209.4
				l-70.9,782.1L3149.8,2496.9z"/>
			<path class="st24" d="M3849.5,2545.9l-1.2,2.9l-21.2,53.1l-200.4,6.4l-328.6,10.4l-42-1027.2l233.2,41.2
				c107.7,19.1,192.8,101.8,214.9,208.9L3849.5,2545.9z"/>
			<path class="st27" d="M2930.1,1584.4l-194.5,112.5c-22.7,13.1-34.6,39.1-29.8,64.9l66.4,355.1c8.3,44.6-20.8,87.6-65.3,96.5
				l-230.3,45.6l629.8,153.9L2930.1,1584.4z"/>
			<path class="st27" d="M3848.4,2548.8l-21.2,53.1l-200.4,6.4c-119.4-30.1-243.2-63.7-243.2-63.7L3274.3,1604l147.5,64
				c52.4,22.8,88.5,72,94.4,128.8l31.4,302.1c2.5,24.6,3.8,49.3,3.8,74.1v11.7c0,126.5,70.5,242.4,182.7,300.7l114,59.1
				C3848.1,2544.5,3848.2,2546.1,3848.4,2548.8z"/>
			<path class="st28" d="M3132,2400.8l-12.7,5.4l-13.4,5.7c-5.4,2.3-11.6,0.4-14.8-4.5l-235.6-365.6c-1.6-2.5-2.2-5.4-1.8-8.3
				l11.3-76.9c1.1-7.2-4.6-13.8-11.9-13.8h-37.4c-5.9,0-10.9-4.3-11.9-10.1l-32.3-201.1l-1.4-8.6c-0.7-4.3,1-8.6,4.4-11.3
				l146.4-115.7c6.8-5.4,17-2,19.1,6.5l198.8,784.3C3140.5,2392.5,3137.5,2398.5,3132,2400.8z"/>
			<path class="st41" d="M3115.2,2431.6l-26.1,11c-5.4,2.3-11.6,0.4-14.8-4.5l-235.6-365.6c-1.6-2.5-2.2-5.4-1.8-8.3l11.3-76.9
				c1.1-7.2-4.6-13.8-11.9-13.8h-37.4c-5.9,0-10.9-4.3-11.9-10.1l-33.6-209.6c-0.7-4.3,1-8.6,4.4-11.3l13.7-10.9l32.3,201.1
				c0.9,5.8,6,10.1,11.9,10.1h37.4c7.3,0,13,6.5,11.9,13.8l-11.3,76.9c-0.4,2.9,0.2,5.8,1.8,8.3l235.6,365.6
				c3.2,4.9,9.4,6.8,14.8,4.5l13.4-5.7l2.9,11.4C3123.7,2423.3,3120.7,2429.2,3115.2,2431.6z"/>
			<path class="st28" d="M3274.5,1602.6l189.4,115.1c8.5,5.2,14.3,13.7,16,23.5l26.9,156.8c0.7,4.3-1,8.6-4.4,11.1l-52.8,39.6
				c-4.9,3.7-6.1,10.6-2.6,15.7l32.3,47.3c2.2,3.2,2.6,7.3,1.1,10.9l-168.3,402.7c-4.7,11.4-21.6,8.3-22.1-4l-33-808.5
				C3256.6,1603.7,3266.6,1597.8,3274.5,1602.6z"/>
			<path class="st33" d="M3233.3,1347.1l-4.6,9.6c-1.8,3.6-3.6,6.8-5.7,10.1c-2.1,3.2-4.4,6.3-6.9,9.3c-5.1,6-11.2,11.5-18.2,16.1
				c-7.1,4.6-15.3,8.3-24.3,10c-9,1.8-18.7,1.4-27.3-1.4l0.2-1c2.2,0,4.3,0,6.4-0.1l0,0c6.4-0.4,12.3-1.7,17.8-3.8
				c7.2-2.7,13.6-6.7,19.3-11.2c3.6-2.9,6.9-6,10-9.2c1.9-1.9,3.7-3.9,5.5-6c0.2-0.3,0.4-0.5,0.7-0.8c2.1-2.5,4.2-5,6.2-7.5
				c0.2-0.2,0.4-0.5,0.6-0.7c-1.9,0.1-3.7,0.2-5.6,0.2c-5.9,0.2-11.8,0.1-17.7-0.2c-11.7-0.5-23.3-1.5-34.9-2.8
				c-11.6-1.2-23.1-2.8-34.6-4.5c-2.1-0.3-4.3-0.6-6.4-1c-9.3-1.4-18.7-3-28-4.7l0.2-1c11.5,1.2,23,2.3,34.5,3.3s23,1.7,34.5,2.3
				c11.5,0.6,22.9,1,34.3,0.9c5.7,0,11.3-0.2,16.8-0.6s11-1.1,15.7-2.4L3233.3,1347.1z"/>
			<path class="st22" d="M3216.1,1600l-95.6,91.3c-7.4,7.1-18.8,7.8-27,1.9L2939.9,1583l-0.8,0.5l-0.6-1.9l149.4,85.7
				c13,7.4,29.1,6.5,41.1-2.5L3216.1,1600z"/>
			<polygon class="st22" points="3240.7,1581.6 3238,1585.4 3236.7,1584.6 			"/>
			<path class="st22" d="M2947.6,1205.9c0.4,2.6,1.1,5.2,1.8,7.7c-0.8-1.7-1.4-3.5-2-5.4C2947.5,1207.4,2947.6,1206.7,2947.6,1205.9
				z"/>
			<path class="st42" d="M2997.7,983.2c-13.3-0.5-22.1,16-27.9,41c-7.9,34.1-13.5,79.1-17.2,118.3l0,0c-4.2,20.8-8.9,42.9-5,63.4
				c-0.1,0.8-0.1,1.5-0.1,2.3c-0.9,13.9-1.3,22.4-1.3,22.4c-19.8-37.1-2.5-1.5-27.2-3c-0.5,0-28.2-22.3-28.7-22.3l-19.3-22.5
				c-8.1-9.5-22.6-10.3-31.7-1.8c-9.8,9.2-14.9,21.7-14.9,34.3c0,2.6,0.2,5.2,0.7,7.8c-0.1,0-0.1,0-0.1,0s-70.5-135.9-1.1-310.9
				c0.2-0.6,0.4-1.1,0.7-1.7c25.2,61,104,61,151,67.9C2984.2,979.6,2991.8,981.1,2997.7,983.2z"/>
			<path class="st42" d="M2952.6,1142.5c-2.4,24.8-4,47.3-5,63.4C2943.7,1185.4,2948.4,1163.3,2952.6,1142.5z"/>
			<path class="st12" d="M3020.7,991.2l-0.1,0.7c-3.4-1.4-6.4-2.7-8.8-3.8C3017.5,990.1,3020.7,991.2,3020.7,991.2z"/>
			<g>
				<path class="st21" d="M3209.3,1511.6c-71.7,22.9-180.9,45.4-246.5,36.6c16.8-33.8,26.8-74.4,32.8-109.4
					c1.2-6.9,2.2-13.7,3.1-20.1c42.8,31,105.6,57.6,194.2,55.5c4.5-0.1,8.9-0.6,13.3-1.5c0,3.3,0.1,6.5,0.2,9.6
					C3206.8,1492.7,3207.8,1502.5,3209.3,1511.6z"/>
				<path class="st22" d="M3206.4,1482.4c-3.2,0.5-6.4,0.8-9.7,0.8c-94.4,2.3-158.3-12.2-201.1-44.4c1.2-6.9,2.2-13.7,3.1-20.1
					c42.8,31,105.6,57.6,194.2,55.5c4.5-0.1,8.9-0.6,13.3-1.5C3206.2,1476,3206.3,1479.2,3206.4,1482.4z"/>
			</g>
			<path class="st22" d="M3350.6,1196.2L3350.6,1196.2c-6.6-9.5-8.8-25.6-10.8-36.6c-4.9-26.1-4.9-52.8-4.4-79.3
				c0.3-16.5-1-36.3-15.4-44.2c-4.8-2.7-10.5-3.4-16-3.7c-21.9-1.2-43.7,4.4-65.6,4.6c-4.4,1.1-9.1,1.3-13.6,1.5
				c-42.7,2-85.9,2-128.1-5c-30.4-5-60.5-13.3-91.3-13.2c-4.7,0-9.6,0.3-13.8,2.4c-7.4,3.7-10.9,12-13.7,19.7
				c-10,27.6-17.5,56.1-22.5,85c-0.8,4.9-1.8,9.9-2.9,15c0.2-2.2,0.4-4.5,0.7-6.8c0.1-1.4,0.3-2.8,0.4-4.2c0.4-3.8,0.8-7.6,1.2-11.5
				c0.5-4.7,1.1-9.4,1.6-14.1c0.5-4,1-7.9,1.5-11.9c2.6-20.5,5.8-40.7,9.5-58.7c0.3-1.3,0.5-2.5,0.8-3.8c0.5-2.5,1.1-4.9,1.6-7.3
				c5.8-25.1,14.6-41.5,27.9-41c2,0.1,4.1,0.5,6.3,1.4c0,0,2.7,1.3,7.8,3.6c2.4,1.1,5.3,2.4,8.8,3.8c49.3,20.6,99.7,33.3,152.1,39.6
				c9.4,1.1,18.9,2,28.5,2.7c4.1,0.3,8.1,0.6,12.2,0.4c9-0.6,18.6-3.6,26.9-1.1c33.6-3.1,66.6-12.3,95.5-30.9
				c11.5,14.4,18,31.9,13.9,52.5C3340.9,1098.9,3345.3,1156,3350.6,1196.2z"/>
			<path class="st21" d="M3263.4,1030.4c-1.5,9-13.5,14.8-23.5,16.9c-31,6.6-62.7,8-94.3,7.9c-25.7-0.1-50.7-1.4-76.3,2.1
				c-22.4,3.1-45.4,9.1-62.4,24c-24,21.1-30.4,54.2-43.7,81.6c-2.4,5-13.7,15.7-14,20c0.9-12.1,2-25.9,3.4-40.5
				c0.2-2.2,0.4-4.5,0.7-6.8c0.1-1.4,0.3-2.8,0.4-4.2c0.4-3.8,0.8-7.6,1.2-11.5c0.5-4.7,1.1-9.4,1.6-14.1c0.4-4,1-7.9,1.5-11.9
				c2.6-20.5,5.8-40.7,9.5-58.7c0.3-1.3,0.5-2.5,0.8-3.8c0.5-2.5,1.1-4.9,1.6-7.3c5.8-25.1,14.6-41.5,27.9-41c2,0.1,4.1,0.5,6.3,1.4
				c0,0,2.7,1.3,7.8,3.6c2.4,1.1,5.3,2.4,8.8,3.8c27.7,11.6,86.8,33.6,152,40.6C3202.4,1035.8,3233.5,1035.9,3263.4,1030.4z"/>
			<g>
				<g class="st34">
					<path class="st30" d="M2866.9,1214.2c4.6,2.5,8.4,6.4,11.5,10.6s6,8.7,7.8,13.7c3.6,10,3.5,21.3-0.7,30.9
						c1.3-5,1.7-10.2,1.4-15.2s-1.4-10-3.2-14.7c-1.7-4.7-4.6-8.9-7.4-13.2C2873.5,1222,2870.5,1217.9,2866.9,1214.2z"/>
				</g>
				<g class="st34">
					<path class="st30" d="M2887.2,1254.1c-8.8,2.9-18.5,1.6-26-3.1c7.9,3.9,17.3,3.9,25,0.5c0.7-0.3,1.5,0,1.9,0.7
						c0.3,0.7,0,1.5-0.7,1.9C2887.3,1254,2887.2,1254,2887.2,1254.1z"/>
				</g>
			</g>
			<path class="st21" d="M2875.4,1187.9c-4.2-1-10.9-1.5-21.4,0c-18.8,2.7-25.4,31.8-27.2,42.1c-0.7-2.2-1.3-4.5-1.7-6.8
				c-0.5-2.6-0.7-5.2-0.7-7.8c0-12.7,5.1-25.2,14.9-34.3c9.1-8.6,23.6-7.8,31.7,1.7L2875.4,1187.9z"/>
			<path class="st20" d="M2885.3,1388.5L2885.3,1388.5C2885.3,1388.6,2885.3,1388.6,2885.3,1388.5z"/>
			<path class="st22" d="M2994.7,1415c-13.7-8.7-26.6-18.7-38.3-30.6c-38.6-39.2-51.9-77.2-51.9-77.2c-0.6,0-1.1,0-1.7,0l0,0
				c12.6-5.9,27.4,0.6,31.7,13.8C2942.9,1346.7,2960.6,1386.5,2994.7,1415z"/>
		</g>
		<g>
			<polygon class="st4" points="3697,2579.5 2548.7,2579.5 2490.3,2412.6 2436,2257.6 3584.3,2257.6 			"/>
			<g>
				<polygon class="st4" points="2436,2257.6 2374.5,2579.5 2548,2579.5 				"/>
			</g>
			<polygon class="st25" points="2548,2579.5 2374.5,2579.5 2436,2257.6 2475.9,2372.3 2504.3,2453.9 2546.5,2575.3 			"/>
			<polygon class="st43" points="2548,2579.5 2436.3,2579.5 2475.9,2372.3 			"/>
			<polygon class="st44" points="2546.5,2575.3 2481.1,2575.3 2504.3,2453.9 			"/>
			<g>
				<path class="st25" d="M2641.6,2497.5l-73.5-160.8h25l28,66.2c8.1,19.1,16.6,39.8,23.2,56h0.3c-3.6-17.4-7.1-36.7-10.5-56.5
					l-11.3-65.6h24.7l28.8,67.4c8,18.8,14.9,35.9,21.9,53.7h0.3c-3.9-17.8-7.4-36.6-11.1-55.6l-11.7-65.4h23.5l22.6,159.9l-25.1,0.2
					l-29.8-69c-6.9-16.2-13.2-31.1-20-49.4h-0.3c3.7,18.1,6.7,33.3,9.2,49.5l11.3,69.2L2641.6,2497.5z"/>
				<path class="st25" d="M2807.2,2428.7l-37.3,0.1l11.6,37.9l41.6-0.2l9.1,29.5l-64.7,0.5l-49-159.5l62.6,0.1l9.1,29.4h-39.5
					l10.2,33l37.3-0.1L2807.2,2428.7z"/>
				<path class="st25" d="M2831.2,2334.6c2.5,23,3,46,1.8,63.6l-13.2,1.9c-1.7-20-4.8-42.8-9.3-63.5L2831.2,2334.6z"/>
				<path class="st25" d="M2853.2,2339.4c6.7-1.9,17.1-3.2,29.1-3.2c14.8,0,26.2,3.6,36.1,12.4c8.2,7.5,14.9,18.4,19.4,32.9
					c6.3,20.1,1.6,33.9-5.5,38.8l0.2,0.7c8.3,4.4,15.4,14.9,22.4,29.4c8.6,17.8,18.1,38.4,22,44.5l-23,0.2
					c-3-4.4-9.4-17.3-18.4-36.8c-8.8-19.7-14.7-25.1-24-25.3h-6.8l19.3,62.3l-22.4,0.2L2853.2,2339.4z M2896.7,2407.3h8.9
					c11.2,0,15.1-8.9,10.8-22.7c-4.5-14.5-13-21.7-23.4-22c-5.5,0-8.4,0.7-9.9,1.2L2896.7,2407.3z"/>
				<path class="st25" d="M3034.5,2427.9l-36.2,0.1l11.7,37.3l40.5-0.2l9.1,29.1l-62.9,0.5l-49-157.3l60.9,0.1l9.1,29h-38.4
					l10.2,32.6l36.2-0.1L3034.5,2427.9z"/>
				<path class="st25" d="M3156.1,2428.2l-36.1,0.1l20.6,65.4l-22.1,0.2l-49.1-156.2h22.1l18.8,59.8l36.1-0.1l-18.8-59.7h21.8
					l49.1,155.4l-21.8,0.2L3156.1,2428.2"/>
				<path class="st25" d="M3197.5,2337.9l49.1,155l-21.8,0.2l-49.1-155.2H3197.5z"/>
				<path class="st25" d="M3224,2340c6.4-1.8,16.3-3.2,27.8-3.1c14.1,0,25.1,3.5,34.6,12.2c8,7.3,14.5,18,19,32.2
					c6.3,19.6,2,33.1-4.7,38l0.2,0.7c8,4.3,15,14.6,21.9,28.8c8.5,17.4,17.9,37.5,21.6,43.5l-22,0.2c-2.9-4.3-9.2-17-18.1-36
					c-8.7-19.2-14.4-24.5-23.3-24.7h-6.5l19.3,60.9l-21.4,0.2L3224,2340z M3266.5,2406.4h8.5c10.7,0,14.3-8.7,10-22.2
					c-4.5-14.2-12.7-21.3-22.7-21.5c-5.2,0-8,0.7-9.4,1.1L3266.5,2406.4z"/>
				<path class="st25" d="M3335.6,2338.2l49.1,153.7l-21.5,0.2l-49.1-153.9H3335.6z"/>
				<path class="st25" d="M3410.1,2491.7l-49.1-153.4h24.8l37.4,56c10.7,16.1,22.4,35.1,32.1,52.4h0.4
					c-7.9-20.2-14.9-40.8-22.3-63.7l-14.3-44.6h19.4l49.1,152.7l-22.2,0.2l-39-59c-10.8-16.3-23.3-36.1-33.6-54l-0.3,0.2
					c7,20.2,14.2,41.8,22.2,66.8l14.8,46.2L3410.1,2491.7z"/>
				<path class="st25" d="M3587.8,2483.3c-5.3,3.7-15.8,8.7-28,8.8c-16.9,0.1-31.4-6.8-44.3-20.3c-12.8-13.1-23.9-33-31-55.4
					c-16.2-50.6-3-79.5,27.3-79.4c11.9,0,22.3,3.9,28,7.5l4.5,27.4c-6.2-3.6-13.5-6.5-23.6-6.5c-17.4,0-25.4,16.2-14.8,49.2
					c10.1,31.4,28.1,49.9,45.2,49.8c4.8,0,8.3-1,9.5-2.3l-10.3-31.8l-14.2,0.1l-8.7-26.8l34.3-0.1L3587.8,2483.3z"/>
			</g>
			<g class="st45">
				
					<linearGradient id="SVGID_1_" gradientUnits="userSpaceOnUse" x1="2781.6868" y1="-511.2432" x2="2785.8726" y2="-276.8323" gradientTransform="matrix(1 0 0 1 0 2784)">
					<stop  offset="0" style="stop-color:#FFFFFF"/>
					<stop  offset="1" style="stop-color:#FFFFFF;stop-opacity:0"/>
				</linearGradient>
				<polygon class="st46" points="3075.3,2257.6 2812,2457 2650.1,2579.5 2548.7,2579.5 2490.3,2412.6 2543.2,2333.6 2643.7,2257.6 
									"/>
				
					<linearGradient id="SVGID_2_" gradientUnits="userSpaceOnUse" x1="3257.707" y1="-415.4562" x2="3260.9934" y2="-231.4152" gradientTransform="matrix(1 0 0 1 0 2784)">
					<stop  offset="0" style="stop-color:#FFFFFF"/>
					<stop  offset="1" style="stop-color:#FFFFFF;stop-opacity:0"/>
				</linearGradient>
				<polygon class="st47" points="3582.6,2257.6 3157.4,2579.5 2934.6,2579.5 3359.9,2257.6 				"/>
			</g>
		</g>
		<g>
			<path class="st48" d="M4444.8,2768.4c-0.1,2.3-0.3,4.6-0.5,6.9c-0.1,1.1-0.2,2.3-0.3,3.4c-0.4,5.2-1,10.3-1.6,15.5
				c-0.4,3.2-0.8,6.4-1.3,9.6l0,0c-0.4,2.9-0.9,5.7-1.4,8.6c-0.6,3.6-1.2,7.1-2,10.7c-0.4,2.2-0.9,4.4-1.3,6.6
				c-0.6,2.8-1.2,5.7-1.9,8.5v0.1c0,0.2-0.1,0.4-0.1,0.6c-0.6,2.6-1.3,5.2-2,7.8c-2.2,8.4-4.6,16.7-7.4,25.1
				c-0.9,2.8-1.9,5.5-2.9,8.3c-2.9,8.3-6.2,16.6-9.8,24.8c-1.3,2.9-2.6,5.8-3.9,8.7s-2.7,5.7-4.1,8.5s-2.8,5.6-4.3,8.3
				c-1.3,2.4-2.5,4.7-3.8,7.1c-0.8,1.5-1.7,3-2.5,4.4c0,0,0,0.1-0.1,0.1c0,0.1,0,0.1-0.1,0.1c-1.4,2.4-2.8,4.7-4.2,7.1
				c-0.1,0.2-0.2,0.3-0.3,0.5c-1.3,2.2-2.6,4.3-4,6.4c-0.3,0.5-0.6,1-1,1.5c-1.2,1.9-2.5,3.8-3.7,5.6c-1.9,2.8-3.9,5.6-5.9,8.3
				c-1.3,1.9-2.7,3.7-4.1,5.6c-6.7,8.8-13.7,17.3-21,25.3c-1.8,2-3.7,4-5.6,6c-1.4,1.5-2.8,2.9-4.3,4.4c-0.8,0.8-1.6,1.7-2.4,2.4
				c-1.3,1.3-2.7,2.6-4,3.9c-0.4,0.4-0.8,0.8-1.1,1.1c-1.4,1.3-2.8,2.7-4.2,3.9c-1.1,1.1-2.2,2.1-3.4,3.1c-0.8,0.8-1.6,1.5-2.4,2.2
				c-1,0.9-1.9,1.7-2.9,2.5c-1.6,1.4-3.2,2.7-4.8,4.1c-0.1,0.1-0.2,0.2-0.3,0.3c-2,1.7-4.1,3.3-6.1,5c-0.8,0.7-1.7,1.4-2.5,2l0,0
				l0,0c-1.7,1.3-3.5,2.7-5.2,4c-6.1,4.6-12.3,9-18.7,13.2c-2,1.3-4,2.6-6,3.9c-0.5,0.3-1,0.6-1.5,0.9c-2,1.3-4.1,2.5-6.1,3.8
				c-2.6,1.6-5.2,3.1-7.8,4.6l0,0c-2.6,1.5-5.3,3-7.9,4.5c-1.7,0.9-3.4,1.8-5,2.7c-3.8,2-7.5,3.9-11.4,5.8c-1.3,0.6-2.5,1.2-3.8,1.8
				c-2.1,1-4.2,2-6.4,3c-0.2,0.1-0.4,0.2-0.5,0.3c-0.3,0.2-0.6,0.3-1,0.4c-1.8,0.8-3.6,1.7-5.4,2.5c-1,0.5-2.1,1-3.2,1.4
				c-1.9,0.8-3.8,1.7-5.7,2.5c-2.8,1.2-5.6,2.4-8.5,3.5c-2.5,1-5,2-7.6,3c-1,0.4-2,0.8-3,1.1c-1.7,0.6-3.5,1.3-5.2,1.9
				c-1.3,0.5-2.6,1-3.9,1.4c-1.5,0.6-3.1,1.1-4.7,1.7c-1.2,0.4-2.5,0.9-3.7,1.3c-1.5,0.5-3.1,1-4.6,1.5c-2.3,0.8-4.6,1.5-6.9,2.2
				c-0.1,0-0.2,0.1-0.2,0.1c-2.1,0.7-4.1,1.3-6.2,1.9c-1.6,0.5-3.2,1-4.8,1.4c-2.1,0.6-4.3,1.3-6.5,1.8c-2.3,0.6-4.6,1.3-6.9,1.9
				c-1.6,0.4-3.2,0.9-4.9,1.3c-1.1,0.3-2.1,0.6-3.2,0.8c-1.9,0.5-3.9,1-5.8,1.5c-4.1,1-8.3,2-12.5,2.9c-1.8,0.4-3.6,0.8-5.4,1.2
				c-1.5,0.3-2.9,0.6-4.4,0.9c-2.9,0.6-5.8,1.2-8.7,1.8c-1.9,0.4-3.8,0.7-5.7,1.1c-1.2,0.2-2.4,0.4-3.5,0.6c-2.8,0.5-5.5,1-8.3,1.5
				c-3.1,0.5-6.2,1.1-9.4,1.5h-0.1c-2.7,0.4-5.5,0.9-8.2,1.3c-2.2,0.3-4.5,0.6-6.7,1c-5,0.7-10,1.3-15,1.9c-2.5,0.3-5,0.6-7.6,0.9
				c-2.3,0.3-4.5,0.5-6.8,0.7c-2,0.2-3.9,0.4-5.9,0.6c-3.2,0.3-6.3,0.6-9.5,0.9c-0.2,0-0.4,0-0.6,0.1c-3,0.3-6,0.5-9,0.7
				c-5.4,0.4-10.7,0.8-16.1,1.1c-1.8,0.1-3.6,0.2-5.5,0.3c-6.9,0.4-13.9,0.7-20.8,0.9c-1.9,0.1-3.8,0.1-5.6,0.2
				c-1.4,0.1-2.8,0.1-4.3,0.1c-2.7,0.1-5.5,0.1-8.2,0.1c-1.8,0.1-3.6,0.1-5.4,0.1c-7.9,0.1-15.9,0.1-23.8,0c-2.8,0-5.6-0.1-8.3-0.1
				c-2.9-0.1-5.9-0.1-8.8-0.2c-0.1,0-0.1,0-0.1,0c-2.8-0.1-5.6-0.2-8.3-0.3h-0.5c-3.1-0.1-6.1-0.2-9.2-0.3
				c-3.8-0.2-7.5-0.3-11.2-0.5c-6.3-0.3-12.6-0.7-18.9-1.1c-2.1-0.1-4.1-0.3-6.2-0.4h-0.1c-2.3-0.1-4.6-0.3-7-0.5
				c-3.6-0.3-7.3-0.5-10.9-0.8c-0.3,0-0.6-0.1-1-0.1c-2.8-0.2-5.7-0.5-8.5-0.7l-6.4-0.6c-3-0.3-6-0.6-9.1-0.9
				c-7.9-0.8-15.8-1.7-23.6-2.6c-2.5-0.3-5-0.6-7.6-0.9c-3-0.4-6-0.8-9-1.1c-0.5-0.1-1.1-0.1-1.6-0.2c-0.1,0-0.2,0-0.4-0.1
				c-0.4-0.1-0.8-0.1-1.3-0.2c-3.8-0.5-7.5-1-11.3-1.5c-3.1-0.4-6.1-0.9-9.2-1.3c-3.3-0.5-6.6-1-9.8-1.5c-2.3-0.3-4.6-0.7-6.9-1.1
				c-3.3-0.5-6.6-1-9.9-1.6c-37.2-6.1-72.7-13.3-105.5-21c-0.4-0.1-0.9-0.2-1.3-0.3l0,0c-5.6-1.3-11.1-2.7-16.5-4
				c-148.1-37-287.8-101.4-433.6-146.6c-531.7-165.3-1098.2-70.7-1638.7-9.7c-68,7.7-138.4,12.2-209.7,12.7v-193.1h3149.1
				L4444.8,2768.4L4444.8,2768.4z"/>
			<rect x="1179.3" y="2579.5" class="st4" width="3314" height="209.9"/>
			<rect x="1179.3" y="2579.5" class="st0" width="3314" height="209.9"/>
			<rect x="1179.3" y="2579.5" class="st49" width="3314" height="209.9"/>
			<polyline class="st50" points="4494.7,2824.4 1180.7,2824.4 1180.7,2789.4 4493.3,2789.4 			"/>
			<polygon class="st12" points="4493.3,2687.1 4493.3,2789.4 1179.3,2789.4 1179.3,2623 			"/>
		</g>
		<line class="st51" x1="664.2" y1="810.5" x2="667" y2="810.5"/>
		<g>
			<path class="st4" d="M4856.6,1864.3c-115.7,177.5-348.8,184.2-534.5,157.3c-110.6-16-221.1-44-317.8-100
				c-76.1-44.1-139.3-104.8-180.5-178.8c-9.6-17.3-18.1-35.2-25.1-53.9c-10.3-27-17.9-55.4-22.3-85.2
				c-29.2-195.3,73.3-472.7,240.7-586.5c251.4-170.9,611.6,51.1,778.7,248.5C4928.6,1422.6,4972.9,1685.8,4856.6,1864.3z"/>
			<path class="st52" d="M4856.6,1864.3c-115.7,177.5-348.8,184.2-534.5,157.3c-110.6-16-221.1-44-317.8-100
				c-76.1-44.1-139.3-104.8-180.5-178.8c-9.6-17.3-18.1-35.2-25.1-53.9c-10.3-27-17.9-55.4-22.3-85.2
				c-29.2-195.3,73.3-472.7,240.7-586.5c251.4-170.9,611.6,51.1,778.7,248.5C4928.6,1422.6,4972.9,1685.8,4856.6,1864.3z"/>
			<g>
				<g>
					<g>
						<defs>
							<path id="SVGID_3_" d="M4855.8,1867.1c-115.8,177.4-348.9,184-534.6,156.9c-110.6-16.1-221.1-44.2-317.8-100.2
								c-76.1-44.1-139.3-104.9-180.4-178.9c-9.6-17.3-18-35.2-25.1-53.9c-10.3-27-17.8-55.5-22.3-85.2
								c-29.1-195.4,73.6-472.6,241.1-586.4c251.5-170.8,611.5,51.5,778.6,249C4928.1,1425.5,4972.2,1688.7,4855.8,1867.1z"/>
						</defs>
						<clipPath id="SVGID_4_">
							<use xlink:href="#SVGID_3_"  style="overflow:visible;"/>
						</clipPath>
						<g class="st53">
							<g class="st54">
								<path class="st4" d="M4891.6,2188.8l-373.2-272.7l35.8-127.3c9.8-34.7,39.8-59.6,75.2-63c2.2-0.2,4.3-0.4,6.5-0.4l17.9-0.4
									l29.1-0.7l15.5-0.4l32.9-0.8h1.2l-0.8,2.5l-4.3,13.6l7.2,3.4l54,25.4l19.2,9l9-31.9l2.2-7.7l4.6,2.2l15.6,7.7l17,8.3
									l38.8,19c4.8,2.5,9.1,5.3,13,8.4c0.2,0.1,0.3,0.3,0.5,0.4c22.4,18.2,29.8,46.3,28.7,77.8L4891.6,2188.8z"/>
								<path class="st12" d="M4891.6,2188.8l-385.7-140.4l48.3-259.6c9.8-34.7,39.8-59.6,75.2-63c2.2-0.2,4.3-0.4,6.5-0.4l17.9-0.4
									l29.1-0.7l15.5-0.4l32.9-0.8h1.2l-0.8,2.5l-4.3,13.6l7.2,3.4l54,25.4l19.2,9l9-31.9l2.2-7.7l4.6,2.2l15.6,7.7l17,8.3
									l38.8,19c4.8,2.5,9.1,5.3,13,8.4c0.2,0.1,0.3,0.3,0.5,0.4c22.4,18.2,29.8,46.3,28.7,77.8L4891.6,2188.8z"/>
								<path class="st55" d="M4903.1,1638.4c-2.1,8.2-7.7,16.2-13.7,20c-0.1,0.1-0.2,0.2-0.3,0.2c-0.3,0.2-0.6,0.3-0.9,0.5
									c-1.8,1-3.7,1.9-5.6,2.6l-17.3,6.7l-1.2,0.5c-1.1,1.5-2.2,3-3.4,4.4c-7,8.9-17.2,14-26.4,20.7c-4.2,3-8.5,5.9-13.1,8.6
									c-0.1,0.1-0.3,0.2-0.4,0.2l-3,22.5l-6,44.3l-3.5,25.8l-89-19.8l5.9-19.3l12-39.4l7.2-23.6c-0.1-0.1-0.2-0.3-0.4-0.4
									c-11.9-14.3-19.8-33.2-26.4-48.7c-1.9-4.4-3.6-8.5-5-12.4l0,0l-10.3-10.3c-4-4-7.2-8.8-9.5-13.9c-2.2-5.2-3.5-10.7-3.6-16.4
									c-0.2-6.6,4.6-12.4,11.1-13.3l15.6-2.3c5.1-12.3,12-24,17.5-35.9c7.7-16.6,15.4-33.3,23.2-49.9l121.5-7.5l6.4,62.4
									c0,17.3,0,34.6,0,52c0,4.9,0.2,10,0.3,15.1l0.3,0.2l16.3,10.2c0.1,0.1,0.1,0.2,0.2,0.3
									C4904.3,1627,4904.5,1632.8,4903.1,1638.4z"/>
								<path class="st52" d="M4819.4,1717.9c-14.6,9-31.3,15.5-48.5,11.7c-13.2-2.9-23.5-11.2-31.8-21.7l4.8-15
									c8.1,9.8,18.1,17.5,30.7,20.3c16.4,3.7,32.4-2.2,46.6-10.5L4819.4,1717.9z"/>
								<path class="st12" d="M4888,1615.5c-0.6,1.3-3.2,8-7.3-3.7c-0.2-0.7-0.5-1.4-0.7-2.1c-0.3-1-0.6-2-0.8-3.1
									c-0.3-1.2-0.6-2.5-0.8-3.8c0-0.1,0-0.2-0.1-0.2c-0.2-1.3-0.4-2.6-0.6-3.9c-0.1-0.7-0.2-1.4-0.3-2.2
									c-0.2-1.4-0.4-2.9-0.5-4.5c-0.1-1.5-0.3-3.1-0.4-4.6c-0.1-1.6-0.2-3.2-0.3-4.8c-0.1-2.4-0.2-4.8-0.3-7.3
									c0-1.1-0.1-2.3-0.1-3.4s0-2.2,0-3.3c0-1,0-2.1,0-3.1c0-3.4,0.1-6.7,0.2-10c0-1.4,0.1-2.8,0.1-4.1c0.1-1,0.1-1.9,0.1-2.9
									c0.1-1.7,0.1-3.3,0.2-4.8c0-0.9,0.1-1.8,0.1-2.7v-0.4l1.1-15.6v-0.4l0.1-0.7c-31.2,8.5-98.2-21.7-113.5-24.2
									c-1.7-0.3-2.8-0.2-3.1,0.3c-0.1,0.1-0.1,0.3-0.2,0.5s-0.2,0.4-0.3,0.6c-0.2,0.4-0.4,1-0.7,1.6c-0.2,0.4-0.4,0.9-0.6,1.5
									c-0.5,1.2-1.1,2.6-1.7,4.2c-0.3,0.8-0.7,1.6-1.1,2.5l0,0c-0.4,1-0.9,2.1-1.3,3.3c-1,2.3-2,4.7-3.1,7.3
									c-0.3,0.8-0.7,1.5-1,2.3c-0.6,1.4-1.2,2.8-1.9,4.3c-0.6,1.3-1.2,2.7-1.9,4.1v0.1c-1,2.1-2,4.3-3.1,6.5
									c-1.4,2.9-2.8,5.8-4.3,8.6c-1.1,2.1-2.3,4.2-3.4,6.2c-0.4,0.8-0.9,1.6-1.4,2.3c-0.5,0.8-0.9,1.5-1.4,2.3
									c-0.5,0.7-0.9,1.5-1.4,2.2c-0.4,0.7-0.9,1.4-1.4,2c-1.8,2.7-3.7,5.1-5.5,7c-6.6,7.1-8.4,4.5-9.9,8
									c3.9-24.1,2.6-36.3,6.8-60.3c2.2-12.5,4.8-24.2,9.2-34.3c1.8-4.2,3.9-8.2,6.4-11.8c38.1-55.4,158.1-30.5,172.3,35
									c0.6,2.9,1.2,5.7,1.5,8.5C4917.5,1552.7,4903,1579.4,4888,1615.5z"/>
								<path class="st12" d="M4877.8,1525l-1.1,15.6C4877.1,1533,4877.6,1527.3,4877.8,1525z"/>
								<path class="st12" d="M4876.5,1587.4c0.1,1.6,0.3,3.1,0.4,4.6c0-0.2-0.1-0.4-0.1-0.5
									C4876.7,1590.2,4876.6,1588.8,4876.5,1587.4z"/>
								<path class="st56" d="M4720.4,1574.1"/>
								<path class="st24" d="M4835.1,1881.1l-30-10.1l10.4,29.5l-60.6,52.5l-72.1,62.4l-31.8-85.6l-28.8-77.5l36.4-41.2l-25.9-5.8
									l17.3-77.7l6.9-1.4l26.9-0.6l14.3-0.3l30.5-0.7l0.4,2.3l2.7,15.7l9.6,56.3l40.4-32.8l26.1-21.2l6.2-5.1l14.5,7.1l15.7,7.7
									l35.9,17.6c4.4,2.3,8.5,4.9,12,7.8c0.2,0.1,0.3,0.3,0.5,0.4L4835.1,1881.1z"/>
								<path class="st4" d="M4818.4,1737.2l-6.7,3c-24,10.6-52.1,4.7-69.7-14.8l-5.9-6.5l-5.4,8l-28.5,226.9L4781,1839
									L4818.4,1737.2z"/>
							</g>
							<g>
								<polygon class="st4" points="4380.2,1765.1 4244.5,1734.9 4253.4,1705.4 4271.7,1645.3 4291,1581.7 4404.1,1588.3 
									4394.6,1658.2 4385.5,1725.7 								"/>
								<path class="st4" d="M4568.6,2089.3L3938.3,1949l54.6-194.1c14.9-52.9,60.7-90.8,114.7-96.1c3.3-0.3,6.6-0.5,9.9-0.6
									l27.2-0.6l44.3-1l23.6-0.5l50.2-1.2h1.9l-1.2,3.8l-6.6,20.7l11,5.2l82.3,38.8l29.2,13.8l13.8-48.7l3.3-11.7l6.9,3.4
									l23.8,11.7l25.8,12.7l59.1,29c7.3,3.8,13.9,8.1,19.8,12.9c0.3,0.2,0.5,0.4,0.8,0.6c34.2,27.8,45.4,70.6,43.8,118.6
									L4568.6,2089.3z"/>
								<path class="st12" d="M4568.6,2089.3L3938.3,1949l54.6-194.1c14.9-52.9,60.7-90.8,114.7-96.1c3.3-0.3,6.6-0.5,9.9-0.6
									l27.2-0.6l44.3-1l23.6-0.5l50.2-1.2h1.9l-1.2,3.8l-6.6,20.7l11,5.2l82.3,38.8l29.2,13.8l13.8-48.7l3.3-11.7l6.9,3.4
									l23.8,11.7l25.8,12.7l59.1,29c7.3,3.8,13.9,8.1,19.8,12.9c0.3,0.2,0.5,0.4,0.8,0.6c34.2,27.8,45.4,70.6,43.8,118.6
									L4568.6,2089.3z"/>
								<path class="st4" d="M4493.6,1518.4c-5.1,19.4-16.2,37.6-28.3,53.8l0,0c-1.7,2.3-3.5,4.5-5.2,6.7
									c-10.7,13.5-26.2,21.3-40.3,31.5c-6.3,4.5-12.9,9-19.9,13.1c-21.6,12.7-46,21.7-71.1,16.1c-19.2-4.3-34.4-15.9-46.8-30.9
									c-18.1-21.8-30.3-50.6-40.3-74.1c-2.9-6.8-5.4-13-7.6-18.9c-6.3-17.5-8.7-32.9-4.3-55.6c2-10.5,5.4-20.5,9.5-30.3
									c7.8-18.7,18.2-36.5,26.7-54.7c11.8-25.3,23.5-50.7,35.3-76.1l185.3-11.4l9.8,95.1c0,26.4,0,52.8,0,79.2
									c0,7.5,0.4,15.3,0.5,23C4496.9,1496.3,4496.5,1507.6,4493.6,1518.4z"/>
								<path class="st52" d="M4397.2,1646.8c-22.3,13.6-47.8,23.6-73.9,17.8c-20.1-4.5-35.8-17-48.5-33l7.3-22.8
									c12.4,15,27.6,26.7,46.8,30.9c25.1,5.6,49.5-3.3,71.1-16.1L4397.2,1646.8z"/>
								<path class="st4" d="M4246.4,1428.8l-31,4.6c-10,1.5-17.3,10.2-17,20.3l0,0c0.5,17.4,7.7,33.9,20,46.2l21.4,21.4
									L4246.4,1428.8z"/>
								<path class="st4" d="M4524.8,1525.6c-3.2,12.5-11.7,24.7-20.9,30.5c-0.2,0.1-0.3,0.2-0.5,0.3c-0.4,0.3-0.9,0.5-1.4,0.8
									c-2.8,1.5-5.6,2.9-8.5,4l-26.3,10.2l-1.9,0.8l0,0l31.2-87.4l0.6,0.4l24.8,15.6c0.1,0.2,0.2,0.3,0.3,0.5
									C4526.6,1508.2,4527,1517,4524.8,1525.6z"/>
								<path class="st57" d="M4484.5,1376.6c0.6-10.8,1.3-19.1,1.7-23L4484.5,1376.6z"/>
								<path class="st57" d="M4483.8,1390.5c0.1-2.4,0.2-4.8,0.3-7C4484,1385.8,4483.9,1388.1,4483.8,1390.5z"/>
								<path class="st57" d="M4539.7,1352.5c-0.2-2.4-0.3-4.8-0.6-7.3C4539.4,1347.7,4539.6,1350.1,4539.7,1352.5z"/>
								<path class="st56" d="M4246.3,1427.7"/>
								<path class="st4" d="M4484.7,1454.2c-13.7-29.5-25.4-86.5-25.4-86.5c-26.5,9.8-140.4-31.3-140.4-31.3
									c-12.2,24-31.7,44.9-48,59.7c18.7-32.4,35.2-77.3,37.7-81.5c0.5-0.7,2.1-0.8,4.7-0.4c23.3,3.9,125.5,49.9,173,36.9l-0.1,1.1
									c-0.3,3-1.1,12.1-1.8,24.4v0.6C4483.2,1398.3,4482.3,1428.8,4484.7,1454.2z"/>
								<path class="st4" d="M4438.3,1912.4l-49.5-16.6l17.2,48.6l-99.8,86.5l-118.7,102.8l-52.3-140.9l-47.4-127.6l59.9-67.8
									l-42.7-9.5l28.5-128l11.3-2.3l44.3-1l23.6-0.5l50.2-1.2l0.6,3.8l4.4,25.9l15.8,92.8l66.5-54l43-34.9l10.3-8.3l23.8,11.7
									l25.8,12.7l59.1,29c7.3,3.8,13.9,8.1,19.8,12.9c0.3,0.2,0.5,0.4,0.8,0.6L4438.3,1912.4z"/>
								<path class="st24" d="M4438.3,1912.4l-49.5-16.6l17.2,48.6l-99.8,86.5l-118.7,102.8l-52.3-140.9l-47.4-127.6l59.9-67.8
									l-42.7-9.5l28.5-128l11.3-2.3l44.3-1l23.6-0.5l50.2-1.2l0.6,3.8l4.4,25.9l15.8,92.8l66.5-54l43-34.9l10.3-8.3l23.8,11.7
									l25.8,12.7l59.1,29c7.3,3.8,13.9,8.1,19.8,12.9c0.3,0.2,0.5,0.4,0.8,0.6L4438.3,1912.4z"/>
								<path class="st4" d="M4395.7,1676.2l-10.2,4.5c-36.5,16.2-79.4,7.1-106.2-22.5l-9-9.9l-8.3,12.1l-43.4,345.9l120.1-174.8
									L4395.7,1676.2z"/>
								<path class="st24" d="M4536.7,1394.8c-6.2,31.7-20.5,61-35.1,95.9c-0.9,2-4.9,12.3-11.1-5.6c-0.8-2.4-1.6-5-2.3-7.9
									c-0.7-2.8-1.3-5.8-1.8-9c-0.2-1-0.3-2.1-0.5-3.2c-0.7-5-1.3-10.3-1.7-15.9c-0.1-1.5-0.2-3.1-0.3-4.7
									c-0.4-6.2-0.6-12.5-0.7-18.9c0-1.2,0-2.5,0-3.7s0-2.5,0-3.7c0-1.4,0-2.8,0-4.2c0-2.3,0-4.6,0.1-6.9c0-1.2,0-2.4,0.1-3.6
									c0.1-3.1,0.2-6.1,0.3-9c0-0.5,0-1,0-1.5c0-0.8,0.1-1.6,0.1-2.4c0.1-2.4,0.2-4.7,0.3-7c0.1-2.2,0.2-4.3,0.3-6.4v-0.5l1.7-23
									l0.1-0.7v-0.6c0,0,0,0,0-0.1l0.1-1.1c-1,0.3-1.9,0.5-2.9,0.7c-48.6,10.5-147.3-33.8-170.1-37.6c-2.6-0.4-4.2-0.3-4.7,0.4
									c-0.3,0.4-0.7,1.3-1.2,2.4c-0.1,0.2-0.2,0.4-0.3,0.6c-0.1,0.1-0.1,0.3-0.2,0.4c-0.2,0.5-0.4,1-0.7,1.5c-0.5,1.2-1,2.5-1.7,4
									c-0.1,0.3-0.2,0.6-0.4,1c-0.1,0.3-0.3,0.7-0.4,1c-0.3,0.8-0.7,1.7-1.1,2.6c-0.2,0.6-0.5,1.2-0.7,1.8c-0.3,0.8-0.6,1.6-1,2.4
									c-1.2,2.9-2.5,6.1-3.9,9.4c-0.3,0.6-0.6,1.3-0.8,1.9c-1.3,3-2.7,6.2-4.1,9.5c-0.5,1.1-1,2.1-1.5,3.2
									c-0.7,1.7-1.5,3.4-2.3,5.1c-0.4,0.8-0.7,1.6-1.1,2.4c-0.6,1.3-1.2,2.7-1.9,4c-1.2,2.5-2.3,4.9-3.6,7.4c-1.9,4-4,7.9-6,11.8
									c-1,2-2.1,3.9-3.2,5.9c-1.1,1.9-2.1,3.7-3.2,5.5c-0.2,0.4-0.4,0.7-0.6,1.1c-1.4,2.3-2.8,4.5-4.2,6.7c-0.3,0.5-0.7,1.1-1,1.6
									c-3.2,4.7-6.3,8.9-9.5,12.3c-10,10.9-12.7,6.8-15.1,12.1c5.9-36.7,3.9-55.3,10.3-92c3.3-19.1,7.3-36.9,14-52.3
									c2.7-6.5,5.9-12.5,9.7-18c20.7-30.2,57.3-44.7,96.9-46.4c25.5-1.1,52.3,3.1,76.8,12c0,0,0.1,0,0.1,0.1
									c9.5,5.1,18.4,9.1,26.8,12.2c66.2,24.4,97.8-8.2,97.8-8.2s13.4,79.2-32.3,105.6c0.2,2.5,0.4,4.9,0.6,7.3
									c0.1,2.4,0.2,4.8,0.2,7.1c0,1.2,0,2.3,0,3.5s0,2.3-0.1,3.5c0,1.2-0.1,2.3-0.1,3.4c-0.1,2.9-0.3,5.7-0.6,8.5
									c-0.1,0.8-0.1,1.6-0.2,2.4c-0.1,1.2-0.3,2.5-0.5,3.7c-0.1,0.8-0.2,1.7-0.3,2.5c-0.1,0.9-0.3,1.7-0.4,2.6s-0.3,1.7-0.4,2.6
									C4537.1,1393.1,4536.9,1394,4536.7,1394.8z"/>
								<path class="st57" d="M4486.3,1352.2C4486.2,1352.2,4486.2,1352.2,4486.3,1352.2c-1-0.1-1.9-0.2-2.8-0.4
									c1-0.2,2-0.4,2.9-0.7L4486.3,1352.2z"/>
							</g>
							<g class="st54">
								<path class="st4" d="M4019.5,1985.1l-373.2-272.7l35.8-127.3c9.8-34.7,39.8-59.6,75.2-63c2.2-0.2,4.3-0.4,6.5-0.4l17.9-0.4
									l29.1-0.7l15.5-0.4l32.9-0.8h1.2l-0.8,2.5l-4.3,13.6l7.2,3.4l54,25.4l19.2,9l9-31.9l2.2-7.7l4.6,2.2l15.6,7.7l17,8.3
									l38.8,19c4.8,2.5,9.1,5.3,13,8.4c0.2,0.1,0.3,0.3,0.5,0.4c22.4,18.2,29.8,46.3,28.7,77.8L4019.5,1985.1z"/>
								<path class="st12" d="M4019.5,1985.1l-373.2-272.7l35.8-127.3c9.8-34.7,39.8-59.6,75.2-63c2.2-0.2,4.3-0.4,6.5-0.4l17.9-0.4
									l29.1-0.7l15.5-0.4l32.9-0.8h1.2l-0.8,2.5l-4.3,13.6l7.2,3.4l54,25.4l19.2,9l9-31.9l2.2-7.7l4.6,2.2l15.6,7.7l17,8.3
									l38.8,19c4.8,2.5,9.1,5.3,13,8.4c0.2,0.1,0.3,0.3,0.5,0.4c22.4,18.2,29.8,46.3,28.7,77.8L4019.5,1985.1z"/>
								<path class="st55" d="M4031,1434.7c-2.1,8.2-7.7,16.2-13.7,20c-0.1,0.1-0.2,0.2-0.3,0.2c-0.3,0.2-0.6,0.3-0.9,0.5
									c-1.8,1-3.7,1.9-5.6,2.6l-17.3,6.7l-1.2,0.5c-1.1,1.5-2.2,3-3.4,4.4c-7,8.9-17.2,14-26.4,20.7c-4.2,3-8.5,5.9-13.1,8.6
									c-0.1,0.1-0.3,0.2-0.4,0.2l-3,22.5l-6,44.3l-3.5,25.8l-89-19.8l5.9-19.3l12-39.4l7.2-23.6c-0.1-0.1-0.2-0.3-0.4-0.4
									c-11.9-14.3-19.8-33.2-26.4-48.7c-1.9-4.4-3.6-8.5-5-12.4l0,0l-10.3-10.3c-4-4-7.2-8.8-9.5-13.9c-2.2-5.2-3.5-10.7-3.6-16.4
									c-0.2-6.6,4.6-12.4,11.1-13.3l15.6-2.3c5.1-12.3,12-24,17.5-35.9c7.7-16.6,15.4-33.3,23.2-49.9l121.5-7.5l6.4,62.4
									c0,17.3,0,34.6,0,52c0,4.9,0.2,10,0.3,15.1l0.3,0.2l16.3,10.2c0.1,0.1,0.1,0.2,0.2,0.3
									C4032.2,1423.3,4032.4,1429,4031,1434.7z"/>
								<path class="st52" d="M3947.3,1514.2c-14.6,9-31.3,15.5-48.5,11.7c-13.2-2.9-23.5-11.2-31.8-21.7l4.8-15
									c8.1,9.8,18.1,17.5,30.7,20.3c16.4,3.7,32.4-2.2,46.6-10.5L3947.3,1514.2z"/>
								<path class="st12" d="M4015.8,1411.8c-0.6,1.3-3.2,8-7.3-3.7c-0.2-0.7-0.5-1.4-0.7-2.1c-0.3-1-0.6-2-0.8-3.1
									c-0.3-1.2-0.6-2.5-0.8-3.8c0-0.1,0-0.2-0.1-0.2c-0.2-1.3-0.4-2.6-0.6-3.9c-0.1-0.7-0.2-1.4-0.3-2.2
									c-0.2-1.4-0.4-2.9-0.5-4.5c-0.1-1.5-0.3-3.1-0.4-4.6c-0.1-1.6-0.2-3.2-0.3-4.8c-0.1-2.4-0.2-4.8-0.3-7.3
									c0-1.1-0.1-2.3-0.1-3.4s0-2.2,0-3.3c0-1,0-2.1,0-3.1c0-3.4,0.1-6.7,0.2-10c0-1.4,0.1-2.8,0.1-4.1c0.1-1,0.1-1.9,0.1-2.9
									c0.1-1.7,0.1-3.3,0.2-4.8c0-0.9,0.1-1.8,0.1-2.7v-0.4l1.1-15.6v-0.4l0.1-0.7c-31.2,8.5-98.2-21.7-113.5-24.2
									c-1.7-0.3-2.8-0.2-3.1,0.3c-0.1,0.1-0.1,0.3-0.2,0.5c-0.1,0.2-0.2,0.4-0.3,0.6c-0.2,0.4-0.4,1-0.7,1.6
									c-0.2,0.4-0.4,0.9-0.6,1.5c-0.5,1.2-1.1,2.6-1.7,4.2c-0.3,0.8-0.7,1.6-1.1,2.5l0,0c-0.4,1-0.9,2.1-1.3,3.3
									c-1,2.3-2,4.7-3.1,7.3c-0.3,0.8-0.7,1.5-1,2.3c-0.6,1.4-1.2,2.8-1.9,4.3c-0.6,1.3-1.2,2.7-1.9,4.1v0.1c-1,2.1-2,4.3-3.1,6.5
									c-1.4,2.9-2.8,5.8-4.3,8.6c-1.1,2.1-2.3,4.2-3.4,6.2c-0.4,0.8-0.9,1.6-1.4,2.3c-0.5,0.8-0.9,1.5-1.4,2.3
									c-0.5,0.7-0.9,1.5-1.4,2.2c-0.4,0.7-0.9,1.4-1.4,2c-1.8,2.7-3.7,5.1-5.5,7c-6.6,7.1-8.4,4.5-9.9,8
									c3.9-24.1,2.6-36.3,6.8-60.3c2.2-12.5,4.8-24.2,9.2-34.3c1.8-4.2,3.9-8.2,6.4-11.8c38.1-55.4,158.1-30.5,172.3,35
									c0.6,2.9,1.2,5.7,1.5,8.5C4045.4,1348.9,4030.9,1375.7,4015.8,1411.8z"/>
								<path class="st12" d="M4005.7,1321.3l-1.1,15.6C4004.9,1329.3,4005.4,1323.6,4005.7,1321.3z"/>
								<path class="st12" d="M4004.3,1383.7c0.1,1.6,0.3,3.1,0.4,4.6c0-0.2-0.1-0.4-0.1-0.5
									C4004.5,1386.5,4004.4,1385.1,4004.3,1383.7z"/>
								<path class="st56" d="M3848.3,1370.4"/>
								<path class="st24" d="M3963,1677.4l-30-10.1l10.4,29.5l-60.6,52.5l-72.1,62.4l-31.8-85.6l-28.8-77.5l36.4-41.2l-25.9-5.8
									l17.3-77.7l6.9-1.4l26.9-0.6l14.3-0.3l30.5-0.7l0.4,2.3l2.7,15.7l9.6,56.3l40.4-32.8l26.1-21.2l6.2-5.1l14.5,7.1l15.7,7.7
									l35.9,17.6c4.4,2.3,8.5,4.9,12,7.8c0.2,0.1,0.3,0.3,0.5,0.4L3963,1677.4z"/>
								<path class="st4" d="M3946.3,1533.5l-6.7,3c-24,10.6-52.1,4.7-69.7-14.8l-5.9-6.5l-5.4,8l-28.5,226.9l78.8-114.7
									L3946.3,1533.5z"/>
							</g>
						</g>
					</g>
				</g>
			</g>
			<ellipse class="st58" cx="4374.9" cy="1494.9" rx="342.5" ry="342.5"/>
			<ellipse class="st58" cx="4374.9" cy="1494.9" rx="342.5" ry="342.5"/>
			<g>
				<path class="st4" d="M4457.8,1122.8c-205.5-45.8-409.3,83.7-455,289.3c-13.4,60-11.8,119.8,2.3,175.6l-206.6,100.9
					c7.1,18.7,15.5,36.7,25.1,53.9l200.6-98c46.6,109.1,143.2,194.9,267.9,222.6c205.5,45.8,409.3-83.7,455-289.3
					S4663.3,1168.5,4457.8,1122.8z M4300.5,1829.2c-184.6-41.1-301-224.1-259.8-408.8c41.1-184.6,224.1-301,408.8-259.8
					c184.6,41.1,301,224.1,259.8,408.8C4668.1,1754,4485.1,1870.3,4300.5,1829.2z"/>
				<path class="st27" d="M4457.8,1122.8c-205.5-45.8-409.3,83.7-455,289.3c-13.4,60-11.8,119.8,2.3,175.6l-206.6,100.9
					c7.1,18.7,15.5,36.7,25.1,53.9l200.6-98c46.6,109.1,143.2,194.9,267.9,222.6c205.5,45.8,409.3-83.7,455-289.3
					S4663.3,1168.5,4457.8,1122.8z M4300.5,1829.2c-184.6-41.1-301-224.1-259.8-408.8c41.1-184.6,224.1-301,408.8-259.8
					c184.6,41.1,301,224.1,259.8,408.8C4668.1,1754,4485.1,1870.3,4300.5,1829.2z"/>
				
					<ellipse transform="matrix(0.7071 -0.7071 0.7071 0.7071 223.477 3532.4243)" class="st52" cx="4375.8" cy="1496.5" rx="329.6" ry="329.6"/>
			</g>
			
				<linearGradient id="SVGID_5_" gradientUnits="userSpaceOnUse" x1="4747.0459" y1="-1710.6884" x2="5052.7861" y2="-1272.0167" gradientTransform="matrix(0.9761 0.2174 -0.2174 0.9761 -623.1381 1914.4124)">
				<stop  offset="0" style="stop-color:#FFFFFF"/>
				<stop  offset="1" style="stop-color:#FFFFFF;stop-opacity:0"/>
			</linearGradient>
			<path class="st59" d="M4665.9,1543.9c-13.7,61.2-46.4,113.2-90.6,151.1c-34.1,29.2-85.7-1.6-75.9-45.4c0.2-1,0.5-2.1,0.7-3.1
				c31.1-147.6-62.3-294.6-209.1-329.2c-41.1-9.7-82.2-9.8-120.8-1.7c63.8-85,173.6-129.6,284.1-104.9
				C4604.8,1244.3,4699.5,1393.3,4665.9,1543.9z"/>
		</g>
		<g>
			<g>
				<path class="st4" d="M1257.5,1079c1.4-3.8,2.8-7.6,4.2-11.5C1408.9,646.2,944.2,376.4,598.4,530
					c-228.2,101.5-342.7,322.3-257.2,564C481.4,1490.1,1111.3,1462.9,1257.5,1079z"/>
				<path class="st52" d="M1257.5,1079c1.4-3.8,2.8-7.6,4.2-11.5C1408.9,646.2,944.2,376.4,598.4,530
					c-228.2,101.5-342.7,322.3-257.2,564C481.4,1490.1,1111.3,1462.9,1257.5,1079z"/>
			</g>
			<g>
				<path class="st24" d="M587.4,1148.9l-9.3,4.3l-6.3,2.9c-15.2,6.9-33.2,0.3-40.1-14.9l-30-65.6l-19.3-42.3
					c-7-15.2-0.3-33.2,14.9-40.1l6.8-3.1l6.1-2.8l1-0.4c0.1,0.2,0.2,0.4,0.3,0.6l70.5,154.1C583.1,1144.4,585.1,1146.9,587.4,1148.9
					z"/>
				<path class="st12" d="M940.7,1032.4l-14.6,4.9l-31.6,10.5l-175.6,58.5l-53.9,18l-1.5,0.5l-18.7,6.2l-22.1,7.4l-26.5,8.8
					l-3.2,1.1l-79-172.6c-0.2-2,16.4-17.1,41.8-39.1c18.3-15.8,41.3-35.2,65.8-55.7c23.5-19.7,48.6-40.4,72.5-60.1
					c20.3-16.7,39.7-32.6,56.7-46.5c10.8-8.9,20.7-16.9,29.1-23.8c4-3.3,7.7-6.2,11-9c4.9-4,9.1-7.4,12.3-10c0.3,0.7,0.5,1.3,0.8,2
					L940.7,1032.4z"/>
				<path class="st24" d="M986.3,1057.6l-5.4,2.5c-12.6,5.8-27.5,0.2-33.3-12.4l-7-15.3l-136.8-299c-0.3-0.7-0.6-1.3-0.8-2
					c-4.4-12.1,1.3-25.8,13.2-31.3l5.4-2.5c12.6-5.8,27.5-0.2,33.3,12.4l143.8,314.2C1004.4,1036.9,998.9,1051.8,986.3,1057.6z"/>
				<path class="st24" d="M940.7,1032.4l-14.6,4.9l-2.2-4.9L790.7,741.5c4.9-4,9.1-7.4,12.3-10c0.3,0.7,0.5,1.3,0.8,2L940.7,1032.4z
					"/>
				<path class="st24" d="M700.1,1241.2l-11.5,5.3c-7.6,3.5-16.5,0.1-20-7.4l-5.8-12.7l-6.4-13.9l-26.7-58.4l-3.4-7.5l-3.8-8.2
					l22.1-7.4l18.7-6.2l1.2,2.7l0,0l4.7,10.3l38.2,83.4c0.1,0.2,0.2,0.4,0.3,0.7l0,0C710.8,1229.3,707.4,1237.9,700.1,1241.2z"/>
				<path class="st24" d="M648.2,1138.8l-21.9,7.8l-17.6,6.3c-4.4,1.6-9,1.7-13.2,0.4c-2.9-0.9-5.7-2.3-8-4.3s-4.3-4.5-5.6-7.4
					l-70.5-154.1c-0.1-0.2-0.2-0.4-0.3-0.6c-0.3-0.6-0.5-1.3-0.7-2c-1.7-5.6-1.1-11.6,1.6-16.6c1.3-2.4,3.1-4.6,5.3-6.5l36.4-29.6
					l2,4.5l50,109.4l39,85.1L648.2,1138.8z"/>
				<path class="st24" d="M587.4,1148.9l-9.3,4.3c-0.8-1-1.4-2.1-1.9-3.3l-67.5-147.6l0,0l-3-6.5c-0.1-0.2-0.2-0.4-0.3-0.6
					c-0.7-1.7-1.2-3.4-1.4-5.2l6.1-2.8l1-0.4c0.1,0.2,0.2,0.4,0.3,0.6l70.5,154.1C583.1,1144.4,585.1,1146.9,587.4,1148.9z"/>
				<polygon class="st24" points="1040.7,699.3 951.5,765.9 929.3,742.7 996.3,653 				"/>
				<polygon class="st24" points="1125.2,976.2 1018.6,944.3 1023.9,912.7 1135.9,912.9 				"/>
				<polygon class="st24" points="1106.7,828.1 997.7,856 984,827 1072.2,752.7 				"/>
				<path class="st24" d="M973.3,853.2c9.5,20.8,0.4,45.4-20.4,54.9c-2.1,0.9-4.2,1.7-6.3,2.3l-34-74.4c1.8-1.2,3.8-2.3,5.8-3.3
					C939.2,823.2,963.8,832.4,973.3,853.2z"/>
				<polygon class="st24" points="669.3,1137.8 663.4,1140.3 629.7,1154.1 626.3,1146.6 622.5,1138.4 644.7,1131 663.4,1124.8 
					664.6,1127.4 664.6,1127.5 				"/>
			</g>
			<g class="st60">
				
					<linearGradient id="SVGID_6_" gradientUnits="userSpaceOnUse" x1="560.1512" y1="-1886.8818" x2="563.7501" y2="-1685.3521" gradientTransform="matrix(1 0 0 1 0 2784)">
					<stop  offset="0" style="stop-color:#FFFFFF"/>
					<stop  offset="1" style="stop-color:#FFFFFF;stop-opacity:0"/>
				</linearGradient>
				<path class="st61" d="M621.5,880.9l-15.8,165l-9.7,101.3l-0.6,6c-2.9-0.9-5.7-2.3-8-4.3l-9.3,4.3l-6.3,2.9
					c-15.2,6.9-33.2,0.3-40.1-14.9l-30-65.6l7-73.3l0,0l1.4-15l0.2-2.4l1.6-16.6c1.3-2.4,3.1-4.6,5.3-6.5l36.4-29.6l2,4.5
					C574,920.7,596.9,901.4,621.5,880.9z"/>
				<path class="st28" d="M707.5,1221.2c0.1,0.2,0.2,0.4,0.3,0.7l0,0l-0.8,8.7l-44.1-4.2l-7.6-0.7l1.3-13.2l6.9-72.2l1.2-12.8
					l4.7,10.3L707.5,1221.2z"/>
				
					<linearGradient id="SVGID_7_" gradientUnits="userSpaceOnUse" x1="706.7723" y1="-1889.5" x2="710.371" y2="-1687.9705" gradientTransform="matrix(1 0 0 1 0 2784)">
					<stop  offset="0" style="stop-color:#FFFFFF"/>
					<stop  offset="1" style="stop-color:#FFFFFF;stop-opacity:0"/>
				</linearGradient>
				<path class="st62" d="M750.6,774.2l-31.8,332.1l-53.9,18l29-303.5C714.2,804.1,733.6,788.1,750.6,774.2z"/>
			</g>
		</g>
		<g>
			<g>
				
					<ellipse transform="matrix(0.7071 -0.7071 0.7071 0.7071 -1619.7035 822.4357)" class="st12" cx="182.9" cy="2366.4" rx="37.1" ry="37.1"/>
				
					<ellipse transform="matrix(0.7071 -0.7071 0.7071 0.7071 -1822.1964 962.9532)" class="st12" cx="251.3" cy="2681.1" rx="31.3" ry="31.3"/>
				<ellipse class="st63" cx="481.4" cy="3022.2" rx="20.5" ry="20.5"/>
				<ellipse class="st64" cx="4210.1" cy="3229.4" rx="20.5" ry="20.5"/>
				<circle class="st12" cx="4553.2" cy="3082.2" r="21.5"/>
				<ellipse class="st65" cx="4713.7" cy="2638.5" rx="26.4" ry="26.4"/>
			</g>
			<g>
				<g>
					<path class="st4" d="M4555.6,2518.9l-7.4,41.4c-24.4,136.2-129,244-264.5,272.3l-15.7,3.3l9.9-47.7
						c25.1-120.9,113.9-218.6,231.8-255.2L4555.6,2518.9z"/>
					<path class="st4" d="M4128.3,2905.9l37.9-7.3c124.4-24,251.5,29.8,321.2,135.9l8.1,12.3l-44,7.2
						c-111.6,18.3-224.8-25.2-295.6-113.7L4128.3,2905.9z"/>
					<path class="st66" d="M4555.6,2518.9l-7.4,41.4c-24.4,136.2-129,244-264.5,272.3l-15.7,3.3l9.9-47.7
						c25.1-120.9,113.9-218.6,231.8-255.2L4555.6,2518.9z"/>
					<path class="st4" d="M4128.3,2905.9l37.9-7.3c124.4-24,251.5,29.8,321.2,135.9l8.1,12.3l-44,7.2
						c-111.6,18.3-224.8-25.2-295.6-113.7L4128.3,2905.9z"/>
					<path class="st4" d="M4819.4,2812.1l-35.8,22.1c-117.8,72.6-267.9,66.3-379.3-15.7l-12.9-9.5l42.1-24.4
						c106.9-61.8,238.9-60.8,344.7,2.8L4819.4,2812.1z"/>
					<path class="st4" d="M4819.4,2812.1l-35.8,22.1c-117.8,72.6-267.9,66.3-379.3-15.7l-12.9-9.5l42.1-24.4
						c106.9-61.8,238.9-60.8,344.7,2.8L4819.4,2812.1z"/>
					<path class="st4" d="M4555.6,2518.9l-7.4,41.4c-24.4,136.2-129,244-264.5,272.3l-15.7,3.3l9.9-47.7
						c25.1-120.9,113.9-218.6,231.8-255.2L4555.6,2518.9z"/>
					<path class="st4" d="M3997.3,2937.7l4.4,46.8l13.1-8.7c61.9-41,109.1-100.1,136.5-167c0-0.1,0-0.1,0.1-0.2
						c22.7-55.4,31.9-116.1,24.7-176.2l-4.8-40.3l-37.1,29.6c-15.1,12-29.1,25.2-41.9,39.2
						C4023.8,2736.1,3988.1,2837.7,3997.3,2937.7z"/>
					<path class="st4" d="M4128.3,2905.9l27.5,34.4c51.4,64.2,125.1,104.8,204.4,115.2c29.9,3.9,60.6,3.5,91.2-1.5l44-7.2l-8.1-12.3
						c-47.9-73.1-123.1-121.3-205.9-136.5h-0.1c-37.4-6.8-76.4-6.9-115.2,0.6L4128.3,2905.9z"/>
					<g class="st67">
						<g>
							<path class="st25" d="M3892.2,3107.9c3.2,0.7,6.4,1.3,9.7,2c16.9-26.3,35.9-50.4,56.4-72.5c2.4-2.6,4.8-5.2,7.3-7.7
								c17.5-18.1,36-34.9,55.3-50.4c34.5-27.8,71.4-51.5,108.9-71.6c2.1-1.1,4.1-2.2,6.2-3.3c68.3-36.1,138.2-60.5,198.8-76.9
								c9.2-2.5,18.2-4.8,27.1-7c11.7-2.9,23.2-5.5,34.4-7.9l0,0c14.1-3.1,27.9-5.8,41.1-8.2c102.6-18.7,177.3-19.5,178.3-19.5
								c2.6,0,4.6-2.1,4.6-4.6c0-2.6-2.1-4.6-4.6-4.6c-1,0-74.6,0.9-176.2,19c-11.4,2.1-23.2,4.3-35.3,6.8c-3.5,0.7-7,1.5-10.5,2.2
								c-9.9,2.1-20,4.5-30.3,6.9c-10.1,2.4-20.4,5.1-30.9,7.9c-0.1,0-0.1,0-0.2,0c-15.6,4.2-30.8,8.7-45.8,13.5
								c-71.4,22.6-136.1,51.1-192.8,85c-9.5,5.7-18.7,11.5-27.7,17.4c-15.3,10.1-30,20.7-44,31.7c-7,5.5-13.9,11.1-20.6,16.8
								c-16.4,14-31.8,28.6-46.2,43.9c-2.5,2.6-4.9,5.2-7.3,7.9c-20.8,22.9-39.3,47.1-55.6,72.6
								C3892.4,3107.6,3892.3,3107.8,3892.2,3107.9z"/>
						</g>
					</g>
					<path class="st68" d="M4554.2,2527.8l-7.4,41.4c-24.4,136.2-129,244-264.5,272.3l-15.7,3.3l9.9-47.7
						c25.1-120.9,113.9-218.6,231.8-255.2L4554.2,2527.8z"/>
					<path class="st69" d="M3997.3,2937.7l4.4,46.8l13.1-8.7c61.9-41,109.1-100.1,136.5-167c0-0.1,0-0.1,0.1-0.2
						c17.7-52.6,24.1-108.8,17.5-164.4l-5.2-43.2l-39.7,31.7c-11.1,8.9-21.7,18.3-31.7,28.3
						C4023.8,2736.1,3988.1,2837.7,3997.3,2937.7z"/>
					<path class="st70" d="M4143.7,2908.4l27.5,34.4c48,60,115.6,99.4,188.9,112.8c29.9,3.9,60.6,3.5,91.2-1.5l44-7.2l-8.1-12.3
						c-47.9-73.1-123.1-121.3-205.9-136.5h-0.1c-32.7-4.3-66.3-3.5-99.8,3L4143.7,2908.4z"/>
					<path class="st4" d="M4819.4,2812.1l-35.8,22.1c-117.8,72.6-267.9,66.3-379.3-15.7l-12.9-9.5l42.1-24.4
						c106.9-61.8,238.9-60.8,344.7,2.8L4819.4,2812.1z"/>
					<path class="st71" d="M4819.4,2812.1l-35.8,22.1c-117.8,72.6-267.9,66.3-379.3-15.7l-12.9-9.5l42.1-24.4
						c106.9-61.8,238.9-60.8,344.7,2.8L4819.4,2812.1z"/>
				</g>
				<g>
					<path class="st4" d="M1155.5,2899.8L1155.5,2899.8c-4.2,1-8.4,1.9-12.7,2.8c-0.4,0.1-0.8,0.2-1.2,0.3l0,0l-0.1-0.1
						c-2.4-1-5.4-2.3-8.9-3.7c-3.7-1.5-7.9-3.1-12.6-4.9c-0.6-0.2-1.2-0.4-1.8-0.7c-28.4-10.5-73.9-24.9-128-32.8
						c-13.9-2-28.4-3.6-43.3-4.6c-21.4-1.4-44.5-1.5-68.7,0.3c-3.5,0.3-7,0.6-10.6,1l0,0c-22.6,2.3-46,6.5-69.6,13.2
						c-18.6,5.2-37.3,12-55.9,20.7c-5,2.3-10,4.8-15.1,7.5c-10.8,5.7-21.6,12-32.2,19.1c-35.9,23.9-70.5,56.1-101.4,99
						c-0.9,1.3-2.3,1.9-3.8,1.9c-0.1,0-0.2,0-0.3,0c-0.8,0-1.7-0.3-2.4-0.8s-1.2-1.1-1.5-1.9c-0.6-1.4-0.5-3.2,0.5-4.6
						c28.2-39.1,60.7-71.6,97.1-97.1c24.7-17.3,51.1-31.3,79.3-42.1c12.7-4.9,25.8-9.1,39.2-12.6c19.4-5.1,39.4-8.8,60-11.1
						c3.5-0.4,7.1-0.8,10.6-1.1c24.4-2.1,49.6-2.4,75.6-0.6c10.9,0.7,21.7,1.8,32.2,3.1c55,6.9,102.3,20.9,133.6,32.1
						c2.9,1,5.7,2.1,8.4,3.1c2.5,0.9,4.8,1.8,7.1,2.7c3.2,1.3,6.2,2.4,8.8,3.5c9.9,4.1,15.5,6.7,15.7,6.8
						C1154.4,2898.5,1155.1,2899.1,1155.5,2899.8z"/>
				</g>
				<path class="st4" d="M596.1,3004.3l-26.8,11.9c-88,39.2-143.8,128.1-140.9,224.5l0.3,11.2l30.6-14.7
					c77.5-37.2,129.1-113.6,134.7-199.5L596.1,3004.3z"/>
				<path class="st4" d="M740.6,2885.7l-21,20.4c-69.1,67.1-90.9,169.7-55.1,259.3l4.1,10.4l23.7-24.3c60-61.6,82.2-151,57.8-233.7
					L740.6,2885.7z"/>
				<path class="st72" d="M740.6,2885.7l-21,20.4c-69.1,67.1-90.9,169.7-55.1,259.3l4.1,10.4l23.7-24.3c60-61.6,82.2-151,57.8-233.7
					L740.6,2885.7z"/>
				<g class="st67">
					<g>
						<path class="st25" d="M1155.5,2899.8L1155.5,2899.8c-4.2,1-8.4,1.9-12.7,2.8c-0.4,0.1-0.8,0.2-1.2,0.3l0,0l-0.1-0.1
							c-2.4-1-5.4-2.3-8.9-3.7c-3.7-1.5-7.9-3.1-12.6-4.9c-0.6-0.2-1.2-0.4-1.8-0.7c-28.4-10.5-73.9-24.9-128-32.8
							c-13.9-2-28.4-3.6-43.3-4.6c-21.4-1.4-44.5-1.5-68.7,0.3c-3.5,0.3-7,0.6-10.6,1l0,0c-22.6,2.3-46,6.5-69.6,13.2
							c-18.6,5.2-37.3,12-55.9,20.7c-5,2.3-10,4.8-15.1,7.5c-10.8,5.7-21.6,12-32.2,19.1c-35.9,23.9-70.5,56.1-101.4,99
							c-0.9,1.3-2.3,1.9-3.8,1.9c-0.1,0-0.2,0-0.3,0c-0.8,0-1.7-0.3-2.4-0.8s-1.2-1.1-1.5-1.9c-0.6-1.4-0.5-3.2,0.5-4.6
							c28.2-39.1,60.7-71.6,97.1-97.1c24.7-17.3,51.1-31.3,79.3-42.1c12.7-4.9,25.8-9.1,39.2-12.6c19.4-5.1,39.4-8.8,60-11.1
							c3.5-0.4,7.1-0.8,10.6-1.1c24.4-2.1,49.6-2.4,75.6-0.6c10.9,0.7,21.7,1.8,32.2,3.1c55,6.9,102.3,20.9,133.6,32.1
							c2.9,1,5.7,2.1,8.4,3.1c2.5,0.9,4.8,1.8,7.1,2.7c3.2,1.3,6.2,2.4,8.8,3.5c9.9,4.1,15.5,6.7,15.7,6.8
							C1154.4,2898.5,1155.1,2899.1,1155.5,2899.8z"/>
					</g>
				</g>
				<path class="st52" d="M596.1,3004.3l-26.8,11.9c-88,39.2-143.8,128.1-140.9,224.5l0.3,11.2l30.6-14.7
					c77.5-37.2,129.1-113.6,134.7-199.5L596.1,3004.3z"/>
				<g>
					<path class="st4" d="M914.8,2921c-3.9-1-7.8-1.9-11.7-2.9c-10.5-21.3-22.4-41.5-35.4-60.7l0,0c-2-3-4-5.9-6-8.8
						c-14.5-20.6-30.2-40.1-46.8-58.3c-29.8-32.8-62.6-61.9-96.5-87.5c-1.9-1.5-3.7-2.9-5.6-4.2c0,0,0,0-0.1,0
						c-61.9-46.2-127.2-81.1-184.5-106.6c-8.7-3.8-17.2-7.6-25.8-11.1c-11.1-4.6-22-9-32.7-13.1h-0.1c-13.5-5.2-26.6-10-39.4-14.4
						c-4.8-1.7-9.5-3.3-14.2-4.8c-91.3-30.6-158.1-41.8-159-42c-2.5-0.4-4.2-2.8-3.8-5.3s2.8-4.3,5.3-3.8
						c0.9,0.2,65.6,11,154.9,40.5c5.3,1.8,10.7,3.6,16.3,5.5c11,3.8,22.3,7.8,33.8,12.2l0,0c3.3,1.2,6.6,2.5,10,3.8
						c6.4,2.4,12.8,5,19.3,7.6c3.2,1.3,6.3,2.6,9.5,3.9c9.7,4,19.4,8.2,29.2,12.6l0,0h0.1h0.1c14.7,6.6,29.1,13.4,43.2,20.4l0,0
						c5.8,2.9,11.7,5.9,17.4,8.9c60,31.2,113.6,66.3,159.9,104.9c8.5,7.1,16.7,14.2,24.7,21.5h0.1c13.6,12.4,26.4,25.1,38.5,38.1
						c6.1,6.5,12,13.1,17.7,19.8c14,16.4,27,33.2,38.9,50.5c2,3,4,5.9,6,8.9C892.1,2877.3,904.2,2898.9,914.8,2921z"/>
				</g>
				<path class="st73" d="M4725.4,2610.4"/>
				<g>
					<g>
						<g>
							<g>
								<path class="st4" d="M4384.3,3222.7c-1.8,0-3.5-0.8-4.6-2.4c-9.9-14.2-21-27.6-33-39.8c-91.5-92.8-227.5-108.4-325.6-105
									c-106.7,3.6-192.6,29.7-193.4,30c-3,0.9-6.2-0.8-7.1-3.7c-0.9-3,0.8-6.2,3.7-7.1c0.9-0.3,88.2-26.8,196.4-30.5
									c100.3-3.4,239.7,12.6,334,108.4c12.4,12.6,23.9,26.5,34.2,41.2c1.8,2.6,1.2,6.1-1.4,7.9
									C4386.6,3222.3,4385.4,3222.7,4384.3,3222.7z"/>
							</g>
						</g>
						<g>
							<path class="st4" d="M4135.1,3331.4c0,0,21.5-201.3-192.1-259.6C3942.9,3071.8,3895.7,3252.9,4135.1,3331.4z"/>
						</g>
						<path class="st4" d="M4404.9,2945.5c0,0-189.5-71.5-299.6,120.7C4105.3,3066.1,4268.7,3157.3,4404.9,2945.5z"/>
						<path class="st4" d="M4309.3,3175.1c4.9-15.2,207.9,55.1,143.7,260.5C4453,3435.6,4245.2,3372.8,4309.3,3175.1z"/>
					</g>
				</g>
				<g class="st67">
					<g>
						<g>
							<g>
								<path class="st25" d="M4384.3,3222.7c-1.8,0-3.5-0.8-4.6-2.4c-9.9-14.2-21-27.6-33-39.8c-91.5-92.8-227.5-108.4-325.6-105
									c-106.7,3.6-192.6,29.7-193.4,30c-3,0.9-6.2-0.8-7.1-3.7c-0.9-3,0.8-6.2,3.7-7.1c0.9-0.3,88.2-26.8,196.4-30.5
									c100.3-3.4,239.7,12.6,334,108.4c12.4,12.6,23.9,26.5,34.2,41.2c1.8,2.6,1.2,6.1-1.4,7.9
									C4386.6,3222.3,4385.4,3222.7,4384.3,3222.7z"/>
							</g>
						</g>
						<g class="st74">
							<path class="st25" d="M4135.1,3331.4c0,0,21.5-201.3-192.1-259.6C3942.9,3071.8,3895.7,3252.9,4135.1,3331.4z"/>
						</g>
						<path class="st25" d="M4404.9,2945.5c0,0-189.5-71.5-299.6,120.7C4105.3,3066.1,4268.7,3157.3,4404.9,2945.5z"/>
						<g class="st75">
							<path class="st25" d="M4309.3,3137.6c4.9-15.2,207.9,55.1,143.7,260.5C4453,3398.1,4245.2,3335.3,4309.3,3137.6z"/>
						</g>
					</g>
				</g>
				<g>
					<g>
						<path class="st4" d="M3953.3,2877.2c0,2.1,0,4.5-0.1,6.9c-0.5,35.1-3.2,98.9-14.9,161.7c-1.2,6.4-2.5,12.8-3.9,19.1l0,0
							c-0.5,2.4-1,4.7-1.6,7.1c-0.9,4-1.9,7.9-2.9,11.8c-5.3,20.7-11.8,40.6-19.7,58.4c-0.5,1-0.9,2-1.4,3
							c-24.9,1.1-49.9,1.5-74.9,0.9h-0.1c-2.3-0.1-4.6-0.3-7-0.5c-3.6-0.3-7.3-0.5-10.9-0.8c-0.3,0-0.6-0.1-1-0.1
							c-2.8-0.2-5.7-0.5-8.5-0.7l-6.4-0.6c-3-0.3-6-0.6-9.1-0.9c-7.9-0.8-15.8-1.7-23.6-2.6c-2.5-0.3-5-0.6-7.6-0.9
							c-3-0.4-6-0.8-9-1.1c-0.5-0.1-1.1-0.1-1.6-0.2c-0.8,1.2-1.5,2.4-2.2,3.6c-0.6,0-1.1-0.1-1.7-0.1c0.8-1.2,1.5-2.4,2.3-3.7
							c-3.8-0.5-7.5-1-11.3-1.5c-3.1-0.4-6.1-0.9-9.2-1.3c-3.3-0.5-6.6-1-9.8-1.5c-2.3-0.3-4.6-0.7-6.9-1.1c-3.3-0.5-6.6-1-9.9-1.6
							c-37.2-6.1-72.7-13.3-105.5-21c-0.4-0.1-0.9-0.2-1.3-0.3c42.5-82.3,148.9-223.4,359.2-252.6c0,0,0.1,2.4,0.1,6.7v2.8
							C3953.4,2869.1,3953.4,2872.7,3953.3,2877.2z"/>
					</g>
					<path class="st76" d="M3953.3,2877.2c0,2.1,0,4.5-0.1,6.9c-0.5,35.1-3.2,98.9-14.9,161.7c-1.2,6.4-2.5,12.8-3.9,19.1l0,0
						c-0.5,2.4-1,4.7-1.6,7.1c-0.9,4-1.9,7.9-2.9,11.8c-5.3,20.7-11.8,40.6-19.7,58.4c-0.5,1-0.9,2-1.4,3
						c-24.9,1.1-49.9,1.5-74.9,0.9h-0.1c-2.3-0.1-4.6-0.3-7-0.5c-3.6-0.3-7.3-0.5-10.9-0.8c-0.3,0-0.6-0.1-1-0.1
						c-2.8-0.2-5.7-0.5-8.5-0.7l-6.4-0.6c-3-0.3-6-0.6-9.1-0.9c-7.9-0.8-15.8-1.7-23.6-2.6c-2.5-0.3-5-0.6-7.6-0.9
						c-3-0.4-6-0.8-9-1.1c-0.5-0.1-1.1-0.1-1.6-0.2c-0.8,1.2-1.5,2.4-2.2,3.6c-0.6,0-1.1-0.1-1.7-0.1c0.8-1.2,1.5-2.4,2.3-3.7
						c69.5-111,149-209.3,205.5-274.1l0,0v2.8C3953.4,2869.1,3953.4,2872.7,3953.3,2877.2z"/>
				</g>
				<g>
					<g class="st34">
						<path class="st77" d="M3953.3,2877.2c0,2.1,0,4.5-0.1,6.9c-0.4,33.8-2.8,97.6-14.2,160.9c-1.1,6.3-2.4,12.6-3.7,18.9
							c-0.6,2.7-1.1,5.4-1.7,8c-0.9,4-1.8,7.9-2.8,11.8c-5.4,21.7-12.1,42.7-20.4,61.4c-0.5,1-0.9,2-1.4,3
							c-6.8,0.3-13.6,0.6-20.5,0.7c-0.1,0-0.1,0-0.1,0c-2.8-0.1-5.6-0.2-8.3-0.3h-0.5c-3.1-0.1-6.1-0.2-9.2-0.3
							c-3.8-0.2-7.5-0.3-11.2-0.5c-6.3-0.3-12.6-0.7-18.9-1.1c-2.1-0.1-4.1-0.3-6.2-0.4h-0.1c-2.3-0.1-4.6-0.3-7-0.5
							c-3.6-0.3-7.3-0.5-10.9-0.8c-0.3,0-0.6-0.1-1-0.1c-2.8-0.2-5.7-0.5-8.5-0.7l-6.4-0.6c-3-0.3-6-0.6-9.1-0.9
							c-7.9-0.8-15.8-1.7-23.6-2.6c-2.5-0.3-5-0.6-7.6-0.9c-3-0.4-6-0.8-9-1.1c-0.5-0.1-1.1-0.1-1.6-0.2c-0.8,1.2-1.5,2.4-2.2,3.6
							c-0.6,0-1.1-0.1-1.7-0.1c0.8-1.2,1.5-2.4,2.3-3.7c-3.8-0.5-7.5-1-11.3-1.5c-3.1-0.4-6.1-0.9-9.2-1.3c-3.3-0.5-6.6-1-9.8-1.5
							c-2.3-0.3-4.6-0.7-6.9-1.1c-3.3-0.5-6.6-1-9.9-1.6c-37.2-6.1-72.7-13.3-105.5-21c43.4-82.6,149.7-221.3,357.9-250.1
							c0,0,0.1,1.4,0.1,4c0,0.6,0,1.1,0,1.8v1C3953.4,2869.1,3953.4,2872.7,3953.3,2877.2z"/>
					</g>
					<path class="st78" d="M3953.3,2877.2c0,2.1,0,4.5-0.1,6.9c-0.4,33.8-2.8,97.6-14.2,160.9c-1.1,6.3-2.4,12.6-3.7,18.9
						c-0.6,2.7-1.1,5.4-1.7,8c-0.9,4-1.8,7.9-2.8,11.8c-5.4,21.7-12.1,42.7-20.4,61.4c-0.5,1-0.9,2-1.4,3
						c-6.8,0.3-13.6,0.6-20.5,0.7c-0.1,0-0.1,0-0.1,0c-2.8-0.1-5.6-0.2-8.3-0.3h-0.5c-3.1-0.1-6.1-0.2-9.2-0.3
						c-3.8-0.2-7.5-0.3-11.2-0.5c-6.3-0.3-12.6-0.7-18.9-1.1c-2.1-0.1-4.1-0.3-6.2-0.4h-0.1c-2.3-0.1-4.6-0.3-7-0.5
						c-3.6-0.3-7.3-0.5-10.9-0.8c-0.3,0-0.6-0.1-1-0.1c-2.8-0.2-5.7-0.5-8.5-0.7l-6.4-0.6c-3-0.3-6-0.6-9.1-0.9
						c-7.9-0.8-15.8-1.7-23.6-2.6c-2.5-0.3-5-0.6-7.6-0.9c-3-0.4-6-0.8-9-1.1c-0.5-0.1-1.1-0.1-1.6-0.2l0,0
						c69.1-109.9,147.9-207.2,203.9-271.5C3953.4,2869.1,3953.4,2872.7,3953.3,2877.2z"/>
				</g>
				<g>
					<path class="st4" d="M357.7,2252.9l0.9,42.1c3.1,138.3,89.8,261,219.3,309.9l15,5.7l-2.4-48.6
						c-6.1-123.3-78.7-233.6-189.6-287.9L357.7,2252.9z"/>
					<path class="st4" d="M720.1,2701.2l-36.3-13.1c-119.3-42.9-253.1-9.4-338.3,84.7l-9.9,10.9l42.4,13.9
						c107.4,35.4,226,9.8,309.6-66.7L720.1,2701.2z"/>
					<path class="st66" d="M357.7,2252.9l0.9,42.1c3.1,138.3,89.8,261,219.3,309.9l15,5.7l-2.4-48.6
						c-6.1-123.3-78.7-233.6-189.6-287.9L357.7,2252.9z"/>
					<path class="st4" d="M720.1,2701.2l-36.3-13.1c-119.3-42.9-253.1-9.4-338.3,84.7l-9.9,10.9l42.4,13.9
						c107.4,35.4,226,9.8,309.6-66.7L720.1,2701.2z"/>
					<path class="st4" d="M51.8,2501.8l32,27.4c105.2,89.9,254.4,106.9,377.2,43l14.2-7.4l-37.9-30.6c-96-77.6-226.6-96.9-341-50.4
						L51.8,2501.8z"/>
					<path class="st4" d="M51.8,2501.8l32,27.4c105.2,89.9,254.4,106.9,377.2,43l14.2-7.4l-37.9-30.6c-96-77.6-226.6-96.9-341-50.4
						L51.8,2501.8z"/>
					<path class="st4" d="M357.7,2252.9l0.9,42.1c3.1,138.3,89.8,261,219.3,309.9l15,5.7l-2.4-48.6
						c-6.1-123.3-78.7-233.6-189.6-287.9L357.7,2252.9z"/>
					<path class="st4" d="M844.6,2752.8l-11.5,45.6l-11.6-10.6c-54.8-50-92.3-115.8-109.1-186c0-0.1,0-0.1,0-0.2
						c-13.9-58.3-13.6-119.7,2.8-177.9l11-39.1l32.1,35c13,14.2,24.8,29.3,35.3,45.2C849.6,2549.5,869.2,2655.4,844.6,2752.8z"/>
					<path class="st4" d="M720.1,2701.2l-32.5,29.8c-60.7,55.5-139.8,84.2-219.7,82.3c-30.2-0.7-60.4-5.9-89.9-15.5l-42.4-13.9
						l9.9-10.9c58.6-64.8,140.4-100.9,224.5-103h0.1c38-1,76.6,5,113.7,18.3L720.1,2701.2z"/>
					<g class="st67">
						<g>
							<path class="st25" d="M914.8,2921c-3.9-1-7.8-1.9-11.7-2.9c-10.5-21.3-22.4-41.5-35.4-60.7l0,0c-2-3-4-5.9-6-8.8
								c-14.5-20.6-30.2-40.1-46.8-58.3c-29.8-32.8-62.6-61.9-96.5-87.5c-1.9-1.5-3.7-2.9-5.6-4.2c0,0,0,0-0.1,0
								c-61.9-46.2-127.2-81.1-184.5-106.6c-8.7-3.8-17.2-7.6-25.8-11.1c-11.1-4.6-22-9-32.7-13.1h-0.1c-13.5-5.2-26.6-10-39.4-14.4
								c-4.8-1.7-9.5-3.3-14.2-4.8c-91.3-30.6-158.1-41.8-159-42c-2.5-0.4-4.2-2.8-3.8-5.3s2.8-4.3,5.3-3.8
								c0.9,0.2,65.6,11,154.9,40.5c5.3,1.8,10.7,3.6,16.3,5.5c11,3.8,22.3,7.8,33.8,12.2l0,0c3.3,1.2,6.6,2.5,10,3.8
								c6.4,2.4,12.8,5,19.3,7.6c3.2,1.3,6.3,2.6,9.5,3.9c9.7,4,19.4,8.2,29.2,12.6l0,0h0.1h0.1c14.7,6.6,29.1,13.4,43.2,20.4l0,0
								c5.8,2.9,11.7,5.9,17.4,8.9c60,31.2,113.6,66.3,159.9,104.9c8.5,7.1,16.7,14.2,24.7,21.5h0.1c13.6,12.4,26.4,25.1,38.5,38.1
								c6.1,6.5,12,13.1,17.7,19.8c14,16.4,27,33.2,38.9,50.5c2,3,4,5.9,6,8.9C892.1,2877.3,904.2,2898.9,914.8,2921z"/>
						</g>
					</g>
					<path class="st52" d="M357.7,2261.8l0.9,42.1c3.1,138.3,89.8,261,219.3,309.9l15,5.7l-2.4-48.6
						c-6.1-123.3-78.7-233.6-189.6-287.9L357.7,2261.8z"/>
					<path class="st79" d="M844.6,2752.8l-11.5,45.6l-11.6-10.6c-54.8-50-92.3-115.8-109.1-186c0-0.1,0-0.1,0-0.2
						c-9.3-54.7-7-111.2,8.1-165.2l11.8-41.9l34.4,37.5c9.6,10.5,18.6,21.5,26.9,32.8C849.6,2549.5,869.2,2655.4,844.6,2752.8z"/>
					<path class="st70" d="M704.5,2701.2L672,2731c-56.7,51.9-129.5,80.4-204.1,82.3c-30.2-0.7-60.4-5.9-89.9-15.5l-42.4-13.9
						l9.9-10.9c58.6-64.8,140.4-100.9,224.5-103h0.1c32.9,0.8,66.1,6.8,98.1,18.3L704.5,2701.2z"/>
					<path class="st4" d="M51.8,2501.8l32,27.4c105.2,89.9,254.4,106.9,377.2,43l14.2-7.4l-37.9-30.6c-96-77.6-226.6-96.9-341-50.4
						L51.8,2501.8z"/>
					<path class="st72" d="M51.8,2501.8l32,27.4c105.2,89.9,254.4,106.9,377.2,43l14.2-7.4l-37.9-30.6c-96-77.6-226.6-96.9-341-50.4
						L51.8,2501.8z"/>
				</g>
				<path class="st4" d="M1311.4,2833.3c-0.9,6.8-1.8,13.6-3,20.3c-2.3,13.7-5,27-8.3,40c-0.6,2.2-1.1,4.3-1.7,6.4
					c-0.7,2.5-1.4,5-2.2,7.5c-0.5,1.7-0.9,3.2-1.4,4.8c-1.1,3.5-2.2,7.1-3.4,10.5c-0.3,0.8-0.5,1.7-0.8,2.5
					c-0.4,1.1-0.8,2.3-1.2,3.4c-0.6,1.7-1.2,3.3-1.8,4.9c-1,2.8-2.1,5.5-3.3,8.3c-0.4,1.1-0.9,2.2-1.4,3.3c-0.7,1.6-1.4,3.2-2.1,4.8
					c-0.3,0.6-0.5,1.2-0.8,1.8c-1.1,2.3-2.2,4.6-3.3,6.8c-3.3,0.1-6.7,0.2-10,0.3c-4,0.1-8.1,0.1-12.1,0.2c-3.5,0.1-7,0.1-10.4,0.2
					c-1,0-2,0-3,0.1h-0.2c-8.4,0.1-16.9,0.3-25.3,0.3c-2.7,0-5.5,0.1-8.2,0.1s-5.5,0.1-8.2,0.1h-0.3c-2.9,0-5.8,0-8.7,0l0,0
					c-8.1,0-16.1,0.1-24.3,0.1c-0.6-0.7-1.3-1.3-1.9-2c-31.1-2-62.1-4.9-93-8.8c-0.1-0.6-0.2-1.2-0.3-1.8l0,0
					c-0.1-1.1-0.3-2.3-0.4-3.5c-0.5-4.1-1-8.4-1.4-12.9c-1.6-15.9-2.7-34.1-2.9-54c-0.1-3.2,0-6.4,0-9.6c0.2-19.5,1.4-40.4,4.1-62.3
					c0,0,0,0,0-0.1c1.1-8.4,2.4-17,3.9-25.7c0,0,0,0,0-0.1c4.5-25.6,11.3-52.2,21-78.9l0,0c0.4-1.3,0.9-2.5,1.4-3.8v-0.1
					c12.3-32.7,29.1-65.5,51.9-97c5.7-7.9,11.8-15.7,18.2-23.4l0,0c0.1-0.1,0.1-0.2,0.2-0.3c4.5-5.4,9.2-10.6,14.1-15.8l0,0l0,0
					c3.2-3.4,6.5-6.8,9.9-10.2l0,0c9.2-9.1,18.9-18.1,29.4-26.7c20-16.6,42.5-32.4,67.8-46.9c0,0,12.7,55.1,21.2,131.6
					C1317,2674,1321.3,2756.6,1311.4,2833.3z"/>
				<path class="st80" d="M1311.4,2833.3c-0.9,6.8-1.8,13.6-3,20.3c-2.3,13.7-5,27-8.3,40c-0.6,2.2-1.1,4.3-1.7,6.4
					c-0.7,2.5-1.4,5-2.2,7.5c-0.5,1.7-0.9,3.2-1.4,4.8c-1.1,3.5-2.2,7.1-3.4,10.5c-0.3,0.8-0.5,1.7-0.8,2.5
					c-0.4,1.1-0.8,2.3-1.2,3.4c-0.6,1.7-1.2,3.3-1.8,4.9c-1,2.8-2.1,5.5-3.3,8.3c-0.4,1.1-0.9,2.2-1.4,3.3c-0.7,1.6-1.4,3.2-2.1,4.8
					c-0.3,0.6-0.5,1.2-0.8,1.8c-1.1,2.3-2.2,4.6-3.3,6.8c-3.3,0.1-6.7,0.2-10,0.3c-4,0.1-8.1,0.1-12.1,0.2c-3.5,0.1-7,0.1-10.4,0.2
					c-1,0-2,0-3,0.1h-0.2c-8.4,0.1-16.9,0.3-25.3,0.3c-2.7,0-5.5,0.1-8.2,0.1s-5.5,0.1-8.2,0.1h-0.3c-2.9,0-5.8,0-8.7,0l0,0
					c-8.1,0-16.1,0.1-24.3,0.1c-0.6-0.7-1.3-1.3-1.9-2c-31.1-2-62.1-4.9-93-8.8c-0.1-0.6-0.2-1.2-0.3-1.8l0,0
					c-0.1-1.1-0.3-2.3-0.4-3.5c-0.5-4.1-1-8.4-1.4-12.9c-1.6-15.9-2.7-34.1-2.9-54c-0.1-3.2,0-6.4,0-9.6c0.2-19.5,1.4-40.4,4.1-62.3
					c0,0,0,0,0-0.1c1.1-8.4,2.4-17,3.9-25.7c0,0,0,0,0-0.1c4.5-25.6,11.3-52.2,21-78.9l0,0c0.4-1.3,0.9-2.5,1.4-3.8v-0.1
					c12.3-32.7,29.1-65.5,51.9-97c5.7-7.9,11.8-15.7,18.2-23.4l0,0c0.1-0.1,0.1-0.2,0.2-0.3c4.5-5.4,9.2-10.6,14.1-15.8l0,0l0,0
					c3.2-3.4,6.5-6.8,9.9-10.2l0,0c9.2-9.1,18.9-18.1,29.4-26.7c20-16.6,42.5-32.4,67.8-46.9c0,0,12.7,55.1,21.2,131.6
					C1317,2674,1321.3,2756.6,1311.4,2833.3z"/>
				<path class="st80" d="M1294.9,2912.4c-1.1,3.5-2.2,7.1-3.4,10.5c-0.3,0.8-0.5,1.7-0.8,2.5c-0.4,1.1-0.8,2.3-1.2,3.4
					c-0.6,1.7-1.2,3.3-1.8,4.9c-1,2.8-2.1,5.5-3.3,8.3c-0.4,1.1-0.9,2.2-1.4,3.3c-0.7,1.6-1.4,3.2-2.1,4.8c-0.3,0.6-0.5,1.2-0.8,1.8
					c-1.1,2.3-2.2,4.6-3.3,6.8c-3.3,0.1-6.7,0.2-10,0.3c-4,0.1-8.1,0.1-12.1,0.2c-3.5,0.1-7,0.1-10.4,0.2c-1,0-2,0-3,0.1h-0.2
					c-8.4,0.1-16.9,0.3-25.3,0.3c-2.7,0-5.5,0.1-8.2,0.1s-5.5,0.1-8.2,0.1h-0.3c-2.9,0-5.8,0-8.7,0l0,0c-8.1,0-16.1,0.1-24.3,0.1
					c-0.6-0.7-1.3-1.3-1.9-2c-31.1-2-62.1-4.9-93-8.8c-0.1-0.6-0.2-1.2-0.3-1.8l0,0c-0.1-1.1-0.3-2.3-0.4-3.5
					c-0.5-4.1-1-8.4-1.4-12.9c-1.6-15.9-2.7-34.1-2.9-54c-0.1-3.2,0-6.4,0-9.6c0.2-19.5,1.4-40.4,4.1-62.3c0,0,0,0,0-0.1
					c1.1-8.4,2.4-17,3.9-25.7c0,0,0,0,0-0.1c4.5-25.6,11.3-52.2,21-78.9l0,0c0.4-1.3,0.9-2.5,1.4-3.8v-0.1
					c12.3-32.7,29.1-65.5,51.9-97c5.7-7.9,11.8-15.7,18.2-23.4l0,0c0.1-0.1,0.1-0.2,0.2-0.3c1.5,2.2,3,4.4,4.5,6.6
					c0.4,0.5,0.7,1,1,1.5c2.1,3.1,4.1,6.3,6.1,9.5c2.3,3.6,4.5,7.2,6.6,10.9c0.9,1.5,1.8,2.9,2.6,4.4c12.1,20.8,23.2,43.1,33.4,66.3
					c2.4,5.3,4.6,10.7,6.8,16.1c0.6,1.4,1.2,2.8,1.7,4.1c1.5,3.6,2.9,7.1,4.3,10.7l0,0c2,5.1,4,10.2,5.9,15.4
					c1.4,3.7,2.8,7.5,4.1,11.2c16.3,45.1,29.8,92,40.6,137.2c1.2,4.9,2.4,9.8,3.5,14.6C1290.7,2893.5,1292.9,2903,1294.9,2912.4z"/>
				<path class="st4" d="M1244.3,2959.2c-1,0-2,0-3,0.1h-0.2c-8.4,0.1-16.9,0.3-25.3,0.3c-2.7,0-5.5,0.1-8.2,0.1s-5.5,0.1-8.2,0.1
					h-0.3c-2.9,0-5.8,0-8.7,0l0,0c-8.1,0-16.1,0.1-24.3,0.1c-0.6-0.7-1.3-1.3-1.9-2c-31.1-2-62.1-4.9-93-8.8
					c-24.7-3.1-49.4-6.7-73.8-11c-3.7-4.3-7.5-8.8-11.3-13.4c-12.1-14.8-22.5-30.3-31.4-46.2c-2.5-4.5-4.8-9-7.1-13.5
					c-1.5-3-2.9-6-4.3-9c-1.5-3.2-2.9-6.4-4.2-9.5c-83.7-198.6,39.9-446.4,39.9-446.4c1.4,0.6,2.9,1.2,4.3,1.8
					c0.9,0.4,1.8,0.8,2.8,1.2c1.4,0.6,2.8,1.3,4.2,1.9c2.7,1.3,5.5,2.7,8.2,4.1c0.3,0.2,0.7,0.3,1,0.5s0.7,0.4,1,0.6
					c0.7,0.4,1.3,0.8,2,1.1c2,1.1,4,2.3,6,3.5c1,0.6,2,1.2,3,1.8s2,1.3,2.9,1.9c1.3,0.8,2.6,1.7,3.9,2.6c0.7,0.4,1.3,0.9,2,1.4
					c0.8,0.6,1.6,1.1,2.3,1.7c1.1,0.8,2.2,1.6,3.3,2.4c0.9,0.6,1.7,1.3,2.5,1.9c0.5,0.4,1,0.8,1.5,1.2c2.1,1.7,4.2,3.4,6.3,5.1
					c1,0.8,1.9,1.6,2.8,2.4c3,2.6,5.9,5.2,8.8,8c1.3,1.3,2.7,2.5,4,3.8s2.6,2.6,3.9,3.9c3.9,4,7.8,8.1,11.5,12.5
					c1.3,1.4,2.5,2.9,3.8,4.3c1.8,2.1,3.6,4.3,5.3,6.4c1.2,1.4,2.3,2.8,3.4,4.3c0.2,0.3,0.5,0.6,0.7,0.9c1.2,1.6,2.5,3.2,3.7,4.8
					c4.3,5.7,8.6,11.6,12.7,17.8c1.4,2,2.7,4,4.1,6.1c1.7,2.5,3.3,5.1,5,7.7c3.1,5,6.2,10.1,9.2,15.3s6,10.5,8.9,15.9
					s5.7,10.8,8.5,16.4c2.8,5.5,5.5,11.1,8.2,16.8s5.3,11.4,7.8,17.2c2.4,5.3,4.6,10.7,6.8,16.1c0.6,1.4,1.1,2.8,1.7,4.1
					c1.5,3.6,2.9,7.1,4.3,10.7v0.1l0,0c2,5.1,4,10.2,5.9,15.4c18.2,48.6,32.9,99.4,44.7,148.3
					C1227,2854.9,1237.3,2912.8,1244.3,2959.2z"/>
				<path class="st80" d="M1244.3,2959.2c-1,0-2,0-3,0.1h-0.2c-8.4,0.1-16.9,0.3-25.3,0.3c-2.7,0-5.5,0.1-8.2,0.1s-5.5,0.1-8.2,0.1
					h-0.3c-2.9,0-5.8,0-8.7,0l0,0c-8.1,0-16.1,0.1-24.3,0.1c-0.6-0.7-1.3-1.3-1.9-2c-31.1-2-62.1-4.9-93-8.8
					c-24.7-3.1-49.4-6.7-73.8-11c-3.7-4.3-7.5-8.8-11.3-13.4c-12.1-14.8-22.5-30.3-31.4-46.2c-2.5-4.5-4.8-9-7.1-13.5
					c-1.5-3-2.9-6-4.3-9c-1.5-3.2-2.9-6.4-4.2-9.5c-83.7-198.6,39.9-446.4,39.9-446.4c1.4,0.6,2.9,1.2,4.3,1.8
					c0.9,0.4,1.8,0.8,2.8,1.2c1.4,0.6,2.8,1.3,4.2,1.9c2.7,1.3,5.5,2.7,8.2,4.1c0.3,0.2,0.7,0.3,1,0.5s0.7,0.4,1,0.6
					c0.7,0.4,1.3,0.8,2,1.1c2,1.1,4,2.3,6,3.5c1,0.6,2,1.2,3,1.8s2,1.3,2.9,1.9c1.3,0.8,2.6,1.7,3.9,2.6c0.7,0.4,1.3,0.9,2,1.4
					c0.8,0.6,1.6,1.1,2.3,1.7c1.1,0.8,2.2,1.6,3.3,2.4c0.9,0.6,1.7,1.3,2.5,1.9c0.5,0.4,1,0.8,1.5,1.2c2.1,1.7,4.2,3.4,6.3,5.1
					c1,0.8,1.9,1.6,2.8,2.4c3,2.6,5.9,5.2,8.8,8c1.3,1.3,2.7,2.5,4,3.8s2.6,2.6,3.9,3.9c3.9,4,7.8,8.1,11.5,12.5
					c1.3,1.4,2.5,2.9,3.8,4.3c1.8,2.1,3.6,4.3,5.3,6.4c1.2,1.4,2.3,2.8,3.4,4.3c0.2,0.3,0.5,0.6,0.7,0.9c1.2,1.6,2.5,3.2,3.7,4.8
					c4.3,5.7,8.6,11.6,12.7,17.8c1.4,2,2.7,4,4.1,6.1c1.7,2.5,3.3,5.1,5,7.7c3.1,5,6.2,10.1,9.2,15.3s6,10.5,8.9,15.9
					s5.7,10.8,8.5,16.4c2.8,5.5,5.5,11.1,8.2,16.8s5.3,11.4,7.8,17.2c2.4,5.3,4.6,10.7,6.8,16.1c0.6,1.4,1.1,2.8,1.7,4.1
					c1.5,3.6,2.9,7.1,4.3,10.7v0.1l0,0c2,5.1,4,10.2,5.9,15.4c18.2,48.6,32.9,99.4,44.7,148.3
					C1227,2854.9,1237.3,2912.8,1244.3,2959.2z"/>
				<path class="st4" d="M1244.3,2959.2c-1,0-2,0-3,0.1h-0.2c-8.4,0.1-16.9,0.3-25.3,0.3c-2.7,0-5.5,0.1-8.2,0.1
					c-2.9,0-5.9,0.1-8.8,0.1c-2.8,0-5.7,0-8.5,0.1l0,0c-8.1,0-16.1,0.1-24.3,0.1c-0.6-0.7-1.3-1.3-1.9-2
					c-18.2-19.7-34.6-41.8-49.3-65.6c-2.6-4.1-5.1-8.2-7.5-12.4c-13.7-23.6-26-48.8-37-75c-54.1-129.4-75.8-284.2-84.3-401.9
					c1.4,0.6,2.8,1.3,4.2,1.9c0.3,0.1,0.5,0.3,0.8,0.4c2.2,1.1,4.5,2.2,6.7,3.4c0.2,0.1,0.5,0.2,0.7,0.4c0.3,0.2,0.7,0.3,1,0.5
					s0.7,0.4,1,0.6c0.7,0.4,1.3,0.8,2,1.1c2,1.1,4,2.3,6,3.5c1,0.6,2,1.2,3,1.8s2,1.3,2.9,1.9c1.3,0.8,2.6,1.7,3.9,2.6
					c0.7,0.4,1.3,0.9,2,1.4c0.8,0.6,1.6,1.1,2.3,1.7c1.1,0.8,2.2,1.6,3.3,2.4c0.9,0.6,1.7,1.3,2.5,1.9c0.5,0.4,1,0.8,1.5,1.2
					c2.1,1.7,4.2,3.4,6.3,5.1c1,0.8,1.9,1.6,2.8,2.4c3,2.6,5.9,5.2,8.8,8c1.3,1.3,2.7,2.5,4,3.8s2.6,2.6,3.9,3.9
					c3.9,4,7.8,8.1,11.5,12.5c1.3,1.4,2.5,2.9,3.8,4.3c1.8,2.1,3.6,4.3,5.3,6.4c1.2,1.4,2.3,2.8,3.4,4.3c0.2,0.3,0.5,0.6,0.7,0.9
					c1.2,1.6,2.5,3.2,3.7,4.8c4.3,5.7,8.6,11.6,12.7,17.8c1.4,2,2.7,4,4.1,6.1c1.7,2.5,3.3,5.1,5,7.7c3.1,5,6.2,10.1,9.2,15.3
					s6,10.5,8.9,15.9s5.7,10.8,8.5,16.4c2.8,5.5,5.5,11.1,8.2,16.8s5.3,11.4,7.8,17.2c2.4,5.3,4.6,10.7,6.8,16.1
					c0.6,1.4,1.1,2.8,1.7,4.1c1.5,3.6,2.9,7.1,4.3,10.7v0.1c2,5.1,4,10.2,6,15.4c18.2,48.6,32.9,99.4,44.7,148.3
					C1227,2854.9,1237.3,2912.8,1244.3,2959.2z"/>
				<path class="st81" d="M1244.3,2959.2c-1,0-2,0-3,0.1h-0.2c-8.4,0.1-16.9,0.3-25.3,0.3c-2.7,0-5.5,0.1-8.2,0.1
					c-2.9,0-5.9,0.1-8.8,0.1c-2.8,0-5.7,0-8.5,0.1l0,0c-8.1,0-16.1,0.1-24.3,0.1c-0.6-0.7-1.3-1.3-1.9-2
					c-18.2-19.7-34.6-41.8-49.3-65.6c-2.6-4.1-5.1-8.2-7.5-12.4c-13.7-23.6-26-48.8-37-75c-54.1-129.4-75.8-284.2-84.3-401.9
					c1.4,0.6,2.8,1.3,4.2,1.9c0.3,0.1,0.5,0.3,0.8,0.4c2.2,1.1,4.5,2.2,6.7,3.4c0.2,0.1,0.5,0.2,0.7,0.4c0.3,0.2,0.7,0.3,1,0.5
					s0.7,0.4,1,0.6c0.7,0.4,1.3,0.8,2,1.1c2,1.1,4,2.3,6,3.5c1,0.6,2,1.2,3,1.8s2,1.3,2.9,1.9c1.3,0.8,2.6,1.7,3.9,2.6
					c0.7,0.4,1.3,0.9,2,1.4c0.8,0.6,1.6,1.1,2.3,1.7c1.1,0.8,2.2,1.6,3.3,2.4c0.9,0.6,1.7,1.3,2.5,1.9c0.5,0.4,1,0.8,1.5,1.2
					c2.1,1.7,4.2,3.4,6.3,5.1c1,0.8,1.9,1.6,2.8,2.4c3,2.6,5.9,5.2,8.8,8c1.3,1.3,2.7,2.5,4,3.8s2.6,2.6,3.9,3.9
					c3.9,4,7.8,8.1,11.5,12.5c1.3,1.4,2.5,2.9,3.8,4.3c1.8,2.1,3.6,4.3,5.3,6.4c1.2,1.4,2.3,2.8,3.4,4.3c0.2,0.3,0.5,0.6,0.7,0.9
					c1.2,1.6,2.5,3.2,3.7,4.8c4.3,5.7,8.6,11.6,12.7,17.8c1.4,2,2.7,4,4.1,6.1c1.7,2.5,3.3,5.1,5,7.7c3.1,5,6.2,10.1,9.2,15.3
					s6,10.5,8.9,15.9s5.7,10.8,8.5,16.4c2.8,5.5,5.5,11.1,8.2,16.8s5.3,11.4,7.8,17.2c2.4,5.3,4.6,10.7,6.8,16.1
					c0.6,1.4,1.1,2.8,1.7,4.1c1.5,3.6,2.9,7.1,4.3,10.7v0.1c2,5.1,4,10.2,6,15.4c18.2,48.6,32.9,99.4,44.7,148.3
					C1227,2854.9,1237.3,2912.8,1244.3,2959.2z"/>
			</g>
		</g>
	</g>
</g>
<path class="st52" d="M209.6-69.2H60.1c-3.7,0-6.6-3-6.6-6.6v-149.5c0-3.7,3-6.6,6.6-6.6h149.5c3.7,0,6.6,3,6.6,6.6v149.5
	C216.3-72.2,213.3-69.2,209.6-69.2z"/>
<path class="st82" d="M460.9-69.2H311.4c-3.7,0-6.6-3-6.6-6.6v-149.5c0-3.7,3-6.6,6.6-6.6h149.5c3.7,0,6.6,3,6.6,6.6v149.5
	C467.5-72.2,464.5-69.2,460.9-69.2z"/>
<path class="st24" d="M724-69.2H574.6c-3.7,0-6.6-3-6.6-6.6v-149.5c0-3.7,3-6.6,6.6-6.6H724c3.7,0,6.6,3,6.6,6.6v149.5
	C730.7-72.2,727.7-69.2,724-69.2z"/>
<path class="st27" d="M988.1-69.2H838.7c-3.7,0-6.6-3-6.6-6.6v-149.5c0-3.7,3-6.6,6.6-6.6h149.5c3.7,0,6.6,3,6.6,6.6v149.5
	C994.8-72.2,991.8-69.2,988.1-69.2z"/>
<path class="st28" d="M1231.7-69.2h-149.5c-3.7,0-6.6-3-6.6-6.6v-149.5c0-3.7,3-6.6,6.6-6.6h149.5c3.7,0,6.6,3,6.6,6.6v149.5
	C1238.3-72.2,1235.3-69.2,1231.7-69.2z"/>
<rect x="3754.5" y="-232" class="st0" width="162.8" height="162.8"/>
<rect x="4005.7" y="-232" class="st24" width="162.8" height="162.8"/>
<rect x="4268.9" y="-232" class="st27" width="162.8" height="162.8"/>
<rect x="2981.9" y="-232" class="st52" width="162.8" height="162.8"/>
<rect x="3233.2" y="-232" class="st12" width="162.8" height="162.8"/>
<rect x="3496.3" y="-232" class="st12" width="162.8" height="162.8"/>
<rect x="4533" y="-232" class="st28" width="162.8" height="162.8"/>
<rect x="4776.5" y="-232" class="st28" width="162.8" height="162.8"/>
<rect x="3747.2" y="-485.5" class="st0" width="162.8" height="162.8"/>
<rect x="3998.5" y="-485.5" class="st24" width="162.8" height="162.8"/>
<rect x="4261.7" y="-485.5" class="st27" width="162.8" height="162.8"/>
<rect x="2974.7" y="-485.5" class="st52" width="162.8" height="162.8"/>
<rect x="3225.9" y="-485.5" class="st12" width="162.8" height="162.8"/>
<rect x="3489.1" y="-485.5" class="st12" width="162.8" height="162.8"/>
<rect x="4525.8" y="-485.5" class="st28" width="162.8" height="162.8"/>
<rect x="4769.3" y="-485.5" class="st28" width="162.8" height="162.8"/>
<path class="st52" d="M209.6-322.7H60.1c-3.7,0-6.6-3-6.6-6.6v-149.5c0-3.7,3-6.6,6.6-6.6h149.5c3.7,0,6.6,3,6.6,6.6v149.5
	C216.3-325.7,213.3-322.7,209.6-322.7z"/>
<path class="st0" d="M460.9-322.7H311.4c-3.7,0-6.6-3-6.6-6.6v-149.5c0-3.7,3-6.6,6.6-6.6h149.5c3.7,0,6.6,3,6.6,6.6v149.5
	C467.5-325.7,464.5-322.7,460.9-322.7z"/>
<path class="st83" d="M724-322.7H574.6c-3.7,0-6.6-3-6.6-6.6v-149.5c0-3.7,3-6.6,6.6-6.6H724c3.7,0,6.6,3,6.6,6.6v149.5
	C730.7-325.7,727.7-322.7,724-322.7z"/>
<path class="st84" d="M988.1-322.7H838.7c-3.7,0-6.6-3-6.6-6.6v-149.5c0-3.7,3-6.6,6.6-6.6h149.5c3.7,0,6.6,3,6.6,6.6v149.5
	C994.8-325.7,991.8-322.7,988.1-322.7z"/>
<path class="st85" d="M1231.7-322.7h-149.5c-3.7,0-6.6-3-6.6-6.6v-149.5c0-3.7,3-6.6,6.6-6.6h149.5c3.7,0,6.6,3,6.6,6.6v149.5
	C1238.3-325.7,1235.3-322.7,1231.7-322.7z"/>
</svg>
