<?xml version="1.0" encoding="utf-8"?>
<!-- Generator: Adobe Illustrator 24.1.0, SVG Export Plug-In . SVG Version: 6.00 Build 0)  -->
<svg version="1.1" id="Capa_1" xmlns="http://www.w3.org/2000/svg" xmlns:xlink="http://www.w3.org/1999/xlink" x="0px" y="0px"
	 viewBox="0 0 5000 5000" style="enable-background:new 0 0 5000 5000;" xml:space="preserve">
<style type="text/css">
	.st0{fill:#7BADC9;}
	.st1{fill:#EAF2F9;}
	.st2{fill:#232F63;}
	.st3{fill:#6197AA;}
	.st4{fill:#FFFFFF;}
	.st5{fill:#9E2632;}
	.st6{fill:#C1DEE8;}
	.st7{fill:#660E17;}
	.st8{fill:#A3CFE2;}
	.st9{fill:#E3F6FF;}
	.st10{fill:#C8E3ED;}
	.st11{fill:#053C52;}
	.st12{fill:#0F1A42;}
	.st13{fill:#BAD4E8;}
	.st14{fill:#01567A;}
	.st15{fill:none;}
	.st16{fill:#FCCDD3;}
	.st17{fill:#FC9FA8;}
	.st18{fill:#4D7A8E;}
	.st19{fill:#FAC2AE;}
	.st20{fill:#F1A080;}
	.st21{fill:#EDEDED;}
	.st22{fill:#132147;}
	.st23{fill:#192654;}
	.st24{fill:#364777;}
	.st25{fill:#1E2B59;}
	.st26{fill:#0F1B42;}
	.st27{opacity:0.26;fill:#EAA48F;enable-background:new    ;}
	.st28{fill:#78ADC4;}
	.st29{fill:#669EB2;}
	.st30{fill:#E6515B;}
	.st31{fill:#8CBDD3;}
	.st32{fill:#83B6CC;}
	.st33{fill:#D3404E;}
	.st34{opacity:0.33;}
	.st35{fill:#C6D2EB;}
	.st36{fill:#F4737F;}
	.st37{fill:#B03E45;}
	.st38{fill:#2D2E75;}
	.st39{fill:#F27B8F;}
</style>
<g id="Layer_2">
	<g id="Layer_1-2">
		<rect x="199.9" y="4107.4" class="st0" width="4747.9" height="24.1"/>
		<path class="st1" d="M435.1,4103.1h4040.1c0,0,593.3-1845-50.7-2231.7c-575.7-345.6-364.9-1369.6-1174.9-1251.3
			s-859.6,464.6-1674.2,392.4C364.2,905.2-380.2,1856.8,327,3171.7C505.6,3503.8,519.7,3840.7,435.1,4103.1z"/>
		<rect x="1979.4" y="2572.1" class="st2" width="1137.1" height="1604.8"/>
		<rect x="1952.2" y="2544.9" class="st0" width="1137.1" height="1604.8"/>
		<polygon class="st3" points="1952.2,2544.9 3089.4,2544.9 2614.9,4149.7 1952.2,4149.7 		"/>
		<rect x="2112.9" y="2646.4" class="st4" width="824.4" height="1264.1"/>
		<rect x="2227.1" y="2520.7" class="st5" width="575" height="178.8"/>
		<path class="st5" d="M2520.8,2369.5c-58.4,0-105.7,47.3-105.7,105.7c0,58.4,47.3,105.7,105.7,105.7s105.7-47.3,105.7-105.7
			C2626.5,2416.8,2579.2,2369.5,2520.8,2369.5L2520.8,2369.5z M2520.8,2536.5c-33.9,0-61.3-27.4-61.3-61.3
			c0-33.9,27.4-61.3,61.3-61.3c33.9,0,61.3,27.4,61.3,61.3l0,0C2582.1,2509,2554.7,2536.5,2520.8,2536.5z"/>
		<rect x="2195.3" y="2853.5" class="st0" width="492.5" height="38.1"/>
		<rect x="2195.3" y="2962.6" class="st6" width="651.8" height="38.1"/>
		<rect x="2195.3" y="3029" class="st6" width="651.8" height="38.1"/>
		<rect x="2195.3" y="3095.5" class="st6" width="651.8" height="38.1"/>
		<rect x="2195.3" y="3161.9" class="st6" width="651.8" height="38.1"/>
		<rect x="2195.3" y="3228.3" class="st6" width="651.8" height="38.1"/>
		<rect x="2195.3" y="3343" class="st6" width="651.8" height="38.1"/>
		<rect x="2195.3" y="3413.7" class="st6" width="651.8" height="38.1"/>
		<rect x="2597" y="3599.2" class="st0" width="245.9" height="38.1"/>
		<rect x="2227.1" y="2624.5" class="st7" width="575" height="75"/>
		<polygon class="st4" points="548.8,1483.6 548.8,4119.4 1744.7,4010.4 1744.7,1570 		"/>
		<path class="st8" d="M521.7,1706.2l1247.8,102.4v-198.1c0,0,53.5-83.3-205.5-112c-259-28.6-1042.4-49.7-1042.4-49.7L521.7,1706.2z
			"/>
		<polygon class="st9" points="566.9,3228.8 1762.8,2049 1762.8,3940.1 566.9,4119.4 		"/>
		<polygon class="st10" points="566.9,3773.6 1762.8,3168.5 1762.8,3940.1 566.9,4119.4 		"/>
		<rect x="1664.1" y="1570" class="st11" width="81.3" height="2471"/>
		<ellipse class="st12" cx="438" cy="2070.6" rx="27.1" ry="46.4"/>
		<ellipse class="st13" cx="521.7" cy="2031.7" rx="27.1" ry="46.4"/>
		<ellipse class="st4" cx="607.1" cy="1996" rx="27.1" ry="46.4"/>
		<path class="st11" d="M396.7,3968.9c1.7,84.8,6.3,169.7,4.4,254.4c-2,87.3,29.7,152.9,106.7,195.4l32.2,6.3l12.9-0.1
			c269-29.2,536.5-71.1,806.4-92c86.8-11.1,173.5-23.9,260.6-32.8c104.2-10.6,147.8-46,161.1-152.2c7.8-62.2,2.2-126.1,2.7-189.2
			l-60.9-18.1c-10.5,2.3-1061.2,94.4-1096.7,97.6c-34.9,10.2-53.7,1.4-52.5-39.4c1.4-46.3-1-92.8-1.8-139.2
			c-54.8,17.7-69.2-4-68.9-58.7c1.8-341.8,0.4-683.6,0.2-1025.4c-0.2-411.5,2-823-1.8-1234.5c-0.8-91.6,32.1-151.9,111.4-191
			c-126.7-23.5-201.9,32.7-210.1,160.2c-16.3,252-1.4,504.4-7.6,756.5 M1145.2,4225c-93.9,5.4-109-2.1-113-45.2
			c-4.5-48.5,21.6-70.9,86.6-75.9c40.5-3.1,81-7.4,121.5-11.3c38.9-3.7,70.4,2.9,71.6,51.3c1,44.2-19.6,67.9-65.1,70.8
			C1206.3,4217.4,1165.9,4222.9,1145.2,4225z M435.9,3136.3h-12.1v-391.2h12.1V3136.3z"/>
		<path class="st1" d="M1179.9,4248.3c-93.9,5.4-109-2.1-113-45.2c-4.5-48.5,21.6-70.9,86.6-75.9c40.5-3.1,81-7.4,121.5-11.3
			c38.9-3.7,70.4,2.9,71.6,51.3c1,44.3-19.6,67.9-65.1,70.8C1241,4240.6,1200.6,4246.1,1179.9,4248.3z"/>
		<path class="st14" d="M1789.5,3834.3l1-520.2l1,0.2l-0.6-171.9c0.2-101.6,0.4-203.1,0.6-304.7l-1.7-0.5l-1.4-391l0,0
			c0.3-198.4,0.5-396.8,0.6-595.2c-0.3-58.9-0.5-117.8-0.9-176.7c-1-141.6-58.6-202.6-200.3-214.6c-88.8-7.5-177.4-17.2-266.1-26.6
			c-11.8-1.3-23.3-6.8-34.8-10.3c-163.5-9.8-325.2-35.1-487.6-54.6c-62-7.4-124.3-12.3-186.5-18.3c-79.3,39.1-112.3,99.4-111.4,191
			c3.7,411.5,1.6,823,1.8,1234.5c0.1,341.8,1.6,683.6-0.2,1025.4c0,6.2,0.1,12,0.5,17.4v523.3c0,0-13.3,104.1,138.9,73.2
			l1016.5-120.4c0,0,111.2-7.3,121.4-141.3l4.5-203.4c1.6-13.9,3.3-27.9,4.9-41.8c-1.6-3.2-2.8-6.5-3.8-9.9l1-47.5
			C1787.9,3845.1,1788.8,3839.7,1789.5,3834.3z M1647.5,3947.8L626,4038.1c0,0-52,15.8-52-26l-0.9-316.9
			c1.5-184.2,3-368.4,4.5-552.6c0.2-7.1,0.3-14.3,0.5-21.5l-1.2-233.2l0.3-14.9l0.2-581.1c-0.2-110.3-0.5-220.6-0.7-330.9
			c-0.2-124.1,0.1-248.2-0.7-372.2c-0.2-35.7,7-61.4,50.8-55c10.2,0.1,20.4-0.7,30.5,0.3c208.2,20.4,416.3,41,624.5,61.7
			c119.2,11.9,238.4,24.8,357.7,36.4c50.5,4.9,82.2,20.2,78.5,82c-4.2,70.8,1.4,142.2,4.4,213.3c5.1,122,8.2,243.8-1,365.7
			c6.2,105.1,5.5,210.3,1.2,315.4c0.3,4.2,0.7,8.4,1,12.6c0.3,0.4,0.6,0.7,0.9,1.1l-3.7,679.5l0,0c-0.9,58.6-1.7,117.1-2.6,175.7
			c0.3,42,11.5,84.1-0.9,126c5.3,14.7,5.3,30.7,0,45.4c5.3,44.8,7.6,89.9,7.1,135l-3.3,73.6c-1,13-2.3,26-3.7,39
			c0.5,3.9,0.9,7.8,1.4,11.6l0,0c0,0.6,0.1,1.2,0.2,1.7C1719.4,3916.7,1715.9,3941.5,1647.5,3947.8z"/>
		<path class="st1" d="M1163.3,4225c-93.9,5.4-109-2.1-113-45.2c-4.5-48.5,21.6-70.9,86.6-75.9c40.5-3.1,81-7.4,121.5-11.3
			c38.9-3.7,70.4,2.9,71.5,51.3c1.1,44.2-19.6,67.9-65.1,70.8C1224.4,4217.4,1184,4222.9,1163.3,4225z"/>
		<ellipse class="st2" cx="693.4" cy="1636.7" rx="33.7" ry="42"/>
		<ellipse class="st14" cx="796.2" cy="1647.7" rx="33.7" ry="42"/>
		<ellipse class="st4" cx="896.8" cy="1658.8" rx="33.7" ry="42"/>
		<path class="st15" d="M4598.5,1524.4c0.2,5.5,0.3,11.1,0.2,16.8c-0.9,102.9-1.5,205.7-1.8,308.6c0.3-102.9,0.9-205.7,1.8-308.6
			C4598.8,1535.5,4598.7,1529.9,4598.5,1524.4z"/>
		<path class="st15" d="M4565.8,1414.6c-2-2.9-4.1-5.7-6.3-8.5C4561.7,1408.9,4563.8,1411.7,4565.8,1414.6z"/>
		<path class="st15" d="M4596.5,2066.4L4596.5,2066.4c-0.1,133.5,0,267,0.2,400.5C4596.6,2333.4,4596.5,2199.9,4596.5,2066.4z"/>
		<path class="st15" d="M4597.2,3801.2c0,3.1,0,6.1-0.1,8.9C4597.2,3807.2,4597.2,3804.3,4597.2,3801.2z"/>
		<path class="st15" d="M4582.2,1444.4c-1.4-3.2-2.8-6.3-4.3-9.4C4579.3,1438.1,4580.8,1441.2,4582.2,1444.4z"/>
		<path class="st15" d="M4596.9,2775.8c0,128.2-0.2,256.4-0.5,384.5C4596.7,3032.1,4596.8,2903.9,4596.9,2775.8z"/>
		<path class="st15" d="M4589.2,1464.2c-1.3-4.6-2.8-9-4.5-13.4C4586.4,1455.2,4587.9,1459.7,4589.2,1464.2z"/>
		<path class="st15" d="M4598.5,1524.4c-0.2-5.5-0.6-10.8-1-16.1C4597.9,1513.6,4598.3,1519,4598.5,1524.4z"/>
		<path class="st15" d="M4596.3,3416.6c0-42.7,0-85.4,0-128.2C4596.3,3331.2,4596.3,3373.9,4596.3,3416.6z"/>
		<path class="st15" d="M4664.2,3136.6h12.1v-391.2h-12.1V3136.6z"/>
		<path class="st15" d="M4596.7,3818.5c0.2-2.7,0.3-5.4,0.4-8.3C4597,3813.1,4596.9,3815.9,4596.7,3818.5z"/>
		<path class="st15" d="M4594.3,1485.5c-0.9-4.9-2-9.7-3.2-14.4C4592.3,1475.8,4593.4,1480.6,4594.3,1485.5z"/>
		<path class="st15" d="M4597.4,1508.4c-0.5-5.2-1.1-10.4-1.9-15.4C4596.3,1498,4596.9,1503.1,4597.4,1508.4z"/>
		<path class="st4" d="M3454.1,2146.7l1068.8,1054.4c-0.2-19.4-0.3-38.8-0.5-58.2c-0.2-7.1-0.4-14.3-0.5-21.5l1.2-233.2l-0.3-14.9
			l-0.2-581.1c0.2-110.3,0.5-220.6,0.7-330.9c0.1-83.4,0-166.9,0.2-250.3l-1069.4,87.8V2146.7z"/>
		<path class="st8" d="M4473.2,1534.1c-10.2,0.1-20.4-0.7-30.5,0.3c-208.2,20.4-416.3,41-624.5,61.7
			c-119.2,11.9-238.4,24.8-357.7,36.4c-2.2,0.2-4.4,0.5-6.5,0.7v165.5l1069.4-87.7c0.1-40.6,0.3-81.3,0.5-122
			C4524.3,1553.4,4517,1527.7,4473.2,1534.1z M4203.3,1701.1c-18.6,0-33.7-18.8-33.7-42c0-23.2,15.1-42,33.7-42
			c18.6,0,33.7,18.8,33.7,42C4237.1,1682.3,4222,1701.1,4203.3,1701.1L4203.3,1701.1z M4303.9,1690.1c-18.6,0-33.7-18.8-33.7-42
			c0-23.2,15.1-42,33.7-42s33.7,18.8,33.7,42C4337.7,1671.3,4322.6,1690.1,4303.9,1690.1L4303.9,1690.1z M4406.8,1679
			c-18.6,0-33.7-18.8-33.7-42c0-23.2,15.1-42,33.7-42c18.6,0,33.7,18.8,33.7,42C4440.5,1660.2,4425.4,1679,4406.8,1679L4406.8,1679z
			"/>
		<path class="st16" d="M3454.1,3218.8l1072.7,542.8l0.2-65.9c-1.3-164.8-2.7-329.7-4-494.5L3454.1,2146.7V3218.8z"/>
		<path class="st17" d="M3454.1,3948.2l1019.9,90.3c0.8,0.2,1.6,0.4,2.4,0.6c7.3,1.8,29.7,6,41.7-5.2c4.2-4.9,6.9-11.9,7.9-21.5
			l0.1-30.6c-0.1-11-0.1-22,0.1-32.9l0.5-187.3l-1072.7-542.8V3948.2z"/>
		<path class="st18" d="M3454.1,2146.7v-513.4c-46.7,5.6-75.6,22.1-72,81.2c4.2,70.8-1.4,142.2-4.4,213.3
			c-5.1,121.9-8.2,243.8,1,365.7c-6.2,105.1-5.5,210.3-1.2,315.4c-0.3,4.2-0.7,8.4-1,12.6c-0.3,0.4-0.6,0.7-0.9,1.1l3.8,679.6
			c0.9,58.6,1.7,117.1,2.6,175.6c-0.3,42-11.5,84,0.9,126c-5.3,14.7-5.3,30.7,0,45.4c-5.3,44.8-7.6,89.9-7.1,135l3.3,73.6
			c1,13,2.3,26,3.7,39l-1.4,11.6l-0.2,1.7c-0.4,6.8,3.1,31.6,71.5,37.8l1.5,0.1L3454.1,2146.7L3454.1,2146.7z"/>
		<path class="st13" d="M4596.6,2004.2c0,20.7,0,41.5,0,62.2l0,0C4596.6,2045.7,4596.6,2024.9,4596.6,2004.2z"/>
		<path class="st18" d="M4527.1,1374.5c5.7,4.3,11.2,9,16.4,13.9c3.4,3.2,6.6,6.6,9.7,10c2.2,2.5,4.3,5,6.3,7.6
			c2.2,2.8,4.3,5.6,6.3,8.5c2.6,3.7,5,7.5,7.2,11.5c1.7,2.9,3.3,5.9,4.8,9c1.5,3.1,3,6.2,4.3,9.4c0.9,2.1,1.8,4.3,2.6,6.5
			c1.6,4.3,3.1,8.8,4.5,13.4c0.7,2.3,1.3,4.6,1.9,6.9c1.2,4.7,2.3,9.4,3.2,14.4c0.4,2.4,0.9,4.9,1.3,7.4c0.8,5,1.4,10.1,1.9,15.4
			c0.5,5.2,0.8,10.6,1,16.1c0.2,5.5,0.3,11.1,0.2,16.8c-0.9,102.9-1.5,205.7-1.8,308.6c-0.2,51.4-0.3,102.9-0.3,154.3
			c0,20.7,0,41.5,0,62.2c-0.1,133.5,0,267,0.2,400.5c0.1,102.9,0.2,205.9,0.2,308.8l0,0c0,128.2-0.2,256.4-0.5,384.5
			c-0.1,42.7-0.1,85.4-0.2,128.2c0,42.7,0,85.4,0,128.2c0,128.2,0.3,256.4,0.9,384.5l0,0c0,3.1,0,6.1-0.1,8.9c0,0,0,0.1,0,0.1
			c-0.1,2.9-0.2,5.7-0.4,8.3l0,0v523.3c0,0,10.2,79.6-89.2,78.8c13.2,1.5,26.5,3,39.7,4.4l12.9,0.1l32.2-6.3
			c77-42.5,108.7-108.1,106.7-195.4c-1.9-84.7,2.7-169.6,4.4-254.4l1.6-1702.3c-6.2-252.1,8.7-504.5-7.6-756.5
			c-8.2-127.5-83.4-183.6-210.1-160.2c11.8,5.7,23.1,12.4,33.8,19.9C4523.2,1371.6,4525.1,1373,4527.1,1374.5z M4676.4,3136.7h-12.1
			v-391.2h12.1V3136.7z"/>
		<path class="st11" d="M3441.2,4294.7c12,2.4,24.9,4.4,39,5.8c87.1,8.9,173.8,21.7,260.6,32.8c31.9,2.5,63.7,5.2,95.5,8.2
			L3441.2,4294.7z"/>
		<path class="st11" d="M3344.8,4234.5c9.2,15.6,22,28.7,37.3,38.2C3367.1,4262.7,3354.4,4249.7,3344.8,4234.5z"/>
		<path class="st11" d="M3319.2,4148.2c0.2,1.7,0.5,3.4,0.7,5.1l-3.6-163.1C3315.4,4043.1,3312.7,4096.3,3319.2,4148.2z"/>
		<path class="st11" d="M4450.2,4414.2l-7.4-0.9L4450.2,4414.2z"/>
		<path class="st11" d="M4526.1,3981.8l0.1-32.9C4526.1,3959.8,4526,3970.8,4526.1,3981.8z"/>
		<path class="st11" d="M4476.5,4039.1c-0.8-0.2-1.6-0.4-2.4-0.6C4474,4038.4,4474.9,4038.7,4476.5,4039.1z"/>
		<path class="st11" d="M4526,4012.5v-0.1c-1,9.7-3.7,16.7-7.9,21.5C4522.9,4029.5,4526,4022.7,4526,4012.5z"/>
		<path class="st0" d="M3309.6,3314.4l1,520.2c0.7,5.4,1.7,10.7,2.6,16.1l1,47.5c-0.9,3.4-2.2,6.7-3.8,9.9
			c1.6,13.9,3.3,27.9,4.9,41.8l0.9,40.3l3.6,163.1l0,0c2.7,35,12.3,61.3,24.9,81.1c9.6,15.2,22.3,28.2,37.3,38.2
			c29.9,20,59.2,22,59.2,22l0,0l395.1,46.8l606.5,71.8l7.4,0.9l7.6,0.9c16.4,3.5,33,5.5,49.7,5.8c99.3,0.7,89.2-78.8,89.2-78.8
			v-523.5l0,0c0.2-2.7,0.3-5.5,0.4-8.3c0,0,0-0.1,0-0.1c0.1-2.9,0.1-5.9,0.1-8.9l0,0c-0.7-128.2-1-256.3-0.9-384.5
			c0-42.7,0-85.4,0-128.2c0-42.7,0.1-85.5,0.2-128.2c0.2-128.2,0.3-256.4,0.5-384.5l0,0c0.1-102.9,0-205.9-0.2-308.8
			c-0.2-133.6-0.2-267.1-0.2-400.5c0-20.7,0-41.5,0-62.2c0.1-51.4,0.2-102.9,0.3-154.3c0.3-102.9,0.9-205.7,1.8-308.6
			c0.1-5.7,0-11.3-0.2-16.8c-0.2-5.5-0.6-10.8-1-16.1c-0.5-5.2-1.1-10.4-1.9-15.4c-0.4-2.5-0.8-5-1.3-7.4c-0.9-4.9-2-9.7-3.2-14.4
			c-0.6-2.3-1.2-4.7-1.9-6.9c-1.3-4.6-2.8-9-4.5-13.4c-0.8-2.2-1.7-4.3-2.6-6.5c-1.4-3.2-2.8-6.3-4.3-9.4c-1.5-3.1-3.1-6.1-4.8-9
			c-2.2-3.9-4.7-7.8-7.2-11.5c-2-2.9-4.1-5.7-6.3-8.5c-2-2.6-4.1-5.2-6.3-7.6c-3.1-3.4-6.3-6.8-9.7-10c-5.2-5-10.7-9.6-16.4-13.9
			c-1.9-1.5-3.9-3-6-4.4c-10.7-7.5-22-14.2-33.8-19.9l0,0c-62.2,6-124.5,10.9-186.5,18.3c-162.4,19.5-324.1,44.8-487.6,54.6
			c-11.6,3.6-23,9.1-34.8,10.3c-88.6,9.4-177.3,19.1-266.1,26.6c-141.7,12-199.4,73-200.3,214.6c-0.4,58.9-0.6,117.8-0.9,176.7
			c0.2,198.4,0.4,396.8,0.6,595.2l0,0l-1.4,391l-1.7,0.5c0.2,101.6,0.4,203.1,0.6,304.7l-0.6,171.9L3309.6,3314.4z M3954.9,4225.4
			c-20.7-2.2-61.1-7.7-101.6-10.3c-45.4-2.9-66.1-26.6-65.1-70.8c1.2-48.4,32.7-55,71.6-51.3c40.5,3.9,81,8.2,121.5,11.3
			c65,5,91.1,27.5,86.6,75.9C4063.9,4223.3,4048.8,4230.8,3954.9,4225.4L3954.9,4225.4z M4524,1589.1c-0.3,40.7-0.5,81.3-0.5,122
			c-0.2,83.4-0.1,166.9-0.2,250.3c-0.2,110.3-0.5,220.6-0.7,330.9l0.2,581.1l0.3,14.9l-1.2,233.2c0.2,7.2,0.4,14.4,0.5,21.5
			c0.2,19.4,0.3,38.8,0.5,58.2c1.3,164.8,2.7,329.6,4,494.5l-0.2,65.9l-0.5,187.3l-0.1,32.9l-0.1,30.6v0.1c0,10.2-3.2,17-7.9,21.4
			c-12.1,11.2-34.4,7-41.7,5.2c-1.5-0.4-2.4-0.6-2.4-0.6l-1019.9-90.2l-1.5-0.1c-68.4-6.2-71.9-31-71.5-37.8l0.2-1.7l1.4-11.6
			c-1.5-13-2.7-26-3.7-39l-3.3-73.6c-0.6-45.1,1.8-90.2,7.1-135c-5.3-14.7-5.3-30.7,0-45.4c-12.3-41.9-1.1-84-0.9-126
			c-0.9-58.6-1.7-117.1-2.6-175.6l-3.8-679.6c0.3-0.4,0.6-0.7,0.9-1.1c0.3-4.2,0.7-8.4,1-12.6c-4.3-105.1-5-210.3,1.2-315.4
			c-9.2-121.9-6.1-243.8-1-365.7c3-71.1,8.6-142.5,4.4-213.3c-3.5-59.1,25.3-75.6,72-81.2c2.1-0.3,4.3-0.5,6.5-0.7
			c119.3-11.6,238.4-24.6,357.7-36.4c208.1-20.8,416.3-41.4,624.5-61.7c10.1-1,20.3-0.2,30.5-0.3
			C4517,1527.7,4524.3,1553.4,4524,1589.1L4524,1589.1z"/>
		<path class="st1" d="M4067.9,4180.2c4.5-48.5-21.6-70.9-86.6-75.9c-40.5-3.1-81-7.4-121.5-11.3c-38.9-3.7-70.4,2.9-71.6,51.3
			c-1,44.2,19.6,67.9,65.1,70.8c40.6,2.6,80.9,8.1,101.6,10.3C4048.8,4230.8,4063.9,4223.3,4067.9,4180.2z"/>
		<path class="st2" d="M3741.8,1648.1c-18.6,0-33.7,18.8-33.7,42c0,23.2,15.1,42,33.7,42c18.6,0,33.7-18.8,33.7-42
			C3775.5,1666.9,3760.4,1648.1,3741.8,1648.1z"/>
		<path class="st14" d="M3639,1659.1c-18.6,0-33.7,18.8-33.7,42c0,23.2,15.1,42,33.7,42c18.6,0,33.7-18.8,33.7-42
			C3672.7,1677.9,3657.6,1659.1,3639,1659.1z"/>
		<path class="st4" d="M3538.4,1670.2c-18.6,0-33.7,18.8-33.7,42s15.1,42,33.7,42c18.6,0,33.7-18.8,33.7-42
			S3557,1670.2,3538.4,1670.2z"/>
		<path class="st19" d="M2624.5,3118.6c0,0,64.1-33.7,105.6-30.9c41.5,2.8,144.8,25.4,144.8,25.4l-10,108.9c0,0-64.1-1.7-122.2,8.9
			c-58,10.5-195.7-35.4-187.4-60.3C2563.6,3145.7,2624.5,3118.6,2624.5,3118.6z"/>
		<path class="st20" d="M2677.9,3167.1c0,0,50.3-0.7,61.1-7.2c0,0,17.4-0.7,16.6,15.9c-0.8,16.6,91.8,22.4,91.8,22.4l-3.1,23.7
			c0,0-106.5,4.9-114.8,8.2C2721.2,3233.4,2677.9,3167.1,2677.9,3167.1z"/>
		<path class="st4" d="M2816.7,3078.4h-18.8c0,0,43.9,114.6,26.1,151.8l30.7,5.3l-7.3-128.3L2816.7,3078.4z"/>
		<path class="st21" d="M3504.5,2710.1l-44.2,51.9l114.6,237.1l88.8-244.3l-106.2-37.1C3557.5,2717.9,3508.7,2727.1,3504.5,2710.1z"
			/>
		<path class="st22" d="M3722.4,3514.9l29.1,459.6l359.3,31.8c0,0,16.2-228.6,38.6-325.6c22.4-97-14.9-236.3-14.9-236.3
			L3722.4,3514.9z"/>
		<path class="st23" d="M3828.1,3561.3l24.1,422.1l367.4,32.5c0,0,13.1-191.8,35.5-288.8s-14.9-236.3-14.9-236.3L3828.1,3561.3z"/>
		<path class="st22" d="M3837.8,3684.1l2.6,54.8c0,0,338.3,6.5,421.9-88.5c0,0-1.6-82.3-9.3-96.2
			C4245.2,3540.4,3837.8,3684.1,3837.8,3684.1z"/>
		<path class="st19" d="M4045.2,3732.1c0,0-11.2,49.7,10.3,77.4c0,0,5.5,17.7,14.9,17.7s67.4,0.5,79.6-16
			c12.1-16.6,13.3-87.3,13.3-87.3L4045.2,3732.1z"/>
		<path class="st20" d="M4054.8,3749.1c0,0,13.4,56.5,0.7,60.4c0,0,4.8,17.7,14.9,17.7c10.1-0.1-7.8-94.7-7.8-94.7L4054.8,3749.1z"
			/>
		<path class="st19" d="M3183.9,2118.7c0,0-43.1,79.6-31.5,149.2c0,0,6.6,18.2-49.7,78.8c0,0-22.4,22.4,62.2,28.2
			c0,0,24.9,10,19.1,80.4c-5.8,70.5,102.8,99.5,238,54.7c0,0,46.4-25.7,78.8,137.6c0,0,6.1,51.4-9.4,69.1
			c-15.5,17.7,122.7,3.3,164.7-129.3c0,0-128.2-89.5-96.2-242.1c32.1-152.6-194.6-296.3-194.6-296.3L3183.9,2118.7z"/>
		<path class="st20" d="M3466.1,2270.5c0,0,36.2,55.4,30.3,104.3c-5.9,48.9,121,202.3,121,202.3l6.7-22.4c0,0-76.6-54.1-69.4-168.9
			S3466.1,2270.5,3466.1,2270.5z"/>
		<path class="st24" d="M3186.1,2153c0,0-142.6-44.2-32.1-113.9c110.6-69.7,166.9-19.9,166.9-19.9S3245.8,2143,3186.1,2153z"/>
		<path class="st2" d="M3227,2153c0,0-161.4-106.1,27.6-189s281.9,46.4,302.9,127.1S3376.2,2034.7,3227,2153z"/>
		<path class="st25" d="M3306.6,2129.7c0,0-172.5-161.4,127.1-138.2c299.6,23.2,142.6,415.7,142.6,415.7l-71.5-232.4L3306.6,2129.7z
			"/>
		<path class="st26" d="M3339.7,2156.8c0,0-52.5-87.4,99-51.2s180.2,262.2,118.5,322.1c0,0-55.4-164.9-120-169.5
			c-15-1.1-27.7,11.1-28.4,26.1c-1,21.5-5,57.1-20.2,72.2C3388.7,2356.7,3393.5,2244,3339.7,2156.8z"/>
		<path class="st2" d="M3464.1,2717.9c0,0-56.9,97.3-76.8,158.1c-19.9,60.8-60.7,86.2-60.7,86.2s-52,19.4-205.1,74.1
			c-153.1,54.7-294.1,20.4-303.5,35.9c-9.4,15.5,38.1,96.2,28.2,146.5c0,0,3.3,11.6-6.6,11.6s-3.3,14.4,43.1,10.5
			c46.4-3.9,354.3,5.5,477-60.7c0,0,84.6-48.1,142.6-164.2c0,0,138.2,348.2,153.7,484.2c15.5,136,27.1,212.3,27.1,212.3h82.9
			l-10-371.4L3464.1,2717.9z"/>
		<path class="st23" d="M3508.5,2732.1l254.7,677.3l-3.5,70.7L3459.3,2772C3459.3,2772,3481.5,2717,3508.5,2732.1z"/>
		<path class="st2" d="M3655.9,2562.7c0,0-80.6,334.2-81.1,391.6c-0.5,57.4,186.1,403.1,206,515.9c19.9,112.8,39.8,230.5,39.8,230.5
			s399.6,33.2,464.3-139.3c0,0-51.4-195.7-104.5-298.5c0,0-92.9-233.8-189-398c-96.2-164.2-139.2-243.8-190.7-251.2
			C3749.3,2606.2,3658.7,2599.7,3655.9,2562.7z"/>
		<path class="st23" d="M4136.8,3203.2l26.5,17.9l17.2,41.8l30,380c0,0-36.1,35.7-83.6,35.7
			C4079.3,3678.6,4136.8,3203.2,4136.8,3203.2z"/>
		<path class="st23" d="M3787.5,2943.6c0,0-59.7-130.4,8.3-89.4c68,40.9,266.7,382,249.5,471.2c-17.2,89.2,20.9,359.9,20.9,359.9
			s-31.5,13.2-66.3,12.9c0,0-40.1-466.1-69.8-503.9C3900.3,3156.5,3787.5,2943.6,3787.5,2943.6z"/>
		<path class="st19" d="M2400.3,3146.8c0,0,66.7,5,99.9-7.5s45.6-25.6,63.4-23.4c17.8,2.2,65.9-9.8,70.5-15.6
			c4.6-5.8,20.3,11.1,3.3,23.8s-70.5,33.4-56.4,43.8s17.4,13.7,64.1-1.8c46.7-15.5,120.8,60.3,120.8,60.3s1.1,26.7-34.8,19.7
			c0,0-8.3,16.2-37,13.5c0,0,1.1,19.9-71.3,9.4c0,0-6.6,18.8-24.3,18.8c-22.8,0-23-8.5-54.3-12.4c-66.7-8.3-156-44.4-161.3-57.6
			C2375.1,3197.8,2400.3,3146.8,2400.3,3146.8z"/>
		<path class="st27" d="M2546.6,3275.7c0,0,75.1-95.1,135-107.1c0,0,41.4,12.8,84.4,57.9c0,0-1.7,27.2-34.8,19.7
			c0,0-7.2,15.9-37,13.5c0,0,4.1,19.9-71.3,9.4c0,0-11.2,28.9-45,15.3C2577.9,3284.2,2551.5,3276.3,2546.6,3275.7z"/>
		<path class="st20" d="M2440.1,3147.7c0,0-29.4,78.1,28.8,111.2l-92.7-36.2l45.4-75H2440.1z"/>
		<path class="st20" d="M2677.9,3167.1c0,0-23.9-7.3-56.2,6.2c-32.3,13.5-42.8-10.3-42.8-10.3s-4.2,5.1,4.1,12.8
			c8.3,7.7,26.8,8.1,54.4-1.7c27.6-9.7,56.7-0.7,56.7-0.7L2677.9,3167.1z"/>
		<path class="st20" d="M2638.8,3189.9l92.5,56.2l4.9,0.7C2736.2,3246.9,2635,3167,2638.8,3189.9z"/>
		<path class="st20" d="M2694.1,3259.2c0,0-62-50.6-80.6-51.9s78.5,56.5,78.5,56.5L2694.1,3259.2z"/>
		<path class="st20" d="M2622.8,3269.6c0,0-43.8-28.7-48.8-26.2c-5,2.5,46.4,29.3,46.4,29.3L2622.8,3269.6z"/>
		<path class="st2" d="M3756.5,2848.4c0,0,217.5,304.7,220,366.6c2.5,61.9,47.3,534,47.3,534s98.7,35.2,160.6,0
			c0,0,9.4-533.9-38.7-616.1c-48.1-82.3-186.2-322.8-186.2-322.8"/>
		<path class="st4" d="M3501.1,2652.7l17.8,70.2c0,0-25.4,21.5-38.7,39.2c-13.3,17.7-38.7,69.7-38.7,69.7
			S3441.3,2658.2,3501.1,2652.7z"/>
		<path class="st4" d="M3617.4,2551.5c0,0-15.7,84-98.6,171.4c0,0,56.4,2.7,121.1,80.7c0,0,32.6-153.1,32.6-226.1
			C3672.5,2577.5,3616.5,2523.3,3617.4,2551.5z"/>
		<polygon class="st28" points="1497.8,3119.1 1345.4,3631 1281.3,3421 1389.5,3175.5 		"/>
		<path class="st29" d="M1473.9,3199.3c0,0-167.3,60.9-110.4,371.1l-21.1,68.1c0,0-102.8-346.6,61.4-480.8l83.7-3.6L1473.9,3199.3z"
			/>
		<path class="st12" d="M1379.7,2335.9c0,0,26.5,26.5-87.9,184.1c-114.4,157.5-101.5,458-101.5,458l272.3-325.4l121.1-308.4
			L1379.7,2335.9z"/>
		<path class="st19" d="M1767.7,2035.8c0,0,190.7,38.1,136,218.9c0,0,8.5,79.4,43.9,118.9c4.5,4.8,4.2,12.4-0.6,16.9
			c-0.3,0.3-0.6,0.6-1,0.8c-12.6,9.2-26.9,16-42.1,19.8l2.4,49.3c0.8,14.6-1,29.3-5.4,43.3c-22.3,68.1-88.2,49.9-197.8,52.8
			c0,0-131-14.9-121,126c10,141-0.5,139.3-0.5,139.3l-171.9-155.9c0,0,139.3-134.3,102.8-346.6
			C1475.9,2107.1,1767.7,2035.8,1767.7,2035.8z"/>
		<path class="st20" d="M1464.6,2591c0,0,114.2,204.3,120.2,132.1l22.6,70.5l-89.2-67.2l-66.3-117.3L1464.6,2591z"/>
		<path class="st20" d="M1892.4,2117c0,0-81.6-8.3-131.3,117.7c-49.7,126-136.2,238.5-245.8,205.6l5.4-179.1
			C1520.7,2261.3,1818.1,1916.4,1892.4,2117z"/>
		<path class="st0" d="M1434.4,2636.8c0,0-58.2,28.2-99.5,59.8c-66.3,50.6-230.5,503.3-230.5,503.3s133.6,111.2,260,77.9
			c0,0,46.8-81.3,148-136c101.2-54.7,214.7-278.6,140.9-393.8c-20.5-32-77.1-107.9-71.5-91c55.6,168.3-63.6,98.5-63.6,98.5
			L1434.4,2636.8z"/>
		<path class="st29" d="M1141,3102.5c0,0,22,163,254.7,133.2l-17,19.3c0,0-170,34.2-261.9-103.6L1141,3102.5z"/>
		<path class="st29" d="M1409.6,2649.7c0,0,128.2,206.9,133.8,211.3c5.5,4.4,48.1-79.6,48.1-79.6s7.6-19.1,64.1,52.5
			c0,0,31,25.4,0-45.9l-64.1-46.8c0,0,23,37.9-55.8,7c-103-40.5-113.9-104.5-113.9-104.5L1409.6,2649.7z"/>
		<path class="st29" d="M1374.2,2993.1c0,0,105.5,97.8,190.3,107.1c0,0,47.4-53.7,49.9-64.5S1374.2,2993.1,1374.2,2993.1z"/>
		<path class="st30" d="M1128.9,3134.7c0,0,49.4,134.9,260.7,108.3c0,0-92.8,86.2-56.3,245.4c36.5,159.2,75.4,482.1,75.4,482.1
			l-578.1,51.2c0,0-90.9-480.2,41.8-660.9C1004.9,3180,1045.6,3256.9,1128.9,3134.7z"/>
		<path class="st31" d="M1457.7,2602.6c0,0,54.3,113.3,128.3,156.3l-40.5,84.4l-136-210.6
			C1409.6,2632.7,1462.8,2572.5,1457.7,2602.6z"/>
		<path class="st31" d="M1586,2758.9c0,0,55.7,38.8,78.1,72c0,0,1-67.7-20.2-97.3c-21.2-29.6-61.7-81.9-61.7-81.9L1586,2758.9z"/>
		<path class="st32" d="M1423.9,2775.3c0,0,263.1,109.4,377,178s164.7,80.7,164.7,80.7s53.1,15.5,98.4,17.7s300.7,83,300.7,83
			l-8.8,91.8c0,0-384.7-19.9-517.4-68.5s-464.3-164.7-464.3-164.7S1321.1,2754.3,1423.9,2775.3z"/>
		<path class="st29" d="M2315.9,3119.5c0,0-0.7,100-108.5,96.4l140.7,10.2l-10.5-100.3L2315.9,3119.5z"/>
		<path class="st31" d="M2329,3124.1c0,0,9.5,26.4-3.3,66.2c-12.9,39.8-9.9,33.7-9.9,33.7s-11.7,9.4-0.3,14.4
			c11.4,5,73.2,12,84.4,4.1c11.2-7.9,25.3-97,22-104S2311.2,3101.9,2329,3124.1z"/>
		<path class="st2" d="M1882.5,2103.2c0,0-67.5-62.4-159.5,168.9c-92,231.3-357.2,122.6-357.2,122.6s-37.5-358.9,279.2-395.4
			C1887.4,1971.4,1882.5,2103.2,1882.5,2103.2z"/>
		<path class="st33" d="M1177.1,3196.5c0,0-193.7,144.3-137.4,313.4c56.4,169.1-80.4,500.5-80.4,500.5l449.3-40
			c0,0-49.4-397.8-82.3-523.9c0,0-15.4-118.4,63.2-203.5C1389.5,3243,1268,3267.3,1177.1,3196.5z"/>
		<path class="st26" d="M3489,2293.6c0,0,29.8,39,43.9,97.9c14.1,58.9,54.6,73.8,54.6,73.8s-17.3-34.4-4.5-90.6
			C3595.9,2318.5,3489,2293.6,3489,2293.6z"/>
		<path class="st0" d="M1176.3,2167.4c-14.9-6.6-32.4-23.4-45.3-37.6v-73c0-19.2-21-34.8-46.6-34.8h-871
			c-25.6,0-46.5,15.7-46.5,34.8v167.7c0,19.1,21,34.8,46.5,34.8h871c25.6,0,46.6-15.7,46.6-34.8v-59.5L1176.3,2167.4z"/>
		<path class="st4" d="M230.8,2087.5h752.6c1.4,0,2.6,1.2,2.6,2.6v17.5c0,1.4-1.2,2.6-2.6,2.6H230.8c-1.4,0-2.6-1.2-2.6-2.6v-17.5
			C228.2,2088.7,229.4,2087.5,230.8,2087.5z"/>
		<path class="st4" d="M230.8,2130.7h752.6c1.4,0,2.6,1.2,2.6,2.6v17.5c0,1.4-1.2,2.6-2.6,2.6H230.8c-1.4,0-2.6-1.2-2.6-2.6v-17.5
			C228.2,2131.9,229.4,2130.7,230.8,2130.7z"/>
		<path class="st4" d="M230.8,2174h460.3c1.4,0,2.6,1.2,2.6,2.6v17.5c0,1.4-1.2,2.6-2.6,2.6H230.8c-1.4,0-2.6-1.2-2.6-2.6v-17.5
			C228.2,2175.2,229.4,2174,230.8,2174z"/>
		<path class="st2" d="M3868.3,2143.8c14.9-6.6,32.4-23.4,45.3-37.6v-73c0-19.2,21-34.8,46.5-34.8h871c25.6,0,46.6,15.7,46.6,34.8
			v167.7c0,19.1-21,34.8-46.6,34.8h-870.9c-25.6,0-46.5-15.7-46.5-34.8v-59.5L3868.3,2143.8z"/>
		<path class="st4" d="M4813.8,2086.5h-752.6c-1.4,0-2.6-1.2-2.6-2.6v-17.5c0-1.4,1.2-2.6,2.6-2.6h752.6c1.4,0,2.6,1.2,2.6,2.6v17.5
			C4816.4,2085.3,4815.2,2086.5,4813.8,2086.5z"/>
		<path class="st4" d="M4813.8,2129.7h-752.6c-1.4,0-2.6-1.2-2.6-2.6v-17.5c0-1.4,1.2-2.6,2.6-2.6h752.6c1.4,0,2.6,1.2,2.6,2.6v17.5
			C4816.4,2128.6,4815.2,2129.7,4813.8,2129.7z"/>
		<path class="st4" d="M4521.5,2173h-460.3c-1.4,0-2.6-1.2-2.6-2.6v-17.5c0-1.4,1.2-2.6,2.6-2.6h460.3c1.4,0,2.6,1.2,2.6,2.6v17.5
			C4524.1,2171.8,4522.9,2173,4521.5,2173z"/>
		<g class="st34">
			<path class="st35" d="M2041.5,2117.9h1044.2c0,0-61.6-161.5-110.5-141.1c-48.9,20.4-95.6-40.7-136-154.7s-75.3-13.6-93.2,43.4
				c-17.8,57-68.4,152-113,29.9s-79.3-268.5-134.6-103.1c-55.3,165.4-97.8-24.4-97.8-24.4s-29.7-282.9-177.5,8.1
				c-93.5,184.2-105.2-305.3-105.2-305.3s6.4-282.9-76.5-215.7L2041.5,2117.9z"/>
			<rect x="2150.9" y="1524.4" class="st36" width="66.4" height="586.9"/>
			<rect x="2362.7" y="1764.7" class="st37" width="66.4" height="346.6"/>
			<rect x="2563.6" y="1524.4" class="st36" width="66.4" height="586.9"/>
			<rect x="2775.4" y="1764.7" class="st30" width="66.4" height="346.6"/>
			<polygon class="st38" points="3064.9,2181.5 1960,2181.5 1960,1452.1 1973.9,1452.1 1973.9,2167.6 3064.9,2167.6 			"/>
			<polygon class="st38" points="1933,1489.8 2002.6,1489.8 1967.8,1421.4 			"/>
			<polygon class="st38" points="3049.5,2138.6 3049.5,2208.2 3118,2173.4 			"/>
			<polygon class="st38" points="2979,1340.5 3033.3,1383.9 3048.9,1308.8 			"/>
			<polygon class="st38" points="2435.1,1534.5 2170.6,1336.2 2057.2,1397.8 2052.5,1389.2 2171.4,1324.6 2433.6,1521.1 
				2572.4,1354.8 2840.9,1521.6 3022.7,1335.8 3029.7,1342.6 2842.4,1534.1 2574.5,1367.6 			"/>
			<circle class="st36" cx="2170.2" cy="1334" r="23.7"/>
			<circle class="st36" cx="2572.7" cy="1364.7" r="23.7"/>
			<circle class="st36" cx="2839.6" cy="1527.8" r="23.7"/>
		</g>
		<path class="st39" d="M1069.3,2424.5c-2.3,61.9-53.4,110.2-114.1,107.9s-108.1-54.5-105.8-116.3c2.3-61.9,53.4-110.2,114.1-107.9
			C1024.2,2310.5,1071.6,2362.5,1069.3,2424.5z"/>
		<path class="st4" d="M952.5,2472.6c-1.2,0-2.4-0.5-3.2-1.4l-41.7-44.5c-1.7-1.8-1.7-4.7,0.1-6.5c1.7-1.7,4.5-1.7,6.2,0
			c0,0,0.1,0.1,0.1,0.1l38.2,40.7l57.6-73.3c1.5-1.9,4.3-2.3,6.2-0.8c0,0,0.1,0,0.1,0.1c1.9,1.6,2.2,4.5,0.7,6.5L956,2471
			c-0.8,1-2,1.7-3.3,1.7L952.5,2472.6z"/>
		<path class="st2" d="M4212.7,2403.5c-2.3,61.9-53.4,110.2-114.1,107.9c-60.7-2.4-108.1-54.4-105.8-116.3
			c2.3-61.9,53.4-110.2,114.1-107.9C4167.7,2289.5,4215,2341.5,4212.7,2403.5z"/>
		<path class="st4" d="M4095.9,2451.7c-1.2,0-2.4-0.5-3.2-1.4l-41.7-44.5c-1.7-1.8-1.6-4.7,0.1-6.5c1.7-1.7,4.5-1.7,6.3,0.1
			c0,0,0.1,0.1,0.1,0.1l38.2,40.7l57.6-73.3c1.5-1.9,4.3-2.3,6.2-0.8c0,0,0.1,0,0.1,0.1c2,1.6,2.3,4.5,0.7,6.5l-60.7,77.4
			c-0.8,1-2,1.6-3.3,1.7L4095.9,2451.7z"/>
	</g>
</g>
</svg>
