<?xml version="1.0" encoding="utf-8"?>
<!-- Generator: Adobe Illustrator 24.1.0, SVG Export Plug-In . SVG Version: 6.00 Build 0)  -->
<svg version="1.1" id="Capa_1" xmlns="http://www.w3.org/2000/svg" xmlns:xlink="http://www.w3.org/1999/xlink" x="0px" y="0px"
	 viewBox="0 0 5000 3575.6" style="enable-background:new 0 0 5000 3575.6;" xml:space="preserve">
<style type="text/css">
	.st0{opacity:0.42;fill:#FE7101;enable-background:new    ;}
	.st1{opacity:0.8;fill:#F32735;enable-background:new    ;}
	.st2{fill:#514F4F;}
	.st3{fill:#3F3F3F;}
	.st4{fill:#353535;}
	.st5{fill:#C23825;}
	.st6{fill:#7C7C7C;}
	.st7{fill:#E01B07;}
	.st8{fill:#C12000;}
	.st9{fill:#771704;}
	.st10{fill:#EAF2F9;}
	.st11{opacity:0.58;}
	.st12{fill:#CEE4F4;}
	.st13{fill:#BDD6E5;}
	.st14{opacity:0.56;}
	.st15{fill:#D3DDEF;}
	.st16{fill:#D4E0F4;}
	.st17{fill:#B2CDEA;}
	.st18{opacity:0.65;fill:#B2CDEA;}
	.st19{fill:#C1DBF7;}
	.st20{fill:#E7EDF7;}
	.st21{fill:#A7C7D2;}
	.st22{fill:#1F1D5B;}
	.st23{fill:#FAC2AE;}
	.st24{fill:#F1A080;}
	.st25{fill:#2D2E75;}
	.st26{fill:#E6515B;}
	.st27{fill:#DA4D57;}
	.st28{fill:#B03E45;}
	.st29{fill:#7F99A2;}
	.st30{fill:#8EAAB4;}
	.st31{fill:#6C6C96;}
	.st32{fill:#3F3F72;}
	.st33{fill:#AAB5CB;}
	.st34{fill:#939CAF;}
	.st35{fill:#8DB0DC;}
	.st36{opacity:0.65;fill:#8DB0DC;}
	.st37{fill:#E4EFF9;}
	.st38{opacity:0.6;fill:#7485A5;}
	.st39{fill:#FFFFFF;}
	.st40{fill:#C6D2EB;}
	.st41{fill:#F4737F;}
	.st42{fill:#B1D1F2;}
	.st43{fill:#84B4FE;}
	.st44{fill:#5E88B7;}
	.st45{fill:#255993;}
</style>
<path class="st0" d="M209.6-69.2H60.1c-3.7,0-6.6-3-6.6-6.6v-149.5c0-3.7,3-6.6,6.6-6.6h149.5c3.7,0,6.6,3,6.6,6.6v149.5
	C216.3-72.2,213.3-69.2,209.6-69.2z"/>
<path class="st1" d="M460.9-69.2H311.4c-3.7,0-6.6-3-6.6-6.6v-149.5c0-3.7,3-6.6,6.6-6.6h149.5c3.7,0,6.6,3,6.6,6.6v149.5
	C467.5-72.2,464.5-69.2,460.9-69.2z"/>
<path class="st2" d="M724-69.2H574.6c-3.7,0-6.6-3-6.6-6.6v-149.5c0-3.7,3-6.6,6.6-6.6H724c3.7,0,6.6,3,6.6,6.6v149.5
	C730.7-72.2,727.7-69.2,724-69.2z"/>
<path class="st3" d="M988.1-69.2H838.7c-3.7,0-6.6-3-6.6-6.6v-149.5c0-3.7,3-6.6,6.6-6.6h149.5c3.7,0,6.6,3,6.6,6.6v149.5
	C994.8-72.2,991.8-69.2,988.1-69.2z"/>
<path class="st4" d="M1231.7-69.2h-149.5c-3.7,0-6.6-3-6.6-6.6v-149.5c0-3.7,3-6.6,6.6-6.6h149.5c3.7,0,6.6,3,6.6,6.6v149.5
	C1238.3-72.2,1235.3-69.2,1231.7-69.2z"/>
<rect x="3754.5" y="-232" class="st5" width="162.8" height="162.8"/>
<rect x="4005.7" y="-232" class="st2" width="162.8" height="162.8"/>
<rect x="4268.9" y="-232" class="st3" width="162.8" height="162.8"/>
<rect x="2981.9" y="-232" class="st0" width="162.8" height="162.8"/>
<rect x="3233.2" y="-232" class="st6" width="162.8" height="162.8"/>
<rect x="3496.3" y="-232" class="st6" width="162.8" height="162.8"/>
<rect x="4533" y="-232" class="st4" width="162.8" height="162.8"/>
<rect x="4776.5" y="-232" class="st4" width="162.8" height="162.8"/>
<rect x="3747.2" y="-485.5" class="st5" width="162.8" height="162.8"/>
<rect x="3998.5" y="-485.5" class="st2" width="162.8" height="162.8"/>
<rect x="4261.7" y="-485.5" class="st3" width="162.8" height="162.8"/>
<rect x="2974.7" y="-485.5" class="st0" width="162.8" height="162.8"/>
<rect x="3225.9" y="-485.5" class="st6" width="162.8" height="162.8"/>
<rect x="3489.1" y="-485.5" class="st6" width="162.8" height="162.8"/>
<rect x="4525.8" y="-485.5" class="st4" width="162.8" height="162.8"/>
<rect x="4769.3" y="-485.5" class="st4" width="162.8" height="162.8"/>
<path class="st0" d="M209.6-322.7H60.1c-3.7,0-6.6-3-6.6-6.6v-149.5c0-3.7,3-6.6,6.6-6.6h149.5c3.7,0,6.6,3,6.6,6.6v149.5
	C216.3-325.7,213.3-322.7,209.6-322.7z"/>
<path class="st5" d="M460.9-322.7H311.4c-3.7,0-6.6-3-6.6-6.6v-149.5c0-3.7,3-6.6,6.6-6.6h149.5c3.7,0,6.6,3,6.6,6.6v149.5
	C467.5-325.7,464.5-322.7,460.9-322.7z"/>
<path class="st7" d="M724-322.7H574.6c-3.7,0-6.6-3-6.6-6.6v-149.5c0-3.7,3-6.6,6.6-6.6H724c3.7,0,6.6,3,6.6,6.6v149.5
	C730.7-325.7,727.7-322.7,724-322.7z"/>
<path class="st8" d="M988.1-322.7H838.7c-3.7,0-6.6-3-6.6-6.6v-149.5c0-3.7,3-6.6,6.6-6.6h149.5c3.7,0,6.6,3,6.6,6.6v149.5
	C994.8-325.7,991.8-322.7,988.1-322.7z"/>
<path class="st9" d="M1231.7-322.7h-149.5c-3.7,0-6.6-3-6.6-6.6v-149.5c0-3.7,3-6.6,6.6-6.6h149.5c3.7,0,6.6,3,6.6,6.6v149.5
	C1238.3-325.7,1235.3-322.7,1231.7-322.7z"/>
<g>
	<path class="st10" d="M547.7,3187.8h4002.9c0,0,587.9-1622.9-50.2-1963C3930,920.8,4138.9,20.1,3336.3,124.2
		s-851.7,408.7-1658.9,345.1c-1200-94.5-1937.6,742.6-1236.9,1899.1C617.6,2660.6,631.5,2956.9,547.7,3187.8z"/>
	<g class="st11">
		<g>
			<g>
				<path class="st12" d="M3014.9,2623l42.5,549.6c0,0,376.3,3.4,375.5-2.4c-0.8-5.8,11.6-561.5,11.6-561.5L3014.9,2623z"/>
			</g>
			<g>
				<polyline class="st13" points="3014.9,2655.1 3448.2,2655.1 3444.5,2701.8 3014.9,2655.1 				"/>
			</g>
			<g>
				<polygon class="st12" points="2910.4,2558.8 4825.1,2558.8 4825.1,2616.9 2910.4,2655.1 				"/>
			</g>
			<g>
				<g>
					<g>
						<g>
							<g>
								<polygon class="st12" points="4551.6,2618.5 4528.9,3176.5 4497.6,3177.3 4486.1,2618.5 								"/>
							</g>
						</g>
					</g>
				</g>
			</g>
		</g>
		<g>
			<path class="st13" d="M3028.4,2818.9c0,0.5,409.4,22,409.4,22l-0.5,17.6l-407.5-19.8L3028.4,2818.9z"/>
		</g>
		<g>
			<polygon class="st13" points="3042.2,3019.9 3432.9,3010.8 3432.4,3030.3 3043,3030.3 			"/>
		</g>
		<g>
			<path class="st13" d="M3275.1,2754.2H3200c-4.7,0-8.5-3.8-8.5-8.5l0,0c0-4.7,3.8-8.5,8.5-8.5h75.1c4.7,0,8.5,3.8,8.5,8.5l0,0
				C3283.6,2750.4,3279.8,2754.2,3275.1,2754.2z"/>
		</g>
		<g>
			<path class="st13" d="M3280.7,2941.5h-75.1c-4.7,0-8.5-3.8-8.5-8.5l0,0c0-4.7,3.8-8.5,8.5-8.5h75.1c4.7,0,8.5,3.8,8.5,8.5l0,0
				C3289.2,2937.6,3285.4,2941.5,3280.7,2941.5z"/>
		</g>
		<g>
			<path class="st13" d="M3280.7,3133.6h-75.1c-4.7,0-8.5-3.8-8.5-8.5l0,0c0-4.7,3.8-8.5,8.5-8.5h75.1c4.7,0,8.5,3.8,8.5,8.5l0,0
				C3289.2,3129.7,3285.4,3133.6,3280.7,3133.6z"/>
		</g>
	</g>
	<g class="st14">
		<g>
			<path class="st15" d="M2680.3,2912.7c0,4.9-18.4,8.8-41.1,8.8c-22.7,0-41.1-3.9-41.1-8.8c0-4.9,18.4-8.8,41.1-8.8
				C2661.9,2903.9,2680.3,2907.8,2680.3,2912.7z"/>
			<path class="st15" d="M2680.3,3163.6c0,4.9-18.4,8.8-41.1,8.8c-22.7,0-41.1-3.9-41.1-8.8c0-4.9,18.4-8.8,41.1-8.8
				C2661.9,3154.8,2680.3,3158.7,2680.3,3163.6z"/>
			<rect x="2598.2" y="2912.7" class="st15" width="82.2" height="250.9"/>
		</g>
		<g>
			<path class="st15" d="M2639.8,2937.5l-2.7,0c0-1.2,0.9-124.2-27.1-199.7l2.4-1.5C2640.6,2812.5,2639.8,2936.3,2639.8,2937.5z"/>
		</g>
		<path class="st15" d="M2601.2,2671.5l14.3-12.7c-4.9-16.4-12.3-34.2-23-52.7h-7.1l3.1-6.7c-7.4-12-16.1-24.4-26.5-36.9
			c0,0,1.3,30.9,7.1,69h11.3l-10.3,6.2c1.3,8.2,2.9,16.6,4.6,25.1l13.4-3.3l-11.4,12.4c8.5,37.1,21.9,73.5,42.5,90.5
			c0,0,12.8-37.9-0.8-93L2601.2,2671.5z"/>
		<g>
			<path class="st15" d="M2639.5,2947.6c0-1.5-1-150.8,33-242.8l2.4,1.5c-33.8,91.2-32.8,239.7-32.8,241.2L2639.5,2947.6z"/>
		</g>
		<path class="st15" d="M2685.7,2626.6l-17.3-15.3c6-19.8,14.8-41.2,27.7-63.6h8.6l-3.8-8.1c8.9-14.5,19.4-29.4,32-44.5
			c0,0-1.5,37.3-8.6,83.3h-13.6l12.5,7.4c-1.6,9.9-3.5,20.1-5.6,30.3l-16.2-4l13.7,15c-10.3,44.8-26.4,88.7-51.3,109.3
			c0,0-15.5-45.8,1-112.2L2685.7,2626.6z"/>
	</g>
	<g class="st11">
		<polygon class="st12" points="4444.4,2416.7 4489.1,2416.7 4495.1,2559.7 4451.9,2559.7 		"/>
	</g>
	<g class="st11">
		<g>
			<path class="st12" d="M4363.2,2366.8c0,0,82.7,0,84.9,0s3.1,193.7,3.1,193.7h-79.1L4363.2,2366.8z"/>
		</g>
		<g>
			<path class="st10" d="M4437,2486.5c0,13.6-11,24.6-24.6,24.6c-13.6,0-24.6-11-24.6-24.6c0-13.6,8.8-22.9,22.4-22.9
				S4437,2473,4437,2486.5z"/>
		</g>
	</g>
	<g class="st11">
		<g>
			<polygon class="st12" points="4298.4,2562.5 4294.6,2350.4 4372.1,2353.4 4372.1,2560.5 			"/>
		</g>
		<g>
			<path class="st10" d="M4349,2395.1c0,8.6-7,15.6-15.6,15.6c-8.6,0-15.6-7-15.6-15.6c0-8.6,5.7-15.6,14.3-15.6
				S4349,2386.5,4349,2395.1z"/>
		</g>
	</g>
	<rect x="370.5" y="3168.9" class="st16" width="4364.6" height="31.9"/>
	<g>
		<path class="st17" d="M1335.5,803.1c-54.9,0-99.6-44.7-99.6-99.6c0-54.9,44.7-99.6,99.6-99.6c54.9,0,99.6,44.7,99.6,99.6
			C1435.1,758.4,1390.4,803.1,1335.5,803.1z M1335.5,607.7c-52.8,0-95.8,43-95.8,95.8s43,95.8,95.8,95.8c52.8,0,95.8-43,95.8-95.8
			S1388.4,607.7,1335.5,607.7z"/>
		<path class="st17" d="M1335.5,860.9c-86.8,0-157.4-70.6-157.4-157.4s70.6-157.4,157.4-157.4c86.8,0,157.4,70.6,157.4,157.4
			S1422.3,860.9,1335.5,860.9z M1335.5,549.9c-84.7,0-153.6,68.9-153.6,153.6s68.9,153.6,153.6,153.6c84.7,0,153.6-68.9,153.6-153.6
			S1420.2,549.9,1335.5,549.9z"/>
		<path class="st18" d="M1335.5,921.5c-120.2,0-218-97.8-218-218s97.8-218,218-218c120.2,0,218,97.8,218,218
			S1455.7,921.5,1335.5,921.5z M1335.5,489.3c-118.1,0-214.2,96.1-214.2,214.2s96.1,214.2,214.2,214.2s214.2-96.1,214.2-214.2
			S1453.6,489.3,1335.5,489.3z"/>
	</g>
	<rect x="1433.8" y="799.6" class="st19" width="2243.4" height="1489.2"/>
	<ellipse class="st20" cx="1456.8" cy="3386.4" rx="839.3" ry="89.8"/>
	<polygon class="st21" points="1299.7,2409.8 1299.4,2693 1614.2,2597.2 1623.7,2313.7 	"/>
	<g>
		<g>
			<path class="st22" d="M815.4,2173.6c0,0,5,31.8-32.8,46.3s2.2,96.5,56,44.2C838.6,2264.2,882.7,2226.7,815.4,2173.6z"/>
			<path class="st23" d="M935.4,1963.5l-143.6,149.9c0,0-16,18.9-6,43.4c10,24.5,52.9,32.1,52.9,32.1s44.9,70.7,27.9,125.4
				c-17,54.7,115,38.4,115,38.4l-15.2-57.2c0,0-30.9,8.5-40.9-37.7l-5-25.5c0,0,67-5.7,85.9-26.4c0,0,48.7-60.3,13.8-124.5
				c0,0-7-21.7-8-81.1C1012.2,2000.3,995.3,1939,935.4,1963.5z"/>
			<path class="st24" d="M842.7,2169c0,0,22.3,31.5,22.9,58.5s23.5,99,52,112.8l-52-12.3c0,0,8.3-81.1-19.4-125.8
				C846.2,2202.3,835.6,2177.2,842.7,2169z"/>
			<path class="st22" d="M928.4,1962.5l-62.8-29.2c0,0,69.8-7.5,110.7,13.2c40.9,20.7,36.1,62.3,36.1,62.3
				S983.6,1950.7,928.4,1962.5z"/>
			<path class="st25" d="M848.7,2142.6c0,0-17-24.5-5-36.8s105.7-84.9,119.7-143.3c14-58.5-137.5-49.7-184.4,7.8
				c-46.9,57.5-65.9,198.4,67.3,231.9l-3.5-33.2c0,0-57.8-19.8-38.9-45.3C822.7,2098.3,848.7,2142.6,848.7,2142.6z"/>
			<path class="st22" d="M1008.1,2109.7c-4.4,0-9.1-0.7-13.9-2.3c-23.1-7.3-26.9-29.2-27-30.2l-0.3-1.6l1-1.3
				c1.1-1.4,26.4-33.9,68.2-24l1.1,0.3l0.8,0.8c0.5,0.6,13.2,14.4,6.3,33C1039.1,2098.3,1025.7,2109.7,1008.1,2109.7z M974.9,2077.6
				c1.2,4.6,6,17.6,21.5,22.6c19.9,6.4,35.6-4.5,40.7-18.4c4.5-12-1.9-21.6-4.1-24.4C1001.2,2050.6,979.9,2072,974.9,2077.6z"/>
			<path class="st22" d="M909.1,2140.4c-4.4,0-9.1-0.7-13.9-2.3c-23.1-7.3-26.9-29.2-27-30.2l-0.3-1.6l1-1.3
				c1.1-1.4,26.4-33.9,68.2-24l1.1,0.3l0.8,0.8c0.5,0.6,13.2,14.4,6.3,33C940.1,2129.1,926.7,2140.4,909.1,2140.4z M875.9,2108.4
				c1.2,4.6,6,17.6,21.5,22.6c19.9,6.3,35.6-4.5,40.7-18.4c4.5-12-1.9-21.6-4.1-24.4C902.2,2081.3,880.9,2102.8,875.9,2108.4z"/>
			<path class="st22" d="M939.2,2087.1l-6-4.6c6.5-8.4,23.2-21,39.9-8.9l-4.5,6.1C953.7,2068.8,939.7,2086.3,939.2,2087.1z"/>
		</g>
		<g>
			<path class="st23" d="M1115.8,2333.4c0,0,108.8-34.7,129.6-47.4s149.2-79.8,189.2-95.4s60.7-27.8,60.7-27.8s34.7-54.4,43.4-57.3
				c8.7-2.9,49.2-9.3,49.2-9.3s33-18.5,39.3-38.8c6.4-20.2,24.9,18.5,9.8,32.4c-15,13.9-43.6,35.7-41.1,49
				c7.2,38.2,39.6-17.6,42.2,9.8c1.4,14-11.3,24.1-34,23.4c-33.2-1-47.6,11.2-47.6,11.2s-13.3,13.7-34.1,9.3
				s-159.1,110.2-161.4,111.9c-2.3,1.7-57.3,39.9-100.1,50.9c-42.8,11-123.8,54.4-123.8,54.4L1115.8,2333.4z"/>
			<path class="st24" d="M1585.5,2155.1c0,0,27.6,3.5,39.6-11.3c0,0-34,16.1-20.7-15.5c0,0,5.5-15.4,31.3-37.2c0,0,9.7-6.5,6.6-20.6
				c0,0-5.9,22.1-25.8,29.7C1596.6,2107.8,1585.5,2155.1,1585.5,2155.1z"/>
			<path class="st24" d="M1141.2,2351.2c0,0,20.2,34.9,78.4,19l-57.7,26.9C1161.9,2397,1147.7,2381.5,1141.2,2351.2z"/>
		</g>
		<path class="st23" d="M1329.8,2895.7c0,0,259.2-99.5,278.8-134.2c0,0-13.2,202.5,239,414.2c0,0,54.9,190.9,191.4,141.1
			c0,0-92.6-118-152.7-180.5c-60.2-62.5-180.5-413.8-197.8-453.9c-17.4-40.1-38.2-74.8-167.8-34.3s-229.1,84.9-229.1,84.9
			L1329.8,2895.7z"/>
		<path class="st24" d="M1667.8,2877.5c12.6-34.6,16.2-116.3-44.1-151c-19.6-11.3-27.4-12.2-41-7.5c-9.9,3.4-19.1,8.5-27.7,14.5
			l-11.5,8.1c-0.1,0.1-0.2,0.1-0.2,0.2c-7.2,5.6-14.2,11.8-20.9,18.5c-65.9,54.6-165.9,109.6-165.9,109.6l-20.9,23.6l140.7-54.4
			c38-8,126.8-24.2,127.5-2.3c0.9,27.8,100.9,185.9,100.9,185.9S1644.5,2941.7,1667.8,2877.5z"/>
		<path class="st23" d="M1424.3,2859.1c0,0,46.7-9.1,86.1-6.1c0,0-70.7,69.3-47.5,396.7l-16.2,17.1c0,0,55.5,169.1,101.8,176.1
			c46.3,6.9,41-28.1,41-28.1s-25.9-27.4-55.5-135.8c-13.6-49.8,115.7-378.2,115.7-378.2l15.5-63.1c4-16.3,3.5-33.6-3.1-49
			c-18.7-43.9-73.1-60.3-114.9-36.5C1535.2,2759.2,1438.7,2835.3,1424.3,2859.1z"/>
		<path class="st26" d="M866.8,2305.4c0,0,23.4,58,89.4,18.7c0,0,12.8-12.5,7.2-27.2c0,0,27.5-4,46,8.7s125,17.4,125,17.4
			s9.3,54.4,33.6,81.6c0,0-59.6,30.1-103,35.9c0,0,7.5,38.8,40.5,59.6s12.1,57.3,14.5,75.2c2.3,17.9,56.6,127.4,94.3,136.5
			c0,0-106.4,35.3-203.6,15s-129-139.4-129-139.4s-50.9,33-75.2,30.1c0,0-34.8-103.1-40.2-127.3c-10.1-45.1-2.6-71.7,29.8-101.8
			S866.8,2305.4,866.8,2305.4z"/>
		<path class="st27" d="M855.7,2726.5l20,162.3c0,0,280.3-105.9,281.1-125.8c0.9-20-150.5-16.5-150.5-16.5L855.7,2726.5z"/>
		<path class="st28" d="M854.3,2726.5c0,0-14.5,65.6,45.1,72.7c59.6,7.1,237.5-35.6,237.5-35.6l5.5-25.8L854.3,2726.5z"/>
		<path class="st22" d="M914.8,2854.9c0,0,141.4-96.3,215.2-92c0,0,179.6-50.3,189.2-45.1s44.3,163.1,30.4,189.2l-279.4,81.6
			C1070.1,2988.5,867.9,2976.4,914.8,2854.9z"/>
		<path class="st26" d="M2025.7,3292.2c11.5,2,23,3.9,34.5,6c7.4,1.3,14.7,2.9,21.5,6.1c4,1.9,7.5,4.3,8.7,9
			c2.3,8.9-0.1,15.4-7.9,20.3c-11.2,7-23.6,11.4-35.9,16.1c-9.7,3.7-19.5,7-29.8,8.4c-25.3,3.4-47.7-3.5-67.4-19.4
			c-6.3-5.1-11.7-11.1-16.9-17.3c-19.2-22.8-42.7-39.8-70.5-50.8c-5-2-7.7-0.9-10,4c-3.2,6.7-3.9,14-4.5,21.3
			c-1.5,20.7-0.4,41.4,1.5,62.1c0.2,1.8-0.3,2.4-2.1,2.3c-2.6-0.2-5.8,0.8-7.6-0.5c-1.7-1.2-0.6-4.6-0.7-7.1
			c-0.7-17.2-1.6-34.3-4.4-51.3c-2.6-16.1-6.7-31.9-11.4-47.5c-5.3-17.5-6.9-35.2-2-53.1c2.5-8.9,6.4-17.1,13.2-23.5
			c4.8-4.6,7.8-5.1,13.3-1.6c3.8,2.5,7.8,4.8,11,8.1c0.1,0.8,0.6,0.6,1.1,0.5l0,0c0.1,1,1,1.4,1.6,2c8.8,8.3,17.4,16.8,25.8,25.5
			c10.3,10.7,20.3,21.8,30,33c10.1,11.6,19,24.1,29.3,35.5c10.1,11.2,21,21.6,35,28.1c11.6,5.3,23.2,6.1,34.9,0.2
			C2024.4,3304.4,2027.3,3299.4,2025.7,3292.2z"/>
		<path class="st26" d="M1589.5,3414.8c10.3,5.5,20.7,10.9,31,16.5c6.6,3.6,13.1,7.3,18.6,12.5c3.2,3,5.8,6.4,5.5,11.2
			c-0.6,9.2-4.8,14.6-13.8,16.8c-12.8,3.2-26,3.5-39.1,4.2c-10.4,0.5-20.7,0.6-30.9-1.3c-25.1-4.7-44.2-18.1-58-39.4
			c-4.4-6.8-7.7-14.2-10.7-21.6c-11.2-27.7-28.3-51.1-51.3-70.2c-4.2-3.5-7-3.3-10.8,0.7c-5.1,5.4-8.1,12.1-10.8,18.9
			c-7.9,19.3-13.2,39.3-17.9,59.5c-0.4,1.8-1,2.2-2.7,1.5c-2.4-1-5.8-1.1-7-2.8c-1.2-1.7,0.9-4.6,1.5-7c4.7-16.5,9.1-33.1,11.7-50.1
			c2.5-16.1,3.6-32.4,3.9-48.7c0.4-18.3,4.4-35.6,14.6-51c5.1-7.7,11.4-14.2,19.9-18.3c6-2.9,9-2.4,13.1,2.7c2.9,3.5,5.9,7,8,11.1
			c-0.2,0.7,0.4,0.8,0.9,0.9c0,0,0,0,0,0c-0.2,1,0.5,1.6,0.9,2.3c5.8,10.6,11.3,21.4,16.6,32.3c6.5,13.4,12.5,27,18.3,40.7
			c6,14.1,10.6,28.8,16.8,42.8c6.2,13.8,13.3,27.1,24.6,37.5c9.4,8.6,20.2,13,33.1,11.1C1584.4,3426.1,1588.8,3422.2,1589.5,3414.8z
			"/>
		<path class="st24" d="M1510.4,2853c0,0,18.2-27.3,35.6-39.4l-78.1,39.9L1510.4,2853z"/>
		<polygon class="st28" points="1051,2382.4 1064.9,2440.4 1096.7,2433.2 		"/>
		<path class="st28" d="M871.7,2500l23.1,78.1l-13.3,9.3c0,0,30.1,77.8,63.1,104.9l11.8,0.8c0,0-46.8-97.2-60.7-143.5
			C881.8,2503.2,871.7,2500,871.7,2500z"/>
		<g>
			<path class="st23" d="M814.1,2617.3c0,0,52.3-18.1,67.4-30c0,0,42.4,88.9,63.1,104.9c0,0,78.7,3.9,127.3,18.6
				c48.6,14.8,85-1.7,85-1.7s33-15.6,50.3-22.6l57.3,17.6c0,0-109.1,42.8-120.4,38.5c-11.3-4.3-100,15.1-100,15.1
				s-90.2,24.7-145.5,18.9c-15.4-1.6-28.4-12.3-33.9-26.7L814.1,2617.3z"/>
			<path class="st24" d="M814.1,2617.3l15.5,40.6c0,0,44.5-20.9,59.6-52.4l-7.7-18.1C881.5,2587.4,856.2,2600.9,814.1,2617.3z"/>
		</g>
	</g>
	<polygon class="st29" points="1299.4,2693 1304,2719 1614.2,2622.6 1614.2,2597.2 	"/>
	<polygon class="st30" points="1299.4,2693 1130.2,2747 1136.9,2763.6 1304,2719 	"/>
	<g>
		<path class="st31" d="M959.6,3016l-118,365.6c0,0,4.6,28.9,26.6,8.1l166.8-362.1L959.6,3016z"/>
		<path class="st32" d="M1025.6,3029.3l-0.9,4.7l-54.4,274.2c0,0,8.1,37.6,30.1,6.4l74.5-267.2L1025.6,3029.3z"/>
		<path class="st31" d="M1034.9,3038l2.2,6.3l126.1,366.3c0,0,35.9,39.4,40.5-13.3l-97.2-372L1034.9,3038z"/>
		<path class="st32" d="M1093.4,2999.8l2.3,5.2l136.9,303.9c0,0,32.9,30.7,31.8-15l-113.9-311.4L1093.4,2999.8z"/>
		<g>
			<path class="st33" d="M838.9,2682.4c0,0-50,359,182.6,374.7c0,0,135.4,11.3,304.6-132.8c0,0-64.7-25.2-237.8-0.9
				C880.8,2952.6,838.9,2682.4,838.9,2682.4z"/>
			<path class="st34" d="M845.2,2875.3c0,0,31.6,323.5,410.5,101.8C1255.8,2977.1,969.2,3106,845.2,2875.3z"/>
		</g>
	</g>
	<g>
		<path class="st35" d="M1997.4,2327.1c-54.9,0-99.6-44.7-99.6-99.6s44.7-99.6,99.6-99.6c54.9,0,99.6,44.7,99.6,99.6
			S2052.3,2327.1,1997.4,2327.1z M1997.4,2131.7c-52.8,0-95.8,43-95.8,95.8s43,95.8,95.8,95.8c52.8,0,95.8-43,95.8-95.8
			S2050.2,2131.7,1997.4,2131.7z"/>
		<path class="st35" d="M1997.4,2384.9c-86.8,0-157.4-70.6-157.4-157.4s70.6-157.4,157.4-157.4c86.8,0,157.4,70.6,157.4,157.4
			S2084.2,2384.9,1997.4,2384.9z M1997.4,2073.9c-84.7,0-153.6,68.9-153.6,153.6s68.9,153.6,153.6,153.6
			c84.7,0,153.6-68.9,153.6-153.6S2082.1,2073.9,1997.4,2073.9z"/>
		<path class="st36" d="M1997.4,2445.5c-120.2,0-218-97.8-218-218s97.8-218,218-218c120.2,0,218,97.8,218,218
			S2117.6,2445.5,1997.4,2445.5z M1997.4,2013.3c-118.1,0-214.2,96.1-214.2,214.2c0,118.1,96.1,214.2,214.2,214.2
			c118.1,0,214.2-96.1,214.2-214.2C2211.6,2109.4,2115.5,2013.3,1997.4,2013.3z"/>
	</g>
	<g>
		<rect x="1312.7" y="670.9" class="st35" width="2243.4" height="1489.2"/>
		<circle class="st37" cx="2786.1" cy="1104.6" r="240"/>
		<g>
			<rect x="1472.5" y="864.6" class="st38" width="997.9" height="1028.9"/>
			<rect x="1418.7" y="815.8" class="st39" width="997.9" height="1023.8"/>
			<path class="st40" d="M1567.7,1729.6h807.9c0,0-47.7-124.9-85.5-109.2c-37.8,15.7-74-31.5-105.2-119.7
				c-31.2-88.2-58.3-10.5-72.1,33.6c-13.8,44.1-52.9,117.6-87.4,23.1c-34.5-94.5-61.4-207.7-104.1-79.8
				c-42.8,128-75.6-18.9-75.6-18.9s-23-218.9-137.3,6.3c-72.4,142.5-81.4-236.2-81.4-236.2s4.9-218.9-59.2-166.9V1729.6z"/>
			<rect x="1652.4" y="1270.4" class="st41" width="51.4" height="454.1"/>
			<rect x="1816.3" y="1456.3" class="st28" width="51.4" height="268.2"/>
			<rect x="1971.7" y="1270.4" class="st41" width="51.4" height="454.1"/>
			<rect x="2135.6" y="1456.3" class="st26" width="51.4" height="268.2"/>
			<polygon class="st25" points="2359.6,1778.8 1504.7,1778.8 1504.7,1214.5 1515.4,1214.5 1515.4,1768.1 2359.6,1768.1 			"/>
		</g>
		<g>
			<g>
				<rect x="3131.3" y="1019.3" class="st39" width="148.6" height="15.7"/>
				<rect x="3131.3" y="1054.1" class="st39" width="148.6" height="15.7"/>
				<rect x="3131.3" y="1088.9" class="st39" width="81.1" height="15.7"/>
			</g>
		</g>
		<g>
			<g>
				<rect x="1730.3" y="1927.7" class="st39" width="274.7" height="15.7"/>
				<rect x="1730.3" y="1962.5" class="st39" width="274.7" height="15.7"/>
				<rect x="1730.3" y="1997.3" class="st39" width="149.9" height="15.7"/>
			</g>
		</g>
		<g>
			<g>
				<g>
					<rect x="2612.5" y="1424.6" class="st42" width="375.2" height="15.7"/>
					<rect x="2612.5" y="1459.4" class="st42" width="375.2" height="15.7"/>
					<rect x="2612.5" y="1494.2" class="st42" width="204.7" height="15.7"/>
				</g>
			</g>
			<g>
				<g>
					<rect x="2612.5" y="1526.8" class="st42" width="375.2" height="15.7"/>
					<rect x="2612.5" y="1561.6" class="st42" width="375.2" height="15.7"/>
					<rect x="2612.5" y="1596.4" class="st42" width="204.7" height="15.7"/>
				</g>
			</g>
			<g>
				<g>
					<rect x="2612.5" y="1628.9" class="st42" width="375.2" height="15.7"/>
					<rect x="2612.5" y="1663.7" class="st42" width="375.2" height="15.7"/>
					<rect x="2612.5" y="1698.5" class="st42" width="204.7" height="15.7"/>
				</g>
			</g>
			<g>
				<g>
					<rect x="2612.5" y="1731" class="st42" width="375.2" height="15.7"/>
					<rect x="2612.5" y="1765.8" class="st42" width="375.2" height="15.7"/>
					<rect x="2612.5" y="1800.6" class="st42" width="204.7" height="15.7"/>
				</g>
			</g>
		</g>
		<g>
			<g>
				<rect x="2715.1" y="1249.4" class="st25" width="5.9" height="4"/>
				<path class="st25" d="M2702.8,1249.4h-12.3v4h12.3V1249.4z M2678.2,1249.4h-12.3v4h12.3V1249.4z M2653.7,1249.4h-12.3v4h12.3
					V1249.4z M2629.1,1249.4h-12.3v4h12.3V1249.4z M2604.5,1249.4h-12.3v4h12.3V1249.4z M2579.9,1249.4h-12.3v4h12.3V1249.4z"/>
				<polygon class="st25" points="2555.4,1249.4 2547.3,1249.4 2547.3,1256.8 2551.7,1256.8 2551.7,1253.4 2555.4,1253.4 				"/>
				<path class="st25" d="M2551.7,1267.5h-4.4v10.8h4.4V1267.5z M2551.7,1289h-4.4v10.8h4.4V1289z M2551.7,1310.5h-4.4v10.8h4.4
					V1310.5z M2551.7,1332h-4.4v10.8h4.4V1332z M2551.7,1353.6h-4.4v10.8h4.4V1353.6z M2551.7,1375.1h-4.4v10.8h4.4V1375.1z
					 M2551.7,1396.6h-4.4v10.8h4.4V1396.6z M2551.7,1418.1h-4.4v10.8h4.4V1418.1z"/>
				<rect x="2547.3" y="1439.6" class="st25" width="4.4" height="5.3"/>
			</g>
			<ellipse class="st25" cx="2549.5" cy="1447.2" rx="19.3" ry="16.4"/>
			<ellipse class="st25" cx="2721" cy="1253.7" rx="19.3" ry="16.4"/>
		</g>
		<polygon class="st25" points="1483.8,1243.7 1537.6,1243.7 1510.7,1190.7 		"/>
		<polygon class="st25" points="2347.6,1745.6 2347.6,1799.4 2400.6,1772.5 		"/>
		<polygon class="st25" points="2293.1,1128.1 2335.1,1161.7 2347.2,1103.6 		"/>
		<g>
			<path class="st26" d="M2848.5,1108.2c0,0.3,0,0.6,0,0.9l139.3-39.5c-14.8-93.1-95.5-164.3-192.8-164.3v141.2
				C2825.2,1050.8,2848.5,1076.8,2848.5,1108.2z"/>
			<path class="st43" d="M2996,1081.5l-149.6,42.4c-4.1,15.8-14.2,29.1-27.7,37.4l76,123.6c61.7-32.8,103.7-97.7,103.7-172.5
				C2998.4,1102,2997.6,1091.6,2996,1081.5z"/>
			<path class="st42" d="M2775.2,1046.9v-149c-107.8,0-195.2,87.4-195.2,195.2c0,4.8,0.2,9.5,0.6,14.2l143.6,7c-0.2-2-0.3-4-0.3-6.1
				C2723.7,1077.5,2745.9,1052.1,2775.2,1046.9z"/>
			<path class="st25" d="M2729.6,1134.6l-149.7-7.3c7.3,101.2,91.6,181,194.7,181c33.1,0,64.2-8.3,91.5-22.8l-71.1-115.6
				c-2.9,0.4-5.8,0.7-8.9,0.7C2761.1,1170.6,2739.6,1155.9,2729.6,1134.6z"/>
		</g>
		<polygon class="st25" points="1872.3,1278.3 1667.6,1124.8 1579.9,1172.4 1576.2,1165.8 1668.3,1115.9 1871.1,1267.9 
			1978.5,1139.2 2186.2,1268.3 2326.9,1124.5 2332.3,1129.8 2187.4,1277.9 1980.1,1149.1 		"/>
		<circle class="st41" cx="1667.3" cy="1123.1" r="18.4"/>
		<circle class="st41" cx="1978.7" cy="1146.9" r="18.4"/>
		<circle class="st41" cx="2185.2" cy="1273.1" r="18.4"/>
		<g>
			<rect x="3125" y="1162.8" class="st35" width="93.7" height="29.3"/>
			<rect x="3125" y="1208.7" class="st44" width="93.7" height="29.3"/>
			<rect x="3125" y="1254.6" class="st25" width="93.7" height="29.3"/>
			<rect x="3125" y="1300.4" class="st43" width="93.7" height="29.3"/>
			<rect x="3125" y="1346.3" class="st42" width="93.7" height="29.3"/>
			<rect x="3125" y="1392.2" class="st45" width="93.7" height="29.3"/>
			<rect x="3125" y="1438" class="st26" width="93.7" height="29.3"/>
		</g>
	</g>
</g>
</svg>
