<?xml version="1.0" encoding="utf-8"?>
<!-- Generator: Adobe Illustrator 24.1.0, SVG Export Plug-In . SVG Version: 6.00 Build 0)  -->
<svg version="1.1" id="Capa_1" xmlns="http://www.w3.org/2000/svg" xmlns:xlink="http://www.w3.org/1999/xlink" x="0px" y="0px"
	 viewBox="0 0 5000 3575.6" style="enable-background:new 0 0 5000 3575.6;" xml:space="preserve">
<style type="text/css">
	.st0{opacity:0.42;fill:#FE7101;enable-background:new    ;}
	.st1{opacity:0.8;fill:#F32735;enable-background:new    ;}
	.st2{fill:#514F4F;}
	.st3{fill:#3F3F3F;}
	.st4{fill:#353535;}
	.st5{fill:#C23825;}
	.st6{fill:#7C7C7C;}
	.st7{fill:#E01B07;}
	.st8{fill:#C12000;}
	.st9{fill:#771704;}
	.st10{fill:#D4E0F4;}
	.st11{fill:#EAF2F9;}
	.st12{fill:#D1E1ED;}
	.st13{fill:#C0D6E2;}
	.st14{opacity:0.71;fill:#C6D2EB;}
	.st15{fill:#FABC9D;}
	.st16{fill:#FFFFFF;}
	.st17{opacity:0.25;fill:#0B65AE;}
	.st18{fill:#121038;}
	.st19{fill:#1F1953;}
	.st20{fill:#231F20;}
	.st21{fill:#2D2E75;}
	.st22{fill:#204B81;}
	.st23{fill:#8DB0DC;}
	.st24{fill:#5077BA;}
	.st25{fill:#FFD375;}
	.st26{fill:#232F63;}
	.st27{fill:#171645;}
	.st28{fill:#E6515B;}
	.st29{fill:#B03E45;}
	.st30{opacity:0.53;}
	.st31{opacity:0.73;fill:#232F63;}
	.st32{opacity:0.84;fill:#232F63;}
	.st33{fill:#4D5B89;}
	.st34{fill:none;}
	.st35{fill:#FAC2AE;}
	.st36{opacity:0.68;fill:#0D183C;}
	.st37{fill:#F1A080;}
	.st38{fill:#344B56;}
	.st39{fill:#3F6A84;}
	.st40{fill:#7399C4;}
	.st41{fill:#769AB6;}
	.st42{fill:#9EB7C6;}
	.st43{fill:#A7C7D2;}
</style>
<path class="st0" d="M209.6-69.2H60.1c-3.7,0-6.6-3-6.6-6.6v-149.5c0-3.7,3-6.6,6.6-6.6h149.5c3.7,0,6.6,3,6.6,6.6v149.5
	C216.3-72.2,213.3-69.2,209.6-69.2z"/>
<path class="st1" d="M460.9-69.2H311.4c-3.7,0-6.6-3-6.6-6.6v-149.5c0-3.7,3-6.6,6.6-6.6h149.5c3.7,0,6.6,3,6.6,6.6v149.5
	C467.5-72.2,464.5-69.2,460.9-69.2z"/>
<path class="st2" d="M724-69.2H574.6c-3.7,0-6.6-3-6.6-6.6v-149.5c0-3.7,3-6.6,6.6-6.6H724c3.7,0,6.6,3,6.6,6.6v149.5
	C730.7-72.2,727.7-69.2,724-69.2z"/>
<path class="st3" d="M988.1-69.2H838.7c-3.7,0-6.6-3-6.6-6.6v-149.5c0-3.7,3-6.6,6.6-6.6h149.5c3.7,0,6.6,3,6.6,6.6v149.5
	C994.8-72.2,991.8-69.2,988.1-69.2z"/>
<path class="st4" d="M1231.7-69.2h-149.5c-3.7,0-6.6-3-6.6-6.6v-149.5c0-3.7,3-6.6,6.6-6.6h149.5c3.7,0,6.6,3,6.6,6.6v149.5
	C1238.3-72.2,1235.3-69.2,1231.7-69.2z"/>
<rect x="3754.5" y="-232" class="st5" width="162.8" height="162.8"/>
<rect x="4005.7" y="-232" class="st2" width="162.8" height="162.8"/>
<rect x="4268.9" y="-232" class="st3" width="162.8" height="162.8"/>
<rect x="2981.9" y="-232" class="st0" width="162.8" height="162.8"/>
<rect x="3233.2" y="-232" class="st6" width="162.8" height="162.8"/>
<rect x="3496.3" y="-232" class="st6" width="162.8" height="162.8"/>
<rect x="4533" y="-232" class="st4" width="162.8" height="162.8"/>
<rect x="4776.5" y="-232" class="st4" width="162.8" height="162.8"/>
<rect x="3747.2" y="-485.5" class="st5" width="162.8" height="162.8"/>
<rect x="3998.5" y="-485.5" class="st2" width="162.8" height="162.8"/>
<rect x="4261.7" y="-485.5" class="st3" width="162.8" height="162.8"/>
<rect x="2974.7" y="-485.5" class="st0" width="162.8" height="162.8"/>
<rect x="3225.9" y="-485.5" class="st6" width="162.8" height="162.8"/>
<rect x="3489.1" y="-485.5" class="st6" width="162.8" height="162.8"/>
<rect x="4525.8" y="-485.5" class="st4" width="162.8" height="162.8"/>
<rect x="4769.3" y="-485.5" class="st4" width="162.8" height="162.8"/>
<path class="st0" d="M209.6-322.7H60.1c-3.7,0-6.6-3-6.6-6.6v-149.5c0-3.7,3-6.6,6.6-6.6h149.5c3.7,0,6.6,3,6.6,6.6v149.5
	C216.3-325.7,213.3-322.7,209.6-322.7z"/>
<path class="st5" d="M460.9-322.7H311.4c-3.7,0-6.6-3-6.6-6.6v-149.5c0-3.7,3-6.6,6.6-6.6h149.5c3.7,0,6.6,3,6.6,6.6v149.5
	C467.5-325.7,464.5-322.7,460.9-322.7z"/>
<path class="st7" d="M724-322.7H574.6c-3.7,0-6.6-3-6.6-6.6v-149.5c0-3.7,3-6.6,6.6-6.6H724c3.7,0,6.6,3,6.6,6.6v149.5
	C730.7-325.7,727.7-322.7,724-322.7z"/>
<path class="st8" d="M988.1-322.7H838.7c-3.7,0-6.6-3-6.6-6.6v-149.5c0-3.7,3-6.6,6.6-6.6h149.5c3.7,0,6.6,3,6.6,6.6v149.5
	C994.8-325.7,991.8-322.7,988.1-322.7z"/>
<path class="st9" d="M1231.7-322.7h-149.5c-3.7,0-6.6-3-6.6-6.6v-149.5c0-3.7,3-6.6,6.6-6.6h149.5c3.7,0,6.6,3,6.6,6.6v149.5
	C1238.3-325.7,1235.3-322.7,1231.7-322.7z"/>
<rect x="705.3" y="2842.3" class="st10" width="3929.3" height="28.7"/>
<path class="st11" d="M1856.2,395C775.8,309.9,111.9,1063.5,742.7,2104.7c159.4,263,171.9,529.8,96.5,737.6h3603.7
	c0,0,529.2-1461.1-45.2-1767.2C3884.1,801.4,4072.1-9.5,3349.6,84.2"/>
<g>
	<path class="st12" d="M2777,1875.7h-42.6c-27.3,0-49.4-22.2-49.4-49.4v-1.6c0-17.6-11.4-33.6-28.4-39.9c-7-2.6-14-5.5-20.8-8.6
		c-16.7-7.7-35.7-4.5-48.3,8.1l-1.1,1.1c-19.3,19.3-50.6,19.3-69.9,0l-30.1-30.1c-19.3-19.3-19.3-50.6,0-69.9l1.1-1.1
		c12.6-12.6,15.8-31.6,8.1-48.3c-3.1-6.8-6-13.8-8.6-20.8c-6.2-17-22.3-28.4-39.9-28.4h-1.6c-27.3,0-49.4-22.2-49.4-49.4v-42.6
		c0-27.3,22.2-49.4,49.4-49.4h1.6c17.6,0,33.6-11.4,39.9-28.4c2.6-7,5.5-14,8.6-20.8c7.7-16.7,4.5-35.7-8.1-48.3l-1.1-1.1
		c-19.3-19.3-19.3-50.6,0-69.9l30.1-30.1c19.3-19.3,50.6-19.3,69.9,0l1.1,1.1c12.6,12.6,31.6,15.8,48.3,8.1c6.8-3.1,13.7-6,20.8-8.6
		c17-6.2,28.4-22.3,28.4-39.9v-1.6c0-27.3,22.2-49.4,49.4-49.4h42.6c27.3,0,49.4,22.2,49.4,49.4v1.6c0,17.6,11.4,33.6,28.4,39.9
		c7,2.6,14,5.5,20.8,8.6c16.7,7.7,35.7,4.5,48.3-8.1l1.1-1.1c19.3-19.3,50.6-19.3,69.9,0l30.1,30.1c19.3,19.3,19.3,50.6,0,69.9
		l-1.1,1.1c-12.6,12.6-15.8,31.6-8.1,48.3c3.1,6.8,6,13.8,8.6,20.8c6.2,17,22.3,28.4,39.9,28.4h1.6c27.3,0,49.4,22.2,49.4,49.4v42.6
		c0,27.3-22.2,49.4-49.4,49.4h-1.6c-17.6,0-33.6,11.4-39.9,28.4c-2.6,7-5.5,14-8.6,20.8c-7.7,16.7-4.5,35.7,8.1,48.3l1.1,1.1
		c19.3,19.3,19.3,50.6,0,69.9l-30.1,30.1c-19.3,19.3-50.6,19.3-69.9,0l-1.1-1.1c-12.6-12.6-31.6-15.8-48.3-8.1
		c-6.8,3.1-13.8,6-20.8,8.6c-17,6.2-28.4,22.3-28.4,39.9v1.6C2826.4,1853.5,2804.2,1875.7,2777,1875.7z M2617.1,1764.8
		c7.3,0,14.6,1.6,21.7,4.8c6.6,3,13.4,5.8,20.2,8.4c19.8,7.3,33.1,26,33.1,46.7v1.6c0,23.3,18.9,42.2,42.2,42.2h42.6
		c23.3,0,42.2-18.9,42.2-42.2v-1.6c0-20.6,13.3-39.4,33.1-46.7c6.8-2.5,13.6-5.3,20.2-8.4c19.2-8.8,41.9-5,56.4,9.6l1.1,1.1
		c16.5,16.5,43.2,16.5,59.7,0l30.1-30.1c16.4-16.5,16.4-43.2,0-59.7l-1.1-1.1c-14.8-14.8-18.5-36.9-9.6-56.4
		c3-6.6,5.9-13.4,8.4-20.2c7.3-19.8,26-33.1,46.7-33.1h1.6c23.3,0,42.2-18.9,42.2-42.2v-42.6c0-23.3-18.9-42.2-42.2-42.2h-1.6
		c-20.6,0-39.4-13.3-46.7-33.1c-2.5-6.8-5.3-13.6-8.4-20.2c-9-19.5-5.2-41.6,9.6-56.4l1.1-1.1c16.5-16.5,16.5-43.2,0-59.7
		l-30.1-30.1c-16.5-16.5-43.2-16.5-59.7,0l-1.1,1.1c-14.6,14.6-37.2,18.4-56.4,9.6c-6.6-3-13.4-5.8-20.2-8.4
		c-19.8-7.3-33.1-26-33.1-46.7v-1.6c0-23.3-18.9-42.2-42.2-42.2h-42.6c-23.3,0-42.2,18.9-42.2,42.2v1.6c0,20.6-13.3,39.4-33.1,46.7
		c-6.8,2.5-13.7,5.3-20.2,8.4c-19.5,9-41.6,5.2-56.4-9.6l-1.1-1.1c-16.4-16.4-43.2-16.4-59.7,0l-30.1,30.1
		c-16.4,16.5-16.4,43.2,0,59.7l1.1,1.1c14.8,14.8,18.5,36.9,9.6,56.4c-3,6.6-5.9,13.4-8.4,20.2c-7.3,19.8-26,33.1-46.7,33.1h-1.6
		c-23.3,0-42.2,18.9-42.2,42.2v42.6c0,23.3,18.9,42.2,42.2,42.2h1.6c20.6,0,39.4,13.3,46.7,33.1c2.5,6.8,5.3,13.6,8.4,20.2
		c9,19.5,5.2,41.6-9.6,56.4l-1.1,1.1c-16.4,16.5-16.4,43.2,0,59.7l30.1,30.1c16.5,16.5,43.2,16.5,59.7,0l1.1-1.1
		C2591.8,1769.8,2604.3,1764.8,2617.1,1764.8z"/>
	<path class="st12" d="M2755.7,1704.8c-104.1,0-188.7-84.7-188.7-188.7c0-104.1,84.7-188.7,188.7-188.7s188.7,84.7,188.7,188.7
		C2944.4,1620.2,2859.7,1704.8,2755.7,1704.8z M2755.7,1334.7c-100.1,0-181.5,81.4-181.5,181.5s81.4,181.5,181.5,181.5
		s181.5-81.4,181.5-181.5S2855.7,1334.7,2755.7,1334.7z"/>
</g>
<g>
	<path class="st13" d="M1856.9,2182.3h-20.1c-13.9,0-25.2-11.3-25.2-25.2v-0.8c0-7.6-4.8-14.3-12.1-17c-3.4-1.2-6.7-2.6-9.9-4.1
		c-7.1-3.3-15.2-1.9-20.6,3.4l-0.5,0.5c-9.8,9.8-25.9,9.8-35.7,0l-14.2-14.2c-9.8-9.8-9.8-25.9,0-35.7l0.5-0.5
		c5.4-5.4,6.7-13.5,3.4-20.6c-1.5-3.2-2.9-6.6-4.1-9.9c-2.7-7.4-9.4-12.1-17-12.1h-0.8c-13.9,0-25.2-11.3-25.2-25.2v-20.1
		c0-13.9,11.3-25.2,25.2-25.2h0.8c7.6,0,14.3-4.8,17-12.1c1.2-3.4,2.6-6.7,4.1-9.9c3.3-7.1,1.9-15.2-3.4-20.6l-0.5-0.5
		c-9.8-9.8-9.8-25.9,0-35.7l14.2-14.2c9.8-9.8,25.9-9.8,35.7,0l0.5,0.5c5.4,5.4,13.5,6.7,20.6,3.4c3.2-1.5,6.6-2.9,9.9-4.1
		c7.4-2.7,12.1-9.4,12.1-17v-0.8c0-13.9,11.3-25.2,25.2-25.2h20.1c13.9,0,25.2,11.3,25.2,25.2v0.8c0,7.6,4.8,14.3,12.1,17
		c3.4,1.2,6.7,2.6,9.9,4.1c7.1,3.3,15.2,1.9,20.6-3.4l0.5-0.5c9.8-9.8,25.9-9.8,35.7,0l14.2,14.2c9.8,9.8,9.8,25.9,0,35.7l-0.5,0.5
		c-5.4,5.4-6.7,13.5-3.4,20.6c1.5,3.2,2.9,6.6,4.1,9.9c2.7,7.4,9.4,12.1,17,12.1h0.8c13.9,0,25.2,11.3,25.2,25.2v20.1
		c0,13.9-11.3,25.2-25.2,25.2h-0.8c-7.6,0-14.3,4.8-17,12.1c-1.2,3.4-2.6,6.7-4.1,9.9c-3.3,7.1-1.9,15.2,3.4,20.6l0.5,0.5
		c9.8,9.8,9.8,25.8,0,35.7l-14.2,14.2c-9.8,9.8-25.9,9.8-35.7,0l-0.5-0.5c-5.4-5.4-13.5-6.7-20.6-3.4c-3.2,1.5-6.6,2.9-9.9,4.1
		c-7.4,2.7-12.1,9.4-12.1,17v0.8C1882.1,2171,1870.8,2182.3,1856.9,2182.3z M1781.6,2126.2c3.7,0,7.4,0.8,10.9,2.4
		c3.1,1.4,6.2,2.7,9.4,3.9c10.1,3.7,16.9,13.3,16.9,23.8v0.8c0,9.9,8.1,18,18,18h20.1c9.9,0,18-8.1,18-18v-0.8
		c0-10.5,6.8-20.1,16.9-23.8c3.2-1.2,6.3-2.5,9.4-3.9c9.8-4.5,21.3-2.5,28.8,4.9l0.5,0.5c7,7,18.4,7,25.4,0l14.2-14.2
		c7-7,7-18.4,0-25.4l-0.5-0.5c-7.4-7.4-9.4-19-4.9-28.8c1.4-3.1,2.7-6.2,3.9-9.4c3.7-10.1,13.3-16.9,23.8-16.9h0.8
		c9.9,0,18-8.1,18-18v-20.1c0-9.9-8.1-18-18-18h-0.8c-10.5,0-20.1-6.8-23.8-16.9c-1.2-3.2-2.5-6.3-3.9-9.4
		c-4.5-9.8-2.5-21.3,4.9-28.8l0.5-0.5c7-7,7-18.4,0-25.4l-14.2-14.2c-7-7-18.4-7-25.4,0l-0.5,0.5c-7.4,7.4-19,9.4-28.8,4.9
		c-3.1-1.4-6.2-2.7-9.4-3.9c-10.1-3.7-16.9-13.3-16.9-23.8v-0.8c0-9.9-8.1-18-18-18h-20.1c-9.9,0-18,8.1-18,18v0.8
		c0,10.5-6.8,20.1-16.9,23.8c-3.2,1.2-6.3,2.5-9.4,3.9c-9.8,4.5-21.3,2.5-28.8-4.9l-0.5-0.5c-7-7-18.4-7-25.4,0l-14.2,14.2
		c-7,7-7,18.4,0,25.4l0.5,0.5c7.4,7.4,9.4,19,4.9,28.8c-1.4,3.1-2.7,6.2-3.9,9.4c-3.7,10.1-13.3,16.9-23.8,16.9h-0.8
		c-9.9,0-18,8.1-18,18v20.1c0,9.9,8.1,18,18,18h0.8c10.5,0,20.1,6.8,23.8,16.9c1.2,3.2,2.5,6.3,3.9,9.4c4.5,9.8,2.5,21.3-4.9,28.8
		l-0.5,0.5c-7,7-7,18.4,0,25.4l14.2,14.2c7,7,18.4,7,25.4,0l0.5-0.5C1768.5,2128.7,1775,2126.2,1781.6,2126.2z"/>
	<path class="st13" d="M1846.8,2101.7c-50.1,0-90.9-40.8-90.9-90.9s40.8-90.9,90.9-90.9c50.1,0,90.9,40.8,90.9,90.9
		S1897,2101.7,1846.8,2101.7z M1846.8,1927.1c-46.1,0-83.7,37.5-83.7,83.7c0,46.1,37.5,83.7,83.7,83.7s83.7-37.5,83.7-83.7
		C1930.5,1964.6,1893,1927.1,1846.8,1927.1z"/>
	<path class="st13" d="M1609,1962.5c-0.8,0-1.6-0.1-2.5-0.2l-14-1.9c-10.3-1.4-17.5-10.8-16.2-21.1c0.7-5.4-1.8-10-6.2-12.4
		c-2.3-1.2-4.5-2.5-6.6-3.8c-4.3-2.7-9.5-2.5-13.4,0.4c-8.6,6.6-20.4,5-26.7-3.2l-8.6-11.2c-6.3-8.2-4.7-20,3.5-26.3
		c4.3-3.3,5.8-8.3,4.3-13.1c-0.7-2.4-1.4-4.9-2-7.4c-1.1-4.9-4.9-8.5-9.8-9.2c-10.8-1.4-18-10.9-16.7-21.2l1.9-14
		c1.4-10.3,10.8-17.5,21.1-16.2c5.4,0.7,10-1.8,12.4-6.2c1.2-2.3,2.5-4.5,3.8-6.6c2.7-4.3,2.5-9.5-0.4-13.4c-3.4-4.4-4.7-9.3-4-14.3
		c0.7-5,3.2-9.4,7.2-12.4l11.2-8.6c8.2-6.3,20-4.7,26.3,3.5c3.3,4.3,8.3,5.8,13.1,4.3c2.4-0.7,4.9-1.4,7.4-2
		c4.9-1.1,8.5-4.9,9.2-9.8c1.4-10.8,10.9-18,21.2-16.7l14,1.9c10.3,1.4,17.5,10.8,16.2,21.1c-0.7,5.4,1.8,10,6.2,12.4
		c2.3,1.2,4.5,2.5,6.6,3.8c4.3,2.7,9.5,2.5,13.4-0.4c8.6-6.6,20.4-5,26.7,3.2l8.6,11.2c6.3,8.2,4.7,20-3.5,26.3
		c-4.3,3.3-5.8,8.3-4.3,13.1c0.7,2.4,1.4,4.9,2,7.4c1.1,4.9,4.9,8.5,9.8,9.2c10.8,1.4,18,10.9,16.7,21.2l-1.9,14
		c-1.4,10.3-10.8,17.5-21.1,16.2c-5.4-0.7-10,1.8-12.4,6.2c-1.2,2.3-2.5,4.5-3.8,6.6c-2.7,4.3-2.5,9.5,0.4,13.4
		c6.6,8.6,5,20.4-3.2,26.7l-11.2,8.6c-4,3.1-8.9,4.4-13.9,3.7c-5-0.7-9.4-3.2-12.4-7.2c-3.3-4.3-8.3-5.8-13.1-4.3
		c-2.4,0.7-4.9,1.4-7.4,2c-4.9,1.1-8.5,4.9-9.2,9.8C1626.3,1955.6,1618.2,1962.5,1609,1962.5z M1557.2,1914.1c3.6,0,7.1,1,10.2,3
		c2,1.3,4,2.4,6.1,3.5c7.1,3.7,11.1,11.4,10.1,19.2c-0.9,6.8,3.5,12.6,9.8,13.5l14,1.9c6.3,0.8,12.1-3.6,12.9-9.9
		c1.1-8.3,7-14.7,14.8-16.4c2.3-0.5,4.6-1.1,6.8-1.8c7.6-2.4,16,0.2,20.7,6.4c2.2,2.9,4.9,4.4,8,4.8c3.1,0.4,6.1-0.4,8.5-2.3
		l11.2-8.6c5-3.9,6-11.1,2.1-16.2c-5.1-6.6-5.4-15.3-1.1-22.1c1.3-2,2.4-4,3.5-6.1c3.7-7.1,11.4-11.1,19.2-10.1
		c3.6,0.5,6.6-0.3,9-2.2c2.4-1.9,4-4.6,4.4-7.6l1.9-14c0.8-6.3-3.6-12.1-9.9-12.9c-8.3-1.1-14.7-7-16.4-14.8
		c-0.5-2.3-1.1-4.6-1.8-6.8c-2.4-7.6,0.2-16,6.4-20.7c5.5-4.2,6.4-11.4,2.6-16.5l-8.6-11.2c-3.9-5-11.1-6-16.2-2.1
		c-6.6,5.1-15.3,5.4-22.1,1.1c-2-1.3-4-2.4-6.1-3.5c-7.1-3.7-11.1-11.4-10.1-19.2c0.9-6.8-3.5-12.6-9.8-13.5l-14-1.9
		c-6.3-0.8-12.1,3.6-12.9,9.9c-1.1,8.3-7,14.7-14.8,16.4c-2.3,0.5-4.6,1.1-6.8,1.8c-7.6,2.4-16-0.2-20.7-6.4
		c-4.2-5.5-11.4-6.4-16.5-2.6l-11.2,8.6c-2.4,1.9-4,4.6-4.4,7.6c-0.4,3.1,0.4,6.1,2.3,8.5c5.1,6.6,5.4,15.3,1.1,22.1
		c-1.3,2-2.4,4-3.5,6.1c-3.7,7.1-11.4,11.1-19.2,10.1c-6.8-0.9-12.6,3.5-13.5,9.8l-1.9,14c-0.8,6.3,3.6,12.1,9.9,12.9
		c8.3,1.1,14.7,7,16.4,14.8c0.5,2.3,1.1,4.6,1.8,6.8c2.4,7.6-0.2,16-6.4,20.7c-5.5,4.2-6.4,11.4-2.6,16.5l8.6,11.2
		c1.9,2.4,4.6,4,7.6,4.4c3.1,0.4,6.1-0.4,8.5-2.3C1548.9,1915.5,1553.1,1914.1,1557.2,1914.1z"/>
	<path class="st13" d="M1615.6,1906c-2.9,0-5.8-0.2-8.7-0.6c-35.4-4.7-60.5-37.4-55.8-72.8c2.3-17.2,11.1-32.4,24.9-43
		c13.8-10.5,30.8-15.1,47.9-12.8c17.2,2.3,32.4,11.1,43,24.9c10.5,13.8,15.1,30.8,12.8,47.9l0,0c-2.3,17.2-11.1,32.4-24.9,43
		C1643.5,1901.3,1629.8,1906,1615.6,1906z M1615.3,1783.5c-12.6,0-24.7,4.1-34.9,11.9c-12.2,9.4-20.1,22.9-22.1,38.2
		c-4.2,31.5,18,60.5,49.5,64.7c15.2,2,30.4-2,42.6-11.4c12.2-9.4,20.1-22.9,22.1-38.2l0,0c2-15.2-2-30.4-11.4-42.6
		c-9.4-12.2-22.9-20.1-38.2-22.1C1620.5,1783.7,1617.9,1783.5,1615.3,1783.5z"/>
</g>
<ellipse class="st14" cx="2642.6" cy="3233" rx="570.5" ry="107.3"/>
<polygon class="st15" points="2497.3,3223 2572.1,3277.9 2598.7,3203.9 2514.4,3188.1 "/>
<rect x="785.8" y="2113" class="st16" width="693.6" height="461.6"/>
<polygon class="st17" points="800.8,2156.1 1431.1,2156.1 1431.1,2581.9 1487.7,2581.9 1479.4,2113 800.8,2113 "/>
<path class="st18" d="M2615.2,3008.4"/>
<g>
	<path class="st18" d="M2367,3130.2c10.1,7.7,81.4,19.7,92,23.9c91.7,36.2,261.5,36.9,406.8,28.7l-231.4-177.2
		C2454,3033.2,2238.7,3031.8,2367,3130.2z"/>
	<path class="st19" d="M2789.4,2963.3c-38.3,20.6-94.7,33-155,42.3l231.4,177.2c142-8,260.7-24.4,260.7-24.4
		C3012.3,3003.2,2789.4,2963.3,2789.4,2963.3z"/>
</g>
<path class="st14" d="M1477.6,1299.4h-249.4c-45,0-81.5,36.5-81.5,81.5v133.8c0,45,36.5,81.5,81.5,81.5h172
	c2.9,26.3,15.1,77.1,65.7,98.8c0,0-16.8-55.8-11.2-98.8h23c45,0,81.5-36.5,81.5-81.5v-133.8
	C1559.1,1335.9,1522.6,1299.4,1477.6,1299.4z"/>
<g>
	<path class="st20" d="M2274.2,3275.5l-0.9-75.4c0,0,99.6-33.4,115.8-22.2c0,0-35.9,16.9-19.8,38.2c16.1,21.3,42.8,7.7,42.8,7.7
		S2339.9,3277.6,2274.2,3275.5z"/>
	<path class="st20" d="M2256.1,3278.2c-11.9,0-23.1-3.4-32.1-9.8l0,0c-8.2-5.8-12.4-12.5-12.5-19.7c-0.1-9.3,6.7-19.3,20.3-29.6
		c14.5-11,32-18.9,50.6-22.9c2.1-0.4,4.2-0.9,6.5-1.3l1.9-0.3l9.4,76.2l-1.5,0.4c-0.1,0-14,3.8-34.4,6.4
		C2261.4,3278,2258.7,3278.2,2256.1,3278.2z M2226.1,3265.5c10.3,7.3,23.7,10.4,37.6,8.6c16.3-2,28.3-4.9,32.4-5.9l-8.5-69.3
		c-1.5,0.3-3,0.6-4.5,0.9c-18.1,3.9-35.1,11.5-49.1,22.2c-12.6,9.6-19,18.6-18.8,26.6C2215.2,3254.7,2218.9,3260.3,2226.1,3265.5
		L2226.1,3265.5z"/>
</g>
<path class="st21" d="M2915.8,3068.6c0,0,234,14.4,212.9,124.2c-21.1,109.8-593.2,0-593.2,0l-34.4-27.7
	C2501.1,3165.1,2822.7,3049.8,2915.8,3068.6z"/>
<path class="st21" d="M2225,3018.7c0,0-218.7,30.9-128.6,113.1c125.6,114.5,418,109.8,418,109.8l21.1-48.8c0,0-108.7-102-224-129.7
	C2196.2,3035.4,2225,3018.7,2225,3018.7z"/>
<path class="st20" d="M2686.2,3252.1l-48.4,64.9c0,0-97.3-44.5-102.3-65.9c0,0,38.3,11.9,39.9-18.1c1.7-29.9-27.4-37.9-27.4-37.9
	S2637.8,3202.2,2686.2,3252.1z"/>
<path class="st20" d="M2692,3328.4c-2.2,0-4.4-0.1-6.8-0.2c-20.1-1.2-40.5-7.1-59.1-17c-2.1-1.1-4.2-2.3-6.4-3.5l-1.7-1l47.1-69.3
	l1.4,0.6c0.1,0.1,14.5,6.8,33.6,19.1c13.9,9,23.5,21.8,27.1,36.1l0,0c2.6,10.5,1.5,18.8-3.5,24.8
	C2718,3324.9,2707.4,3328.4,2692,3328.4z M2623.3,3305.5c1.6,0.9,3.1,1.7,4.6,2.5c18.1,9.7,38,15.4,57.6,16.5
	c17.8,1.1,29.8-1.9,35.5-8.9c4.2-5.1,5.1-12.3,2.8-21.6l0,0c-3.4-13.4-12.5-25.4-25.5-33.9c-15.4-10-27.7-16.2-31.7-18.2
	L2623.3,3305.5z"/>
<g>
	<g>
		<path class="st22" d="M3558.3,1248h-203.5c-19.2,0-34.7,15.5-34.7,34.7v437.3c0,19.2,15.5,34.7,34.7,34.7h203.5
			c19.2,0,34.7-15.5,34.7-34.7v-437.3C3593,1263.5,3577.4,1248,3558.3,1248z"/>
		<path class="st16" d="M3450.1,1735.2c-11.6,0-21-9.4-21-21c0-11.6,9.4-21,21-21c11.6,0,21,9.4,21,21
			C3471.1,1725.7,3461.7,1735.2,3450.1,1735.2z"/>
		<g>
			<path class="st23" d="M3481.6,1268.1h-48.4c-1.3,0-2.3,1-2.3,2.3s1,2.3,2.3,2.3h48.4c1.3,0,2.3-1,2.3-2.3
				S3482.8,1268.1,3481.6,1268.1z"/>
			<path class="st23" d="M3422,1273.4c-0.8,0-1.6-0.3-2.1-0.9c-0.1-0.2-0.3-0.3-0.4-0.5c-0.1-0.2-0.2-0.3-0.3-0.5
				c-0.1-0.2-0.1-0.4-0.2-0.6c0-0.2-0.1-0.4-0.1-0.6c0-0.2,0-0.4,0.1-0.6c0-0.2,0.1-0.4,0.2-0.6c0.1-0.2,0.2-0.4,0.3-0.5
				c0.1-0.2,0.2-0.3,0.4-0.5c0.1-0.1,0.3-0.3,0.5-0.4c0.2-0.1,0.3-0.2,0.5-0.3c0.2-0.1,0.4-0.1,0.6-0.2c0.4-0.1,0.8-0.1,1.2,0
				c0.2,0,0.4,0.1,0.6,0.2c0.2,0.1,0.3,0.2,0.5,0.3c0.2,0.1,0.3,0.2,0.5,0.4c0.1,0.1,0.3,0.3,0.4,0.5c0.1,0.2,0.2,0.3,0.3,0.5
				c0.1,0.2,0.1,0.4,0.2,0.6c0,0.2,0.1,0.4,0.1,0.6c0,0.2,0,0.4,0,0.6c0,0.2-0.1,0.4-0.2,0.6c-0.1,0.2-0.2,0.4-0.3,0.5
				c-0.1,0.2-0.2,0.3-0.4,0.5c-0.2,0.1-0.3,0.3-0.5,0.4c-0.2,0.1-0.3,0.2-0.5,0.3c-0.2,0.1-0.4,0.1-0.6,0.2
				C3422.5,1273.4,3422.2,1273.4,3422,1273.4z"/>
		</g>
		<rect x="3340.3" y="1292.4" class="st16" width="229.6" height="381.5"/>
		<rect x="3340.3" y="1292.4" class="st23" width="229.6" height="38.8"/>
		<g>
			<path class="st24" d="M3369.7,1312c0,3.7-3,6.8-6.8,6.8c-3.7,0-6.8-3-6.8-6.8c0-3.7,3-6.8,6.8-6.8
				C3366.7,1305.3,3369.7,1308.3,3369.7,1312z"/>
			<path class="st25" d="M3391.4,1312c0,3.7-3,6.8-6.8,6.8s-6.8-3-6.8-6.8c0-3.7,3-6.8,6.8-6.8S3391.4,1308.3,3391.4,1312z"/>
			<path class="st24" d="M3413,1312c0,3.7-3,6.8-6.8,6.8s-6.8-3-6.8-6.8c0-3.7,3-6.8,6.8-6.8S3413,1308.3,3413,1312z"/>
		</g>
	</g>
	<g>
		<g>
			<rect x="3514.8" y="1414.7" class="st17" width="34.5" height="101.4"/>
			<rect x="3359.8" y="1360" class="st17" width="189.5" height="34.4"/>
			<rect x="3361.4" y="1414.7" class="st17" width="146.5" height="16.5"/>
			<rect x="3361.4" y="1457.2" class="st17" width="146.5" height="16.5"/>
			<rect x="3361.4" y="1499.7" class="st17" width="146.5" height="16.5"/>
			<rect x="3361.4" y="1542.1" class="st17" width="188.7" height="16.5"/>
			<rect x="3361.4" y="1584.6" class="st17" width="188.7" height="16.5"/>
		</g>
	</g>
</g>
<path class="st26" d="M1458,2129.1V2543H819.3v-413.9H1458L1458,2129.1 M1458,2047.6H819.3c-45,0-81.5,36.5-81.5,81.5V2543
	c0,45,36.5,81.5,81.5,81.5H1458c45,0,81.5-36.5,81.5-81.5v-413.9C1539.4,2084.1,1503,2047.6,1458,2047.6L1458,2047.6z"/>
<rect x="1013.4" y="2624.5" class="st27" width="270.7" height="61.6"/>
<path class="st26" d="M1368.4,2722.7h-443l0,0c0-20.2,16.4-36.6,36.6-36.6h369.8C1352,2686.1,1368.4,2702.5,1368.4,2722.7
	L1368.4,2722.7z"/>
<g>
	<path class="st26" d="M1434.1,1270.4h-249.4c-45,0-81.5,36.5-81.5,81.5v133.8c0,45,36.5,81.5,81.5,81.5h172
		c2.9,26.3,15.1,77.1,65.7,98.8c0,0-16.8-55.8-11.2-98.8h23c45,0,81.5-36.5,81.5-81.5v-133.8
		C1515.5,1306.9,1479.1,1270.4,1434.1,1270.4z"/>
</g>
<g>
	<path class="st16" d="M3393.6,2272.8l-114.7-2.6c0,0-72.9-29.8-25.8-79.8c39.9-42.4,81.5,5,81.5,5s-23.3-113.1,54.9-118.1
		c78.2-5,82.3,57.7,82.3,57.7s50.7-61,85.7,13.8c0,0,127.2-14.1,79.8,98.1c0,0-10.8,41.6-126.4,25.8v-64.9h-118.2L3393.6,2272.8z"/>
	<path class="st22" d="M3364.6,2280.1l-114.7-2.6c0,0-72.9-29.8-25.8-79.8c39.9-42.4,81.5,5,81.5,5s-23.3-113.1,54.9-118.1
		c78.2-5,82.3,57.7,82.3,57.7s50.7-61,85.7,13.8c0,0,127.2-14.1,79.8,98.1c0,0-10.8,41.6-126.4,25.8v-64.9h-118.2L3364.6,2280.1z"/>
	<polygon class="st28" points="3459.4,2308.3 3459.4,2226.8 3386.2,2226.8 3386.2,2308.3 3365.5,2308.3 3427,2364.8 3483.5,2308.3 	
		"/>
</g>
<g>
	<g>
		<g>
			<path class="st28" d="M1393.6,2906.1c0-21.4-8.9-40.7-23.3-54.4c-13.7-14.3-33-23.2-54.4-23.2c-41.7,0-75.4,33.8-75.4,75.5
				c0,17.1,5.7,32.9,15.3,45.5h0l60.2,81.1l0.3-0.4l1.9,2.6l60.2-81.1h0C1387.9,2939,1393.6,2923.2,1393.6,2906.1z M1317,2955.7
				c-28.4,0-51.3-22.5-51.3-50.3c0-27.8,23-50.3,51.3-50.3c28.4,0,51.3,22.5,51.3,50.3C1368.4,2933.2,1345.4,2955.7,1317,2955.7z"/>
			<path class="st28" d="M1317,2855c-28.4,0-51.3,22.5-51.3,50.3c0,27.8,23,50.3,51.3,50.3c28.4,0,51.3-22.5,51.3-50.3
				C1368.4,2877.6,1345.4,2855,1317,2855z M1317,2943c-21.4,0-38.7-17.3-38.7-38.7c0-21.4,17.3-38.7,38.7-38.7
				c21.4,0,38.7,17.3,38.7,38.7C1355.7,2925.7,1338.4,2943,1317,2943z"/>
			<path class="st28" d="M1317,2855c-28.4,0-51.3,22.5-51.3,50.3c0,27.8,23,50.3,51.3,50.3c28.4,0,51.3-22.5,51.3-50.3
				C1368.4,2877.6,1345.4,2855,1317,2855z M1317,2943c-21.4,0-38.7-17.3-38.7-38.7c0-21.4,17.3-38.7,38.7-38.7
				c21.4,0,38.7,17.3,38.7,38.7C1355.7,2925.7,1338.4,2943,1317,2943z"/>
		</g>
		<path class="st29" d="M1317,2855c-28.4,0-51.3,22.5-51.3,50.3c0,27.8,23,50.3,51.3,50.3c28.4,0,51.3-22.5,51.3-50.3
			C1368.4,2877.6,1345.4,2855,1317,2855z M1317,2943c-21.4,0-38.7-17.3-38.7-38.7c0-21.4,17.3-38.7,38.7-38.7
			c21.4,0,38.7,17.3,38.7,38.7C1355.7,2925.7,1338.4,2943,1317,2943z"/>
	</g>
</g>
<g class="st30">
	<g>
		<path class="st26" d="M2172,2776.5h-3.6v-4.2h3.6V2776.5z M2172,2743.2h-3.6v-29h3.6V2743.2z M2172,2685.2h-3.6v-29h3.6V2685.2z
			 M2172,2627.1h-3.6v-29h3.6V2627.1z M2172,2569.1h-3.6v-29h3.6V2569.1z M2172,2511.1h-3.6v-29h3.6V2511.1z M2172,2453.1h-3.6v-29
			h3.6V2453.1z M2172,2395h-3.6v-29h3.6V2395z M2172,2337h-3.6v-29h3.6V2337z M2172,2279h-3.6v-29h3.6V2279z M2172,2220.9h-3.6v-29
			h3.6V2220.9z M2172,2162.9h-3.6v-29h3.6V2162.9z M2172,2104.9h-3.6v-29h3.6V2104.9z M2172,2046.9h-3.6v-29h3.6V2046.9z
			 M2172,1988.8h-3.6v-29h3.6V1988.8z M2172,1930.8h-3.6v-29h3.6V1930.8z M2172,1872.8h-3.6v-29h3.6V1872.8z M2172,1814.8h-3.6v-29
			h3.6V1814.8z M2172,1756.7h-3.6v-29h3.6V1756.7z M2172,1698.7h-3.6v-29h3.6V1698.7z M2172,1640.7h-3.6v-29h3.6V1640.7z
			 M2172,1582.6h-3.6v-29h3.6V1582.6z M2172,1524.6h-3.6v-29h3.6V1524.6z M2172,1466.6h-3.6V1446h-4.8v-3.6h6.7c1,0,1.8,0.8,1.8,1.8
			V1466.6z M2134.5,1446h-29v-3.6h29V1446z M2076.5,1446h-29v-3.6h29V1446z M2018.5,1446h-29v-3.6h29V1446z M1960.5,1446h-29v-3.6
			h29V1446z M1902.4,1446h-29v-3.6h29V1446z M1844.4,1446h-29v-3.6h29V1446z M1786.4,1446h-29v-3.6h29V1446z M1728.3,1446h-29v-3.6
			h29V1446z M1670.3,1446h-29v-3.6h29V1446z"/>
		<path class="st26" d="M2098.2,2761.3h-3.6v-29h3.6V2761.3z M2098.2,2703.3h-3.6v-29h3.6V2703.3z M2098.2,2645.3h-3.6v-29h3.6
			V2645.3z M2098.2,2587.2h-3.6v-29h3.6V2587.2z M2098.2,2529.2h-3.6v-29h3.6V2529.2z M2098.2,2471.2h-3.6v-29h3.6V2471.2z
			 M2098.2,2413.1h-3.6v-29h3.6V2413.1z M2069.3,2384.1h-29v-3.6h29V2384.1z M2011.2,2384.1h-29v-3.6h29V2384.1z M1953.2,2384.1h-29
			v-3.6h29V2384.1z M1895.2,2384.1h-29v-3.6h29V2384.1z M1837.1,2384.1h-29v-3.6h29V2384.1z M1779.1,2384.1h-29v-3.6h29V2384.1z
			 M1721.1,2384.1h-29v-3.6h29V2384.1z M1663.1,2384.1h-29v-3.6h29V2384.1z"/>
		<path class="st26" d="M2257.2,2761.5h-3.6v-29h3.6V2761.5z M2257.2,2703.5h-3.6v-29h3.6V2703.5z M2257.2,2645.4h-3.6v-29h3.6
			V2645.4z M2257.2,2587.4h-3.6v-29h3.6V2587.4z M2257.2,2529.4h-3.6v-29h3.6V2529.4z M2257.2,2471.4h-3.6v-29h3.6V2471.4z
			 M2257.2,2413.3h-3.6v-29h3.6V2413.3z M2257.2,2355.3h-3.6v-29h3.6V2355.3z M2257.2,2297.3h-3.6v-29h3.6V2297.3z M2257.2,2239.2
			h-3.6v-29h3.6V2239.2z M2257.2,2181.2h-3.6v-29h3.6V2181.2z M2257.2,2123.2h-3.6v-29h3.6V2123.2z M2257.2,2065.2h-3.6v-29h3.6
			V2065.2z M2257.2,2007.1h-3.6v-29h3.6V2007.1z M2257.2,1949.1h-3.6v-29h3.6V1949.1z M2257.2,1891.1h-3.6v-29h3.6V1891.1z
			 M2257.2,1833h-3.6v-29h3.6V1833z M2257.2,1775h-3.6v-29h3.6V1775z M2257.2,1717h-3.6v-29h3.6V1717z M3270.6,1667.8h-21.7v-3.6
			h21.7V1667.8z M3219.9,1667.8h-29v-3.6h29V1667.8z M3161.9,1667.8h-29v-3.6h29V1667.8z M3103.8,1667.8h-29v-3.6h29V1667.8z
			 M3045.8,1667.8h-29v-3.6h29V1667.8z M2987.8,1667.8h-29v-3.6h29V1667.8z M2929.8,1667.8h-29v-3.6h29V1667.8z M2871.7,1667.8h-29
			v-3.6h29V1667.8z M2813.7,1667.8h-29v-3.6h29V1667.8z M2755.7,1667.8h-29v-3.6h29V1667.8z M2697.6,1667.8h-29v-3.6h29V1667.8z
			 M2639.6,1667.8h-29v-3.6h29V1667.8z M2581.6,1667.8h-29v-3.6h29V1667.8z M2523.6,1667.8h-29v-3.6h29V1667.8z M2465.5,1667.8h-29
			v-3.6h29V1667.8z M2407.5,1667.8h-29v-3.6h29V1667.8z M2349.5,1667.8h-29v-3.6h29V1667.8z M2291.4,1667.8h-29v-3.6h29V1667.8z"/>
		<path class="st26" d="M3425.1,3008.3h-21.6v-3.6h19.8v-5.6h3.6v7.4C3426.9,3007.5,3426.1,3008.3,3425.1,3008.3z M3374.4,3008.3
			h-29v-3.6h29V3008.3z M3316.4,3008.3h-29v-3.6h29V3008.3z M3258.4,3008.3h-29v-3.6h29V3008.3z M3200.4,3008.3h-29v-3.6h29V3008.3z
			 M3142.3,3008.3h-29v-3.6h29V3008.3z M3084.3,3008.3h-29v-3.6h29V3008.3z M3026.3,3008.3h-29v-3.6h29V3008.3z M2968.2,3008.3
			h-16.9v-3.6h16.9V3008.3z M3426.9,2970.1h-3.6v-29h3.6V2970.1z M3426.9,2912.1h-3.6v-29h3.6V2912.1z M3426.9,2854.1h-3.6v-29h3.6
			V2854.1z M3426.9,2796h-3.6v-29h3.6V2796z M3426.9,2738h-3.6v-29h3.6V2738z M3426.9,2680h-3.6v-29h3.6V2680z M3426.9,2622h-3.6
			v-29h3.6V2622z M3426.9,2563.9h-3.6v-29h3.6V2563.9z M3426.9,2505.9h-3.6v-29h3.6V2505.9z M3426.9,2447.9h-3.6v-29h3.6V2447.9z"/>
		<path class="st26" d="M3130.1,2944.9l-0.2-1.8h-1.6v-28.7h3.6v28.7C3131.9,2944.1,3131.1,2944.9,3130.1,2944.9z M3100.7,2944.9
			h-29v-3.6h29V2944.9z M3042.7,2944.9h-29v-3.6h29V2944.9z M2984.7,2944.9h-29v-3.6h29V2944.9z M3131.9,2885.4h-3.6v-29h3.6V2885.4
			z M3131.9,2827.3h-3.6v-29h3.6V2827.3z M3131.9,2769.3h-3.6v-29h3.6V2769.3z M3131.9,2711.3h-3.6v-29h3.6V2711.3z M3131.9,2653.2
			h-3.6v-29h3.6V2653.2z M3131.9,2595.2h-3.6v-29h3.6V2595.2z M3131.9,2537.2h-3.6v-29h3.6V2537.2z M3131.9,2479.2h-3.6v-29h3.6
			V2479.2z M3131.9,2421.1h-3.6v-29h3.6V2421.1z M3131.9,2363.1h-3.6v-29h3.6V2363.1z M3131.9,2305.1h-3.6v-29h3.6V2305.1z
			 M3114.9,2264h-29v-3.6h29V2264z M3056.9,2264h-29v-3.6h29V2264z M2998.8,2264h-29v-3.6h29V2264z M2940.8,2264h-29v-3.6h29V2264z"
			/>
		<path class="st26" d="M2047.1,2944.8h-29v-3.6h29V2944.8z M1989.1,2944.8h-29v-3.6h29V2944.8z M1931,2944.8h-29v-3.6h29V2944.8z
			 M1873,2944.8h-29v-3.6h29V2944.8z M1815,2944.8h-29v-3.6h29V2944.8z M1756.9,2944.8h-29v-3.6h29V2944.8z M1698.9,2944.8h-29v-3.6
			h29V2944.8z M1640.9,2944.8h-29v-3.6h29V2944.8z M1582.9,2944.8h-29v-3.6h29V2944.8z M1524.8,2944.8h-29v-3.6h29V2944.8z
			 M1466.8,2944.8h-29v-3.6h29V2944.8z"/>
	</g>
	<path class="st26" d="M3759.6,3432.5h-0.6v-3.6h0.6V3432.5z M3730.1,3432.5h-29v-3.6h29V3432.5z M3672,3432.5h-29v-3.6h29V3432.5z
		 M3614,3432.5h-29v-3.6h29V3432.5z M3556,3432.5h-29v-3.6h29V3432.5z M3498,3432.5h-29v-3.6h29V3432.5z M3439.9,3432.5h-29v-3.6h29
		V3432.5z M3381.9,3432.5h-29v-3.6h29V3432.5z M3323.9,3432.5h-29v-3.6h29V3432.5z M3265.8,3432.5h-29v-3.6h29V3432.5z
		 M3207.8,3432.5h-29v-3.6h29V3432.5z M3149.8,3432.5h-29v-3.6h29V3432.5z M3091.8,3432.5h-29v-3.6h29V3432.5z M3033.7,3432.5h-29
		v-3.6h29V3432.5z M2975.7,3432.5h-29v-3.6h29V3432.5z M2917.7,3432.5h-29v-3.6h29V3432.5z M2859.7,3432.5h-29v-3.6h29V3432.5z
		 M2801.6,3432.5h-29v-3.6h29V3432.5z M2743.6,3432.5h-29v-3.6h29V3432.5z M2685.6,3432.5h-29v-3.6h29V3432.5z M2627.5,3432.5h-29
		v-3.6h29V3432.5z M2569.5,3432.5h-29v-3.6h29V3432.5z M2511.5,3432.5h-29v-3.6h29V3432.5z M2453.5,3432.5h-29v-3.6h29V3432.5z
		 M2395.4,3432.5h-29v-3.6h29V3432.5z M2337.4,3432.5h-29v-3.6h29V3432.5z M2279.4,3432.5h-29v-3.6h29V3432.5z M2221.3,3432.5h-29
		v-3.6h29V3432.5z M2163.3,3432.5h-29v-3.6h29V3432.5z M2105.3,3432.5h-29v-3.6h29V3432.5z M2047.3,3432.5h-29v-3.6h29V3432.5z
		 M1989.2,3432.5h-29v-3.6h29V3432.5z M1931.2,3432.5h-29v-3.6h29V3432.5z M1873.2,3432.5h-29v-3.6h29V3432.5z M1815.2,3432.5h-29
		v-3.6h29V3432.5z M1757.1,3432.5h-29v-3.6h29V3432.5z M1725.7,3405.9h-3.6v-29h3.6V3405.9z M1725.7,3347.9h-3.6v-29h3.6V3347.9z
		 M1725.7,3289.8h-3.6v-29h3.6V3289.8z M1725.7,3231.8h-3.6v-29h3.6V3231.8z M1725.7,3173.8h-3.6v-29h3.6V3173.8z M1725.7,3115.8
		h-3.6v-29h3.6V3115.8z M1725.7,3057.7h-3.6v-29h3.6V3057.7z M2049.9,3008.3h-29v-3.6h29V3008.3z M1991.8,3008.3h-29v-3.6h29V3008.3
		z M1933.8,3008.3h-29v-3.6h29V3008.3z M1875.8,3008.3h-29v-3.6h29V3008.3z M1817.7,3008.3h-29v-3.6h29V3008.3z M1759.7,3008.3h-29
		v-3.6h29V3008.3z"/>
</g>
<g>
	<path class="st22" d="M4092.3,2645.9c-7.4,18.5-28.4,27.5-46.9,20.1c-18.5-7.4-27.5-28.4-20.1-46.9c7.4-18.5,28.4-27.5,46.9-20.1
		C4090.6,2606.4,4099.6,2627.4,4092.3,2645.9z"/>
	<path class="st16" d="M4051.5,2650.1c-0.4,0-0.8-0.1-1.1-0.2c-1.1-0.3-1.9-1.1-2.4-2.1l-8.1-18c-0.9-1.9,0-4.2,1.9-5.1
		c1.9-0.9,4.2,0,5.1,1.9l6.3,14.1l23.4-14.5c1.8-1.1,4.2-0.6,5.3,1.2c1.1,1.8,0.6,4.2-1.2,5.3l-27.1,16.8
		C4052.9,2649.9,4052.2,2650.1,4051.5,2650.1z"/>
</g>
<g>
	<path class="st14" d="M1002,1495.8c7.8,18.3-0.6,39.5-18.9,47.4c-18.3,7.8-39.5-0.6-47.4-18.9c-7.8-18.3,0.6-39.5,18.9-47.4
		C972.9,1469,994.1,1477.4,1002,1495.8z"/>
	<path class="st16" d="M973.4,1528.7c-0.5,0-0.9-0.1-1.4-0.3l-18.5-7.1c-2-0.8-3-3-2.2-4.9c0.8-2,3-3,4.9-2.2l14.4,5.5l6.3-26.7
		c0.5-2.1,2.5-3.3,4.6-2.8c2.1,0.5,3.3,2.6,2.8,4.6l-7.3,31c-0.3,1.1-1,2-1.9,2.5C974.6,1528.5,974,1528.7,973.4,1528.7z"/>
</g>
<g>
	<g>
		<rect x="1122.2" y="2266.6" class="st17" width="51.4" height="101.4"/>
		<rect x="890.9" y="2211.9" class="st17" width="282.7" height="34.4"/>
		<rect x="893.2" y="2266.6" class="st17" width="218.6" height="16.5"/>
		<rect x="893.2" y="2309.1" class="st17" width="218.6" height="16.5"/>
		<rect x="893.2" y="2351.6" class="st17" width="218.6" height="16.5"/>
		<rect x="893.2" y="2394.1" class="st17" width="281.5" height="16.5"/>
		<rect x="893.2" y="2436.6" class="st17" width="281.5" height="16.5"/>
	</g>
</g>
<circle class="st26" cx="1634.7" cy="1443.6" r="13.5"/>
<circle class="st26" cx="2096.4" cy="2762.9" r="13.5"/>
<circle class="st26" cx="2170.2" cy="2764.2" r="13.5"/>
<circle class="st26" cx="2254.6" cy="2765" r="13.5"/>
<circle class="st16" cx="1214.9" cy="1421.8" r="29.7"/>
<circle class="st16" cx="1301.8" cy="1421.8" r="29.7"/>
<circle class="st16" cx="1388.7" cy="1421.8" r="29.7"/>
<circle class="st26" cx="1626.7" cy="2382.3" r="13.5"/>
<circle class="st26" cx="1434.4" cy="2942.2" r="13.5"/>
<circle class="st26" cx="2058" cy="2939.9" r="13.5"/>
<circle class="st26" cx="2058" cy="3006.5" r="13.5"/>
<circle class="st26" cx="2093" cy="2382.3" r="13.5"/>
<circle class="st26" cx="2170.2" cy="1444.2" r="13.5"/>
<circle class="st31" cx="2255.4" cy="1667.7" r="13.5"/>
<circle class="st26" cx="2909.3" cy="2262.2" r="13.5"/>
<circle class="st32" cx="3130.1" cy="2262.2" r="13.5"/>
<circle class="st26" cx="2961.5" cy="2943.1" r="13.5"/>
<circle class="st26" cx="2961.5" cy="3000.7" r="13.5"/>
<circle class="st33" cx="3124.2" cy="2941.1" r="13.5"/>
<circle class="st33" cx="3422.3" cy="3006.5" r="13.5"/>
<circle class="st33" cx="1725.9" cy="3427.7" r="13.5"/>
<circle class="st26" cx="3734.5" cy="3430.7" r="13.5"/>
<g>
	<path class="st21" d="M3963.1,3257.7c0-45.3-36.7-82-82-82c-45.3,0-82,36.7-82,82c0,35.4,22.4,65.4,53.8,76.9v39.1h58.7v-39.9
		C3941.7,3321.6,3963.1,3292.1,3963.1,3257.7z"/>
	<rect x="3841.1" y="3373.6" class="st23" width="78.9" height="33.6"/>
	<rect x="3841.1" y="3407.2" class="st14" width="78.9" height="29.6"/>
	<rect x="3852.9" y="3435.2" class="st18" width="54.2" height="18.2"/>
	<path class="st16" d="M3881.1,3193.1c0,0,76.4,27.7,39,108.4C3920.1,3301.6,3981.6,3207.4,3881.1,3193.1z"/>
</g>
<rect x="3978.6" y="3192.1" transform="matrix(0.8353 -0.5497 0.5497 0.8353 -1095.4797 2734.1553)" class="st23" width="75.7" height="7.3"/>
<rect x="4018.7" y="3222.6" transform="matrix(0.1836 -0.983 0.983 0.1836 78.7394 6615.5767)" class="st23" width="7.3" height="75.7"/>
<rect x="3743.6" y="3151" transform="matrix(0.5385 -0.8426 0.8426 0.5385 -957.6359 4629.1138)" class="st23" width="7.3" height="75.7"/>
<rect x="3706.4" y="3258.4" transform="matrix(0.9589 -0.2837 0.2837 0.9589 -771.5519 1196.1274)" class="st23" width="75.7" height="7.3"/>
<g>
	<polygon class="st34" points="2572.7,3016.1 2572.7,3016.1 2598.7,3073.1 	"/>
	<path class="st19" d="M2508.4,2141.7c-3.7-1.8-7.1-3.7-10.4-5.9c-1.2,22.2-1.8,69.7,10.9,107.8
		C2506.4,2221.6,2507.6,2168.3,2508.4,2141.7z"/>
	<path class="st35" d="M2712.9,2169.5c0.3,0.3,0.6,0.7,0.9,1C2713.5,2170.2,2713.2,2169.8,2712.9,2169.5z"/>
	<path class="st35" d="M2645.9,2138.7c26.6,2.2,45.6,11.9,59.1,23.3C2690.6,2149.7,2671.3,2140.7,2645.9,2138.7z"/>
	<path class="st35" d="M2642.5,2514.6c40.6-12.8,102.9-77.8,102.9-77.8l0,0c-2.6-29.3-3.3-69.1,6.3-99.9
		c-30.9-3.5-51.3-24.7-51.3-24.7c-20.4-50.9-1.6-80.1,15.4-94.8c1.2-49.3-66.7-77.1-70.8-78.7c-16.5-1.2-35.5,0.5-57.4,6.3
		c-34.1,9.1-59.8,6-79.2-3.2c-0.8,26.6-1.9,79.9,0.5,101.9c3.3,29.9-20,145.3,58.8,151.9c60.9,5.1,70,2.3,71.1,0.8
		c0.6,5.2,3.4,36.5-7.9,61.9c0.9,13.3,3.3,39.5,8.9,55.1L2642.5,2514.6z M2638.6,2395.6c0,0,37.1-6.7,60.4-20.5l-58.7,32.7
		L2638.6,2395.6z"/>
	<path class="st35" d="M2706.6,2163.4c1.3,1.2,2.6,2.4,3.8,3.6C2709.2,2165.8,2707.9,2164.6,2706.6,2163.4z"/>
	<path class="st21" d="M2788.4,2183.6c6.2,0.9,12.4,3.1,18.2,7.2c4.8-19.6,5.7-43.4-0.6-71.4c0,0-11-46.5-54.4-43.6
		C2778.3,2092.4,2786.1,2150,2788.4,2183.6z"/>
	<path class="st21" d="M2789.4,2205.3c4,1.3,7.6,2.9,10.8,4.7c1.6-3.5,3-7.3,4.2-11.2l-15.1,2.2
		C2789.4,2202.7,2789.4,2204.1,2789.4,2205.3z"/>
	<path class="st21" d="M2737.3,2078.5l14.4-2.6C2747.2,2076.2,2742.5,2077,2737.3,2078.5z"/>
	<path class="st21" d="M2587.6,2145c21.9-5.8,40.8-7.5,57.4-6.3c-0.1-0.1-0.2-0.1-0.2-0.1c0.4,0,0.8,0.1,1.2,0.1
		c25.3,2,44.7,11,59.1,23.3c0.5,0.5,1.1,0.9,1.6,1.4c1.3,1.2,2.6,2.4,3.8,3.6c0.8,0.8,1.7,1.7,2.5,2.5c0.3,0.3,0.6,0.7,0.9,1
		c10.4,11.3,16.2,22.9,18.9,29.7l0-0.1c0.2,0.4,15.8-11,34.9-15.3c-6.4-58.1-30.3-106.4-30.3-106.4s-13.3-58.8-76.5-51
		c-63.2,7.8-149.7,84.3-210.7,21.1c0,0,5.6,59.2,47.9,87.3c3.2,2.2,6.7,4.1,10.4,5.9C2527.8,2151,2553.5,2154.1,2587.6,2145z"/>
	<path class="st36" d="M2805.8,2198.6l1-7.8c0,0,0,0-0.1,0c-0.7,2.7-1.4,5.4-2.3,8L2805.8,2198.6z"/>
	<path class="st21" d="M2789.3,2201l15.1-2.2c0.8-2.6,1.6-5.2,2.3-8c-5.8-4.1-12-6.3-18.2-7.2
		C2788.9,2190.7,2789.2,2196.6,2789.3,2201z"/>
	<path class="st36" d="M2789.3,2201l15.1-2.2c0.8-2.6,1.6-5.2,2.3-8c-5.8-4.1-12-6.3-18.2-7.2
		C2788.9,2190.7,2789.2,2196.6,2789.3,2201z"/>
	<path class="st21" d="M2735.6,2204.9c12.8-2.9,23.9-3.8,33.4-3.3c-0.3-5.7-0.8-11.3-1.4-16.8c-19.1,4.4-34.7,15.8-34.9,15.3l0,0.1
		c0.9,2.3,1.5,4.1,1.9,5.1C2735.2,2205.1,2735.6,2204.9,2735.6,2204.9z"/>
	<path class="st36" d="M2735.6,2204.9c12.8-2.9,23.9-3.8,33.4-3.3c-0.3-5.7-0.8-11.3-1.4-16.8c-19.1,4.4-34.7,15.8-34.9,15.3l0,0.1
		c0.9,2.3,1.5,4.1,1.9,5.1C2735.2,2205.1,2735.6,2204.9,2735.6,2204.9z"/>
	<polygon class="st15" points="2444.4,2845.1 2487.7,2848.9 2493.4,2752.3 2448.1,2747.9 2436.3,2844.4 2444.4,2845.1 	"/>
	<polygon class="st37" points="2496.7,2849.6 2505.7,2869.4 2496.7,2752.6 2493.4,2752.3 2487.7,2848.9 	"/>
	<path class="st28" d="M2799.4,2478.9c-4.2-2-8-3.8-11.1-5.3c0,0,0,0,0,0L2799.4,2478.9z"/>
	<path class="st28" d="M2905.9,2532c-22.6-12.5-76.4-38.7-106.4-53.1c13.4,25.5-92.4,129.6-92.4,129.6s-1-4.7-2.9-11.8
		c-6.8,7.4-11.2,11.8-11.2,11.8c-2.6-34.2-32.3-70.8-45.8-86c-34.3,1.7-65.7,42.7-65.7,42.7v-15.5c-2.4,3.1-4.5,6.4-6,10
		c0,0-0.7-46.6,5.4-75.2c-27.3,11.7-88.1,38.6-105.1,53.1c-22.2,18.9-36.6,209.6-36.6,209.6l9.1,0.9l45.3,4.4l3.3,0.3l-17.6-1.7
		l10.6-127.5l6.9,129.2l9,116.8l67,146.7l0,0l-3.5-7.6l0,0l-0.9-2l0.9,2l42.2,2.4c6.5-10.2,12.1-20.4,13.3-27.1
		c0.8-4.4,6.3-7.6,14-10c-13.7-8.3-18-25.9-4.3-15.2c12.3,9.6,27.1,10.4,34.4,10.1c1.6-0.1,3.1-0.3,4.6-0.4l0,0v0
		c17.9-1.4,33.8-1.1,33.8-1.1s81.8-64.8,125.9-84.8l-7.1,2l2.6-71.3h-25.4c0,0,0-84.4,9.6-172.1l-2.5,168.8l24.5-1.7h12.2h76.6h8.7
		C2932.5,2808.1,2941.2,2551.5,2905.9,2532z"/>
	<path class="st28" d="M2640.4,2515.3c0,0-0.8,0.2-2.1,0.6c0.9,0,1.8-0.1,2.6-0.1C2640.6,2515.5,2640.4,2515.3,2640.4,2515.3z"/>
	<path class="st28" d="M2639.7,2513.5c0.2,0.6,0.4,1.3,0.7,1.9c0.7-0.2,1.5-0.5,2.2-0.7L2639.7,2513.5z"/>
	<path class="st29" d="M2704.1,2596.7c1.9,7.1,2.9,11.8,2.9,11.8s105.9-104.1,92.4-129.6l0,0l0,0l-11.1-5.3
		C2778.8,2512.7,2727.2,2571.8,2704.1,2596.7z"/>
	<path class="st29" d="M2638.3,2515.9c-8.5,2.5-40.8,13.1-56.8,33.8v15.5c0,0,31.4-41,65.7-42.7c-3.1-3.4-5.3-5.8-6.2-6.7
		C2640,2515.9,2639.2,2515.9,2638.3,2515.9z"/>
	<polygon class="st38" points="2569.2,3008.5 2569.2,3008.5 2568.3,3006.5 	"/>
	<path class="st38" d="M2695.6,3021.7c-4.6,1.2-9.7,2.1-15,2.3c-2.4,0.2-4.9,0.3-7.6,0.3l-5.7-1.1c0,0-23.6,29-56.4,29.9l-13.2-5
		l0,0l0,0l-10.1-3.8c0,0,13.1-16.6,23.8-33.3l-42.2-2.4l3.5,7.6l26,57l266.7-47.7l-155.7-8.9
		C2705.7,3018.5,2701.1,3020.3,2695.6,3021.7z"/>
	<path class="st35" d="M2834.9,2808.1l-1.7,74.3c-44.1,20-125.9,84.8-125.9,84.8s-15.9-0.2-33.8,1.1c0,0-0.4,11.1-22.9,9.4
		c-4.5-0.3-8.5-1.8-11.9-3.9c-7.7,2.4-13.2,5.6-14,10c-1.3,6.7-6.9,16.9-13.3,27.1c-10.7,16.8-23.8,33.3-23.8,33.3l10.1,3.8
		c0,0,1.4-1.3,3.5-3.5c10.3-11.6,31.6-42.7,31.6-42.7c-5.7,15.3-23.9,34.9-31.6,42.7c-1.4,1.6-2.6,2.8-3.5,3.5l13.2,5
		c0,0,35.2-19.3,51.4-39.2c16.2-20,23.5,7.5,65-19.1c41.5-26.6,182.9-67.1,188.4-92.4l3.8-45l-72.4-49.3H2834.9z M2605.2,3050.9
		c0,0,28-20.1,35.5-29c1.4-2,1.9-3.2,1.9-3.2c0,0.7-0.7,1.8-1.9,3.2C2637.2,3027.1,2627.8,3038.1,2605.2,3050.9z"/>
	<path class="st35" d="M2914.7,2913.4l0.1-0.7c0,0-0.9,3.8-4.5,8.7C2914.4,2916.4,2914.7,2913.4,2914.7,2913.4z"/>
	<path class="st35" d="M2843.8,2957.7c26.3-8.9,42.9-17.5,53.3-24.7c-7.4,4.3-42.7,18.9-79.6,34
		C2825.9,2964,2834.6,2960.8,2843.8,2957.7z"/>
	<path class="st35" d="M2725.1,3006.5c-3.9,2.7-7.9,5.8-12.9,8.6C2720.3,3010.8,2725.1,3006.5,2725.1,3006.5z"/>
	<path class="st35" d="M2738.4,3000.1c-6.9,3.1-11.7,5.3-13.3,6.4C2725.1,3006.5,2729.9,3004.1,2738.4,3000.1z"/>
	<path class="st35" d="M2668.9,2968.7c2.9-0.1,4.6-0.4,4.6-0.4C2672,2968.4,2670.4,2968.6,2668.9,2968.7z"/>
	<path class="st35" d="M2680.5,3024c5.4-0.2,10.4-1,15-2.3C2691.2,3022.8,2686.2,3023.6,2680.5,3024z"/>
	<polygon class="st39" points="2598.7,3111.9 2865.4,3057.5 2865.4,3025.4 2598.7,3073.1 	"/>
	<path class="st40" d="M2768.9,2201.6c7.8,0.4,14.6,1.7,20.5,3.6c0-1.2,0-2.6-0.1-4.3c-0.1-4.3-0.4-10.3-0.9-17.4
		c-2.3-33.6-10.2-91.2-36.8-107.7c0,0,0,0,0,0l0,0l-14.4,2.6c0,0,23.8,48.2,30.3,106.4C2768.2,2190.4,2768.7,2196,2768.9,2201.6z"/>
	<path class="st16" d="M2642.5,2514.6c-0.7,0.2-1.5,0.6-2.2,0.7c0,0,0.2,0.2,0.5,0.5c0.9,0.9,3.2,3.3,6.2,6.7
		c13.5,15.1,43.2,51.8,45.8,86c0,0,4.3-4.4,11.2-11.8c23.1-24.9,74.8-84,84.2-123.2c0,0,0,0,0,0c0.5-2,0.9-4,1.1-5.9
		c0,0-35.9-21.9-44-30.9l0,0C2745.4,2436.8,2683.2,2501.8,2642.5,2514.6z"/>
	<path class="st16" d="M2575.4,2559.7c1.5-3.6,3.6-6.9,6-10c16-20.7,48.4-31.3,56.8-33.8c1.3-0.4,2.1-0.6,2.1-0.6
		c-0.2-0.6-0.4-1.3-0.7-1.9c-5.5-15.7-8-41.8-8.9-55.1c-0.3-5.1-0.5-8.4-0.5-8.4l-43.8,17.7c-2.4,3.9-4.3,9.8-5.7,16.8
		C2574.7,2513.1,2575.4,2559.7,2575.4,2559.7z"/>
	<polygon class="st41" points="2214,3034.3 2217.3,3073.1 2598.7,3111.9 2598.7,3073.1 	"/>
	<polygon class="st42" points="2572.7,3016.1 2505.7,2869.4 2496.7,2849.6 2487.7,2848.9 2444.4,2845.1 2273.1,3039.8 2214,3034.3 
		2598.7,3073.1 	"/>
	<polygon class="st29" points="2489.8,2623.4 2479.1,2750.9 2496.7,2752.6 	"/>
	<path class="st29" d="M2810.4,2809.7l2.5-168.8c-9.6,87.7-9.6,172.1-9.6,172.1h25.4l-2.6,71.3l7.1-2l1.7-74.3L2810.4,2809.7z"/>
	<polygon class="st37" points="2919.5,2857.4 2919.5,2857.4 2923.7,2808.1 2847.1,2808.1 	"/>
	<path class="st37" d="M2727.3,2994.8c-41.5,26.6-48.8-0.8-65,19.1c-16.2,20-51.4,39.2-51.4,39.2c32.8-0.9,56.4-29.9,56.4-29.9
		l5.7,1.1c2.7,0,5.2-0.1,7.6-0.3c5.7-0.4,10.7-1.2,15-2.3c5.5-1.4,10.1-3.2,14.1-5.2c0.9-0.5,1.7-0.9,2.6-1.4c5-2.8,9-5.9,12.9-8.6
		c1.6-1.1,6.4-3.4,13.3-6.4c17.4-7.7,48.7-20.5,79.1-33c36.8-15.1,72.2-29.7,79.6-34c0,0,0.1-0.1,0.2-0.1
		c6.4-3.8,10.4-7.9,13.1-11.5c3.6-4.9,4.5-8.7,4.5-8.7v0l0.9-10.3v0C2910.2,2927.6,2768.8,2968.1,2727.3,2994.8z"/>
	<path class="st15" d="M2673.5,2968.3L2673.5,2968.3L2673.5,2968.3c0,0-1.8,0.3-4.6,0.4c-7.4,0.3-22.2-0.5-34.4-10.1
		c-13.6-10.6-9.4,6.9,4.3,15.2c3.4,2.1,7.4,3.6,11.9,3.9C2673.1,2979.4,2673.5,2968.3,2673.5,2968.3z"/>
	<path class="st37" d="M2640.7,3021.9c1.1-1.3,1.8-2.5,1.9-3.2C2642.6,3018.7,2642.1,3019.9,2640.7,3021.9z"/>
	<path class="st37" d="M2605.2,3050.9c22.6-12.8,32-23.8,35.5-29C2633.2,3030.8,2605.2,3050.9,2605.2,3050.9z"/>
	<path class="st37" d="M2597.7,3048.1c0.9-0.7,2.1-2,3.5-3.5C2599.1,3046.7,2597.7,3048.1,2597.7,3048.1L2597.7,3048.1
		L2597.7,3048.1z"/>
	<path class="st37" d="M2632.8,3001.8c0,0-21.3,31.2-31.6,42.7C2608.9,3036.7,2627.1,3017.1,2632.8,3001.8z"/>
	<path class="st37" d="M2699.1,2375.1c-23.3,13.9-60.4,20.5-60.4,20.5l1.7,12.2L2699.1,2375.1z"/>
	<path class="st37" d="M2734.6,2205.3c-0.3-1-0.9-2.8-1.9-5.1c-2.8-6.9-8.6-18.4-18.9-29.7c-0.3-0.3-0.6-0.7-0.9-1
		c-0.8-0.8-1.6-1.7-2.5-2.5c-1.2-1.2-2.5-2.4-3.8-3.6c-0.5-0.5-1-0.9-1.6-1.4c-13.5-11.4-32.5-21-59.1-23.3c-0.4,0-0.8-0.1-1.2-0.1
		c0,0,0.1,0,0.2,0.1c4.1,1.6,72,29.4,70.8,78.7C2724.1,2210.2,2731.9,2206.5,2734.6,2205.3z"/>
	<polygon class="st43" points="2444.4,2845.1 2444.4,2845.1 2436.3,2844.4 2071.5,2813 2214,3034.3 2273.1,3039.8 	"/>
	<path class="st23" d="M2768.9,2201.6c-9.5-0.5-20.6,0.4-33.4,3.3c0,0-0.4,0.1-1,0.4c-2.7,1.2-10.5,4.9-18.8,12.1
		c-17,14.7-35.8,43.9-15.4,94.8c0,0,20.4,21.2,51.3,24.7c13.2,1.5,28.2-0.1,44.4-8.1c0,0,50.9-13.3,30.1-86.5c0,0-4.7-20.4-26-32.4
		c-3.2-1.8-6.8-3.4-10.8-4.7C2783.5,2203.3,2776.8,2202,2768.9,2201.6z M2710.3,2273.1c-0.6-17.7,8.2-35,24.1-42.9
		c3.2-1.6,6.7-2.8,10.6-3.5c0,0-53.5,53.6,8.3,94.7C2753.3,2321.3,2711.7,2315.9,2710.3,2273.1z"/>
	<path class="st16" d="M2745,2226.7c-3.8,0.7-7.4,1.9-10.6,3.5c-15.9,7.9-24.7,25.2-24.1,42.9c1.4,42.9,43,48.3,43,48.3
		C2691.5,2280.3,2745,2226.7,2745,2226.7z"/>
</g>
<path class="st19" d="M2497.3,3166.2c0,0,94-31.5,104.8-34.9c0,0,26.7,116,435.8,107.4c0,0-129,17.8-358.4-20.5l-147.9-24.2
	L2497.3,3166.2z"/>
<path class="st40" d="M2635,2858.6c0,0,129.3,81.3,175.9-49.4c0,0-0.9,118.5-141.3,76.8C2669.6,2886,2652.4,2880.3,2635,2858.6z"/>
</svg>
